G04*
G04 #@! TF.GenerationSoftware,Altium Limited,Altium Designer,21.3.2 (30)*
G04*
G04 Layer_Color=8388736*
%FSLAX25Y25*%
%MOIN*%
G70*
G04*
G04 #@! TF.SameCoordinates,6AF4B204-6769-45D0-A42D-1EC1730201C4*
G04*
G04*
G04 #@! TF.FilePolarity,Negative*
G04*
G01*
G75*
%ADD38C,0.00787*%
%ADD61R,0.05918X0.07887*%
%ADD62R,0.22453X0.08674*%
%ADD63R,0.07480X0.04724*%
%ADD64R,0.07887X0.05918*%
%ADD65R,0.07099X0.10642*%
%ADD66R,0.07887X0.05642*%
%ADD67R,0.05642X0.07887*%
%ADD68R,0.10446X0.13202*%
%ADD69R,0.13202X0.10446*%
%ADD70R,0.07493X0.10642*%
%ADD71R,0.03261X0.04068*%
%ADD72R,0.05721X0.07296*%
%ADD73O,0.06509X0.03162*%
%ADD74R,0.04627X0.03958*%
%ADD75R,0.06706X0.08674*%
%ADD76R,0.15761X0.08674*%
%ADD77R,0.03950X0.04343*%
%ADD78R,0.07296X0.05524*%
%ADD79R,0.05524X0.07296*%
%ADD80R,0.25603X0.24816*%
%ADD81R,0.06706X0.11824*%
G04:AMPARAMS|DCode=82|XSize=25.59mil|YSize=62.99mil|CornerRadius=0mil|HoleSize=0mil|Usage=FLASHONLY|Rotation=225.000|XOffset=0mil|YOffset=0mil|HoleType=Round|Shape=Rectangle|*
%AMROTATEDRECTD82*
4,1,4,-0.01322,0.03132,0.03132,-0.01322,0.01322,-0.03132,-0.03132,0.01322,-0.01322,0.03132,0.0*
%
%ADD82ROTATEDRECTD82*%

G04:AMPARAMS|DCode=83|XSize=25.59mil|YSize=62.99mil|CornerRadius=0mil|HoleSize=0mil|Usage=FLASHONLY|Rotation=315.000|XOffset=0mil|YOffset=0mil|HoleType=Round|Shape=Rectangle|*
%AMROTATEDRECTD83*
4,1,4,-0.03132,-0.01322,0.01322,0.03132,0.03132,0.01322,-0.01322,-0.03132,-0.03132,-0.01322,0.0*
%
%ADD83ROTATEDRECTD83*%

%ADD84C,0.10642*%
%ADD85R,0.07887X0.07887*%
%ADD86C,0.07887*%
%ADD87C,0.08200*%
%ADD88R,0.08200X0.08200*%
%ADD89C,0.07493*%
%ADD90C,0.06312*%
%ADD91R,0.06312X0.06312*%
%ADD92O,0.04343X0.06706*%
%ADD93R,0.07493X0.07493*%
%ADD94R,0.08200X0.08200*%
%ADD95C,0.11627*%
%ADD96C,0.02800*%
%ADD97C,0.03300*%
%ADD98C,0.04800*%
D38*
X0Y0D02*
Y393701D01*
X393701D01*
Y0D02*
Y393701D01*
X0Y0D02*
X393701D01*
D61*
X106496Y304134D02*
D03*
X117913D02*
D03*
X34252Y152559D02*
D03*
X22835D02*
D03*
X53347Y264764D02*
D03*
X64764D02*
D03*
X114370Y294291D02*
D03*
X125787D02*
D03*
X157283Y332677D02*
D03*
X145866D02*
D03*
X49409Y336614D02*
D03*
X60827D02*
D03*
X12008D02*
D03*
X23425D02*
D03*
X307283Y304134D02*
D03*
X318701D02*
D03*
X235039Y152559D02*
D03*
X223622D02*
D03*
X254134Y264764D02*
D03*
X265551D02*
D03*
X315158Y294291D02*
D03*
X326575D02*
D03*
X358071Y332677D02*
D03*
X346654D02*
D03*
X250197Y336614D02*
D03*
X261614D02*
D03*
X212795D02*
D03*
X224213D02*
D03*
D62*
X17717Y354331D02*
D03*
X55118D02*
D03*
X218504D02*
D03*
X255906D02*
D03*
D63*
X49213Y229331D02*
D03*
X80709D02*
D03*
X250000D02*
D03*
X281496D02*
D03*
D64*
X52165Y286221D02*
D03*
Y274803D02*
D03*
X81693Y87402D02*
D03*
Y75984D02*
D03*
X35433Y68110D02*
D03*
Y79528D02*
D03*
X49213Y131693D02*
D03*
Y120276D02*
D03*
X252953Y286221D02*
D03*
Y274803D02*
D03*
X282480Y87402D02*
D03*
Y75984D02*
D03*
X236221Y68110D02*
D03*
Y79528D02*
D03*
X250000Y131693D02*
D03*
Y120276D02*
D03*
D65*
X90551Y56102D02*
D03*
Y42323D02*
D03*
X291339Y56102D02*
D03*
Y42323D02*
D03*
D66*
X64213Y93504D02*
D03*
X53898D02*
D03*
X23386Y101378D02*
D03*
X33701D02*
D03*
X265000Y93504D02*
D03*
X254685D02*
D03*
X224173Y101378D02*
D03*
X234488D02*
D03*
D67*
X7874Y121063D02*
D03*
Y131378D02*
D03*
X208661Y121063D02*
D03*
Y131378D02*
D03*
D68*
X181496Y159449D02*
D03*
X157087D02*
D03*
X382283D02*
D03*
X357874D02*
D03*
D69*
X122047Y49803D02*
D03*
Y74213D02*
D03*
X322835Y49803D02*
D03*
Y74213D02*
D03*
D70*
X97441Y90551D02*
D03*
Y74803D02*
D03*
X298228Y90551D02*
D03*
Y74803D02*
D03*
D71*
X171801Y247047D02*
D03*
X180561D02*
D03*
X372589D02*
D03*
X381348D02*
D03*
D72*
X115256Y90551D02*
D03*
X128839D02*
D03*
X316043D02*
D03*
X329626D02*
D03*
D73*
X122146Y237815D02*
D03*
Y232815D02*
D03*
Y227815D02*
D03*
Y222815D02*
D03*
X143602Y237815D02*
D03*
Y232815D02*
D03*
Y227815D02*
D03*
Y222815D02*
D03*
X322933Y237815D02*
D03*
Y232815D02*
D03*
Y227815D02*
D03*
Y222815D02*
D03*
X344390Y237815D02*
D03*
Y232815D02*
D03*
Y227815D02*
D03*
Y222815D02*
D03*
D74*
X185571Y188976D02*
D03*
X178602Y185236D02*
D03*
Y192717D02*
D03*
X386358Y188976D02*
D03*
X379390Y185236D02*
D03*
Y192717D02*
D03*
D75*
X19488Y114173D02*
D03*
X28543D02*
D03*
X37598D02*
D03*
X220276D02*
D03*
X229331D02*
D03*
X238386D02*
D03*
D76*
X28543Y138976D02*
D03*
X229331D02*
D03*
D77*
X158268Y90551D02*
D03*
X150787D02*
D03*
X154528Y82677D02*
D03*
X73032Y329724D02*
D03*
X80512D02*
D03*
X76772Y337598D02*
D03*
X113386Y329724D02*
D03*
X120866D02*
D03*
X117126Y337598D02*
D03*
X128150Y329724D02*
D03*
X135630D02*
D03*
X131890Y337598D02*
D03*
X359055Y90551D02*
D03*
X351575D02*
D03*
X355315Y82677D02*
D03*
X273819Y329724D02*
D03*
X281299D02*
D03*
X277559Y337598D02*
D03*
X314173Y329724D02*
D03*
X321654D02*
D03*
X317913Y337598D02*
D03*
X328937Y329724D02*
D03*
X336417D02*
D03*
X332677Y337598D02*
D03*
D78*
X156496Y183465D02*
D03*
Y194488D02*
D03*
X169291D02*
D03*
Y183465D02*
D03*
X76772Y361811D02*
D03*
Y350787D02*
D03*
X117126Y361811D02*
D03*
Y350787D02*
D03*
X131890Y361811D02*
D03*
Y350787D02*
D03*
X357283Y183465D02*
D03*
Y194488D02*
D03*
X370079D02*
D03*
Y183465D02*
D03*
X277559Y361811D02*
D03*
Y350787D02*
D03*
X317913Y361811D02*
D03*
Y350787D02*
D03*
X332677Y361811D02*
D03*
Y350787D02*
D03*
D79*
X170669Y257874D02*
D03*
X181693D02*
D03*
X121457Y32480D02*
D03*
X132480D02*
D03*
X146063Y344488D02*
D03*
X157087D02*
D03*
X104921Y236221D02*
D03*
X93898D02*
D03*
X104921Y225394D02*
D03*
X93898D02*
D03*
X371457Y257874D02*
D03*
X382480D02*
D03*
X322244Y32480D02*
D03*
X333268D02*
D03*
X346850Y344488D02*
D03*
X357874D02*
D03*
X305709Y236221D02*
D03*
X294685D02*
D03*
X305709Y225394D02*
D03*
X294685D02*
D03*
D80*
X58913Y51378D02*
D03*
X259701D02*
D03*
D81*
X67913Y76772D02*
D03*
X49913D02*
D03*
X268701D02*
D03*
X250701D02*
D03*
D82*
X103288Y280412D02*
D03*
X101061Y278185D02*
D03*
X98834Y275958D02*
D03*
X96606Y273731D02*
D03*
X94379Y271504D02*
D03*
X92152Y269277D02*
D03*
X89925Y267050D02*
D03*
X87698Y264822D02*
D03*
X64035Y288485D02*
D03*
X66262Y290713D02*
D03*
X68489Y292940D02*
D03*
X70716Y295167D02*
D03*
X72944Y297394D02*
D03*
X75171Y299621D02*
D03*
X77398Y301848D02*
D03*
X79625Y304075D02*
D03*
X304075Y280412D02*
D03*
X301848Y278185D02*
D03*
X299621Y275958D02*
D03*
X297394Y273731D02*
D03*
X295167Y271504D02*
D03*
X292940Y269277D02*
D03*
X290713Y267050D02*
D03*
X288486Y264822D02*
D03*
X264822Y288485D02*
D03*
X267050Y290713D02*
D03*
X269277Y292940D02*
D03*
X271504Y295167D02*
D03*
X273731Y297394D02*
D03*
X275958Y299621D02*
D03*
X278185Y301848D02*
D03*
X280412Y304075D02*
D03*
D83*
X79625Y264822D02*
D03*
X77398Y267050D02*
D03*
X75171Y269277D02*
D03*
X72944Y271504D02*
D03*
X70716Y273731D02*
D03*
X68489Y275958D02*
D03*
X66262Y278185D02*
D03*
X64035Y280412D02*
D03*
X87698Y304075D02*
D03*
X89925Y301848D02*
D03*
X92152Y299621D02*
D03*
X94379Y297394D02*
D03*
X96606Y295167D02*
D03*
X98834Y292940D02*
D03*
X101061Y290713D02*
D03*
X103288Y288485D02*
D03*
X280412Y264822D02*
D03*
X278185Y267050D02*
D03*
X275958Y269277D02*
D03*
X273731Y271504D02*
D03*
X271504Y273731D02*
D03*
X269277Y275958D02*
D03*
X267050Y278185D02*
D03*
X264822Y280412D02*
D03*
X288486Y304075D02*
D03*
X290713Y301848D02*
D03*
X292940Y299621D02*
D03*
X295167Y297394D02*
D03*
X297394Y295167D02*
D03*
X299621Y292940D02*
D03*
X301848Y290713D02*
D03*
X304075Y288485D02*
D03*
D84*
X308000Y17500D02*
D03*
X97000D02*
D03*
X295500Y376000D02*
D03*
X97500D02*
D03*
D85*
X12313Y41253D02*
D03*
X208575Y41227D02*
D03*
D86*
X196863Y214578D02*
D03*
D87*
X10827Y171260D02*
D03*
Y181260D02*
D03*
Y191260D02*
D03*
Y201260D02*
D03*
Y211260D02*
D03*
Y221260D02*
D03*
Y231260D02*
D03*
X136417Y313976D02*
D03*
X126417D02*
D03*
X116417D02*
D03*
X106417D02*
D03*
X96417D02*
D03*
X86417D02*
D03*
X76417D02*
D03*
X66417D02*
D03*
X56417D02*
D03*
X46417D02*
D03*
X36417D02*
D03*
Y253976D02*
D03*
X46417D02*
D03*
X56417D02*
D03*
X66417D02*
D03*
X76417D02*
D03*
X86417D02*
D03*
X96417D02*
D03*
X106417D02*
D03*
X116417D02*
D03*
X126417D02*
D03*
X136417D02*
D03*
X146417D02*
D03*
X156417Y258976D02*
D03*
Y268976D02*
D03*
Y278976D02*
D03*
Y288976D02*
D03*
Y298976D02*
D03*
Y308976D02*
D03*
X36417Y263976D02*
D03*
Y273976D02*
D03*
Y283976D02*
D03*
X101417Y263976D02*
D03*
X111417D02*
D03*
X211614Y171260D02*
D03*
Y181260D02*
D03*
Y191260D02*
D03*
Y201260D02*
D03*
Y211260D02*
D03*
Y221260D02*
D03*
Y231260D02*
D03*
X337205Y313976D02*
D03*
X327205D02*
D03*
X317205D02*
D03*
X307205D02*
D03*
X297205D02*
D03*
X287205D02*
D03*
X277205D02*
D03*
X267205D02*
D03*
X257205D02*
D03*
X247205D02*
D03*
X237205D02*
D03*
Y253976D02*
D03*
X247205D02*
D03*
X257205D02*
D03*
X267205D02*
D03*
X277205D02*
D03*
X287205D02*
D03*
X297205D02*
D03*
X307205D02*
D03*
X317205D02*
D03*
X327205D02*
D03*
X337205D02*
D03*
X347205D02*
D03*
X357205Y258976D02*
D03*
Y268976D02*
D03*
Y278976D02*
D03*
Y288976D02*
D03*
Y298976D02*
D03*
Y308976D02*
D03*
X237205Y263976D02*
D03*
Y273976D02*
D03*
Y283976D02*
D03*
X302205Y263976D02*
D03*
X312205D02*
D03*
D88*
X10827Y241260D02*
D03*
X211614D02*
D03*
D89*
X181496Y49213D02*
D03*
X151575D02*
D03*
X56102Y187165D02*
D03*
Y177165D02*
D03*
Y167165D02*
D03*
X66102Y177165D02*
D03*
Y167165D02*
D03*
X95472Y197165D02*
D03*
Y187165D02*
D03*
Y167165D02*
D03*
Y177165D02*
D03*
X382283Y49213D02*
D03*
X352362D02*
D03*
X256890Y187165D02*
D03*
Y177165D02*
D03*
Y167165D02*
D03*
X266890Y177165D02*
D03*
Y167165D02*
D03*
X296260Y197165D02*
D03*
Y187165D02*
D03*
Y167165D02*
D03*
Y177165D02*
D03*
D90*
X171260Y208189D02*
D03*
X181260D02*
D03*
X171260Y238189D02*
D03*
X138937Y161929D02*
D03*
X128937Y191929D02*
D03*
X138937D02*
D03*
X372047Y208189D02*
D03*
X382047D02*
D03*
X372047Y238189D02*
D03*
X339724Y161929D02*
D03*
X329724Y191929D02*
D03*
X339724D02*
D03*
D91*
X181260Y238189D02*
D03*
X128937Y161929D02*
D03*
X382047Y238189D02*
D03*
X329724Y161929D02*
D03*
D92*
X98957Y356299D02*
D03*
X93957D02*
D03*
X88957D02*
D03*
X103957D02*
D03*
X299744D02*
D03*
X294744D02*
D03*
X289744D02*
D03*
X304744D02*
D03*
D93*
X66102Y187165D02*
D03*
X95472Y157165D02*
D03*
X266890Y187165D02*
D03*
X296260Y157165D02*
D03*
D94*
X146417Y313976D02*
D03*
X347205D02*
D03*
D95*
X17717Y82677D02*
D03*
X175197D02*
D03*
X175197Y318898D02*
D03*
X17717D02*
D03*
X218504Y82677D02*
D03*
X375984D02*
D03*
X375984Y318898D02*
D03*
X218504D02*
D03*
D96*
X52165Y280512D02*
D03*
X59055Y286417D02*
D03*
X69882Y284449D02*
D03*
X117126D02*
D03*
X107283D02*
D03*
X105315Y295276D02*
D03*
X109252D02*
D03*
X63703Y271313D02*
D03*
X70866Y264764D02*
D03*
X28543Y330709D02*
D03*
X44291D02*
D03*
X81693Y296260D02*
D03*
X85630Y297244D02*
D03*
X162402Y94488D02*
D03*
X165354Y257874D02*
D03*
X80709Y221457D02*
D03*
X113189Y237205D02*
D03*
X252953Y280512D02*
D03*
X259842Y286417D02*
D03*
X270669Y284449D02*
D03*
X317913D02*
D03*
X308071D02*
D03*
X306102Y295276D02*
D03*
X310039D02*
D03*
X264490Y271313D02*
D03*
X271654Y264764D02*
D03*
X229331Y330709D02*
D03*
X245079D02*
D03*
X282480Y296260D02*
D03*
X286417Y297244D02*
D03*
X363189Y94488D02*
D03*
X366142Y257874D02*
D03*
X281496Y221457D02*
D03*
X313976Y237205D02*
D03*
D97*
X184375Y198925D02*
D03*
X89567Y245079D02*
D03*
X82677D02*
D03*
X133858Y264764D02*
D03*
X140755Y264832D02*
D03*
X154528Y225394D02*
D03*
Y235236D02*
D03*
X113189Y220472D02*
D03*
X148622Y203740D02*
D03*
X137795D02*
D03*
X177165Y179134D02*
D03*
X169291Y159449D02*
D03*
X118110Y166339D02*
D03*
X108268D02*
D03*
X118110Y203740D02*
D03*
X108268D02*
D03*
X118110Y184055D02*
D03*
X108268D02*
D03*
X177165Y122047D02*
D03*
X167323D02*
D03*
X157480D02*
D03*
X177165Y38386D02*
D03*
X162402D02*
D03*
X103347Y28543D02*
D03*
X83661D02*
D03*
X63976D02*
D03*
X34449Y43307D02*
D03*
Y53150D02*
D03*
X5906Y72835D02*
D03*
Y82677D02*
D03*
Y92520D02*
D03*
X103347Y122047D02*
D03*
X93504D02*
D03*
X83661D02*
D03*
X63976Y146653D02*
D03*
X54134D02*
D03*
X39370Y166339D02*
D03*
X29528D02*
D03*
X49213Y206693D02*
D03*
Y215551D02*
D03*
X29528D02*
D03*
Y225394D02*
D03*
Y235236D02*
D03*
X9843Y274606D02*
D03*
Y284449D02*
D03*
Y294291D02*
D03*
X29528Y297244D02*
D03*
X39370D02*
D03*
X83661Y307087D02*
D03*
X112205Y281496D02*
D03*
X125000D02*
D03*
X137795Y289370D02*
D03*
Y299213D02*
D03*
X175197Y279528D02*
D03*
Y289370D02*
D03*
Y298228D02*
D03*
Y338583D02*
D03*
Y348425D02*
D03*
Y358268D02*
D03*
X89567Y333661D02*
D03*
X96457D02*
D03*
X103347D02*
D03*
X83661Y277559D02*
D03*
X90551Y284449D02*
D03*
X83661Y291339D02*
D03*
X76772Y284449D02*
D03*
X85630Y216535D02*
D03*
X67913Y206693D02*
D03*
Y211614D02*
D03*
Y216535D02*
D03*
X385163Y198925D02*
D03*
X290354Y245079D02*
D03*
X283465D02*
D03*
X334646Y264764D02*
D03*
X341543Y264832D02*
D03*
X355315Y225394D02*
D03*
Y235236D02*
D03*
X313976Y220472D02*
D03*
X349410Y203740D02*
D03*
X338583D02*
D03*
X377953Y179134D02*
D03*
X370079Y159449D02*
D03*
X318898Y166339D02*
D03*
X309055D02*
D03*
X318898Y203740D02*
D03*
X309055D02*
D03*
X318898Y184055D02*
D03*
X309055D02*
D03*
X377953Y122047D02*
D03*
X368110D02*
D03*
X358268D02*
D03*
X377953Y38386D02*
D03*
X363189D02*
D03*
X304134Y28543D02*
D03*
X284449D02*
D03*
X264764D02*
D03*
X235236Y43307D02*
D03*
Y53150D02*
D03*
X206693Y72835D02*
D03*
Y82677D02*
D03*
Y92520D02*
D03*
X304134Y122047D02*
D03*
X294291D02*
D03*
X284449D02*
D03*
X264764Y146653D02*
D03*
X254921D02*
D03*
X240158Y166339D02*
D03*
X230315D02*
D03*
X250000Y206693D02*
D03*
Y215551D02*
D03*
X230315D02*
D03*
Y225394D02*
D03*
Y235236D02*
D03*
X210630Y274606D02*
D03*
Y284449D02*
D03*
Y294291D02*
D03*
X230315Y297244D02*
D03*
X240158D02*
D03*
X284449Y307087D02*
D03*
X312992Y281496D02*
D03*
X325787D02*
D03*
X338583Y289370D02*
D03*
Y299213D02*
D03*
X375984Y279528D02*
D03*
Y289370D02*
D03*
Y298228D02*
D03*
Y338583D02*
D03*
Y348425D02*
D03*
Y358268D02*
D03*
X290354Y333661D02*
D03*
X297244D02*
D03*
X304134D02*
D03*
X284449Y277559D02*
D03*
X291339Y284449D02*
D03*
X284449Y291339D02*
D03*
X277559Y284449D02*
D03*
X286417Y216535D02*
D03*
X268701Y206693D02*
D03*
Y211614D02*
D03*
Y216535D02*
D03*
D98*
X170276Y172244D02*
D03*
X371063D02*
D03*
M02*
