G04*
G04 #@! TF.GenerationSoftware,Altium Limited,Altium Designer,21.3.2 (30)*
G04*
G04 Layer_Color=32896*
%FSLAX25Y25*%
%MOIN*%
G70*
G04*
G04 #@! TF.SameCoordinates,3F51CCC3-8A4B-4D73-A1D2-239D5F55BC23*
G04*
G04*
G04 #@! TF.FilePolarity,Positive*
G04*
G01*
G75*
%ADD10C,0.01000*%
%ADD12C,0.00787*%
%ADD15C,0.00394*%
%ADD18R,0.03307X0.06692*%
%ADD19R,0.06692X0.03307*%
%ADD20R,0.03765X0.24488*%
%ADD21R,0.24488X0.03765*%
%ADD22R,0.11496X0.02436*%
%ADD23C,0.00197*%
%ADD98C,0.01968*%
G36*
X97164Y93188D02*
X97620D01*
Y92960D01*
Y92732D01*
Y92504D01*
X97392D01*
Y92276D01*
Y92048D01*
X97164D01*
Y91820D01*
Y91592D01*
X96936D01*
Y91364D01*
X96708D01*
Y91136D01*
Y90908D01*
Y90680D01*
X96480D01*
Y90452D01*
Y90224D01*
X96252D01*
Y89996D01*
Y89768D01*
Y89540D01*
X96024D01*
Y89312D01*
Y89084D01*
X95796D01*
Y88856D01*
Y88628D01*
X95568D01*
Y88400D01*
Y88172D01*
Y87944D01*
X95340D01*
Y88172D01*
Y88400D01*
Y88628D01*
Y88856D01*
X95568D01*
Y89084D01*
Y89312D01*
Y89540D01*
X95796D01*
Y89768D01*
Y89996D01*
Y90224D01*
X96024D01*
Y90452D01*
Y90680D01*
Y90908D01*
X96252D01*
Y91136D01*
Y91364D01*
Y91592D01*
X96480D01*
Y91820D01*
Y92048D01*
Y92276D01*
Y92504D01*
X96708D01*
Y92732D01*
Y92960D01*
X96936D01*
Y93188D01*
Y93416D01*
X97164D01*
Y93188D01*
D02*
G37*
G36*
X95340Y87716D02*
Y87488D01*
Y87259D01*
X95112D01*
Y87488D01*
Y87716D01*
Y87944D01*
X95340D01*
Y87716D01*
D02*
G37*
G36*
X95112Y87031D02*
Y86803D01*
Y86575D01*
X94884D01*
Y86347D01*
Y86119D01*
Y85891D01*
X94656D01*
Y86119D01*
Y86347D01*
Y86575D01*
Y86803D01*
X94884D01*
Y87031D01*
Y87259D01*
X95112D01*
Y87031D01*
D02*
G37*
G36*
X84622Y93188D02*
Y92960D01*
Y92732D01*
Y92504D01*
X84850D01*
Y92276D01*
Y92048D01*
Y91820D01*
X85078D01*
Y91592D01*
Y91364D01*
Y91136D01*
X85306D01*
Y90908D01*
Y90680D01*
X85534D01*
Y90452D01*
X85306D01*
Y90224D01*
X85534D01*
Y89996D01*
Y89768D01*
Y89540D01*
X85762D01*
Y89312D01*
Y89084D01*
X85991D01*
Y88856D01*
Y88628D01*
Y88400D01*
Y88172D01*
X86219D01*
Y87944D01*
Y87716D01*
Y87488D01*
X86446D01*
Y87259D01*
Y87031D01*
X86675D01*
Y86803D01*
Y86575D01*
Y86347D01*
Y86119D01*
X86903D01*
Y85891D01*
Y85663D01*
X86675D01*
Y85891D01*
Y86119D01*
X86446D01*
Y86347D01*
Y86575D01*
Y86803D01*
X86219D01*
Y87031D01*
Y87259D01*
Y87488D01*
X85991D01*
Y87716D01*
Y87944D01*
X85762D01*
Y88172D01*
Y88400D01*
Y88628D01*
X85534D01*
Y88856D01*
Y89084D01*
X85306D01*
Y89312D01*
Y89540D01*
Y89768D01*
Y89996D01*
X85078D01*
Y90224D01*
Y90452D01*
X84850D01*
Y90680D01*
X84622D01*
Y90908D01*
Y91136D01*
Y91364D01*
X84394D01*
Y91592D01*
Y91820D01*
X84166D01*
Y92048D01*
Y92276D01*
X83938D01*
Y92504D01*
Y92732D01*
X83710D01*
Y92960D01*
X83938D01*
Y93188D01*
X84394D01*
Y93416D01*
X84622D01*
Y93188D01*
D02*
G37*
G36*
X94656Y85663D02*
Y85435D01*
X94428D01*
Y85663D01*
Y85891D01*
X94656D01*
Y85663D01*
D02*
G37*
G36*
X87131Y85207D02*
Y84979D01*
X86903D01*
Y85207D01*
Y85435D01*
X87131D01*
Y85207D01*
D02*
G37*
G36*
X94428Y84979D02*
Y84751D01*
X94200D01*
Y84979D01*
Y85207D01*
X94428D01*
Y84979D01*
D02*
G37*
G36*
X87359Y84523D02*
Y84295D01*
X87131D01*
Y84523D01*
Y84751D01*
X87359D01*
Y84523D01*
D02*
G37*
G36*
X94200Y84295D02*
Y84067D01*
X93972D01*
Y84295D01*
Y84523D01*
X94200D01*
Y84295D01*
D02*
G37*
G36*
X99445Y92048D02*
X99901D01*
Y91820D01*
X99673D01*
Y91592D01*
Y91364D01*
X99445D01*
Y91136D01*
Y90908D01*
X99217D01*
Y90680D01*
X98988D01*
Y90452D01*
Y90224D01*
X98760D01*
Y89996D01*
Y89768D01*
X98532D01*
Y89540D01*
Y89312D01*
X98304D01*
Y89084D01*
Y88856D01*
X98076D01*
Y88628D01*
Y88400D01*
X97848D01*
Y88172D01*
Y87944D01*
X97620D01*
Y87716D01*
Y87488D01*
X97392D01*
Y87259D01*
Y87031D01*
X97164D01*
Y86803D01*
Y86575D01*
X96936D01*
Y86347D01*
Y86119D01*
X96708D01*
Y85891D01*
Y85663D01*
X96480D01*
Y85435D01*
Y85207D01*
X96252D01*
Y84979D01*
Y84751D01*
X96024D01*
Y84523D01*
Y84295D01*
X95796D01*
Y84067D01*
Y83839D01*
X95568D01*
Y83611D01*
Y83383D01*
X95340D01*
Y83611D01*
Y83839D01*
Y84067D01*
X95568D01*
Y84295D01*
Y84523D01*
X95796D01*
Y84751D01*
Y84979D01*
Y85207D01*
X96024D01*
Y85435D01*
Y85663D01*
X96252D01*
Y85891D01*
Y86119D01*
X96480D01*
Y86347D01*
Y86575D01*
Y86803D01*
X96708D01*
Y87031D01*
Y87259D01*
X96936D01*
Y87488D01*
Y87716D01*
X97164D01*
Y87944D01*
Y88172D01*
Y88400D01*
X97392D01*
Y88628D01*
Y88856D01*
X97620D01*
Y89084D01*
Y89312D01*
X97848D01*
Y89540D01*
Y89768D01*
X98076D01*
Y89996D01*
Y90224D01*
Y90452D01*
X98304D01*
Y90680D01*
Y90908D01*
X98532D01*
Y91136D01*
Y91364D01*
X98760D01*
Y91592D01*
Y91820D01*
X98988D01*
Y92048D01*
Y92276D01*
X99445D01*
Y92048D01*
D02*
G37*
G36*
X95340Y83155D02*
Y82927D01*
X95112D01*
Y83155D01*
Y83383D01*
X95340D01*
Y83155D01*
D02*
G37*
G36*
X101497Y91136D02*
X101725D01*
Y90908D01*
X101953D01*
Y90680D01*
X101725D01*
Y90452D01*
Y90224D01*
X101497D01*
Y89996D01*
X101269D01*
Y89768D01*
Y89540D01*
X101041D01*
Y89312D01*
Y89084D01*
X100813D01*
Y88856D01*
Y88628D01*
X100585D01*
Y88400D01*
X100357D01*
Y88172D01*
X100129D01*
Y87944D01*
Y87716D01*
X99901D01*
Y87488D01*
Y87259D01*
X99673D01*
Y87031D01*
X99445D01*
Y86803D01*
Y86575D01*
X99217D01*
Y86347D01*
Y86119D01*
X98988D01*
Y85891D01*
Y85663D01*
X98760D01*
Y85435D01*
X98532D01*
Y85207D01*
Y84979D01*
X98304D01*
Y84751D01*
X98076D01*
Y84523D01*
Y84295D01*
X97848D01*
Y84067D01*
Y83839D01*
X97620D01*
Y83611D01*
X97392D01*
Y83383D01*
Y83155D01*
X97164D01*
Y82927D01*
Y82699D01*
X96936D01*
Y82471D01*
X96708D01*
Y82699D01*
Y82927D01*
X96936D01*
Y83155D01*
Y83383D01*
X97164D01*
Y83611D01*
Y83839D01*
X97392D01*
Y84067D01*
Y84295D01*
X97620D01*
Y84523D01*
Y84751D01*
X97848D01*
Y84979D01*
Y85207D01*
X98076D01*
Y85435D01*
Y85663D01*
X98304D01*
Y85891D01*
X98532D01*
Y86119D01*
Y86347D01*
X98760D01*
Y86575D01*
Y86803D01*
X98988D01*
Y87031D01*
Y87259D01*
X99217D01*
Y87488D01*
Y87716D01*
X99445D01*
Y87944D01*
Y88172D01*
X99673D01*
Y88400D01*
Y88628D01*
X99901D01*
Y88856D01*
Y89084D01*
X100129D01*
Y89312D01*
X100357D01*
Y89540D01*
Y89768D01*
X100585D01*
Y89996D01*
Y90224D01*
Y90452D01*
X100813D01*
Y90680D01*
X101041D01*
Y90908D01*
Y91136D01*
X101269D01*
Y91364D01*
X101497D01*
Y91136D01*
D02*
G37*
G36*
X96708Y82243D02*
Y82015D01*
X96480D01*
Y82243D01*
Y82471D01*
X96708D01*
Y82243D01*
D02*
G37*
G36*
X82342Y92048D02*
X82570D01*
Y91820D01*
Y91592D01*
Y91364D01*
X82798D01*
Y91136D01*
Y90908D01*
X83026D01*
Y90680D01*
Y90452D01*
X83254D01*
Y90224D01*
Y89996D01*
X83482D01*
Y89768D01*
Y89540D01*
X83710D01*
Y89312D01*
Y89084D01*
X83938D01*
Y88856D01*
Y88628D01*
Y88400D01*
X84166D01*
Y88172D01*
Y87944D01*
X84394D01*
Y87716D01*
Y87488D01*
X84622D01*
Y87259D01*
Y87031D01*
Y86803D01*
X84850D01*
Y86575D01*
Y86347D01*
X85078D01*
Y86119D01*
Y85891D01*
X85306D01*
Y85663D01*
Y85435D01*
Y85207D01*
X85534D01*
Y84979D01*
Y84751D01*
X85762D01*
Y84523D01*
Y84295D01*
X85991D01*
Y84067D01*
Y83839D01*
Y83611D01*
X86219D01*
Y83383D01*
Y83155D01*
X86446D01*
Y82927D01*
Y82699D01*
X86675D01*
Y82471D01*
Y82243D01*
Y82015D01*
X86446D01*
Y82243D01*
Y82471D01*
X86219D01*
Y82699D01*
Y82927D01*
X85991D01*
Y83155D01*
Y83383D01*
X85762D01*
Y83611D01*
Y83839D01*
X85534D01*
Y84067D01*
Y84295D01*
Y84523D01*
X85306D01*
Y84751D01*
Y84979D01*
X85078D01*
Y85207D01*
Y85435D01*
X84850D01*
Y85663D01*
Y85891D01*
X84622D01*
Y86119D01*
Y86347D01*
X84394D01*
Y86575D01*
Y86803D01*
X84166D01*
Y87031D01*
Y87259D01*
X83938D01*
Y87488D01*
Y87716D01*
X83710D01*
Y87944D01*
Y88172D01*
X83482D01*
Y88400D01*
Y88628D01*
X83254D01*
Y88856D01*
Y89084D01*
X83026D01*
Y89312D01*
Y89540D01*
X82798D01*
Y89768D01*
X82570D01*
Y89996D01*
Y90224D01*
X82342D01*
Y90452D01*
Y90680D01*
X82114D01*
Y90908D01*
Y91136D01*
X81886D01*
Y91364D01*
X81658D01*
Y91592D01*
Y91820D01*
X81430D01*
Y92048D01*
X81886D01*
Y92276D01*
X82342D01*
Y92048D01*
D02*
G37*
G36*
X96480Y81787D02*
X96252D01*
Y82015D01*
X96480D01*
Y81787D01*
D02*
G37*
G36*
X95112Y82699D02*
Y82471D01*
Y82243D01*
X94884D01*
Y82015D01*
Y81787D01*
X94656D01*
Y82015D01*
Y82243D01*
Y82471D01*
X94884D01*
Y82699D01*
Y82927D01*
X95112D01*
Y82699D01*
D02*
G37*
G36*
X80290Y91136D02*
Y90908D01*
Y90680D01*
X80518D01*
Y90452D01*
X80746D01*
Y90224D01*
Y89996D01*
X80974D01*
Y89768D01*
Y89540D01*
X81202D01*
Y89312D01*
Y89084D01*
X81430D01*
Y88856D01*
Y88628D01*
X81658D01*
Y88400D01*
Y88172D01*
X81886D01*
Y87944D01*
Y87716D01*
X82114D01*
Y87488D01*
X82342D01*
Y87259D01*
Y87031D01*
X82570D01*
Y86803D01*
Y86575D01*
X82798D01*
Y86347D01*
Y86119D01*
X83026D01*
Y85891D01*
Y85663D01*
X83254D01*
Y85435D01*
Y85207D01*
X83482D01*
Y84979D01*
Y84751D01*
X83710D01*
Y84523D01*
Y84295D01*
X83938D01*
Y84067D01*
Y83839D01*
X84166D01*
Y83611D01*
X84394D01*
Y83383D01*
Y83155D01*
Y82927D01*
X84622D01*
Y82699D01*
X84850D01*
Y82471D01*
Y82243D01*
X85078D01*
Y82015D01*
Y81787D01*
X85306D01*
Y81559D01*
Y81331D01*
X85078D01*
Y81559D01*
Y81787D01*
X84850D01*
Y82015D01*
Y82243D01*
X84622D01*
Y82471D01*
X84394D01*
Y82699D01*
Y82927D01*
X84166D01*
Y83155D01*
X83938D01*
Y83383D01*
Y83611D01*
X83710D01*
Y83839D01*
Y84067D01*
X83482D01*
Y84295D01*
X83254D01*
Y84523D01*
Y84751D01*
X83026D01*
Y84979D01*
Y85207D01*
X82798D01*
Y85435D01*
X82570D01*
Y85663D01*
Y85891D01*
X82342D01*
Y86119D01*
X82114D01*
Y86347D01*
Y86575D01*
X81886D01*
Y86803D01*
Y87031D01*
X81658D01*
Y87259D01*
X81430D01*
Y87488D01*
Y87716D01*
X81202D01*
Y87944D01*
Y88172D01*
X80974D01*
Y88400D01*
X80746D01*
Y88628D01*
Y88856D01*
X80518D01*
Y89084D01*
Y89312D01*
X80290D01*
Y89540D01*
X80062D01*
Y89768D01*
Y89996D01*
X79834D01*
Y90224D01*
X79606D01*
Y90452D01*
Y90680D01*
X79377D01*
Y90908D01*
X79606D01*
Y91136D01*
X80062D01*
Y91364D01*
X80290D01*
Y91136D01*
D02*
G37*
G36*
X87359Y80646D02*
Y80418D01*
X87131D01*
Y80646D01*
Y80874D01*
X87359D01*
Y80646D01*
D02*
G37*
G36*
X103777Y90224D02*
X104005D01*
Y89996D01*
Y89768D01*
X104233D01*
Y89540D01*
X104461D01*
Y89312D01*
X104689D01*
Y89084D01*
X104917D01*
Y88856D01*
X105146D01*
Y88628D01*
Y88400D01*
X105374D01*
Y88172D01*
X105602D01*
Y87944D01*
X105830D01*
Y87716D01*
X105602D01*
Y87488D01*
X105374D01*
Y87259D01*
Y87031D01*
X105146D01*
Y86803D01*
X104917D01*
Y86575D01*
Y86347D01*
X104689D01*
Y86119D01*
X104461D01*
Y85891D01*
Y85663D01*
X104233D01*
Y85435D01*
X104005D01*
Y85207D01*
Y84979D01*
X103777D01*
Y84751D01*
X103549D01*
Y84523D01*
Y84295D01*
X103321D01*
Y84067D01*
Y83839D01*
X103093D01*
Y83611D01*
X102865D01*
Y83383D01*
Y83155D01*
X102637D01*
Y82927D01*
X102409D01*
Y82699D01*
Y82471D01*
X102181D01*
Y82243D01*
X101953D01*
Y82015D01*
Y81787D01*
X101725D01*
Y81559D01*
X101497D01*
Y81331D01*
Y81103D01*
X101269D01*
Y80874D01*
X101041D01*
Y80646D01*
Y80418D01*
X100813D01*
Y80190D01*
Y79962D01*
X100585D01*
Y79734D01*
X100357D01*
Y79506D01*
Y79278D01*
X100129D01*
Y79050D01*
X99901D01*
Y78822D01*
Y78594D01*
X99673D01*
Y78366D01*
X99445D01*
Y78138D01*
Y77910D01*
X99217D01*
Y77682D01*
X98988D01*
Y77454D01*
Y77226D01*
X98760D01*
Y76998D01*
X98532D01*
Y76770D01*
Y76542D01*
X98304D01*
Y76314D01*
X98076D01*
Y76086D01*
Y75858D01*
X97848D01*
Y75630D01*
Y75402D01*
X97620D01*
Y75173D01*
X97392D01*
Y74945D01*
Y74717D01*
X97164D01*
Y74489D01*
X96936D01*
Y74261D01*
Y74033D01*
X96708D01*
Y73805D01*
X96480D01*
Y73577D01*
Y73349D01*
X96252D01*
Y73121D01*
X96024D01*
Y72893D01*
Y72665D01*
X95796D01*
Y72437D01*
X95568D01*
Y72209D01*
Y71981D01*
X95340D01*
Y71753D01*
Y71525D01*
X95112D01*
Y71297D01*
X94884D01*
Y71069D01*
Y70841D01*
X94656D01*
Y70613D01*
X94428D01*
Y70385D01*
Y70157D01*
X94200D01*
Y69929D01*
Y69701D01*
X93972D01*
Y69473D01*
X93744D01*
Y69245D01*
X93516D01*
Y69017D01*
X93060D01*
Y68788D01*
X92603D01*
Y68560D01*
X91691D01*
Y68332D01*
X89183D01*
Y68560D01*
X88499D01*
Y68788D01*
X88043D01*
Y69017D01*
X87587D01*
Y69245D01*
X87359D01*
Y69473D01*
X87131D01*
Y69701D01*
X86903D01*
Y69929D01*
Y70157D01*
X86675D01*
Y70385D01*
X86446D01*
Y70613D01*
Y70841D01*
X86219D01*
Y71069D01*
Y71297D01*
X85991D01*
Y71525D01*
X85762D01*
Y71753D01*
Y71981D01*
X85534D01*
Y72209D01*
X85306D01*
Y72437D01*
Y72665D01*
X85078D01*
Y72893D01*
Y73121D01*
X84850D01*
Y73349D01*
X84622D01*
Y73577D01*
Y73805D01*
X84394D01*
Y74033D01*
X84166D01*
Y74261D01*
Y74489D01*
X83938D01*
Y74717D01*
Y74945D01*
X83710D01*
Y75173D01*
X83482D01*
Y75402D01*
Y75630D01*
X83254D01*
Y75858D01*
X83026D01*
Y76086D01*
Y76314D01*
X82798D01*
Y76542D01*
Y76770D01*
X82570D01*
Y76998D01*
X82342D01*
Y77226D01*
Y77454D01*
X82114D01*
Y77682D01*
Y77910D01*
X81886D01*
Y78138D01*
X81658D01*
Y78366D01*
Y78594D01*
X81430D01*
Y78822D01*
X81202D01*
Y79050D01*
Y79278D01*
X80974D01*
Y79506D01*
Y79734D01*
X80746D01*
Y79962D01*
X80518D01*
Y80190D01*
Y80418D01*
X80290D01*
Y80646D01*
X80062D01*
Y80874D01*
Y81103D01*
X79834D01*
Y81331D01*
Y81559D01*
X79606D01*
Y81787D01*
X79377D01*
Y82015D01*
Y82243D01*
X79149D01*
Y82471D01*
Y82699D01*
X78921D01*
Y82927D01*
X78693D01*
Y83155D01*
Y83383D01*
X78465D01*
Y83611D01*
X78237D01*
Y83839D01*
Y84067D01*
X78009D01*
Y84295D01*
X77781D01*
Y84523D01*
Y84751D01*
X77553D01*
Y84979D01*
Y85207D01*
X77325D01*
Y85435D01*
X77097D01*
Y85663D01*
Y85891D01*
X76869D01*
Y86119D01*
X76641D01*
Y86347D01*
Y86575D01*
X76413D01*
Y86803D01*
Y87031D01*
X76185D01*
Y87259D01*
Y87488D01*
X75957D01*
Y87716D01*
X75729D01*
Y87944D01*
Y88172D01*
X75957D01*
Y88400D01*
X76185D01*
Y88628D01*
X76413D01*
Y88856D01*
Y89084D01*
X76641D01*
Y89312D01*
X76869D01*
Y89540D01*
X77097D01*
Y89768D01*
X77325D01*
Y89996D01*
X77553D01*
Y90224D01*
X77781D01*
Y90452D01*
X78009D01*
Y90224D01*
Y89996D01*
X78237D01*
Y89768D01*
X78465D01*
Y89540D01*
Y89312D01*
X78693D01*
Y89084D01*
X78921D01*
Y88856D01*
Y88628D01*
X79149D01*
Y88400D01*
X79377D01*
Y88172D01*
Y87944D01*
X79606D01*
Y87716D01*
Y87488D01*
X79834D01*
Y87259D01*
X80062D01*
Y87031D01*
Y86803D01*
X80290D01*
Y86575D01*
Y86347D01*
X80518D01*
Y86119D01*
X80746D01*
Y85891D01*
Y85663D01*
X80974D01*
Y85435D01*
X81202D01*
Y85207D01*
Y84979D01*
X81430D01*
Y84751D01*
Y84523D01*
X81658D01*
Y84295D01*
X81886D01*
Y84067D01*
Y83839D01*
X82114D01*
Y83611D01*
X82342D01*
Y83383D01*
Y83155D01*
X82570D01*
Y82927D01*
Y82699D01*
X82798D01*
Y82471D01*
X83026D01*
Y82243D01*
Y82015D01*
X83254D01*
Y81787D01*
X83482D01*
Y81559D01*
Y81331D01*
X83710D01*
Y81103D01*
X83938D01*
Y80874D01*
Y80646D01*
X84166D01*
Y80418D01*
Y80190D01*
X84394D01*
Y79962D01*
X84622D01*
Y79734D01*
Y79506D01*
X84850D01*
Y79278D01*
Y79050D01*
X85078D01*
Y78822D01*
X85306D01*
Y78594D01*
Y78366D01*
X85534D01*
Y78138D01*
X85762D01*
Y77910D01*
Y77682D01*
X85991D01*
Y77454D01*
Y77226D01*
X86219D01*
Y76998D01*
X86446D01*
Y76770D01*
Y76542D01*
X86675D01*
Y76314D01*
X86903D01*
Y76086D01*
Y75858D01*
X87131D01*
Y75630D01*
Y75402D01*
X87359D01*
Y75173D01*
X87587D01*
Y74945D01*
Y74717D01*
X87815D01*
Y74489D01*
X88043D01*
Y74261D01*
Y74033D01*
X88271D01*
Y73805D01*
X88499D01*
Y73577D01*
Y73349D01*
X88955D01*
Y73577D01*
X89411D01*
Y73805D01*
X89639D01*
Y74033D01*
X90095D01*
Y74261D01*
X91235D01*
Y74033D01*
X91691D01*
Y73805D01*
X92147D01*
Y73577D01*
X92375D01*
Y73349D01*
X92831D01*
Y73577D01*
X93060D01*
Y73805D01*
Y74033D01*
X93288D01*
Y74261D01*
X93516D01*
Y74489D01*
Y74717D01*
X93744D01*
Y74945D01*
X93972D01*
Y75173D01*
Y75402D01*
X94200D01*
Y75630D01*
X94428D01*
Y75858D01*
Y76086D01*
X94656D01*
Y76314D01*
Y76542D01*
X94884D01*
Y76770D01*
X95112D01*
Y76998D01*
Y77226D01*
X95340D01*
Y77454D01*
X95568D01*
Y77682D01*
Y77910D01*
X95796D01*
Y78138D01*
Y78366D01*
X96024D01*
Y78594D01*
X96252D01*
Y78822D01*
Y79050D01*
X96480D01*
Y79278D01*
X96708D01*
Y79506D01*
Y79734D01*
X96936D01*
Y79962D01*
Y80190D01*
X97164D01*
Y80418D01*
X97392D01*
Y80646D01*
Y80874D01*
X97620D01*
Y81103D01*
Y81331D01*
X97848D01*
Y81559D01*
X98076D01*
Y81787D01*
Y82015D01*
X98304D01*
Y82243D01*
X98532D01*
Y82471D01*
Y82699D01*
X98760D01*
Y82927D01*
Y83155D01*
X98988D01*
Y83383D01*
X99217D01*
Y83611D01*
Y83839D01*
X99445D01*
Y84067D01*
X99673D01*
Y84295D01*
Y84523D01*
X99901D01*
Y84751D01*
Y84979D01*
X100129D01*
Y85207D01*
X100357D01*
Y85435D01*
Y85663D01*
X100585D01*
Y85891D01*
X100813D01*
Y86119D01*
Y86347D01*
X101041D01*
Y86575D01*
X101269D01*
Y86803D01*
Y87031D01*
X101497D01*
Y87259D01*
Y87488D01*
X101725D01*
Y87716D01*
Y87944D01*
X101953D01*
Y88172D01*
X102181D01*
Y88400D01*
Y88628D01*
X102409D01*
Y88856D01*
X102637D01*
Y89084D01*
Y89312D01*
X102865D01*
Y89540D01*
Y89768D01*
X103093D01*
Y89996D01*
X103321D01*
Y90224D01*
Y90452D01*
X103777D01*
Y90224D01*
D02*
G37*
G36*
X74361Y84067D02*
X74817D01*
Y83839D01*
X75273D01*
Y83611D01*
X75501D01*
Y83383D01*
X75729D01*
Y83155D01*
Y82927D01*
X75957D01*
Y82699D01*
Y82471D01*
X76185D01*
Y82243D01*
X76413D01*
Y82015D01*
Y81787D01*
X76641D01*
Y81559D01*
Y81331D01*
X76869D01*
Y81103D01*
X77097D01*
Y80874D01*
Y80646D01*
X77325D01*
Y80418D01*
Y80190D01*
X77553D01*
Y79962D01*
Y79734D01*
X77781D01*
Y79506D01*
X78009D01*
Y79278D01*
Y79050D01*
X78237D01*
Y78822D01*
Y78594D01*
X78465D01*
Y78366D01*
Y78138D01*
X78693D01*
Y77910D01*
X78921D01*
Y77682D01*
Y77454D01*
X79149D01*
Y77226D01*
Y76998D01*
X79377D01*
Y76770D01*
X79606D01*
Y76542D01*
Y76314D01*
X79834D01*
Y76086D01*
Y75858D01*
X80062D01*
Y75630D01*
Y75402D01*
X80290D01*
Y75173D01*
X80518D01*
Y74945D01*
Y74717D01*
X80746D01*
Y74489D01*
Y74261D01*
X80974D01*
Y74033D01*
X81202D01*
Y73805D01*
Y73577D01*
X81430D01*
Y73349D01*
Y73121D01*
X81658D01*
Y72893D01*
Y72665D01*
X81886D01*
Y72437D01*
X82114D01*
Y72209D01*
Y71981D01*
X82342D01*
Y71753D01*
Y71525D01*
X82570D01*
Y71297D01*
X82798D01*
Y71069D01*
Y70841D01*
X83026D01*
Y70613D01*
Y70385D01*
X83254D01*
Y70157D01*
Y69929D01*
X83482D01*
Y69701D01*
X83710D01*
Y69473D01*
Y69245D01*
X83938D01*
Y69017D01*
Y68788D01*
X84166D01*
Y68560D01*
X84394D01*
Y68332D01*
Y68104D01*
X84622D01*
Y67876D01*
Y67648D01*
X84850D01*
Y67420D01*
X85078D01*
Y67192D01*
Y66964D01*
X85306D01*
Y66736D01*
Y66508D01*
X85534D01*
Y66280D01*
X85762D01*
Y66052D01*
Y65824D01*
X85991D01*
Y65596D01*
Y65368D01*
X86219D01*
Y65140D01*
Y64912D01*
X86446D01*
Y64684D01*
X86675D01*
Y64456D01*
Y64228D01*
X86903D01*
Y64000D01*
Y63772D01*
X87131D01*
Y63544D01*
X87359D01*
Y63316D01*
Y63088D01*
X87587D01*
Y62860D01*
Y62632D01*
X87815D01*
Y62404D01*
X88043D01*
Y62176D01*
Y61948D01*
X88271D01*
Y61719D01*
Y61491D01*
X88499D01*
Y61263D01*
Y61035D01*
X88727D01*
Y60807D01*
X88955D01*
Y60579D01*
Y60351D01*
X89183D01*
Y60123D01*
Y59895D01*
X89411D01*
Y59667D01*
X89639D01*
Y59439D01*
Y59211D01*
Y58983D01*
X89867D01*
Y58755D01*
X90095D01*
Y58527D01*
Y58299D01*
X90323D01*
Y58071D01*
X90551D01*
Y57843D01*
Y57615D01*
X90779D01*
Y57387D01*
Y57159D01*
Y56931D01*
X91007D01*
Y56703D01*
Y56475D01*
Y56247D01*
Y56019D01*
Y55791D01*
Y55563D01*
Y55334D01*
X90779D01*
Y55106D01*
Y54878D01*
X90551D01*
Y54650D01*
Y54422D01*
X90323D01*
Y54194D01*
X90095D01*
Y53966D01*
Y53738D01*
X89867D01*
Y53510D01*
X89639D01*
Y53282D01*
Y53054D01*
X89411D01*
Y52826D01*
X89183D01*
Y52598D01*
Y52370D01*
X88955D01*
Y52142D01*
X88727D01*
Y51914D01*
X88499D01*
Y51686D01*
Y51458D01*
X88271D01*
Y51230D01*
X88043D01*
Y51002D01*
Y50774D01*
X87815D01*
Y50546D01*
X87587D01*
Y50318D01*
Y50090D01*
X87359D01*
Y49862D01*
X83710D01*
Y50090D01*
X83254D01*
Y50318D01*
X83026D01*
Y50546D01*
X82798D01*
Y50774D01*
X82570D01*
Y51002D01*
X82342D01*
Y51230D01*
Y51458D01*
X82114D01*
Y51686D01*
X81886D01*
Y51914D01*
Y52142D01*
X81658D01*
Y52370D01*
Y52598D01*
X81430D01*
Y52826D01*
X81202D01*
Y53054D01*
Y53282D01*
X80974D01*
Y53510D01*
Y53738D01*
X80746D01*
Y53966D01*
X80518D01*
Y54194D01*
Y54422D01*
X80290D01*
Y54650D01*
Y54878D01*
X80062D01*
Y55106D01*
Y55334D01*
X79834D01*
Y55563D01*
X79606D01*
Y55791D01*
Y56019D01*
X79377D01*
Y56247D01*
Y56475D01*
X79149D01*
Y56703D01*
Y56931D01*
X78921D01*
Y57159D01*
X78693D01*
Y57387D01*
Y57615D01*
X78465D01*
Y57843D01*
Y58071D01*
X78237D01*
Y58299D01*
X78009D01*
Y58527D01*
Y58755D01*
X77781D01*
Y58983D01*
X77553D01*
Y59211D01*
Y59439D01*
X77325D01*
Y59667D01*
Y59895D01*
X77097D01*
Y60123D01*
X76869D01*
Y60351D01*
Y60579D01*
X76641D01*
Y60807D01*
Y61035D01*
X76413D01*
Y61263D01*
Y61491D01*
X76185D01*
Y61719D01*
X75957D01*
Y61948D01*
Y62176D01*
X75729D01*
Y62404D01*
Y62632D01*
X75501D01*
Y62860D01*
X79606D01*
Y62632D01*
X79834D01*
Y62404D01*
Y62176D01*
X80062D01*
Y61948D01*
X80290D01*
Y61719D01*
Y61491D01*
Y61263D01*
X80518D01*
Y61035D01*
X80746D01*
Y60807D01*
Y60579D01*
X80974D01*
Y60351D01*
Y60123D01*
X81202D01*
Y59895D01*
Y59667D01*
X81430D01*
Y59439D01*
X81658D01*
Y59211D01*
Y58983D01*
X81886D01*
Y58755D01*
Y58527D01*
X82114D01*
Y58299D01*
Y58071D01*
X82342D01*
Y57843D01*
X82570D01*
Y57615D01*
Y57387D01*
X82798D01*
Y57159D01*
Y56931D01*
X83026D01*
Y56703D01*
X83254D01*
Y56475D01*
Y56247D01*
X83482D01*
Y56019D01*
Y55791D01*
X83710D01*
Y55563D01*
X83938D01*
Y55334D01*
Y55106D01*
X84166D01*
Y54878D01*
Y54650D01*
X84394D01*
Y54422D01*
X84622D01*
Y54194D01*
Y53966D01*
X84850D01*
Y53738D01*
Y53510D01*
X85078D01*
Y53282D01*
X85534D01*
Y53510D01*
Y53738D01*
X85762D01*
Y53966D01*
Y54194D01*
X85991D01*
Y54422D01*
X86219D01*
Y54650D01*
X86446D01*
Y54878D01*
Y55106D01*
X86675D01*
Y55334D01*
Y55563D01*
X86903D01*
Y55791D01*
Y56019D01*
Y56247D01*
X87131D01*
Y56475D01*
Y56703D01*
X86903D01*
Y56931D01*
Y57159D01*
Y57387D01*
X86675D01*
Y57615D01*
X86446D01*
Y57843D01*
Y58071D01*
X86219D01*
Y58299D01*
Y58527D01*
X85991D01*
Y58755D01*
Y58983D01*
X85762D01*
Y59211D01*
X85534D01*
Y59439D01*
Y59667D01*
X85306D01*
Y59895D01*
Y60123D01*
X85078D01*
Y60351D01*
X84850D01*
Y60579D01*
Y60807D01*
X84622D01*
Y61035D01*
Y61263D01*
X84394D01*
Y61491D01*
Y61719D01*
X84166D01*
Y61948D01*
X83938D01*
Y62176D01*
Y62404D01*
X83710D01*
Y62632D01*
Y62860D01*
X83482D01*
Y63088D01*
X83254D01*
Y63316D01*
Y63544D01*
X83026D01*
Y63772D01*
Y64000D01*
X82798D01*
Y64228D01*
Y64456D01*
X82570D01*
Y64684D01*
X82342D01*
Y64912D01*
X82114D01*
Y65140D01*
Y65368D01*
Y65596D01*
X81886D01*
Y65824D01*
X81658D01*
Y66052D01*
Y66280D01*
X81430D01*
Y66508D01*
X81202D01*
Y66736D01*
Y66964D01*
X80974D01*
Y67192D01*
Y67420D01*
X80746D01*
Y67648D01*
X80518D01*
Y67876D01*
Y68104D01*
X80290D01*
Y68332D01*
Y68560D01*
X80062D01*
Y68788D01*
Y69017D01*
X79834D01*
Y69245D01*
X79606D01*
Y69473D01*
Y69701D01*
X79377D01*
Y69929D01*
Y70157D01*
X79149D01*
Y70385D01*
X78921D01*
Y70613D01*
Y70841D01*
X78693D01*
Y71069D01*
Y71297D01*
X78465D01*
Y71525D01*
X78237D01*
Y71753D01*
Y71981D01*
X78009D01*
Y72209D01*
Y72437D01*
X77781D01*
Y72665D01*
Y72893D01*
X77553D01*
Y73121D01*
X77325D01*
Y73349D01*
Y73577D01*
X77097D01*
Y73805D01*
Y74033D01*
X76869D01*
Y74261D01*
Y74489D01*
X76641D01*
Y74717D01*
X76413D01*
Y74945D01*
Y75173D01*
X76185D01*
Y75402D01*
Y75630D01*
X75957D01*
Y75858D01*
X75729D01*
Y76086D01*
Y76314D01*
X75501D01*
Y76542D01*
Y76770D01*
X75273D01*
Y76998D01*
X75045D01*
Y77226D01*
Y77454D01*
X74817D01*
Y77682D01*
X74589D01*
Y77910D01*
Y78138D01*
Y78366D01*
X74361D01*
Y78594D01*
X74133D01*
Y78822D01*
Y79050D01*
X73905D01*
Y79278D01*
X73677D01*
Y79506D01*
Y79734D01*
X73448D01*
Y79962D01*
Y80190D01*
X72992D01*
Y80418D01*
X72764D01*
Y80646D01*
X71624D01*
Y80874D01*
X69344D01*
Y80646D01*
Y80418D01*
Y80190D01*
X69572D01*
Y79962D01*
X69800D01*
Y79734D01*
Y79506D01*
X70028D01*
Y79278D01*
Y79050D01*
X70256D01*
Y78822D01*
Y78594D01*
X70484D01*
Y78366D01*
Y78138D01*
X70712D01*
Y77910D01*
X70940D01*
Y77682D01*
Y77454D01*
X71168D01*
Y77226D01*
Y76998D01*
X71396D01*
Y76770D01*
X71624D01*
Y76542D01*
Y76314D01*
X71852D01*
Y76086D01*
Y75858D01*
X72080D01*
Y75630D01*
Y75402D01*
X72308D01*
Y75173D01*
X72536D01*
Y74945D01*
Y74717D01*
X72764D01*
Y74489D01*
Y74261D01*
X72992D01*
Y74033D01*
X73220D01*
Y73805D01*
Y73577D01*
X73448D01*
Y73349D01*
Y73121D01*
X73677D01*
Y72893D01*
X73905D01*
Y72665D01*
Y72437D01*
Y72209D01*
X74133D01*
Y71981D01*
X74361D01*
Y71753D01*
Y71525D01*
X74589D01*
Y71297D01*
Y71069D01*
X74817D01*
Y70841D01*
X75045D01*
Y70613D01*
Y70385D01*
X75273D01*
Y70157D01*
Y69929D01*
X75501D01*
Y69701D01*
X75729D01*
Y69473D01*
X71624D01*
Y69701D01*
X71396D01*
Y69929D01*
Y70157D01*
X71168D01*
Y70385D01*
X70940D01*
Y70613D01*
Y70841D01*
Y71069D01*
X70712D01*
Y71297D01*
X70484D01*
Y71525D01*
Y71753D01*
X70256D01*
Y71981D01*
Y72209D01*
X70028D01*
Y72437D01*
X69800D01*
Y72665D01*
Y72893D01*
X69572D01*
Y73121D01*
Y73349D01*
X69344D01*
Y73577D01*
Y73805D01*
X69116D01*
Y74033D01*
X68888D01*
Y74261D01*
Y74489D01*
X68660D01*
Y74717D01*
Y74945D01*
X68432D01*
Y75173D01*
X68204D01*
Y75402D01*
Y75630D01*
X67976D01*
Y75858D01*
Y76086D01*
X67748D01*
Y76314D01*
X67520D01*
Y76542D01*
Y76770D01*
X67291D01*
Y76998D01*
Y77226D01*
X67063D01*
Y77454D01*
X66835D01*
Y77682D01*
Y77910D01*
X66607D01*
Y78138D01*
Y78366D01*
X66379D01*
Y78594D01*
Y78822D01*
X66151D01*
Y79050D01*
X65923D01*
Y79278D01*
Y79506D01*
X65695D01*
Y79734D01*
Y79962D01*
X65467D01*
Y80190D01*
X65239D01*
Y80418D01*
Y80646D01*
X65011D01*
Y80874D01*
Y81103D01*
X64783D01*
Y81331D01*
Y81559D01*
X64555D01*
Y81787D01*
Y82015D01*
X64327D01*
Y82243D01*
X64099D01*
Y82471D01*
Y82699D01*
X63871D01*
Y82927D01*
Y83155D01*
X63643D01*
Y83383D01*
Y83611D01*
X63415D01*
Y83839D01*
X63187D01*
Y84067D01*
Y84295D01*
X74361D01*
Y84067D01*
D02*
G37*
G36*
X119512D02*
X119284D01*
Y83839D01*
Y83611D01*
X119056D01*
Y83383D01*
X118828D01*
Y83155D01*
X118600D01*
Y82927D01*
Y82699D01*
X118371D01*
Y82471D01*
Y82243D01*
X118143D01*
Y82015D01*
X117915D01*
Y81787D01*
X117687D01*
Y81559D01*
Y81331D01*
X117459D01*
Y81103D01*
X117231D01*
Y80874D01*
Y80646D01*
X117003D01*
Y80418D01*
X116775D01*
Y80190D01*
X116547D01*
Y79962D01*
Y79734D01*
X116319D01*
Y79506D01*
X116091D01*
Y79278D01*
Y79050D01*
X115863D01*
Y78822D01*
X115635D01*
Y78594D01*
Y78366D01*
X115407D01*
Y78138D01*
X115179D01*
Y77910D01*
X114951D01*
Y77682D01*
Y77454D01*
X114723D01*
Y77226D01*
X114495D01*
Y76998D01*
Y76770D01*
X114267D01*
Y76542D01*
X114039D01*
Y76314D01*
Y76086D01*
X113811D01*
Y75858D01*
X113583D01*
Y75630D01*
X113355D01*
Y75402D01*
Y75173D01*
X113127D01*
Y74945D01*
X112899D01*
Y74717D01*
Y74489D01*
X112671D01*
Y74261D01*
X112443D01*
Y74033D01*
X112215D01*
Y73805D01*
Y73577D01*
X111986D01*
Y73349D01*
X111758D01*
Y73121D01*
Y72893D01*
X111530D01*
Y72665D01*
X111302D01*
Y72437D01*
Y72209D01*
X111074D01*
Y71981D01*
X110846D01*
Y71753D01*
Y71525D01*
X110618D01*
Y71297D01*
X110390D01*
Y71069D01*
Y70841D01*
X110162D01*
Y70613D01*
X109934D01*
Y70385D01*
Y70157D01*
X109706D01*
Y69929D01*
X109478D01*
Y69701D01*
X109250D01*
Y69473D01*
Y69245D01*
X109022D01*
Y69017D01*
X108794D01*
Y68788D01*
Y68560D01*
X108566D01*
Y68332D01*
X108338D01*
Y68104D01*
X108110D01*
Y67876D01*
Y67648D01*
X107882D01*
Y67420D01*
X107654D01*
Y67192D01*
Y66964D01*
X107426D01*
Y66736D01*
X107198D01*
Y66508D01*
Y66280D01*
X106970D01*
Y66052D01*
X106742D01*
Y65824D01*
X106514D01*
Y65596D01*
Y65368D01*
X106286D01*
Y65140D01*
X106058D01*
Y64912D01*
Y64684D01*
X105830D01*
Y64456D01*
X105602D01*
Y64228D01*
X105374D01*
Y64000D01*
Y63772D01*
X105146D01*
Y63544D01*
Y63316D01*
X104917D01*
Y63088D01*
X104689D01*
Y62860D01*
X104461D01*
Y62632D01*
Y62404D01*
X104233D01*
Y62176D01*
X104005D01*
Y61948D01*
Y61719D01*
X103777D01*
Y61491D01*
X103549D01*
Y61263D01*
X103321D01*
Y61035D01*
Y60807D01*
X103093D01*
Y60579D01*
Y60351D01*
X102865D01*
Y60123D01*
X102637D01*
Y59895D01*
X102409D01*
Y59667D01*
Y59439D01*
X102181D01*
Y59211D01*
X101953D01*
Y58983D01*
Y58755D01*
X101725D01*
Y58527D01*
X101497D01*
Y58299D01*
X101269D01*
Y58071D01*
Y57843D01*
X101041D01*
Y57615D01*
X100813D01*
Y57387D01*
Y57159D01*
X100585D01*
Y56931D01*
X100357D01*
Y56703D01*
X100129D01*
Y56475D01*
Y56247D01*
X99901D01*
Y56019D01*
X99673D01*
Y55791D01*
Y55563D01*
X99445D01*
Y55334D01*
X99217D01*
Y55106D01*
Y54878D01*
X98988D01*
Y54650D01*
X98760D01*
Y54422D01*
X98532D01*
Y54194D01*
Y53966D01*
X98304D01*
Y53738D01*
X98076D01*
Y53510D01*
Y53282D01*
X97848D01*
Y53054D01*
X97620D01*
Y52826D01*
Y52598D01*
X97392D01*
Y52370D01*
X97164D01*
Y52142D01*
X96936D01*
Y51914D01*
Y51686D01*
X96708D01*
Y51458D01*
Y51230D01*
X96480D01*
Y51002D01*
X96252D01*
Y50774D01*
Y50546D01*
X95796D01*
Y50318D01*
X95568D01*
Y50090D01*
X95112D01*
Y49862D01*
X91691D01*
Y50090D01*
Y50318D01*
X91919D01*
Y50546D01*
X92147D01*
Y50774D01*
X92375D01*
Y51002D01*
Y51230D01*
X92603D01*
Y51458D01*
X92831D01*
Y51686D01*
Y51914D01*
X93060D01*
Y52142D01*
X93288D01*
Y52370D01*
X93516D01*
Y52598D01*
Y52826D01*
X93744D01*
Y53054D01*
X93972D01*
Y53282D01*
Y53510D01*
X94200D01*
Y53738D01*
X94428D01*
Y53966D01*
Y54194D01*
X94656D01*
Y54422D01*
Y54650D01*
X94884D01*
Y54878D01*
X95112D01*
Y55106D01*
X95340D01*
Y55334D01*
Y55563D01*
X95568D01*
Y55791D01*
X95796D01*
Y56019D01*
Y56247D01*
X96024D01*
Y56475D01*
X96252D01*
Y56703D01*
X96480D01*
Y56931D01*
Y57159D01*
X96708D01*
Y57387D01*
X96936D01*
Y57615D01*
Y57843D01*
X97164D01*
Y58071D01*
X97392D01*
Y58299D01*
Y58527D01*
X97620D01*
Y58755D01*
X97848D01*
Y58983D01*
Y59211D01*
X98076D01*
Y59439D01*
X98304D01*
Y59667D01*
Y59895D01*
X98532D01*
Y60123D01*
X98760D01*
Y60351D01*
X98988D01*
Y60579D01*
Y60807D01*
X99217D01*
Y61035D01*
Y61263D01*
X99445D01*
Y61491D01*
X99673D01*
Y61719D01*
X99901D01*
Y61948D01*
Y62176D01*
X100129D01*
Y62404D01*
X100357D01*
Y62632D01*
Y62860D01*
X100585D01*
Y63088D01*
X100813D01*
Y63316D01*
Y63544D01*
X101041D01*
Y63772D01*
X101269D01*
Y64000D01*
X101497D01*
Y64228D01*
Y64456D01*
X101725D01*
Y64684D01*
Y64912D01*
X101953D01*
Y65140D01*
X102181D01*
Y65368D01*
X102409D01*
Y65596D01*
Y65824D01*
X102637D01*
Y66052D01*
X102865D01*
Y66280D01*
Y66508D01*
X103093D01*
Y66736D01*
X103321D01*
Y66964D01*
Y67192D01*
X103549D01*
Y67420D01*
X103777D01*
Y67648D01*
Y67876D01*
X104005D01*
Y68104D01*
X104233D01*
Y68332D01*
Y68560D01*
X104461D01*
Y68788D01*
X104689D01*
Y69017D01*
X100813D01*
Y68788D01*
X100357D01*
Y68560D01*
X100129D01*
Y68332D01*
X99901D01*
Y68104D01*
X99673D01*
Y67876D01*
Y67648D01*
X99445D01*
Y67420D01*
X99217D01*
Y67192D01*
X98988D01*
Y66964D01*
Y66736D01*
X98760D01*
Y66508D01*
X98532D01*
Y66280D01*
Y66052D01*
X98304D01*
Y65824D01*
X98076D01*
Y65596D01*
Y65368D01*
X97848D01*
Y65140D01*
X97620D01*
Y64912D01*
X97392D01*
Y64684D01*
Y64456D01*
X97164D01*
Y64228D01*
Y64000D01*
X96936D01*
Y63772D01*
X96708D01*
Y63544D01*
Y63316D01*
X96480D01*
Y63088D01*
X96252D01*
Y62860D01*
X96024D01*
Y62632D01*
Y62404D01*
X95796D01*
Y62176D01*
X95568D01*
Y61948D01*
Y61719D01*
X95340D01*
Y61491D01*
X95112D01*
Y61263D01*
Y61035D01*
X94884D01*
Y60807D01*
X94656D01*
Y60579D01*
X94428D01*
Y60351D01*
Y60123D01*
X94200D01*
Y59895D01*
Y59667D01*
X93972D01*
Y59439D01*
X93744D01*
Y59667D01*
Y59895D01*
X93516D01*
Y60123D01*
Y60351D01*
X93288D01*
Y60579D01*
X93060D01*
Y60807D01*
Y61035D01*
X92831D01*
Y61263D01*
Y61491D01*
X92603D01*
Y61719D01*
Y61948D01*
X92375D01*
Y62176D01*
X92147D01*
Y62404D01*
Y62632D01*
X91919D01*
Y62860D01*
Y63088D01*
X92147D01*
Y63316D01*
Y63544D01*
X92375D01*
Y63772D01*
X92603D01*
Y64000D01*
Y64228D01*
X92831D01*
Y64456D01*
X93060D01*
Y64684D01*
X93288D01*
Y64912D01*
Y65140D01*
X93516D01*
Y65368D01*
X93744D01*
Y65596D01*
Y65824D01*
X93972D01*
Y66052D01*
X94200D01*
Y66280D01*
X94428D01*
Y66508D01*
Y66736D01*
X94656D01*
Y66964D01*
Y67192D01*
X94884D01*
Y67420D01*
X95112D01*
Y67648D01*
Y67876D01*
X95340D01*
Y68104D01*
X95568D01*
Y68332D01*
X95796D01*
Y68560D01*
Y68788D01*
X96024D01*
Y69017D01*
X96252D01*
Y69245D01*
Y69473D01*
X96480D01*
Y69701D01*
X96708D01*
Y69929D01*
X96936D01*
Y70157D01*
Y70385D01*
X97164D01*
Y70613D01*
X97392D01*
Y70841D01*
Y71069D01*
X97620D01*
Y71297D01*
X97848D01*
Y71525D01*
Y71753D01*
X98076D01*
Y71981D01*
X98304D01*
Y72209D01*
X98532D01*
Y72437D01*
Y72665D01*
X98760D01*
Y72893D01*
X98988D01*
Y73121D01*
Y73349D01*
X99217D01*
Y73577D01*
X99445D01*
Y73805D01*
X99673D01*
Y74033D01*
Y74261D01*
X99901D01*
Y74489D01*
Y74717D01*
X100129D01*
Y74945D01*
X100357D01*
Y75173D01*
X100585D01*
Y75402D01*
Y75630D01*
X100813D01*
Y75858D01*
X101041D01*
Y76086D01*
Y76314D01*
X101269D01*
Y76542D01*
X101497D01*
Y76770D01*
Y76998D01*
X101725D01*
Y77226D01*
X101953D01*
Y77454D01*
Y77682D01*
X102181D01*
Y77910D01*
X102409D01*
Y78138D01*
X102637D01*
Y78366D01*
Y78594D01*
X102865D01*
Y78822D01*
X103093D01*
Y79050D01*
Y79278D01*
X103321D01*
Y79506D01*
X103549D01*
Y79734D01*
X103777D01*
Y79962D01*
Y80190D01*
X104005D01*
Y80418D01*
X104233D01*
Y80646D01*
Y80874D01*
X104461D01*
Y81103D01*
X104689D01*
Y81331D01*
Y81559D01*
X104917D01*
Y81787D01*
X105146D01*
Y82015D01*
X105374D01*
Y82243D01*
Y82471D01*
X105602D01*
Y82699D01*
Y82927D01*
X105830D01*
Y83155D01*
X106058D01*
Y83383D01*
X106286D01*
Y83611D01*
X106514D01*
Y83839D01*
X106970D01*
Y84067D01*
X107654D01*
Y84295D01*
X119512D01*
Y84067D01*
D02*
G37*
G36*
X91691Y49633D02*
X91463D01*
Y49862D01*
X91691D01*
Y49633D01*
D02*
G37*
G36*
X129089Y46213D02*
X128861D01*
Y45985D01*
Y45757D01*
X128633D01*
Y45529D01*
Y45301D01*
Y45073D01*
X128405D01*
Y44845D01*
Y44617D01*
X128177D01*
Y44389D01*
Y44161D01*
X127949D01*
Y43933D01*
Y43705D01*
X127721D01*
Y43477D01*
Y43249D01*
Y43020D01*
X127493D01*
Y42792D01*
Y42564D01*
X127265D01*
Y42336D01*
Y42108D01*
X127037D01*
Y41880D01*
Y41652D01*
X126809D01*
Y41424D01*
Y41196D01*
X126581D01*
Y40968D01*
Y40740D01*
Y40512D01*
X126353D01*
Y40284D01*
Y40056D01*
X126125D01*
Y39828D01*
X125897D01*
Y39600D01*
Y39372D01*
Y39144D01*
X125669D01*
Y38916D01*
Y38688D01*
Y38460D01*
X125441D01*
Y38232D01*
Y38004D01*
X125213D01*
Y37776D01*
Y37548D01*
X124985D01*
Y37320D01*
Y37092D01*
X124757D01*
Y36863D01*
Y36636D01*
Y36408D01*
X124529D01*
Y36180D01*
X124301D01*
Y35951D01*
Y35723D01*
Y35495D01*
X124072D01*
Y35267D01*
Y35039D01*
X123844D01*
Y34811D01*
Y34583D01*
X123616D01*
Y34355D01*
Y34127D01*
Y33899D01*
X123388D01*
Y33671D01*
Y33443D01*
X123160D01*
Y33215D01*
Y32987D01*
X122932D01*
Y32759D01*
Y32531D01*
X122704D01*
Y32303D01*
Y32075D01*
Y31847D01*
X122476D01*
Y31619D01*
Y31391D01*
X122248D01*
Y31163D01*
Y30935D01*
X122020D01*
Y30707D01*
Y30479D01*
X121792D01*
Y30250D01*
Y30022D01*
Y29794D01*
X121564D01*
Y29566D01*
X121336D01*
Y29338D01*
Y29110D01*
Y28882D01*
X121108D01*
Y28654D01*
Y28426D01*
X120880D01*
Y28198D01*
Y27970D01*
X120652D01*
Y27742D01*
Y27514D01*
Y27286D01*
X120424D01*
Y27058D01*
Y26830D01*
X120196D01*
Y26602D01*
Y26374D01*
X119284D01*
Y26602D01*
Y26830D01*
X119056D01*
Y27058D01*
Y27286D01*
X118828D01*
Y27514D01*
Y27742D01*
Y27970D01*
X118600D01*
Y28198D01*
Y28426D01*
X118371D01*
Y28654D01*
Y28882D01*
X118143D01*
Y29110D01*
Y29338D01*
Y29566D01*
X117915D01*
Y29794D01*
X117687D01*
Y30022D01*
Y30250D01*
Y30479D01*
X117459D01*
Y30707D01*
Y30935D01*
X117231D01*
Y31163D01*
Y31391D01*
X117003D01*
Y31619D01*
Y31847D01*
Y32075D01*
X116775D01*
Y32303D01*
Y32531D01*
X116547D01*
Y32759D01*
Y32987D01*
X116319D01*
Y33215D01*
Y33443D01*
X116091D01*
Y33671D01*
Y33899D01*
Y34127D01*
X115863D01*
Y34355D01*
Y34583D01*
X115635D01*
Y34811D01*
Y35039D01*
X115407D01*
Y35267D01*
Y35495D01*
X115179D01*
Y35723D01*
Y35951D01*
X114951D01*
Y36180D01*
Y36408D01*
Y36636D01*
X114723D01*
Y36863D01*
Y37092D01*
X114495D01*
Y37320D01*
Y37548D01*
Y37776D01*
X114267D01*
Y38004D01*
X114039D01*
Y38232D01*
Y38460D01*
Y38688D01*
X113811D01*
Y38916D01*
Y39144D01*
X113583D01*
Y39372D01*
Y39600D01*
X113355D01*
Y39828D01*
Y40056D01*
X113127D01*
Y40284D01*
Y40512D01*
X112899D01*
Y40740D01*
Y40968D01*
Y41196D01*
X112671D01*
Y41424D01*
Y41652D01*
X112443D01*
Y41880D01*
Y42108D01*
X112215D01*
Y42336D01*
Y42564D01*
X111986D01*
Y42792D01*
Y43020D01*
Y43249D01*
X111758D01*
Y43477D01*
Y43705D01*
X111530D01*
Y43933D01*
Y44161D01*
X111302D01*
Y44389D01*
Y44617D01*
X111074D01*
Y44845D01*
Y45073D01*
Y45301D01*
X110846D01*
Y45529D01*
Y45757D01*
X110618D01*
Y45985D01*
Y46213D01*
X110390D01*
Y46441D01*
X113811D01*
Y46213D01*
Y45985D01*
X114039D01*
Y45757D01*
X114267D01*
Y45529D01*
Y45301D01*
Y45073D01*
X114495D01*
Y44845D01*
Y44617D01*
Y44389D01*
X114723D01*
Y44161D01*
X114951D01*
Y43933D01*
Y43705D01*
Y43477D01*
X115179D01*
Y43249D01*
Y43020D01*
X115407D01*
Y42792D01*
Y42564D01*
X115635D01*
Y42336D01*
Y42108D01*
Y41880D01*
X115863D01*
Y41652D01*
Y41424D01*
X116091D01*
Y41196D01*
Y40968D01*
X116319D01*
Y40740D01*
Y40512D01*
Y40284D01*
X116547D01*
Y40056D01*
Y39828D01*
X116775D01*
Y39600D01*
Y39372D01*
X117003D01*
Y39144D01*
Y38916D01*
X117231D01*
Y38688D01*
Y38460D01*
X117459D01*
Y38232D01*
Y38004D01*
Y37776D01*
X117687D01*
Y37548D01*
Y37320D01*
Y37092D01*
X117915D01*
Y36863D01*
X118143D01*
Y36636D01*
Y36408D01*
Y36180D01*
X118371D01*
Y35951D01*
Y35723D01*
Y35495D01*
X118600D01*
Y35267D01*
X118828D01*
Y35039D01*
Y34811D01*
X119056D01*
Y34583D01*
Y34355D01*
Y34127D01*
X119284D01*
Y33899D01*
Y33671D01*
X119512D01*
Y33443D01*
Y33215D01*
X119968D01*
Y33443D01*
Y33671D01*
X120196D01*
Y33899D01*
Y34127D01*
X120424D01*
Y34355D01*
Y34583D01*
Y34811D01*
X120652D01*
Y35039D01*
X120880D01*
Y35267D01*
Y35495D01*
Y35723D01*
X121108D01*
Y35951D01*
Y36180D01*
X121336D01*
Y36408D01*
Y36636D01*
X121564D01*
Y36863D01*
Y37092D01*
Y37320D01*
X121792D01*
Y37548D01*
Y37776D01*
X122020D01*
Y38004D01*
Y38232D01*
X122248D01*
Y38460D01*
Y38688D01*
Y38916D01*
X122476D01*
Y39144D01*
X122704D01*
Y39372D01*
Y39600D01*
Y39828D01*
X122932D01*
Y40056D01*
Y40284D01*
Y40512D01*
X123160D01*
Y40740D01*
X123388D01*
Y40968D01*
Y41196D01*
Y41424D01*
X123616D01*
Y41652D01*
Y41880D01*
X123844D01*
Y42108D01*
Y42336D01*
X124072D01*
Y42564D01*
Y42792D01*
Y43020D01*
X124301D01*
Y43249D01*
Y43477D01*
X124529D01*
Y43705D01*
Y43933D01*
X124757D01*
Y44161D01*
Y44389D01*
Y44617D01*
X124985D01*
Y44845D01*
X125213D01*
Y45073D01*
Y45301D01*
Y45529D01*
X125441D01*
Y45757D01*
Y45985D01*
X125669D01*
Y46213D01*
Y46441D01*
X129089D01*
Y46213D01*
D02*
G37*
G36*
X102637D02*
X103777D01*
Y45985D01*
X104689D01*
Y45757D01*
X105146D01*
Y45529D01*
X105602D01*
Y45301D01*
X106058D01*
Y45073D01*
X106514D01*
Y44845D01*
X106742D01*
Y44617D01*
X107198D01*
Y44389D01*
X107426D01*
Y44161D01*
X107654D01*
Y43933D01*
X107882D01*
Y43705D01*
X108110D01*
Y43477D01*
X108338D01*
Y43249D01*
X108566D01*
Y43020D01*
X108794D01*
Y42792D01*
X109022D01*
Y42564D01*
X109250D01*
Y42336D01*
Y42108D01*
X109478D01*
Y41880D01*
X109706D01*
Y41652D01*
X109934D01*
Y41424D01*
Y41196D01*
X110162D01*
Y40968D01*
Y40740D01*
X110390D01*
Y40512D01*
Y40284D01*
X110618D01*
Y40056D01*
Y39828D01*
Y39600D01*
Y39372D01*
X110846D01*
Y39144D01*
Y38916D01*
X111074D01*
Y38688D01*
Y38460D01*
Y38232D01*
Y38004D01*
Y37776D01*
X111302D01*
Y37548D01*
Y37320D01*
Y37092D01*
Y36863D01*
Y36636D01*
Y36408D01*
Y36180D01*
Y35951D01*
Y35723D01*
Y35495D01*
Y35267D01*
Y35039D01*
Y34811D01*
X111074D01*
Y34583D01*
Y34355D01*
Y34127D01*
Y33899D01*
X110846D01*
Y33671D01*
Y33443D01*
Y33215D01*
Y32987D01*
X110618D01*
Y32759D01*
Y32531D01*
X110390D01*
Y32303D01*
Y32075D01*
X110162D01*
Y31847D01*
Y31619D01*
X109934D01*
Y31391D01*
Y31163D01*
X109706D01*
Y30935D01*
Y30707D01*
X109478D01*
Y30479D01*
X109250D01*
Y30250D01*
X109022D01*
Y30022D01*
Y29794D01*
X108566D01*
Y29566D01*
Y29338D01*
X108338D01*
Y29110D01*
X108110D01*
Y28882D01*
X107882D01*
Y28654D01*
X107654D01*
Y28426D01*
X107198D01*
Y28198D01*
X106970D01*
Y27970D01*
X106514D01*
Y27742D01*
X106286D01*
Y27514D01*
X105830D01*
Y27286D01*
X105374D01*
Y27058D01*
X104689D01*
Y26830D01*
X104005D01*
Y26602D01*
X102865D01*
Y26374D01*
X99445D01*
Y26602D01*
X98304D01*
Y26830D01*
X97620D01*
Y27058D01*
X97164D01*
Y27286D01*
X96708D01*
Y27514D01*
X96252D01*
Y27742D01*
X95796D01*
Y27970D01*
X95568D01*
Y28198D01*
X95112D01*
Y28426D01*
X94884D01*
Y28654D01*
X94656D01*
Y28882D01*
X94428D01*
Y29110D01*
X94200D01*
Y29338D01*
X93972D01*
Y29566D01*
X93744D01*
Y29794D01*
X93516D01*
Y30022D01*
X93288D01*
Y30250D01*
Y30479D01*
X92831D01*
Y30707D01*
Y30935D01*
X92603D01*
Y31163D01*
Y31391D01*
X92375D01*
Y31619D01*
Y31847D01*
X92147D01*
Y32075D01*
Y32303D01*
X91919D01*
Y32531D01*
Y32759D01*
X91691D01*
Y32987D01*
Y33215D01*
Y33443D01*
Y33671D01*
X91463D01*
Y33899D01*
Y34127D01*
Y34355D01*
X94428D01*
Y34127D01*
X94656D01*
Y33899D01*
Y33671D01*
Y33443D01*
X94884D01*
Y33215D01*
Y32987D01*
X95112D01*
Y32759D01*
X95340D01*
Y32531D01*
Y32303D01*
X95568D01*
Y32075D01*
X95796D01*
Y31847D01*
Y31619D01*
X96024D01*
Y31391D01*
X96252D01*
Y31163D01*
X96708D01*
Y30935D01*
X96936D01*
Y30707D01*
X97164D01*
Y30479D01*
X97392D01*
Y30250D01*
X97848D01*
Y30022D01*
X98304D01*
Y29794D01*
X98988D01*
Y29566D01*
X99901D01*
Y29338D01*
X102409D01*
Y29566D01*
X103549D01*
Y29794D01*
X104005D01*
Y30022D01*
X104461D01*
Y30250D01*
X104917D01*
Y30479D01*
X105374D01*
Y30707D01*
X105602D01*
Y30935D01*
X105830D01*
Y31163D01*
X106058D01*
Y31391D01*
X106286D01*
Y31619D01*
X106514D01*
Y31847D01*
X106742D01*
Y32075D01*
X106970D01*
Y32303D01*
Y32531D01*
X107198D01*
Y32759D01*
X107426D01*
Y32987D01*
Y33215D01*
X107654D01*
Y33443D01*
Y33671D01*
Y33899D01*
X107882D01*
Y34127D01*
Y34355D01*
X108110D01*
Y34583D01*
Y34811D01*
Y35039D01*
Y35267D01*
X108338D01*
Y35495D01*
Y35723D01*
Y35951D01*
Y36180D01*
Y36408D01*
Y36636D01*
Y36863D01*
Y37092D01*
Y37320D01*
Y37548D01*
X108110D01*
Y37776D01*
Y38004D01*
Y38232D01*
Y38460D01*
X107882D01*
Y38688D01*
Y38916D01*
X107654D01*
Y39144D01*
Y39372D01*
X107426D01*
Y39600D01*
Y39828D01*
X107198D01*
Y40056D01*
Y40284D01*
X106970D01*
Y40512D01*
X106742D01*
Y40740D01*
Y40968D01*
X106514D01*
Y41196D01*
X106286D01*
Y41424D01*
X106058D01*
Y41652D01*
X105830D01*
Y41880D01*
X105374D01*
Y42108D01*
X105146D01*
Y42336D01*
X104689D01*
Y42564D01*
X104233D01*
Y42792D01*
X103777D01*
Y43020D01*
X103321D01*
Y43249D01*
X102181D01*
Y43477D01*
X100129D01*
Y43249D01*
X99217D01*
Y43020D01*
X98532D01*
Y42792D01*
X98076D01*
Y42564D01*
X97620D01*
Y42336D01*
X97164D01*
Y42108D01*
X96936D01*
Y41880D01*
X96708D01*
Y41652D01*
X96480D01*
Y41424D01*
X96024D01*
Y41196D01*
Y40968D01*
X95796D01*
Y40740D01*
X95568D01*
Y40512D01*
X95340D01*
Y40284D01*
Y40056D01*
X95112D01*
Y39828D01*
X94884D01*
Y39600D01*
Y39372D01*
X94656D01*
Y39144D01*
Y38916D01*
Y38688D01*
X91463D01*
Y38916D01*
Y39144D01*
X91691D01*
Y39372D01*
Y39600D01*
Y39828D01*
Y40056D01*
X91919D01*
Y40284D01*
Y40512D01*
X92147D01*
Y40740D01*
Y40968D01*
X92375D01*
Y41196D01*
Y41424D01*
X92603D01*
Y41652D01*
Y41880D01*
X92831D01*
Y42108D01*
X93060D01*
Y42336D01*
X93288D01*
Y42564D01*
Y42792D01*
X93516D01*
Y43020D01*
X93744D01*
Y43249D01*
X93972D01*
Y43477D01*
X94200D01*
Y43705D01*
X94428D01*
Y43933D01*
X94656D01*
Y44161D01*
X94884D01*
Y44389D01*
X95340D01*
Y44617D01*
X95568D01*
Y44845D01*
X96024D01*
Y45073D01*
X96252D01*
Y45301D01*
X96708D01*
Y45529D01*
X97392D01*
Y45757D01*
X97848D01*
Y45985D01*
X98532D01*
Y46213D01*
X99673D01*
Y46441D01*
X102637D01*
Y46213D01*
D02*
G37*
G36*
X134106D02*
Y45985D01*
X134334D01*
Y45757D01*
Y45529D01*
Y45301D01*
X134562D01*
Y45073D01*
Y44845D01*
X134790D01*
Y44617D01*
Y44389D01*
X135018D01*
Y44161D01*
Y43933D01*
X135246D01*
Y43705D01*
Y43477D01*
Y43249D01*
X135474D01*
Y43020D01*
Y42792D01*
Y42564D01*
X135702D01*
Y42336D01*
X135930D01*
Y42108D01*
Y41880D01*
Y41652D01*
X136158D01*
Y41424D01*
Y41196D01*
X136386D01*
Y40968D01*
Y40740D01*
X136614D01*
Y40512D01*
Y40284D01*
X136842D01*
Y40056D01*
Y39828D01*
Y39600D01*
X137071D01*
Y39372D01*
X137299D01*
Y39144D01*
Y38916D01*
Y38688D01*
X137527D01*
Y38460D01*
Y38232D01*
X137755D01*
Y38004D01*
Y37776D01*
X137983D01*
Y37548D01*
Y37320D01*
X138211D01*
Y37092D01*
Y36863D01*
Y36636D01*
X138439D01*
Y36408D01*
Y36180D01*
X138667D01*
Y35951D01*
Y35723D01*
X138895D01*
Y35495D01*
Y35267D01*
Y35039D01*
X139123D01*
Y34811D01*
Y34583D01*
X139351D01*
Y34355D01*
Y34127D01*
X139579D01*
Y33899D01*
Y33671D01*
X139807D01*
Y33443D01*
Y33215D01*
X140035D01*
Y32987D01*
Y32759D01*
X140263D01*
Y32531D01*
Y32303D01*
Y32075D01*
X140491D01*
Y31847D01*
Y31619D01*
X140719D01*
Y31391D01*
Y31163D01*
X140947D01*
Y30935D01*
Y30707D01*
X141175D01*
Y30479D01*
Y30250D01*
Y30022D01*
X141403D01*
Y29794D01*
Y29566D01*
X141631D01*
Y29338D01*
Y29110D01*
X141859D01*
Y28882D01*
Y28654D01*
Y28426D01*
X142087D01*
Y28198D01*
X142315D01*
Y27970D01*
Y27742D01*
Y27514D01*
X142543D01*
Y27286D01*
Y27058D01*
X142771D01*
Y26830D01*
Y26602D01*
X142999D01*
Y26374D01*
X139579D01*
Y26602D01*
X139351D01*
Y26830D01*
Y27058D01*
Y27286D01*
X139123D01*
Y27514D01*
Y27742D01*
X138895D01*
Y27970D01*
Y28198D01*
X138667D01*
Y28426D01*
Y28654D01*
Y28882D01*
X138439D01*
Y29110D01*
Y29338D01*
X138211D01*
Y29566D01*
Y29794D01*
X137983D01*
Y30022D01*
Y30250D01*
Y30479D01*
X137755D01*
Y30707D01*
X137527D01*
Y30935D01*
Y31163D01*
Y31391D01*
X137299D01*
Y31619D01*
Y31847D01*
X137071D01*
Y32075D01*
Y32303D01*
X136842D01*
Y32531D01*
Y32759D01*
Y32987D01*
X136614D01*
Y33215D01*
Y33443D01*
X136386D01*
Y33671D01*
Y33899D01*
X136158D01*
Y34127D01*
Y34355D01*
Y34583D01*
X135930D01*
Y34811D01*
X135702D01*
Y35039D01*
Y35267D01*
Y35495D01*
X135474D01*
Y35723D01*
Y35951D01*
X135246D01*
Y36180D01*
Y36408D01*
X135018D01*
Y36636D01*
Y36863D01*
Y37092D01*
X134790D01*
Y37320D01*
Y37548D01*
X134562D01*
Y37776D01*
Y38004D01*
X134334D01*
Y38232D01*
Y38460D01*
Y38688D01*
X134106D01*
Y38916D01*
Y39144D01*
Y39372D01*
X133878D01*
Y39600D01*
X133422D01*
Y39372D01*
Y39144D01*
X133194D01*
Y38916D01*
Y38688D01*
X132966D01*
Y38460D01*
Y38232D01*
Y38004D01*
X132738D01*
Y37776D01*
X132510D01*
Y37548D01*
Y37320D01*
Y37092D01*
X132282D01*
Y36863D01*
Y36636D01*
Y36408D01*
X132054D01*
Y36180D01*
Y35951D01*
X131826D01*
Y35723D01*
Y35495D01*
X131598D01*
Y35267D01*
Y35039D01*
X131370D01*
Y34811D01*
Y34583D01*
Y34355D01*
X131141D01*
Y34127D01*
Y33899D01*
X130913D01*
Y33671D01*
X130685D01*
Y33443D01*
Y33215D01*
Y32987D01*
X130457D01*
Y32759D01*
Y32531D01*
Y32303D01*
X130229D01*
Y32075D01*
Y31847D01*
X130001D01*
Y31619D01*
Y31391D01*
X129773D01*
Y31163D01*
Y30935D01*
X129545D01*
Y30707D01*
Y30479D01*
Y30250D01*
X129317D01*
Y30022D01*
Y29794D01*
X129089D01*
Y29566D01*
Y29338D01*
X128861D01*
Y29110D01*
Y28882D01*
Y28654D01*
X128633D01*
Y28426D01*
X128405D01*
Y28198D01*
Y27970D01*
Y27742D01*
X128177D01*
Y27514D01*
Y27286D01*
X127949D01*
Y27058D01*
Y26830D01*
X127721D01*
Y26602D01*
Y26374D01*
X124301D01*
Y26602D01*
X124529D01*
Y26830D01*
Y27058D01*
X124757D01*
Y27286D01*
Y27514D01*
X124985D01*
Y27742D01*
Y27970D01*
X125213D01*
Y28198D01*
Y28426D01*
Y28654D01*
X125441D01*
Y28882D01*
Y29110D01*
X125669D01*
Y29338D01*
X125897D01*
Y29566D01*
Y29794D01*
Y30022D01*
X126125D01*
Y30250D01*
Y30479D01*
Y30707D01*
X126353D01*
Y30935D01*
Y31163D01*
X126581D01*
Y31391D01*
Y31619D01*
X126809D01*
Y31847D01*
Y32075D01*
X127037D01*
Y32303D01*
Y32531D01*
Y32759D01*
X127265D01*
Y32987D01*
X127493D01*
Y33215D01*
Y33443D01*
Y33671D01*
X127721D01*
Y33899D01*
Y34127D01*
X127949D01*
Y34355D01*
Y34583D01*
X128177D01*
Y34811D01*
Y35039D01*
Y35267D01*
X128405D01*
Y35495D01*
Y35723D01*
X128633D01*
Y35951D01*
Y36180D01*
X128861D01*
Y36408D01*
Y36636D01*
X129089D01*
Y36863D01*
Y37092D01*
Y37320D01*
X129317D01*
Y37548D01*
Y37776D01*
X129545D01*
Y38004D01*
Y38232D01*
X129773D01*
Y38460D01*
Y38688D01*
X130001D01*
Y38916D01*
Y39144D01*
Y39372D01*
X130229D01*
Y39600D01*
Y39828D01*
X130457D01*
Y40056D01*
Y40284D01*
X130685D01*
Y40512D01*
Y40740D01*
X130913D01*
Y40968D01*
Y41196D01*
X131141D01*
Y41424D01*
Y41652D01*
Y41880D01*
X131370D01*
Y42108D01*
X131598D01*
Y42336D01*
Y42564D01*
Y42792D01*
X131826D01*
Y43020D01*
Y43249D01*
X132054D01*
Y43477D01*
Y43705D01*
Y43933D01*
X132282D01*
Y44161D01*
Y44389D01*
X132510D01*
Y44617D01*
Y44845D01*
X132738D01*
Y45073D01*
Y45301D01*
X132966D01*
Y45529D01*
Y45757D01*
X133194D01*
Y45985D01*
Y46213D01*
Y46441D01*
X134106D01*
Y46213D01*
D02*
G37*
G36*
X88955D02*
Y45985D01*
Y45757D01*
Y45529D01*
Y45301D01*
Y45073D01*
Y44845D01*
Y44617D01*
Y44389D01*
Y44161D01*
Y43933D01*
Y43705D01*
Y43477D01*
Y43249D01*
Y43020D01*
Y42792D01*
Y42564D01*
Y42336D01*
Y42108D01*
Y41880D01*
Y41652D01*
Y41424D01*
Y41196D01*
Y40968D01*
Y40740D01*
Y40512D01*
Y40284D01*
Y40056D01*
Y39828D01*
Y39600D01*
Y39372D01*
Y39144D01*
Y38916D01*
Y38688D01*
Y38460D01*
Y38232D01*
Y38004D01*
Y37776D01*
Y37548D01*
Y37320D01*
Y37092D01*
Y36863D01*
Y36636D01*
Y36408D01*
Y36180D01*
Y35951D01*
Y35723D01*
Y35495D01*
Y35267D01*
Y35039D01*
Y34811D01*
Y34583D01*
Y34355D01*
Y34127D01*
Y33899D01*
Y33671D01*
Y33443D01*
Y33215D01*
Y32987D01*
Y32759D01*
Y32531D01*
Y32303D01*
Y32075D01*
Y31847D01*
Y31619D01*
Y31391D01*
Y31163D01*
Y30935D01*
Y30707D01*
Y30479D01*
Y30250D01*
Y30022D01*
Y29794D01*
Y29566D01*
Y29338D01*
Y29110D01*
Y28882D01*
Y28654D01*
Y28426D01*
Y28198D01*
Y27970D01*
Y27742D01*
Y27514D01*
Y27286D01*
Y27058D01*
Y26830D01*
Y26602D01*
Y26374D01*
X85762D01*
Y26602D01*
Y26830D01*
Y27058D01*
Y27286D01*
Y27514D01*
Y27742D01*
Y27970D01*
Y28198D01*
Y28426D01*
Y28654D01*
Y28882D01*
Y29110D01*
Y29338D01*
Y29566D01*
Y29794D01*
Y30022D01*
Y30250D01*
Y30479D01*
Y30707D01*
Y30935D01*
Y31163D01*
Y31391D01*
Y31619D01*
Y31847D01*
Y32075D01*
Y32303D01*
Y32531D01*
Y32759D01*
Y32987D01*
Y33215D01*
Y33443D01*
Y33671D01*
Y33899D01*
Y34127D01*
Y34355D01*
Y34583D01*
Y34811D01*
Y35039D01*
Y35267D01*
Y35495D01*
Y35723D01*
Y35951D01*
Y36180D01*
Y36408D01*
Y36636D01*
Y36863D01*
Y37092D01*
Y37320D01*
Y37548D01*
Y37776D01*
Y38004D01*
Y38232D01*
Y38460D01*
Y38688D01*
Y38916D01*
Y39144D01*
Y39372D01*
Y39600D01*
Y39828D01*
Y40056D01*
Y40284D01*
Y40512D01*
Y40740D01*
Y40968D01*
Y41196D01*
Y41424D01*
Y41652D01*
Y41880D01*
Y42108D01*
Y42336D01*
Y42564D01*
Y42792D01*
Y43020D01*
Y43249D01*
Y43477D01*
Y43705D01*
Y43933D01*
Y44161D01*
Y44389D01*
Y44617D01*
Y44845D01*
Y45073D01*
Y45301D01*
Y45529D01*
Y45757D01*
Y45985D01*
Y46213D01*
Y46441D01*
X88955D01*
Y46213D01*
D02*
G37*
G36*
X82342D02*
Y45985D01*
Y45757D01*
Y45529D01*
Y45301D01*
Y45073D01*
Y44845D01*
Y44617D01*
Y44389D01*
Y44161D01*
Y43933D01*
Y43705D01*
Y43477D01*
Y43249D01*
Y43020D01*
Y42792D01*
Y42564D01*
Y42336D01*
Y42108D01*
Y41880D01*
Y41652D01*
Y41424D01*
Y41196D01*
Y40968D01*
Y40740D01*
Y40512D01*
Y40284D01*
Y40056D01*
Y39828D01*
Y39600D01*
Y39372D01*
Y39144D01*
Y38916D01*
Y38688D01*
Y38460D01*
Y38232D01*
Y38004D01*
Y37776D01*
Y37548D01*
Y37320D01*
Y37092D01*
Y36863D01*
Y36636D01*
Y36408D01*
Y36180D01*
Y35951D01*
Y35723D01*
Y35495D01*
Y35267D01*
Y35039D01*
Y34811D01*
Y34583D01*
Y34355D01*
Y34127D01*
Y33899D01*
Y33671D01*
Y33443D01*
Y33215D01*
Y32987D01*
Y32759D01*
Y32531D01*
Y32303D01*
Y32075D01*
Y31847D01*
Y31619D01*
Y31391D01*
Y31163D01*
Y30935D01*
Y30707D01*
Y30479D01*
Y30250D01*
Y30022D01*
Y29794D01*
Y29566D01*
Y29338D01*
Y29110D01*
Y28882D01*
Y28654D01*
Y28426D01*
Y28198D01*
Y27970D01*
Y27742D01*
Y27514D01*
Y27286D01*
Y27058D01*
Y26830D01*
Y26602D01*
Y26374D01*
X73220D01*
Y26602D01*
Y26830D01*
Y27058D01*
Y27286D01*
Y27514D01*
Y27742D01*
Y27970D01*
Y28198D01*
Y28426D01*
Y28654D01*
Y28882D01*
Y29110D01*
Y29338D01*
X79149D01*
Y29566D01*
Y29794D01*
Y30022D01*
Y30250D01*
Y30479D01*
Y30707D01*
Y30935D01*
Y31163D01*
Y31391D01*
Y31619D01*
Y31847D01*
Y32075D01*
Y32303D01*
Y32531D01*
Y32759D01*
Y32987D01*
Y33215D01*
Y33443D01*
Y33671D01*
Y33899D01*
Y34127D01*
Y34355D01*
Y34583D01*
Y34811D01*
Y35039D01*
Y35267D01*
Y35495D01*
Y35723D01*
Y35951D01*
Y36180D01*
Y36408D01*
Y36636D01*
Y36863D01*
Y37092D01*
Y37320D01*
Y37548D01*
Y37776D01*
Y38004D01*
Y38232D01*
Y38460D01*
Y38688D01*
Y38916D01*
Y39144D01*
Y39372D01*
Y39600D01*
Y39828D01*
Y40056D01*
Y40284D01*
Y40512D01*
Y40740D01*
Y40968D01*
Y41196D01*
Y41424D01*
Y41652D01*
Y41880D01*
Y42108D01*
Y42336D01*
Y42564D01*
Y42792D01*
Y43020D01*
Y43249D01*
Y43477D01*
Y43705D01*
Y43933D01*
Y44161D01*
Y44389D01*
Y44617D01*
Y44845D01*
Y45073D01*
Y45301D01*
Y45529D01*
Y45757D01*
Y45985D01*
Y46213D01*
Y46441D01*
X82342D01*
Y46213D01*
D02*
G37*
G36*
X62959D02*
X63187D01*
Y45985D01*
Y45757D01*
Y45529D01*
X63415D01*
Y45301D01*
Y45073D01*
X63643D01*
Y44845D01*
Y44617D01*
X63871D01*
Y44389D01*
Y44161D01*
X64099D01*
Y43933D01*
Y43705D01*
Y43477D01*
X64327D01*
Y43249D01*
Y43020D01*
X64555D01*
Y42792D01*
Y42564D01*
X64783D01*
Y42336D01*
Y42108D01*
X65011D01*
Y41880D01*
Y41652D01*
Y41424D01*
X65239D01*
Y41196D01*
Y40968D01*
X65467D01*
Y40740D01*
Y40512D01*
X65695D01*
Y40284D01*
Y40056D01*
X65923D01*
Y39828D01*
Y39600D01*
X66151D01*
Y39372D01*
Y39144D01*
Y38916D01*
X66379D01*
Y38688D01*
Y38460D01*
X66607D01*
Y38232D01*
Y38004D01*
Y37776D01*
X66835D01*
Y37548D01*
X67063D01*
Y37320D01*
Y37092D01*
X67291D01*
Y36863D01*
Y36636D01*
Y36408D01*
X67520D01*
Y36180D01*
Y35951D01*
X67748D01*
Y35723D01*
Y35495D01*
X67976D01*
Y35267D01*
Y35039D01*
Y34811D01*
X68204D01*
Y34583D01*
X68432D01*
Y34355D01*
Y34127D01*
Y33899D01*
X68660D01*
Y33671D01*
Y33443D01*
X68888D01*
Y33215D01*
Y32987D01*
X69116D01*
Y32759D01*
Y32531D01*
X69344D01*
Y32303D01*
Y32075D01*
Y31847D01*
X69572D01*
Y31619D01*
Y31391D01*
X69800D01*
Y31163D01*
Y30935D01*
X70028D01*
Y30707D01*
Y30479D01*
X70256D01*
Y30250D01*
Y30022D01*
Y29794D01*
X70484D01*
Y29566D01*
Y29338D01*
X70712D01*
Y29110D01*
Y28882D01*
X70940D01*
Y28654D01*
Y28426D01*
X71168D01*
Y28198D01*
Y27970D01*
X71396D01*
Y27742D01*
Y27514D01*
Y27286D01*
X71624D01*
Y27058D01*
Y26830D01*
X71852D01*
Y26602D01*
Y26374D01*
X68432D01*
Y26602D01*
Y26830D01*
X68204D01*
Y27058D01*
Y27286D01*
Y27514D01*
X67976D01*
Y27742D01*
Y27970D01*
X67748D01*
Y28198D01*
Y28426D01*
X67520D01*
Y28654D01*
Y28882D01*
Y29110D01*
X67291D01*
Y29338D01*
Y29566D01*
X67063D01*
Y29794D01*
Y30022D01*
X66835D01*
Y30250D01*
Y30479D01*
X66607D01*
Y30707D01*
Y30935D01*
X66379D01*
Y31163D01*
Y31391D01*
Y31619D01*
X66151D01*
Y31847D01*
Y32075D01*
X65923D01*
Y32303D01*
Y32531D01*
Y32759D01*
X65695D01*
Y32987D01*
Y33215D01*
X65467D01*
Y33443D01*
Y33671D01*
X65239D01*
Y33899D01*
Y34127D01*
X65011D01*
Y34355D01*
Y34583D01*
X64783D01*
Y34811D01*
Y35039D01*
Y35267D01*
X64555D01*
Y35495D01*
Y35723D01*
X64327D01*
Y35951D01*
Y36180D01*
X64099D01*
Y36408D01*
Y36636D01*
Y36863D01*
X63871D01*
Y37092D01*
Y37320D01*
X63643D01*
Y37548D01*
Y37776D01*
X63415D01*
Y38004D01*
Y38232D01*
X63187D01*
Y38460D01*
Y38688D01*
X62959D01*
Y38916D01*
Y39144D01*
Y39372D01*
Y39600D01*
X62275D01*
Y39372D01*
Y39144D01*
Y38916D01*
X62047D01*
Y38688D01*
Y38460D01*
Y38232D01*
X61819D01*
Y38004D01*
Y37776D01*
X61591D01*
Y37548D01*
Y37320D01*
X61363D01*
Y37092D01*
Y36863D01*
Y36636D01*
X61135D01*
Y36408D01*
X60907D01*
Y36180D01*
Y35951D01*
Y35723D01*
X60678D01*
Y35495D01*
Y35267D01*
Y35039D01*
X60451D01*
Y34811D01*
X60223D01*
Y34583D01*
Y34355D01*
Y34127D01*
X59994D01*
Y33899D01*
Y33671D01*
X59766D01*
Y33443D01*
Y33215D01*
X59538D01*
Y32987D01*
Y32759D01*
Y32531D01*
X59310D01*
Y32303D01*
Y32075D01*
X59082D01*
Y31847D01*
Y31619D01*
X58854D01*
Y31391D01*
Y31163D01*
X58626D01*
Y30935D01*
Y30707D01*
Y30479D01*
X58398D01*
Y30250D01*
Y30022D01*
X58170D01*
Y29794D01*
Y29566D01*
X57942D01*
Y29338D01*
Y29110D01*
Y28882D01*
X57714D01*
Y28654D01*
X57486D01*
Y28426D01*
Y28198D01*
Y27970D01*
X57258D01*
Y27742D01*
Y27514D01*
X57030D01*
Y27286D01*
Y27058D01*
X56802D01*
Y26830D01*
Y26602D01*
Y26374D01*
X53381D01*
Y26602D01*
Y26830D01*
X53609D01*
Y27058D01*
Y27286D01*
X53837D01*
Y27514D01*
Y27742D01*
X54066D01*
Y27970D01*
Y28198D01*
X54294D01*
Y28426D01*
Y28654D01*
Y28882D01*
X54522D01*
Y29110D01*
X54750D01*
Y29338D01*
Y29566D01*
Y29794D01*
X54978D01*
Y30022D01*
Y30250D01*
Y30479D01*
X55206D01*
Y30707D01*
Y30935D01*
X55434D01*
Y31163D01*
Y31391D01*
X55662D01*
Y31619D01*
Y31847D01*
X55890D01*
Y32075D01*
Y32303D01*
Y32531D01*
X56118D01*
Y32759D01*
X56346D01*
Y32987D01*
Y33215D01*
Y33443D01*
X56574D01*
Y33671D01*
Y33899D01*
X56802D01*
Y34127D01*
Y34355D01*
X57030D01*
Y34583D01*
Y34811D01*
Y35039D01*
X57258D01*
Y35267D01*
Y35495D01*
X57486D01*
Y35723D01*
Y35951D01*
X57714D01*
Y36180D01*
Y36408D01*
X57942D01*
Y36636D01*
Y36863D01*
Y37092D01*
X58170D01*
Y37320D01*
Y37548D01*
X58398D01*
Y37776D01*
Y38004D01*
X58626D01*
Y38232D01*
Y38460D01*
X58854D01*
Y38688D01*
Y38916D01*
Y39144D01*
X59082D01*
Y39372D01*
X59310D01*
Y39600D01*
Y39828D01*
Y40056D01*
X59538D01*
Y40284D01*
Y40512D01*
X59766D01*
Y40740D01*
Y40968D01*
X59994D01*
Y41196D01*
Y41424D01*
Y41652D01*
X60223D01*
Y41880D01*
Y42108D01*
X60451D01*
Y42336D01*
Y42564D01*
X60678D01*
Y42792D01*
Y43020D01*
X60907D01*
Y43249D01*
Y43477D01*
Y43705D01*
X61135D01*
Y43933D01*
Y44161D01*
X61363D01*
Y44389D01*
Y44617D01*
X61591D01*
Y44845D01*
Y45073D01*
X61819D01*
Y45301D01*
Y45529D01*
Y45757D01*
X62047D01*
Y45985D01*
Y46213D01*
X62275D01*
Y46441D01*
X62959D01*
Y46213D01*
D02*
G37*
G36*
X51557D02*
X51329D01*
Y45985D01*
Y45757D01*
Y45529D01*
Y45301D01*
Y45073D01*
Y44845D01*
Y44617D01*
Y44389D01*
Y44161D01*
Y43933D01*
Y43705D01*
Y43477D01*
Y43249D01*
Y43020D01*
Y42792D01*
Y42564D01*
Y42336D01*
Y42108D01*
Y41880D01*
Y41652D01*
Y41424D01*
Y41196D01*
Y40968D01*
Y40740D01*
Y40512D01*
Y40284D01*
Y40056D01*
Y39828D01*
Y39600D01*
Y39372D01*
Y39144D01*
Y38916D01*
Y38688D01*
Y38460D01*
Y38232D01*
Y38004D01*
Y37776D01*
Y37548D01*
Y37320D01*
Y37092D01*
Y36863D01*
Y36636D01*
Y36408D01*
Y36180D01*
Y35951D01*
Y35723D01*
Y35495D01*
Y35267D01*
Y35039D01*
Y34811D01*
Y34583D01*
Y34355D01*
Y34127D01*
Y33899D01*
Y33671D01*
Y33443D01*
Y33215D01*
Y32987D01*
Y32759D01*
Y32531D01*
Y32303D01*
Y32075D01*
Y31847D01*
Y31619D01*
Y31391D01*
Y31163D01*
Y30935D01*
Y30707D01*
Y30479D01*
Y30250D01*
Y30022D01*
Y29794D01*
Y29566D01*
Y29338D01*
Y29110D01*
Y28882D01*
Y28654D01*
Y28426D01*
Y28198D01*
Y27970D01*
Y27742D01*
Y27514D01*
Y27286D01*
Y27058D01*
Y26830D01*
Y26602D01*
X51557D01*
Y26374D01*
X48365D01*
Y26602D01*
Y26830D01*
Y27058D01*
Y27286D01*
Y27514D01*
Y27742D01*
Y27970D01*
Y28198D01*
Y28426D01*
Y28654D01*
X46540D01*
Y28882D01*
X45400D01*
Y29110D01*
X45172D01*
Y28882D01*
X44944D01*
Y28654D01*
Y28426D01*
Y28198D01*
Y27970D01*
X44716D01*
Y27742D01*
Y27514D01*
X44488D01*
Y27286D01*
Y27058D01*
Y26830D01*
X44260D01*
Y26602D01*
X44488D01*
Y26374D01*
X40611D01*
Y26602D01*
X40839D01*
Y26830D01*
Y27058D01*
Y27286D01*
X41067D01*
Y27514D01*
Y27742D01*
X41295D01*
Y27970D01*
Y28198D01*
Y28426D01*
X41524D01*
Y28654D01*
X41752D01*
Y28882D01*
Y29110D01*
Y29338D01*
X41980D01*
Y29566D01*
Y29794D01*
Y30022D01*
X42208D01*
Y30250D01*
X42436D01*
Y30479D01*
Y30707D01*
X42208D01*
Y30935D01*
X41980D01*
Y31163D01*
X41752D01*
Y31391D01*
X41524D01*
Y31619D01*
X41295D01*
Y31847D01*
X41067D01*
Y32075D01*
X40839D01*
Y32303D01*
X40611D01*
Y32531D01*
Y32759D01*
X40383D01*
Y32987D01*
Y33215D01*
X40155D01*
Y33443D01*
X39927D01*
Y33671D01*
Y33899D01*
Y34127D01*
X39699D01*
Y34355D01*
Y34583D01*
X39471D01*
Y34811D01*
Y35039D01*
Y35267D01*
Y35495D01*
X39243D01*
Y35723D01*
Y35951D01*
Y36180D01*
Y36408D01*
Y36636D01*
X39015D01*
Y36863D01*
Y37092D01*
Y37320D01*
Y37548D01*
Y37776D01*
Y38004D01*
Y38232D01*
Y38460D01*
X39243D01*
Y38688D01*
Y38916D01*
Y39144D01*
Y39372D01*
Y39600D01*
X39471D01*
Y39828D01*
Y40056D01*
Y40284D01*
Y40512D01*
X39699D01*
Y40740D01*
Y40968D01*
X39927D01*
Y41196D01*
Y41424D01*
X40155D01*
Y41652D01*
Y41880D01*
X40383D01*
Y42108D01*
Y42336D01*
X40611D01*
Y42564D01*
Y42792D01*
X40839D01*
Y43020D01*
X41067D01*
Y43249D01*
X41295D01*
Y43477D01*
X41524D01*
Y43705D01*
X41752D01*
Y43933D01*
X41980D01*
Y44161D01*
X42208D01*
Y44389D01*
X42436D01*
Y44617D01*
X42892D01*
Y44845D01*
X43120D01*
Y45073D01*
X43576D01*
Y45301D01*
X44032D01*
Y45529D01*
X44488D01*
Y45757D01*
X44944D01*
Y45985D01*
X45856D01*
Y46213D01*
X46996D01*
Y46441D01*
X51557D01*
Y46213D01*
D02*
G37*
G36*
X133650Y30935D02*
X133878D01*
Y30707D01*
X134106D01*
Y30479D01*
X134334D01*
Y30250D01*
X134562D01*
Y30022D01*
X134790D01*
Y29794D01*
X135018D01*
Y29566D01*
X135246D01*
Y29338D01*
X135474D01*
Y29110D01*
X135702D01*
Y28882D01*
X135930D01*
Y28654D01*
X136158D01*
Y28426D01*
X136386D01*
Y28198D01*
X136614D01*
Y27970D01*
X136386D01*
Y27742D01*
X136158D01*
Y27514D01*
X135930D01*
Y27286D01*
X135702D01*
Y27058D01*
X135474D01*
Y26830D01*
X135246D01*
Y26602D01*
X135018D01*
Y26374D01*
X134790D01*
Y26146D01*
X134562D01*
Y25918D01*
X134334D01*
Y25690D01*
X134106D01*
Y25462D01*
X133878D01*
Y25234D01*
X133422D01*
Y25462D01*
X133194D01*
Y25690D01*
X132966D01*
Y25918D01*
X132738D01*
Y26146D01*
X132510D01*
Y26374D01*
X132282D01*
Y26602D01*
X132054D01*
Y26830D01*
X131826D01*
Y27058D01*
X131598D01*
Y27286D01*
X131370D01*
Y27514D01*
X131141D01*
Y27742D01*
X130913D01*
Y27970D01*
X130457D01*
Y28198D01*
X130685D01*
Y28426D01*
X130913D01*
Y28654D01*
X131141D01*
Y28882D01*
X131370D01*
Y29110D01*
X131598D01*
Y29338D01*
X131826D01*
Y29566D01*
X132054D01*
Y29794D01*
X132282D01*
Y30022D01*
X132510D01*
Y30250D01*
X132738D01*
Y30479D01*
X132966D01*
Y30707D01*
X133194D01*
Y30935D01*
X133422D01*
Y31163D01*
X133650D01*
Y30935D01*
D02*
G37*
G36*
X62731D02*
X62959D01*
Y30707D01*
X63187D01*
Y30479D01*
X63415D01*
Y30250D01*
X63643D01*
Y30022D01*
X63871D01*
Y29794D01*
X64099D01*
Y29566D01*
X64327D01*
Y29338D01*
X64555D01*
Y29110D01*
X64783D01*
Y28882D01*
X65011D01*
Y28654D01*
X65239D01*
Y28426D01*
X65467D01*
Y28198D01*
X65695D01*
Y27970D01*
X65239D01*
Y27742D01*
X65011D01*
Y27514D01*
X64783D01*
Y27286D01*
X64555D01*
Y27058D01*
X64327D01*
Y26830D01*
X64099D01*
Y26602D01*
X63871D01*
Y26374D01*
X63643D01*
Y26146D01*
X63415D01*
Y25918D01*
X63187D01*
Y25690D01*
X62959D01*
Y25462D01*
X62731D01*
Y25234D01*
X62275D01*
Y25462D01*
X62047D01*
Y25690D01*
X61819D01*
Y25918D01*
X61591D01*
Y26146D01*
X61363D01*
Y26374D01*
X61135D01*
Y26602D01*
X60907D01*
Y26830D01*
X60678D01*
Y27058D01*
X60451D01*
Y27286D01*
X60223D01*
Y27514D01*
X59994D01*
Y27742D01*
X59766D01*
Y27970D01*
X59538D01*
Y28198D01*
X59766D01*
Y28426D01*
X59994D01*
Y28654D01*
X60223D01*
Y28882D01*
X60451D01*
Y29110D01*
X60678D01*
Y29338D01*
X60907D01*
Y29566D01*
X61135D01*
Y29794D01*
X61363D01*
Y30022D01*
X61591D01*
Y30250D01*
X61819D01*
Y30479D01*
X62047D01*
Y30707D01*
X62275D01*
Y30935D01*
X62503D01*
Y31163D01*
X62731D01*
Y30935D01*
D02*
G37*
G36*
X103777Y22269D02*
Y22041D01*
X103549D01*
Y21813D01*
Y21585D01*
X103321D01*
Y21357D01*
X102637D01*
Y21129D01*
X101725D01*
Y21357D01*
X101269D01*
Y21585D01*
X101041D01*
Y21813D01*
X100813D01*
Y22041D01*
Y22269D01*
X100585D01*
Y22497D01*
X101269D01*
Y22269D01*
Y22041D01*
X101497D01*
Y21813D01*
X102865D01*
Y22041D01*
X103093D01*
Y22269D01*
Y22497D01*
X103777D01*
Y22269D01*
D02*
G37*
G36*
X110162Y21813D02*
Y21585D01*
Y21357D01*
X109250D01*
Y21585D01*
Y21813D01*
Y22041D01*
X110162D01*
Y21813D01*
D02*
G37*
G36*
X107882D02*
Y21585D01*
Y21357D01*
X106970D01*
Y21585D01*
Y21813D01*
Y22041D01*
X107882D01*
Y21813D01*
D02*
G37*
G36*
X73677D02*
Y21585D01*
Y21357D01*
X72764D01*
Y21585D01*
Y21813D01*
Y22041D01*
X73677D01*
Y21813D01*
D02*
G37*
G36*
X69116Y19989D02*
X68888D01*
Y19761D01*
X68660D01*
Y19533D01*
Y19305D01*
Y19077D01*
X68432D01*
Y18849D01*
Y18621D01*
X68204D01*
Y18393D01*
Y18165D01*
X67976D01*
Y17937D01*
Y17708D01*
Y17481D01*
X67748D01*
Y17253D01*
Y17024D01*
X67520D01*
Y16796D01*
Y16568D01*
X67291D01*
Y16340D01*
Y16112D01*
X67063D01*
Y15884D01*
Y15656D01*
Y15428D01*
Y15200D01*
Y14972D01*
Y14744D01*
Y14516D01*
Y14288D01*
Y14060D01*
Y13832D01*
Y13604D01*
Y13376D01*
Y13148D01*
Y12920D01*
Y12692D01*
Y12464D01*
X66151D01*
Y12692D01*
Y12920D01*
Y13148D01*
Y13376D01*
Y13604D01*
Y13832D01*
Y14060D01*
Y14288D01*
Y14516D01*
Y14744D01*
Y14972D01*
Y15200D01*
Y15428D01*
Y15656D01*
Y15884D01*
Y16112D01*
X65923D01*
Y16340D01*
Y16568D01*
X65695D01*
Y16796D01*
Y17024D01*
Y17253D01*
X65467D01*
Y17481D01*
Y17708D01*
X65239D01*
Y17937D01*
Y18165D01*
Y18393D01*
X65011D01*
Y18621D01*
Y18849D01*
X64783D01*
Y19077D01*
Y19305D01*
X64555D01*
Y19533D01*
Y19761D01*
X64327D01*
Y19989D01*
Y20217D01*
X65239D01*
Y19989D01*
Y19761D01*
X65467D01*
Y19533D01*
Y19305D01*
Y19077D01*
X65695D01*
Y18849D01*
Y18621D01*
Y18393D01*
X65923D01*
Y18165D01*
Y17937D01*
X66151D01*
Y17708D01*
Y17481D01*
Y17253D01*
X66379D01*
Y17024D01*
Y16796D01*
X66835D01*
Y17024D01*
Y17253D01*
X67063D01*
Y17481D01*
Y17708D01*
Y17937D01*
X67291D01*
Y18165D01*
Y18393D01*
X67520D01*
Y18621D01*
Y18849D01*
X67748D01*
Y19077D01*
Y19305D01*
Y19533D01*
X67976D01*
Y19761D01*
Y19989D01*
Y20217D01*
X69116D01*
Y19989D01*
D02*
G37*
G36*
X131370D02*
Y19761D01*
Y19533D01*
Y19305D01*
Y19077D01*
Y18849D01*
Y18621D01*
Y18393D01*
Y18165D01*
Y17937D01*
Y17708D01*
Y17481D01*
Y17253D01*
Y17024D01*
Y16796D01*
Y16568D01*
Y16340D01*
Y16112D01*
Y15884D01*
Y15656D01*
Y15428D01*
Y15200D01*
Y14972D01*
Y14744D01*
Y14516D01*
Y14288D01*
Y14060D01*
Y13832D01*
Y13604D01*
Y13376D01*
Y13148D01*
Y12920D01*
Y12692D01*
Y12464D01*
X130457D01*
Y12692D01*
Y12920D01*
Y13148D01*
Y13376D01*
Y13604D01*
Y13832D01*
Y14060D01*
Y14288D01*
Y14516D01*
Y14744D01*
Y14972D01*
X130229D01*
Y15200D01*
X130001D01*
Y15428D01*
Y15656D01*
X129773D01*
Y15884D01*
X129545D01*
Y16112D01*
X129089D01*
Y15884D01*
Y15656D01*
X128861D01*
Y15428D01*
Y15200D01*
X128633D01*
Y14972D01*
Y14744D01*
X128405D01*
Y14516D01*
Y14288D01*
X128177D01*
Y14060D01*
Y13832D01*
X127949D01*
Y13604D01*
Y13376D01*
Y13148D01*
X127721D01*
Y12920D01*
Y12692D01*
X127493D01*
Y12464D01*
X126581D01*
Y12692D01*
Y12920D01*
X126809D01*
Y13148D01*
Y13376D01*
X127037D01*
Y13604D01*
Y13832D01*
X127265D01*
Y14060D01*
Y14288D01*
X127493D01*
Y14516D01*
Y14744D01*
X127721D01*
Y14972D01*
Y15200D01*
X127949D01*
Y15428D01*
Y15656D01*
X128177D01*
Y15884D01*
Y16112D01*
X128405D01*
Y16340D01*
Y16568D01*
X128633D01*
Y16796D01*
X128861D01*
Y17024D01*
Y17253D01*
Y17481D01*
X128633D01*
Y17708D01*
X128405D01*
Y17937D01*
X128177D01*
Y18165D01*
Y18393D01*
X127949D01*
Y18621D01*
X127721D01*
Y18849D01*
Y19077D01*
X127493D01*
Y19305D01*
X127265D01*
Y19533D01*
Y19761D01*
X127037D01*
Y19989D01*
X126809D01*
Y20217D01*
X127949D01*
Y19989D01*
Y19761D01*
X128177D01*
Y19533D01*
Y19305D01*
X128405D01*
Y19077D01*
X128633D01*
Y18849D01*
Y18621D01*
X128861D01*
Y18393D01*
X129089D01*
Y18165D01*
Y17937D01*
X129317D01*
Y17708D01*
Y17481D01*
X129545D01*
Y17253D01*
X129773D01*
Y17024D01*
X130001D01*
Y16796D01*
Y16568D01*
X130229D01*
Y16340D01*
X130457D01*
Y16112D01*
X130685D01*
Y16340D01*
Y16568D01*
Y16796D01*
X130457D01*
Y17024D01*
Y17253D01*
Y17481D01*
Y17708D01*
Y17937D01*
Y18165D01*
Y18393D01*
Y18621D01*
Y18849D01*
Y19077D01*
Y19305D01*
Y19533D01*
Y19761D01*
Y19989D01*
Y20217D01*
X131370D01*
Y19989D01*
D02*
G37*
G36*
X119512D02*
Y19761D01*
Y19533D01*
Y19305D01*
Y19077D01*
Y18849D01*
Y18621D01*
Y18393D01*
Y18165D01*
Y17937D01*
Y17708D01*
Y17481D01*
Y17253D01*
Y17024D01*
Y16796D01*
Y16568D01*
Y16340D01*
Y16112D01*
Y15884D01*
Y15656D01*
Y15428D01*
Y15200D01*
Y14972D01*
Y14744D01*
Y14516D01*
Y14288D01*
Y14060D01*
Y13832D01*
Y13604D01*
Y13376D01*
Y13148D01*
Y12920D01*
Y12692D01*
Y12464D01*
X118828D01*
Y12692D01*
Y12920D01*
Y13148D01*
Y13376D01*
Y13604D01*
Y13832D01*
Y14060D01*
Y14288D01*
Y14516D01*
Y14744D01*
X118600D01*
Y14972D01*
X118371D01*
Y15200D01*
Y15428D01*
X118143D01*
Y15656D01*
X117915D01*
Y15884D01*
Y16112D01*
X117231D01*
Y15884D01*
Y15656D01*
Y15428D01*
X117003D01*
Y15200D01*
Y14972D01*
X116775D01*
Y14744D01*
Y14516D01*
X116547D01*
Y14288D01*
Y14060D01*
X116319D01*
Y13832D01*
Y13604D01*
X116091D01*
Y13376D01*
Y13148D01*
X115863D01*
Y12920D01*
Y12692D01*
X115635D01*
Y12464D01*
X114723D01*
Y12692D01*
Y12920D01*
X114951D01*
Y13148D01*
X115179D01*
Y13376D01*
Y13604D01*
Y13832D01*
X115407D01*
Y14060D01*
X115635D01*
Y14288D01*
Y14516D01*
X115863D01*
Y14744D01*
Y14972D01*
Y15200D01*
X116091D01*
Y15428D01*
X116319D01*
Y15656D01*
Y15884D01*
Y16112D01*
X116547D01*
Y16340D01*
X116775D01*
Y16568D01*
Y16796D01*
X117003D01*
Y17024D01*
Y17253D01*
Y17481D01*
X116775D01*
Y17708D01*
X116547D01*
Y17937D01*
Y18165D01*
X116319D01*
Y18393D01*
X116091D01*
Y18621D01*
Y18849D01*
X115863D01*
Y19077D01*
X115635D01*
Y19305D01*
Y19533D01*
X115407D01*
Y19761D01*
X115179D01*
Y19989D01*
Y20217D01*
X116091D01*
Y19989D01*
Y19761D01*
X116319D01*
Y19533D01*
X116547D01*
Y19305D01*
Y19077D01*
X116775D01*
Y18849D01*
X117003D01*
Y18621D01*
Y18393D01*
X117231D01*
Y18165D01*
Y17937D01*
X117459D01*
Y17708D01*
X117687D01*
Y17481D01*
Y17253D01*
X117915D01*
Y17024D01*
X118143D01*
Y16796D01*
Y16568D01*
X118371D01*
Y16340D01*
X118600D01*
Y16112D01*
X118828D01*
Y16340D01*
Y16568D01*
Y16796D01*
Y17024D01*
Y17253D01*
Y17481D01*
Y17708D01*
Y17937D01*
Y18165D01*
Y18393D01*
Y18621D01*
Y18849D01*
Y19077D01*
Y19305D01*
Y19533D01*
Y19761D01*
Y19989D01*
Y20217D01*
X119512D01*
Y19989D01*
D02*
G37*
G36*
X86219D02*
Y19761D01*
Y19533D01*
Y19305D01*
Y19077D01*
Y18849D01*
Y18621D01*
Y18393D01*
Y18165D01*
Y17937D01*
Y17708D01*
Y17481D01*
Y17253D01*
Y17024D01*
Y16796D01*
Y16568D01*
Y16340D01*
Y16112D01*
Y15884D01*
Y15656D01*
Y15428D01*
Y15200D01*
Y14972D01*
Y14744D01*
Y14516D01*
Y14288D01*
Y14060D01*
Y13832D01*
Y13604D01*
Y13376D01*
Y13148D01*
Y12920D01*
Y12692D01*
Y12464D01*
X85306D01*
Y12692D01*
Y12920D01*
Y13148D01*
Y13376D01*
Y13604D01*
Y13832D01*
Y14060D01*
Y14288D01*
Y14516D01*
Y14744D01*
Y14972D01*
Y15200D01*
Y15428D01*
Y15656D01*
Y15884D01*
Y16112D01*
Y16340D01*
Y16568D01*
Y16796D01*
Y17024D01*
Y17253D01*
Y17481D01*
Y17708D01*
X85534D01*
Y17937D01*
Y18165D01*
X85078D01*
Y17937D01*
X84850D01*
Y17708D01*
Y17481D01*
X84622D01*
Y17253D01*
Y17024D01*
X84394D01*
Y16796D01*
Y16568D01*
X84166D01*
Y16340D01*
Y16112D01*
X83938D01*
Y15884D01*
Y15656D01*
X83710D01*
Y15428D01*
Y15200D01*
X83482D01*
Y14972D01*
Y14744D01*
X83254D01*
Y14516D01*
Y14288D01*
X83026D01*
Y14060D01*
Y13832D01*
X82798D01*
Y13604D01*
Y13376D01*
X82570D01*
Y13148D01*
Y12920D01*
X82342D01*
Y12692D01*
Y12464D01*
X81430D01*
Y12692D01*
Y12920D01*
Y13148D01*
Y13376D01*
Y13604D01*
Y13832D01*
Y14060D01*
Y14288D01*
Y14516D01*
Y14744D01*
Y14972D01*
Y15200D01*
Y15428D01*
Y15656D01*
Y15884D01*
Y16112D01*
Y16340D01*
Y16568D01*
Y16796D01*
Y17024D01*
Y17253D01*
Y17481D01*
Y17708D01*
Y17937D01*
Y18165D01*
Y18393D01*
Y18621D01*
Y18849D01*
Y19077D01*
Y19305D01*
Y19533D01*
Y19761D01*
Y19989D01*
Y20217D01*
X82342D01*
Y19989D01*
Y19761D01*
Y19533D01*
Y19305D01*
Y19077D01*
Y18849D01*
Y18621D01*
Y18393D01*
Y18165D01*
Y17937D01*
Y17708D01*
Y17481D01*
Y17253D01*
Y17024D01*
Y16796D01*
Y16568D01*
Y16340D01*
Y16112D01*
Y15884D01*
Y15656D01*
Y15428D01*
Y15200D01*
Y14972D01*
X82114D01*
Y14744D01*
Y14516D01*
X82570D01*
Y14744D01*
X82798D01*
Y14972D01*
Y15200D01*
X83026D01*
Y15428D01*
Y15656D01*
X83254D01*
Y15884D01*
Y16112D01*
X83482D01*
Y16340D01*
Y16568D01*
Y16796D01*
X83710D01*
Y17024D01*
X83938D01*
Y17253D01*
Y17481D01*
Y17708D01*
X84166D01*
Y17937D01*
Y18165D01*
X84394D01*
Y18393D01*
X84622D01*
Y18621D01*
Y18849D01*
Y19077D01*
X84850D01*
Y19305D01*
X85078D01*
Y19533D01*
Y19761D01*
X85306D01*
Y19989D01*
Y20217D01*
X86219D01*
Y19989D01*
D02*
G37*
G36*
X102637Y20217D02*
X103321D01*
Y19989D01*
X103777D01*
Y19761D01*
X104005D01*
Y19533D01*
X104233D01*
Y19305D01*
Y19077D01*
X104461D01*
Y18849D01*
Y18621D01*
Y18393D01*
Y18165D01*
Y17937D01*
Y17708D01*
Y17481D01*
Y17253D01*
Y17024D01*
Y16796D01*
Y16568D01*
Y16340D01*
Y16112D01*
Y15884D01*
Y15656D01*
Y15428D01*
Y15200D01*
Y14972D01*
Y14744D01*
Y14516D01*
Y14288D01*
Y14060D01*
Y13832D01*
Y13604D01*
X104233D01*
Y13376D01*
Y13148D01*
X104005D01*
Y12920D01*
X103777D01*
Y12692D01*
X103549D01*
Y12464D01*
X102637D01*
Y12236D01*
X101725D01*
Y12464D01*
X101041D01*
Y12692D01*
X100585D01*
Y12920D01*
X100357D01*
Y13148D01*
Y13376D01*
X100129D01*
Y13604D01*
Y13832D01*
X99901D01*
Y14060D01*
X100129D01*
Y14288D01*
X99901D01*
Y14516D01*
Y14744D01*
Y14972D01*
Y15200D01*
Y15428D01*
Y15656D01*
Y15884D01*
Y16112D01*
Y16340D01*
Y16568D01*
X101953D01*
Y16340D01*
Y16112D01*
Y15884D01*
Y15656D01*
X100813D01*
Y15428D01*
Y15200D01*
Y14972D01*
Y14744D01*
Y14516D01*
Y14288D01*
Y14060D01*
Y13832D01*
X101041D01*
Y13604D01*
X101269D01*
Y13376D01*
X101497D01*
Y13148D01*
X102865D01*
Y13376D01*
X103321D01*
Y13604D01*
Y13832D01*
X103549D01*
Y14060D01*
Y14288D01*
Y14516D01*
Y14744D01*
Y14972D01*
Y15200D01*
Y15428D01*
Y15656D01*
Y15884D01*
Y16112D01*
Y16340D01*
Y16568D01*
Y16796D01*
Y17024D01*
Y17253D01*
Y17481D01*
Y17708D01*
Y17937D01*
Y18165D01*
Y18393D01*
Y18621D01*
Y18849D01*
X103321D01*
Y19077D01*
X103093D01*
Y19305D01*
X102865D01*
Y19533D01*
X101497D01*
Y19305D01*
X101269D01*
Y19077D01*
Y18849D01*
X101041D01*
Y18621D01*
Y18393D01*
Y18165D01*
X99901D01*
Y18393D01*
X100129D01*
Y18621D01*
Y18849D01*
Y19077D01*
X100357D01*
Y19305D01*
Y19533D01*
X100585D01*
Y19761D01*
X100813D01*
Y19989D01*
X101041D01*
Y20217D01*
X101953D01*
Y20445D01*
X102637D01*
Y20217D01*
D02*
G37*
G36*
X77781D02*
X78693D01*
Y19989D01*
X78921D01*
Y19761D01*
X79149D01*
Y19533D01*
X79377D01*
Y19305D01*
Y19077D01*
X79606D01*
Y18849D01*
Y18621D01*
Y18393D01*
Y18165D01*
Y17937D01*
Y17708D01*
Y17481D01*
Y17253D01*
Y17024D01*
Y16796D01*
Y16568D01*
Y16340D01*
Y16112D01*
Y15884D01*
Y15656D01*
Y15428D01*
Y15200D01*
Y14972D01*
Y14744D01*
Y14516D01*
Y14288D01*
Y14060D01*
Y13832D01*
X79377D01*
Y13604D01*
Y13376D01*
Y13148D01*
X79149D01*
Y12920D01*
X78921D01*
Y12692D01*
X78465D01*
Y12464D01*
X77781D01*
Y12236D01*
X76869D01*
Y12464D01*
X76185D01*
Y12692D01*
X75957D01*
Y12920D01*
X75729D01*
Y13148D01*
X75501D01*
Y13376D01*
Y13604D01*
X75273D01*
Y13832D01*
Y14060D01*
Y14288D01*
X75045D01*
Y14516D01*
X76185D01*
Y14288D01*
X75957D01*
Y14060D01*
X76185D01*
Y13832D01*
Y13604D01*
X76641D01*
Y13376D01*
X76869D01*
Y13148D01*
X78009D01*
Y13376D01*
X78465D01*
Y13604D01*
Y13832D01*
X78693D01*
Y14060D01*
Y14288D01*
X78921D01*
Y14516D01*
Y14744D01*
Y14972D01*
Y15200D01*
Y15428D01*
Y15656D01*
Y15884D01*
Y16112D01*
Y16340D01*
Y16568D01*
Y16796D01*
Y17024D01*
Y17253D01*
Y17481D01*
Y17708D01*
Y17937D01*
Y18165D01*
Y18393D01*
X78693D01*
Y18621D01*
Y18849D01*
X78465D01*
Y19077D01*
Y19305D01*
X78009D01*
Y19533D01*
X76869D01*
Y19305D01*
X76413D01*
Y19077D01*
X76185D01*
Y18849D01*
Y18621D01*
X75957D01*
Y18393D01*
X76185D01*
Y18165D01*
X75045D01*
Y18393D01*
X75273D01*
Y18621D01*
Y18849D01*
Y19077D01*
X75501D01*
Y19305D01*
Y19533D01*
X75729D01*
Y19761D01*
X75957D01*
Y19989D01*
X76185D01*
Y20217D01*
X77097D01*
Y20445D01*
X77781D01*
Y20217D01*
D02*
G37*
G36*
X63415Y19989D02*
Y19761D01*
Y19533D01*
Y19305D01*
Y19077D01*
Y18849D01*
Y18621D01*
Y18393D01*
Y18165D01*
Y17937D01*
Y17708D01*
Y17481D01*
Y17253D01*
Y17024D01*
Y16796D01*
Y16568D01*
Y16340D01*
Y16112D01*
Y15884D01*
Y15656D01*
Y15428D01*
Y15200D01*
Y14972D01*
Y14744D01*
Y14516D01*
Y14288D01*
X63187D01*
Y14060D01*
Y13832D01*
Y13604D01*
Y13376D01*
X62959D01*
Y13148D01*
Y12920D01*
X62731D01*
Y12692D01*
X62275D01*
Y12464D01*
X61591D01*
Y12236D01*
X60678D01*
Y12464D01*
X59994D01*
Y12692D01*
X59538D01*
Y12920D01*
X59310D01*
Y13148D01*
X59082D01*
Y13376D01*
Y13604D01*
Y13832D01*
X58854D01*
Y14060D01*
Y14288D01*
Y14516D01*
Y14744D01*
Y14972D01*
Y15200D01*
Y15428D01*
Y15656D01*
Y15884D01*
Y16112D01*
Y16340D01*
Y16568D01*
Y16796D01*
Y17024D01*
Y17253D01*
Y17481D01*
Y17708D01*
Y17937D01*
Y18165D01*
Y18393D01*
Y18621D01*
Y18849D01*
Y19077D01*
Y19305D01*
Y19533D01*
Y19761D01*
Y19989D01*
Y20217D01*
X59766D01*
Y19989D01*
Y19761D01*
Y19533D01*
Y19305D01*
Y19077D01*
Y18849D01*
Y18621D01*
Y18393D01*
Y18165D01*
Y17937D01*
Y17708D01*
Y17481D01*
Y17253D01*
Y17024D01*
Y16796D01*
Y16568D01*
Y16340D01*
Y16112D01*
Y15884D01*
Y15656D01*
Y15428D01*
Y15200D01*
Y14972D01*
Y14744D01*
Y14516D01*
Y14288D01*
Y14060D01*
Y13832D01*
X59994D01*
Y13604D01*
Y13376D01*
X60451D01*
Y13148D01*
X61819D01*
Y13376D01*
X62047D01*
Y13604D01*
X62275D01*
Y13832D01*
X62503D01*
Y14060D01*
Y14288D01*
Y14516D01*
Y14744D01*
Y14972D01*
Y15200D01*
Y15428D01*
Y15656D01*
Y15884D01*
Y16112D01*
Y16340D01*
Y16568D01*
Y16796D01*
Y17024D01*
Y17253D01*
Y17481D01*
Y17708D01*
Y17937D01*
Y18165D01*
Y18393D01*
Y18621D01*
Y18849D01*
Y19077D01*
Y19305D01*
Y19533D01*
Y19761D01*
Y19989D01*
Y20217D01*
X63415D01*
Y19989D01*
D02*
G37*
G36*
X44488D02*
Y19761D01*
Y19533D01*
Y19305D01*
Y19077D01*
Y18849D01*
Y18621D01*
Y18393D01*
Y18165D01*
Y17937D01*
Y17708D01*
Y17481D01*
Y17253D01*
Y17024D01*
Y16796D01*
Y16568D01*
Y16340D01*
Y16112D01*
Y15884D01*
Y15656D01*
Y15428D01*
Y15200D01*
Y14972D01*
Y14744D01*
Y14516D01*
Y14288D01*
Y14060D01*
Y13832D01*
Y13604D01*
Y13376D01*
X44260D01*
Y13148D01*
X44032D01*
Y12920D01*
X43804D01*
Y12692D01*
X43576D01*
Y12464D01*
X42892D01*
Y12236D01*
X41752D01*
Y12464D01*
X41067D01*
Y12692D01*
X40839D01*
Y12920D01*
X40611D01*
Y13148D01*
X40383D01*
Y13376D01*
Y13604D01*
X40155D01*
Y13832D01*
Y14060D01*
Y14288D01*
Y14516D01*
Y14744D01*
Y14972D01*
Y15200D01*
Y15428D01*
Y15656D01*
Y15884D01*
Y16112D01*
Y16340D01*
Y16568D01*
Y16796D01*
Y17024D01*
Y17253D01*
Y17481D01*
Y17708D01*
Y17937D01*
Y18165D01*
Y18393D01*
Y18621D01*
Y18849D01*
Y19077D01*
Y19305D01*
Y19533D01*
Y19761D01*
Y19989D01*
Y20217D01*
X40839D01*
Y19989D01*
Y19761D01*
Y19533D01*
Y19305D01*
Y19077D01*
Y18849D01*
Y18621D01*
Y18393D01*
Y18165D01*
Y17937D01*
Y17708D01*
Y17481D01*
Y17253D01*
Y17024D01*
Y16796D01*
Y16568D01*
Y16340D01*
Y16112D01*
Y15884D01*
Y15656D01*
Y15428D01*
Y15200D01*
Y14972D01*
Y14744D01*
Y14516D01*
Y14288D01*
Y14060D01*
X41067D01*
Y13832D01*
Y13604D01*
X41295D01*
Y13376D01*
X41752D01*
Y13148D01*
X43120D01*
Y13376D01*
X43348D01*
Y13604D01*
X43576D01*
Y13832D01*
Y14060D01*
Y14288D01*
X43804D01*
Y14516D01*
Y14744D01*
Y14972D01*
Y15200D01*
Y15428D01*
Y15656D01*
Y15884D01*
Y16112D01*
Y16340D01*
Y16568D01*
Y16796D01*
Y17024D01*
Y17253D01*
Y17481D01*
Y17708D01*
Y17937D01*
Y18165D01*
Y18393D01*
Y18621D01*
Y18849D01*
Y19077D01*
Y19305D01*
Y19533D01*
Y19761D01*
Y19989D01*
Y20217D01*
X44488D01*
Y19989D01*
D02*
G37*
G36*
X143456D02*
Y19761D01*
Y19533D01*
Y19305D01*
Y19077D01*
Y18849D01*
Y18621D01*
Y18393D01*
Y18165D01*
Y17937D01*
Y17708D01*
Y17481D01*
Y17253D01*
Y17024D01*
Y16796D01*
Y16568D01*
Y16340D01*
Y16112D01*
Y15884D01*
Y15656D01*
Y15428D01*
Y15200D01*
Y14972D01*
Y14744D01*
Y14516D01*
Y14288D01*
Y14060D01*
Y13832D01*
Y13604D01*
Y13376D01*
Y13148D01*
Y12920D01*
Y12692D01*
Y12464D01*
X139351D01*
Y12692D01*
Y12920D01*
X139123D01*
Y13148D01*
X142543D01*
Y13376D01*
Y13604D01*
Y13832D01*
Y14060D01*
Y14288D01*
Y14516D01*
Y14744D01*
Y14972D01*
Y15200D01*
Y15428D01*
Y15656D01*
Y15884D01*
X139807D01*
Y16112D01*
Y16340D01*
Y16568D01*
Y16796D01*
X142543D01*
Y17024D01*
Y17253D01*
Y17481D01*
Y17708D01*
Y17937D01*
Y18165D01*
Y18393D01*
Y18621D01*
Y18849D01*
Y19077D01*
Y19305D01*
Y19533D01*
X139123D01*
Y19761D01*
X139351D01*
Y19989D01*
Y20217D01*
X143456D01*
Y19989D01*
D02*
G37*
G36*
X137755D02*
Y19761D01*
Y19533D01*
Y19305D01*
Y19077D01*
Y18849D01*
Y18621D01*
Y18393D01*
Y18165D01*
Y17937D01*
Y17708D01*
Y17481D01*
Y17253D01*
Y17024D01*
Y16796D01*
Y16568D01*
Y16340D01*
Y16112D01*
Y15884D01*
Y15656D01*
Y15428D01*
Y15200D01*
Y14972D01*
Y14744D01*
Y14516D01*
Y14288D01*
Y14060D01*
Y13832D01*
Y13604D01*
Y13376D01*
Y13148D01*
Y12920D01*
Y12692D01*
Y12464D01*
X136842D01*
Y12692D01*
X137071D01*
Y12920D01*
Y13148D01*
Y13376D01*
Y13604D01*
Y13832D01*
Y14060D01*
Y14288D01*
Y14516D01*
Y14744D01*
Y14972D01*
Y15200D01*
Y15428D01*
Y15656D01*
Y15884D01*
X135474D01*
Y15656D01*
X135246D01*
Y15428D01*
Y15200D01*
X135018D01*
Y14972D01*
Y14744D01*
X134790D01*
Y14516D01*
Y14288D01*
Y14060D01*
X134562D01*
Y13832D01*
Y13604D01*
X134334D01*
Y13376D01*
Y13148D01*
Y12920D01*
X134106D01*
Y12692D01*
Y12464D01*
X132966D01*
Y12692D01*
X133194D01*
Y12920D01*
X133422D01*
Y13148D01*
Y13376D01*
Y13604D01*
X133650D01*
Y13832D01*
Y14060D01*
X133878D01*
Y14288D01*
Y14516D01*
Y14744D01*
X134106D01*
Y14972D01*
Y15200D01*
X134334D01*
Y15428D01*
Y15656D01*
X134562D01*
Y15884D01*
Y16112D01*
X134106D01*
Y16340D01*
X133650D01*
Y16568D01*
Y16796D01*
X133422D01*
Y17024D01*
Y17253D01*
Y17481D01*
X133194D01*
Y17708D01*
Y17937D01*
Y18165D01*
Y18393D01*
Y18621D01*
X133422D01*
Y18849D01*
Y19077D01*
Y19305D01*
Y19533D01*
X133650D01*
Y19761D01*
X133878D01*
Y19989D01*
X134334D01*
Y20217D01*
X137755D01*
Y19989D01*
D02*
G37*
G36*
X125213D02*
Y19761D01*
Y19533D01*
Y19305D01*
Y19077D01*
Y18849D01*
Y18621D01*
Y18393D01*
Y18165D01*
Y17937D01*
Y17708D01*
Y17481D01*
Y17253D01*
Y17024D01*
Y16796D01*
Y16568D01*
Y16340D01*
Y16112D01*
Y15884D01*
Y15656D01*
Y15428D01*
Y15200D01*
Y14972D01*
Y14744D01*
Y14516D01*
Y14288D01*
Y14060D01*
Y13832D01*
Y13604D01*
Y13376D01*
Y13148D01*
Y12920D01*
Y12692D01*
Y12464D01*
X121108D01*
Y12692D01*
Y12920D01*
Y13148D01*
X124529D01*
Y13376D01*
Y13604D01*
Y13832D01*
Y14060D01*
Y14288D01*
Y14516D01*
Y14744D01*
Y14972D01*
Y15200D01*
Y15428D01*
Y15656D01*
Y15884D01*
X121564D01*
Y16112D01*
Y16340D01*
Y16568D01*
Y16796D01*
X124529D01*
Y17024D01*
Y17253D01*
Y17481D01*
Y17708D01*
Y17937D01*
Y18165D01*
Y18393D01*
Y18621D01*
Y18849D01*
Y19077D01*
Y19305D01*
Y19533D01*
X121108D01*
Y19761D01*
Y19989D01*
Y20217D01*
X125213D01*
Y19989D01*
D02*
G37*
G36*
X98304D02*
Y19761D01*
Y19533D01*
Y19305D01*
Y19077D01*
Y18849D01*
Y18621D01*
Y18393D01*
Y18165D01*
Y17937D01*
Y17708D01*
Y17481D01*
Y17253D01*
Y17024D01*
Y16796D01*
Y16568D01*
Y16340D01*
Y16112D01*
Y15884D01*
Y15656D01*
Y15428D01*
Y15200D01*
Y14972D01*
Y14744D01*
Y14516D01*
Y14288D01*
Y14060D01*
Y13832D01*
Y13604D01*
Y13376D01*
Y13148D01*
Y12920D01*
Y12692D01*
Y12464D01*
X97392D01*
Y12692D01*
Y12920D01*
Y13148D01*
Y13376D01*
Y13604D01*
Y13832D01*
Y14060D01*
Y14288D01*
Y14516D01*
Y14744D01*
Y14972D01*
Y15200D01*
Y15428D01*
Y15656D01*
Y15884D01*
X95796D01*
Y15656D01*
X95568D01*
Y15428D01*
Y15200D01*
Y14972D01*
X95340D01*
Y14744D01*
Y14516D01*
X95112D01*
Y14288D01*
Y14060D01*
Y13832D01*
X94884D01*
Y13604D01*
Y13376D01*
X94656D01*
Y13148D01*
Y12920D01*
X94428D01*
Y12692D01*
Y12464D01*
X93516D01*
Y12692D01*
Y12920D01*
X93744D01*
Y13148D01*
Y13376D01*
X93972D01*
Y13604D01*
Y13832D01*
Y14060D01*
X94200D01*
Y14288D01*
X94428D01*
Y14516D01*
Y14744D01*
Y14972D01*
X94656D01*
Y15200D01*
Y15428D01*
X94884D01*
Y15656D01*
Y15884D01*
Y16112D01*
X94428D01*
Y16340D01*
X93972D01*
Y16568D01*
Y16796D01*
X93744D01*
Y17024D01*
Y17253D01*
Y17481D01*
X93516D01*
Y17708D01*
Y17937D01*
Y18165D01*
Y18393D01*
Y18621D01*
X93744D01*
Y18849D01*
Y19077D01*
Y19305D01*
X93972D01*
Y19533D01*
Y19761D01*
X94200D01*
Y19989D01*
X94656D01*
Y20217D01*
X98304D01*
Y19989D01*
D02*
G37*
G36*
X91919D02*
Y19761D01*
Y19533D01*
Y19305D01*
Y19077D01*
Y18849D01*
Y18621D01*
Y18393D01*
Y18165D01*
Y17937D01*
Y17708D01*
Y17481D01*
Y17253D01*
Y17024D01*
Y16796D01*
Y16568D01*
Y16340D01*
Y16112D01*
Y15884D01*
Y15656D01*
Y15428D01*
Y15200D01*
Y14972D01*
Y14744D01*
Y14516D01*
Y14288D01*
Y14060D01*
Y13832D01*
Y13604D01*
Y13376D01*
Y13148D01*
Y12920D01*
Y12692D01*
Y12464D01*
X87587D01*
Y12692D01*
X87815D01*
Y12920D01*
X87587D01*
Y13148D01*
X91007D01*
Y13376D01*
Y13604D01*
Y13832D01*
Y14060D01*
Y14288D01*
Y14516D01*
Y14744D01*
Y14972D01*
Y15200D01*
Y15428D01*
Y15656D01*
Y15884D01*
X88043D01*
Y16112D01*
X88271D01*
Y16340D01*
Y16568D01*
Y16796D01*
X91007D01*
Y17024D01*
Y17253D01*
Y17481D01*
Y17708D01*
Y17937D01*
Y18165D01*
Y18393D01*
Y18621D01*
Y18849D01*
Y19077D01*
Y19305D01*
Y19533D01*
X87587D01*
Y19761D01*
X87815D01*
Y19989D01*
X87587D01*
Y20217D01*
X91919D01*
Y19989D01*
D02*
G37*
G36*
X73677D02*
Y19761D01*
Y19533D01*
Y19305D01*
Y19077D01*
Y18849D01*
Y18621D01*
Y18393D01*
Y18165D01*
Y17937D01*
Y17708D01*
Y17481D01*
Y17253D01*
Y17024D01*
Y16796D01*
Y16568D01*
Y16340D01*
Y16112D01*
Y15884D01*
Y15656D01*
Y15428D01*
Y15200D01*
Y14972D01*
Y14744D01*
Y14516D01*
Y14288D01*
Y14060D01*
Y13832D01*
Y13604D01*
Y13376D01*
Y13148D01*
Y12920D01*
Y12692D01*
Y12464D01*
X72764D01*
Y12692D01*
Y12920D01*
Y13148D01*
Y13376D01*
Y13604D01*
Y13832D01*
Y14060D01*
Y14288D01*
Y14516D01*
Y14744D01*
Y14972D01*
Y15200D01*
Y15428D01*
Y15656D01*
Y15884D01*
Y16112D01*
Y16340D01*
Y16568D01*
Y16796D01*
Y17024D01*
Y17253D01*
Y17481D01*
Y17708D01*
Y17937D01*
Y18165D01*
Y18393D01*
Y18621D01*
Y18849D01*
Y19077D01*
Y19305D01*
Y19533D01*
Y19761D01*
Y19989D01*
Y20217D01*
X73677D01*
Y19989D01*
D02*
G37*
G36*
X57258D02*
Y19761D01*
Y19533D01*
Y19305D01*
Y19077D01*
Y18849D01*
Y18621D01*
Y18393D01*
Y18165D01*
Y17937D01*
Y17708D01*
Y17481D01*
Y17253D01*
Y17024D01*
Y16796D01*
Y16568D01*
Y16340D01*
Y16112D01*
Y15884D01*
Y15656D01*
Y15428D01*
Y15200D01*
Y14972D01*
Y14744D01*
Y14516D01*
Y14288D01*
Y14060D01*
Y13832D01*
Y13604D01*
Y13376D01*
Y13148D01*
Y12920D01*
Y12692D01*
Y12464D01*
X56346D01*
Y12692D01*
Y12920D01*
Y13148D01*
Y13376D01*
Y13604D01*
Y13832D01*
Y14060D01*
Y14288D01*
Y14516D01*
Y14744D01*
Y14972D01*
Y15200D01*
Y15428D01*
Y15656D01*
Y15884D01*
X54750D01*
Y15656D01*
X54522D01*
Y15428D01*
Y15200D01*
Y14972D01*
X54294D01*
Y14744D01*
Y14516D01*
X54066D01*
Y14288D01*
Y14060D01*
Y13832D01*
X53837D01*
Y13604D01*
Y13376D01*
X53609D01*
Y13148D01*
Y12920D01*
X53381D01*
Y12692D01*
Y12464D01*
X52469D01*
Y12692D01*
Y12920D01*
X52697D01*
Y13148D01*
Y13376D01*
X52925D01*
Y13604D01*
Y13832D01*
Y14060D01*
X53153D01*
Y14288D01*
X53381D01*
Y14516D01*
Y14744D01*
Y14972D01*
X53609D01*
Y15200D01*
Y15428D01*
X53837D01*
Y15656D01*
Y15884D01*
Y16112D01*
X53381D01*
Y16340D01*
X52925D01*
Y16568D01*
Y16796D01*
X52697D01*
Y17024D01*
Y17253D01*
Y17481D01*
Y17708D01*
X52469D01*
Y17937D01*
Y18165D01*
Y18393D01*
Y18621D01*
X52697D01*
Y18849D01*
Y19077D01*
Y19305D01*
X52925D01*
Y19533D01*
Y19761D01*
X53153D01*
Y19989D01*
X53609D01*
Y20217D01*
X57258D01*
Y19989D01*
D02*
G37*
G36*
X50873D02*
Y19761D01*
Y19533D01*
Y19305D01*
Y19077D01*
Y18849D01*
Y18621D01*
Y18393D01*
Y18165D01*
Y17937D01*
Y17708D01*
Y17481D01*
Y17253D01*
Y17024D01*
Y16796D01*
Y16568D01*
Y16340D01*
Y16112D01*
Y15884D01*
Y15656D01*
Y15428D01*
Y15200D01*
Y14972D01*
Y14744D01*
Y14516D01*
Y14288D01*
Y14060D01*
Y13832D01*
Y13604D01*
Y13376D01*
Y13148D01*
Y12920D01*
Y12692D01*
Y12464D01*
X47452D01*
Y12692D01*
X46996D01*
Y12920D01*
X46768D01*
Y13148D01*
X46540D01*
Y13376D01*
Y13604D01*
X46312D01*
Y13832D01*
Y14060D01*
Y14288D01*
Y14516D01*
Y14744D01*
Y14972D01*
Y15200D01*
Y15428D01*
Y15656D01*
Y15884D01*
Y16112D01*
Y16340D01*
Y16568D01*
Y16796D01*
Y17024D01*
Y17253D01*
Y17481D01*
Y17708D01*
Y17937D01*
Y18165D01*
Y18393D01*
Y18621D01*
Y18849D01*
Y19077D01*
X46540D01*
Y19305D01*
Y19533D01*
X46768D01*
Y19761D01*
X46996D01*
Y19989D01*
X47452D01*
Y20217D01*
X50873D01*
Y19989D01*
D02*
G37*
G36*
X109022Y20217D02*
X109706D01*
Y19989D01*
X110162D01*
Y19761D01*
X110390D01*
Y19533D01*
Y19305D01*
X110618D01*
Y19077D01*
Y18849D01*
X110846D01*
Y18621D01*
Y18393D01*
Y18165D01*
Y17937D01*
Y17708D01*
Y17481D01*
Y17253D01*
Y17024D01*
Y16796D01*
Y16568D01*
Y16340D01*
Y16112D01*
Y15884D01*
Y15656D01*
Y15428D01*
Y15200D01*
Y14972D01*
Y14744D01*
Y14516D01*
Y14288D01*
Y14060D01*
Y13832D01*
X110618D01*
Y13604D01*
Y13376D01*
X110390D01*
Y13148D01*
X110162D01*
Y12920D01*
X109934D01*
Y12692D01*
X109706D01*
Y12464D01*
X109022D01*
Y12236D01*
X108110D01*
Y12464D01*
X107426D01*
Y12692D01*
X106970D01*
Y12920D01*
X106742D01*
Y13148D01*
X106514D01*
Y13376D01*
Y13604D01*
X106286D01*
Y13832D01*
Y14060D01*
Y14288D01*
Y14516D01*
Y14744D01*
Y14972D01*
Y15200D01*
Y15428D01*
Y15656D01*
Y15884D01*
Y16112D01*
Y16340D01*
Y16568D01*
Y16796D01*
Y17024D01*
Y17253D01*
Y17481D01*
Y17708D01*
Y17937D01*
Y18165D01*
Y18393D01*
Y18621D01*
Y18849D01*
Y19077D01*
X106514D01*
Y19305D01*
Y19533D01*
X106742D01*
Y19761D01*
X106970D01*
Y19989D01*
X107426D01*
Y20217D01*
X108110D01*
Y20445D01*
X109022D01*
Y20217D01*
D02*
G37*
%LPC*%
G36*
X112443Y80646D02*
X109022D01*
Y80418D01*
X108566D01*
Y80190D01*
X108110D01*
Y79962D01*
X107882D01*
Y79734D01*
Y79506D01*
X107654D01*
Y79278D01*
X107426D01*
Y79050D01*
X107198D01*
Y78822D01*
Y78594D01*
X106970D01*
Y78366D01*
X106742D01*
Y78138D01*
Y77910D01*
X106514D01*
Y77682D01*
X106286D01*
Y77454D01*
Y77226D01*
X106058D01*
Y76998D01*
X105830D01*
Y76770D01*
X105602D01*
Y76542D01*
Y76314D01*
X105374D01*
Y76086D01*
X105146D01*
Y75858D01*
Y75630D01*
X104917D01*
Y75402D01*
X104689D01*
Y75173D01*
Y74945D01*
X104461D01*
Y74717D01*
X104233D01*
Y74489D01*
X104005D01*
Y74261D01*
Y74033D01*
X103777D01*
Y73805D01*
Y73577D01*
X103549D01*
Y73349D01*
X103321D01*
Y73121D01*
X103093D01*
Y72893D01*
Y72665D01*
X107198D01*
Y72893D01*
X107426D01*
Y73121D01*
X107654D01*
Y73349D01*
X107882D01*
Y73577D01*
Y73805D01*
X108110D01*
Y74033D01*
Y74261D01*
X108338D01*
Y74489D01*
X108566D01*
Y74717D01*
X108794D01*
Y74945D01*
Y75173D01*
X109022D01*
Y75402D01*
X109250D01*
Y75630D01*
Y75858D01*
X109478D01*
Y76086D01*
X109706D01*
Y76314D01*
Y76542D01*
X109934D01*
Y76770D01*
X110162D01*
Y76998D01*
Y77226D01*
X110390D01*
Y77454D01*
X110618D01*
Y77682D01*
Y77910D01*
X110846D01*
Y78138D01*
X111074D01*
Y78366D01*
Y78594D01*
X111302D01*
Y78822D01*
X111530D01*
Y79050D01*
X111758D01*
Y79278D01*
Y79506D01*
X111986D01*
Y79734D01*
X112215D01*
Y79962D01*
X112443D01*
Y80190D01*
Y80418D01*
Y80646D01*
D02*
G37*
G36*
X48365Y43477D02*
X47452D01*
Y43249D01*
X46312D01*
Y43020D01*
X45628D01*
Y42792D01*
X45172D01*
Y42564D01*
X44944D01*
Y42336D01*
X44488D01*
Y42108D01*
X44260D01*
Y41880D01*
X43804D01*
Y41652D01*
X43576D01*
Y41424D01*
X43348D01*
Y41196D01*
Y40968D01*
X43120D01*
Y40740D01*
X42892D01*
Y40512D01*
Y40284D01*
X42664D01*
Y40056D01*
Y39828D01*
X42436D01*
Y39600D01*
Y39372D01*
Y39144D01*
X42208D01*
Y38916D01*
Y38688D01*
Y38460D01*
Y38232D01*
X41980D01*
Y38004D01*
Y37776D01*
Y37548D01*
Y37320D01*
Y37092D01*
Y36863D01*
X42208D01*
Y36636D01*
Y36408D01*
Y36180D01*
Y35951D01*
Y35723D01*
X42436D01*
Y35495D01*
Y35267D01*
X42664D01*
Y35039D01*
Y34811D01*
X42892D01*
Y34583D01*
Y34355D01*
X43120D01*
Y34127D01*
X43348D01*
Y33899D01*
Y33671D01*
X43576D01*
Y33443D01*
X43804D01*
Y33215D01*
X44032D01*
Y32987D01*
X44260D01*
Y32759D01*
X44716D01*
Y32531D01*
X45172D01*
Y32303D01*
X45400D01*
Y32075D01*
X46084D01*
Y31847D01*
X46768D01*
Y31619D01*
X48365D01*
Y31847D01*
Y32075D01*
Y32303D01*
Y32531D01*
Y32759D01*
Y32987D01*
Y33215D01*
Y33443D01*
Y33671D01*
Y33899D01*
Y34127D01*
Y34355D01*
Y34583D01*
Y34811D01*
Y35039D01*
Y35267D01*
Y35495D01*
Y35723D01*
Y35951D01*
Y36180D01*
Y36408D01*
Y36636D01*
Y36863D01*
Y37092D01*
Y37320D01*
Y37548D01*
Y37776D01*
Y38004D01*
Y38232D01*
Y38460D01*
Y38688D01*
Y38916D01*
Y39144D01*
Y39372D01*
Y39600D01*
Y39828D01*
Y40056D01*
Y40284D01*
Y40512D01*
Y40740D01*
Y40968D01*
Y41196D01*
Y41424D01*
Y41652D01*
Y41880D01*
Y42108D01*
Y42336D01*
Y42564D01*
Y42792D01*
Y43020D01*
Y43249D01*
Y43477D01*
D02*
G37*
G36*
X137071Y19533D02*
X134790D01*
Y19305D01*
X134562D01*
Y19077D01*
X134106D01*
Y18849D01*
Y18621D01*
Y18393D01*
Y18165D01*
Y17937D01*
Y17708D01*
Y17481D01*
Y17253D01*
Y17024D01*
X134562D01*
Y16796D01*
X135018D01*
Y16568D01*
X137071D01*
Y16796D01*
Y17024D01*
Y17253D01*
Y17481D01*
Y17708D01*
Y17937D01*
Y18165D01*
Y18393D01*
Y18621D01*
Y18849D01*
Y19077D01*
Y19305D01*
Y19533D01*
D02*
G37*
G36*
X97392D02*
X95112D01*
Y19305D01*
X94884D01*
Y19077D01*
X94656D01*
Y18849D01*
Y18621D01*
X94428D01*
Y18393D01*
Y18165D01*
Y17937D01*
Y17708D01*
Y17481D01*
X94656D01*
Y17253D01*
Y17024D01*
X94884D01*
Y16796D01*
X95340D01*
Y16568D01*
X97392D01*
Y16796D01*
Y17024D01*
Y17253D01*
Y17481D01*
Y17708D01*
Y17937D01*
Y18165D01*
Y18393D01*
Y18621D01*
Y18849D01*
Y19077D01*
Y19305D01*
Y19533D01*
D02*
G37*
G36*
X56346D02*
X54066D01*
Y19305D01*
X53837D01*
Y19077D01*
X53609D01*
Y18849D01*
Y18621D01*
X53381D01*
Y18393D01*
Y18165D01*
Y17937D01*
Y17708D01*
Y17481D01*
X53609D01*
Y17253D01*
Y17024D01*
X53837D01*
Y16796D01*
X54294D01*
Y16568D01*
X56346D01*
Y16796D01*
Y17024D01*
Y17253D01*
Y17481D01*
Y17708D01*
Y17937D01*
Y18165D01*
Y18393D01*
Y18621D01*
Y18849D01*
Y19077D01*
Y19305D01*
Y19533D01*
D02*
G37*
G36*
X49961D02*
X47908D01*
Y19305D01*
X47452D01*
Y19077D01*
X47224D01*
Y18849D01*
Y18621D01*
Y18393D01*
Y18165D01*
Y17937D01*
Y17708D01*
Y17481D01*
Y17253D01*
Y17024D01*
Y16796D01*
Y16568D01*
Y16340D01*
Y16112D01*
Y15884D01*
Y15656D01*
Y15428D01*
Y15200D01*
Y14972D01*
Y14744D01*
Y14516D01*
Y14288D01*
Y14060D01*
Y13832D01*
Y13604D01*
X47452D01*
Y13376D01*
X47908D01*
Y13148D01*
X49961D01*
Y13376D01*
Y13604D01*
Y13832D01*
Y14060D01*
Y14288D01*
Y14516D01*
Y14744D01*
Y14972D01*
Y15200D01*
Y15428D01*
Y15656D01*
Y15884D01*
Y16112D01*
Y16340D01*
Y16568D01*
Y16796D01*
Y17024D01*
Y17253D01*
Y17481D01*
Y17708D01*
Y17937D01*
Y18165D01*
Y18393D01*
Y18621D01*
Y18849D01*
Y19077D01*
Y19305D01*
Y19533D01*
D02*
G37*
G36*
X109250D02*
X107882D01*
Y19305D01*
X107426D01*
Y19077D01*
X107198D01*
Y18849D01*
Y18621D01*
Y18393D01*
Y18165D01*
Y17937D01*
Y17708D01*
Y17481D01*
Y17253D01*
Y17024D01*
Y16796D01*
Y16568D01*
Y16340D01*
Y16112D01*
Y15884D01*
Y15656D01*
Y15428D01*
Y15200D01*
Y14972D01*
Y14744D01*
Y14516D01*
Y14288D01*
Y14060D01*
Y13832D01*
Y13604D01*
X107426D01*
Y13376D01*
X107882D01*
Y13148D01*
X109250D01*
Y13376D01*
X109478D01*
Y13604D01*
X109706D01*
Y13832D01*
X109934D01*
Y14060D01*
Y14288D01*
Y14516D01*
Y14744D01*
Y14972D01*
Y15200D01*
Y15428D01*
Y15656D01*
Y15884D01*
Y16112D01*
Y16340D01*
Y16568D01*
Y16796D01*
Y17024D01*
Y17253D01*
Y17481D01*
Y17708D01*
Y17937D01*
Y18165D01*
Y18393D01*
Y18621D01*
Y18849D01*
X109706D01*
Y19077D01*
Y19305D01*
X109250D01*
Y19533D01*
D02*
G37*
%LPD*%
D10*
X97327Y190138D02*
G03*
X87327Y190138I-5000J-5000D01*
G01*
X102327Y195138D02*
G03*
X82327Y195138I-10000J-10000D01*
G01*
X107327Y200138D02*
G03*
X77327Y200138I-15000J-15000D01*
G01*
X112327Y205138D02*
G03*
X72327Y205138I-20000J-20000D01*
G01*
X117327Y210138D02*
G03*
X67327Y210138I-25000J-25000D01*
G01*
X87327Y180138D02*
G03*
X97327Y180138I5000J5000D01*
G01*
X82327Y175138D02*
G03*
X102327Y175138I10000J10000D01*
G01*
X77327Y170138D02*
G03*
X107327Y170138I15000J15000D01*
G01*
X72327Y165138D02*
G03*
X112327Y165138I20000J20000D01*
G01*
X67327Y160138D02*
G03*
X117327Y160138I25000J25000D01*
G01*
X62327Y155138D02*
G03*
X122327Y155138I30000J30000D01*
G01*
Y215138D02*
G03*
X62327Y215138I-30000J-30000D01*
G01*
X127032Y220138D02*
G03*
X57032Y220138I-35000J-35000D01*
G01*
X132032Y225138D02*
G03*
X52031Y225138I-40000J-40000D01*
G01*
X57032Y150138D02*
G03*
X127032Y150138I35000J35000D01*
G01*
X52031Y145138D02*
G03*
X132032Y145138I40000J40000D01*
G01*
X192327Y105867D02*
Y263367D01*
X1213Y263367D02*
X192327Y263367D01*
X1213Y105867D02*
Y263367D01*
Y105867D02*
X192327D01*
X3327Y140138D02*
X18827D01*
X3327D02*
Y225138D01*
X18827Y140138D02*
Y225138D01*
X3327D02*
X18827D01*
X175413Y92213D02*
X176079Y92879D01*
X177412D01*
X178079Y92213D01*
Y91546D01*
X177412Y90880D01*
X176079D01*
X175413Y90213D01*
Y89547D01*
X176079Y88880D01*
X177412D01*
X178079Y89547D01*
X174080Y88880D02*
Y89547D01*
X173413D01*
Y88880D01*
X174080D01*
X170748D02*
Y91546D01*
X169415Y92879D01*
X168082Y91546D01*
Y88880D01*
Y90880D01*
X170748D01*
X166749Y91546D02*
Y88880D01*
Y90213D01*
X166083Y90880D01*
X165416Y91546D01*
X164750D01*
X162750Y88880D02*
X161417D01*
X162084D01*
Y91546D01*
X162750D01*
X159418Y88880D02*
Y92879D01*
Y90213D02*
X157419Y91546D01*
X159418Y90213D02*
X157419Y88880D01*
X154753Y91546D02*
X153420D01*
X152753Y90880D01*
Y88880D01*
X154753D01*
X155419Y89547D01*
X154753Y90213D01*
X152753D01*
X151420Y91546D02*
Y89547D01*
X150754Y88880D01*
X148755D01*
Y88214D01*
X149421Y87548D01*
X150088D01*
X148755Y88880D02*
Y91546D01*
X146755D02*
X145422D01*
X144756Y90880D01*
Y88880D01*
X146755D01*
X147422Y89547D01*
X146755Y90213D01*
X144756D01*
X170081Y84348D02*
Y80349D01*
Y82349D01*
X167415D01*
Y84348D01*
Y80349D01*
X166083D02*
Y81016D01*
X165416D01*
Y80349D01*
X166083D01*
X162750D02*
Y84348D01*
X160751D01*
X160084Y83681D01*
Y82349D01*
X160751Y81682D01*
X162750D01*
X161417D02*
X160084Y80349D01*
X158751D02*
Y81016D01*
X158085D01*
Y80349D01*
X158751D01*
X155419Y84348D02*
Y83681D01*
X154086Y82349D01*
X152753Y83681D01*
Y84348D01*
X154086Y82349D02*
Y80349D01*
X18096Y138299D02*
Y134966D01*
X17430Y134300D01*
X16097D01*
X15430Y134966D01*
Y138299D01*
X11432Y134300D02*
X14097D01*
X11432Y136966D01*
Y137632D01*
X12098Y138299D01*
X13431D01*
X14097Y137632D01*
X191282Y25589D02*
G03*
X191282Y25492I-24648J-97D01*
G01*
X123937Y135307D02*
G03*
X123937Y135307I-500J0D01*
G01*
X187593Y204036D02*
G03*
X187458Y195049I166J-4497D01*
G01*
D12*
X26316Y149049D02*
X26841Y149574D01*
X27890D01*
X28415Y149049D01*
Y148524D01*
X27890Y147999D01*
X26841D01*
X26316Y147475D01*
Y146950D01*
X26841Y146425D01*
X27890D01*
X28415Y146950D01*
X25267Y149574D02*
Y146425D01*
X23692D01*
X23167Y146950D01*
Y149049D01*
X23692Y149574D01*
X25267D01*
X22118Y146425D02*
Y148524D01*
X21068Y149574D01*
X20019Y148524D01*
Y146425D01*
Y147999D01*
X22118D01*
X26316Y158549D02*
X26841Y159074D01*
X27890D01*
X28415Y158549D01*
Y158024D01*
X27890Y157499D01*
X26841D01*
X26316Y156974D01*
Y156450D01*
X26841Y155925D01*
X27890D01*
X28415Y156450D01*
X23167Y158549D02*
X23692Y159074D01*
X24742D01*
X25267Y158549D01*
Y156450D01*
X24742Y155925D01*
X23692D01*
X23167Y156450D01*
X22118Y159074D02*
Y155925D01*
Y156974D01*
X20019Y159074D01*
X21593Y157499D01*
X20019Y155925D01*
X31039Y175925D02*
Y179074D01*
X29989Y178024D01*
X28940Y179074D01*
Y175925D01*
X27890Y179074D02*
X26841D01*
X27366D01*
Y175925D01*
X27890D01*
X26841D01*
X23167Y178549D02*
X23692Y179074D01*
X24742D01*
X25267Y178549D01*
Y178024D01*
X24742Y177499D01*
X23692D01*
X23167Y176975D01*
Y176450D01*
X23692Y175925D01*
X24742D01*
X25267Y176450D01*
X20544Y179074D02*
X21593D01*
X22118Y178549D01*
Y176450D01*
X21593Y175925D01*
X20544D01*
X20019Y176450D01*
Y178549D01*
X20544Y179074D01*
X30514Y165925D02*
Y169074D01*
X29465Y168024D01*
X28415Y169074D01*
Y165925D01*
X25791Y169074D02*
X26841D01*
X27366Y168549D01*
Y166450D01*
X26841Y165925D01*
X25791D01*
X25267Y166450D01*
Y168549D01*
X25791Y169074D01*
X22118Y168549D02*
X22643Y169074D01*
X23692D01*
X24217Y168549D01*
Y168024D01*
X23692Y167499D01*
X22643D01*
X22118Y166974D01*
Y166450D01*
X22643Y165925D01*
X23692D01*
X24217Y166450D01*
X21068Y169074D02*
X20019D01*
X20544D01*
Y165925D01*
X21068D01*
X20019D01*
X27891Y189073D02*
X26841D01*
X27366D01*
Y185925D01*
X27891D01*
X26841D01*
X25267D02*
Y189073D01*
X23693D01*
X23168Y188549D01*
Y187499D01*
X23693Y186974D01*
X25267D01*
X24217D02*
X23168Y185925D01*
X20019Y186450D02*
Y188549D01*
X20544Y189073D01*
X21593D01*
X22118Y188549D01*
Y186450D01*
X21593Y185925D01*
X20544D01*
X21069Y186974D02*
X20019Y185925D01*
X20544D02*
X20019Y186450D01*
X26316Y198549D02*
X26841Y199073D01*
X27891D01*
X28415Y198549D01*
Y196450D01*
X27891Y195925D01*
X26841D01*
X26316Y196450D01*
Y197499D01*
X27366D01*
X25267Y195925D02*
Y199073D01*
X23168Y195925D01*
Y199073D01*
X22118D02*
Y195925D01*
X20544D01*
X20019Y196450D01*
Y198549D01*
X20544Y199073D01*
X22118D01*
X28415Y205925D02*
Y209073D01*
X26841D01*
X26316Y208549D01*
Y207499D01*
X26841Y206974D01*
X28415D01*
X27366D02*
X26316Y205925D01*
X23168Y208549D02*
X23693Y209073D01*
X24742D01*
X25267Y208549D01*
Y208024D01*
X24742Y207499D01*
X23693D01*
X23168Y206974D01*
Y206450D01*
X23693Y205925D01*
X24742D01*
X25267Y206450D01*
X22118Y209073D02*
X20019D01*
X21069D01*
Y205925D01*
X31039Y218548D02*
X30514Y219073D01*
X29465D01*
X28940Y218548D01*
Y218024D01*
X29465Y217499D01*
X29990D01*
X29465D01*
X28940Y216974D01*
Y216449D01*
X29465Y215925D01*
X30514D01*
X31039Y216449D01*
X27891Y215925D02*
Y216449D01*
X27366D01*
Y215925D01*
X27891D01*
X25267Y218548D02*
X24742Y219073D01*
X23693D01*
X23168Y218548D01*
Y218024D01*
X23693Y217499D01*
X24217D01*
X23693D01*
X23168Y216974D01*
Y216449D01*
X23693Y215925D01*
X24742D01*
X25267Y216449D01*
X22118Y219073D02*
Y216974D01*
X21069Y215925D01*
X20019Y216974D01*
Y219073D01*
X121437Y173307D02*
X146437D01*
Y133307D02*
Y173307D01*
X121437Y133307D02*
X146437D01*
X121437D02*
Y173307D01*
Y133307D02*
Y173307D01*
X164760Y188567D02*
Y210567D01*
Y188567D02*
X187760D01*
X164760Y210567D02*
X187760D01*
Y188567D02*
Y210567D01*
D15*
X44713Y198209D02*
X85213D01*
Y214209D01*
X44713D02*
X85213D01*
X44713Y198209D02*
Y214209D01*
X72008Y145630D02*
Y161484D01*
X50197Y169543D02*
X62008D01*
X50197Y137953D02*
Y169543D01*
X72008Y161484D02*
Y169543D01*
X58697D02*
X72102D01*
X58858Y137953D02*
Y138043D01*
X50197Y137953D02*
X72102D01*
X72008D02*
Y145630D01*
X89567Y127638D02*
Y179213D01*
X101378D01*
Y127638D02*
Y179213D01*
X89567Y127638D02*
X101378D01*
X82270Y262219D02*
X85053Y259435D01*
X82270Y259435D02*
X85053Y262219D01*
X54570Y260827D02*
X83661Y289918D01*
Y231735D02*
X112753Y260827D01*
X54570D02*
X83661Y231735D01*
Y289918D02*
X112753Y260827D01*
X139173Y200394D02*
G03*
X139173Y200394I-1969J0D01*
G01*
X105512Y284055D02*
X118898D01*
X105512Y276969D02*
X118898D01*
X105512D02*
Y284055D01*
X118898Y276969D02*
Y284055D01*
X59153Y321161D02*
Y340256D01*
X13681Y321161D02*
Y340256D01*
Y321161D02*
X59153D01*
X13681Y340256D02*
X59153D01*
X55709Y250197D02*
Y263583D01*
X48622Y250197D02*
Y263583D01*
X55709D01*
X48622Y250197D02*
X55709D01*
X96063Y34252D02*
X99213Y31102D01*
X81890Y16929D02*
X99213Y16732D01*
X81890Y31102D02*
X85039Y34252D01*
X96063D01*
X99213Y16732D02*
Y31102D01*
X81890Y16929D02*
Y31102D01*
X78150Y64764D02*
X85236D01*
X78150Y51378D02*
X85236D01*
Y64764D01*
X78150Y51378D02*
Y64764D01*
X52362Y66536D02*
X65807D01*
X52362Y73228D02*
X65807D01*
Y66536D02*
Y73228D01*
X52362Y66536D02*
Y73228D01*
X31890Y43504D02*
X38976D01*
X31890Y56890D02*
X38976D01*
X31890Y43504D02*
Y56890D01*
X38976Y43504D02*
Y56890D01*
X21791Y81102D02*
X35236D01*
X21791Y74410D02*
X35236D01*
X21791D02*
Y81102D01*
X35236Y74410D02*
Y81102D01*
X45669Y109055D02*
X52756D01*
X45669Y95669D02*
X52756D01*
Y109055D01*
X45669Y95669D02*
Y109055D01*
X4528Y95847D02*
Y109291D01*
X11220Y95847D02*
Y109291D01*
X4528Y95847D02*
X11220D01*
X4528Y109291D02*
X11220D01*
X35236Y125394D02*
Y132480D01*
X21850Y125394D02*
Y132480D01*
Y125394D02*
X35236D01*
X21850Y132480D02*
X35236D01*
X52362Y237598D02*
Y244685D01*
X65748Y237598D02*
Y244685D01*
X52362D02*
X65748D01*
X52362Y237598D02*
X65748D01*
X113386Y274213D02*
X126772D01*
X113386Y267126D02*
X126772D01*
X113386D02*
Y274213D01*
X126772Y267126D02*
Y274213D01*
X158268Y305512D02*
Y312598D01*
X144882Y305512D02*
Y312598D01*
Y305512D02*
X158268D01*
X144882Y312598D02*
X158268D01*
X48425Y316535D02*
X61811D01*
X48425Y309449D02*
X61811D01*
X48425D02*
Y316535D01*
X61811Y309449D02*
Y316535D01*
X11024Y309449D02*
Y316535D01*
X24409Y309449D02*
Y316535D01*
X11024D02*
X24409D01*
X11024Y309449D02*
X24409D01*
X183287Y123583D02*
Y148071D01*
X155295Y123583D02*
Y148071D01*
Y123583D02*
X183287D01*
X155295Y148071D02*
X183287D01*
X109803Y24390D02*
Y52382D01*
X134291Y24390D02*
Y52382D01*
X109803Y24390D02*
X134291D01*
X109803Y52382D02*
X134291D01*
X91693Y68110D02*
X103189D01*
X91693Y50000D02*
X103189D01*
Y68110D01*
X91693Y50000D02*
Y68110D01*
X172638Y220768D02*
Y226083D01*
X179724Y220768D02*
Y226083D01*
X172638D02*
X179724D01*
X172638Y220768D02*
X179724D01*
X115945Y63878D02*
Y69980D01*
X128150Y63878D02*
Y69980D01*
X115945D02*
X128150D01*
X115945Y63878D02*
X128150D01*
X125000Y216535D02*
X140748D01*
X125000Y196850D02*
X140748D01*
X125000D02*
Y216535D01*
X140748Y196850D02*
Y216535D01*
X179331Y159449D02*
X184843D01*
X179331Y171260D02*
X184843D01*
Y159449D02*
Y171260D01*
X179331Y159449D02*
Y171260D01*
X15354Y95669D02*
X41732D01*
X15354Y110236D02*
X41732D01*
X15354Y95669D02*
Y110236D01*
X41732Y95669D02*
Y110236D01*
X148622Y60236D02*
Y65748D01*
Y60236D02*
X160433D01*
X148622Y65748D02*
X160433D01*
Y60236D02*
Y65748D01*
X82677Y307283D02*
Y312795D01*
X70866D02*
X82677D01*
X70866Y307283D02*
X82677D01*
X70866D02*
Y312795D01*
X123031Y307283D02*
Y312795D01*
X111221D02*
X123031D01*
X111221Y307283D02*
X123031D01*
X111221D02*
Y312795D01*
X137795Y307283D02*
Y312795D01*
X125984D02*
X137795D01*
X125984Y307283D02*
X137795D01*
X125984D02*
Y312795D01*
X153248Y158957D02*
Y171752D01*
X159744Y158957D02*
Y171752D01*
X153248Y158957D02*
X159744D01*
X153248Y171752D02*
X159744D01*
X169783Y237500D02*
X182579D01*
X169783Y231004D02*
X182579D01*
X169783D02*
Y237500D01*
X182579Y231004D02*
Y237500D01*
X172539Y158957D02*
Y171752D01*
X166043Y158957D02*
Y171752D01*
X172539D01*
X166043Y158957D02*
X172539D01*
X120571Y12106D02*
X133366D01*
X120571Y5610D02*
X133366D01*
X120571D02*
Y12106D01*
X133366Y5610D02*
Y12106D01*
X145177Y324114D02*
X157972D01*
X145177Y317618D02*
X157972D01*
X145177D02*
Y324114D01*
X157972Y317618D02*
Y324114D01*
X80020Y326279D02*
Y339075D01*
X73524Y326279D02*
Y339075D01*
X80020D01*
X73524Y326279D02*
X80020D01*
X120374D02*
Y339075D01*
X113878Y326279D02*
Y339075D01*
X120374D01*
X113878Y326279D02*
X120374D01*
X135138D02*
Y339075D01*
X128642Y326279D02*
Y339075D01*
X135138D01*
X128642Y326279D02*
X135138D01*
X93012Y209350D02*
X105807D01*
X93012Y215846D02*
X105807D01*
Y209350D02*
Y215846D01*
X93012Y209350D02*
Y215846D01*
Y198524D02*
X105807D01*
X93012Y205020D02*
X105807D01*
Y198524D02*
Y205020D01*
X93012Y198524D02*
Y205020D01*
X112205Y278543D02*
Y282480D01*
X110236Y280512D02*
X114173D01*
X34449Y330709D02*
X38386D01*
X36417Y328740D02*
Y332677D01*
X50197Y256890D02*
X54134D01*
X52165Y254921D02*
Y258858D01*
X90551Y23622D02*
Y27559D01*
X88583Y25591D02*
X92520D01*
X81693Y56102D02*
Y60039D01*
X79724Y58071D02*
X83661D01*
X59055Y67913D02*
Y71850D01*
X57087Y69882D02*
X61024D01*
X35433Y48228D02*
Y52165D01*
X33465Y50197D02*
X37402D01*
X28543Y75787D02*
Y79724D01*
X26575Y77756D02*
X30512D01*
X49213Y100394D02*
Y104331D01*
X47244Y102362D02*
X51181D01*
X5906Y102598D02*
X9843D01*
X7874Y100630D02*
Y104567D01*
X26575Y128937D02*
X30512D01*
X28543Y126969D02*
Y130905D01*
X57087Y241142D02*
X61024D01*
X59055Y239173D02*
Y243110D01*
X120079Y268701D02*
Y272638D01*
X118110Y270669D02*
X122047D01*
X149606Y309055D02*
X153543D01*
X151575Y307087D02*
Y311024D01*
X55118D02*
Y314961D01*
X53150Y312992D02*
X57087D01*
X15748D02*
X19685D01*
X17717Y311024D02*
Y314961D01*
X167323Y135827D02*
X171260D01*
X169291Y133858D02*
Y137795D01*
X120079Y38386D02*
X124016D01*
X122047Y36417D02*
Y40354D01*
X97441Y57087D02*
Y61024D01*
X95472Y59055D02*
X99409D01*
X174213Y223425D02*
X178150D01*
X176181Y221457D02*
Y225394D01*
X120079Y66929D02*
X124016D01*
X122047Y64961D02*
Y68898D01*
X132874Y204724D02*
Y208661D01*
X130905Y206693D02*
X134843D01*
X182087Y163386D02*
Y167323D01*
X180118Y165354D02*
X184055D01*
X28543Y100984D02*
Y104921D01*
X26575Y102953D02*
X30512D01*
X154528Y61024D02*
Y64961D01*
X152559Y62992D02*
X156496D01*
X76772Y308071D02*
Y312008D01*
X74803Y310039D02*
X78740D01*
X117126Y308071D02*
Y312008D01*
X115157Y310039D02*
X119095D01*
X131890Y308071D02*
Y312008D01*
X129921Y310039D02*
X133858D01*
X154528Y165354D02*
X158465D01*
X156496Y163386D02*
Y167323D01*
X176181Y232283D02*
Y236221D01*
X174213Y234252D02*
X178150D01*
X167323Y165354D02*
X171260D01*
X169291Y163386D02*
Y167323D01*
X126969Y6890D02*
Y10827D01*
X125000Y8858D02*
X128937D01*
X151575Y318898D02*
Y322835D01*
X149606Y320866D02*
X153543D01*
X74803Y332677D02*
X78740D01*
X76772Y330709D02*
Y334646D01*
X115157Y332677D02*
X119095D01*
X117126Y330709D02*
Y334646D01*
X129921Y332677D02*
X133858D01*
X131890Y330709D02*
Y334646D01*
X99410Y210630D02*
Y214567D01*
X97441Y212598D02*
X101378D01*
X99410Y199803D02*
Y203740D01*
X97441Y201772D02*
X101378D01*
D18*
X53959Y69881D02*
D03*
X33640Y77755D02*
D03*
D19*
X7873Y107696D02*
D03*
D20*
X157178Y135827D02*
D03*
D21*
X122047Y26272D02*
D03*
D22*
X97443Y51219D02*
D03*
D23*
X102953Y285039D02*
X121457D01*
X102953Y275984D02*
X121457D01*
X102953D02*
Y285039D01*
X121457Y275984D02*
Y285039D01*
X60138Y320177D02*
Y341240D01*
X12697Y320177D02*
Y341240D01*
Y320177D02*
X60138D01*
X12697Y341240D02*
X60138D01*
X56693Y247638D02*
Y266142D01*
X47638Y247638D02*
Y266142D01*
X56693D01*
X47638Y247638D02*
X56693D01*
X80709Y38583D02*
X100394D01*
X80709Y12598D02*
X100394D01*
Y38583D01*
X80709Y12598D02*
Y38583D01*
X77165Y67323D02*
X86221D01*
X77165Y48819D02*
X86221D01*
Y67323D01*
X77165Y48819D02*
Y67323D01*
X49370Y65551D02*
Y74213D01*
Y65551D02*
X68740D01*
X49370Y74213D02*
X68740D01*
Y65551D02*
Y74213D01*
X30906Y40945D02*
X39961D01*
X30906Y59449D02*
X39961D01*
X30906Y40945D02*
Y59449D01*
X39961Y40945D02*
Y59449D01*
X38228Y73425D02*
Y82087D01*
X18858D02*
X38228D01*
X18858Y73425D02*
X38228D01*
X18858D02*
Y82087D01*
X44685Y111614D02*
X53740D01*
X44685Y93110D02*
X53740D01*
Y111614D01*
X44685Y93110D02*
Y111614D01*
X3543Y112284D02*
X12205D01*
X3543Y92913D02*
Y112284D01*
X12205Y92913D02*
Y112284D01*
X3543Y92913D02*
X12205D01*
X37795Y124409D02*
Y133465D01*
X19291Y124409D02*
Y133465D01*
Y124409D02*
X37795D01*
X19291Y133465D02*
X37795D01*
X49803Y236614D02*
Y245669D01*
X68307Y236614D02*
Y245669D01*
X49803D02*
X68307D01*
X49803Y236614D02*
X68307D01*
X110827Y275197D02*
X129331D01*
X110827Y266142D02*
X129331D01*
X110827D02*
Y275197D01*
X129331Y266142D02*
Y275197D01*
X160827Y304528D02*
Y313583D01*
X142323Y304528D02*
Y313583D01*
Y304528D02*
X160827D01*
X142323Y313583D02*
X160827D01*
X45866Y317520D02*
X64370D01*
X45866Y308465D02*
X64370D01*
X45866D02*
Y317520D01*
X64370Y308465D02*
Y317520D01*
X8465Y308465D02*
Y317520D01*
X26969Y308465D02*
Y317520D01*
X8465D02*
X26969D01*
X8465Y308465D02*
X26969D01*
X187008Y122441D02*
Y149213D01*
X151575Y122441D02*
Y149213D01*
Y122441D02*
X187008D01*
X151575Y149213D02*
X187008D01*
X108661Y20669D02*
Y56102D01*
X135433Y20669D02*
Y56102D01*
X108661Y20669D02*
X135433D01*
X108661Y56102D02*
X135433D01*
X90551Y73055D02*
X104331D01*
X90551Y45055D02*
X104331D01*
Y73055D01*
X90551Y45055D02*
Y73055D01*
X169488Y220079D02*
Y226772D01*
X182874Y220079D02*
Y226772D01*
X169488D02*
X182874D01*
X169488Y220079D02*
X182874D01*
X112008Y62894D02*
Y70965D01*
X132087Y62894D02*
Y70965D01*
X112008D02*
X132087D01*
X112008Y62894D02*
X132087D01*
X118307Y217520D02*
X147441D01*
X118307Y195866D02*
X147441D01*
X118307D02*
Y217520D01*
X147441Y195866D02*
Y217520D01*
X175787Y158465D02*
X188386D01*
X175787Y172244D02*
X188386D01*
Y158465D02*
Y172244D01*
X175787Y158465D02*
Y172244D01*
X14370Y86221D02*
X42717D01*
X14370Y119685D02*
X42717D01*
X14370Y86221D02*
Y119685D01*
X42717Y86221D02*
Y119685D01*
X147638Y69685D02*
X161417D01*
X147638Y56299D02*
X161417D01*
Y69685D01*
X147638Y56299D02*
Y69685D01*
X69882Y303346D02*
X83661D01*
X69882Y316732D02*
X83661D01*
X69882Y303346D02*
Y316732D01*
X83661Y303346D02*
Y316732D01*
X110236Y303346D02*
X124016D01*
X110236Y316732D02*
X124016D01*
X110236Y303346D02*
Y316732D01*
X124016Y303346D02*
Y316732D01*
X125000Y303346D02*
X138779D01*
X125000Y316732D02*
X138779D01*
X125000Y303346D02*
Y316732D01*
X138779Y303346D02*
Y316732D01*
X152165Y156496D02*
Y174213D01*
X160827Y156496D02*
Y174213D01*
X152165Y156496D02*
X160827D01*
X152165Y174213D02*
X160827D01*
X167323Y238583D02*
X185039D01*
X167323Y229921D02*
X185039D01*
X167323D02*
Y238583D01*
X185039Y229921D02*
Y238583D01*
X173622Y156496D02*
Y174213D01*
X164961Y156496D02*
Y174213D01*
X173622D01*
X164961Y156496D02*
X173622D01*
X118110Y13189D02*
X135827D01*
X118110Y4528D02*
X135827D01*
X118110D02*
Y13189D01*
X135827Y4528D02*
Y13189D01*
X142717Y325197D02*
X160433D01*
X142717Y316535D02*
X160433D01*
X142717D02*
Y325197D01*
X160433Y316535D02*
Y325197D01*
X81102Y323819D02*
Y341535D01*
X72441Y323819D02*
Y341535D01*
X81102D01*
X72441Y323819D02*
X81102D01*
X121457D02*
Y341535D01*
X112795Y323819D02*
Y341535D01*
X121457D01*
X112795Y323819D02*
X121457D01*
X136221D02*
Y341535D01*
X127559Y323819D02*
Y341535D01*
X136221D01*
X127559Y323819D02*
X136221D01*
X90551Y208268D02*
X108268D01*
X90551Y216929D02*
X108268D01*
Y208268D02*
Y216929D01*
X90551Y208268D02*
Y216929D01*
Y197441D02*
X108268D01*
X90551Y206102D02*
X108268D01*
Y197441D02*
Y206102D01*
X90551Y197441D02*
Y206102D01*
D98*
X92827Y185138D02*
G03*
X92827Y185138I-500J0D01*
G01*
X155318Y222527D02*
X147446D01*
Y218591D01*
X148758Y217280D01*
X151382D01*
X152694Y218591D01*
Y222527D01*
Y219903D02*
X155318Y217280D01*
X147446Y209408D02*
Y214656D01*
X151382D01*
Y212032D01*
Y214656D01*
X155318D01*
X147446Y206784D02*
Y204160D01*
Y205472D01*
X155318D01*
Y206784D01*
Y204160D01*
X147446Y200225D02*
X155318D01*
Y196289D01*
X154006Y194977D01*
X148758D01*
X147446Y196289D01*
Y200225D01*
X151382Y192353D02*
Y187106D01*
X155318Y184482D02*
X147446D01*
Y180546D01*
X148758Y179234D01*
X151382D01*
X152694Y180546D01*
Y184482D01*
Y181858D02*
X155318Y179234D01*
X148758Y171362D02*
X147446Y172674D01*
Y175298D01*
X148758Y176610D01*
X154006D01*
X155318Y175298D01*
Y172674D01*
X154006Y171362D01*
X147446Y163491D02*
Y168739D01*
X151382D01*
X150070Y166115D01*
Y164803D01*
X151382Y163491D01*
X154006D01*
X155318Y164803D01*
Y167427D01*
X154006Y168739D01*
X155318Y155620D02*
Y160867D01*
X150070Y155620D01*
X148758D01*
X147446Y156931D01*
Y159555D01*
X148758Y160867D01*
X155318Y147748D02*
Y152996D01*
X150070Y147748D01*
X148758D01*
X147446Y149060D01*
Y151684D01*
X148758Y152996D01*
M02*
