G04*
G04 #@! TF.GenerationSoftware,Altium Limited,Altium Designer,21.3.2 (30)*
G04*
G04 Layer_Color=2752767*
%FSLAX25Y25*%
%MOIN*%
G70*
G04*
G04 #@! TF.SameCoordinates,3F51CCC3-8A4B-4D73-A1D2-239D5F55BC23*
G04*
G04*
G04 #@! TF.FilePolarity,Positive*
G04*
G01*
G75*
%ADD10C,0.01000*%
%ADD12C,0.00787*%
%ADD15C,0.00394*%
%ADD18R,0.03307X0.06692*%
%ADD19R,0.06692X0.03307*%
%ADD20R,0.03765X0.24488*%
%ADD21R,0.24488X0.03765*%
%ADD22R,0.11496X0.02436*%
%ADD23C,0.00197*%
%ADD99C,0.00200*%
%ADD100C,0.01500*%
%ADD101C,0.01600*%
D10*
X191282Y25589D02*
G03*
X191282Y25492I-24648J-97D01*
G01*
X123937Y135307D02*
G03*
X123937Y135307I-500J0D01*
G01*
X187593Y204036D02*
G03*
X187458Y195049I166J-4497D01*
G01*
X11427Y523308D02*
G03*
X11427Y523308I-3333J0D01*
G01*
X6427Y551641D02*
X8094Y549974D01*
X4761Y551641D02*
X6427D01*
X4761D02*
X6427Y553308D01*
X4761Y554974D02*
X6427Y553308D01*
X4761Y554974D02*
X6427D01*
X8094Y556641D01*
X9761Y554974D01*
X11427D01*
X9761Y553308D02*
X11427Y554974D01*
X9761Y553308D02*
X11427Y551641D01*
X9761D02*
X11427D01*
X8094Y549974D02*
X9761Y551641D01*
X4761Y534974D02*
X8094Y536641D01*
X11427Y534974D01*
X9761Y538308D02*
X11427Y534974D01*
X9761Y538308D02*
X11427Y541641D01*
X8094Y539974D02*
X11427Y541641D01*
X4761D02*
X8094Y539974D01*
X4761Y541641D02*
X6427Y538308D01*
X4761Y534974D02*
X6427Y538308D01*
X4761Y504974D02*
X11427D01*
Y511641D01*
X4761D02*
X11427D01*
X4761Y504974D02*
Y511641D01*
X8094Y489974D02*
X11427Y496641D01*
X4761D02*
X11427D01*
X4761D02*
X8094Y489974D01*
X4761Y474974D02*
Y476641D01*
X6427Y478308D01*
X4761Y479974D02*
X6427Y478308D01*
X4761Y479974D02*
Y481641D01*
X6427D01*
X8094Y479974D01*
X9761Y481641D01*
X11427D01*
Y479974D02*
Y481641D01*
X9761Y478308D02*
X11427Y479974D01*
X9761Y478308D02*
X11427Y476641D01*
Y474974D02*
Y476641D01*
X9761Y474974D02*
X11427D01*
X8094Y476641D02*
X9761Y474974D01*
X6427D02*
X8094Y476641D01*
X4761Y474974D02*
X6427D01*
X639807Y553973D02*
Y549974D01*
Y551974D01*
X640807Y552973D01*
X641807Y553973D01*
X642806D01*
X645806Y550974D02*
X646805Y549974D01*
X648805D01*
X649804Y550974D01*
Y554973D01*
X648805Y555972D01*
X646805D01*
X645806Y554973D01*
Y553973D01*
X646805Y552973D01*
X649804D01*
X651803Y554973D02*
X652803Y555972D01*
X654803D01*
X655802Y554973D01*
Y550974D01*
X654803Y549974D01*
X652803D01*
X651803Y550974D01*
Y554973D01*
X657802Y548975D02*
X661800D01*
X663800Y549974D02*
X665799D01*
X664799D01*
Y555972D01*
X663800Y554973D01*
X672797Y555972D02*
X668798D01*
Y552973D01*
X670797Y553973D01*
X671797D01*
X672797Y552973D01*
Y550974D01*
X671797Y549974D01*
X669798D01*
X668798Y550974D01*
X674796Y554973D02*
X675796Y555972D01*
X677795D01*
X678795Y554973D01*
Y550974D01*
X677795Y549974D01*
X675796D01*
X674796Y550974D01*
Y554973D01*
X680794Y555972D02*
Y549974D01*
Y552973D01*
X681794Y553973D01*
X683793D01*
X684793Y552973D01*
Y549974D01*
X686792Y555972D02*
X690791D01*
Y554973D01*
X686792Y550974D01*
Y549974D01*
X696789Y555972D02*
X692790D01*
Y552973D01*
X694790Y553973D01*
X695789D01*
X696789Y552973D01*
Y550974D01*
X695789Y549974D01*
X693790D01*
X692790Y550974D01*
X698788Y553973D02*
Y549974D01*
Y551974D01*
X699788Y552973D01*
X700788Y553973D01*
X701787D01*
X704786Y549974D02*
X706786D01*
X705786D01*
Y555972D01*
X704786Y554973D01*
X709785D02*
X710784Y555972D01*
X712784D01*
X713784Y554973D01*
Y550974D01*
X712784Y549974D01*
X710784D01*
X709785Y550974D01*
Y554973D01*
X715783D02*
X716783Y555972D01*
X718782D01*
X719781Y554973D01*
Y550974D01*
X718782Y549974D01*
X716783D01*
X715783Y550974D01*
Y554973D01*
X639807Y538973D02*
X641807Y534974D01*
X643806Y538973D01*
X649804Y534974D02*
X645806D01*
X649804Y538973D01*
Y539973D01*
X648805Y540973D01*
X646805D01*
X645806Y539973D01*
X651803Y540973D02*
X655802D01*
Y539973D01*
X651803Y535974D01*
Y534974D01*
X661800Y540973D02*
X657802D01*
Y537973D01*
X659801Y538973D01*
X660801D01*
X661800Y537973D01*
Y535974D01*
X660801Y534974D01*
X658801D01*
X657802Y535974D01*
X663800Y540973D02*
Y534974D01*
Y537973D01*
X664799Y538973D01*
X666799D01*
X667798Y537973D01*
Y534974D01*
X673796D02*
X669798D01*
X673796Y538973D01*
Y539973D01*
X672797Y540973D01*
X670797D01*
X669798Y539973D01*
X675796Y540973D02*
X679795D01*
Y539973D01*
X675796Y535974D01*
Y534974D01*
X685792Y540973D02*
X681794D01*
Y537973D01*
X683793Y538973D01*
X684793D01*
X685792Y537973D01*
Y535974D01*
X684793Y534974D01*
X682794D01*
X681794Y535974D01*
X641807Y519974D02*
X639807Y521974D01*
Y523973D01*
X641807Y525973D01*
X644806Y519974D02*
Y525973D01*
X646805Y523973D01*
X648805Y525973D01*
Y519974D01*
X650804D02*
X652803D01*
X651803D01*
Y523973D01*
X650804D01*
X655802D02*
X659801Y519974D01*
X657802Y521974D01*
X659801Y523973D01*
X655802Y519974D01*
X664799D02*
X662800D01*
X661800Y520974D01*
Y522973D01*
X662800Y523973D01*
X664799D01*
X665799Y522973D01*
Y521974D01*
X661800D01*
X671797Y525973D02*
Y519974D01*
X668798D01*
X667798Y520974D01*
Y522973D01*
X668798Y523973D01*
X671797D01*
X673796Y519974D02*
X675796Y521974D01*
Y523973D01*
X673796Y525973D01*
X641807Y504974D02*
X639807Y506974D01*
Y508973D01*
X641807Y510972D01*
X644806Y504974D02*
Y510972D01*
X646805Y508973D01*
X648805Y510972D01*
Y504974D01*
X650804D02*
X652803D01*
X651803D01*
Y508973D01*
X650804D01*
X655802D02*
X659801Y504974D01*
X657802Y506974D01*
X659801Y508973D01*
X655802Y504974D01*
X664799D02*
X662800D01*
X661800Y505974D01*
Y507973D01*
X662800Y508973D01*
X664799D01*
X665799Y507973D01*
Y506974D01*
X661800D01*
X671797Y510972D02*
Y504974D01*
X668798D01*
X667798Y505974D01*
Y507973D01*
X668798Y508973D01*
X671797D01*
X673796Y504974D02*
X675796Y506974D01*
Y508973D01*
X673796Y510972D01*
X641807Y489974D02*
X639807Y491974D01*
Y493973D01*
X641807Y495972D01*
X644806Y489974D02*
Y495972D01*
X646805Y493973D01*
X648805Y495972D01*
Y489974D01*
X650804D02*
X652803D01*
X651803D01*
Y493973D01*
X650804D01*
X655802D02*
X659801Y489974D01*
X657802Y491974D01*
X659801Y493973D01*
X655802Y489974D01*
X664799D02*
X662800D01*
X661800Y490974D01*
Y492973D01*
X662800Y493973D01*
X664799D01*
X665799Y492973D01*
Y491974D01*
X661800D01*
X671797Y495972D02*
Y489974D01*
X668798D01*
X667798Y490974D01*
Y492973D01*
X668798Y493973D01*
X671797D01*
X673796Y489974D02*
X675796Y491974D01*
Y493973D01*
X673796Y495972D01*
X641807Y474974D02*
X639807Y476974D01*
Y478973D01*
X641807Y480972D01*
X644806Y474974D02*
Y480972D01*
X646805Y478973D01*
X648805Y480972D01*
Y474974D01*
X650804D02*
X652803D01*
X651803D01*
Y478973D01*
X650804D01*
X655802D02*
X659801Y474974D01*
X657802Y476974D01*
X659801Y478973D01*
X655802Y474974D01*
X664799D02*
X662800D01*
X661800Y475974D01*
Y477973D01*
X662800Y478973D01*
X664799D01*
X665799Y477973D01*
Y476974D01*
X661800D01*
X671797Y480972D02*
Y474974D01*
X668798D01*
X667798Y475974D01*
Y477973D01*
X668798Y478973D01*
X671797D01*
X673796Y474974D02*
X675796Y476974D01*
Y478973D01*
X673796Y480972D01*
X565228Y549974D02*
Y555972D01*
X568227D01*
X569226Y554973D01*
Y552973D01*
X568227Y551974D01*
X565228D01*
X567227D02*
X569226Y549974D01*
X572225D02*
X574225D01*
X575224Y550974D01*
Y552973D01*
X574225Y553973D01*
X572225D01*
X571226Y552973D01*
Y550974D01*
X572225Y549974D01*
X577224Y553973D02*
Y550974D01*
X578223Y549974D01*
X581222D01*
Y553973D01*
X583222Y549974D02*
Y553973D01*
X586221D01*
X587220Y552973D01*
Y549974D01*
X593219Y555972D02*
Y549974D01*
X590219D01*
X589220Y550974D01*
Y552973D01*
X590219Y553973D01*
X593219D01*
X598217Y549974D02*
X596218D01*
X595218Y550974D01*
Y552973D01*
X596218Y553973D01*
X598217D01*
X599217Y552973D01*
Y551974D01*
X595218D01*
X605215Y555972D02*
Y549974D01*
X602216D01*
X601216Y550974D01*
Y552973D01*
X602216Y553973D01*
X605215D01*
X565228Y534974D02*
Y540973D01*
X568227D01*
X569226Y539973D01*
Y537973D01*
X568227Y536974D01*
X565228D01*
X567227D02*
X569226Y534974D01*
X572225D02*
X574225D01*
X575224Y535974D01*
Y537973D01*
X574225Y538973D01*
X572225D01*
X571226Y537973D01*
Y535974D01*
X572225Y534974D01*
X577224Y538973D02*
Y535974D01*
X578223Y534974D01*
X581222D01*
Y538973D01*
X583222Y534974D02*
Y538973D01*
X586221D01*
X587220Y537973D01*
Y534974D01*
X593219Y540973D02*
Y534974D01*
X590219D01*
X589220Y535974D01*
Y537973D01*
X590219Y538973D01*
X593219D01*
X598217Y534974D02*
X596218D01*
X595218Y535974D01*
Y537973D01*
X596218Y538973D01*
X598217D01*
X599217Y537973D01*
Y536974D01*
X595218D01*
X605215Y540973D02*
Y534974D01*
X602216D01*
X601216Y535974D01*
Y537973D01*
X602216Y538973D01*
X605215D01*
X567227Y519974D02*
X565228Y521974D01*
Y523973D01*
X567227Y525973D01*
X570226Y519974D02*
Y525973D01*
X572225Y523973D01*
X574225Y525973D01*
Y519974D01*
X576224D02*
X578223D01*
X577224D01*
Y523973D01*
X576224D01*
X581222D02*
X585221Y519974D01*
X583222Y521974D01*
X585221Y523973D01*
X581222Y519974D01*
X590219D02*
X588220D01*
X587220Y520974D01*
Y522973D01*
X588220Y523973D01*
X590219D01*
X591219Y522973D01*
Y521974D01*
X587220D01*
X597217Y525973D02*
Y519974D01*
X594218D01*
X593219Y520974D01*
Y522973D01*
X594218Y523973D01*
X597217D01*
X599217Y519974D02*
X601216Y521974D01*
Y523973D01*
X599217Y525973D01*
X567227Y504974D02*
X565228Y506974D01*
Y508973D01*
X567227Y510972D01*
X570226Y504974D02*
Y510972D01*
X572225Y508973D01*
X574225Y510972D01*
Y504974D01*
X576224D02*
X578223D01*
X577224D01*
Y508973D01*
X576224D01*
X581222D02*
X585221Y504974D01*
X583222Y506974D01*
X585221Y508973D01*
X581222Y504974D01*
X590219D02*
X588220D01*
X587220Y505974D01*
Y507973D01*
X588220Y508973D01*
X590219D01*
X591219Y507973D01*
Y506974D01*
X587220D01*
X597217Y510972D02*
Y504974D01*
X594218D01*
X593219Y505974D01*
Y507973D01*
X594218Y508973D01*
X597217D01*
X599217Y504974D02*
X601216Y506974D01*
Y508973D01*
X599217Y510972D01*
X567227Y489974D02*
X565228Y491974D01*
Y493973D01*
X567227Y495972D01*
X570226Y489974D02*
Y495972D01*
X572225Y493973D01*
X574225Y495972D01*
Y489974D01*
X576224D02*
X578223D01*
X577224D01*
Y493973D01*
X576224D01*
X581222D02*
X585221Y489974D01*
X583222Y491974D01*
X585221Y493973D01*
X581222Y489974D01*
X590219D02*
X588220D01*
X587220Y490974D01*
Y492973D01*
X588220Y493973D01*
X590219D01*
X591219Y492973D01*
Y491974D01*
X587220D01*
X597217Y495972D02*
Y489974D01*
X594218D01*
X593219Y490974D01*
Y492973D01*
X594218Y493973D01*
X597217D01*
X599217Y489974D02*
X601216Y491974D01*
Y493973D01*
X599217Y495972D01*
X565228Y474974D02*
Y480972D01*
X568227D01*
X569226Y479973D01*
Y477973D01*
X568227Y476974D01*
X565228D01*
X567227D02*
X569226Y474974D01*
X572225D02*
X574225D01*
X575224Y475974D01*
Y477973D01*
X574225Y478973D01*
X572225D01*
X571226Y477973D01*
Y475974D01*
X572225Y474974D01*
X577224Y478973D02*
Y475974D01*
X578223Y474974D01*
X581222D01*
Y478973D01*
X583222Y474974D02*
Y478973D01*
X586221D01*
X587220Y477973D01*
Y474974D01*
X593219Y480972D02*
Y474974D01*
X590219D01*
X589220Y475974D01*
Y477973D01*
X590219Y478973D01*
X593219D01*
X598217Y474974D02*
X596218D01*
X595218Y475974D01*
Y477973D01*
X596218Y478973D01*
X598217D01*
X599217Y477973D01*
Y476974D01*
X595218D01*
X605215Y480972D02*
Y474974D01*
X602216D01*
X601216Y475974D01*
Y477973D01*
X602216Y478973D01*
X605215D01*
X506243Y549974D02*
Y555972D01*
X509242D01*
X510241Y554973D01*
Y552973D01*
X509242Y551974D01*
X506243D01*
X513240Y553973D02*
X515240D01*
X516240Y552973D01*
Y549974D01*
X513240D01*
X512241Y550974D01*
X513240Y551974D01*
X516240D01*
X522238Y555972D02*
Y549974D01*
X519239D01*
X518239Y550974D01*
Y552973D01*
X519239Y553973D01*
X522238D01*
X506243Y540973D02*
Y536974D01*
X508242Y534974D01*
X510241Y536974D01*
Y540973D01*
X512241Y534974D02*
X514240D01*
X513240D01*
Y538973D01*
X512241D01*
X518239D02*
X520238D01*
X521238Y537973D01*
Y534974D01*
X518239D01*
X517239Y535974D01*
X518239Y536974D01*
X521238D01*
X506243Y519974D02*
Y525973D01*
X509242D01*
X510241Y524973D01*
Y522973D01*
X509242Y521974D01*
X506243D01*
X513240Y523973D02*
X515240D01*
X516240Y522973D01*
Y519974D01*
X513240D01*
X512241Y520974D01*
X513240Y521974D01*
X516240D01*
X522238Y525973D02*
Y519974D01*
X519239D01*
X518239Y520974D01*
Y522973D01*
X519239Y523973D01*
X522238D01*
X506243Y504974D02*
Y510972D01*
X509242D01*
X510241Y509973D01*
Y507973D01*
X509242Y506974D01*
X506243D01*
X513240Y508973D02*
X515240D01*
X516240Y507973D01*
Y504974D01*
X513240D01*
X512241Y505974D01*
X513240Y506974D01*
X516240D01*
X522238Y510972D02*
Y504974D01*
X519239D01*
X518239Y505974D01*
Y507973D01*
X519239Y508973D01*
X522238D01*
X506243Y489974D02*
Y495972D01*
X509242D01*
X510241Y494973D01*
Y492973D01*
X509242Y491974D01*
X506243D01*
X513240Y493973D02*
X515240D01*
X516240Y492973D01*
Y489974D01*
X513240D01*
X512241Y490974D01*
X513240Y491974D01*
X516240D01*
X522238Y495972D02*
Y489974D01*
X519239D01*
X518239Y490974D01*
Y492973D01*
X519239Y493973D01*
X522238D01*
X506243Y480972D02*
Y476974D01*
X508242Y474974D01*
X510241Y476974D01*
Y480972D01*
X512241Y474974D02*
X514240D01*
X513240D01*
Y478973D01*
X512241D01*
X518239D02*
X520238D01*
X521238Y477973D01*
Y474974D01*
X518239D01*
X517239Y475974D01*
X518239Y476974D01*
X521238D01*
X356288Y555972D02*
X360286D01*
X358287D01*
Y549974D01*
X363285D02*
X365285D01*
X366284Y550974D01*
Y552973D01*
X365285Y553973D01*
X363285D01*
X362286Y552973D01*
Y550974D01*
X363285Y549974D01*
X368284Y547975D02*
Y553973D01*
X371283D01*
X372283Y552973D01*
Y550974D01*
X371283Y549974D01*
X368284D01*
X380280Y555972D02*
Y549974D01*
X384279D01*
X387278Y553973D02*
X389277D01*
X390277Y552973D01*
Y549974D01*
X387278D01*
X386278Y550974D01*
X387278Y551974D01*
X390277D01*
X392276Y553973D02*
Y550974D01*
X393276Y549974D01*
X396275D01*
Y548975D01*
X395275Y547975D01*
X394275D01*
X396275Y549974D02*
Y553973D01*
X401273Y549974D02*
X399274D01*
X398274Y550974D01*
Y552973D01*
X399274Y553973D01*
X401273D01*
X402273Y552973D01*
Y551974D01*
X398274D01*
X404272Y553973D02*
Y549974D01*
Y551974D01*
X405272Y552973D01*
X406272Y553973D01*
X407271D01*
X416268Y552973D02*
X420267D01*
X428264Y555972D02*
Y549974D01*
X431263D01*
X432263Y550974D01*
Y551974D01*
X431263Y552973D01*
X428264D01*
X431263D01*
X432263Y553973D01*
Y554973D01*
X431263Y555972D01*
X428264D01*
X435262Y549974D02*
X437261D01*
X438261Y550974D01*
Y552973D01*
X437261Y553973D01*
X435262D01*
X434262Y552973D01*
Y550974D01*
X435262Y549974D01*
X441260Y554973D02*
Y553973D01*
X440261D01*
X442260D01*
X441260D01*
Y550974D01*
X442260Y549974D01*
X446259Y554973D02*
Y553973D01*
X445259D01*
X447258D01*
X446259D01*
Y550974D01*
X447258Y549974D01*
X451257D02*
X453256D01*
X454256Y550974D01*
Y552973D01*
X453256Y553973D01*
X451257D01*
X450257Y552973D01*
Y550974D01*
X451257Y549974D01*
X456255D02*
Y553973D01*
X457255D01*
X458255Y552973D01*
Y549974D01*
Y552973D01*
X459254Y553973D01*
X460254Y552973D01*
Y549974D01*
X468252Y555972D02*
Y549974D01*
X472250D01*
X475249Y553973D02*
X477248D01*
X478248Y552973D01*
Y549974D01*
X475249D01*
X474250Y550974D01*
X475249Y551974D01*
X478248D01*
X480248Y553973D02*
Y550974D01*
X481247Y549974D01*
X484246D01*
Y548975D01*
X483247Y547975D01*
X482247D01*
X484246Y549974D02*
Y553973D01*
X489245Y549974D02*
X487245D01*
X486246Y550974D01*
Y552973D01*
X487245Y553973D01*
X489245D01*
X490244Y552973D01*
Y551974D01*
X486246D01*
X492244Y553973D02*
Y549974D01*
Y551974D01*
X493243Y552973D01*
X494243Y553973D01*
X495243D01*
X356288Y540973D02*
X360286D01*
X358287D01*
Y534974D01*
X363285D02*
X365285D01*
X366284Y535974D01*
Y537973D01*
X365285Y538973D01*
X363285D01*
X362286Y537973D01*
Y535974D01*
X363285Y534974D01*
X368284Y532975D02*
Y538973D01*
X371283D01*
X372283Y537973D01*
Y535974D01*
X371283Y534974D01*
X368284D01*
X380280Y540973D02*
Y534974D01*
X384279D01*
X387278Y538973D02*
X389277D01*
X390277Y537973D01*
Y534974D01*
X387278D01*
X386278Y535974D01*
X387278Y536974D01*
X390277D01*
X392276Y538973D02*
Y535974D01*
X393276Y534974D01*
X396275D01*
Y533975D01*
X395275Y532975D01*
X394275D01*
X396275Y534974D02*
Y538973D01*
X401273Y534974D02*
X399274D01*
X398274Y535974D01*
Y537973D01*
X399274Y538973D01*
X401273D01*
X402273Y537973D01*
Y536974D01*
X398274D01*
X404272Y538973D02*
Y534974D01*
Y536974D01*
X405272Y537973D01*
X406272Y538973D01*
X407271D01*
X416268Y537973D02*
X420267D01*
X428264Y540973D02*
Y534974D01*
X431263D01*
X432263Y535974D01*
Y536974D01*
X431263Y537973D01*
X428264D01*
X431263D01*
X432263Y538973D01*
Y539973D01*
X431263Y540973D01*
X428264D01*
X435262Y534974D02*
X437261D01*
X438261Y535974D01*
Y537973D01*
X437261Y538973D01*
X435262D01*
X434262Y537973D01*
Y535974D01*
X435262Y534974D01*
X441260Y539973D02*
Y538973D01*
X440261D01*
X442260D01*
X441260D01*
Y535974D01*
X442260Y534974D01*
X446259Y539973D02*
Y538973D01*
X445259D01*
X447258D01*
X446259D01*
Y535974D01*
X447258Y534974D01*
X451257D02*
X453256D01*
X454256Y535974D01*
Y537973D01*
X453256Y538973D01*
X451257D01*
X450257Y537973D01*
Y535974D01*
X451257Y534974D01*
X456255D02*
Y538973D01*
X457255D01*
X458255Y537973D01*
Y534974D01*
Y537973D01*
X459254Y538973D01*
X460254Y537973D01*
Y534974D01*
X468252Y540973D02*
Y534974D01*
X472250D01*
X475249Y538973D02*
X477248D01*
X478248Y537973D01*
Y534974D01*
X475249D01*
X474250Y535974D01*
X475249Y536974D01*
X478248D01*
X480248Y538973D02*
Y535974D01*
X481247Y534974D01*
X484246D01*
Y533975D01*
X483247Y532975D01*
X482247D01*
X484246Y534974D02*
Y538973D01*
X489245Y534974D02*
X487245D01*
X486246Y535974D01*
Y537973D01*
X487245Y538973D01*
X489245D01*
X490244Y537973D01*
Y536974D01*
X486246D01*
X492244Y538973D02*
Y534974D01*
Y536974D01*
X493243Y537973D01*
X494243Y538973D01*
X495243D01*
X356288Y525973D02*
X360286D01*
X358287D01*
Y519974D01*
X363285D02*
X365285D01*
X366284Y520974D01*
Y522973D01*
X365285Y523973D01*
X363285D01*
X362286Y522973D01*
Y520974D01*
X363285Y519974D01*
X368284Y517975D02*
Y523973D01*
X371283D01*
X372283Y522973D01*
Y520974D01*
X371283Y519974D01*
X368284D01*
X380280Y525973D02*
Y519974D01*
X384279D01*
X387278Y523973D02*
X389277D01*
X390277Y522973D01*
Y519974D01*
X387278D01*
X386278Y520974D01*
X387278Y521974D01*
X390277D01*
X392276Y523973D02*
Y520974D01*
X393276Y519974D01*
X396275D01*
Y518975D01*
X395275Y517975D01*
X394275D01*
X396275Y519974D02*
Y523973D01*
X401273Y519974D02*
X399274D01*
X398274Y520974D01*
Y522973D01*
X399274Y523973D01*
X401273D01*
X402273Y522973D01*
Y521974D01*
X398274D01*
X404272Y523973D02*
Y519974D01*
Y521974D01*
X405272Y522973D01*
X406272Y523973D01*
X407271D01*
X416268Y522973D02*
X420267D01*
X428264Y525973D02*
Y519974D01*
X431263D01*
X432263Y520974D01*
Y521974D01*
X431263Y522973D01*
X428264D01*
X431263D01*
X432263Y523973D01*
Y524973D01*
X431263Y525973D01*
X428264D01*
X435262Y519974D02*
X437261D01*
X438261Y520974D01*
Y522973D01*
X437261Y523973D01*
X435262D01*
X434262Y522973D01*
Y520974D01*
X435262Y519974D01*
X441260Y524973D02*
Y523973D01*
X440261D01*
X442260D01*
X441260D01*
Y520974D01*
X442260Y519974D01*
X446259Y524973D02*
Y523973D01*
X445259D01*
X447258D01*
X446259D01*
Y520974D01*
X447258Y519974D01*
X451257D02*
X453256D01*
X454256Y520974D01*
Y522973D01*
X453256Y523973D01*
X451257D01*
X450257Y522973D01*
Y520974D01*
X451257Y519974D01*
X456255D02*
Y523973D01*
X457255D01*
X458255Y522973D01*
Y519974D01*
Y522973D01*
X459254Y523973D01*
X460254Y522973D01*
Y519974D01*
X468252Y525973D02*
Y519974D01*
X472250D01*
X475249Y523973D02*
X477248D01*
X478248Y522973D01*
Y519974D01*
X475249D01*
X474250Y520974D01*
X475249Y521974D01*
X478248D01*
X480248Y523973D02*
Y520974D01*
X481247Y519974D01*
X484246D01*
Y518975D01*
X483247Y517975D01*
X482247D01*
X484246Y519974D02*
Y523973D01*
X489245Y519974D02*
X487245D01*
X486246Y520974D01*
Y522973D01*
X487245Y523973D01*
X489245D01*
X490244Y522973D01*
Y521974D01*
X486246D01*
X492244Y523973D02*
Y519974D01*
Y521974D01*
X493243Y522973D01*
X494243Y523973D01*
X495243D01*
X356288Y510972D02*
X360286D01*
X358287D01*
Y504974D01*
X363285D02*
X365285D01*
X366284Y505974D01*
Y507973D01*
X365285Y508973D01*
X363285D01*
X362286Y507973D01*
Y505974D01*
X363285Y504974D01*
X368284Y502975D02*
Y508973D01*
X371283D01*
X372283Y507973D01*
Y505974D01*
X371283Y504974D01*
X368284D01*
X380280Y510972D02*
Y504974D01*
X384279D01*
X387278Y508973D02*
X389277D01*
X390277Y507973D01*
Y504974D01*
X387278D01*
X386278Y505974D01*
X387278Y506974D01*
X390277D01*
X392276Y508973D02*
Y505974D01*
X393276Y504974D01*
X396275D01*
Y503975D01*
X395275Y502975D01*
X394275D01*
X396275Y504974D02*
Y508973D01*
X401273Y504974D02*
X399274D01*
X398274Y505974D01*
Y507973D01*
X399274Y508973D01*
X401273D01*
X402273Y507973D01*
Y506974D01*
X398274D01*
X404272Y508973D02*
Y504974D01*
Y506974D01*
X405272Y507973D01*
X406272Y508973D01*
X407271D01*
X416268Y507973D02*
X420267D01*
X428264Y510972D02*
Y504974D01*
X431263D01*
X432263Y505974D01*
Y506974D01*
X431263Y507973D01*
X428264D01*
X431263D01*
X432263Y508973D01*
Y509973D01*
X431263Y510972D01*
X428264D01*
X435262Y504974D02*
X437261D01*
X438261Y505974D01*
Y507973D01*
X437261Y508973D01*
X435262D01*
X434262Y507973D01*
Y505974D01*
X435262Y504974D01*
X441260Y509973D02*
Y508973D01*
X440261D01*
X442260D01*
X441260D01*
Y505974D01*
X442260Y504974D01*
X446259Y509973D02*
Y508973D01*
X445259D01*
X447258D01*
X446259D01*
Y505974D01*
X447258Y504974D01*
X451257D02*
X453256D01*
X454256Y505974D01*
Y507973D01*
X453256Y508973D01*
X451257D01*
X450257Y507973D01*
Y505974D01*
X451257Y504974D01*
X456255D02*
Y508973D01*
X457255D01*
X458255Y507973D01*
Y504974D01*
Y507973D01*
X459254Y508973D01*
X460254Y507973D01*
Y504974D01*
X468252Y510972D02*
Y504974D01*
X472250D01*
X475249Y508973D02*
X477248D01*
X478248Y507973D01*
Y504974D01*
X475249D01*
X474250Y505974D01*
X475249Y506974D01*
X478248D01*
X480248Y508973D02*
Y505974D01*
X481247Y504974D01*
X484246D01*
Y503975D01*
X483247Y502975D01*
X482247D01*
X484246Y504974D02*
Y508973D01*
X489245Y504974D02*
X487245D01*
X486246Y505974D01*
Y507973D01*
X487245Y508973D01*
X489245D01*
X490244Y507973D01*
Y506974D01*
X486246D01*
X492244Y508973D02*
Y504974D01*
Y506974D01*
X493243Y507973D01*
X494243Y508973D01*
X495243D01*
X356288Y495972D02*
X360286D01*
X358287D01*
Y489974D01*
X363285D02*
X365285D01*
X366284Y490974D01*
Y492973D01*
X365285Y493973D01*
X363285D01*
X362286Y492973D01*
Y490974D01*
X363285Y489974D01*
X368284Y487975D02*
Y493973D01*
X371283D01*
X372283Y492973D01*
Y490974D01*
X371283Y489974D01*
X368284D01*
X380280Y495972D02*
Y489974D01*
X384279D01*
X387278Y493973D02*
X389277D01*
X390277Y492973D01*
Y489974D01*
X387278D01*
X386278Y490974D01*
X387278Y491974D01*
X390277D01*
X392276Y493973D02*
Y490974D01*
X393276Y489974D01*
X396275D01*
Y488975D01*
X395275Y487975D01*
X394275D01*
X396275Y489974D02*
Y493973D01*
X401273Y489974D02*
X399274D01*
X398274Y490974D01*
Y492973D01*
X399274Y493973D01*
X401273D01*
X402273Y492973D01*
Y491974D01*
X398274D01*
X404272Y493973D02*
Y489974D01*
Y491974D01*
X405272Y492973D01*
X406272Y493973D01*
X407271D01*
X416268Y492973D02*
X420267D01*
X428264Y495972D02*
Y489974D01*
X431263D01*
X432263Y490974D01*
Y491974D01*
X431263Y492973D01*
X428264D01*
X431263D01*
X432263Y493973D01*
Y494973D01*
X431263Y495972D01*
X428264D01*
X435262Y489974D02*
X437261D01*
X438261Y490974D01*
Y492973D01*
X437261Y493973D01*
X435262D01*
X434262Y492973D01*
Y490974D01*
X435262Y489974D01*
X441260Y494973D02*
Y493973D01*
X440261D01*
X442260D01*
X441260D01*
Y490974D01*
X442260Y489974D01*
X446259Y494973D02*
Y493973D01*
X445259D01*
X447258D01*
X446259D01*
Y490974D01*
X447258Y489974D01*
X451257D02*
X453256D01*
X454256Y490974D01*
Y492973D01*
X453256Y493973D01*
X451257D01*
X450257Y492973D01*
Y490974D01*
X451257Y489974D01*
X456255D02*
Y493973D01*
X457255D01*
X458255Y492973D01*
Y489974D01*
Y492973D01*
X459254Y493973D01*
X460254Y492973D01*
Y489974D01*
X468252Y495972D02*
Y489974D01*
X472250D01*
X475249Y493973D02*
X477248D01*
X478248Y492973D01*
Y489974D01*
X475249D01*
X474250Y490974D01*
X475249Y491974D01*
X478248D01*
X480248Y493973D02*
Y490974D01*
X481247Y489974D01*
X484246D01*
Y488975D01*
X483247Y487975D01*
X482247D01*
X484246Y489974D02*
Y493973D01*
X489245Y489974D02*
X487245D01*
X486246Y490974D01*
Y492973D01*
X487245Y493973D01*
X489245D01*
X490244Y492973D01*
Y491974D01*
X486246D01*
X492244Y493973D02*
Y489974D01*
Y491974D01*
X493243Y492973D01*
X494243Y493973D01*
X495243D01*
X356288Y480972D02*
X360286D01*
X358287D01*
Y474974D01*
X363285D02*
X365285D01*
X366284Y475974D01*
Y477973D01*
X365285Y478973D01*
X363285D01*
X362286Y477973D01*
Y475974D01*
X363285Y474974D01*
X368284Y472975D02*
Y478973D01*
X371283D01*
X372283Y477973D01*
Y475974D01*
X371283Y474974D01*
X368284D01*
X380280Y480972D02*
Y474974D01*
X384279D01*
X387278Y478973D02*
X389277D01*
X390277Y477973D01*
Y474974D01*
X387278D01*
X386278Y475974D01*
X387278Y476974D01*
X390277D01*
X392276Y478973D02*
Y475974D01*
X393276Y474974D01*
X396275D01*
Y473975D01*
X395275Y472975D01*
X394275D01*
X396275Y474974D02*
Y478973D01*
X401273Y474974D02*
X399274D01*
X398274Y475974D01*
Y477973D01*
X399274Y478973D01*
X401273D01*
X402273Y477973D01*
Y476974D01*
X398274D01*
X404272Y478973D02*
Y474974D01*
Y476974D01*
X405272Y477973D01*
X406272Y478973D01*
X407271D01*
X416268Y477973D02*
X420267D01*
X428264Y480972D02*
Y474974D01*
X431263D01*
X432263Y475974D01*
Y476974D01*
X431263Y477973D01*
X428264D01*
X431263D01*
X432263Y478973D01*
Y479973D01*
X431263Y480972D01*
X428264D01*
X435262Y474974D02*
X437261D01*
X438261Y475974D01*
Y477973D01*
X437261Y478973D01*
X435262D01*
X434262Y477973D01*
Y475974D01*
X435262Y474974D01*
X441260Y479973D02*
Y478973D01*
X440261D01*
X442260D01*
X441260D01*
Y475974D01*
X442260Y474974D01*
X446259Y479973D02*
Y478973D01*
X445259D01*
X447258D01*
X446259D01*
Y475974D01*
X447258Y474974D01*
X451257D02*
X453256D01*
X454256Y475974D01*
Y477973D01*
X453256Y478973D01*
X451257D01*
X450257Y477973D01*
Y475974D01*
X451257Y474974D01*
X456255D02*
Y478973D01*
X457255D01*
X458255Y477973D01*
Y474974D01*
Y477973D01*
X459254Y478973D01*
X460254Y477973D01*
Y474974D01*
X468252Y480972D02*
Y474974D01*
X472250D01*
X475249Y478973D02*
X477248D01*
X478248Y477973D01*
Y474974D01*
X475249D01*
X474250Y475974D01*
X475249Y476974D01*
X478248D01*
X480248Y478973D02*
Y475974D01*
X481247Y474974D01*
X484246D01*
Y473975D01*
X483247Y472975D01*
X482247D01*
X484246Y474974D02*
Y478973D01*
X489245Y474974D02*
X487245D01*
X486246Y475974D01*
Y477973D01*
X487245Y478973D01*
X489245D01*
X490244Y477973D01*
Y476974D01*
X486246D01*
X492244Y478973D02*
Y474974D01*
Y476974D01*
X493243Y477973D01*
X494243Y478973D01*
X495243D01*
X282908Y549974D02*
Y555972D01*
X285907D01*
X286906Y554973D01*
Y552973D01*
X285907Y551974D01*
X282908D01*
X284907D02*
X286906Y549974D01*
X289905D02*
X291905D01*
X292904Y550974D01*
Y552973D01*
X291905Y553973D01*
X289905D01*
X288906Y552973D01*
Y550974D01*
X289905Y549974D01*
X294904Y553973D02*
Y550974D01*
X295903Y549974D01*
X298902D01*
Y553973D01*
X300902Y549974D02*
Y553973D01*
X303901D01*
X304900Y552973D01*
Y549974D01*
X310898Y555972D02*
Y549974D01*
X307899D01*
X306900Y550974D01*
Y552973D01*
X307899Y553973D01*
X310898D01*
X282908Y534974D02*
Y540973D01*
X285907D01*
X286906Y539973D01*
Y537973D01*
X285907Y536974D01*
X282908D01*
X284907D02*
X286906Y534974D01*
X289905D02*
X291905D01*
X292904Y535974D01*
Y537973D01*
X291905Y538973D01*
X289905D01*
X288906Y537973D01*
Y535974D01*
X289905Y534974D01*
X294904Y538973D02*
Y535974D01*
X295903Y534974D01*
X298902D01*
Y538973D01*
X300902Y534974D02*
Y538973D01*
X303901D01*
X304900Y537973D01*
Y534974D01*
X310898Y540973D02*
Y534974D01*
X307899D01*
X306900Y535974D01*
Y537973D01*
X307899Y538973D01*
X310898D01*
X282908Y519974D02*
Y525973D01*
X285907D01*
X286906Y524973D01*
Y522973D01*
X285907Y521974D01*
X282908D01*
X284907D02*
X286906Y519974D01*
X289905D02*
X291905D01*
X292904Y520974D01*
Y522973D01*
X291905Y523973D01*
X289905D01*
X288906Y522973D01*
Y520974D01*
X289905Y519974D01*
X294904Y523973D02*
Y520974D01*
X295903Y519974D01*
X298902D01*
Y523973D01*
X300902Y519974D02*
Y523973D01*
X303901D01*
X304900Y522973D01*
Y519974D01*
X310898Y525973D02*
Y519974D01*
X307899D01*
X306900Y520974D01*
Y522973D01*
X307899Y523973D01*
X310898D01*
X282908Y504974D02*
Y510972D01*
X285907D01*
X286906Y509973D01*
Y507973D01*
X285907Y506974D01*
X282908D01*
X284907D02*
X286906Y504974D01*
X289905D02*
X291905D01*
X292904Y505974D01*
Y507973D01*
X291905Y508973D01*
X289905D01*
X288906Y507973D01*
Y505974D01*
X289905Y504974D01*
X294904Y508973D02*
Y505974D01*
X295903Y504974D01*
X298902D01*
Y508973D01*
X300902Y504974D02*
Y508973D01*
X303901D01*
X304900Y507973D01*
Y504974D01*
X310898Y510972D02*
Y504974D01*
X307899D01*
X306900Y505974D01*
Y507973D01*
X307899Y508973D01*
X310898D01*
X282908Y489974D02*
Y495972D01*
X285907D01*
X286906Y494973D01*
Y492973D01*
X285907Y491974D01*
X282908D01*
X284907D02*
X286906Y489974D01*
X289905D02*
X291905D01*
X292904Y490974D01*
Y492973D01*
X291905Y493973D01*
X289905D01*
X288906Y492973D01*
Y490974D01*
X289905Y489974D01*
X294904Y493973D02*
Y490974D01*
X295903Y489974D01*
X298902D01*
Y493973D01*
X300902Y489974D02*
Y493973D01*
X303901D01*
X304900Y492973D01*
Y489974D01*
X310898Y495972D02*
Y489974D01*
X307899D01*
X306900Y490974D01*
Y492973D01*
X307899Y493973D01*
X310898D01*
X282908Y474974D02*
Y480972D01*
X285907D01*
X286906Y479973D01*
Y477973D01*
X285907Y476974D01*
X282908D01*
X284907D02*
X286906Y474974D01*
X289905D02*
X291905D01*
X292904Y475974D01*
Y477973D01*
X291905Y478973D01*
X289905D01*
X288906Y477973D01*
Y475974D01*
X289905Y474974D01*
X294904Y478973D02*
Y475974D01*
X295903Y474974D01*
X298902D01*
Y478973D01*
X300902Y474974D02*
Y478973D01*
X303901D01*
X304900Y477973D01*
Y474974D01*
X310898Y480972D02*
Y474974D01*
X307899D01*
X306900Y475974D01*
Y477973D01*
X307899Y478973D01*
X310898D01*
X232320Y549974D02*
Y555972D01*
X235319D01*
X236319Y554973D01*
Y552973D01*
X235319Y551974D01*
X232320D01*
X238318Y555972D02*
X242317D01*
X240317D01*
Y549974D01*
X244316Y555972D02*
Y549974D01*
Y552973D01*
X248315D01*
Y555972D01*
Y549974D01*
X232320Y534974D02*
Y540973D01*
X235319D01*
X236319Y539973D01*
Y537973D01*
X235319Y536974D01*
X232320D01*
X238318Y540973D02*
X242317D01*
X240317D01*
Y534974D01*
X244316Y540973D02*
Y534974D01*
Y537973D01*
X248315D01*
Y540973D01*
Y534974D01*
X232320Y519974D02*
Y525973D01*
X235319D01*
X236319Y524973D01*
Y522973D01*
X235319Y521974D01*
X232320D01*
X238318Y525973D02*
X242317D01*
X240317D01*
Y519974D01*
X244316Y525973D02*
Y519974D01*
Y522973D01*
X248315D01*
Y525973D01*
Y519974D01*
X232320Y504974D02*
Y510972D01*
X235319D01*
X236319Y509973D01*
Y507973D01*
X235319Y506974D01*
X232320D01*
X238318Y510972D02*
X242317D01*
X240317D01*
Y504974D01*
X244316Y510972D02*
Y504974D01*
Y507973D01*
X248315D01*
Y510972D01*
Y504974D01*
X232320Y489974D02*
Y495972D01*
X235319D01*
X236319Y494973D01*
Y492973D01*
X235319Y491974D01*
X232320D01*
X238318Y495972D02*
X242317D01*
X240317D01*
Y489974D01*
X244316Y495972D02*
Y489974D01*
Y492973D01*
X248315D01*
Y495972D01*
Y489974D01*
X232320Y474974D02*
Y480972D01*
X235319D01*
X236319Y479973D01*
Y477973D01*
X235319Y476974D01*
X232320D01*
X238318Y480972D02*
X242317D01*
X240317D01*
Y474974D01*
X244316Y480972D02*
Y474974D01*
Y477973D01*
X248315D01*
Y480972D01*
Y474974D01*
X121352Y549974D02*
X117353D01*
X121352Y553973D01*
Y554973D01*
X120353Y555972D01*
X118353D01*
X117353Y554973D01*
X123352Y550974D02*
X124351Y549974D01*
X126351D01*
X127350Y550974D01*
Y554973D01*
X126351Y555972D01*
X124351D01*
X123352Y554973D01*
Y553973D01*
X124351Y552973D01*
X127350D01*
X129350Y549974D02*
Y550974D01*
X130349D01*
Y549974D01*
X129350D01*
X138347Y555972D02*
X134348D01*
Y552973D01*
X136347Y553973D01*
X137347D01*
X138347Y552973D01*
Y550974D01*
X137347Y549974D01*
X135348D01*
X134348Y550974D01*
X140346Y554973D02*
X141346Y555972D01*
X143345D01*
X144345Y554973D01*
Y553973D01*
X143345Y552973D01*
X142345D01*
X143345D01*
X144345Y551974D01*
Y550974D01*
X143345Y549974D01*
X141346D01*
X140346Y550974D01*
X146344Y549974D02*
Y553973D01*
X147344D01*
X148344Y552973D01*
Y549974D01*
Y552973D01*
X149343Y553973D01*
X150343Y552973D01*
Y549974D01*
X152342D02*
X154342D01*
X153342D01*
Y553973D01*
X152342D01*
X157341Y549974D02*
X159340D01*
X158340D01*
Y555972D01*
X157341D01*
X170336Y549974D02*
X168337Y551974D01*
Y553973D01*
X170336Y555972D01*
X173335Y554973D02*
X174335Y555972D01*
X176334D01*
X177334Y554973D01*
Y550974D01*
X176334Y549974D01*
X174335D01*
X173335Y550974D01*
Y554973D01*
X179333Y549974D02*
Y550974D01*
X180333D01*
Y549974D01*
X179333D01*
X184332Y555972D02*
X188331D01*
Y554973D01*
X184332Y550974D01*
Y549974D01*
X194329Y555972D02*
X190330D01*
Y552973D01*
X192329Y553973D01*
X193329D01*
X194329Y552973D01*
Y550974D01*
X193329Y549974D01*
X191330D01*
X190330Y550974D01*
X196328Y554973D02*
X197328Y555972D01*
X199327D01*
X200327Y554973D01*
Y550974D01*
X199327Y549974D01*
X197328D01*
X196328Y550974D01*
Y554973D01*
X202326Y549974D02*
Y553973D01*
X203326D01*
X204325Y552973D01*
Y549974D01*
Y552973D01*
X205325Y553973D01*
X206325Y552973D01*
Y549974D01*
X208324D02*
Y553973D01*
X209324D01*
X210324Y552973D01*
Y549974D01*
Y552973D01*
X211323Y553973D01*
X212323Y552973D01*
Y549974D01*
X214322D02*
X216321Y551974D01*
Y553973D01*
X214322Y555972D01*
X117353Y534974D02*
X119353D01*
X118353D01*
Y540973D01*
X117353Y539973D01*
X122352D02*
X123352Y540973D01*
X125351D01*
X126351Y539973D01*
Y535974D01*
X125351Y534974D01*
X123352D01*
X122352Y535974D01*
Y539973D01*
X128350D02*
X129350Y540973D01*
X131349D01*
X132349Y539973D01*
Y538973D01*
X131349Y537973D01*
X132349Y536974D01*
Y535974D01*
X131349Y534974D01*
X129350D01*
X128350Y535974D01*
Y536974D01*
X129350Y537973D01*
X128350Y538973D01*
Y539973D01*
X129350Y537973D02*
X131349D01*
X134348Y534974D02*
Y535974D01*
X135348D01*
Y534974D01*
X134348D01*
X143345D02*
X139346D01*
X143345Y538973D01*
Y539973D01*
X142345Y540973D01*
X140346D01*
X139346Y539973D01*
X145344Y540973D02*
X149343D01*
Y539973D01*
X145344Y535974D01*
Y534974D01*
X151342D02*
Y538973D01*
X152342D01*
X153342Y537973D01*
Y534974D01*
Y537973D01*
X154342Y538973D01*
X155341Y537973D01*
Y534974D01*
X157341D02*
X159340D01*
X158340D01*
Y538973D01*
X157341D01*
X162339Y534974D02*
X164338D01*
X163339D01*
Y540973D01*
X162339D01*
X175335Y534974D02*
X173335Y536974D01*
Y538973D01*
X175335Y540973D01*
X182333Y534974D02*
X178334D01*
X182333Y538973D01*
Y539973D01*
X181333Y540973D01*
X179333D01*
X178334Y539973D01*
X184332Y534974D02*
Y535974D01*
X185331D01*
Y534974D01*
X184332D01*
X189330Y540973D02*
X193329D01*
Y539973D01*
X189330Y535974D01*
Y534974D01*
X199327Y540973D02*
X195328D01*
Y537973D01*
X197328Y538973D01*
X198327D01*
X199327Y537973D01*
Y535974D01*
X198327Y534974D01*
X196328D01*
X195328Y535974D01*
X201326Y539973D02*
X202326Y540973D01*
X204325D01*
X205325Y539973D01*
Y535974D01*
X204325Y534974D01*
X202326D01*
X201326Y535974D01*
Y539973D01*
X207324Y534974D02*
Y538973D01*
X208324D01*
X209324Y537973D01*
Y534974D01*
Y537973D01*
X210324Y538973D01*
X211323Y537973D01*
Y534974D01*
X213322D02*
Y538973D01*
X214322D01*
X215322Y537973D01*
Y534974D01*
Y537973D01*
X216321Y538973D01*
X217321Y537973D01*
Y534974D01*
X219321D02*
X221320Y536974D01*
Y538973D01*
X219321Y540973D01*
X117353Y524973D02*
X118353Y525973D01*
X120353D01*
X121352Y524973D01*
Y523973D01*
X120353Y522973D01*
X119353D01*
X120353D01*
X121352Y521974D01*
Y520974D01*
X120353Y519974D01*
X118353D01*
X117353Y520974D01*
X123352Y519974D02*
X125351D01*
X124351D01*
Y525973D01*
X123352Y524973D01*
X128350Y519974D02*
Y520974D01*
X129350D01*
Y519974D01*
X128350D01*
X137347Y525973D02*
X133348D01*
Y522973D01*
X135348Y523973D01*
X136347D01*
X137347Y522973D01*
Y520974D01*
X136347Y519974D01*
X134348D01*
X133348Y520974D01*
X139346Y524973D02*
X140346Y525973D01*
X142345D01*
X143345Y524973D01*
Y520974D01*
X142345Y519974D01*
X140346D01*
X139346Y520974D01*
Y524973D01*
X145344Y519974D02*
Y523973D01*
X146344D01*
X147344Y522973D01*
Y519974D01*
Y522973D01*
X148344Y523973D01*
X149343Y522973D01*
Y519974D01*
X151342D02*
X153342D01*
X152342D01*
Y523973D01*
X151342D01*
X156341Y519974D02*
X158340D01*
X157341D01*
Y525973D01*
X156341D01*
X169337Y519974D02*
X167337Y521974D01*
Y523973D01*
X169337Y525973D01*
X172336Y524973D02*
X173335Y525973D01*
X175335D01*
X176334Y524973D01*
Y520974D01*
X175335Y519974D01*
X173335D01*
X172336Y520974D01*
Y524973D01*
X178334Y519974D02*
Y520974D01*
X179333D01*
Y519974D01*
X178334D01*
X183332Y524973D02*
X184332Y525973D01*
X186331D01*
X187331Y524973D01*
Y523973D01*
X186331Y522973D01*
X187331Y521974D01*
Y520974D01*
X186331Y519974D01*
X184332D01*
X183332Y520974D01*
Y521974D01*
X184332Y522973D01*
X183332Y523973D01*
Y524973D01*
X184332Y522973D02*
X186331D01*
X189330Y524973D02*
X190330Y525973D01*
X192329D01*
X193329Y524973D01*
Y520974D01*
X192329Y519974D01*
X190330D01*
X189330Y520974D01*
Y524973D01*
X195328D02*
X196328Y525973D01*
X198327D01*
X199327Y524973D01*
Y520974D01*
X198327Y519974D01*
X196328D01*
X195328Y520974D01*
Y524973D01*
X201326Y519974D02*
Y523973D01*
X202326D01*
X203326Y522973D01*
Y519974D01*
Y522973D01*
X204325Y523973D01*
X205325Y522973D01*
Y519974D01*
X207324D02*
Y523973D01*
X208324D01*
X209324Y522973D01*
Y519974D01*
Y522973D01*
X210324Y523973D01*
X211323Y522973D01*
Y519974D01*
X213322D02*
X215322Y521974D01*
Y523973D01*
X213322Y525973D01*
X117353Y509973D02*
X118353Y510972D01*
X120353D01*
X121352Y509973D01*
Y508973D01*
X120353Y507973D01*
X119353D01*
X120353D01*
X121352Y506974D01*
Y505974D01*
X120353Y504974D01*
X118353D01*
X117353Y505974D01*
X123352D02*
X124351Y504974D01*
X126351D01*
X127350Y505974D01*
Y509973D01*
X126351Y510972D01*
X124351D01*
X123352Y509973D01*
Y508973D01*
X124351Y507973D01*
X127350D01*
X129350Y504974D02*
Y505974D01*
X130349D01*
Y504974D01*
X129350D01*
X134348Y509973D02*
X135348Y510972D01*
X137347D01*
X138347Y509973D01*
Y508973D01*
X137347Y507973D01*
X136347D01*
X137347D01*
X138347Y506974D01*
Y505974D01*
X137347Y504974D01*
X135348D01*
X134348Y505974D01*
X140346Y510972D02*
X144345D01*
Y509973D01*
X140346Y505974D01*
Y504974D01*
X146344D02*
Y508973D01*
X147344D01*
X148344Y507973D01*
Y504974D01*
Y507973D01*
X149343Y508973D01*
X150343Y507973D01*
Y504974D01*
X152342D02*
X154342D01*
X153342D01*
Y508973D01*
X152342D01*
X157341Y504974D02*
X159340D01*
X158340D01*
Y510972D01*
X157341D01*
X170336Y504974D02*
X168337Y506974D01*
Y508973D01*
X170336Y510972D01*
X173335Y504974D02*
X175335D01*
X174335D01*
Y510972D01*
X173335Y509973D01*
X178334Y504974D02*
Y505974D01*
X179333D01*
Y504974D01*
X178334D01*
X183332Y509973D02*
X184332Y510972D01*
X186331D01*
X187331Y509973D01*
Y505974D01*
X186331Y504974D01*
X184332D01*
X183332Y505974D01*
Y509973D01*
X189330D02*
X190330Y510972D01*
X192329D01*
X193329Y509973D01*
Y505974D01*
X192329Y504974D01*
X190330D01*
X189330Y505974D01*
Y509973D01*
X195328D02*
X196328Y510972D01*
X198327D01*
X199327Y509973D01*
Y505974D01*
X198327Y504974D01*
X196328D01*
X195328Y505974D01*
Y509973D01*
X201326Y504974D02*
Y508973D01*
X202326D01*
X203326Y507973D01*
Y504974D01*
Y507973D01*
X204325Y508973D01*
X205325Y507973D01*
Y504974D01*
X207324D02*
Y508973D01*
X208324D01*
X209324Y507973D01*
Y504974D01*
Y507973D01*
X210324Y508973D01*
X211323Y507973D01*
Y504974D01*
X213322D02*
X215322Y506974D01*
Y508973D01*
X213322Y510972D01*
X120353Y489974D02*
Y495972D01*
X117353Y492973D01*
X121352D01*
X123352Y494973D02*
X124351Y495972D01*
X126351D01*
X127350Y494973D01*
Y490974D01*
X126351Y489974D01*
X124351D01*
X123352Y490974D01*
Y494973D01*
X129350Y489974D02*
Y490974D01*
X130349D01*
Y489974D01*
X129350D01*
X134348Y494973D02*
X135348Y495972D01*
X137347D01*
X138347Y494973D01*
Y490974D01*
X137347Y489974D01*
X135348D01*
X134348Y490974D01*
Y494973D01*
X140346D02*
X141346Y495972D01*
X143345D01*
X144345Y494973D01*
Y490974D01*
X143345Y489974D01*
X141346D01*
X140346Y490974D01*
Y494973D01*
X146344Y489974D02*
Y493973D01*
X147344D01*
X148344Y492973D01*
Y489974D01*
Y492973D01*
X149343Y493973D01*
X150343Y492973D01*
Y489974D01*
X152342D02*
X154342D01*
X153342D01*
Y493973D01*
X152342D01*
X157341Y489974D02*
X159340D01*
X158340D01*
Y495972D01*
X157341D01*
X170336Y489974D02*
X168337Y491974D01*
Y493973D01*
X170336Y495972D01*
X173335Y489974D02*
X175335D01*
X174335D01*
Y495972D01*
X173335Y494973D01*
X178334Y489974D02*
Y490974D01*
X179333D01*
Y489974D01*
X178334D01*
X183332Y494973D02*
X184332Y495972D01*
X186331D01*
X187331Y494973D01*
Y490974D01*
X186331Y489974D01*
X184332D01*
X183332Y490974D01*
Y494973D01*
X189330Y489974D02*
X191330D01*
X190330D01*
Y495972D01*
X189330Y494973D01*
X198327Y495972D02*
X196328Y494973D01*
X194329Y492973D01*
Y490974D01*
X195328Y489974D01*
X197328D01*
X198327Y490974D01*
Y491974D01*
X197328Y492973D01*
X194329D01*
X200327Y489974D02*
Y493973D01*
X201326D01*
X202326Y492973D01*
Y489974D01*
Y492973D01*
X203326Y493973D01*
X204325Y492973D01*
Y489974D01*
X206325D02*
Y493973D01*
X207324D01*
X208324Y492973D01*
Y489974D01*
Y492973D01*
X209324Y493973D01*
X210324Y492973D01*
Y489974D01*
X212323D02*
X214322Y491974D01*
Y493973D01*
X212323Y495972D01*
X117353Y474974D02*
X119353D01*
X118353D01*
Y480972D01*
X117353Y479973D01*
X122352D02*
X123352Y480972D01*
X125351D01*
X126351Y479973D01*
Y475974D01*
X125351Y474974D01*
X123352D01*
X122352Y475974D01*
Y479973D01*
X128350Y474974D02*
Y475974D01*
X129350D01*
Y474974D01*
X128350D01*
X133348Y479973D02*
X134348Y480972D01*
X136347D01*
X137347Y479973D01*
Y475974D01*
X136347Y474974D01*
X134348D01*
X133348Y475974D01*
Y479973D01*
X139346D02*
X140346Y480972D01*
X142345D01*
X143345Y479973D01*
Y475974D01*
X142345Y474974D01*
X140346D01*
X139346Y475974D01*
Y479973D01*
X145344Y474974D02*
Y478973D01*
X146344D01*
X147344Y477973D01*
Y474974D01*
Y477973D01*
X148344Y478973D01*
X149343Y477973D01*
Y474974D01*
X151342D02*
X153342D01*
X152342D01*
Y478973D01*
X151342D01*
X156341Y474974D02*
X158340D01*
X157341D01*
Y480972D01*
X156341D01*
X169337Y474974D02*
X167337Y476974D01*
Y478973D01*
X169337Y480972D01*
X172336Y479973D02*
X173335Y480972D01*
X175335D01*
X176334Y479973D01*
Y475974D01*
X175335Y474974D01*
X173335D01*
X172336Y475974D01*
Y479973D01*
X178334Y474974D02*
Y475974D01*
X179333D01*
Y474974D01*
X178334D01*
X187331D02*
X183332D01*
X187331Y478973D01*
Y479973D01*
X186331Y480972D01*
X184332D01*
X183332Y479973D01*
X193329Y480972D02*
X189330D01*
Y477973D01*
X191330Y478973D01*
X192329D01*
X193329Y477973D01*
Y475974D01*
X192329Y474974D01*
X190330D01*
X189330Y475974D01*
X198327Y474974D02*
Y480972D01*
X195328Y477973D01*
X199327D01*
X201326Y474974D02*
Y478973D01*
X202326D01*
X203326Y477973D01*
Y474974D01*
Y477973D01*
X204325Y478973D01*
X205325Y477973D01*
Y474974D01*
X207324D02*
Y478973D01*
X208324D01*
X209324Y477973D01*
Y474974D01*
Y477973D01*
X210324Y478973D01*
X211323Y477973D01*
Y474974D01*
X213322D02*
X215322Y476974D01*
Y478973D01*
X213322Y480972D01*
X58369Y459974D02*
X60368D01*
X59369D01*
Y465973D01*
X58369Y464973D01*
X67366Y465973D02*
X65367Y464973D01*
X63367Y462973D01*
Y460974D01*
X64367Y459974D01*
X66366D01*
X67366Y460974D01*
Y461974D01*
X66366Y462973D01*
X63367D01*
X69366Y464973D02*
X70365Y465973D01*
X72364D01*
X73364Y464973D01*
Y460974D01*
X72364Y459974D01*
X70365D01*
X69366Y460974D01*
Y464973D01*
X81362Y465973D02*
X85360D01*
X83361D01*
Y459974D01*
X88359D02*
X90359D01*
X91358Y460974D01*
Y462973D01*
X90359Y463973D01*
X88359D01*
X87360Y462973D01*
Y460974D01*
X88359Y459974D01*
X94357Y464973D02*
Y463973D01*
X93358D01*
X95357D01*
X94357D01*
Y460974D01*
X95357Y459974D01*
X99356Y463973D02*
X101355D01*
X102355Y462973D01*
Y459974D01*
X99356D01*
X98356Y460974D01*
X99356Y461974D01*
X102355D01*
X104354Y459974D02*
X106353D01*
X105354D01*
Y465973D01*
X104354D01*
X61368Y549974D02*
Y555972D01*
X58369Y552973D01*
X62368D01*
X61368Y534974D02*
Y540973D01*
X58369Y537973D01*
X62368D01*
X58369Y524973D02*
X59369Y525973D01*
X61368D01*
X62368Y524973D01*
Y523973D01*
X61368Y522973D01*
X62368Y521974D01*
Y520974D01*
X61368Y519974D01*
X59369D01*
X58369Y520974D01*
Y521974D01*
X59369Y522973D01*
X58369Y523973D01*
Y524973D01*
X59369Y522973D02*
X61368D01*
X58369Y504974D02*
X60368D01*
X59369D01*
Y510972D01*
X58369Y509973D01*
X63367D02*
X64367Y510972D01*
X66366D01*
X67366Y509973D01*
Y508973D01*
X66366Y507973D01*
X65367D01*
X66366D01*
X67366Y506974D01*
Y505974D01*
X66366Y504974D01*
X64367D01*
X63367Y505974D01*
X61368Y489974D02*
Y495972D01*
X58369Y492973D01*
X62368D01*
X64367Y494973D02*
X65367Y495972D01*
X67366D01*
X68366Y494973D01*
Y493973D01*
X67366Y492973D01*
X66366D01*
X67366D01*
X68366Y491974D01*
Y490974D01*
X67366Y489974D01*
X65367D01*
X64367Y490974D01*
X58369Y479973D02*
X59369Y480972D01*
X61368D01*
X62368Y479973D01*
Y478973D01*
X61368Y477973D01*
X62368Y476974D01*
Y475974D01*
X61368Y474974D01*
X59369D01*
X58369Y475974D01*
Y476974D01*
X59369Y477973D01*
X58369Y478973D01*
Y479973D01*
X59369Y477973D02*
X61368D01*
X64367Y479973D02*
X65367Y480972D01*
X67366D01*
X68366Y479973D01*
Y478973D01*
X67366Y477973D01*
X68366Y476974D01*
Y475974D01*
X67366Y474974D01*
X65367D01*
X64367Y475974D01*
Y476974D01*
X65367Y477973D01*
X64367Y478973D01*
Y479973D01*
X65367Y477973D02*
X67366D01*
D12*
X121437Y173307D02*
X146437D01*
Y133307D02*
Y173307D01*
X121437Y133307D02*
X146437D01*
X121437D02*
Y173307D01*
Y133307D02*
Y173307D01*
X164760Y188567D02*
Y210567D01*
Y188567D02*
X187760D01*
X164760Y210567D02*
X187760D01*
Y188567D02*
Y210567D01*
D15*
X44713Y198209D02*
X85213D01*
Y214209D01*
X44713D02*
X85213D01*
X44713Y198209D02*
Y214209D01*
X72008Y145630D02*
Y161484D01*
X50197Y169543D02*
X62008D01*
X50197Y137953D02*
Y169543D01*
X72008Y161484D02*
Y169543D01*
X58697D02*
X72102D01*
X58858Y137953D02*
Y138043D01*
X50197Y137953D02*
X72102D01*
X72008D02*
Y145630D01*
X89567Y127638D02*
Y179213D01*
X101378D01*
Y127638D02*
Y179213D01*
X89567Y127638D02*
X101378D01*
X82270Y262219D02*
X85053Y259435D01*
X82270Y259435D02*
X85053Y262219D01*
X54570Y260827D02*
X83661Y289918D01*
Y231735D02*
X112753Y260827D01*
X54570D02*
X83661Y231735D01*
Y289918D02*
X112753Y260827D01*
X139173Y200394D02*
G03*
X139173Y200394I-1969J0D01*
G01*
X105512Y284055D02*
X118898D01*
X105512Y276969D02*
X118898D01*
X105512D02*
Y284055D01*
X118898Y276969D02*
Y284055D01*
X59153Y321161D02*
Y340256D01*
X13681Y321161D02*
Y340256D01*
Y321161D02*
X59153D01*
X13681Y340256D02*
X59153D01*
X55709Y250197D02*
Y263583D01*
X48622Y250197D02*
Y263583D01*
X55709D01*
X48622Y250197D02*
X55709D01*
X96063Y34252D02*
X99213Y31102D01*
X81890Y16929D02*
X99213Y16732D01*
X81890Y31102D02*
X85039Y34252D01*
X96063D01*
X99213Y16732D02*
Y31102D01*
X81890Y16929D02*
Y31102D01*
X78150Y64764D02*
X85236D01*
X78150Y51378D02*
X85236D01*
Y64764D01*
X78150Y51378D02*
Y64764D01*
X52362Y66536D02*
X65807D01*
X52362Y73228D02*
X65807D01*
Y66536D02*
Y73228D01*
X52362Y66536D02*
Y73228D01*
X31890Y43504D02*
X38976D01*
X31890Y56890D02*
X38976D01*
X31890Y43504D02*
Y56890D01*
X38976Y43504D02*
Y56890D01*
X21791Y81102D02*
X35236D01*
X21791Y74410D02*
X35236D01*
X21791D02*
Y81102D01*
X35236Y74410D02*
Y81102D01*
X45669Y109055D02*
X52756D01*
X45669Y95669D02*
X52756D01*
Y109055D01*
X45669Y95669D02*
Y109055D01*
X4528Y95847D02*
Y109291D01*
X11220Y95847D02*
Y109291D01*
X4528Y95847D02*
X11220D01*
X4528Y109291D02*
X11220D01*
X35236Y125394D02*
Y132480D01*
X21850Y125394D02*
Y132480D01*
Y125394D02*
X35236D01*
X21850Y132480D02*
X35236D01*
X52362Y237598D02*
Y244685D01*
X65748Y237598D02*
Y244685D01*
X52362D02*
X65748D01*
X52362Y237598D02*
X65748D01*
X113386Y274213D02*
X126772D01*
X113386Y267126D02*
X126772D01*
X113386D02*
Y274213D01*
X126772Y267126D02*
Y274213D01*
X158268Y305512D02*
Y312598D01*
X144882Y305512D02*
Y312598D01*
Y305512D02*
X158268D01*
X144882Y312598D02*
X158268D01*
X48425Y316535D02*
X61811D01*
X48425Y309449D02*
X61811D01*
X48425D02*
Y316535D01*
X61811Y309449D02*
Y316535D01*
X11024Y309449D02*
Y316535D01*
X24409Y309449D02*
Y316535D01*
X11024D02*
X24409D01*
X11024Y309449D02*
X24409D01*
X183287Y123583D02*
Y148071D01*
X155295Y123583D02*
Y148071D01*
Y123583D02*
X183287D01*
X155295Y148071D02*
X183287D01*
X109803Y24390D02*
Y52382D01*
X134291Y24390D02*
Y52382D01*
X109803Y24390D02*
X134291D01*
X109803Y52382D02*
X134291D01*
X91693Y68110D02*
X103189D01*
X91693Y50000D02*
X103189D01*
Y68110D01*
X91693Y50000D02*
Y68110D01*
X172638Y220768D02*
Y226083D01*
X179724Y220768D02*
Y226083D01*
X172638D02*
X179724D01*
X172638Y220768D02*
X179724D01*
X115945Y63878D02*
Y69980D01*
X128150Y63878D02*
Y69980D01*
X115945D02*
X128150D01*
X115945Y63878D02*
X128150D01*
X125000Y216535D02*
X140748D01*
X125000Y196850D02*
X140748D01*
X125000D02*
Y216535D01*
X140748Y196850D02*
Y216535D01*
X179331Y159449D02*
X184843D01*
X179331Y171260D02*
X184843D01*
Y159449D02*
Y171260D01*
X179331Y159449D02*
Y171260D01*
X15354Y95669D02*
X41732D01*
X15354Y110236D02*
X41732D01*
X15354Y95669D02*
Y110236D01*
X41732Y95669D02*
Y110236D01*
X148622Y60236D02*
Y65748D01*
Y60236D02*
X160433D01*
X148622Y65748D02*
X160433D01*
Y60236D02*
Y65748D01*
X82677Y307283D02*
Y312795D01*
X70866D02*
X82677D01*
X70866Y307283D02*
X82677D01*
X70866D02*
Y312795D01*
X123031Y307283D02*
Y312795D01*
X111221D02*
X123031D01*
X111221Y307283D02*
X123031D01*
X111221D02*
Y312795D01*
X137795Y307283D02*
Y312795D01*
X125984D02*
X137795D01*
X125984Y307283D02*
X137795D01*
X125984D02*
Y312795D01*
X153248Y158957D02*
Y171752D01*
X159744Y158957D02*
Y171752D01*
X153248Y158957D02*
X159744D01*
X153248Y171752D02*
X159744D01*
X169783Y237500D02*
X182579D01*
X169783Y231004D02*
X182579D01*
X169783D02*
Y237500D01*
X182579Y231004D02*
Y237500D01*
X172539Y158957D02*
Y171752D01*
X166043Y158957D02*
Y171752D01*
X172539D01*
X166043Y158957D02*
X172539D01*
X120571Y12106D02*
X133366D01*
X120571Y5610D02*
X133366D01*
X120571D02*
Y12106D01*
X133366Y5610D02*
Y12106D01*
X145177Y324114D02*
X157972D01*
X145177Y317618D02*
X157972D01*
X145177D02*
Y324114D01*
X157972Y317618D02*
Y324114D01*
X80020Y326279D02*
Y339075D01*
X73524Y326279D02*
Y339075D01*
X80020D01*
X73524Y326279D02*
X80020D01*
X120374D02*
Y339075D01*
X113878Y326279D02*
Y339075D01*
X120374D01*
X113878Y326279D02*
X120374D01*
X135138D02*
Y339075D01*
X128642Y326279D02*
Y339075D01*
X135138D01*
X128642Y326279D02*
X135138D01*
X93012Y209350D02*
X105807D01*
X93012Y215846D02*
X105807D01*
Y209350D02*
Y215846D01*
X93012Y209350D02*
Y215846D01*
Y198524D02*
X105807D01*
X93012Y205020D02*
X105807D01*
Y198524D02*
Y205020D01*
X93012Y198524D02*
Y205020D01*
X112205Y278543D02*
Y282480D01*
X110236Y280512D02*
X114173D01*
X34449Y330709D02*
X38386D01*
X36417Y328740D02*
Y332677D01*
X50197Y256890D02*
X54134D01*
X52165Y254921D02*
Y258858D01*
X90551Y23622D02*
Y27559D01*
X88583Y25591D02*
X92520D01*
X81693Y56102D02*
Y60039D01*
X79724Y58071D02*
X83661D01*
X59055Y67913D02*
Y71850D01*
X57087Y69882D02*
X61024D01*
X35433Y48228D02*
Y52165D01*
X33465Y50197D02*
X37402D01*
X28543Y75787D02*
Y79724D01*
X26575Y77756D02*
X30512D01*
X49213Y100394D02*
Y104331D01*
X47244Y102362D02*
X51181D01*
X5906Y102598D02*
X9843D01*
X7874Y100630D02*
Y104567D01*
X26575Y128937D02*
X30512D01*
X28543Y126969D02*
Y130905D01*
X57087Y241142D02*
X61024D01*
X59055Y239173D02*
Y243110D01*
X120079Y268701D02*
Y272638D01*
X118110Y270669D02*
X122047D01*
X149606Y309055D02*
X153543D01*
X151575Y307087D02*
Y311024D01*
X55118D02*
Y314961D01*
X53150Y312992D02*
X57087D01*
X15748D02*
X19685D01*
X17717Y311024D02*
Y314961D01*
X167323Y135827D02*
X171260D01*
X169291Y133858D02*
Y137795D01*
X120079Y38386D02*
X124016D01*
X122047Y36417D02*
Y40354D01*
X97441Y57087D02*
Y61024D01*
X95472Y59055D02*
X99409D01*
X174213Y223425D02*
X178150D01*
X176181Y221457D02*
Y225394D01*
X120079Y66929D02*
X124016D01*
X122047Y64961D02*
Y68898D01*
X132874Y204724D02*
Y208661D01*
X130905Y206693D02*
X134843D01*
X182087Y163386D02*
Y167323D01*
X180118Y165354D02*
X184055D01*
X28543Y100984D02*
Y104921D01*
X26575Y102953D02*
X30512D01*
X154528Y61024D02*
Y64961D01*
X152559Y62992D02*
X156496D01*
X76772Y308071D02*
Y312008D01*
X74803Y310039D02*
X78740D01*
X117126Y308071D02*
Y312008D01*
X115157Y310039D02*
X119095D01*
X131890Y308071D02*
Y312008D01*
X129921Y310039D02*
X133858D01*
X154528Y165354D02*
X158465D01*
X156496Y163386D02*
Y167323D01*
X176181Y232283D02*
Y236221D01*
X174213Y234252D02*
X178150D01*
X167323Y165354D02*
X171260D01*
X169291Y163386D02*
Y167323D01*
X126969Y6890D02*
Y10827D01*
X125000Y8858D02*
X128937D01*
X151575Y318898D02*
Y322835D01*
X149606Y320866D02*
X153543D01*
X74803Y332677D02*
X78740D01*
X76772Y330709D02*
Y334646D01*
X115157Y332677D02*
X119095D01*
X117126Y330709D02*
Y334646D01*
X129921Y332677D02*
X133858D01*
X131890Y330709D02*
Y334646D01*
X99410Y210630D02*
Y214567D01*
X97441Y212598D02*
X101378D01*
X99410Y199803D02*
Y203740D01*
X97441Y201772D02*
X101378D01*
D18*
X53959Y69881D02*
D03*
X33640Y77755D02*
D03*
D19*
X7873Y107696D02*
D03*
D20*
X157178Y135827D02*
D03*
D21*
X122047Y26272D02*
D03*
D22*
X97443Y51219D02*
D03*
D23*
X102953Y285039D02*
X121457D01*
X102953Y275984D02*
X121457D01*
X102953D02*
Y285039D01*
X121457Y275984D02*
Y285039D01*
X60138Y320177D02*
Y341240D01*
X12697Y320177D02*
Y341240D01*
Y320177D02*
X60138D01*
X12697Y341240D02*
X60138D01*
X56693Y247638D02*
Y266142D01*
X47638Y247638D02*
Y266142D01*
X56693D01*
X47638Y247638D02*
X56693D01*
X80709Y38583D02*
X100394D01*
X80709Y12598D02*
X100394D01*
Y38583D01*
X80709Y12598D02*
Y38583D01*
X77165Y67323D02*
X86221D01*
X77165Y48819D02*
X86221D01*
Y67323D01*
X77165Y48819D02*
Y67323D01*
X49370Y65551D02*
Y74213D01*
Y65551D02*
X68740D01*
X49370Y74213D02*
X68740D01*
Y65551D02*
Y74213D01*
X30906Y40945D02*
X39961D01*
X30906Y59449D02*
X39961D01*
X30906Y40945D02*
Y59449D01*
X39961Y40945D02*
Y59449D01*
X38228Y73425D02*
Y82087D01*
X18858D02*
X38228D01*
X18858Y73425D02*
X38228D01*
X18858D02*
Y82087D01*
X44685Y111614D02*
X53740D01*
X44685Y93110D02*
X53740D01*
Y111614D01*
X44685Y93110D02*
Y111614D01*
X3543Y112284D02*
X12205D01*
X3543Y92913D02*
Y112284D01*
X12205Y92913D02*
Y112284D01*
X3543Y92913D02*
X12205D01*
X37795Y124409D02*
Y133465D01*
X19291Y124409D02*
Y133465D01*
Y124409D02*
X37795D01*
X19291Y133465D02*
X37795D01*
X49803Y236614D02*
Y245669D01*
X68307Y236614D02*
Y245669D01*
X49803D02*
X68307D01*
X49803Y236614D02*
X68307D01*
X110827Y275197D02*
X129331D01*
X110827Y266142D02*
X129331D01*
X110827D02*
Y275197D01*
X129331Y266142D02*
Y275197D01*
X160827Y304528D02*
Y313583D01*
X142323Y304528D02*
Y313583D01*
Y304528D02*
X160827D01*
X142323Y313583D02*
X160827D01*
X45866Y317520D02*
X64370D01*
X45866Y308465D02*
X64370D01*
X45866D02*
Y317520D01*
X64370Y308465D02*
Y317520D01*
X8465Y308465D02*
Y317520D01*
X26969Y308465D02*
Y317520D01*
X8465D02*
X26969D01*
X8465Y308465D02*
X26969D01*
X187008Y122441D02*
Y149213D01*
X151575Y122441D02*
Y149213D01*
Y122441D02*
X187008D01*
X151575Y149213D02*
X187008D01*
X108661Y20669D02*
Y56102D01*
X135433Y20669D02*
Y56102D01*
X108661Y20669D02*
X135433D01*
X108661Y56102D02*
X135433D01*
X90551Y73055D02*
X104331D01*
X90551Y45055D02*
X104331D01*
Y73055D01*
X90551Y45055D02*
Y73055D01*
X169488Y220079D02*
Y226772D01*
X182874Y220079D02*
Y226772D01*
X169488D02*
X182874D01*
X169488Y220079D02*
X182874D01*
X112008Y62894D02*
Y70965D01*
X132087Y62894D02*
Y70965D01*
X112008D02*
X132087D01*
X112008Y62894D02*
X132087D01*
X118307Y217520D02*
X147441D01*
X118307Y195866D02*
X147441D01*
X118307D02*
Y217520D01*
X147441Y195866D02*
Y217520D01*
X175787Y158465D02*
X188386D01*
X175787Y172244D02*
X188386D01*
Y158465D02*
Y172244D01*
X175787Y158465D02*
Y172244D01*
X14370Y86221D02*
X42717D01*
X14370Y119685D02*
X42717D01*
X14370Y86221D02*
Y119685D01*
X42717Y86221D02*
Y119685D01*
X147638Y69685D02*
X161417D01*
X147638Y56299D02*
X161417D01*
Y69685D01*
X147638Y56299D02*
Y69685D01*
X69882Y303346D02*
X83661D01*
X69882Y316732D02*
X83661D01*
X69882Y303346D02*
Y316732D01*
X83661Y303346D02*
Y316732D01*
X110236Y303346D02*
X124016D01*
X110236Y316732D02*
X124016D01*
X110236Y303346D02*
Y316732D01*
X124016Y303346D02*
Y316732D01*
X125000Y303346D02*
X138779D01*
X125000Y316732D02*
X138779D01*
X125000Y303346D02*
Y316732D01*
X138779Y303346D02*
Y316732D01*
X152165Y156496D02*
Y174213D01*
X160827Y156496D02*
Y174213D01*
X152165Y156496D02*
X160827D01*
X152165Y174213D02*
X160827D01*
X167323Y238583D02*
X185039D01*
X167323Y229921D02*
X185039D01*
X167323D02*
Y238583D01*
X185039Y229921D02*
Y238583D01*
X173622Y156496D02*
Y174213D01*
X164961Y156496D02*
Y174213D01*
X173622D01*
X164961Y156496D02*
X173622D01*
X118110Y13189D02*
X135827D01*
X118110Y4528D02*
X135827D01*
X118110D02*
Y13189D01*
X135827Y4528D02*
Y13189D01*
X142717Y325197D02*
X160433D01*
X142717Y316535D02*
X160433D01*
X142717D02*
Y325197D01*
X160433Y316535D02*
Y325197D01*
X81102Y323819D02*
Y341535D01*
X72441Y323819D02*
Y341535D01*
X81102D01*
X72441Y323819D02*
X81102D01*
X121457D02*
Y341535D01*
X112795Y323819D02*
Y341535D01*
X121457D01*
X112795Y323819D02*
X121457D01*
X136221D02*
Y341535D01*
X127559Y323819D02*
Y341535D01*
X136221D01*
X127559Y323819D02*
X136221D01*
X90551Y208268D02*
X108268D01*
X90551Y216929D02*
X108268D01*
Y208268D02*
Y216929D01*
X90551Y208268D02*
Y216929D01*
Y197441D02*
X108268D01*
X90551Y206102D02*
X108268D01*
Y197441D02*
Y206102D01*
X90551Y197441D02*
Y206102D01*
D99*
X139937Y168307D02*
G03*
X139937Y168307I-1000J0D01*
G01*
X129937D02*
G03*
X129937Y168307I-1000J0D01*
G01*
X139937Y138307D02*
G03*
X139937Y138307I-1000J0D01*
G01*
X129937D02*
G03*
X129937Y138307I-1000J0D01*
G01*
X182260Y214567D02*
G03*
X182260Y214567I-1000J0D01*
G01*
X172260D02*
G03*
X172260Y214567I-1000J0D01*
G01*
X182260Y184567D02*
G03*
X182260Y184567I-1000J0D01*
G01*
X172260D02*
G03*
X172260Y184567I-1000J0D01*
G01*
X16716Y294276D02*
X17717Y294776D01*
X18717Y294276D01*
X18216Y295276D02*
X18717Y294276D01*
X18216Y295276D02*
X18717Y296276D01*
X17717Y295776D02*
X18717Y296276D01*
X16716D02*
X17717Y295776D01*
X16716Y296276D02*
X17217Y295276D01*
X16716Y294276D02*
X17217Y295276D01*
X174197Y294276D02*
X175197Y294776D01*
X176197Y294276D01*
X175697Y295276D02*
X176197Y294276D01*
X175697Y295276D02*
X176197Y296276D01*
X175197Y295776D02*
X176197Y296276D01*
X174197D02*
X175197Y295776D01*
X174197Y296276D02*
X174697Y295276D01*
X174197Y294276D02*
X174697Y295276D01*
X174197Y58055D02*
X175197Y58555D01*
X176197Y58055D01*
X175697Y59055D02*
X176197Y58055D01*
X175697Y59055D02*
X176197Y60055D01*
X175197Y59555D02*
X176197Y60055D01*
X174197D02*
X175197Y59555D01*
X174197Y60055D02*
X174697Y59055D01*
X174197Y58055D02*
X174697Y59055D01*
X112189Y212583D02*
Y213083D01*
X112689Y213583D01*
X112189Y214083D02*
X112689Y213583D01*
X112189Y214083D02*
Y214583D01*
X112689D01*
X113189Y214083D01*
X113689Y214583D01*
X114189D01*
Y214083D02*
Y214583D01*
X113689Y213583D02*
X114189Y214083D01*
X113689Y213583D02*
X114189Y213083D01*
Y212583D02*
Y213083D01*
X113689Y212583D02*
X114189D01*
X113189Y213083D02*
X113689Y212583D01*
X112689D02*
X113189Y213083D01*
X112189Y212583D02*
X112689D01*
X79709Y196835D02*
Y197335D01*
X80209Y197835D01*
X79709Y198335D02*
X80209Y197835D01*
X79709Y198335D02*
Y198835D01*
X80209D01*
X80709Y198335D01*
X81209Y198835D01*
X81709D01*
Y198335D02*
Y198835D01*
X81209Y197835D02*
X81709Y198335D01*
X81209Y197835D02*
X81709Y197335D01*
Y196835D02*
Y197335D01*
X81209Y196835D02*
X81709D01*
X80709Y197335D02*
X81209Y196835D01*
X80209D02*
X80709Y197335D01*
X79709Y196835D02*
X80209D01*
X169276Y147622D02*
Y148122D01*
X169776Y148622D01*
X169276Y149122D02*
X169776Y148622D01*
X169276Y149122D02*
Y149622D01*
X169776D01*
X170276Y149122D01*
X170776Y149622D01*
X171276D01*
Y149122D02*
Y149622D01*
X170776Y148622D02*
X171276Y149122D01*
X170776Y148622D02*
X171276Y148122D01*
Y147622D02*
Y148122D01*
X170776Y147622D02*
X171276D01*
X170276Y148122D02*
X170776Y147622D01*
X169776D02*
X170276Y148122D01*
X169276Y147622D02*
X169776D01*
X164354Y233252D02*
Y233752D01*
X164854Y234252D01*
X164354Y234752D02*
X164854Y234252D01*
X164354Y234752D02*
Y235252D01*
X164854D01*
X165354Y234752D01*
X165854Y235252D01*
X166354D01*
Y234752D02*
Y235252D01*
X165854Y234252D02*
X166354Y234752D01*
X165854Y234252D02*
X166354Y233752D01*
Y233252D02*
Y233752D01*
X165854Y233252D02*
X166354D01*
X165354Y233752D02*
X165854Y233252D01*
X164854D02*
X165354Y233752D01*
X164354Y233252D02*
X164854D01*
X161402Y69866D02*
Y70366D01*
X161902Y70866D01*
X161402Y71366D02*
X161902Y70866D01*
X161402Y71366D02*
Y71866D01*
X161902D01*
X162402Y71366D01*
X162902Y71866D01*
X163402D01*
Y71366D02*
Y71866D01*
X162902Y70866D02*
X163402Y71366D01*
X162902Y70866D02*
X163402Y70366D01*
Y69866D02*
Y70366D01*
X162902Y69866D02*
X163402D01*
X162402Y70366D02*
X162902Y69866D01*
X161902D02*
X162402Y70366D01*
X161402Y69866D02*
X161902D01*
X84630Y272622D02*
Y273122D01*
X85130Y273622D01*
X84630Y274122D02*
X85130Y273622D01*
X84630Y274122D02*
Y274622D01*
X85130D01*
X85630Y274122D01*
X86130Y274622D01*
X86630D01*
Y274122D02*
Y274622D01*
X86130Y273622D02*
X86630Y274122D01*
X86130Y273622D02*
X86630Y273122D01*
Y272622D02*
Y273122D01*
X86130Y272622D02*
X86630D01*
X85630Y273122D02*
X86130Y272622D01*
X85130D02*
X85630Y273122D01*
X84630Y272622D02*
X85130D01*
X80693Y271638D02*
Y272138D01*
X81193Y272638D01*
X80693Y273138D02*
X81193Y272638D01*
X80693Y273138D02*
Y273638D01*
X81193D01*
X81693Y273138D01*
X82193Y273638D01*
X82693D01*
Y273138D02*
Y273638D01*
X82193Y272638D02*
X82693Y273138D01*
X82193Y272638D02*
X82693Y272138D01*
Y271638D02*
Y272138D01*
X82193Y271638D02*
X82693D01*
X81693Y272138D02*
X82193Y271638D01*
X81193D02*
X81693Y272138D01*
X80693Y271638D02*
X81193D01*
X43291Y306087D02*
Y306587D01*
X43791Y307087D01*
X43291Y307587D02*
X43791Y307087D01*
X43291Y307587D02*
Y308087D01*
X43791D01*
X44291Y307587D01*
X44791Y308087D01*
X45291D01*
Y307587D02*
Y308087D01*
X44791Y307087D02*
X45291Y307587D01*
X44791Y307087D02*
X45291Y306587D01*
Y306087D02*
Y306587D01*
X44791Y306087D02*
X45291D01*
X44291Y306587D02*
X44791Y306087D01*
X43791D02*
X44291Y306587D01*
X43291Y306087D02*
X43791D01*
X27543D02*
Y306587D01*
X28043Y307087D01*
X27543Y307587D02*
X28043Y307087D01*
X27543Y307587D02*
Y308087D01*
X28043D01*
X28543Y307587D01*
X29043Y308087D01*
X29543D01*
Y307587D02*
Y308087D01*
X29043Y307087D02*
X29543Y307587D01*
X29043Y307087D02*
X29543Y306587D01*
Y306087D02*
Y306587D01*
X29043Y306087D02*
X29543D01*
X28543Y306587D02*
X29043Y306087D01*
X28043D02*
X28543Y306587D01*
X27543Y306087D02*
X28043D01*
X69866Y240142D02*
Y240642D01*
X70366Y241142D01*
X69866Y241642D02*
X70366Y241142D01*
X69866Y241642D02*
Y242142D01*
X70366D01*
X70866Y241642D01*
X71366Y242142D01*
X71866D01*
Y241642D02*
Y242142D01*
X71366Y241142D02*
X71866Y241642D01*
X71366Y241142D02*
X71866Y240642D01*
Y240142D02*
Y240642D01*
X71366Y240142D02*
X71866D01*
X70866Y240642D02*
X71366Y240142D01*
X70366D02*
X70866Y240642D01*
X69866Y240142D02*
X70366D01*
X62703Y246691D02*
Y247191D01*
X63203Y247691D01*
X62703Y248191D02*
X63203Y247691D01*
X62703Y248191D02*
Y248691D01*
X63203D01*
X63703Y248191D01*
X64203Y248691D01*
X64703D01*
Y248191D02*
Y248691D01*
X64203Y247691D02*
X64703Y248191D01*
X64203Y247691D02*
X64703Y247191D01*
Y246691D02*
Y247191D01*
X64203Y246691D02*
X64703D01*
X63703Y247191D02*
X64203Y246691D01*
X63203D02*
X63703Y247191D01*
X62703Y246691D02*
X63203D01*
X108252Y270654D02*
Y271153D01*
X108752Y271654D01*
X108252Y272153D02*
X108752Y271654D01*
X108252Y272153D02*
Y272654D01*
X108752D01*
X109252Y272153D01*
X109752Y272654D01*
X110252D01*
Y272153D02*
Y272654D01*
X109752Y271654D02*
X110252Y272153D01*
X109752Y271654D02*
X110252Y271153D01*
Y270654D02*
Y271153D01*
X109752Y270654D02*
X110252D01*
X109252Y271153D02*
X109752Y270654D01*
X108752D02*
X109252Y271153D01*
X108252Y270654D02*
X108752D01*
X104315D02*
Y271153D01*
X104815Y271654D01*
X104315Y272153D02*
X104815Y271654D01*
X104315Y272153D02*
Y272654D01*
X104815D01*
X105315Y272153D01*
X105815Y272654D01*
X106315D01*
Y272153D02*
Y272654D01*
X105815Y271654D02*
X106315Y272153D01*
X105815Y271654D02*
X106315Y271153D01*
Y270654D02*
Y271153D01*
X105815Y270654D02*
X106315D01*
X105315Y271153D02*
X105815Y270654D01*
X104815D02*
X105315Y271153D01*
X104315Y270654D02*
X104815D01*
X106283Y259827D02*
Y260327D01*
X106783Y260827D01*
X106283Y261327D02*
X106783Y260827D01*
X106283Y261327D02*
Y261827D01*
X106783D01*
X107283Y261327D01*
X107783Y261827D01*
X108283D01*
Y261327D02*
Y261827D01*
X107783Y260827D02*
X108283Y261327D01*
X107783Y260827D02*
X108283Y260327D01*
Y259827D02*
Y260327D01*
X107783Y259827D02*
X108283D01*
X107283Y260327D02*
X107783Y259827D01*
X106783D02*
X107283Y260327D01*
X106283Y259827D02*
X106783D01*
X116126D02*
Y260327D01*
X116626Y260827D01*
X116126Y261327D02*
X116626Y260827D01*
X116126Y261327D02*
Y261827D01*
X116626D01*
X117126Y261327D01*
X117626Y261827D01*
X118126D01*
Y261327D02*
Y261827D01*
X117626Y260827D02*
X118126Y261327D01*
X117626Y260827D02*
X118126Y260327D01*
Y259827D02*
Y260327D01*
X117626Y259827D02*
X118126D01*
X117126Y260327D02*
X117626Y259827D01*
X116626D02*
X117126Y260327D01*
X116126Y259827D02*
X116626D01*
X66913Y191913D02*
Y192413D01*
X67413Y192913D01*
X66913Y193413D02*
X67413Y192913D01*
X66913Y193413D02*
Y193913D01*
X67413D01*
X67913Y193413D01*
X68413Y193913D01*
X68913D01*
Y193413D02*
Y193913D01*
X68413Y192913D02*
X68913Y193413D01*
X68413Y192913D02*
X68913Y192413D01*
Y191913D02*
Y192413D01*
X68413Y191913D02*
X68913D01*
X67913Y192413D02*
X68413Y191913D01*
X67413D02*
X67913Y192413D01*
X66913Y191913D02*
X67413D01*
X66913Y186992D02*
Y187492D01*
X67413Y187992D01*
X66913Y188492D02*
X67413Y187992D01*
X66913Y188492D02*
Y188992D01*
X67413D01*
X67913Y188492D01*
X68413Y188992D01*
X68913D01*
Y188492D02*
Y188992D01*
X68413Y187992D02*
X68913Y188492D01*
X68413Y187992D02*
X68913Y187492D01*
Y186992D02*
Y187492D01*
X68413Y186992D02*
X68913D01*
X67913Y187492D02*
X68413Y186992D01*
X67413D02*
X67913Y187492D01*
X66913Y186992D02*
X67413D01*
X66913Y182071D02*
Y182571D01*
X67413Y183071D01*
X66913Y183571D02*
X67413Y183071D01*
X66913Y183571D02*
Y184071D01*
X67413D01*
X67913Y183571D01*
X68413Y184071D01*
X68913D01*
Y183571D02*
Y184071D01*
X68413Y183071D02*
X68913Y183571D01*
X68413Y183071D02*
X68913Y182571D01*
Y182071D02*
Y182571D01*
X68413Y182071D02*
X68913D01*
X67913Y182571D02*
X68413Y182071D01*
X67413D02*
X67913Y182571D01*
X66913Y182071D02*
X67413D01*
X84630Y191913D02*
Y192413D01*
X85130Y192913D01*
X84630Y193413D02*
X85130Y192913D01*
X84630Y193413D02*
Y193913D01*
X85130D01*
X85630Y193413D01*
X86130Y193913D01*
X86630D01*
Y193413D02*
Y193913D01*
X86130Y192913D02*
X86630Y193413D01*
X86130Y192913D02*
X86630Y192413D01*
Y191913D02*
Y192413D01*
X86130Y191913D02*
X86630D01*
X85630Y192413D02*
X86130Y191913D01*
X85130D02*
X85630Y192413D01*
X84630Y191913D02*
X85130D01*
X75772Y259827D02*
Y260327D01*
X76272Y260827D01*
X75772Y261327D02*
X76272Y260827D01*
X75772Y261327D02*
Y261827D01*
X76272D01*
X76772Y261327D01*
X77272Y261827D01*
X77772D01*
Y261327D02*
Y261827D01*
X77272Y260827D02*
X77772Y261327D01*
X77272Y260827D02*
X77772Y260327D01*
Y259827D02*
Y260327D01*
X77272Y259827D02*
X77772D01*
X76772Y260327D02*
X77272Y259827D01*
X76272D02*
X76772Y260327D01*
X75772Y259827D02*
X76272D01*
X82661Y266717D02*
Y267216D01*
X83161Y267717D01*
X82661Y268216D02*
X83161Y267717D01*
X82661Y268216D02*
Y268717D01*
X83161D01*
X83661Y268216D01*
X84161Y268717D01*
X84661D01*
Y268216D02*
Y268717D01*
X84161Y267717D02*
X84661Y268216D01*
X84161Y267717D02*
X84661Y267216D01*
Y266717D02*
Y267216D01*
X84161Y266717D02*
X84661D01*
X83661Y267216D02*
X84161Y266717D01*
X83161D02*
X83661Y267216D01*
X82661Y266717D02*
X83161D01*
X89551Y259827D02*
Y260327D01*
X90051Y260827D01*
X89551Y261327D02*
X90051Y260827D01*
X89551Y261327D02*
Y261827D01*
X90051D01*
X90551Y261327D01*
X91051Y261827D01*
X91551D01*
Y261327D02*
Y261827D01*
X91051Y260827D02*
X91551Y261327D01*
X91051Y260827D02*
X91551Y260327D01*
Y259827D02*
Y260327D01*
X91051Y259827D02*
X91551D01*
X90551Y260327D02*
X91051Y259827D01*
X90051D02*
X90551Y260327D01*
X89551Y259827D02*
X90051D01*
X82661Y252937D02*
Y253437D01*
X83161Y253937D01*
X82661Y254437D02*
X83161Y253937D01*
X82661Y254437D02*
Y254937D01*
X83161D01*
X83661Y254437D01*
X84161Y254937D01*
X84661D01*
Y254437D02*
Y254937D01*
X84161Y253937D02*
X84661Y254437D01*
X84161Y253937D02*
X84661Y253437D01*
Y252937D02*
Y253437D01*
X84161Y252937D02*
X84661D01*
X83661Y253437D02*
X84161Y252937D01*
X83161D02*
X83661Y253437D01*
X82661Y252937D02*
X83161D01*
X102347Y309039D02*
Y309539D01*
X102847Y310039D01*
X102347Y310539D02*
X102847Y310039D01*
X102347Y310539D02*
Y311039D01*
X102847D01*
X103347Y310539D01*
X103847Y311039D01*
X104347D01*
Y310539D02*
Y311039D01*
X103847Y310039D02*
X104347Y310539D01*
X103847Y310039D02*
X104347Y309539D01*
Y309039D02*
Y309539D01*
X103847Y309039D02*
X104347D01*
X103347Y309539D02*
X103847Y309039D01*
X102847D02*
X103347Y309539D01*
X102347Y309039D02*
X102847D01*
X95457D02*
Y309539D01*
X95957Y310039D01*
X95457Y310539D02*
X95957Y310039D01*
X95457Y310539D02*
Y311039D01*
X95957D01*
X96457Y310539D01*
X96957Y311039D01*
X97457D01*
Y310539D02*
Y311039D01*
X96957Y310039D02*
X97457Y310539D01*
X96957Y310039D02*
X97457Y309539D01*
Y309039D02*
Y309539D01*
X96957Y309039D02*
X97457D01*
X96457Y309539D02*
X96957Y309039D01*
X95957D02*
X96457Y309539D01*
X95457Y309039D02*
X95957D01*
X88567D02*
Y309539D01*
X89067Y310039D01*
X88567Y310539D02*
X89067Y310039D01*
X88567Y310539D02*
Y311039D01*
X89067D01*
X89567Y310539D01*
X90067Y311039D01*
X90567D01*
Y310539D02*
Y311039D01*
X90067Y310039D02*
X90567Y310539D01*
X90067Y310039D02*
X90567Y309539D01*
Y309039D02*
Y309539D01*
X90067Y309039D02*
X90567D01*
X89567Y309539D02*
X90067Y309039D01*
X89067D02*
X89567Y309539D01*
X88567Y309039D02*
X89067D01*
X174197Y333646D02*
Y334146D01*
X174697Y334646D01*
X174197Y335146D02*
X174697Y334646D01*
X174197Y335146D02*
Y335646D01*
X174697D01*
X175197Y335146D01*
X175697Y335646D01*
X176197D01*
Y335146D02*
Y335646D01*
X175697Y334646D02*
X176197Y335146D01*
X175697Y334646D02*
X176197Y334146D01*
Y333646D02*
Y334146D01*
X175697Y333646D02*
X176197D01*
X175197Y334146D02*
X175697Y333646D01*
X174697D02*
X175197Y334146D01*
X174197Y333646D02*
X174697D01*
X174197Y323803D02*
Y324303D01*
X174697Y324803D01*
X174197Y325303D02*
X174697Y324803D01*
X174197Y325303D02*
Y325803D01*
X174697D01*
X175197Y325303D01*
X175697Y325803D01*
X176197D01*
Y325303D02*
Y325803D01*
X175697Y324803D02*
X176197Y325303D01*
X175697Y324803D02*
X176197Y324303D01*
Y323803D02*
Y324303D01*
X175697Y323803D02*
X176197D01*
X175197Y324303D02*
X175697Y323803D01*
X174697D02*
X175197Y324303D01*
X174197Y323803D02*
X174697D01*
X174197Y313961D02*
Y314461D01*
X174697Y314961D01*
X174197Y315461D02*
X174697Y314961D01*
X174197Y315461D02*
Y315961D01*
X174697D01*
X175197Y315461D01*
X175697Y315961D01*
X176197D01*
Y315461D02*
Y315961D01*
X175697Y314961D02*
X176197Y315461D01*
X175697Y314961D02*
X176197Y314461D01*
Y313961D02*
Y314461D01*
X175697Y313961D02*
X176197D01*
X175197Y314461D02*
X175697Y313961D01*
X174697D02*
X175197Y314461D01*
X174197Y313961D02*
X174697D01*
X174197Y273606D02*
Y274106D01*
X174697Y274606D01*
X174197Y275106D02*
X174697Y274606D01*
X174197Y275106D02*
Y275606D01*
X174697D01*
X175197Y275106D01*
X175697Y275606D01*
X176197D01*
Y275106D02*
Y275606D01*
X175697Y274606D02*
X176197Y275106D01*
X175697Y274606D02*
X176197Y274106D01*
Y273606D02*
Y274106D01*
X175697Y273606D02*
X176197D01*
X175197Y274106D02*
X175697Y273606D01*
X174697D02*
X175197Y274106D01*
X174197Y273606D02*
X174697D01*
X174197Y264748D02*
Y265248D01*
X174697Y265748D01*
X174197Y266248D02*
X174697Y265748D01*
X174197Y266248D02*
Y266748D01*
X174697D01*
X175197Y266248D01*
X175697Y266748D01*
X176197D01*
Y266248D02*
Y266748D01*
X175697Y265748D02*
X176197Y266248D01*
X175697Y265748D02*
X176197Y265248D01*
Y264748D02*
Y265248D01*
X175697Y264748D02*
X176197D01*
X175197Y265248D02*
X175697Y264748D01*
X174697D02*
X175197Y265248D01*
X174197Y264748D02*
X174697D01*
X174197Y254906D02*
Y255405D01*
X174697Y255906D01*
X174197Y256405D02*
X174697Y255906D01*
X174197Y256405D02*
Y256906D01*
X174697D01*
X175197Y256405D01*
X175697Y256906D01*
X176197D01*
Y256405D02*
Y256906D01*
X175697Y255906D02*
X176197Y256405D01*
X175697Y255906D02*
X176197Y255405D01*
Y254906D02*
Y255405D01*
X175697Y254906D02*
X176197D01*
X175197Y255405D02*
X175697Y254906D01*
X174697D02*
X175197Y255405D01*
X174197Y254906D02*
X174697D01*
X136795Y274590D02*
Y275091D01*
X137295Y275590D01*
X136795Y276091D02*
X137295Y275590D01*
X136795Y276091D02*
Y276590D01*
X137295D01*
X137795Y276091D01*
X138295Y276590D01*
X138795D01*
Y276091D02*
Y276590D01*
X138295Y275590D02*
X138795Y276091D01*
X138295Y275590D02*
X138795Y275091D01*
Y274590D02*
Y275091D01*
X138295Y274590D02*
X138795D01*
X137795Y275091D02*
X138295Y274590D01*
X137295D02*
X137795Y275091D01*
X136795Y274590D02*
X137295D01*
X136795Y264748D02*
Y265248D01*
X137295Y265748D01*
X136795Y266248D02*
X137295Y265748D01*
X136795Y266248D02*
Y266748D01*
X137295D01*
X137795Y266248D01*
X138295Y266748D01*
X138795D01*
Y266248D02*
Y266748D01*
X138295Y265748D02*
X138795Y266248D01*
X138295Y265748D02*
X138795Y265248D01*
Y264748D02*
Y265248D01*
X138295Y264748D02*
X138795D01*
X137795Y265248D02*
X138295Y264748D01*
X137295D02*
X137795Y265248D01*
X136795Y264748D02*
X137295D01*
X124000Y256874D02*
Y257374D01*
X124500Y257874D01*
X124000Y258374D02*
X124500Y257874D01*
X124000Y258374D02*
Y258874D01*
X124500D01*
X125000Y258374D01*
X125500Y258874D01*
X126000D01*
Y258374D02*
Y258874D01*
X125500Y257874D02*
X126000Y258374D01*
X125500Y257874D02*
X126000Y257374D01*
Y256874D02*
Y257374D01*
X125500Y256874D02*
X126000D01*
X125000Y257374D02*
X125500Y256874D01*
X124500D02*
X125000Y257374D01*
X124000Y256874D02*
X124500D01*
X111205D02*
Y257374D01*
X111705Y257874D01*
X111205Y258374D02*
X111705Y257874D01*
X111205Y258374D02*
Y258874D01*
X111705D01*
X112205Y258374D01*
X112705Y258874D01*
X113205D01*
Y258374D02*
Y258874D01*
X112705Y257874D02*
X113205Y258374D01*
X112705Y257874D02*
X113205Y257374D01*
Y256874D02*
Y257374D01*
X112705Y256874D02*
X113205D01*
X112205Y257374D02*
X112705Y256874D01*
X111705D02*
X112205Y257374D01*
X111205Y256874D02*
X111705D01*
X82661Y282465D02*
Y282965D01*
X83161Y283465D01*
X82661Y283965D02*
X83161Y283465D01*
X82661Y283965D02*
Y284465D01*
X83161D01*
X83661Y283965D01*
X84161Y284465D01*
X84661D01*
Y283965D02*
Y284465D01*
X84161Y283465D02*
X84661Y283965D01*
X84161Y283465D02*
X84661Y282965D01*
Y282465D02*
Y282965D01*
X84161Y282465D02*
X84661D01*
X83661Y282965D02*
X84161Y282465D01*
X83161D02*
X83661Y282965D01*
X82661Y282465D02*
X83161D01*
X38370Y272622D02*
Y273122D01*
X38870Y273622D01*
X38370Y274122D02*
X38870Y273622D01*
X38370Y274122D02*
Y274622D01*
X38870D01*
X39370Y274122D01*
X39870Y274622D01*
X40370D01*
Y274122D02*
Y274622D01*
X39870Y273622D02*
X40370Y274122D01*
X39870Y273622D02*
X40370Y273122D01*
Y272622D02*
Y273122D01*
X39870Y272622D02*
X40370D01*
X39370Y273122D02*
X39870Y272622D01*
X38870D02*
X39370Y273122D01*
X38370Y272622D02*
X38870D01*
X28528D02*
Y273122D01*
X29028Y273622D01*
X28528Y274122D02*
X29028Y273622D01*
X28528Y274122D02*
Y274622D01*
X29028D01*
X29528Y274122D01*
X30028Y274622D01*
X30528D01*
Y274122D02*
Y274622D01*
X30028Y273622D02*
X30528Y274122D01*
X30028Y273622D02*
X30528Y273122D01*
Y272622D02*
Y273122D01*
X30028Y272622D02*
X30528D01*
X29528Y273122D02*
X30028Y272622D01*
X29028D02*
X29528Y273122D01*
X28528Y272622D02*
X29028D01*
X8843Y269669D02*
Y270169D01*
X9342Y270669D01*
X8843Y271169D02*
X9342Y270669D01*
X8843Y271169D02*
Y271669D01*
X9342D01*
X9843Y271169D01*
X10343Y271669D01*
X10842D01*
Y271169D02*
Y271669D01*
X10343Y270669D02*
X10842Y271169D01*
X10343Y270669D02*
X10842Y270169D01*
Y269669D02*
Y270169D01*
X10343Y269669D02*
X10842D01*
X9843Y270169D02*
X10343Y269669D01*
X9342D02*
X9843Y270169D01*
X8843Y269669D02*
X9342D01*
X8843Y259827D02*
Y260327D01*
X9342Y260827D01*
X8843Y261327D02*
X9342Y260827D01*
X8843Y261327D02*
Y261827D01*
X9342D01*
X9843Y261327D01*
X10343Y261827D01*
X10842D01*
Y261327D02*
Y261827D01*
X10343Y260827D02*
X10842Y261327D01*
X10343Y260827D02*
X10842Y260327D01*
Y259827D02*
Y260327D01*
X10343Y259827D02*
X10842D01*
X9843Y260327D02*
X10343Y259827D01*
X9342D02*
X9843Y260327D01*
X8843Y259827D02*
X9342D01*
X8843Y249984D02*
Y250484D01*
X9342Y250984D01*
X8843Y251484D02*
X9342Y250984D01*
X8843Y251484D02*
Y251984D01*
X9342D01*
X9843Y251484D01*
X10343Y251984D01*
X10842D01*
Y251484D02*
Y251984D01*
X10343Y250984D02*
X10842Y251484D01*
X10343Y250984D02*
X10842Y250484D01*
Y249984D02*
Y250484D01*
X10343Y249984D02*
X10842D01*
X9843Y250484D02*
X10343Y249984D01*
X9342D02*
X9843Y250484D01*
X8843Y249984D02*
X9342D01*
X28528Y210614D02*
Y211114D01*
X29028Y211614D01*
X28528Y212114D02*
X29028Y211614D01*
X28528Y212114D02*
Y212614D01*
X29028D01*
X29528Y212114D01*
X30028Y212614D01*
X30528D01*
Y212114D02*
Y212614D01*
X30028Y211614D02*
X30528Y212114D01*
X30028Y211614D02*
X30528Y211114D01*
Y210614D02*
Y211114D01*
X30028Y210614D02*
X30528D01*
X29528Y211114D02*
X30028Y210614D01*
X29028D02*
X29528Y211114D01*
X28528Y210614D02*
X29028D01*
X28528Y200772D02*
Y201272D01*
X29028Y201772D01*
X28528Y202272D02*
X29028Y201772D01*
X28528Y202272D02*
Y202772D01*
X29028D01*
X29528Y202272D01*
X30028Y202772D01*
X30528D01*
Y202272D02*
Y202772D01*
X30028Y201772D02*
X30528Y202272D01*
X30028Y201772D02*
X30528Y201272D01*
Y200772D02*
Y201272D01*
X30028Y200772D02*
X30528D01*
X29528Y201272D02*
X30028Y200772D01*
X29028D02*
X29528Y201272D01*
X28528Y200772D02*
X29028D01*
X28528Y190929D02*
Y191429D01*
X29028Y191929D01*
X28528Y192429D02*
X29028Y191929D01*
X28528Y192429D02*
Y192929D01*
X29028D01*
X29528Y192429D01*
X30028Y192929D01*
X30528D01*
Y192429D02*
Y192929D01*
X30028Y191929D02*
X30528Y192429D01*
X30028Y191929D02*
X30528Y191429D01*
Y190929D02*
Y191429D01*
X30028Y190929D02*
X30528D01*
X29528Y191429D02*
X30028Y190929D01*
X29028D02*
X29528Y191429D01*
X28528Y190929D02*
X29028D01*
X48213D02*
Y191429D01*
X48713Y191929D01*
X48213Y192429D02*
X48713Y191929D01*
X48213Y192429D02*
Y192929D01*
X48713D01*
X49213Y192429D01*
X49713Y192929D01*
X50213D01*
Y192429D02*
Y192929D01*
X49713Y191929D02*
X50213Y192429D01*
X49713Y191929D02*
X50213Y191429D01*
Y190929D02*
Y191429D01*
X49713Y190929D02*
X50213D01*
X49213Y191429D02*
X49713Y190929D01*
X48713D02*
X49213Y191429D01*
X48213Y190929D02*
X48713D01*
X48213Y182071D02*
Y182571D01*
X48713Y183071D01*
X48213Y183571D02*
X48713Y183071D01*
X48213Y183571D02*
Y184071D01*
X48713D01*
X49213Y183571D01*
X49713Y184071D01*
X50213D01*
Y183571D02*
Y184071D01*
X49713Y183071D02*
X50213Y183571D01*
X49713Y183071D02*
X50213Y182571D01*
Y182071D02*
Y182571D01*
X49713Y182071D02*
X50213D01*
X49213Y182571D02*
X49713Y182071D01*
X48713D02*
X49213Y182571D01*
X48213Y182071D02*
X48713D01*
X28528Y141717D02*
Y142217D01*
X29028Y142717D01*
X28528Y143217D02*
X29028Y142717D01*
X28528Y143217D02*
Y143717D01*
X29028D01*
X29528Y143217D01*
X30028Y143717D01*
X30528D01*
Y143217D02*
Y143717D01*
X30028Y142717D02*
X30528Y143217D01*
X30028Y142717D02*
X30528Y142217D01*
Y141717D02*
Y142217D01*
X30028Y141717D02*
X30528D01*
X29528Y142217D02*
X30028Y141717D01*
X29028D02*
X29528Y142217D01*
X28528Y141717D02*
X29028D01*
X38370D02*
Y142217D01*
X38870Y142717D01*
X38370Y143217D02*
X38870Y142717D01*
X38370Y143217D02*
Y143717D01*
X38870D01*
X39370Y143217D01*
X39870Y143717D01*
X40370D01*
Y143217D02*
Y143717D01*
X39870Y142717D02*
X40370Y143217D01*
X39870Y142717D02*
X40370Y142217D01*
Y141717D02*
Y142217D01*
X39870Y141717D02*
X40370D01*
X39370Y142217D02*
X39870Y141717D01*
X38870D02*
X39370Y142217D01*
X38370Y141717D02*
X38870D01*
X53134Y122031D02*
Y122531D01*
X53634Y123031D01*
X53134Y123531D02*
X53634Y123031D01*
X53134Y123531D02*
Y124031D01*
X53634D01*
X54134Y123531D01*
X54634Y124031D01*
X55134D01*
Y123531D02*
Y124031D01*
X54634Y123031D02*
X55134Y123531D01*
X54634Y123031D02*
X55134Y122531D01*
Y122031D02*
Y122531D01*
X54634Y122031D02*
X55134D01*
X54134Y122531D02*
X54634Y122031D01*
X53634D02*
X54134Y122531D01*
X53134Y122031D02*
X53634D01*
X62976D02*
Y122531D01*
X63476Y123031D01*
X62976Y123531D02*
X63476Y123031D01*
X62976Y123531D02*
Y124031D01*
X63476D01*
X63976Y123531D01*
X64476Y124031D01*
X64976D01*
Y123531D02*
Y124031D01*
X64476Y123031D02*
X64976Y123531D01*
X64476Y123031D02*
X64976Y122531D01*
Y122031D02*
Y122531D01*
X64476Y122031D02*
X64976D01*
X63976Y122531D02*
X64476Y122031D01*
X63476D02*
X63976Y122531D01*
X62976Y122031D02*
X63476D01*
X82661Y97425D02*
Y97925D01*
X83161Y98425D01*
X82661Y98925D02*
X83161Y98425D01*
X82661Y98925D02*
Y99425D01*
X83161D01*
X83661Y98925D01*
X84161Y99425D01*
X84661D01*
Y98925D02*
Y99425D01*
X84161Y98425D02*
X84661Y98925D01*
X84161Y98425D02*
X84661Y97925D01*
Y97425D02*
Y97925D01*
X84161Y97425D02*
X84661D01*
X83661Y97925D02*
X84161Y97425D01*
X83161D02*
X83661Y97925D01*
X82661Y97425D02*
X83161D01*
X92504D02*
Y97925D01*
X93004Y98425D01*
X92504Y98925D02*
X93004Y98425D01*
X92504Y98925D02*
Y99425D01*
X93004D01*
X93504Y98925D01*
X94004Y99425D01*
X94504D01*
Y98925D02*
Y99425D01*
X94004Y98425D02*
X94504Y98925D01*
X94004Y98425D02*
X94504Y97925D01*
Y97425D02*
Y97925D01*
X94004Y97425D02*
X94504D01*
X93504Y97925D02*
X94004Y97425D01*
X93004D02*
X93504Y97925D01*
X92504Y97425D02*
X93004D01*
X102347D02*
Y97925D01*
X102847Y98425D01*
X102347Y98925D02*
X102847Y98425D01*
X102347Y98925D02*
Y99425D01*
X102847D01*
X103347Y98925D01*
X103847Y99425D01*
X104347D01*
Y98925D02*
Y99425D01*
X103847Y98425D02*
X104347Y98925D01*
X103847Y98425D02*
X104347Y97925D01*
Y97425D02*
Y97925D01*
X103847Y97425D02*
X104347D01*
X103347Y97925D02*
X103847Y97425D01*
X102847D02*
X103347Y97925D01*
X102347Y97425D02*
X102847D01*
X4905Y67898D02*
Y68398D01*
X5406Y68898D01*
X4905Y69398D02*
X5406Y68898D01*
X4905Y69398D02*
Y69898D01*
X5406D01*
X5906Y69398D01*
X6406Y69898D01*
X6905D01*
Y69398D02*
Y69898D01*
X6406Y68898D02*
X6905Y69398D01*
X6406Y68898D02*
X6905Y68398D01*
Y67898D02*
Y68398D01*
X6406Y67898D02*
X6905D01*
X5906Y68398D02*
X6406Y67898D01*
X5406D02*
X5906Y68398D01*
X4905Y67898D02*
X5406D01*
X4905Y58055D02*
Y58555D01*
X5406Y59055D01*
X4905Y59555D02*
X5406Y59055D01*
X4905Y59555D02*
Y60055D01*
X5406D01*
X5906Y59555D01*
X6406Y60055D01*
X6905D01*
Y59555D02*
Y60055D01*
X6406Y59055D02*
X6905Y59555D01*
X6406Y59055D02*
X6905Y58555D01*
Y58055D02*
Y58555D01*
X6406Y58055D02*
X6905D01*
X5906Y58555D02*
X6406Y58055D01*
X5406D02*
X5906Y58555D01*
X4905Y58055D02*
X5406D01*
X4905Y48213D02*
Y48713D01*
X5406Y49213D01*
X4905Y49713D02*
X5406Y49213D01*
X4905Y49713D02*
Y50213D01*
X5406D01*
X5906Y49713D01*
X6406Y50213D01*
X6905D01*
Y49713D02*
Y50213D01*
X6406Y49213D02*
X6905Y49713D01*
X6406Y49213D02*
X6905Y48713D01*
Y48213D02*
Y48713D01*
X6406Y48213D02*
X6905D01*
X5906Y48713D02*
X6406Y48213D01*
X5406D02*
X5906Y48713D01*
X4905Y48213D02*
X5406D01*
X33449Y28528D02*
Y29028D01*
X33949Y29528D01*
X33449Y30028D02*
X33949Y29528D01*
X33449Y30028D02*
Y30528D01*
X33949D01*
X34449Y30028D01*
X34949Y30528D01*
X35449D01*
Y30028D02*
Y30528D01*
X34949Y29528D02*
X35449Y30028D01*
X34949Y29528D02*
X35449Y29028D01*
Y28528D02*
Y29028D01*
X34949Y28528D02*
X35449D01*
X34449Y29028D02*
X34949Y28528D01*
X33949D02*
X34449Y29028D01*
X33449Y28528D02*
X33949D01*
X33449Y18685D02*
Y19185D01*
X33949Y19685D01*
X33449Y20185D02*
X33949Y19685D01*
X33449Y20185D02*
Y20685D01*
X33949D01*
X34449Y20185D01*
X34949Y20685D01*
X35449D01*
Y20185D02*
Y20685D01*
X34949Y19685D02*
X35449Y20185D01*
X34949Y19685D02*
X35449Y19185D01*
Y18685D02*
Y19185D01*
X34949Y18685D02*
X35449D01*
X34449Y19185D02*
X34949Y18685D01*
X33949D02*
X34449Y19185D01*
X33449Y18685D02*
X33949D01*
X62976Y3921D02*
Y4421D01*
X63476Y4921D01*
X62976Y5421D02*
X63476Y4921D01*
X62976Y5421D02*
Y5921D01*
X63476D01*
X63976Y5421D01*
X64476Y5921D01*
X64976D01*
Y5421D02*
Y5921D01*
X64476Y4921D02*
X64976Y5421D01*
X64476Y4921D02*
X64976Y4421D01*
Y3921D02*
Y4421D01*
X64476Y3921D02*
X64976D01*
X63976Y4421D02*
X64476Y3921D01*
X63476D02*
X63976Y4421D01*
X62976Y3921D02*
X63476D01*
X82661D02*
Y4421D01*
X83161Y4921D01*
X82661Y5421D02*
X83161Y4921D01*
X82661Y5421D02*
Y5921D01*
X83161D01*
X83661Y5421D01*
X84161Y5921D01*
X84661D01*
Y5421D02*
Y5921D01*
X84161Y4921D02*
X84661Y5421D01*
X84161Y4921D02*
X84661Y4421D01*
Y3921D02*
Y4421D01*
X84161Y3921D02*
X84661D01*
X83661Y4421D02*
X84161Y3921D01*
X83161D02*
X83661Y4421D01*
X82661Y3921D02*
X83161D01*
X102347D02*
Y4421D01*
X102847Y4921D01*
X102347Y5421D02*
X102847Y4921D01*
X102347Y5421D02*
Y5921D01*
X102847D01*
X103347Y5421D01*
X103847Y5921D01*
X104347D01*
Y5421D02*
Y5921D01*
X103847Y4921D02*
X104347Y5421D01*
X103847Y4921D02*
X104347Y4421D01*
Y3921D02*
Y4421D01*
X103847Y3921D02*
X104347D01*
X103347Y4421D02*
X103847Y3921D01*
X102847D02*
X103347Y4421D01*
X102347Y3921D02*
X102847D01*
X161402Y13764D02*
Y14264D01*
X161902Y14764D01*
X161402Y15264D02*
X161902Y14764D01*
X161402Y15264D02*
Y15764D01*
X161902D01*
X162402Y15264D01*
X162902Y15764D01*
X163402D01*
Y15264D02*
Y15764D01*
X162902Y14764D02*
X163402Y15264D01*
X162902Y14764D02*
X163402Y14264D01*
Y13764D02*
Y14264D01*
X162902Y13764D02*
X163402D01*
X162402Y14264D02*
X162902Y13764D01*
X161902D02*
X162402Y14264D01*
X161402Y13764D02*
X161902D01*
X176165D02*
Y14264D01*
X176665Y14764D01*
X176165Y15264D02*
X176665Y14764D01*
X176165Y15264D02*
Y15764D01*
X176665D01*
X177165Y15264D01*
X177665Y15764D01*
X178165D01*
Y15264D02*
Y15764D01*
X177665Y14764D02*
X178165Y15264D01*
X177665Y14764D02*
X178165Y14264D01*
Y13764D02*
Y14264D01*
X177665Y13764D02*
X178165D01*
X177165Y14264D02*
X177665Y13764D01*
X176665D02*
X177165Y14264D01*
X176165Y13764D02*
X176665D01*
X156480Y97425D02*
Y97925D01*
X156980Y98425D01*
X156480Y98925D02*
X156980Y98425D01*
X156480Y98925D02*
Y99425D01*
X156980D01*
X157480Y98925D01*
X157980Y99425D01*
X158480D01*
Y98925D02*
Y99425D01*
X157980Y98425D02*
X158480Y98925D01*
X157980Y98425D02*
X158480Y97925D01*
Y97425D02*
Y97925D01*
X157980Y97425D02*
X158480D01*
X157480Y97925D02*
X157980Y97425D01*
X156980D02*
X157480Y97925D01*
X156480Y97425D02*
X156980D01*
X166323D02*
Y97925D01*
X166823Y98425D01*
X166323Y98925D02*
X166823Y98425D01*
X166323Y98925D02*
Y99425D01*
X166823D01*
X167323Y98925D01*
X167823Y99425D01*
X168323D01*
Y98925D02*
Y99425D01*
X167823Y98425D02*
X168323Y98925D01*
X167823Y98425D02*
X168323Y97925D01*
Y97425D02*
Y97925D01*
X167823Y97425D02*
X168323D01*
X167323Y97925D02*
X167823Y97425D01*
X166823D02*
X167323Y97925D01*
X166323Y97425D02*
X166823D01*
X176165D02*
Y97925D01*
X176665Y98425D01*
X176165Y98925D02*
X176665Y98425D01*
X176165Y98925D02*
Y99425D01*
X176665D01*
X177165Y98925D01*
X177665Y99425D01*
X178165D01*
Y98925D02*
Y99425D01*
X177665Y98425D02*
X178165Y98925D01*
X177665Y98425D02*
X178165Y97925D01*
Y97425D02*
Y97925D01*
X177665Y97425D02*
X178165D01*
X177165Y97925D02*
X177665Y97425D01*
X176665D02*
X177165Y97925D01*
X176165Y97425D02*
X176665D01*
X107268Y159433D02*
Y159933D01*
X107768Y160433D01*
X107268Y160933D02*
X107768Y160433D01*
X107268Y160933D02*
Y161433D01*
X107768D01*
X108268Y160933D01*
X108768Y161433D01*
X109268D01*
Y160933D02*
Y161433D01*
X108768Y160433D02*
X109268Y160933D01*
X108768Y160433D02*
X109268Y159933D01*
Y159433D02*
Y159933D01*
X108768Y159433D02*
X109268D01*
X108268Y159933D02*
X108768Y159433D01*
X107768D02*
X108268Y159933D01*
X107268Y159433D02*
X107768D01*
X117110D02*
Y159933D01*
X117610Y160433D01*
X117110Y160933D02*
X117610Y160433D01*
X117110Y160933D02*
Y161433D01*
X117610D01*
X118110Y160933D01*
X118610Y161433D01*
X119110D01*
Y160933D02*
Y161433D01*
X118610Y160433D02*
X119110Y160933D01*
X118610Y160433D02*
X119110Y159933D01*
Y159433D02*
Y159933D01*
X118610Y159433D02*
X119110D01*
X118110Y159933D02*
X118610Y159433D01*
X117610D02*
X118110Y159933D01*
X117110Y159433D02*
X117610D01*
X107268Y179118D02*
Y179618D01*
X107768Y180118D01*
X107268Y180618D02*
X107768Y180118D01*
X107268Y180618D02*
Y181118D01*
X107768D01*
X108268Y180618D01*
X108768Y181118D01*
X109268D01*
Y180618D02*
Y181118D01*
X108768Y180118D02*
X109268Y180618D01*
X108768Y180118D02*
X109268Y179618D01*
Y179118D02*
Y179618D01*
X108768Y179118D02*
X109268D01*
X108268Y179618D02*
X108768Y179118D01*
X107768D02*
X108268Y179618D01*
X107268Y179118D02*
X107768D01*
X117110D02*
Y179618D01*
X117610Y180118D01*
X117110Y180618D02*
X117610Y180118D01*
X117110Y180618D02*
Y181118D01*
X117610D01*
X118110Y180618D01*
X118610Y181118D01*
X119110D01*
Y180618D02*
Y181118D01*
X118610Y180118D02*
X119110Y180618D01*
X118610Y180118D02*
X119110Y179618D01*
Y179118D02*
Y179618D01*
X118610Y179118D02*
X119110D01*
X118110Y179618D02*
X118610Y179118D01*
X117610D02*
X118110Y179618D01*
X117110Y179118D02*
X117610D01*
X107268Y141717D02*
Y142217D01*
X107768Y142717D01*
X107268Y143217D02*
X107768Y142717D01*
X107268Y143217D02*
Y143717D01*
X107768D01*
X108268Y143217D01*
X108768Y143717D01*
X109268D01*
Y143217D02*
Y143717D01*
X108768Y142717D02*
X109268Y143217D01*
X108768Y142717D02*
X109268Y142217D01*
Y141717D02*
Y142217D01*
X108768Y141717D02*
X109268D01*
X108268Y142217D02*
X108768Y141717D01*
X107768D02*
X108268Y142217D01*
X107268Y141717D02*
X107768D01*
X117110D02*
Y142217D01*
X117610Y142717D01*
X117110Y143217D02*
X117610Y142717D01*
X117110Y143217D02*
Y143717D01*
X117610D01*
X118110Y143217D01*
X118610Y143717D01*
X119110D01*
Y143217D02*
Y143717D01*
X118610Y142717D02*
X119110Y143217D01*
X118610Y142717D02*
X119110Y142217D01*
Y141717D02*
Y142217D01*
X118610Y141717D02*
X119110D01*
X118110Y142217D02*
X118610Y141717D01*
X117610D02*
X118110Y142217D01*
X117110Y141717D02*
X117610D01*
X168291Y134827D02*
Y135327D01*
X168791Y135827D01*
X168291Y136327D02*
X168791Y135827D01*
X168291Y136327D02*
Y136827D01*
X168791D01*
X169291Y136327D01*
X169791Y136827D01*
X170291D01*
Y136327D02*
Y136827D01*
X169791Y135827D02*
X170291Y136327D01*
X169791Y135827D02*
X170291Y135327D01*
Y134827D02*
Y135327D01*
X169791Y134827D02*
X170291D01*
X169291Y135327D02*
X169791Y134827D01*
X168791D02*
X169291Y135327D01*
X168291Y134827D02*
X168791D01*
X176165Y154512D02*
Y155012D01*
X176665Y155512D01*
X176165Y156012D02*
X176665Y155512D01*
X176165Y156012D02*
Y156512D01*
X176665D01*
X177165Y156012D01*
X177665Y156512D01*
X178165D01*
Y156012D02*
Y156512D01*
X177665Y155512D02*
X178165Y156012D01*
X177665Y155512D02*
X178165Y155012D01*
Y154512D02*
Y155012D01*
X177665Y154512D02*
X178165D01*
X177165Y155012D02*
X177665Y154512D01*
X176665D02*
X177165Y155012D01*
X176165Y154512D02*
X176665D01*
X136795Y179118D02*
Y179618D01*
X137295Y180118D01*
X136795Y180618D02*
X137295Y180118D01*
X136795Y180618D02*
Y181118D01*
X137295D01*
X137795Y180618D01*
X138295Y181118D01*
X138795D01*
Y180618D02*
Y181118D01*
X138295Y180118D02*
X138795Y180618D01*
X138295Y180118D02*
X138795Y179618D01*
Y179118D02*
Y179618D01*
X138295Y179118D02*
X138795D01*
X137795Y179618D02*
X138295Y179118D01*
X137295D02*
X137795Y179618D01*
X136795Y179118D02*
X137295D01*
X147622D02*
Y179618D01*
X148122Y180118D01*
X147622Y180618D02*
X148122Y180118D01*
X147622Y180618D02*
Y181118D01*
X148122D01*
X148622Y180618D01*
X149122Y181118D01*
X149622D01*
Y180618D02*
Y181118D01*
X149122Y180118D02*
X149622Y180618D01*
X149122Y180118D02*
X149622Y179618D01*
Y179118D02*
Y179618D01*
X149122Y179118D02*
X149622D01*
X148622Y179618D02*
X149122Y179118D01*
X148122D02*
X148622Y179618D01*
X147622Y179118D02*
X148122D01*
X112189Y195850D02*
Y196350D01*
X112689Y196850D01*
X112189Y197350D02*
X112689Y196850D01*
X112189Y197350D02*
Y197850D01*
X112689D01*
X113189Y197350D01*
X113689Y197850D01*
X114189D01*
Y197350D02*
Y197850D01*
X113689Y196850D02*
X114189Y197350D01*
X113689Y196850D02*
X114189Y196350D01*
Y195850D02*
Y196350D01*
X113689Y195850D02*
X114189D01*
X113189Y196350D02*
X113689Y195850D01*
X112689D02*
X113189Y196350D01*
X112189Y195850D02*
X112689D01*
X153528Y210614D02*
Y211114D01*
X154028Y211614D01*
X153528Y212114D02*
X154028Y211614D01*
X153528Y212114D02*
Y212614D01*
X154028D01*
X154528Y212114D01*
X155028Y212614D01*
X155528D01*
Y212114D02*
Y212614D01*
X155028Y211614D02*
X155528Y212114D01*
X155028Y211614D02*
X155528Y211114D01*
Y210614D02*
Y211114D01*
X155028Y210614D02*
X155528D01*
X154528Y211114D02*
X155028Y210614D01*
X154028D02*
X154528Y211114D01*
X153528Y210614D02*
X154028D01*
X153528Y200772D02*
Y201272D01*
X154028Y201772D01*
X153528Y202272D02*
X154028Y201772D01*
X153528Y202272D02*
Y202772D01*
X154028D01*
X154528Y202272D01*
X155028Y202772D01*
X155528D01*
Y202272D02*
Y202772D01*
X155028Y201772D02*
X155528Y202272D01*
X155028Y201772D02*
X155528Y201272D01*
Y200772D02*
Y201272D01*
X155028Y200772D02*
X155528D01*
X154528Y201272D02*
X155028Y200772D01*
X154028D02*
X154528Y201272D01*
X153528Y200772D02*
X154028D01*
X139755Y240210D02*
Y240710D01*
X140255Y241210D01*
X139755Y241710D02*
X140255Y241210D01*
X139755Y241710D02*
Y242210D01*
X140255D01*
X140755Y241710D01*
X141255Y242210D01*
X141755D01*
Y241710D02*
Y242210D01*
X141255Y241210D02*
X141755Y241710D01*
X141255Y241210D02*
X141755Y240710D01*
Y240210D02*
Y240710D01*
X141255Y240210D02*
X141755D01*
X140755Y240710D02*
X141255Y240210D01*
X140255D02*
X140755Y240710D01*
X139755Y240210D02*
X140255D01*
X132858Y240142D02*
Y240642D01*
X133358Y241142D01*
X132858Y241642D02*
X133358Y241142D01*
X132858Y241642D02*
Y242142D01*
X133358D01*
X133858Y241642D01*
X134358Y242142D01*
X134858D01*
Y241642D02*
Y242142D01*
X134358Y241142D02*
X134858Y241642D01*
X134358Y241142D02*
X134858Y240642D01*
Y240142D02*
Y240642D01*
X134358Y240142D02*
X134858D01*
X133858Y240642D02*
X134358Y240142D01*
X133358D02*
X133858Y240642D01*
X132858Y240142D02*
X133358D01*
X81677Y220457D02*
Y220957D01*
X82177Y221457D01*
X81677Y221957D02*
X82177Y221457D01*
X81677Y221957D02*
Y222457D01*
X82177D01*
X82677Y221957D01*
X83177Y222457D01*
X83677D01*
Y221957D02*
Y222457D01*
X83177Y221457D02*
X83677Y221957D01*
X83177Y221457D02*
X83677Y220957D01*
Y220457D02*
Y220957D01*
X83177Y220457D02*
X83677D01*
X82677Y220957D02*
X83177Y220457D01*
X82177D02*
X82677Y220957D01*
X81677Y220457D02*
X82177D01*
X88567D02*
Y220957D01*
X89067Y221457D01*
X88567Y221957D02*
X89067Y221457D01*
X88567Y221957D02*
Y222457D01*
X89067D01*
X89567Y221957D01*
X90067Y222457D01*
X90567D01*
Y221957D02*
Y222457D01*
X90067Y221457D02*
X90567Y221957D01*
X90067Y221457D02*
X90567Y220957D01*
Y220457D02*
Y220957D01*
X90067Y220457D02*
X90567D01*
X89567Y220957D02*
X90067Y220457D01*
X89067D02*
X89567Y220957D01*
X88567Y220457D02*
X89067D01*
X183375Y174303D02*
Y174803D01*
X183875Y175303D01*
X183375Y175803D02*
X183875Y175303D01*
X183375Y175803D02*
Y176303D01*
X183875D01*
X184375Y175803D01*
X184875Y176303D01*
X185375D01*
Y175803D02*
Y176303D01*
X184875Y175303D02*
X185375Y175803D01*
X184875Y175303D02*
X185375Y174803D01*
Y174303D02*
Y174803D01*
X184875Y174303D02*
X185375D01*
X184375Y174803D02*
X184875Y174303D01*
X183875D02*
X184375Y174803D01*
X183375Y174303D02*
X183875D01*
X68882Y259827D02*
Y260327D01*
X69382Y260827D01*
X68882Y261327D02*
X69382Y260827D01*
X68882Y261327D02*
Y261827D01*
X69382D01*
X69882Y261327D01*
X70382Y261827D01*
X70882D01*
Y261327D02*
Y261827D01*
X70382Y260827D02*
X70882Y261327D01*
X70382Y260827D02*
X70882Y260327D01*
Y259827D02*
Y260327D01*
X70382Y259827D02*
X70882D01*
X69882Y260327D02*
X70382Y259827D01*
X69382D02*
X69882Y260327D01*
X68882Y259827D02*
X69382D01*
X58055Y261795D02*
Y262295D01*
X58555Y262795D01*
X58055Y263295D02*
X58555Y262795D01*
X58055Y263295D02*
Y263795D01*
X58555D01*
X59055Y263295D01*
X59555Y263795D01*
X60055D01*
Y263295D02*
Y263795D01*
X59555Y262795D02*
X60055Y263295D01*
X59555Y262795D02*
X60055Y262295D01*
Y261795D02*
Y262295D01*
X59555Y261795D02*
X60055D01*
X59055Y262295D02*
X59555Y261795D01*
X58555D02*
X59055Y262295D01*
X58055Y261795D02*
X58555D01*
X51165Y255890D02*
Y256390D01*
X51665Y256890D01*
X51165Y257390D02*
X51665Y256890D01*
X51165Y257390D02*
Y257890D01*
X51665D01*
X52165Y257390D01*
X52665Y257890D01*
X53165D01*
Y257390D02*
Y257890D01*
X52665Y256890D02*
X53165Y257390D01*
X52665Y256890D02*
X53165Y256390D01*
Y255890D02*
Y256390D01*
X52665Y255890D02*
X53165D01*
X52165Y256390D02*
X52665Y255890D01*
X51665D02*
X52165Y256390D01*
X51165Y255890D02*
X51665D01*
X16716Y58055D02*
X17717Y58555D01*
X18717Y58055D01*
X18216Y59055D02*
X18717Y58055D01*
X18216Y59055D02*
X18717Y60055D01*
X17717Y59555D02*
X18717Y60055D01*
X16716D02*
X17717Y59555D01*
X16716Y60055D02*
X17217Y59055D01*
X16716Y58055D02*
X17217Y59055D01*
X111417Y239354D02*
X112417Y241354D01*
X110417D02*
X112417D01*
X110417D02*
X111417Y239354D01*
X101417D02*
X102417Y241354D01*
X100417D02*
X102417D01*
X100417D02*
X101417Y239354D01*
X36417Y259354D02*
X37417Y261354D01*
X35417D02*
X37417D01*
X35417D02*
X36417Y259354D01*
Y249354D02*
X37417Y251354D01*
X35417D02*
X37417D01*
X35417D02*
X36417Y249354D01*
Y239354D02*
X37417Y241354D01*
X35417D02*
X37417D01*
X35417D02*
X36417Y239354D01*
X156417Y284354D02*
X157417Y286354D01*
X155417D02*
X157417D01*
X155417D02*
X156417Y284354D01*
Y274354D02*
X157417Y276354D01*
X155417D02*
X157417D01*
X155417D02*
X156417Y274354D01*
Y264354D02*
X157417Y266354D01*
X155417D02*
X157417D01*
X155417D02*
X156417Y264354D01*
Y254354D02*
X157417Y256354D01*
X155417D02*
X157417D01*
X155417D02*
X156417Y254354D01*
Y244354D02*
X157417Y246354D01*
X155417D02*
X157417D01*
X155417D02*
X156417Y244354D01*
Y234354D02*
X157417Y236354D01*
X155417D02*
X157417D01*
X155417D02*
X156417Y234354D01*
X146417Y229354D02*
X147417Y231354D01*
X145417D02*
X147417D01*
X145417D02*
X146417Y229354D01*
X136417D02*
X137417Y231354D01*
X135417D02*
X137417D01*
X135417D02*
X136417Y229354D01*
X126417D02*
X127417Y231354D01*
X125417D02*
X127417D01*
X125417D02*
X126417Y229354D01*
X116417D02*
X117417Y231354D01*
X115417D02*
X117417D01*
X115417D02*
X116417Y229354D01*
X106417D02*
X107417Y231354D01*
X105417D02*
X107417D01*
X105417D02*
X106417Y229354D01*
X96417D02*
X97417Y231354D01*
X95417D02*
X97417D01*
X95417D02*
X96417Y229354D01*
X86417D02*
X87417Y231354D01*
X85417D02*
X87417D01*
X85417D02*
X86417Y229354D01*
X76417D02*
X77417Y231354D01*
X75417D02*
X77417D01*
X75417D02*
X76417Y229354D01*
X66417D02*
X67417Y231354D01*
X65417D02*
X67417D01*
X65417D02*
X66417Y229354D01*
X56417D02*
X57417Y231354D01*
X55417D02*
X57417D01*
X55417D02*
X56417Y229354D01*
X46417D02*
X47417Y231354D01*
X45417D02*
X47417D01*
X45417D02*
X46417Y229354D01*
X36417D02*
X37417Y231354D01*
X35417D02*
X37417D01*
X35417D02*
X36417Y229354D01*
Y289354D02*
X37417Y291354D01*
X35417D02*
X37417D01*
X35417D02*
X36417Y289354D01*
X46417D02*
X47417Y291354D01*
X45417D02*
X47417D01*
X45417D02*
X46417Y289354D01*
X56417D02*
X57417Y291354D01*
X55417D02*
X57417D01*
X55417D02*
X56417Y289354D01*
X66417D02*
X67417Y291354D01*
X65417D02*
X67417D01*
X65417D02*
X66417Y289354D01*
X76417D02*
X77417Y291354D01*
X75417D02*
X77417D01*
X75417D02*
X76417Y289354D01*
X86417D02*
X87417Y291354D01*
X85417D02*
X87417D01*
X85417D02*
X86417Y289354D01*
X96417D02*
X97417Y291354D01*
X95417D02*
X97417D01*
X95417D02*
X96417Y289354D01*
X106417D02*
X107417Y291354D01*
X105417D02*
X107417D01*
X105417D02*
X106417Y289354D01*
X116417D02*
X117417Y291354D01*
X115417D02*
X117417D01*
X115417D02*
X116417Y289354D01*
X126417D02*
X127417Y291354D01*
X125417D02*
X127417D01*
X125417D02*
X126417Y289354D01*
X136417D02*
X137417Y291354D01*
X135417D02*
X137417D01*
X135417D02*
X136417Y289354D01*
X146417D02*
X147417Y291354D01*
X145417D02*
X147417D01*
X145417D02*
X146417Y289354D01*
X94472Y152543D02*
X96472D01*
Y154543D01*
X94472D02*
X96472D01*
X94472Y152543D02*
Y154543D01*
Y142543D02*
X96472D01*
Y144543D01*
X94472D02*
X96472D01*
X94472Y142543D02*
Y144543D01*
Y132543D02*
X96472D01*
Y134543D01*
X94472D02*
X96472D01*
X94472Y132543D02*
Y134543D01*
Y162543D02*
X96472D01*
Y164543D01*
X94472D02*
X96472D01*
X94472Y162543D02*
Y164543D01*
Y172543D02*
X96472D01*
Y174543D01*
X94472D02*
X96472D01*
X94472Y172543D02*
Y174543D01*
X65102Y142543D02*
X67102D01*
Y144543D01*
X65102D02*
X67102D01*
X65102Y142543D02*
Y144543D01*
Y152543D02*
X67102D01*
Y154543D01*
X65102D02*
X67102D01*
X65102Y152543D02*
Y154543D01*
Y162543D02*
X67102D01*
Y164543D01*
X65102D02*
X67102D01*
X65102Y162543D02*
Y164543D01*
X55102Y142543D02*
X57102D01*
Y144543D01*
X55102D02*
X57102D01*
X55102Y142543D02*
Y144543D01*
Y152543D02*
X57102D01*
Y154543D01*
X55102D02*
X57102D01*
X55102Y152543D02*
Y154543D01*
Y162543D02*
X57102D01*
Y164543D01*
X55102D02*
X57102D01*
X55102Y162543D02*
Y164543D01*
X103457Y332177D02*
X103957Y331677D01*
X102957Y332177D02*
X103457D01*
X102957D02*
X103457Y332677D01*
X102957Y333177D02*
X103457Y332677D01*
X102957Y333177D02*
X103457D01*
X103957Y333677D01*
X104457Y333177D01*
X104957D01*
X104457Y332677D02*
X104957Y333177D01*
X104457Y332677D02*
X104957Y332177D01*
X104457D02*
X104957D01*
X103957Y331677D02*
X104457Y332177D01*
X88457D02*
X88957Y331677D01*
X87957Y332177D02*
X88457D01*
X87957D02*
X88457Y332677D01*
X87957Y333177D02*
X88457Y332677D01*
X87957Y333177D02*
X88457D01*
X88957Y333677D01*
X89457Y333177D01*
X89957D01*
X89457Y332677D02*
X89957Y333177D01*
X89457Y332677D02*
X89957Y332177D01*
X89457D02*
X89957D01*
X88957Y331677D02*
X89457Y332177D01*
X93457D02*
X93957Y331677D01*
X92957Y332177D02*
X93457D01*
X92957D02*
X93457Y332677D01*
X92957Y333177D02*
X93457Y332677D01*
X92957Y333177D02*
X93457D01*
X93957Y333677D01*
X94457Y333177D01*
X94957D01*
X94457Y332677D02*
X94957Y333177D01*
X94457Y332677D02*
X94957Y332177D01*
X94457D02*
X94957D01*
X93957Y331677D02*
X94457Y332177D01*
X98457D02*
X98957Y331677D01*
X97957Y332177D02*
X98457D01*
X97957D02*
X98457Y332677D01*
X97957Y333177D02*
X98457Y332677D01*
X97957Y333177D02*
X98457D01*
X98957Y333677D01*
X99457Y333177D01*
X99957D01*
X99457Y332677D02*
X99957Y333177D01*
X99457Y332677D02*
X99957Y332177D01*
X99457D02*
X99957D01*
X98957Y331677D02*
X99457Y332177D01*
X150575Y24590D02*
X152575D01*
Y26591D01*
X150575D02*
X152575D01*
X150575Y24590D02*
Y26591D01*
X180496Y24590D02*
X182496D01*
Y26591D01*
X180496D02*
X182496D01*
X180496Y24590D02*
Y26591D01*
X10827Y216638D02*
X11827Y218638D01*
X9827D02*
X11827D01*
X9827D02*
X10827Y216638D01*
Y206638D02*
X11827Y208638D01*
X9827D02*
X11827D01*
X9827D02*
X10827Y206638D01*
Y196638D02*
X11827Y198638D01*
X9827D02*
X11827D01*
X9827D02*
X10827Y196638D01*
Y186638D02*
X11827Y188638D01*
X9827D02*
X11827D01*
X9827D02*
X10827Y186638D01*
Y176638D02*
X11827Y178638D01*
X9827D02*
X11827D01*
X9827D02*
X10827Y176638D01*
Y166638D02*
X11827Y168638D01*
X9827D02*
X11827D01*
X9827D02*
X10827Y166638D01*
Y156638D02*
X11827Y158638D01*
X9827D02*
X11827D01*
X9827D02*
X10827Y156638D01*
Y146638D02*
X11827Y148638D01*
X9827D02*
X11827D01*
X9827D02*
X10827Y146638D01*
D100*
X-1218Y560474D02*
X730782D01*
X-1218Y470474D02*
X730782D01*
X-1218Y455474D02*
X730782D01*
Y575474D01*
X-1218D02*
X730782D01*
X-1218Y455474D02*
Y575474D01*
X635307Y455474D02*
Y575474D01*
X560728Y455474D02*
Y575474D01*
X501743Y455474D02*
Y575474D01*
X351788Y455474D02*
Y575474D01*
X278408Y455474D02*
Y575474D01*
X227820Y455474D02*
Y575474D01*
X112854Y455474D02*
Y575474D01*
X53869Y455474D02*
Y575474D01*
D101*
X639807Y572172D02*
X644606D01*
X642207D01*
Y564974D01*
X650604D02*
X648205D01*
X647005Y566174D01*
Y568573D01*
X648205Y569773D01*
X650604D01*
X651803Y568573D01*
Y567374D01*
X647005D01*
X654203Y564974D02*
Y569773D01*
X655402D01*
X656602Y568573D01*
Y564974D01*
Y568573D01*
X657802Y569773D01*
X659001Y568573D01*
Y564974D01*
X661400Y562575D02*
Y569773D01*
X664999D01*
X666199Y568573D01*
Y566174D01*
X664999Y564974D01*
X661400D01*
X668598D02*
X670997D01*
X669798D01*
Y572172D01*
X668598D01*
X675796Y569773D02*
X678195D01*
X679395Y568573D01*
Y564974D01*
X675796D01*
X674596Y566174D01*
X675796Y567374D01*
X679395D01*
X682993Y570972D02*
Y569773D01*
X681794D01*
X684193D01*
X682993D01*
Y566174D01*
X684193Y564974D01*
X691391D02*
X688991D01*
X687792Y566174D01*
Y568573D01*
X688991Y569773D01*
X691391D01*
X692590Y568573D01*
Y567374D01*
X687792D01*
X565228Y564974D02*
Y572172D01*
X568826D01*
X570026Y570972D01*
Y568573D01*
X568826Y567374D01*
X565228D01*
X573625Y569773D02*
X576024D01*
X577224Y568573D01*
Y564974D01*
X573625D01*
X572425Y566174D01*
X573625Y567374D01*
X577224D01*
X584421Y572172D02*
Y564974D01*
X580823D01*
X579623Y566174D01*
Y568573D01*
X580823Y569773D01*
X584421D01*
X598817Y570972D02*
X597617Y572172D01*
X595218D01*
X594018Y570972D01*
Y569773D01*
X595218Y568573D01*
X597617D01*
X598817Y567374D01*
Y566174D01*
X597617Y564974D01*
X595218D01*
X594018Y566174D01*
X601216Y572172D02*
Y564974D01*
Y568573D01*
X602416Y569773D01*
X604815D01*
X606014Y568573D01*
Y564974D01*
X609613Y569773D02*
X612012D01*
X613212Y568573D01*
Y564974D01*
X609613D01*
X608414Y566174D01*
X609613Y567374D01*
X613212D01*
X615611Y562575D02*
Y569773D01*
X619210D01*
X620410Y568573D01*
Y566174D01*
X619210Y564974D01*
X615611D01*
X626408D02*
X624009D01*
X622809Y566174D01*
Y568573D01*
X624009Y569773D01*
X626408D01*
X627607Y568573D01*
Y567374D01*
X622809D01*
X506243Y572172D02*
Y567374D01*
X508642Y564974D01*
X511041Y567374D01*
Y572172D01*
X513440Y564974D02*
X515840D01*
X514640D01*
Y569773D01*
X513440D01*
X520638D02*
X523037D01*
X524237Y568573D01*
Y564974D01*
X520638D01*
X519439Y566174D01*
X520638Y567374D01*
X524237D01*
X526636Y564974D02*
X531435Y569773D01*
X533834Y564974D02*
Y572172D01*
X537433D01*
X538632Y570972D01*
Y568573D01*
X537433Y567374D01*
X533834D01*
X542231Y569773D02*
X544630D01*
X545830Y568573D01*
Y564974D01*
X542231D01*
X541032Y566174D01*
X542231Y567374D01*
X545830D01*
X553028Y572172D02*
Y564974D01*
X549429D01*
X548229Y566174D01*
Y568573D01*
X549429Y569773D01*
X553028D01*
X356288Y572172D02*
Y564974D01*
X359887D01*
X361086Y566174D01*
Y570972D01*
X359887Y572172D01*
X356288D01*
X363485Y569773D02*
Y564974D01*
Y567374D01*
X364685Y568573D01*
X365885Y569773D01*
X367084D01*
X370683Y564974D02*
X373082D01*
X371883D01*
Y569773D01*
X370683D01*
X376681Y564974D02*
X379080D01*
X377881D01*
Y572172D01*
X376681D01*
X382679Y564974D02*
X385078D01*
X383879D01*
Y572172D01*
X382679D01*
X395875D02*
Y564974D01*
X400673D01*
X404272Y569773D02*
X406671D01*
X407871Y568573D01*
Y564974D01*
X404272D01*
X403073Y566174D01*
X404272Y567374D01*
X407871D01*
X410270Y569773D02*
Y566174D01*
X411470Y564974D01*
X415069D01*
Y563775D01*
X413869Y562575D01*
X412669D01*
X415069Y564974D02*
Y569773D01*
X421067Y564974D02*
X418668D01*
X417468Y566174D01*
Y568573D01*
X418668Y569773D01*
X421067D01*
X422266Y568573D01*
Y567374D01*
X417468D01*
X424665Y569773D02*
Y564974D01*
Y567374D01*
X425865Y568573D01*
X427065Y569773D01*
X428264D01*
X439061Y564974D02*
Y572172D01*
X442660D01*
X443859Y570972D01*
Y568573D01*
X442660Y567374D01*
X439061D01*
X447458Y569773D02*
X449857D01*
X451057Y568573D01*
Y564974D01*
X447458D01*
X446259Y566174D01*
X447458Y567374D01*
X451057D01*
X453456Y564974D02*
X455855D01*
X454656D01*
Y569773D01*
X453456D01*
X459454D02*
Y564974D01*
Y567374D01*
X460654Y568573D01*
X461854Y569773D01*
X463053D01*
X282908Y572172D02*
Y564974D01*
Y568573D01*
X287706D01*
Y572172D01*
Y564974D01*
X291305D02*
X293704D01*
X294904Y566174D01*
Y568573D01*
X293704Y569773D01*
X291305D01*
X290105Y568573D01*
Y566174D01*
X291305Y564974D01*
X297303D02*
X299702D01*
X298502D01*
Y572172D01*
X297303D01*
X306900Y564974D02*
X304501D01*
X303301Y566174D01*
Y568573D01*
X304501Y569773D01*
X306900D01*
X308099Y568573D01*
Y567374D01*
X303301D01*
X317696Y572172D02*
X322495D01*
X320095D01*
Y564974D01*
X324894Y569773D02*
Y566174D01*
X326094Y564974D01*
X329692D01*
Y563775D01*
X328493Y562575D01*
X327293D01*
X329692Y564974D02*
Y569773D01*
X332092Y562575D02*
Y569773D01*
X335690D01*
X336890Y568573D01*
Y566174D01*
X335690Y564974D01*
X332092D01*
X342888D02*
X340489D01*
X339289Y566174D01*
Y568573D01*
X340489Y569773D01*
X342888D01*
X344088Y568573D01*
Y567374D01*
X339289D01*
X232320Y564974D02*
Y572172D01*
X235919D01*
X237118Y570972D01*
Y568573D01*
X235919Y567374D01*
X232320D01*
X239518Y564974D02*
X241917D01*
X240717D01*
Y572172D01*
X239518D01*
X246715Y569773D02*
X249114D01*
X250314Y568573D01*
Y564974D01*
X246715D01*
X245516Y566174D01*
X246715Y567374D01*
X250314D01*
X253913Y570972D02*
Y569773D01*
X252713D01*
X255113D01*
X253913D01*
Y566174D01*
X255113Y564974D01*
X262310D02*
X259911D01*
X258711Y566174D01*
Y568573D01*
X259911Y569773D01*
X262310D01*
X263510Y568573D01*
Y567374D01*
X258711D01*
X270708Y572172D02*
Y564974D01*
X267109D01*
X265909Y566174D01*
Y568573D01*
X267109Y569773D01*
X270708D01*
X117353Y572172D02*
Y564974D01*
Y568573D01*
X122152D01*
Y572172D01*
Y564974D01*
X125751D02*
X128150D01*
X129350Y566174D01*
Y568573D01*
X128150Y569773D01*
X125751D01*
X124551Y568573D01*
Y566174D01*
X125751Y564974D01*
X131749D02*
X134148D01*
X132949D01*
Y572172D01*
X131749D01*
X141346Y564974D02*
X138947D01*
X137747Y566174D01*
Y568573D01*
X138947Y569773D01*
X141346D01*
X142545Y568573D01*
Y567374D01*
X137747D01*
X156941Y570972D02*
X155741Y572172D01*
X153342D01*
X152142Y570972D01*
Y569773D01*
X153342Y568573D01*
X155741D01*
X156941Y567374D01*
Y566174D01*
X155741Y564974D01*
X153342D01*
X152142Y566174D01*
X159340Y564974D02*
X161739D01*
X160540D01*
Y569773D01*
X159340D01*
X165338D02*
X170136D01*
X165338Y564974D01*
X170136D01*
X176135D02*
X173735D01*
X172536Y566174D01*
Y568573D01*
X173735Y569773D01*
X176135D01*
X177334Y568573D01*
Y567374D01*
X172536D01*
X63168Y570972D02*
X61968Y572172D01*
X59569D01*
X58369Y570972D01*
Y566174D01*
X59569Y564974D01*
X61968D01*
X63168Y566174D01*
X66766Y564974D02*
X69166D01*
X70365Y566174D01*
Y568573D01*
X69166Y569773D01*
X66766D01*
X65567Y568573D01*
Y566174D01*
X66766Y564974D01*
X72764Y569773D02*
Y566174D01*
X73964Y564974D01*
X77563D01*
Y569773D01*
X79962Y564974D02*
Y569773D01*
X83561D01*
X84760Y568573D01*
Y564974D01*
X88359Y570972D02*
Y569773D01*
X87160D01*
X89559D01*
X88359D01*
Y566174D01*
X89559Y564974D01*
X12580Y570972D02*
X11380Y572172D01*
X8981D01*
X7782Y570972D01*
Y569773D01*
X8981Y568573D01*
X11380D01*
X12580Y567374D01*
Y566174D01*
X11380Y564974D01*
X8981D01*
X7782Y566174D01*
X14979Y569773D02*
Y566174D01*
X16179Y564974D01*
X19778D01*
Y563775D01*
X18578Y562575D01*
X17378D01*
X19778Y564974D02*
Y569773D01*
X22177Y564974D02*
Y569773D01*
X23376D01*
X24576Y568573D01*
Y564974D01*
Y568573D01*
X25776Y569773D01*
X26975Y568573D01*
Y564974D01*
X29375Y572172D02*
Y564974D01*
X32973D01*
X34173Y566174D01*
Y567374D01*
Y568573D01*
X32973Y569773D01*
X29375D01*
X37772Y564974D02*
X40171D01*
X41371Y566174D01*
Y568573D01*
X40171Y569773D01*
X37772D01*
X36572Y568573D01*
Y566174D01*
X37772Y564974D01*
X43770D02*
X46169D01*
X44969D01*
Y572172D01*
X43770D01*
M02*
