G04*
G04 #@! TF.GenerationSoftware,Altium Limited,Altium Designer,21.3.2 (30)*
G04*
G04 Layer_Color=255*
%FSLAX25Y25*%
%MOIN*%
G70*
G04*
G04 #@! TF.SameCoordinates,3F51CCC3-8A4B-4D73-A1D2-239D5F55BC23*
G04*
G04*
G04 #@! TF.FilePolarity,Positive*
G04*
G01*
G75*
%ADD10C,0.01000*%
%ADD12C,0.00787*%
%ADD15C,0.00394*%
%ADD18R,0.03307X0.06692*%
%ADD19R,0.06692X0.03307*%
%ADD20R,0.03765X0.24488*%
%ADD21R,0.24488X0.03765*%
%ADD22R,0.11496X0.02436*%
%ADD23C,0.00197*%
%ADD86C,0.07400*%
%ADD87R,0.07400X0.07400*%
%ADD88C,0.06693*%
%ADD89C,0.05512*%
%ADD90R,0.05512X0.05512*%
%ADD91O,0.03543X0.05906*%
%ADD92R,0.06693X0.06693*%
%ADD93R,0.07400X0.07400*%
D10*
X191282Y25589D02*
G03*
X191282Y25492I-24648J-97D01*
G01*
X123937Y135307D02*
G03*
X123937Y135307I-500J0D01*
G01*
X187593Y204036D02*
G03*
X187458Y195049I166J-4497D01*
G01*
D12*
X121437Y173307D02*
X146437D01*
Y133307D02*
Y173307D01*
X121437Y133307D02*
X146437D01*
X121437D02*
Y173307D01*
Y133307D02*
Y173307D01*
X164760Y188567D02*
Y210567D01*
Y188567D02*
X187760D01*
X164760Y210567D02*
X187760D01*
Y188567D02*
Y210567D01*
D15*
X44713Y198209D02*
X85213D01*
Y214209D01*
X44713D02*
X85213D01*
X44713Y198209D02*
Y214209D01*
X72008Y145630D02*
Y161484D01*
X50197Y169543D02*
X62008D01*
X50197Y137953D02*
Y169543D01*
X72008Y161484D02*
Y169543D01*
X58697D02*
X72102D01*
X58858Y137953D02*
Y138043D01*
X50197Y137953D02*
X72102D01*
X72008D02*
Y145630D01*
X89567Y127638D02*
Y179213D01*
X101378D01*
Y127638D02*
Y179213D01*
X89567Y127638D02*
X101378D01*
X82270Y262219D02*
X85053Y259435D01*
X82270Y259435D02*
X85053Y262219D01*
X54570Y260827D02*
X83661Y289918D01*
Y231735D02*
X112753Y260827D01*
X54570D02*
X83661Y231735D01*
Y289918D02*
X112753Y260827D01*
X139173Y200394D02*
G03*
X139173Y200394I-1969J0D01*
G01*
X105512Y284055D02*
X118898D01*
X105512Y276969D02*
X118898D01*
X105512D02*
Y284055D01*
X118898Y276969D02*
Y284055D01*
X59153Y321161D02*
Y340256D01*
X13681Y321161D02*
Y340256D01*
Y321161D02*
X59153D01*
X13681Y340256D02*
X59153D01*
X55709Y250197D02*
Y263583D01*
X48622Y250197D02*
Y263583D01*
X55709D01*
X48622Y250197D02*
X55709D01*
X96063Y34252D02*
X99213Y31102D01*
X81890Y16929D02*
X99213Y16732D01*
X81890Y31102D02*
X85039Y34252D01*
X96063D01*
X99213Y16732D02*
Y31102D01*
X81890Y16929D02*
Y31102D01*
X78150Y64764D02*
X85236D01*
X78150Y51378D02*
X85236D01*
Y64764D01*
X78150Y51378D02*
Y64764D01*
X52362Y66536D02*
X65807D01*
X52362Y73228D02*
X65807D01*
Y66536D02*
Y73228D01*
X52362Y66536D02*
Y73228D01*
X31890Y43504D02*
X38976D01*
X31890Y56890D02*
X38976D01*
X31890Y43504D02*
Y56890D01*
X38976Y43504D02*
Y56890D01*
X21791Y81102D02*
X35236D01*
X21791Y74410D02*
X35236D01*
X21791D02*
Y81102D01*
X35236Y74410D02*
Y81102D01*
X45669Y109055D02*
X52756D01*
X45669Y95669D02*
X52756D01*
Y109055D01*
X45669Y95669D02*
Y109055D01*
X4528Y95847D02*
Y109291D01*
X11220Y95847D02*
Y109291D01*
X4528Y95847D02*
X11220D01*
X4528Y109291D02*
X11220D01*
X35236Y125394D02*
Y132480D01*
X21850Y125394D02*
Y132480D01*
Y125394D02*
X35236D01*
X21850Y132480D02*
X35236D01*
X52362Y237598D02*
Y244685D01*
X65748Y237598D02*
Y244685D01*
X52362D02*
X65748D01*
X52362Y237598D02*
X65748D01*
X113386Y274213D02*
X126772D01*
X113386Y267126D02*
X126772D01*
X113386D02*
Y274213D01*
X126772Y267126D02*
Y274213D01*
X158268Y305512D02*
Y312598D01*
X144882Y305512D02*
Y312598D01*
Y305512D02*
X158268D01*
X144882Y312598D02*
X158268D01*
X48425Y316535D02*
X61811D01*
X48425Y309449D02*
X61811D01*
X48425D02*
Y316535D01*
X61811Y309449D02*
Y316535D01*
X11024Y309449D02*
Y316535D01*
X24409Y309449D02*
Y316535D01*
X11024D02*
X24409D01*
X11024Y309449D02*
X24409D01*
X183287Y123583D02*
Y148071D01*
X155295Y123583D02*
Y148071D01*
Y123583D02*
X183287D01*
X155295Y148071D02*
X183287D01*
X109803Y24390D02*
Y52382D01*
X134291Y24390D02*
Y52382D01*
X109803Y24390D02*
X134291D01*
X109803Y52382D02*
X134291D01*
X91693Y68110D02*
X103189D01*
X91693Y50000D02*
X103189D01*
Y68110D01*
X91693Y50000D02*
Y68110D01*
X172638Y220768D02*
Y226083D01*
X179724Y220768D02*
Y226083D01*
X172638D02*
X179724D01*
X172638Y220768D02*
X179724D01*
X115945Y63878D02*
Y69980D01*
X128150Y63878D02*
Y69980D01*
X115945D02*
X128150D01*
X115945Y63878D02*
X128150D01*
X125000Y216535D02*
X140748D01*
X125000Y196850D02*
X140748D01*
X125000D02*
Y216535D01*
X140748Y196850D02*
Y216535D01*
X179331Y159449D02*
X184843D01*
X179331Y171260D02*
X184843D01*
Y159449D02*
Y171260D01*
X179331Y159449D02*
Y171260D01*
X15354Y95669D02*
X41732D01*
X15354Y110236D02*
X41732D01*
X15354Y95669D02*
Y110236D01*
X41732Y95669D02*
Y110236D01*
X148622Y60236D02*
Y65748D01*
Y60236D02*
X160433D01*
X148622Y65748D02*
X160433D01*
Y60236D02*
Y65748D01*
X82677Y307283D02*
Y312795D01*
X70866D02*
X82677D01*
X70866Y307283D02*
X82677D01*
X70866D02*
Y312795D01*
X123031Y307283D02*
Y312795D01*
X111221D02*
X123031D01*
X111221Y307283D02*
X123031D01*
X111221D02*
Y312795D01*
X137795Y307283D02*
Y312795D01*
X125984D02*
X137795D01*
X125984Y307283D02*
X137795D01*
X125984D02*
Y312795D01*
X153248Y158957D02*
Y171752D01*
X159744Y158957D02*
Y171752D01*
X153248Y158957D02*
X159744D01*
X153248Y171752D02*
X159744D01*
X169783Y237500D02*
X182579D01*
X169783Y231004D02*
X182579D01*
X169783D02*
Y237500D01*
X182579Y231004D02*
Y237500D01*
X172539Y158957D02*
Y171752D01*
X166043Y158957D02*
Y171752D01*
X172539D01*
X166043Y158957D02*
X172539D01*
X120571Y12106D02*
X133366D01*
X120571Y5610D02*
X133366D01*
X120571D02*
Y12106D01*
X133366Y5610D02*
Y12106D01*
X145177Y324114D02*
X157972D01*
X145177Y317618D02*
X157972D01*
X145177D02*
Y324114D01*
X157972Y317618D02*
Y324114D01*
X80020Y326279D02*
Y339075D01*
X73524Y326279D02*
Y339075D01*
X80020D01*
X73524Y326279D02*
X80020D01*
X120374D02*
Y339075D01*
X113878Y326279D02*
Y339075D01*
X120374D01*
X113878Y326279D02*
X120374D01*
X135138D02*
Y339075D01*
X128642Y326279D02*
Y339075D01*
X135138D01*
X128642Y326279D02*
X135138D01*
X93012Y209350D02*
X105807D01*
X93012Y215846D02*
X105807D01*
Y209350D02*
Y215846D01*
X93012Y209350D02*
Y215846D01*
Y198524D02*
X105807D01*
X93012Y205020D02*
X105807D01*
Y198524D02*
Y205020D01*
X93012Y198524D02*
Y205020D01*
X112205Y278543D02*
Y282480D01*
X110236Y280512D02*
X114173D01*
X34449Y330709D02*
X38386D01*
X36417Y328740D02*
Y332677D01*
X50197Y256890D02*
X54134D01*
X52165Y254921D02*
Y258858D01*
X90551Y23622D02*
Y27559D01*
X88583Y25591D02*
X92520D01*
X81693Y56102D02*
Y60039D01*
X79724Y58071D02*
X83661D01*
X59055Y67913D02*
Y71850D01*
X57087Y69882D02*
X61024D01*
X35433Y48228D02*
Y52165D01*
X33465Y50197D02*
X37402D01*
X28543Y75787D02*
Y79724D01*
X26575Y77756D02*
X30512D01*
X49213Y100394D02*
Y104331D01*
X47244Y102362D02*
X51181D01*
X5906Y102598D02*
X9843D01*
X7874Y100630D02*
Y104567D01*
X26575Y128937D02*
X30512D01*
X28543Y126969D02*
Y130905D01*
X57087Y241142D02*
X61024D01*
X59055Y239173D02*
Y243110D01*
X120079Y268701D02*
Y272638D01*
X118110Y270669D02*
X122047D01*
X149606Y309055D02*
X153543D01*
X151575Y307087D02*
Y311024D01*
X55118D02*
Y314961D01*
X53150Y312992D02*
X57087D01*
X15748D02*
X19685D01*
X17717Y311024D02*
Y314961D01*
X167323Y135827D02*
X171260D01*
X169291Y133858D02*
Y137795D01*
X120079Y38386D02*
X124016D01*
X122047Y36417D02*
Y40354D01*
X97441Y57087D02*
Y61024D01*
X95472Y59055D02*
X99409D01*
X174213Y223425D02*
X178150D01*
X176181Y221457D02*
Y225394D01*
X120079Y66929D02*
X124016D01*
X122047Y64961D02*
Y68898D01*
X132874Y204724D02*
Y208661D01*
X130905Y206693D02*
X134843D01*
X182087Y163386D02*
Y167323D01*
X180118Y165354D02*
X184055D01*
X28543Y100984D02*
Y104921D01*
X26575Y102953D02*
X30512D01*
X154528Y61024D02*
Y64961D01*
X152559Y62992D02*
X156496D01*
X76772Y308071D02*
Y312008D01*
X74803Y310039D02*
X78740D01*
X117126Y308071D02*
Y312008D01*
X115157Y310039D02*
X119095D01*
X131890Y308071D02*
Y312008D01*
X129921Y310039D02*
X133858D01*
X154528Y165354D02*
X158465D01*
X156496Y163386D02*
Y167323D01*
X176181Y232283D02*
Y236221D01*
X174213Y234252D02*
X178150D01*
X167323Y165354D02*
X171260D01*
X169291Y163386D02*
Y167323D01*
X126969Y6890D02*
Y10827D01*
X125000Y8858D02*
X128937D01*
X151575Y318898D02*
Y322835D01*
X149606Y320866D02*
X153543D01*
X74803Y332677D02*
X78740D01*
X76772Y330709D02*
Y334646D01*
X115157Y332677D02*
X119095D01*
X117126Y330709D02*
Y334646D01*
X129921Y332677D02*
X133858D01*
X131890Y330709D02*
Y334646D01*
X99410Y210630D02*
Y214567D01*
X97441Y212598D02*
X101378D01*
X99410Y199803D02*
Y203740D01*
X97441Y201772D02*
X101378D01*
D18*
X53959Y69881D02*
D03*
X33640Y77755D02*
D03*
D19*
X7873Y107696D02*
D03*
D20*
X157178Y135827D02*
D03*
D21*
X122047Y26272D02*
D03*
D22*
X97443Y51219D02*
D03*
D23*
X102953Y285039D02*
X121457D01*
X102953Y275984D02*
X121457D01*
X102953D02*
Y285039D01*
X121457Y275984D02*
Y285039D01*
X60138Y320177D02*
Y341240D01*
X12697Y320177D02*
Y341240D01*
Y320177D02*
X60138D01*
X12697Y341240D02*
X60138D01*
X56693Y247638D02*
Y266142D01*
X47638Y247638D02*
Y266142D01*
X56693D01*
X47638Y247638D02*
X56693D01*
X80709Y38583D02*
X100394D01*
X80709Y12598D02*
X100394D01*
Y38583D01*
X80709Y12598D02*
Y38583D01*
X77165Y67323D02*
X86221D01*
X77165Y48819D02*
X86221D01*
Y67323D01*
X77165Y48819D02*
Y67323D01*
X49370Y65551D02*
Y74213D01*
Y65551D02*
X68740D01*
X49370Y74213D02*
X68740D01*
Y65551D02*
Y74213D01*
X30906Y40945D02*
X39961D01*
X30906Y59449D02*
X39961D01*
X30906Y40945D02*
Y59449D01*
X39961Y40945D02*
Y59449D01*
X38228Y73425D02*
Y82087D01*
X18858D02*
X38228D01*
X18858Y73425D02*
X38228D01*
X18858D02*
Y82087D01*
X44685Y111614D02*
X53740D01*
X44685Y93110D02*
X53740D01*
Y111614D01*
X44685Y93110D02*
Y111614D01*
X3543Y112284D02*
X12205D01*
X3543Y92913D02*
Y112284D01*
X12205Y92913D02*
Y112284D01*
X3543Y92913D02*
X12205D01*
X37795Y124409D02*
Y133465D01*
X19291Y124409D02*
Y133465D01*
Y124409D02*
X37795D01*
X19291Y133465D02*
X37795D01*
X49803Y236614D02*
Y245669D01*
X68307Y236614D02*
Y245669D01*
X49803D02*
X68307D01*
X49803Y236614D02*
X68307D01*
X110827Y275197D02*
X129331D01*
X110827Y266142D02*
X129331D01*
X110827D02*
Y275197D01*
X129331Y266142D02*
Y275197D01*
X160827Y304528D02*
Y313583D01*
X142323Y304528D02*
Y313583D01*
Y304528D02*
X160827D01*
X142323Y313583D02*
X160827D01*
X45866Y317520D02*
X64370D01*
X45866Y308465D02*
X64370D01*
X45866D02*
Y317520D01*
X64370Y308465D02*
Y317520D01*
X8465Y308465D02*
Y317520D01*
X26969Y308465D02*
Y317520D01*
X8465D02*
X26969D01*
X8465Y308465D02*
X26969D01*
X187008Y122441D02*
Y149213D01*
X151575Y122441D02*
Y149213D01*
Y122441D02*
X187008D01*
X151575Y149213D02*
X187008D01*
X108661Y20669D02*
Y56102D01*
X135433Y20669D02*
Y56102D01*
X108661Y20669D02*
X135433D01*
X108661Y56102D02*
X135433D01*
X90551Y73055D02*
X104331D01*
X90551Y45055D02*
X104331D01*
Y73055D01*
X90551Y45055D02*
Y73055D01*
X169488Y220079D02*
Y226772D01*
X182874Y220079D02*
Y226772D01*
X169488D02*
X182874D01*
X169488Y220079D02*
X182874D01*
X112008Y62894D02*
Y70965D01*
X132087Y62894D02*
Y70965D01*
X112008D02*
X132087D01*
X112008Y62894D02*
X132087D01*
X118307Y217520D02*
X147441D01*
X118307Y195866D02*
X147441D01*
X118307D02*
Y217520D01*
X147441Y195866D02*
Y217520D01*
X175787Y158465D02*
X188386D01*
X175787Y172244D02*
X188386D01*
Y158465D02*
Y172244D01*
X175787Y158465D02*
Y172244D01*
X14370Y86221D02*
X42717D01*
X14370Y119685D02*
X42717D01*
X14370Y86221D02*
Y119685D01*
X42717Y86221D02*
Y119685D01*
X147638Y69685D02*
X161417D01*
X147638Y56299D02*
X161417D01*
Y69685D01*
X147638Y56299D02*
Y69685D01*
X69882Y303346D02*
X83661D01*
X69882Y316732D02*
X83661D01*
X69882Y303346D02*
Y316732D01*
X83661Y303346D02*
Y316732D01*
X110236Y303346D02*
X124016D01*
X110236Y316732D02*
X124016D01*
X110236Y303346D02*
Y316732D01*
X124016Y303346D02*
Y316732D01*
X125000Y303346D02*
X138779D01*
X125000Y316732D02*
X138779D01*
X125000Y303346D02*
Y316732D01*
X138779Y303346D02*
Y316732D01*
X152165Y156496D02*
Y174213D01*
X160827Y156496D02*
Y174213D01*
X152165Y156496D02*
X160827D01*
X152165Y174213D02*
X160827D01*
X167323Y238583D02*
X185039D01*
X167323Y229921D02*
X185039D01*
X167323D02*
Y238583D01*
X185039Y229921D02*
Y238583D01*
X173622Y156496D02*
Y174213D01*
X164961Y156496D02*
Y174213D01*
X173622D01*
X164961Y156496D02*
X173622D01*
X118110Y13189D02*
X135827D01*
X118110Y4528D02*
X135827D01*
X118110D02*
Y13189D01*
X135827Y4528D02*
Y13189D01*
X142717Y325197D02*
X160433D01*
X142717Y316535D02*
X160433D01*
X142717D02*
Y325197D01*
X160433Y316535D02*
Y325197D01*
X81102Y323819D02*
Y341535D01*
X72441Y323819D02*
Y341535D01*
X81102D01*
X72441Y323819D02*
X81102D01*
X121457D02*
Y341535D01*
X112795Y323819D02*
Y341535D01*
X121457D01*
X112795Y323819D02*
X121457D01*
X136221D02*
Y341535D01*
X127559Y323819D02*
Y341535D01*
X136221D01*
X127559Y323819D02*
X136221D01*
X90551Y208268D02*
X108268D01*
X90551Y216929D02*
X108268D01*
Y208268D02*
Y216929D01*
X90551Y208268D02*
Y216929D01*
Y197441D02*
X108268D01*
X90551Y206102D02*
X108268D01*
Y197441D02*
Y206102D01*
X90551Y197441D02*
Y206102D01*
D86*
X10827Y147638D02*
D03*
Y157638D02*
D03*
Y167638D02*
D03*
Y177638D02*
D03*
Y187638D02*
D03*
Y197638D02*
D03*
Y207638D02*
D03*
X136417Y290354D02*
D03*
X126417D02*
D03*
X116417D02*
D03*
X106417D02*
D03*
X96417D02*
D03*
X86417D02*
D03*
X76417D02*
D03*
X66417D02*
D03*
X56417D02*
D03*
X46417D02*
D03*
X36417D02*
D03*
Y230354D02*
D03*
X46417D02*
D03*
X56417D02*
D03*
X66417D02*
D03*
X76417D02*
D03*
X86417D02*
D03*
X96417D02*
D03*
X106417D02*
D03*
X116417D02*
D03*
X126417D02*
D03*
X136417D02*
D03*
X146417D02*
D03*
X156417Y235354D02*
D03*
Y245354D02*
D03*
Y255354D02*
D03*
Y265354D02*
D03*
Y275354D02*
D03*
Y285354D02*
D03*
X36417Y240354D02*
D03*
Y250354D02*
D03*
Y260354D02*
D03*
X101417Y240354D02*
D03*
X111417D02*
D03*
D87*
X10827Y217638D02*
D03*
D88*
X181496Y25591D02*
D03*
X151575D02*
D03*
X56102Y163543D02*
D03*
Y153543D02*
D03*
Y143543D02*
D03*
X66102Y153543D02*
D03*
Y143543D02*
D03*
X95472Y173543D02*
D03*
Y163543D02*
D03*
Y143543D02*
D03*
Y153543D02*
D03*
D89*
X171260Y184567D02*
D03*
X181260D02*
D03*
X171260Y214567D02*
D03*
X138937Y138307D02*
D03*
X128937Y168307D02*
D03*
X138937D02*
D03*
D90*
X181260Y214567D02*
D03*
X128937Y138307D02*
D03*
D91*
X98957Y332677D02*
D03*
X93957D02*
D03*
X88957D02*
D03*
X103957D02*
D03*
D92*
X66102Y163543D02*
D03*
X95472Y133543D02*
D03*
D93*
X146417Y290354D02*
D03*
M02*
