G04*
G04 #@! TF.GenerationSoftware,Altium Limited,Altium Designer,21.3.2 (30)*
G04*
G04 Layer_Color=65535*
%FSLAX25Y25*%
%MOIN*%
G70*
G04*
G04 #@! TF.SameCoordinates,3F51CCC3-8A4B-4D73-A1D2-239D5F55BC23*
G04*
G04*
G04 #@! TF.FilePolarity,Positive*
G04*
G01*
G75*
%ADD10C,0.01000*%
%ADD11C,0.00984*%
%ADD12C,0.00787*%
%ADD13C,0.02362*%
%ADD14C,0.00591*%
%ADD15C,0.00394*%
%ADD16R,0.00591X0.02362*%
%ADD17R,0.02362X0.00591*%
%ADD18R,0.03307X0.06692*%
%ADD19R,0.06692X0.03307*%
%ADD20R,0.03765X0.24488*%
%ADD21R,0.24488X0.03765*%
%ADD22R,0.11496X0.02436*%
%ADD23C,0.00197*%
G36*
X137992Y196850D02*
X137205D01*
Y197242D01*
X137504Y197966D01*
X138058Y198519D01*
X138782Y198819D01*
X139173D01*
X137992Y196850D01*
D02*
G37*
G36*
X100984Y118769D02*
X101138D01*
Y118692D01*
X101292D01*
Y118615D01*
X101446D01*
Y118538D01*
X101678D01*
Y118461D01*
X101755D01*
Y118384D01*
X101601D01*
Y118307D01*
Y118230D01*
Y118153D01*
X101523D01*
Y118076D01*
X101446D01*
Y117999D01*
Y117922D01*
Y117845D01*
X101369D01*
Y117768D01*
X101292D01*
Y117691D01*
Y117614D01*
X101215D01*
Y117537D01*
Y117460D01*
X101138D01*
Y117383D01*
Y117306D01*
X101061D01*
Y117229D01*
Y117152D01*
Y117075D01*
X100984D01*
Y116998D01*
X100907D01*
Y116921D01*
Y116844D01*
Y116767D01*
X100830D01*
Y116690D01*
Y116613D01*
X100753D01*
Y116536D01*
X100676D01*
Y116459D01*
Y116382D01*
Y116305D01*
Y116227D01*
X100599D01*
Y116150D01*
Y116073D01*
X100522D01*
Y115996D01*
Y115919D01*
Y115842D01*
X100445D01*
Y115765D01*
Y115688D01*
X100368D01*
Y115611D01*
Y115534D01*
Y115457D01*
X100291D01*
Y115380D01*
X100214D01*
Y115303D01*
Y115226D01*
Y115149D01*
Y115072D01*
X100137D01*
Y114995D01*
Y114918D01*
X100060D01*
Y114841D01*
X99983D01*
Y114764D01*
Y114687D01*
Y114610D01*
Y114533D01*
X99906D01*
Y114456D01*
Y114379D01*
X99829D01*
Y114302D01*
Y114225D01*
Y114148D01*
X99752D01*
Y114071D01*
Y113994D01*
Y113917D01*
X99675D01*
Y113840D01*
Y113762D01*
Y113686D01*
X99598D01*
Y113609D01*
X99521D01*
Y113531D01*
Y113454D01*
Y113377D01*
X99444D01*
Y113300D01*
Y113223D01*
Y113146D01*
X99367D01*
Y113069D01*
Y112992D01*
X99290D01*
Y112915D01*
Y112838D01*
Y112761D01*
Y112684D01*
X99213D01*
Y112607D01*
Y112530D01*
X99136D01*
Y112453D01*
Y112376D01*
Y112299D01*
Y112222D01*
X99059D01*
Y112145D01*
X98981D01*
Y112068D01*
Y111991D01*
Y111914D01*
Y111837D01*
X98905D01*
Y111760D01*
Y111683D01*
Y111606D01*
X98827D01*
Y111529D01*
X98750D01*
Y111452D01*
Y111375D01*
Y111298D01*
Y111221D01*
X98673D01*
Y111144D01*
Y111066D01*
X98596D01*
Y110989D01*
Y110912D01*
Y110835D01*
Y110758D01*
X98519D01*
Y110681D01*
Y110604D01*
X98442D01*
Y110527D01*
Y110450D01*
Y110373D01*
Y110296D01*
X98365D01*
Y110219D01*
X98288D01*
Y110142D01*
Y110065D01*
X98211D01*
Y110142D01*
X98134D01*
Y110219D01*
X98211D01*
Y110296D01*
Y110373D01*
X98288D01*
Y110450D01*
Y110527D01*
Y110604D01*
X98365D01*
Y110681D01*
Y110758D01*
Y110835D01*
Y110912D01*
X98442D01*
Y110989D01*
Y111066D01*
Y111144D01*
X98519D01*
Y111221D01*
Y111298D01*
Y111375D01*
Y111452D01*
Y111529D01*
X98596D01*
Y111606D01*
Y111683D01*
X98673D01*
Y111760D01*
Y111837D01*
X98750D01*
Y111914D01*
X98673D01*
Y111991D01*
X98750D01*
Y112068D01*
Y112145D01*
Y112222D01*
X98827D01*
Y112299D01*
Y112376D01*
X98905D01*
Y112453D01*
Y112530D01*
Y112607D01*
Y112684D01*
X98981D01*
Y112761D01*
Y112838D01*
Y112915D01*
X99059D01*
Y112992D01*
Y113069D01*
Y113146D01*
Y113223D01*
X99136D01*
Y113300D01*
Y113377D01*
X99213D01*
Y113454D01*
Y113531D01*
Y113609D01*
Y113686D01*
Y113762D01*
X99290D01*
Y113840D01*
Y113917D01*
X99367D01*
Y113994D01*
Y114071D01*
X99444D01*
Y114148D01*
Y114225D01*
Y114302D01*
Y114379D01*
X99521D01*
Y114456D01*
Y114533D01*
Y114610D01*
X99598D01*
Y114687D01*
Y114764D01*
Y114841D01*
Y114918D01*
X99675D01*
Y114995D01*
Y115072D01*
X99752D01*
Y115149D01*
Y115226D01*
Y115303D01*
Y115380D01*
X99829D01*
Y115457D01*
Y115534D01*
X99906D01*
Y115611D01*
Y115688D01*
Y115765D01*
X99983D01*
Y115842D01*
X99906D01*
Y115919D01*
X99983D01*
Y115996D01*
Y116073D01*
X100060D01*
Y116150D01*
Y116227D01*
Y116305D01*
X100137D01*
Y116382D01*
Y116459D01*
Y116536D01*
Y116613D01*
X100214D01*
Y116690D01*
Y116767D01*
X100291D01*
Y116844D01*
Y116921D01*
Y116998D01*
Y117075D01*
X100368D01*
Y117152D01*
Y117229D01*
X100445D01*
Y117306D01*
Y117383D01*
Y117460D01*
Y117537D01*
X100522D01*
Y117614D01*
Y117691D01*
X100599D01*
Y117768D01*
Y117845D01*
X100676D01*
Y117922D01*
Y117999D01*
Y118076D01*
Y118153D01*
Y118230D01*
X100753D01*
Y118307D01*
Y118384D01*
X100830D01*
Y118461D01*
Y118538D01*
Y118615D01*
Y118692D01*
X100907D01*
Y118769D01*
Y118846D01*
X100984D01*
Y118769D01*
D02*
G37*
G36*
X98211Y109911D02*
Y109834D01*
Y109757D01*
Y109680D01*
X98134D01*
Y109603D01*
Y109526D01*
X98057D01*
Y109449D01*
Y109372D01*
Y109295D01*
Y109218D01*
X97980D01*
Y109295D01*
Y109372D01*
Y109449D01*
Y109526D01*
Y109603D01*
X98057D01*
Y109680D01*
Y109757D01*
Y109834D01*
X98134D01*
Y109911D01*
Y109988D01*
X98211D01*
Y109911D01*
D02*
G37*
G36*
X90893Y118692D02*
Y118615D01*
Y118538D01*
X90970D01*
Y118461D01*
Y118384D01*
X91048D01*
Y118307D01*
Y118230D01*
Y118153D01*
Y118076D01*
Y117999D01*
X91124D01*
Y117922D01*
Y117845D01*
X91202D01*
Y117768D01*
Y117691D01*
Y117614D01*
Y117537D01*
X91279D01*
Y117460D01*
Y117383D01*
X91356D01*
Y117306D01*
Y117229D01*
X91433D01*
Y117152D01*
X91356D01*
Y117075D01*
X91433D01*
Y116998D01*
Y116921D01*
X91510D01*
Y116844D01*
Y116767D01*
X91587D01*
Y116690D01*
Y116613D01*
Y116536D01*
Y116459D01*
X91664D01*
Y116382D01*
Y116305D01*
Y116227D01*
X91741D01*
Y116150D01*
Y116073D01*
Y115996D01*
Y115919D01*
X91818D01*
Y115842D01*
Y115765D01*
X91895D01*
Y115688D01*
Y115611D01*
Y115534D01*
Y115457D01*
Y115380D01*
X91972D01*
Y115303D01*
Y115226D01*
X92049D01*
Y115149D01*
Y115072D01*
X92126D01*
Y114995D01*
X92049D01*
Y114918D01*
X92126D01*
Y114841D01*
Y114764D01*
X92203D01*
Y114687D01*
Y114610D01*
X92280D01*
Y114533D01*
Y114456D01*
Y114379D01*
Y114302D01*
Y114225D01*
X92357D01*
Y114148D01*
Y114071D01*
X92434D01*
Y113994D01*
Y113917D01*
Y113840D01*
Y113762D01*
X92511D01*
Y113686D01*
Y113609D01*
X92588D01*
Y113531D01*
Y113454D01*
Y113377D01*
X92665D01*
Y113300D01*
X92588D01*
Y113223D01*
X92665D01*
Y113146D01*
Y113069D01*
X92742D01*
Y112992D01*
Y112915D01*
X92819D01*
Y112838D01*
Y112761D01*
Y112684D01*
Y112607D01*
Y112530D01*
X92896D01*
Y112453D01*
Y112376D01*
X92973D01*
Y112299D01*
Y112222D01*
Y112145D01*
Y112068D01*
Y111991D01*
X93050D01*
Y111914D01*
Y111837D01*
X93127D01*
Y111760D01*
Y111683D01*
Y111606D01*
Y111529D01*
X93204D01*
Y111452D01*
Y111375D01*
Y111298D01*
X93281D01*
Y111221D01*
Y111144D01*
X93358D01*
Y111066D01*
X93281D01*
Y110989D01*
Y110912D01*
X93358D01*
Y110835D01*
Y110758D01*
X93435D01*
Y110681D01*
Y110604D01*
X93512D01*
Y110527D01*
Y110450D01*
Y110373D01*
Y110296D01*
Y110219D01*
X93590D01*
Y110142D01*
Y110065D01*
Y109988D01*
X93666D01*
Y109911D01*
Y109834D01*
Y109757D01*
Y109680D01*
Y109603D01*
X93743D01*
Y109526D01*
Y109449D01*
X93821D01*
Y109372D01*
Y109295D01*
Y109218D01*
Y109141D01*
X93743D01*
Y109218D01*
Y109295D01*
Y109372D01*
X93666D01*
Y109449D01*
Y109526D01*
X93590D01*
Y109603D01*
Y109680D01*
Y109757D01*
Y109834D01*
Y109911D01*
X93512D01*
Y109988D01*
Y110065D01*
X93435D01*
Y110142D01*
Y110219D01*
Y110296D01*
X93358D01*
Y110373D01*
Y110450D01*
X93281D01*
Y110527D01*
Y110604D01*
Y110681D01*
Y110758D01*
X93204D01*
Y110835D01*
Y110912D01*
X93127D01*
Y110989D01*
Y111066D01*
X93050D01*
Y111144D01*
X93127D01*
Y111221D01*
X93050D01*
Y111298D01*
Y111375D01*
X92973D01*
Y111452D01*
Y111529D01*
X92896D01*
Y111606D01*
Y111683D01*
Y111760D01*
Y111837D01*
X92819D01*
Y111914D01*
Y111991D01*
X92742D01*
Y112068D01*
Y112145D01*
Y112222D01*
X92665D01*
Y112299D01*
Y112376D01*
X92588D01*
Y112453D01*
Y112530D01*
Y112607D01*
Y112684D01*
X92511D01*
Y112761D01*
Y112838D01*
X92434D01*
Y112915D01*
Y112992D01*
X92357D01*
Y113069D01*
Y113146D01*
Y113223D01*
X92280D01*
Y113300D01*
Y113377D01*
X92203D01*
Y113454D01*
Y113531D01*
Y113609D01*
Y113686D01*
X92126D01*
Y113762D01*
Y113840D01*
X92049D01*
Y113917D01*
Y113994D01*
Y114071D01*
X91972D01*
Y114148D01*
Y114225D01*
X91895D01*
Y114302D01*
Y114379D01*
X91818D01*
Y114456D01*
X91895D01*
Y114533D01*
X91818D01*
Y114610D01*
X91741D01*
Y114687D01*
Y114764D01*
Y114841D01*
X91664D01*
Y114918D01*
Y114995D01*
Y115072D01*
X91587D01*
Y115149D01*
X91510D01*
Y115226D01*
Y115303D01*
Y115380D01*
Y115457D01*
X91433D01*
Y115534D01*
Y115611D01*
X91356D01*
Y115688D01*
Y115765D01*
Y115842D01*
X91279D01*
Y115919D01*
Y115996D01*
X91202D01*
Y116073D01*
X91124D01*
Y116150D01*
Y116227D01*
Y116305D01*
Y116382D01*
X91048D01*
Y116459D01*
X90970D01*
Y116536D01*
Y116613D01*
Y116690D01*
Y116767D01*
X90893D01*
Y116844D01*
X90816D01*
Y116921D01*
Y116998D01*
Y117075D01*
X90739D01*
Y117152D01*
Y117229D01*
X90662D01*
Y117306D01*
X90585D01*
Y117383D01*
Y117460D01*
Y117537D01*
X90508D01*
Y117614D01*
X90431D01*
Y117691D01*
Y117768D01*
Y117845D01*
X90354D01*
Y117922D01*
Y117999D01*
X90277D01*
Y118076D01*
Y118153D01*
X90200D01*
Y118230D01*
Y118307D01*
X90123D01*
Y118384D01*
X90046D01*
Y118461D01*
X90123D01*
Y118538D01*
X90354D01*
Y118615D01*
X90508D01*
Y118692D01*
X90662D01*
Y118769D01*
X90893D01*
Y118692D01*
D02*
G37*
G36*
X97903Y108987D02*
Y108910D01*
Y108833D01*
X97826D01*
Y108910D01*
Y108987D01*
Y109064D01*
X97903D01*
Y108987D01*
D02*
G37*
G36*
X94052Y108602D02*
Y108525D01*
Y108448D01*
X93975D01*
Y108525D01*
Y108602D01*
Y108679D01*
X94052D01*
Y108602D01*
D02*
G37*
G36*
X97749Y108448D02*
Y108370D01*
Y108293D01*
X97672D01*
Y108370D01*
Y108448D01*
Y108525D01*
X97749D01*
Y108448D01*
D02*
G37*
G36*
X97672Y108216D02*
Y108139D01*
X97595D01*
Y108216D01*
Y108293D01*
X97672D01*
Y108216D01*
D02*
G37*
G36*
X104605Y117075D02*
X104682D01*
Y116998D01*
X104836D01*
Y116921D01*
X104990D01*
Y116844D01*
X105144D01*
Y116767D01*
X105221D01*
Y116690D01*
X105144D01*
Y116613D01*
X105067D01*
Y116536D01*
Y116459D01*
X104990D01*
Y116382D01*
X104913D01*
Y116305D01*
Y116227D01*
Y116150D01*
X104759D01*
Y116073D01*
Y115996D01*
Y115919D01*
X104682D01*
Y115842D01*
X104605D01*
Y115765D01*
Y115688D01*
X104528D01*
Y115611D01*
X104451D01*
Y115534D01*
Y115457D01*
X104374D01*
Y115380D01*
X104297D01*
Y115303D01*
Y115226D01*
X104219D01*
Y115149D01*
Y115072D01*
X104142D01*
Y114995D01*
Y114918D01*
X104066D01*
Y114841D01*
Y114764D01*
X103911D01*
Y114687D01*
Y114610D01*
Y114533D01*
X103834D01*
Y114456D01*
X103757D01*
Y114379D01*
X103680D01*
Y114302D01*
Y114225D01*
X103603D01*
Y114148D01*
Y114071D01*
X103526D01*
Y113994D01*
Y113917D01*
X103449D01*
Y113840D01*
X103372D01*
Y113762D01*
Y113686D01*
X103295D01*
Y113609D01*
Y113531D01*
X103141D01*
Y113454D01*
Y113377D01*
X103064D01*
Y113300D01*
Y113223D01*
X102987D01*
Y113146D01*
Y113069D01*
X102910D01*
Y112992D01*
X102833D01*
Y112915D01*
Y112838D01*
X102756D01*
Y112761D01*
Y112684D01*
X102679D01*
Y112607D01*
Y112530D01*
X102602D01*
Y112453D01*
X102525D01*
Y112376D01*
X102448D01*
Y112299D01*
Y112222D01*
Y112145D01*
X102294D01*
Y112068D01*
Y111991D01*
Y111914D01*
X102217D01*
Y111837D01*
X102140D01*
Y111760D01*
Y111683D01*
X102063D01*
Y111606D01*
X101986D01*
Y111529D01*
Y111452D01*
X101909D01*
Y111375D01*
Y111298D01*
X101832D01*
Y111221D01*
Y111144D01*
X101755D01*
Y111066D01*
X101678D01*
Y110989D01*
X101601D01*
Y110912D01*
Y110835D01*
Y110758D01*
X101446D01*
Y110681D01*
Y110604D01*
Y110527D01*
X101369D01*
Y110450D01*
X101292D01*
Y110373D01*
Y110296D01*
X101215D01*
Y110219D01*
X101138D01*
Y110142D01*
Y110065D01*
X101061D01*
Y109988D01*
Y109911D01*
X100984D01*
Y109834D01*
Y109757D01*
X100907D01*
Y109680D01*
X100830D01*
Y109603D01*
Y109526D01*
X100676D01*
Y109449D01*
X100753D01*
Y109372D01*
X100599D01*
Y109295D01*
Y109218D01*
X100522D01*
Y109141D01*
Y109064D01*
X100445D01*
Y108987D01*
X100368D01*
Y108910D01*
Y108833D01*
X100291D01*
Y108756D01*
Y108679D01*
X100214D01*
Y108602D01*
Y108525D01*
X100137D01*
Y108448D01*
Y108370D01*
X99983D01*
Y108293D01*
Y108216D01*
Y108139D01*
X99829D01*
Y108062D01*
Y107985D01*
Y107908D01*
X99752D01*
Y107831D01*
X99675D01*
Y107754D01*
Y107677D01*
X99598D01*
Y107600D01*
X99521D01*
Y107677D01*
Y107754D01*
X99598D01*
Y107831D01*
Y107908D01*
Y107985D01*
X99675D01*
Y108062D01*
X99752D01*
Y108139D01*
Y108216D01*
Y108293D01*
X99829D01*
Y108370D01*
X99906D01*
Y108448D01*
Y108525D01*
Y108602D01*
X99983D01*
Y108679D01*
X100060D01*
Y108756D01*
X100137D01*
Y108833D01*
Y108910D01*
Y108987D01*
X100214D01*
Y109064D01*
X100291D01*
Y109141D01*
Y109218D01*
Y109295D01*
X100368D01*
Y109372D01*
X100445D01*
Y109449D01*
Y109526D01*
Y109603D01*
X100522D01*
Y109680D01*
Y109757D01*
X100599D01*
Y109834D01*
Y109911D01*
X100676D01*
Y109988D01*
Y110065D01*
X100753D01*
Y110142D01*
X100830D01*
Y110219D01*
Y110296D01*
Y110373D01*
X100907D01*
Y110450D01*
X100984D01*
Y110527D01*
Y110604D01*
X101061D01*
Y110681D01*
Y110758D01*
X101138D01*
Y110835D01*
Y110912D01*
Y110989D01*
X101215D01*
Y111066D01*
X101292D01*
Y111144D01*
X101369D01*
Y111221D01*
Y111298D01*
Y111375D01*
X101446D01*
Y111452D01*
Y111529D01*
X101523D01*
Y111606D01*
Y111683D01*
X101601D01*
Y111760D01*
Y111837D01*
X101678D01*
Y111914D01*
Y111991D01*
X101755D01*
Y112068D01*
X101832D01*
Y112145D01*
Y112222D01*
Y112299D01*
X101909D01*
Y112376D01*
X101986D01*
Y112453D01*
Y112530D01*
X102063D01*
Y112607D01*
Y112684D01*
Y112761D01*
X102140D01*
Y112838D01*
X102217D01*
Y112915D01*
Y112992D01*
X102294D01*
Y113069D01*
X102371D01*
Y113146D01*
Y113223D01*
Y113300D01*
X102448D01*
Y113377D01*
Y113454D01*
X102525D01*
Y113531D01*
X102602D01*
Y113609D01*
Y113686D01*
Y113762D01*
X102679D01*
Y113840D01*
X102756D01*
Y113917D01*
Y113994D01*
X102833D01*
Y114071D01*
Y114148D01*
X102910D01*
Y114225D01*
Y114302D01*
X102987D01*
Y114379D01*
Y114456D01*
X103064D01*
Y114533D01*
X103141D01*
Y114610D01*
X103064D01*
Y114687D01*
X103218D01*
Y114764D01*
Y114841D01*
X103295D01*
Y114918D01*
Y114995D01*
X103372D01*
Y115072D01*
Y115149D01*
X103449D01*
Y115226D01*
Y115303D01*
Y115380D01*
X103603D01*
Y115457D01*
Y115534D01*
Y115611D01*
X103680D01*
Y115688D01*
Y115765D01*
X103757D01*
Y115842D01*
X103834D01*
Y115919D01*
Y115996D01*
Y116073D01*
X103988D01*
Y116150D01*
Y116227D01*
Y116305D01*
X104066D01*
Y116382D01*
Y116459D01*
X104142D01*
Y116536D01*
Y116613D01*
X104219D01*
Y116690D01*
Y116767D01*
X104297D01*
Y116844D01*
Y116921D01*
X104374D01*
Y116998D01*
X104451D01*
Y117075D01*
Y117152D01*
X104605D01*
Y117075D01*
D02*
G37*
G36*
X102833Y117922D02*
X102910D01*
Y117845D01*
X103064D01*
Y117768D01*
X103218D01*
Y117691D01*
X103372D01*
Y117614D01*
X103526D01*
Y117537D01*
X103449D01*
Y117460D01*
X103372D01*
Y117383D01*
Y117306D01*
X103295D01*
Y117229D01*
X103218D01*
Y117152D01*
Y117075D01*
X103141D01*
Y116998D01*
Y116921D01*
X102987D01*
Y116844D01*
Y116767D01*
Y116690D01*
X102910D01*
Y116613D01*
X102833D01*
Y116536D01*
Y116459D01*
Y116382D01*
X102756D01*
Y116305D01*
X102679D01*
Y116227D01*
Y116150D01*
X102602D01*
Y116073D01*
X102525D01*
Y115996D01*
Y115919D01*
X102448D01*
Y115842D01*
Y115765D01*
Y115688D01*
X102371D01*
Y115611D01*
X102294D01*
Y115534D01*
Y115457D01*
X102217D01*
Y115380D01*
X102140D01*
Y115303D01*
Y115226D01*
Y115149D01*
X102063D01*
Y115072D01*
Y114995D01*
X101986D01*
Y114918D01*
X101909D01*
Y114841D01*
Y114764D01*
Y114687D01*
X101832D01*
Y114610D01*
X101755D01*
Y114533D01*
Y114456D01*
Y114379D01*
X101678D01*
Y114302D01*
X101601D01*
Y114225D01*
Y114148D01*
Y114071D01*
X101523D01*
Y113994D01*
Y113917D01*
X101446D01*
Y113840D01*
Y113762D01*
X101369D01*
Y113686D01*
Y113609D01*
X101292D01*
Y113531D01*
X101215D01*
Y113454D01*
Y113377D01*
Y113300D01*
X101138D01*
Y113223D01*
X101061D01*
Y113146D01*
Y113069D01*
Y112992D01*
X100984D01*
Y112915D01*
Y112838D01*
X100907D01*
Y112761D01*
Y112684D01*
X100830D01*
Y112607D01*
Y112530D01*
X100753D01*
Y112453D01*
X100676D01*
Y112376D01*
Y112299D01*
Y112222D01*
X100599D01*
Y112145D01*
X100522D01*
Y112068D01*
Y111991D01*
Y111914D01*
X100445D01*
Y111837D01*
X100368D01*
Y111760D01*
Y111683D01*
Y111606D01*
Y111529D01*
X100291D01*
Y111452D01*
X100214D01*
Y111375D01*
Y111298D01*
Y111221D01*
X100137D01*
Y111144D01*
X100060D01*
Y111066D01*
Y110989D01*
X99983D01*
Y110912D01*
Y110835D01*
Y110758D01*
X99906D01*
Y110681D01*
X99829D01*
Y110604D01*
Y110527D01*
Y110450D01*
X99752D01*
Y110373D01*
Y110296D01*
X99675D01*
Y110219D01*
Y110142D01*
Y110065D01*
X99598D01*
Y109988D01*
X99521D01*
Y109911D01*
Y109834D01*
Y109757D01*
X99444D01*
Y109680D01*
X99367D01*
Y109603D01*
Y109526D01*
X99290D01*
Y109449D01*
Y109372D01*
Y109295D01*
X99213D01*
Y109218D01*
Y109141D01*
X99136D01*
Y109064D01*
Y108987D01*
X99059D01*
Y108910D01*
Y108833D01*
X98981D01*
Y108756D01*
X98905D01*
Y108679D01*
X98981D01*
Y108602D01*
X98905D01*
Y108525D01*
Y108448D01*
X98827D01*
Y108370D01*
X98750D01*
Y108293D01*
Y108216D01*
Y108139D01*
X98673D01*
Y108062D01*
X98596D01*
Y107985D01*
Y107908D01*
Y107831D01*
Y107754D01*
X98519D01*
Y107677D01*
X98442D01*
Y107600D01*
Y107523D01*
Y107446D01*
X98365D01*
Y107369D01*
X98288D01*
Y107446D01*
Y107523D01*
X98365D01*
Y107600D01*
Y107677D01*
Y107754D01*
Y107831D01*
X98442D01*
Y107908D01*
Y107985D01*
X98519D01*
Y108062D01*
Y108139D01*
Y108216D01*
Y108293D01*
X98596D01*
Y108370D01*
Y108448D01*
X98673D01*
Y108525D01*
Y108602D01*
Y108679D01*
X98750D01*
Y108756D01*
Y108833D01*
X98827D01*
Y108910D01*
Y108987D01*
X98905D01*
Y109064D01*
Y109141D01*
Y109218D01*
Y109295D01*
X98981D01*
Y109372D01*
X99059D01*
Y109449D01*
Y109526D01*
Y109603D01*
Y109680D01*
Y109757D01*
X99136D01*
Y109834D01*
X99213D01*
Y109911D01*
Y109988D01*
Y110065D01*
X99290D01*
Y110142D01*
Y110219D01*
Y110296D01*
X99367D01*
Y110373D01*
X99444D01*
Y110450D01*
Y110527D01*
Y110604D01*
X99521D01*
Y110681D01*
Y110758D01*
Y110835D01*
X99598D01*
Y110912D01*
Y110989D01*
Y111066D01*
X99675D01*
Y111144D01*
X99752D01*
Y111221D01*
Y111298D01*
Y111375D01*
Y111452D01*
X99829D01*
Y111529D01*
X99906D01*
Y111606D01*
Y111683D01*
Y111760D01*
Y111837D01*
X99983D01*
Y111914D01*
X100060D01*
Y111991D01*
Y112068D01*
X100137D01*
Y112145D01*
Y112222D01*
Y112299D01*
Y112376D01*
X100214D01*
Y112453D01*
X100291D01*
Y112530D01*
Y112607D01*
Y112684D01*
Y112761D01*
X100368D01*
Y112838D01*
X100445D01*
Y112915D01*
Y112992D01*
Y113069D01*
X100522D01*
Y113146D01*
Y113223D01*
X100599D01*
Y113300D01*
X100676D01*
Y113377D01*
Y113454D01*
Y113531D01*
Y113609D01*
X100753D01*
Y113686D01*
X100830D01*
Y113762D01*
Y113840D01*
Y113917D01*
Y113994D01*
X100907D01*
Y114071D01*
X100984D01*
Y114148D01*
Y114225D01*
Y114302D01*
X101061D01*
Y114379D01*
Y114456D01*
X101138D01*
Y114533D01*
Y114610D01*
Y114687D01*
X101215D01*
Y114764D01*
X101292D01*
Y114841D01*
Y114918D01*
X101369D01*
Y114995D01*
Y115072D01*
Y115149D01*
X101446D01*
Y115226D01*
X101523D01*
Y115303D01*
Y115380D01*
Y115457D01*
Y115534D01*
X101601D01*
Y115611D01*
X101678D01*
Y115688D01*
Y115765D01*
Y115842D01*
X101755D01*
Y115919D01*
X101832D01*
Y115996D01*
Y116073D01*
Y116150D01*
Y116227D01*
X101909D01*
Y116305D01*
X101986D01*
Y116382D01*
Y116459D01*
X102063D01*
Y116536D01*
Y116613D01*
X102140D01*
Y116690D01*
Y116767D01*
X102217D01*
Y116844D01*
Y116921D01*
Y116998D01*
X102294D01*
Y117075D01*
Y117152D01*
X102371D01*
Y117229D01*
Y117306D01*
X102448D01*
Y117383D01*
Y117460D01*
X102525D01*
Y117537D01*
X102602D01*
Y117614D01*
Y117691D01*
Y117768D01*
X102679D01*
Y117845D01*
X102756D01*
Y117922D01*
Y117999D01*
X102833D01*
Y117922D01*
D02*
G37*
G36*
X99521Y107523D02*
Y107446D01*
X99444D01*
Y107369D01*
Y107292D01*
X99367D01*
Y107369D01*
Y107446D01*
Y107523D01*
X99444D01*
Y107600D01*
X99521D01*
Y107523D01*
D02*
G37*
G36*
X98288Y107292D02*
Y107215D01*
X98211D01*
Y107292D01*
Y107369D01*
X98288D01*
Y107292D01*
D02*
G37*
G36*
X98211Y107138D02*
X98288D01*
Y107061D01*
X98211D01*
Y107138D01*
X98134D01*
Y107215D01*
X98211D01*
Y107138D01*
D02*
G37*
G36*
X99367Y107215D02*
Y107138D01*
X99290D01*
Y107061D01*
Y106984D01*
X99213D01*
Y107061D01*
Y107138D01*
Y107215D01*
X99290D01*
Y107292D01*
X99367D01*
Y107215D01*
D02*
G37*
G36*
X89045Y117922D02*
Y117845D01*
X89122D01*
Y117768D01*
Y117691D01*
X89199D01*
Y117614D01*
Y117537D01*
X89276D01*
Y117460D01*
Y117383D01*
Y117306D01*
X89353D01*
Y117229D01*
X89430D01*
Y117152D01*
Y117075D01*
Y116998D01*
X89507D01*
Y116921D01*
Y116844D01*
X89584D01*
Y116767D01*
X89661D01*
Y116690D01*
Y116613D01*
Y116536D01*
X89738D01*
Y116459D01*
X89815D01*
Y116382D01*
Y116305D01*
Y116227D01*
Y116150D01*
X89892D01*
Y116073D01*
X89969D01*
Y115996D01*
Y115919D01*
Y115842D01*
X90046D01*
Y115765D01*
X90123D01*
Y115688D01*
Y115611D01*
Y115534D01*
Y115457D01*
X90200D01*
Y115380D01*
X90277D01*
Y115303D01*
Y115226D01*
X90354D01*
Y115149D01*
Y115072D01*
X90431D01*
Y114995D01*
Y114918D01*
Y114841D01*
X90508D01*
Y114764D01*
Y114687D01*
X90585D01*
Y114610D01*
Y114533D01*
X90662D01*
Y114456D01*
Y114379D01*
Y114302D01*
X90739D01*
Y114225D01*
Y114148D01*
X90816D01*
Y114071D01*
X90893D01*
Y113994D01*
X90816D01*
Y113917D01*
X90893D01*
Y113840D01*
X90970D01*
Y113762D01*
Y113686D01*
X91048D01*
Y113609D01*
Y113531D01*
Y113454D01*
X91124D01*
Y113377D01*
Y113300D01*
X91202D01*
Y113223D01*
Y113146D01*
Y113069D01*
X91279D01*
Y112992D01*
Y112915D01*
X91356D01*
Y112838D01*
X91433D01*
Y112761D01*
X91356D01*
Y112684D01*
X91433D01*
Y112607D01*
Y112530D01*
X91510D01*
Y112453D01*
X91587D01*
Y112376D01*
Y112299D01*
Y112222D01*
X91664D01*
Y112145D01*
Y112068D01*
X91741D01*
Y111991D01*
Y111914D01*
Y111837D01*
X91818D01*
Y111760D01*
Y111683D01*
X91895D01*
Y111606D01*
Y111529D01*
Y111452D01*
X91972D01*
Y111375D01*
Y111298D01*
X92049D01*
Y111221D01*
Y111144D01*
Y111066D01*
Y110989D01*
X92126D01*
Y110912D01*
X92203D01*
Y110835D01*
Y110758D01*
X92280D01*
Y110681D01*
Y110604D01*
Y110527D01*
X92357D01*
Y110450D01*
Y110373D01*
X92434D01*
Y110296D01*
Y110219D01*
Y110142D01*
X92511D01*
Y110065D01*
Y109988D01*
Y109911D01*
X92588D01*
Y109834D01*
Y109757D01*
Y109680D01*
X92665D01*
Y109603D01*
X92742D01*
Y109526D01*
Y109449D01*
Y109372D01*
X92819D01*
Y109295D01*
Y109218D01*
Y109141D01*
X92896D01*
Y109064D01*
Y108987D01*
X92973D01*
Y108910D01*
Y108833D01*
Y108756D01*
Y108679D01*
X93050D01*
Y108602D01*
Y108525D01*
X93127D01*
Y108448D01*
Y108370D01*
Y108293D01*
X93204D01*
Y108216D01*
Y108139D01*
X93281D01*
Y108062D01*
Y107985D01*
X93358D01*
Y107908D01*
X93281D01*
Y107831D01*
X93358D01*
Y107754D01*
Y107677D01*
X93435D01*
Y107600D01*
Y107523D01*
X93512D01*
Y107446D01*
Y107369D01*
Y107292D01*
Y107215D01*
X93590D01*
Y107138D01*
Y107061D01*
X93666D01*
Y106984D01*
Y106907D01*
X93590D01*
Y106984D01*
Y107061D01*
X93512D01*
Y107138D01*
Y107215D01*
X93435D01*
Y107292D01*
Y107369D01*
Y107446D01*
X93358D01*
Y107523D01*
Y107600D01*
X93281D01*
Y107677D01*
X93204D01*
Y107754D01*
Y107831D01*
Y107908D01*
X93127D01*
Y107985D01*
Y108062D01*
X93050D01*
Y108139D01*
Y108216D01*
Y108293D01*
X92973D01*
Y108370D01*
X92896D01*
Y108448D01*
Y108525D01*
Y108602D01*
X92819D01*
Y108679D01*
Y108756D01*
X92742D01*
Y108833D01*
Y108910D01*
Y108987D01*
X92665D01*
Y109064D01*
X92588D01*
Y109141D01*
Y109218D01*
Y109295D01*
X92511D01*
Y109372D01*
X92434D01*
Y109449D01*
Y109526D01*
X92357D01*
Y109603D01*
Y109680D01*
Y109757D01*
X92280D01*
Y109834D01*
Y109911D01*
X92203D01*
Y109988D01*
Y110065D01*
X92126D01*
Y110142D01*
Y110219D01*
X92049D01*
Y110296D01*
Y110373D01*
Y110450D01*
X91972D01*
Y110527D01*
Y110604D01*
X91895D01*
Y110681D01*
X91818D01*
Y110758D01*
Y110835D01*
Y110912D01*
X91741D01*
Y110989D01*
X91664D01*
Y111066D01*
Y111144D01*
Y111221D01*
X91587D01*
Y111298D01*
X91510D01*
Y111375D01*
Y111452D01*
Y111529D01*
Y111606D01*
X91433D01*
Y111683D01*
X91356D01*
Y111760D01*
Y111837D01*
X91279D01*
Y111914D01*
Y111991D01*
X91202D01*
Y112068D01*
Y112145D01*
X91124D01*
Y112222D01*
Y112299D01*
Y112376D01*
X91048D01*
Y112453D01*
X90970D01*
Y112530D01*
Y112607D01*
Y112684D01*
X90893D01*
Y112761D01*
X90816D01*
Y112838D01*
Y112915D01*
Y112992D01*
X90739D01*
Y113069D01*
X90662D01*
Y113146D01*
Y113223D01*
X90585D01*
Y113300D01*
Y113377D01*
X90508D01*
Y113454D01*
Y113531D01*
X90431D01*
Y113609D01*
Y113686D01*
Y113762D01*
X90354D01*
Y113840D01*
X90277D01*
Y113917D01*
Y113994D01*
Y114071D01*
X90200D01*
Y114148D01*
X90123D01*
Y114225D01*
Y114302D01*
X90046D01*
Y114379D01*
Y114456D01*
X89969D01*
Y114533D01*
Y114610D01*
X89892D01*
Y114687D01*
Y114764D01*
Y114841D01*
X89815D01*
Y114918D01*
X89738D01*
Y114995D01*
Y115072D01*
Y115149D01*
X89661D01*
Y115226D01*
X89584D01*
Y115303D01*
Y115380D01*
Y115457D01*
X89507D01*
Y115534D01*
X89430D01*
Y115611D01*
X89353D01*
Y115688D01*
Y115765D01*
Y115842D01*
X89276D01*
Y115919D01*
X89199D01*
Y115996D01*
Y116073D01*
Y116150D01*
X89045D01*
Y116227D01*
Y116305D01*
Y116382D01*
X88968D01*
Y116459D01*
Y116536D01*
X88891D01*
Y116613D01*
X88814D01*
Y116690D01*
Y116767D01*
X88737D01*
Y116844D01*
Y116921D01*
X88660D01*
Y116998D01*
X88583D01*
Y117075D01*
Y117152D01*
X88506D01*
Y117229D01*
Y117306D01*
X88428D01*
Y117383D01*
Y117460D01*
X88275D01*
Y117537D01*
Y117614D01*
X88352D01*
Y117691D01*
X88583D01*
Y117768D01*
X88660D01*
Y117845D01*
X88891D01*
Y117922D01*
X88968D01*
Y117999D01*
X89045D01*
Y117922D01*
D02*
G37*
G36*
X87350Y117075D02*
Y116998D01*
Y116921D01*
X87427D01*
Y116844D01*
X87504D01*
Y116767D01*
Y116690D01*
Y116613D01*
X87581D01*
Y116536D01*
X87658D01*
Y116459D01*
Y116382D01*
Y116305D01*
X87735D01*
Y116227D01*
X87812D01*
Y116150D01*
X87889D01*
Y116073D01*
Y115996D01*
Y115919D01*
X87966D01*
Y115842D01*
X88043D01*
Y115765D01*
Y115688D01*
Y115611D01*
X88120D01*
Y115534D01*
X88197D01*
Y115457D01*
Y115380D01*
X88275D01*
Y115303D01*
Y115226D01*
X88352D01*
Y115149D01*
X88428D01*
Y115072D01*
Y114995D01*
Y114918D01*
X88506D01*
Y114841D01*
X88583D01*
Y114764D01*
Y114687D01*
X88660D01*
Y114610D01*
Y114533D01*
X88737D01*
Y114456D01*
Y114379D01*
Y114302D01*
X88814D01*
Y114225D01*
X88891D01*
Y114148D01*
Y114071D01*
Y113994D01*
X88968D01*
Y113917D01*
X89045D01*
Y113840D01*
Y113762D01*
X89122D01*
Y113686D01*
X89199D01*
Y113609D01*
Y113531D01*
X89276D01*
Y113454D01*
Y113377D01*
Y113300D01*
X89353D01*
Y113223D01*
X89430D01*
Y113146D01*
Y113069D01*
Y112992D01*
X89507D01*
Y112915D01*
X89584D01*
Y112838D01*
X89661D01*
Y112761D01*
Y112684D01*
Y112607D01*
X89738D01*
Y112530D01*
X89815D01*
Y112453D01*
Y112376D01*
Y112299D01*
X89892D01*
Y112222D01*
X89969D01*
Y112145D01*
Y112068D01*
Y111991D01*
X90046D01*
Y111914D01*
Y111837D01*
X90123D01*
Y111760D01*
X90200D01*
Y111683D01*
Y111606D01*
X90277D01*
Y111529D01*
X90354D01*
Y111452D01*
Y111375D01*
Y111298D01*
X90431D01*
Y111221D01*
Y111144D01*
X90508D01*
Y111066D01*
Y110989D01*
X90585D01*
Y110912D01*
Y110835D01*
X90662D01*
Y110758D01*
Y110681D01*
Y110604D01*
X90739D01*
Y110527D01*
X90816D01*
Y110450D01*
X90893D01*
Y110373D01*
Y110296D01*
X90970D01*
Y110219D01*
Y110142D01*
X91048D01*
Y110065D01*
Y109988D01*
Y109911D01*
X91124D01*
Y109834D01*
X91202D01*
Y109757D01*
Y109680D01*
Y109603D01*
X91279D01*
Y109526D01*
X91356D01*
Y109449D01*
Y109372D01*
Y109295D01*
X91433D01*
Y109218D01*
X91510D01*
Y109141D01*
Y109064D01*
X91587D01*
Y108987D01*
Y108910D01*
Y108833D01*
X91664D01*
Y108756D01*
X91741D01*
Y108679D01*
Y108602D01*
Y108525D01*
X91818D01*
Y108448D01*
X91895D01*
Y108370D01*
Y108293D01*
X91972D01*
Y108216D01*
Y108139D01*
X92049D01*
Y108062D01*
X92126D01*
Y107985D01*
Y107908D01*
Y107831D01*
X92203D01*
Y107754D01*
X92280D01*
Y107677D01*
Y107600D01*
Y107523D01*
X92357D01*
Y107446D01*
X92434D01*
Y107369D01*
Y107292D01*
Y107215D01*
X92511D01*
Y107138D01*
X92588D01*
Y107061D01*
Y106984D01*
X92665D01*
Y106907D01*
X92588D01*
Y106984D01*
X92511D01*
Y107061D01*
Y107138D01*
X92434D01*
Y107215D01*
X92357D01*
Y107292D01*
Y107369D01*
Y107446D01*
X92203D01*
Y107523D01*
Y107600D01*
Y107677D01*
X92126D01*
Y107754D01*
X92049D01*
Y107831D01*
X91972D01*
Y107908D01*
Y107985D01*
X91895D01*
Y108062D01*
Y108139D01*
X91818D01*
Y108216D01*
Y108293D01*
X91741D01*
Y108370D01*
X91664D01*
Y108448D01*
Y108525D01*
X91587D01*
Y108602D01*
Y108679D01*
X91510D01*
Y108756D01*
Y108833D01*
X91356D01*
Y108910D01*
Y108987D01*
X91279D01*
Y109064D01*
X91202D01*
Y109141D01*
Y109218D01*
X91124D01*
Y109295D01*
Y109372D01*
X91048D01*
Y109449D01*
Y109526D01*
X90970D01*
Y109603D01*
X90893D01*
Y109680D01*
Y109757D01*
X90816D01*
Y109834D01*
Y109911D01*
X90739D01*
Y109988D01*
Y110065D01*
X90585D01*
Y110142D01*
Y110219D01*
Y110296D01*
X90508D01*
Y110373D01*
X90431D01*
Y110450D01*
X90354D01*
Y110527D01*
Y110604D01*
X90277D01*
Y110681D01*
Y110758D01*
X90200D01*
Y110835D01*
Y110912D01*
X90123D01*
Y110989D01*
X90046D01*
Y111066D01*
Y111144D01*
X89969D01*
Y111221D01*
X89892D01*
Y111298D01*
Y111375D01*
Y111452D01*
X89738D01*
Y111529D01*
Y111606D01*
Y111683D01*
X89661D01*
Y111760D01*
X89584D01*
Y111837D01*
X89507D01*
Y111914D01*
Y111991D01*
X89430D01*
Y112068D01*
Y112145D01*
X89353D01*
Y112222D01*
Y112299D01*
X89276D01*
Y112376D01*
X89199D01*
Y112453D01*
Y112530D01*
X89122D01*
Y112607D01*
Y112684D01*
X89045D01*
Y112761D01*
Y112838D01*
X88891D01*
Y112915D01*
Y112992D01*
X88814D01*
Y113069D01*
Y113146D01*
X88737D01*
Y113223D01*
X88660D01*
Y113300D01*
Y113377D01*
X88583D01*
Y113454D01*
Y113531D01*
X88506D01*
Y113609D01*
Y113686D01*
X88428D01*
Y113762D01*
X88352D01*
Y113840D01*
Y113917D01*
X88275D01*
Y113994D01*
Y114071D01*
X88197D01*
Y114148D01*
X88120D01*
Y114225D01*
X88043D01*
Y114302D01*
Y114379D01*
X87966D01*
Y114456D01*
Y114533D01*
X87889D01*
Y114610D01*
X87812D01*
Y114687D01*
Y114764D01*
X87735D01*
Y114841D01*
Y114918D01*
X87658D01*
Y114995D01*
Y115072D01*
X87581D01*
Y115149D01*
X87504D01*
Y115226D01*
X87427D01*
Y115303D01*
Y115380D01*
Y115457D01*
X87273D01*
Y115534D01*
Y115611D01*
X87196D01*
Y115688D01*
Y115765D01*
X87119D01*
Y115842D01*
Y115919D01*
X87042D01*
Y115996D01*
Y116073D01*
X86965D01*
Y116150D01*
X86888D01*
Y116227D01*
Y116305D01*
X86811D01*
Y116382D01*
X86734D01*
Y116459D01*
Y116536D01*
Y116613D01*
X86657D01*
Y116690D01*
X86580D01*
Y116767D01*
X86657D01*
Y116844D01*
X86811D01*
Y116921D01*
X86888D01*
Y116998D01*
X87119D01*
Y117075D01*
X87196D01*
Y117152D01*
X87350D01*
Y117075D01*
D02*
G37*
G36*
X99136Y106830D02*
Y106753D01*
X99059D01*
Y106830D01*
Y106907D01*
X99136D01*
Y106830D01*
D02*
G37*
G36*
X98134D02*
Y106753D01*
X98057D01*
Y106830D01*
Y106907D01*
X98134D01*
Y106830D01*
D02*
G37*
G36*
X106453Y116459D02*
X106530D01*
Y116382D01*
Y116305D01*
X106607D01*
Y116227D01*
X106684D01*
Y116150D01*
X106762D01*
Y116073D01*
Y115996D01*
X106839D01*
Y115919D01*
X106915D01*
Y115842D01*
X106993D01*
Y115765D01*
X107070D01*
Y115688D01*
X107147D01*
Y115611D01*
X107224D01*
Y115534D01*
X107301D01*
Y115457D01*
X107378D01*
Y115380D01*
Y115303D01*
X107455D01*
Y115226D01*
X107532D01*
Y115149D01*
Y115072D01*
X107609D01*
Y114995D01*
X107686D01*
Y114918D01*
X107763D01*
Y114841D01*
Y114764D01*
X107840D01*
Y114687D01*
X107917D01*
Y114610D01*
X107994D01*
Y114533D01*
X108071D01*
Y114456D01*
X108148D01*
Y114379D01*
X108225D01*
Y114302D01*
X108148D01*
Y114225D01*
Y114148D01*
X108071D01*
Y114071D01*
X107994D01*
Y113994D01*
Y113917D01*
X107917D01*
Y113840D01*
Y113762D01*
X107763D01*
Y113686D01*
Y113609D01*
Y113531D01*
X107686D01*
Y113454D01*
X107609D01*
Y113377D01*
X107532D01*
Y113300D01*
X107609D01*
Y113223D01*
X107455D01*
Y113146D01*
Y113069D01*
X107378D01*
Y112992D01*
Y112915D01*
X107301D01*
Y112838D01*
Y112761D01*
X107224D01*
Y112684D01*
X107147D01*
Y112607D01*
X107070D01*
Y112530D01*
Y112453D01*
Y112376D01*
X106915D01*
Y112299D01*
Y112222D01*
X106839D01*
Y112145D01*
Y112068D01*
X106762D01*
Y111991D01*
Y111914D01*
X106684D01*
Y111837D01*
Y111760D01*
X106530D01*
Y111683D01*
Y111606D01*
Y111529D01*
X106453D01*
Y111452D01*
X106376D01*
Y111375D01*
Y111298D01*
X106299D01*
Y111221D01*
X106222D01*
Y111144D01*
Y111066D01*
X106145D01*
Y110989D01*
Y110912D01*
X106068D01*
Y110835D01*
X105991D01*
Y110758D01*
Y110681D01*
X105914D01*
Y110604D01*
X105837D01*
Y110527D01*
Y110450D01*
Y110373D01*
X105683D01*
Y110296D01*
Y110219D01*
X105606D01*
Y110142D01*
Y110065D01*
X105529D01*
Y109988D01*
Y109911D01*
X105452D01*
Y109834D01*
X105375D01*
Y109757D01*
X105298D01*
Y109680D01*
Y109603D01*
Y109526D01*
X105144D01*
Y109449D01*
Y109372D01*
X105067D01*
Y109295D01*
Y109218D01*
X104990D01*
Y109141D01*
Y109064D01*
X104913D01*
Y108987D01*
X104836D01*
Y108910D01*
X104759D01*
Y108833D01*
Y108756D01*
Y108679D01*
X104605D01*
Y108602D01*
Y108525D01*
Y108448D01*
X104528D01*
Y108370D01*
X104451D01*
Y108293D01*
Y108216D01*
X104374D01*
Y108139D01*
X104297D01*
Y108062D01*
Y107985D01*
X104219D01*
Y107908D01*
Y107831D01*
X104142D01*
Y107754D01*
X104066D01*
Y107677D01*
Y107600D01*
X103988D01*
Y107523D01*
X103911D01*
Y107446D01*
Y107369D01*
X103834D01*
Y107292D01*
Y107215D01*
X103757D01*
Y107138D01*
Y107061D01*
X103680D01*
Y106984D01*
X103603D01*
Y106907D01*
X103526D01*
Y106830D01*
Y106753D01*
Y106676D01*
X103372D01*
Y106599D01*
Y106522D01*
X103295D01*
Y106445D01*
Y106368D01*
X103218D01*
Y106291D01*
Y106214D01*
X103141D01*
Y106137D01*
X103064D01*
Y106060D01*
X102987D01*
Y105983D01*
Y105905D01*
Y105828D01*
X102833D01*
Y105752D01*
Y105675D01*
Y105597D01*
X102756D01*
Y105520D01*
X102679D01*
Y105443D01*
Y105366D01*
X102602D01*
Y105289D01*
X102525D01*
Y105212D01*
Y105135D01*
X102448D01*
Y105058D01*
Y104981D01*
X102371D01*
Y104904D01*
X102294D01*
Y104827D01*
Y104750D01*
X102217D01*
Y104673D01*
X102140D01*
Y104596D01*
Y104519D01*
X102063D01*
Y104442D01*
X101986D01*
Y104365D01*
Y104288D01*
X101909D01*
Y104211D01*
Y104134D01*
X101832D01*
Y104057D01*
X101755D01*
Y103980D01*
Y103903D01*
Y103826D01*
X101601D01*
Y103749D01*
Y103672D01*
X101523D01*
Y103595D01*
Y103518D01*
X101446D01*
Y103441D01*
Y103364D01*
X101369D01*
Y103287D01*
X101292D01*
Y103209D01*
Y103132D01*
X101215D01*
Y103056D01*
Y102978D01*
X101061D01*
Y102901D01*
Y102824D01*
Y102747D01*
X100984D01*
Y102670D01*
X100907D01*
Y102593D01*
Y102516D01*
X100830D01*
Y102439D01*
X100753D01*
Y102362D01*
Y102285D01*
X100676D01*
Y102208D01*
Y102131D01*
X100522D01*
Y102054D01*
Y101977D01*
Y101900D01*
X100445D01*
Y101823D01*
X100368D01*
Y101746D01*
Y101669D01*
X100291D01*
Y101592D01*
X100214D01*
Y101515D01*
Y101438D01*
X100137D01*
Y101361D01*
Y101284D01*
X100060D01*
Y101207D01*
X99983D01*
Y101130D01*
Y101053D01*
X99906D01*
Y100976D01*
X99829D01*
Y100899D01*
Y100822D01*
Y100745D01*
X99675D01*
Y100668D01*
Y100591D01*
Y100514D01*
X99598D01*
Y100436D01*
X99521D01*
Y100359D01*
Y100282D01*
X99444D01*
Y100205D01*
Y100128D01*
X99290D01*
Y100051D01*
Y99974D01*
Y99897D01*
X99213D01*
Y99820D01*
X99136D01*
Y99743D01*
Y99666D01*
X99059D01*
Y99589D01*
X98981D01*
Y99512D01*
X98905D01*
Y99435D01*
Y99358D01*
X98827D01*
Y99281D01*
X98750D01*
Y99204D01*
X98673D01*
Y99127D01*
X98596D01*
Y99050D01*
X98519D01*
Y98973D01*
X98442D01*
Y98896D01*
X98288D01*
Y98819D01*
X98134D01*
Y98742D01*
X98057D01*
Y98665D01*
X97903D01*
Y98588D01*
X97672D01*
Y98511D01*
X97518D01*
Y98434D01*
X97133D01*
Y98357D01*
X96825D01*
Y98280D01*
X95207D01*
Y98357D01*
X94899D01*
Y98434D01*
X94514D01*
Y98511D01*
X94360D01*
Y98588D01*
X94129D01*
Y98665D01*
X93975D01*
Y98742D01*
X93898D01*
Y98819D01*
X93743D01*
Y98896D01*
X93590D01*
Y98973D01*
X93512D01*
Y99050D01*
X93435D01*
Y99127D01*
X93358D01*
Y99204D01*
X93281D01*
Y99281D01*
X93204D01*
Y99358D01*
X93127D01*
Y99435D01*
Y99512D01*
X93050D01*
Y99589D01*
Y99666D01*
X92896D01*
Y99743D01*
Y99820D01*
X92819D01*
Y99897D01*
Y99974D01*
X92742D01*
Y100051D01*
Y100128D01*
X92665D01*
Y100205D01*
X92588D01*
Y100282D01*
X92511D01*
Y100359D01*
Y100436D01*
X92434D01*
Y100514D01*
X92357D01*
Y100591D01*
Y100668D01*
Y100745D01*
X92203D01*
Y100822D01*
Y100899D01*
X92126D01*
Y100976D01*
Y101053D01*
X92049D01*
Y101130D01*
X91972D01*
Y101207D01*
Y101284D01*
X91895D01*
Y101361D01*
X91818D01*
Y101438D01*
Y101515D01*
X91741D01*
Y101592D01*
X91664D01*
Y101669D01*
Y101746D01*
X91587D01*
Y101823D01*
X91510D01*
Y101900D01*
Y101977D01*
Y102054D01*
X91356D01*
Y102131D01*
Y102208D01*
X91279D01*
Y102285D01*
Y102362D01*
X91202D01*
Y102439D01*
X91124D01*
Y102516D01*
Y102593D01*
X91048D01*
Y102670D01*
X90970D01*
Y102747D01*
Y102824D01*
X90893D01*
Y102901D01*
Y102978D01*
X90816D01*
Y103056D01*
Y103132D01*
X90662D01*
Y103209D01*
Y103287D01*
X90585D01*
Y103364D01*
Y103441D01*
X90508D01*
Y103518D01*
X90431D01*
Y103595D01*
X90354D01*
Y103672D01*
Y103749D01*
X90277D01*
Y103826D01*
Y103903D01*
X90200D01*
Y103980D01*
Y104057D01*
X90123D01*
Y104134D01*
Y104211D01*
X89969D01*
Y104288D01*
Y104365D01*
X89892D01*
Y104442D01*
Y104519D01*
X89815D01*
Y104596D01*
X89738D01*
Y104673D01*
Y104750D01*
X89661D01*
Y104827D01*
X89584D01*
Y104904D01*
Y104981D01*
X89507D01*
Y105058D01*
Y105135D01*
X89353D01*
Y105212D01*
Y105289D01*
X89276D01*
Y105366D01*
Y105443D01*
X89199D01*
Y105520D01*
Y105597D01*
X89122D01*
Y105675D01*
X89045D01*
Y105752D01*
Y105828D01*
X88968D01*
Y105905D01*
X88891D01*
Y105983D01*
Y106060D01*
X88814D01*
Y106137D01*
Y106214D01*
X88660D01*
Y106291D01*
Y106368D01*
X88583D01*
Y106445D01*
Y106522D01*
X88506D01*
Y106599D01*
X88428D01*
Y106676D01*
Y106753D01*
X88352D01*
Y106830D01*
Y106907D01*
X88275D01*
Y106984D01*
X88197D01*
Y107061D01*
X88120D01*
Y107138D01*
Y107215D01*
X88043D01*
Y107292D01*
X87966D01*
Y107369D01*
Y107446D01*
Y107523D01*
X87812D01*
Y107600D01*
Y107677D01*
X87735D01*
Y107754D01*
Y107831D01*
X87658D01*
Y107908D01*
X87581D01*
Y107985D01*
Y108062D01*
X87504D01*
Y108139D01*
X87427D01*
Y108216D01*
Y108293D01*
X87350D01*
Y108370D01*
Y108448D01*
X87273D01*
Y108525D01*
Y108602D01*
X87119D01*
Y108679D01*
Y108756D01*
X87042D01*
Y108833D01*
Y108910D01*
X86965D01*
Y108987D01*
X86888D01*
Y109064D01*
X86811D01*
Y109141D01*
Y109218D01*
X86734D01*
Y109295D01*
Y109372D01*
X86657D01*
Y109449D01*
Y109526D01*
X86580D01*
Y109603D01*
Y109680D01*
X86426D01*
Y109757D01*
Y109834D01*
X86349D01*
Y109911D01*
Y109988D01*
X86272D01*
Y110065D01*
X86195D01*
Y110142D01*
Y110219D01*
X86118D01*
Y110296D01*
X86041D01*
Y110373D01*
Y110450D01*
X85964D01*
Y110527D01*
Y110604D01*
X85887D01*
Y110681D01*
Y110758D01*
X85733D01*
Y110835D01*
Y110912D01*
X85655D01*
Y110989D01*
Y111066D01*
X85578D01*
Y111144D01*
X85501D01*
Y111221D01*
Y111298D01*
X85424D01*
Y111375D01*
X85347D01*
Y111452D01*
Y111529D01*
X85270D01*
Y111606D01*
X85193D01*
Y111683D01*
X85116D01*
Y111760D01*
X85193D01*
Y111837D01*
X85039D01*
Y111914D01*
Y111991D01*
X84962D01*
Y112068D01*
X84885D01*
Y112145D01*
Y112222D01*
X84808D01*
Y112299D01*
Y112376D01*
X84731D01*
Y112453D01*
X84654D01*
Y112530D01*
X84577D01*
Y112607D01*
Y112684D01*
X84500D01*
Y112761D01*
X84423D01*
Y112838D01*
Y112915D01*
Y112992D01*
X84269D01*
Y113069D01*
Y113146D01*
X84192D01*
Y113223D01*
Y113300D01*
X84115D01*
Y113377D01*
Y113454D01*
X84038D01*
Y113531D01*
X83961D01*
Y113609D01*
X83884D01*
Y113686D01*
Y113762D01*
X83807D01*
Y113840D01*
Y113917D01*
X83730D01*
Y113994D01*
Y114071D01*
X83576D01*
Y114148D01*
Y114225D01*
X83499D01*
Y114302D01*
X83576D01*
Y114379D01*
X83653D01*
Y114456D01*
Y114533D01*
X83730D01*
Y114610D01*
X83807D01*
Y114687D01*
X83884D01*
Y114764D01*
X83961D01*
Y114841D01*
Y114918D01*
X84038D01*
Y114995D01*
X84115D01*
Y115072D01*
X84269D01*
Y115149D01*
Y115226D01*
X84346D01*
Y115303D01*
X84423D01*
Y115380D01*
Y115457D01*
X84500D01*
Y115534D01*
X84577D01*
Y115611D01*
X84654D01*
Y115688D01*
X84731D01*
Y115765D01*
X84808D01*
Y115842D01*
Y115919D01*
X84885D01*
Y115996D01*
X84962D01*
Y116073D01*
X85039D01*
Y116150D01*
X85116D01*
Y116227D01*
X85193D01*
Y116305D01*
X85270D01*
Y116382D01*
X85347D01*
Y116459D01*
Y116536D01*
X85424D01*
Y116459D01*
X85501D01*
Y116382D01*
Y116305D01*
X85578D01*
Y116227D01*
Y116150D01*
X85655D01*
Y116073D01*
X85733D01*
Y115996D01*
X85809D01*
Y115919D01*
Y115842D01*
X85887D01*
Y115765D01*
X85964D01*
Y115688D01*
Y115611D01*
X86041D01*
Y115534D01*
Y115457D01*
X86118D01*
Y115380D01*
Y115303D01*
X86195D01*
Y115226D01*
X86272D01*
Y115149D01*
Y115072D01*
X86349D01*
Y114995D01*
X86426D01*
Y114918D01*
Y114841D01*
X86503D01*
Y114764D01*
X86580D01*
Y114687D01*
Y114610D01*
X86657D01*
Y114533D01*
Y114456D01*
X86734D01*
Y114379D01*
Y114302D01*
X86811D01*
Y114225D01*
Y114148D01*
X86965D01*
Y114071D01*
Y113994D01*
Y113917D01*
X87042D01*
Y113840D01*
X87119D01*
Y113762D01*
X87196D01*
Y113686D01*
Y113609D01*
X87273D01*
Y113531D01*
Y113454D01*
X87350D01*
Y113377D01*
Y113300D01*
X87427D01*
Y113223D01*
X87504D01*
Y113146D01*
Y113069D01*
X87581D01*
Y112992D01*
X87658D01*
Y112915D01*
X87735D01*
Y112838D01*
X87658D01*
Y112761D01*
X87812D01*
Y112684D01*
Y112607D01*
X87889D01*
Y112530D01*
Y112453D01*
X87966D01*
Y112376D01*
X88043D01*
Y112299D01*
Y112222D01*
X88120D01*
Y112145D01*
X88197D01*
Y112068D01*
Y111991D01*
Y111914D01*
X88352D01*
Y111837D01*
Y111760D01*
X88428D01*
Y111683D01*
Y111606D01*
X88506D01*
Y111529D01*
X88583D01*
Y111452D01*
Y111375D01*
X88660D01*
Y111298D01*
X88737D01*
Y111221D01*
Y111144D01*
Y111066D01*
X88891D01*
Y110989D01*
Y110912D01*
X88968D01*
Y110835D01*
Y110758D01*
X89045D01*
Y110681D01*
Y110604D01*
X89122D01*
Y110527D01*
Y110450D01*
X89276D01*
Y110373D01*
Y110296D01*
Y110219D01*
X89353D01*
Y110142D01*
X89430D01*
Y110065D01*
X89507D01*
Y109988D01*
Y109911D01*
X89584D01*
Y109834D01*
Y109757D01*
X89661D01*
Y109680D01*
Y109603D01*
X89815D01*
Y109526D01*
Y109449D01*
Y109372D01*
X89892D01*
Y109295D01*
X89969D01*
Y109218D01*
Y109141D01*
X90046D01*
Y109064D01*
X90123D01*
Y108987D01*
Y108910D01*
X90200D01*
Y108833D01*
Y108756D01*
X90277D01*
Y108679D01*
X90354D01*
Y108602D01*
Y108525D01*
X90431D01*
Y108448D01*
X90508D01*
Y108370D01*
Y108293D01*
X90585D01*
Y108216D01*
Y108139D01*
X90662D01*
Y108062D01*
X90739D01*
Y107985D01*
Y107908D01*
X90816D01*
Y107831D01*
X90893D01*
Y107754D01*
Y107677D01*
Y107600D01*
X91048D01*
Y107523D01*
Y107446D01*
Y107369D01*
X91124D01*
Y107292D01*
X91202D01*
Y107215D01*
X91279D01*
Y107138D01*
Y107061D01*
X91356D01*
Y106984D01*
Y106907D01*
X91433D01*
Y106830D01*
Y106753D01*
X91587D01*
Y106676D01*
Y106599D01*
Y106522D01*
X91664D01*
Y106445D01*
X91741D01*
Y106368D01*
X91818D01*
Y106291D01*
Y106214D01*
X91895D01*
Y106137D01*
Y106060D01*
X91972D01*
Y105983D01*
Y105905D01*
X92126D01*
Y105828D01*
Y105752D01*
Y105675D01*
X92203D01*
Y105597D01*
X92280D01*
Y105520D01*
Y105443D01*
X92357D01*
Y105366D01*
X92434D01*
Y105289D01*
Y105212D01*
X92511D01*
Y105135D01*
Y105058D01*
X92588D01*
Y104981D01*
Y104904D01*
X92665D01*
Y104827D01*
X92742D01*
Y104750D01*
X92819D01*
Y104673D01*
Y104596D01*
X92896D01*
Y104519D01*
Y104442D01*
X92973D01*
Y104365D01*
X93050D01*
Y104288D01*
Y104211D01*
X93127D01*
Y104134D01*
Y104057D01*
X93204D01*
Y103980D01*
Y103903D01*
X93358D01*
Y103826D01*
Y103749D01*
X93435D01*
Y103672D01*
Y103595D01*
X93512D01*
Y103518D01*
X93590D01*
Y103441D01*
Y103364D01*
X93666D01*
Y103287D01*
Y103209D01*
X93743D01*
Y103132D01*
Y103056D01*
X93821D01*
Y102978D01*
Y102901D01*
X93898D01*
Y102824D01*
X93975D01*
Y102747D01*
X94052D01*
Y102670D01*
Y102593D01*
X94129D01*
Y102516D01*
X94206D01*
Y102439D01*
X94283D01*
Y102362D01*
X94360D01*
Y102439D01*
X94437D01*
Y102516D01*
X94514D01*
Y102593D01*
X94591D01*
Y102670D01*
X94668D01*
Y102747D01*
X94745D01*
Y102824D01*
X94899D01*
Y102901D01*
X95053D01*
Y102978D01*
X95130D01*
Y103056D01*
X95438D01*
Y103132D01*
X95669D01*
Y103209D01*
X96131D01*
Y103132D01*
X96363D01*
Y103056D01*
X96594D01*
Y102978D01*
X96748D01*
Y102901D01*
X96825D01*
Y102824D01*
X96979D01*
Y102747D01*
X97056D01*
Y102670D01*
X97133D01*
Y102593D01*
X97210D01*
Y102516D01*
X97364D01*
Y102439D01*
X97441D01*
Y102362D01*
X97518D01*
Y102439D01*
X97595D01*
Y102516D01*
X97672D01*
Y102593D01*
Y102670D01*
Y102747D01*
X97826D01*
Y102824D01*
Y102901D01*
X97903D01*
Y102978D01*
Y103056D01*
X97980D01*
Y103132D01*
Y103209D01*
X98057D01*
Y103287D01*
X98134D01*
Y103364D01*
Y103441D01*
X98211D01*
Y103518D01*
Y103595D01*
X98365D01*
Y103672D01*
Y103749D01*
Y103826D01*
X98442D01*
Y103903D01*
X98519D01*
Y103980D01*
Y104057D01*
X98596D01*
Y104134D01*
X98673D01*
Y104211D01*
Y104288D01*
X98750D01*
Y104365D01*
Y104442D01*
X98905D01*
Y104519D01*
Y104596D01*
Y104673D01*
X98981D01*
Y104750D01*
X99059D01*
Y104827D01*
Y104904D01*
X99136D01*
Y104981D01*
Y105058D01*
X99213D01*
Y105135D01*
X99290D01*
Y105212D01*
Y105289D01*
X99367D01*
Y105366D01*
Y105443D01*
X99444D01*
Y105520D01*
Y105597D01*
X99598D01*
Y105675D01*
Y105752D01*
X99675D01*
Y105828D01*
Y105905D01*
X99752D01*
Y105983D01*
Y106060D01*
X99829D01*
Y106137D01*
X99906D01*
Y106214D01*
Y106291D01*
X99983D01*
Y106368D01*
Y106445D01*
X100137D01*
Y106522D01*
Y106599D01*
X100214D01*
Y106676D01*
Y106753D01*
X100291D01*
Y106830D01*
Y106907D01*
X100368D01*
Y106984D01*
Y107061D01*
X100445D01*
Y107138D01*
X100522D01*
Y107215D01*
Y107292D01*
X100676D01*
Y107369D01*
X100599D01*
Y107446D01*
X100753D01*
Y107523D01*
Y107600D01*
X100830D01*
Y107677D01*
Y107754D01*
X100907D01*
Y107831D01*
Y107908D01*
X100984D01*
Y107985D01*
X101061D01*
Y108062D01*
Y108139D01*
X101138D01*
Y108216D01*
Y108293D01*
X101215D01*
Y108370D01*
X101292D01*
Y108448D01*
X101369D01*
Y108525D01*
Y108602D01*
X101446D01*
Y108679D01*
Y108756D01*
X101523D01*
Y108833D01*
X101601D01*
Y108910D01*
Y108987D01*
X101678D01*
Y109064D01*
Y109141D01*
X101755D01*
Y109218D01*
X101832D01*
Y109295D01*
Y109372D01*
X101909D01*
Y109449D01*
X101986D01*
Y109526D01*
Y109603D01*
X102063D01*
Y109680D01*
Y109757D01*
X102140D01*
Y109834D01*
X102217D01*
Y109911D01*
Y109988D01*
X102294D01*
Y110065D01*
X102371D01*
Y110142D01*
Y110219D01*
Y110296D01*
X102525D01*
Y110373D01*
Y110450D01*
X102602D01*
Y110527D01*
Y110604D01*
X102679D01*
Y110681D01*
Y110758D01*
X102756D01*
Y110835D01*
X102833D01*
Y110912D01*
X102910D01*
Y110989D01*
Y111066D01*
Y111144D01*
X103064D01*
Y111221D01*
Y111298D01*
X103141D01*
Y111375D01*
Y111452D01*
X103218D01*
Y111529D01*
Y111606D01*
X103295D01*
Y111683D01*
Y111760D01*
X103449D01*
Y111837D01*
Y111914D01*
Y111991D01*
X103526D01*
Y112068D01*
X103603D01*
Y112145D01*
Y112222D01*
X103680D01*
Y112299D01*
X103757D01*
Y112376D01*
Y112453D01*
X103834D01*
Y112530D01*
Y112607D01*
X103988D01*
Y112684D01*
Y112761D01*
Y112838D01*
X104066D01*
Y112915D01*
X104142D01*
Y112992D01*
Y113069D01*
X104219D01*
Y113146D01*
X104297D01*
Y113223D01*
Y113300D01*
X104374D01*
Y113377D01*
Y113454D01*
X104451D01*
Y113531D01*
Y113609D01*
X104528D01*
Y113686D01*
X104605D01*
Y113762D01*
X104682D01*
Y113840D01*
Y113917D01*
Y113994D01*
X104836D01*
Y114071D01*
Y114148D01*
X104913D01*
Y114225D01*
Y114302D01*
X104990D01*
Y114379D01*
Y114456D01*
X105067D01*
Y114533D01*
X105144D01*
Y114610D01*
X105221D01*
Y114687D01*
Y114764D01*
X105298D01*
Y114841D01*
X105375D01*
Y114918D01*
Y114995D01*
X105452D01*
Y115072D01*
Y115149D01*
X105529D01*
Y115226D01*
Y115303D01*
X105606D01*
Y115380D01*
Y115457D01*
X105760D01*
Y115534D01*
Y115611D01*
Y115688D01*
X105837D01*
Y115765D01*
X105914D01*
Y115842D01*
Y115919D01*
X105991D01*
Y115996D01*
X106068D01*
Y116073D01*
Y116150D01*
X106145D01*
Y116227D01*
Y116305D01*
X106299D01*
Y116382D01*
Y116459D01*
Y116536D01*
X106453D01*
Y116459D01*
D02*
G37*
G36*
X118624Y111452D02*
X118547D01*
Y111375D01*
X118470D01*
Y111298D01*
Y111221D01*
X118393D01*
Y111144D01*
X118316D01*
Y111066D01*
Y110989D01*
Y110912D01*
X118239D01*
Y110835D01*
X118162D01*
Y110758D01*
X118085D01*
Y110681D01*
X118162D01*
Y110604D01*
X118085D01*
Y110527D01*
X118008D01*
Y110450D01*
Y110373D01*
X117931D01*
Y110296D01*
Y110219D01*
X117854D01*
Y110142D01*
X117777D01*
Y110065D01*
Y109988D01*
X117700D01*
Y109911D01*
X117623D01*
Y109834D01*
Y109757D01*
Y109680D01*
X117546D01*
Y109603D01*
X117469D01*
Y109526D01*
X117392D01*
Y109449D01*
Y109372D01*
X117315D01*
Y109295D01*
Y109218D01*
X117237D01*
Y109141D01*
Y109064D01*
Y108987D01*
X117083D01*
Y108910D01*
Y108833D01*
Y108756D01*
X117006D01*
Y108679D01*
X116929D01*
Y108602D01*
X116852D01*
Y108525D01*
Y108448D01*
Y108370D01*
X116775D01*
Y108293D01*
X116698D01*
Y108216D01*
Y108139D01*
Y108062D01*
X116544D01*
Y107985D01*
Y107908D01*
Y107831D01*
X116467D01*
Y107754D01*
Y107677D01*
X116390D01*
Y107600D01*
X116313D01*
Y107523D01*
Y107446D01*
X116236D01*
Y107369D01*
Y107292D01*
X116159D01*
Y107215D01*
X116082D01*
Y107138D01*
Y107061D01*
X116005D01*
Y106984D01*
Y106907D01*
X115928D01*
Y106830D01*
Y106753D01*
X115851D01*
Y106676D01*
X115774D01*
Y106599D01*
Y106522D01*
X115697D01*
Y106445D01*
Y106368D01*
X115620D01*
Y106291D01*
X115543D01*
Y106214D01*
Y106137D01*
X115466D01*
Y106060D01*
Y105983D01*
X115389D01*
Y105905D01*
X115312D01*
Y105828D01*
Y105752D01*
X115235D01*
Y105675D01*
X115158D01*
Y105597D01*
Y105520D01*
Y105443D01*
X115081D01*
Y105366D01*
X115004D01*
Y105289D01*
X114927D01*
Y105212D01*
Y105135D01*
X114849D01*
Y105058D01*
Y104981D01*
X114772D01*
Y104904D01*
Y104827D01*
X114696D01*
Y104750D01*
X114619D01*
Y104673D01*
Y104596D01*
Y104519D01*
X114541D01*
Y104442D01*
X114464D01*
Y104365D01*
Y104288D01*
X114387D01*
Y104211D01*
X114310D01*
Y104134D01*
Y104057D01*
X114233D01*
Y103980D01*
Y103903D01*
Y103826D01*
X114079D01*
Y103749D01*
Y103672D01*
Y103595D01*
X114002D01*
Y103518D01*
X113925D01*
Y103441D01*
Y103364D01*
X113848D01*
Y103287D01*
Y103209D01*
X113771D01*
Y103132D01*
Y103056D01*
X113694D01*
Y102978D01*
X113617D01*
Y102901D01*
X113540D01*
Y102824D01*
Y102747D01*
Y102670D01*
X113463D01*
Y102593D01*
Y102516D01*
X113386D01*
Y102439D01*
X113309D01*
Y102362D01*
Y102285D01*
X113155D01*
Y102208D01*
X113232D01*
Y102131D01*
X113155D01*
Y102054D01*
X113078D01*
Y101977D01*
Y101900D01*
X113001D01*
Y101823D01*
Y101746D01*
X112924D01*
Y101669D01*
X112847D01*
Y101592D01*
Y101515D01*
X112770D01*
Y101438D01*
X112693D01*
Y101361D01*
Y101284D01*
X112616D01*
Y101207D01*
Y101130D01*
X112539D01*
Y101053D01*
Y100976D01*
X112462D01*
Y100899D01*
X112385D01*
Y100822D01*
Y100745D01*
X112308D01*
Y100668D01*
Y100591D01*
X112231D01*
Y100514D01*
X112153D01*
Y100436D01*
Y100359D01*
X112076D01*
Y100282D01*
Y100205D01*
X111999D01*
Y100128D01*
Y100051D01*
X111922D01*
Y99974D01*
X111845D01*
Y99897D01*
Y99820D01*
X111768D01*
Y99743D01*
Y99666D01*
X111691D01*
Y99589D01*
X111614D01*
Y99512D01*
Y99435D01*
Y99358D01*
X111537D01*
Y99281D01*
X111460D01*
Y99204D01*
Y99127D01*
X107994D01*
Y99204D01*
X108071D01*
Y99281D01*
Y99358D01*
X108148D01*
Y99435D01*
X108225D01*
Y99512D01*
Y99589D01*
X108302D01*
Y99666D01*
Y99743D01*
X108379D01*
Y99820D01*
Y99897D01*
X108456D01*
Y99974D01*
X108533D01*
Y100051D01*
Y100128D01*
Y100205D01*
X108687D01*
Y100282D01*
Y100359D01*
Y100436D01*
X108764D01*
Y100514D01*
Y100591D01*
X108918D01*
Y100668D01*
Y100745D01*
Y100822D01*
X108995D01*
Y100899D01*
X109072D01*
Y100976D01*
Y101053D01*
Y101130D01*
X109149D01*
Y101207D01*
X109226D01*
Y101284D01*
Y101361D01*
X109303D01*
Y101438D01*
X109380D01*
Y101515D01*
Y101592D01*
X109458D01*
Y101669D01*
Y101746D01*
X109535D01*
Y101823D01*
Y101900D01*
X109612D01*
Y101977D01*
X109689D01*
Y102054D01*
Y102131D01*
X109766D01*
Y102208D01*
Y102285D01*
X109843D01*
Y102362D01*
X109920D01*
Y102439D01*
Y102516D01*
Y102593D01*
X109997D01*
Y102670D01*
X110074D01*
Y102747D01*
X110151D01*
Y102824D01*
Y102901D01*
X110228D01*
Y102978D01*
Y103056D01*
X110305D01*
Y103132D01*
Y103209D01*
Y103287D01*
X110459D01*
Y103364D01*
Y103441D01*
Y103518D01*
X110536D01*
Y103595D01*
X110613D01*
Y103672D01*
X110690D01*
Y103749D01*
Y103826D01*
Y103903D01*
X110844D01*
Y103980D01*
Y104057D01*
Y104134D01*
X110921D01*
Y104211D01*
Y104288D01*
X110998D01*
Y104365D01*
Y104442D01*
X111075D01*
Y104519D01*
X111152D01*
Y104596D01*
Y104673D01*
X111229D01*
Y104750D01*
Y104827D01*
X111306D01*
Y104904D01*
Y104981D01*
X111383D01*
Y105058D01*
X111460D01*
Y105135D01*
Y105212D01*
X111537D01*
Y105289D01*
Y105366D01*
X111614D01*
Y105443D01*
X111691D01*
Y105520D01*
Y105597D01*
X111768D01*
Y105675D01*
X111845D01*
Y105752D01*
Y105828D01*
X111922D01*
Y105905D01*
Y105983D01*
X111999D01*
Y106060D01*
X112076D01*
Y106137D01*
Y106214D01*
X112153D01*
Y106291D01*
Y106368D01*
X112231D01*
Y106445D01*
Y106522D01*
Y106599D01*
X112385D01*
Y106676D01*
Y106753D01*
Y106830D01*
X112462D01*
Y106907D01*
X112539D01*
Y106984D01*
X112616D01*
Y107061D01*
Y107138D01*
Y107215D01*
X112693D01*
Y107292D01*
X112770D01*
Y107369D01*
Y107446D01*
Y107523D01*
X112924D01*
Y107600D01*
Y107677D01*
Y107754D01*
X113001D01*
Y107831D01*
Y107908D01*
X113155D01*
Y107985D01*
Y108062D01*
Y108139D01*
X113232D01*
Y108216D01*
Y108293D01*
X113309D01*
Y108370D01*
Y108448D01*
X111229D01*
Y108370D01*
X110921D01*
Y108293D01*
X110690D01*
Y108216D01*
X110536D01*
Y108139D01*
X110382D01*
Y108062D01*
X110305D01*
Y107985D01*
X110228D01*
Y107908D01*
X110151D01*
Y107831D01*
X110074D01*
Y107754D01*
X109997D01*
Y107677D01*
X109920D01*
Y107600D01*
X109843D01*
Y107523D01*
Y107446D01*
X109766D01*
Y107369D01*
Y107292D01*
X109689D01*
Y107215D01*
Y107138D01*
X109612D01*
Y107061D01*
Y106984D01*
X109535D01*
Y106907D01*
X109458D01*
Y106830D01*
Y106753D01*
X109380D01*
Y106676D01*
X109303D01*
Y106599D01*
Y106522D01*
X109226D01*
Y106445D01*
Y106368D01*
X109149D01*
Y106291D01*
Y106214D01*
X109072D01*
Y106137D01*
Y106060D01*
X108995D01*
Y105983D01*
X108918D01*
Y105905D01*
Y105828D01*
X108764D01*
Y105752D01*
X108841D01*
Y105675D01*
X108764D01*
Y105597D01*
X108687D01*
Y105520D01*
X108610D01*
Y105443D01*
Y105366D01*
Y105289D01*
X108533D01*
Y105212D01*
X108456D01*
Y105135D01*
Y105058D01*
X108379D01*
Y104981D01*
Y104904D01*
X108302D01*
Y104827D01*
Y104750D01*
X108225D01*
Y104673D01*
X108148D01*
Y104596D01*
X108071D01*
Y104519D01*
Y104442D01*
Y104365D01*
X107917D01*
Y104288D01*
Y104211D01*
Y104134D01*
X107840D01*
Y104057D01*
Y103980D01*
X107763D01*
Y103903D01*
X107686D01*
Y103826D01*
Y103749D01*
X107609D01*
Y103672D01*
Y103595D01*
X107532D01*
Y103518D01*
X107455D01*
Y103441D01*
X107378D01*
Y103364D01*
Y103287D01*
Y103209D01*
X107224D01*
Y103132D01*
Y103056D01*
Y102978D01*
X107147D01*
Y102901D01*
Y102824D01*
X107070D01*
Y102747D01*
Y102670D01*
X106993D01*
Y102593D01*
X106915D01*
Y102516D01*
Y102439D01*
X106839D01*
Y102362D01*
Y102285D01*
X106684D01*
Y102208D01*
Y102131D01*
Y102054D01*
X106607D01*
Y101977D01*
X106530D01*
Y101900D01*
Y101823D01*
Y101746D01*
X106453D01*
Y101669D01*
X106376D01*
Y101592D01*
Y101515D01*
X106299D01*
Y101438D01*
Y101361D01*
X106145D01*
Y101284D01*
Y101207D01*
Y101130D01*
X106068D01*
Y101053D01*
X105991D01*
Y100976D01*
Y100899D01*
X105914D01*
Y100822D01*
Y100745D01*
X105837D01*
Y100668D01*
Y100591D01*
X105760D01*
Y100514D01*
Y100436D01*
X105606D01*
Y100359D01*
Y100282D01*
Y100205D01*
X105452D01*
Y100128D01*
Y100051D01*
Y99974D01*
X105375D01*
Y99897D01*
X105298D01*
Y99820D01*
Y99743D01*
Y99666D01*
X105221D01*
Y99589D01*
X105144D01*
Y99512D01*
Y99435D01*
X105067D01*
Y99358D01*
Y99281D01*
X104913D01*
Y99204D01*
Y99127D01*
Y99050D01*
X104836D01*
Y98973D01*
X104759D01*
Y98896D01*
Y98819D01*
Y98742D01*
X104605D01*
Y98665D01*
Y98588D01*
Y98511D01*
X104528D01*
Y98434D01*
Y98357D01*
X104374D01*
Y98280D01*
Y98203D01*
Y98126D01*
X104297D01*
Y98049D01*
X104219D01*
Y97971D01*
Y97895D01*
X104142D01*
Y97817D01*
X104066D01*
Y97740D01*
Y97663D01*
Y97586D01*
X103988D01*
Y97509D01*
X103911D01*
Y97432D01*
Y97355D01*
X103834D01*
Y97278D01*
Y97201D01*
X103680D01*
Y97124D01*
Y97047D01*
Y96970D01*
X103603D01*
Y96893D01*
X103526D01*
Y96816D01*
Y96739D01*
Y96662D01*
X103372D01*
Y96585D01*
Y96508D01*
Y96431D01*
X103295D01*
Y96354D01*
X103218D01*
Y96277D01*
X103141D01*
Y96200D01*
Y96123D01*
Y96046D01*
X103064D01*
Y95969D01*
X102987D01*
Y95892D01*
Y95815D01*
Y95738D01*
X102833D01*
Y95661D01*
Y95584D01*
Y95507D01*
X102756D01*
Y95430D01*
X102679D01*
Y95353D01*
Y95275D01*
X102602D01*
Y95199D01*
X102525D01*
Y95122D01*
Y95044D01*
X102448D01*
Y94967D01*
Y94890D01*
X102371D01*
Y94813D01*
X102294D01*
Y94736D01*
Y94659D01*
Y94582D01*
X102140D01*
Y94505D01*
Y94428D01*
Y94351D01*
X102063D01*
Y94274D01*
X101986D01*
Y94197D01*
X101909D01*
Y94120D01*
X101986D01*
Y94043D01*
X101832D01*
Y93966D01*
Y93889D01*
X101755D01*
Y93812D01*
Y93735D01*
Y93658D01*
X101601D01*
Y93581D01*
Y93504D01*
Y93427D01*
X101523D01*
Y93350D01*
X101446D01*
Y93273D01*
Y93196D01*
Y93119D01*
X101292D01*
Y93042D01*
Y92965D01*
X101215D01*
Y92888D01*
Y92811D01*
X101138D01*
Y92734D01*
X101061D01*
Y92656D01*
Y92580D01*
Y92502D01*
X100984D01*
Y92425D01*
X100907D01*
Y92348D01*
Y92271D01*
X100830D01*
Y92194D01*
X100753D01*
Y92117D01*
Y92040D01*
Y91963D01*
X100676D01*
Y91886D01*
X100599D01*
Y91809D01*
X100522D01*
Y91732D01*
Y91655D01*
Y91578D01*
X100368D01*
Y91501D01*
Y91424D01*
Y91347D01*
X100291D01*
Y91270D01*
X100214D01*
Y91193D01*
Y91116D01*
Y91039D01*
X100060D01*
Y90962D01*
Y90885D01*
X99983D01*
Y90808D01*
Y90731D01*
Y90654D01*
X99829D01*
Y90577D01*
Y90500D01*
Y90423D01*
X99752D01*
Y90346D01*
X99675D01*
Y90269D01*
Y90192D01*
Y90115D01*
X99521D01*
Y90038D01*
Y89960D01*
Y89884D01*
X99444D01*
Y89806D01*
X99367D01*
Y89729D01*
X99290D01*
Y89652D01*
Y89575D01*
Y89498D01*
X99213D01*
Y89421D01*
X99136D01*
Y89344D01*
Y89267D01*
X99059D01*
Y89190D01*
Y89113D01*
X98981D01*
Y89036D01*
Y88959D01*
Y88882D01*
Y88805D01*
Y88728D01*
Y88651D01*
Y88574D01*
Y88497D01*
Y88420D01*
Y88343D01*
Y88266D01*
Y88189D01*
X99059D01*
Y88112D01*
Y88035D01*
Y87958D01*
X99136D01*
Y87881D01*
Y87804D01*
Y87727D01*
X99213D01*
Y87650D01*
X99290D01*
Y87573D01*
X99367D01*
Y87496D01*
Y87419D01*
X99444D01*
Y87341D01*
X99521D01*
Y87265D01*
Y87187D01*
X99598D01*
Y87110D01*
X99675D01*
Y87033D01*
Y86956D01*
X99752D01*
Y86879D01*
X99829D01*
Y86802D01*
X99906D01*
Y86725D01*
Y86648D01*
X99983D01*
Y86571D01*
Y86494D01*
X100060D01*
Y86417D01*
X100137D01*
Y86340D01*
Y86263D01*
X100214D01*
Y86186D01*
Y86109D01*
X100445D01*
Y86186D01*
Y86263D01*
X100522D01*
Y86340D01*
X100599D01*
Y86417D01*
Y86494D01*
X100676D01*
Y86571D01*
Y86648D01*
X100753D01*
Y86725D01*
X100830D01*
Y86802D01*
Y86879D01*
X100907D01*
Y86956D01*
Y87033D01*
X100984D01*
Y87110D01*
Y87187D01*
X101061D01*
Y87265D01*
X101138D01*
Y87341D01*
Y87419D01*
Y87496D01*
X101215D01*
Y87573D01*
X101292D01*
Y87650D01*
X101369D01*
Y87727D01*
Y87804D01*
X101446D01*
Y87881D01*
X101523D01*
Y87958D01*
Y88035D01*
Y88112D01*
X101601D01*
Y88189D01*
X101678D01*
Y88266D01*
Y88343D01*
Y88420D01*
X101832D01*
Y88497D01*
Y88574D01*
Y88651D01*
X101909D01*
Y88728D01*
Y88805D01*
X102063D01*
Y88882D01*
Y88959D01*
Y89036D01*
X102140D01*
Y89113D01*
X102217D01*
Y89190D01*
Y89267D01*
X102294D01*
Y89344D01*
Y89421D01*
X102371D01*
Y89498D01*
Y89575D01*
X102448D01*
Y89652D01*
Y89729D01*
X102602D01*
Y89806D01*
Y89884D01*
Y89960D01*
X102679D01*
Y90038D01*
Y90115D01*
X102756D01*
Y90192D01*
X102833D01*
Y90269D01*
Y90346D01*
X102910D01*
Y90423D01*
Y90500D01*
X102987D01*
Y90577D01*
X103064D01*
Y90654D01*
Y90731D01*
X103141D01*
Y90808D01*
Y90885D01*
X103218D01*
Y90962D01*
Y91039D01*
X103295D01*
Y91116D01*
X103372D01*
Y91193D01*
Y91270D01*
X103449D01*
Y91347D01*
Y91424D01*
X103526D01*
Y91501D01*
X103603D01*
Y91578D01*
Y91655D01*
Y91732D01*
X103680D01*
Y91809D01*
X103757D01*
Y91886D01*
X103834D01*
Y91963D01*
Y92040D01*
Y92117D01*
X103988D01*
Y92194D01*
Y92271D01*
Y92348D01*
X104066D01*
Y92425D01*
Y92502D01*
X104142D01*
Y92580D01*
Y92656D01*
X104219D01*
Y92734D01*
X104297D01*
Y92811D01*
Y92888D01*
X104374D01*
Y92965D01*
Y93042D01*
X104451D01*
Y93119D01*
X104528D01*
Y93196D01*
Y93273D01*
X104605D01*
Y93350D01*
X104682D01*
Y93427D01*
Y93504D01*
Y93581D01*
X104759D01*
Y93658D01*
X104836D01*
Y93735D01*
Y93812D01*
Y93889D01*
X108379D01*
Y93812D01*
X108302D01*
Y93735D01*
Y93658D01*
X108225D01*
Y93581D01*
Y93504D01*
X108148D01*
Y93427D01*
Y93350D01*
X108071D01*
Y93273D01*
X107994D01*
Y93196D01*
Y93119D01*
X107917D01*
Y93042D01*
Y92965D01*
X107840D01*
Y92888D01*
X107763D01*
Y92811D01*
Y92734D01*
X107686D01*
Y92656D01*
Y92580D01*
X107609D01*
Y92502D01*
Y92425D01*
X107532D01*
Y92348D01*
X107455D01*
Y92271D01*
Y92194D01*
X107378D01*
Y92117D01*
X107301D01*
Y92040D01*
Y91963D01*
X107224D01*
Y91886D01*
Y91809D01*
X107147D01*
Y91732D01*
X107070D01*
Y91655D01*
Y91578D01*
X106993D01*
Y91501D01*
Y91424D01*
X106915D01*
Y91347D01*
Y91270D01*
X106839D01*
Y91193D01*
X106762D01*
Y91116D01*
Y91039D01*
X106684D01*
Y90962D01*
Y90885D01*
X106607D01*
Y90808D01*
Y90731D01*
X106530D01*
Y90654D01*
X106453D01*
Y90577D01*
Y90500D01*
X106376D01*
Y90423D01*
Y90346D01*
X106299D01*
Y90269D01*
X106222D01*
Y90192D01*
Y90115D01*
X106145D01*
Y90038D01*
Y89960D01*
X106068D01*
Y89884D01*
X105991D01*
Y89806D01*
Y89729D01*
X105914D01*
Y89652D01*
Y89575D01*
X105837D01*
Y89498D01*
Y89421D01*
X105760D01*
Y89344D01*
X105683D01*
Y89267D01*
Y89190D01*
X105606D01*
Y89113D01*
Y89036D01*
X105452D01*
Y88959D01*
Y88882D01*
Y88805D01*
X105375D01*
Y88728D01*
X105298D01*
Y88651D01*
Y88574D01*
Y88497D01*
X105144D01*
Y88420D01*
Y88343D01*
Y88266D01*
X105067D01*
Y88189D01*
X104990D01*
Y88112D01*
X104913D01*
Y88035D01*
Y87958D01*
X104836D01*
Y87881D01*
X104759D01*
Y87804D01*
Y87727D01*
Y87650D01*
X104682D01*
Y87573D01*
X104605D01*
Y87496D01*
Y87419D01*
Y87341D01*
X104451D01*
Y87265D01*
Y87187D01*
Y87110D01*
X104374D01*
Y87033D01*
X104297D01*
Y86956D01*
X104219D01*
Y86879D01*
Y86802D01*
X104142D01*
Y86725D01*
Y86648D01*
X104066D01*
Y86571D01*
Y86494D01*
Y86417D01*
X103911D01*
Y86340D01*
Y86263D01*
Y86186D01*
X103834D01*
Y86109D01*
X103757D01*
Y86032D01*
X103680D01*
Y85955D01*
Y85878D01*
X103603D01*
Y85801D01*
Y85724D01*
X103526D01*
Y85647D01*
Y85570D01*
X103449D01*
Y85493D01*
X103372D01*
Y85416D01*
Y85339D01*
X103295D01*
Y85262D01*
Y85185D01*
X103218D01*
Y85108D01*
X103141D01*
Y85031D01*
Y84954D01*
X103064D01*
Y84877D01*
X102987D01*
Y84799D01*
Y84723D01*
Y84645D01*
X102910D01*
Y84568D01*
X102833D01*
Y84491D01*
Y84414D01*
Y84337D01*
X102756D01*
Y84260D01*
X102679D01*
Y84183D01*
X102602D01*
Y84106D01*
X102525D01*
Y84029D01*
Y83952D01*
X102448D01*
Y83875D01*
X102371D01*
Y83798D01*
X102294D01*
Y83721D01*
X102217D01*
Y83644D01*
X102140D01*
Y83567D01*
X101986D01*
Y83490D01*
X101909D01*
Y83413D01*
X101755D01*
Y83336D01*
X101601D01*
Y83259D01*
X101292D01*
Y83182D01*
X100984D01*
Y83105D01*
X98673D01*
Y83182D01*
X98596D01*
Y83259D01*
Y83336D01*
X98519D01*
Y83413D01*
X98442D01*
Y83490D01*
Y83567D01*
X98365D01*
Y83644D01*
Y83721D01*
X98211D01*
Y83798D01*
Y83875D01*
X98134D01*
Y83952D01*
Y84029D01*
X98057D01*
Y84106D01*
X97980D01*
Y84183D01*
Y84260D01*
X97903D01*
Y84337D01*
X97826D01*
Y84414D01*
Y84491D01*
X97749D01*
Y84568D01*
X97672D01*
Y84645D01*
Y84723D01*
X97595D01*
Y84799D01*
X97518D01*
Y84877D01*
X97441D01*
Y84954D01*
Y85031D01*
X97364D01*
Y85108D01*
X97287D01*
Y85185D01*
Y85262D01*
X97210D01*
Y85339D01*
X97133D01*
Y85416D01*
X97056D01*
Y85493D01*
Y85570D01*
X96979D01*
Y85647D01*
X96902D01*
Y85724D01*
Y85801D01*
X96825D01*
Y85878D01*
Y85955D01*
X96748D01*
Y86032D01*
X96671D01*
Y86109D01*
X96594D01*
Y86186D01*
Y86263D01*
X96517D01*
Y86340D01*
X96439D01*
Y86417D01*
Y86494D01*
X96363D01*
Y86571D01*
Y86648D01*
X96209D01*
Y86725D01*
Y86802D01*
X96131D01*
Y86879D01*
Y86956D01*
X96054D01*
Y87033D01*
X95977D01*
Y87110D01*
Y87187D01*
X95900D01*
Y87265D01*
Y87341D01*
X95746D01*
Y87419D01*
Y87496D01*
Y87573D01*
Y87650D01*
X95669D01*
Y87727D01*
Y87804D01*
X95592D01*
Y87881D01*
Y87958D01*
Y88035D01*
X95515D01*
Y88112D01*
X95592D01*
Y88189D01*
Y88266D01*
Y88343D01*
Y88420D01*
X95515D01*
Y88497D01*
X95592D01*
Y88574D01*
Y88651D01*
Y88728D01*
Y88805D01*
X95515D01*
Y88882D01*
X95592D01*
Y88959D01*
Y89036D01*
Y89113D01*
X95669D01*
Y89190D01*
Y89267D01*
Y89344D01*
X95746D01*
Y89421D01*
Y89498D01*
X95823D01*
Y89575D01*
X95900D01*
Y89652D01*
Y89729D01*
Y89806D01*
X96054D01*
Y89884D01*
Y89960D01*
Y90038D01*
X96131D01*
Y90115D01*
X96209D01*
Y90192D01*
Y90269D01*
X96285D01*
Y90346D01*
X96363D01*
Y90423D01*
Y90500D01*
X96439D01*
Y90577D01*
Y90654D01*
X96517D01*
Y90731D01*
X96594D01*
Y90808D01*
Y90885D01*
X96671D01*
Y90962D01*
Y91039D01*
X96748D01*
Y91116D01*
Y91193D01*
X96825D01*
Y91270D01*
X96902D01*
Y91347D01*
Y91424D01*
Y91501D01*
X96979D01*
Y91578D01*
X97056D01*
Y91655D01*
X97133D01*
Y91732D01*
Y91809D01*
X97210D01*
Y91886D01*
Y91963D01*
X97287D01*
Y92040D01*
Y92117D01*
X97364D01*
Y92194D01*
X97441D01*
Y92271D01*
Y92348D01*
Y92425D01*
X97518D01*
Y92502D01*
X97595D01*
Y92580D01*
X97672D01*
Y92656D01*
Y92734D01*
X97749D01*
Y92811D01*
X97826D01*
Y92888D01*
Y92965D01*
Y93042D01*
X97903D01*
Y93119D01*
X97980D01*
Y93196D01*
Y93273D01*
Y93350D01*
X98134D01*
Y93427D01*
Y93504D01*
Y93581D01*
X98211D01*
Y93658D01*
Y93735D01*
X98365D01*
Y93812D01*
Y93889D01*
Y93966D01*
X98442D01*
Y94043D01*
X98519D01*
Y94120D01*
Y94197D01*
Y94274D01*
X98596D01*
Y94351D01*
X98673D01*
Y94428D01*
Y94505D01*
X98750D01*
Y94582D01*
Y94659D01*
X98905D01*
Y94736D01*
Y94813D01*
Y94890D01*
X98981D01*
Y94967D01*
X99059D01*
Y95044D01*
Y95122D01*
X99136D01*
Y95199D01*
Y95275D01*
X99213D01*
Y95353D01*
Y95430D01*
X99290D01*
Y95507D01*
Y95584D01*
X99367D01*
Y95661D01*
X99444D01*
Y95738D01*
Y95815D01*
X99521D01*
Y95892D01*
Y95969D01*
X99598D01*
Y96046D01*
X99675D01*
Y96123D01*
Y96200D01*
X99752D01*
Y96277D01*
Y96354D01*
X99829D01*
Y96431D01*
X99906D01*
Y96508D01*
Y96585D01*
X99983D01*
Y96662D01*
Y96739D01*
X100060D01*
Y96816D01*
X100137D01*
Y96893D01*
Y96970D01*
X100214D01*
Y97047D01*
Y97124D01*
X100291D01*
Y97201D01*
X100368D01*
Y97278D01*
Y97355D01*
X100445D01*
Y97432D01*
Y97509D01*
X100522D01*
Y97586D01*
X100599D01*
Y97663D01*
Y97740D01*
X100676D01*
Y97817D01*
Y97895D01*
X100753D01*
Y97971D01*
X100830D01*
Y98049D01*
Y98126D01*
X100907D01*
Y98203D01*
Y98280D01*
X100984D01*
Y98357D01*
Y98434D01*
X101061D01*
Y98511D01*
X101138D01*
Y98588D01*
Y98665D01*
Y98742D01*
X101215D01*
Y98819D01*
X101292D01*
Y98896D01*
X101369D01*
Y98973D01*
Y99050D01*
X101446D01*
Y99127D01*
Y99204D01*
X101523D01*
Y99281D01*
Y99358D01*
X101601D01*
Y99435D01*
X101678D01*
Y99512D01*
Y99589D01*
Y99666D01*
X101832D01*
Y99743D01*
Y99820D01*
Y99897D01*
X101909D01*
Y99974D01*
X101986D01*
Y100051D01*
X102063D01*
Y100128D01*
Y100205D01*
Y100282D01*
X102140D01*
Y100359D01*
X102217D01*
Y100436D01*
Y100514D01*
Y100591D01*
X102371D01*
Y100668D01*
Y100745D01*
Y100822D01*
X102448D01*
Y100899D01*
Y100976D01*
X102602D01*
Y101053D01*
Y101130D01*
Y101207D01*
X102679D01*
Y101284D01*
X102756D01*
Y101361D01*
Y101438D01*
X102833D01*
Y101515D01*
Y101592D01*
X102910D01*
Y101669D01*
Y101746D01*
X102987D01*
Y101823D01*
Y101900D01*
X103064D01*
Y101977D01*
X103141D01*
Y102054D01*
Y102131D01*
X103218D01*
Y102208D01*
Y102285D01*
X103295D01*
Y102362D01*
X103372D01*
Y102439D01*
Y102516D01*
X103449D01*
Y102593D01*
Y102670D01*
X103526D01*
Y102747D01*
X103603D01*
Y102824D01*
Y102901D01*
X103680D01*
Y102978D01*
Y103056D01*
X103757D01*
Y103132D01*
Y103209D01*
X103834D01*
Y103287D01*
X103911D01*
Y103364D01*
Y103441D01*
X103988D01*
Y103518D01*
Y103595D01*
X104066D01*
Y103672D01*
X104142D01*
Y103749D01*
Y103826D01*
X104219D01*
Y103903D01*
X104297D01*
Y103980D01*
Y104057D01*
X104374D01*
Y104134D01*
Y104211D01*
X104451D01*
Y104288D01*
X104528D01*
Y104365D01*
Y104442D01*
X104605D01*
Y104519D01*
Y104596D01*
X104682D01*
Y104673D01*
Y104750D01*
X104759D01*
Y104827D01*
X104836D01*
Y104904D01*
Y104981D01*
Y105058D01*
X104913D01*
Y105135D01*
X104990D01*
Y105212D01*
X105067D01*
Y105289D01*
Y105366D01*
X105144D01*
Y105443D01*
Y105520D01*
X105221D01*
Y105597D01*
Y105675D01*
Y105752D01*
X105375D01*
Y105828D01*
Y105905D01*
Y105983D01*
X105452D01*
Y106060D01*
X105529D01*
Y106137D01*
Y106214D01*
X105606D01*
Y106291D01*
X105683D01*
Y106368D01*
Y106445D01*
X105760D01*
Y106522D01*
Y106599D01*
X105837D01*
Y106676D01*
X105914D01*
Y106753D01*
Y106830D01*
Y106907D01*
X106068D01*
Y106984D01*
Y107061D01*
Y107138D01*
X106145D01*
Y107215D01*
Y107292D01*
X106299D01*
Y107369D01*
Y107446D01*
Y107523D01*
X106376D01*
Y107600D01*
X106453D01*
Y107677D01*
Y107754D01*
Y107831D01*
X106607D01*
Y107908D01*
Y107985D01*
Y108062D01*
X106684D01*
Y108139D01*
Y108216D01*
X106762D01*
Y108293D01*
X106839D01*
Y108370D01*
Y108448D01*
X106915D01*
Y108525D01*
X106993D01*
Y108602D01*
Y108679D01*
X107070D01*
Y108756D01*
Y108833D01*
X107147D01*
Y108910D01*
Y108987D01*
X107224D01*
Y109064D01*
Y109141D01*
X107301D01*
Y109218D01*
X107378D01*
Y109295D01*
Y109372D01*
X107455D01*
Y109449D01*
Y109526D01*
X107532D01*
Y109603D01*
X107609D01*
Y109680D01*
Y109757D01*
X107686D01*
Y109834D01*
Y109911D01*
X107763D01*
Y109988D01*
X107840D01*
Y110065D01*
Y110142D01*
Y110219D01*
X107917D01*
Y110296D01*
Y110373D01*
X107994D01*
Y110450D01*
X108071D01*
Y110527D01*
X108148D01*
Y110604D01*
X108225D01*
Y110681D01*
X108302D01*
Y110758D01*
X108379D01*
Y110835D01*
X108456D01*
Y110912D01*
X108533D01*
Y110989D01*
X108610D01*
Y111066D01*
X108687D01*
Y111144D01*
X108918D01*
Y111221D01*
X108995D01*
Y111298D01*
X109226D01*
Y111375D01*
X109535D01*
Y111452D01*
X109920D01*
Y111529D01*
X118624D01*
Y111452D01*
D02*
G37*
G36*
X17126Y96457D02*
Y95669D01*
X15650Y96457D01*
X15354Y97638D01*
X15945D01*
X17126Y96457D01*
D02*
G37*
G36*
X82266Y111221D02*
X82497D01*
Y111144D01*
X82728D01*
Y111066D01*
X82805D01*
Y110989D01*
X82959D01*
Y110912D01*
X83037D01*
Y110835D01*
X83191D01*
Y110758D01*
X83268D01*
Y110681D01*
X83345D01*
Y110604D01*
X83422D01*
Y110527D01*
X83499D01*
Y110450D01*
Y110373D01*
X83576D01*
Y110296D01*
X83653D01*
Y110219D01*
Y110142D01*
X83730D01*
Y110065D01*
X83807D01*
Y109988D01*
Y109911D01*
X83884D01*
Y109834D01*
Y109757D01*
X84038D01*
Y109680D01*
Y109603D01*
X84115D01*
Y109526D01*
Y109449D01*
X84192D01*
Y109372D01*
Y109295D01*
X84346D01*
Y109218D01*
Y109141D01*
X84423D01*
Y109064D01*
X84500D01*
Y108987D01*
Y108910D01*
X84577D01*
Y108833D01*
Y108756D01*
X84654D01*
Y108679D01*
X84731D01*
Y108602D01*
X84808D01*
Y108525D01*
X84885D01*
Y108448D01*
Y108370D01*
X84962D01*
Y108293D01*
Y108216D01*
X85039D01*
Y108139D01*
Y108062D01*
X85193D01*
Y107985D01*
X85270D01*
Y107908D01*
X85193D01*
Y107831D01*
X85347D01*
Y107754D01*
Y107677D01*
X85424D01*
Y107600D01*
Y107523D01*
X85578D01*
Y107446D01*
Y107369D01*
Y107292D01*
X85733D01*
Y107215D01*
Y107138D01*
X85809D01*
Y107061D01*
Y106984D01*
X85887D01*
Y106907D01*
X85964D01*
Y106830D01*
Y106753D01*
X86118D01*
Y106676D01*
Y106599D01*
X86195D01*
Y106522D01*
Y106445D01*
X86272D01*
Y106368D01*
X86349D01*
Y106291D01*
Y106214D01*
X86503D01*
Y106137D01*
X86426D01*
Y106060D01*
X86580D01*
Y105983D01*
Y105905D01*
X86657D01*
Y105828D01*
Y105752D01*
X86811D01*
Y105675D01*
Y105597D01*
Y105520D01*
X86965D01*
Y105443D01*
Y105366D01*
X87042D01*
Y105289D01*
Y105212D01*
X87196D01*
Y105135D01*
Y105058D01*
Y104981D01*
X87350D01*
Y104904D01*
Y104827D01*
X87427D01*
Y104750D01*
Y104673D01*
X87504D01*
Y104596D01*
X87581D01*
Y104519D01*
Y104442D01*
X87735D01*
Y104365D01*
X87658D01*
Y104288D01*
X87812D01*
Y104211D01*
Y104134D01*
X87889D01*
Y104057D01*
X87966D01*
Y103980D01*
Y103903D01*
X88043D01*
Y103826D01*
Y103749D01*
X88197D01*
Y103672D01*
Y103595D01*
X88275D01*
Y103518D01*
X88352D01*
Y103441D01*
Y103364D01*
X88428D01*
Y103287D01*
Y103209D01*
X88583D01*
Y103132D01*
Y103056D01*
X88660D01*
Y102978D01*
X88737D01*
Y102901D01*
Y102824D01*
X88814D01*
Y102747D01*
Y102670D01*
X88968D01*
Y102593D01*
X88891D01*
Y102516D01*
X89045D01*
Y102439D01*
X89122D01*
Y102362D01*
Y102285D01*
X89199D01*
Y102208D01*
Y102131D01*
X89276D01*
Y102054D01*
Y101977D01*
X89430D01*
Y101900D01*
Y101823D01*
X89507D01*
Y101746D01*
X89584D01*
Y101669D01*
X89661D01*
Y101592D01*
Y101515D01*
Y101438D01*
X89815D01*
Y101361D01*
Y101284D01*
X89892D01*
Y101207D01*
X89969D01*
Y101130D01*
Y101053D01*
X90046D01*
Y100976D01*
Y100899D01*
X90200D01*
Y100822D01*
X90123D01*
Y100745D01*
X90277D01*
Y100668D01*
X90354D01*
Y100591D01*
Y100514D01*
X90431D01*
Y100436D01*
X90508D01*
Y100359D01*
Y100282D01*
Y100205D01*
X90662D01*
Y100128D01*
Y100051D01*
X90739D01*
Y99974D01*
X90816D01*
Y99897D01*
X90893D01*
Y99820D01*
Y99743D01*
Y99666D01*
X91048D01*
Y99589D01*
Y99512D01*
X91124D01*
Y99435D01*
X91202D01*
Y99358D01*
Y99281D01*
X91279D01*
Y99204D01*
X91356D01*
Y99127D01*
X91433D01*
Y99050D01*
Y98973D01*
X91510D01*
Y98896D01*
X91587D01*
Y98819D01*
Y98742D01*
X91664D01*
Y98665D01*
X91741D01*
Y98588D01*
X91818D01*
Y98511D01*
Y98434D01*
X91895D01*
Y98357D01*
Y98280D01*
X91972D01*
Y98203D01*
X92049D01*
Y98126D01*
X92126D01*
Y98049D01*
X92203D01*
Y97971D01*
Y97895D01*
X92280D01*
Y97817D01*
Y97740D01*
X92357D01*
Y97663D01*
X92434D01*
Y97586D01*
Y97509D01*
X92511D01*
Y97432D01*
X92588D01*
Y97355D01*
X92665D01*
Y97278D01*
Y97201D01*
X92742D01*
Y97124D01*
X92819D01*
Y97047D01*
Y96970D01*
X92896D01*
Y96893D01*
X92973D01*
Y96816D01*
X93050D01*
Y96739D01*
Y96662D01*
X93127D01*
Y96585D01*
Y96508D01*
X93204D01*
Y96431D01*
X93281D01*
Y96354D01*
X93358D01*
Y96277D01*
X93435D01*
Y96200D01*
Y96123D01*
X93512D01*
Y96046D01*
Y95969D01*
X93590D01*
Y95892D01*
X93666D01*
Y95815D01*
X93743D01*
Y95738D01*
X93821D01*
Y95661D01*
Y95584D01*
X93898D01*
Y95507D01*
Y95430D01*
X93975D01*
Y95353D01*
X94052D01*
Y95275D01*
Y95199D01*
X94129D01*
Y95122D01*
X94206D01*
Y95044D01*
X94283D01*
Y94967D01*
Y94890D01*
X94360D01*
Y94813D01*
Y94736D01*
X94437D01*
Y94659D01*
X94514D01*
Y94582D01*
X94591D01*
Y94505D01*
X94668D01*
Y94428D01*
Y94351D01*
X94745D01*
Y94274D01*
Y94197D01*
X94822D01*
Y94120D01*
X94899D01*
Y94043D01*
X94976D01*
Y93966D01*
Y93889D01*
X94899D01*
Y93812D01*
Y93735D01*
X94822D01*
Y93658D01*
X94745D01*
Y93581D01*
Y93504D01*
Y93427D01*
X94668D01*
Y93350D01*
Y93273D01*
X94591D01*
Y93196D01*
X94514D01*
Y93119D01*
Y93042D01*
X94437D01*
Y92965D01*
Y92888D01*
X94360D01*
Y92811D01*
X94283D01*
Y92734D01*
Y92656D01*
X94206D01*
Y92580D01*
Y92502D01*
Y92425D01*
X94052D01*
Y92348D01*
Y92271D01*
Y92194D01*
X93975D01*
Y92117D01*
Y92040D01*
X93821D01*
Y91963D01*
Y91886D01*
Y91809D01*
X93743D01*
Y91732D01*
X93666D01*
Y91655D01*
Y91578D01*
X93590D01*
Y91501D01*
Y91424D01*
X93512D01*
Y91347D01*
Y91270D01*
Y91193D01*
X93358D01*
Y91116D01*
Y91039D01*
Y90962D01*
X93281D01*
Y91039D01*
Y91116D01*
Y91193D01*
X93127D01*
Y91270D01*
X93050D01*
Y91347D01*
Y91424D01*
X92973D01*
Y91501D01*
Y91578D01*
X92896D01*
Y91655D01*
Y91732D01*
X92742D01*
Y91809D01*
Y91886D01*
X92665D01*
Y91963D01*
X92588D01*
Y92040D01*
Y92117D01*
X92511D01*
Y92194D01*
Y92271D01*
X92357D01*
Y92348D01*
Y92425D01*
X92280D01*
Y92502D01*
X92203D01*
Y92580D01*
Y92656D01*
X92126D01*
Y92734D01*
Y92811D01*
X92049D01*
Y92888D01*
Y92965D01*
X91895D01*
Y93042D01*
Y93119D01*
X91818D01*
Y93196D01*
X91741D01*
Y93273D01*
Y93350D01*
X91664D01*
Y93427D01*
Y93504D01*
X91510D01*
Y93581D01*
Y93658D01*
X91433D01*
Y93735D01*
Y93812D01*
X91356D01*
Y93889D01*
X91279D01*
Y93966D01*
Y94043D01*
X91124D01*
Y94120D01*
Y94197D01*
X91048D01*
Y94274D01*
Y94351D01*
X90970D01*
Y94428D01*
Y94505D01*
X90816D01*
Y94582D01*
Y94659D01*
Y94736D01*
X90662D01*
Y94813D01*
Y94890D01*
X90585D01*
Y94967D01*
Y95044D01*
X90431D01*
Y95122D01*
Y95199D01*
X90354D01*
Y95275D01*
X90277D01*
Y95353D01*
Y95430D01*
X90200D01*
Y95507D01*
Y95584D01*
X90123D01*
Y95661D01*
Y95738D01*
X89969D01*
Y95815D01*
Y95892D01*
X89892D01*
Y95969D01*
X89815D01*
Y96046D01*
Y96123D01*
X89738D01*
Y96200D01*
Y96277D01*
X89584D01*
Y96354D01*
Y96431D01*
X89507D01*
Y96508D01*
Y96585D01*
X89430D01*
Y96662D01*
X89353D01*
Y96739D01*
X89276D01*
Y96816D01*
X89199D01*
Y96893D01*
Y96970D01*
X89122D01*
Y97047D01*
Y97124D01*
X89045D01*
Y97201D01*
Y97278D01*
X88891D01*
Y97355D01*
Y97432D01*
X88814D01*
Y97509D01*
X88737D01*
Y97586D01*
Y97663D01*
X88660D01*
Y97740D01*
Y97817D01*
X88583D01*
Y97895D01*
X88506D01*
Y97971D01*
X88428D01*
Y98049D01*
Y98126D01*
X88352D01*
Y98203D01*
X88275D01*
Y98280D01*
Y98357D01*
X88197D01*
Y98434D01*
X88120D01*
Y98511D01*
X87966D01*
Y98588D01*
X87812D01*
Y98665D01*
X87735D01*
Y98742D01*
X87504D01*
Y98819D01*
X87273D01*
Y98896D01*
X84577D01*
Y98819D01*
Y98742D01*
X84654D01*
Y98665D01*
X84731D01*
Y98588D01*
Y98511D01*
Y98434D01*
X84885D01*
Y98357D01*
Y98280D01*
X84962D01*
Y98203D01*
Y98126D01*
X85039D01*
Y98049D01*
Y97971D01*
X85193D01*
Y97895D01*
X85270D01*
Y97817D01*
Y97740D01*
X85347D01*
Y97663D01*
Y97586D01*
X85424D01*
Y97509D01*
Y97432D01*
X85578D01*
Y97355D01*
Y97278D01*
X85655D01*
Y97201D01*
Y97124D01*
X85733D01*
Y97047D01*
Y96970D01*
X85887D01*
Y96893D01*
Y96816D01*
X85964D01*
Y96739D01*
X86041D01*
Y96662D01*
Y96585D01*
X86118D01*
Y96508D01*
Y96431D01*
X86272D01*
Y96354D01*
Y96277D01*
X86349D01*
Y96200D01*
Y96123D01*
X86426D01*
Y96046D01*
X86503D01*
Y95969D01*
Y95892D01*
X86580D01*
Y95815D01*
X86657D01*
Y95738D01*
X86734D01*
Y95661D01*
Y95584D01*
X86811D01*
Y95507D01*
Y95430D01*
X86888D01*
Y95353D01*
X86965D01*
Y95275D01*
X87042D01*
Y95199D01*
Y95122D01*
X87119D01*
Y95044D01*
X87196D01*
Y94967D01*
Y94890D01*
X87273D01*
Y94813D01*
Y94736D01*
X87427D01*
Y94659D01*
Y94582D01*
X87504D01*
Y94505D01*
Y94428D01*
X87581D01*
Y94351D01*
X87658D01*
Y94274D01*
Y94197D01*
X87735D01*
Y94120D01*
Y94043D01*
X87889D01*
Y93966D01*
Y93889D01*
X87966D01*
Y93812D01*
Y93735D01*
X88043D01*
Y93658D01*
X88120D01*
Y93581D01*
Y93504D01*
X88197D01*
Y93427D01*
Y93350D01*
X88352D01*
Y93273D01*
Y93196D01*
X88428D01*
Y93119D01*
Y93042D01*
X88583D01*
Y92965D01*
Y92888D01*
X88660D01*
Y92811D01*
Y92734D01*
X88737D01*
Y92656D01*
X88814D01*
Y92580D01*
Y92502D01*
X88891D01*
Y92425D01*
Y92348D01*
X89045D01*
Y92271D01*
Y92194D01*
X89122D01*
Y92117D01*
Y92040D01*
X89199D01*
Y91963D01*
X89276D01*
Y91886D01*
X89353D01*
Y91809D01*
X89430D01*
Y91732D01*
Y91655D01*
X89507D01*
Y91578D01*
Y91501D01*
X89584D01*
Y91424D01*
X89661D01*
Y91347D01*
X89738D01*
Y91270D01*
Y91193D01*
X89815D01*
Y91116D01*
Y91039D01*
X89892D01*
Y90962D01*
X89969D01*
Y90885D01*
X90046D01*
Y90808D01*
X90123D01*
Y90731D01*
Y90654D01*
X90200D01*
Y90577D01*
Y90500D01*
X90277D01*
Y90423D01*
X90354D01*
Y90346D01*
Y90269D01*
X90431D01*
Y90192D01*
X90508D01*
Y90115D01*
Y90038D01*
X90585D01*
Y89960D01*
X90662D01*
Y89884D01*
Y89806D01*
X90739D01*
Y89729D01*
X90816D01*
Y89652D01*
X90893D01*
Y89575D01*
Y89498D01*
X90970D01*
Y89421D01*
X91048D01*
Y89344D01*
Y89267D01*
X91124D01*
Y89190D01*
Y89113D01*
X91279D01*
Y89036D01*
Y88959D01*
X91356D01*
Y88882D01*
X91433D01*
Y88805D01*
Y88728D01*
X91510D01*
Y88651D01*
Y88574D01*
X91587D01*
Y88497D01*
Y88420D01*
X91741D01*
Y88343D01*
Y88266D01*
X91818D01*
Y88189D01*
X91895D01*
Y88112D01*
Y88035D01*
X91972D01*
Y87958D01*
Y87881D01*
X92126D01*
Y87804D01*
Y87727D01*
X92203D01*
Y87650D01*
Y87573D01*
X92280D01*
Y87496D01*
Y87419D01*
X92434D01*
Y87341D01*
Y87265D01*
Y87187D01*
X92588D01*
Y87110D01*
Y87033D01*
X92665D01*
Y86956D01*
Y86879D01*
X92819D01*
Y86802D01*
Y86725D01*
X92896D01*
Y86648D01*
Y86571D01*
X92973D01*
Y86494D01*
X93050D01*
Y86417D01*
Y86340D01*
X93127D01*
Y86263D01*
Y86186D01*
X93281D01*
Y86109D01*
Y86032D01*
X93358D01*
Y85955D01*
Y85878D01*
X93435D01*
Y85801D01*
X93512D01*
Y85724D01*
Y85647D01*
X93666D01*
Y85570D01*
Y85493D01*
X93743D01*
Y85416D01*
Y85339D01*
X93821D01*
Y85262D01*
Y85185D01*
X93975D01*
Y85108D01*
Y85031D01*
X94052D01*
Y84954D01*
X94129D01*
Y84877D01*
Y84799D01*
X94206D01*
Y84723D01*
Y84645D01*
X94283D01*
Y84568D01*
X94360D01*
Y84491D01*
X94437D01*
Y84414D01*
Y84337D01*
X94514D01*
Y84260D01*
X94591D01*
Y84183D01*
Y84106D01*
X94668D01*
Y84029D01*
X94745D01*
Y83952D01*
X94822D01*
Y83875D01*
Y83798D01*
X94899D01*
Y83721D01*
Y83644D01*
X94976D01*
Y83567D01*
X95053D01*
Y83490D01*
Y83413D01*
X95207D01*
Y83336D01*
Y83259D01*
X95284D01*
Y83182D01*
Y83105D01*
X92742D01*
Y83182D01*
X92511D01*
Y83259D01*
X92203D01*
Y83336D01*
X92126D01*
Y83413D01*
X91895D01*
Y83490D01*
X91818D01*
Y83567D01*
X91664D01*
Y83644D01*
Y83721D01*
X91587D01*
Y83798D01*
X91433D01*
Y83875D01*
Y83952D01*
X91279D01*
Y84029D01*
Y84106D01*
X91202D01*
Y84183D01*
X91124D01*
Y84260D01*
Y84337D01*
X91048D01*
Y84414D01*
Y84491D01*
X90970D01*
Y84568D01*
Y84645D01*
X90816D01*
Y84723D01*
Y84799D01*
Y84877D01*
X90662D01*
Y84954D01*
Y85031D01*
X90585D01*
Y85108D01*
Y85185D01*
X90431D01*
Y85262D01*
Y85339D01*
X90354D01*
Y85416D01*
X90277D01*
Y85493D01*
Y85570D01*
X90200D01*
Y85647D01*
Y85724D01*
X90123D01*
Y85801D01*
Y85878D01*
X89969D01*
Y85955D01*
X89892D01*
Y86032D01*
Y86109D01*
X89815D01*
Y86186D01*
Y86263D01*
X89738D01*
Y86340D01*
Y86417D01*
X89584D01*
Y86494D01*
Y86571D01*
X89507D01*
Y86648D01*
X89430D01*
Y86725D01*
Y86802D01*
X89353D01*
Y86879D01*
Y86956D01*
X89199D01*
Y87033D01*
Y87110D01*
X89122D01*
Y87187D01*
X89045D01*
Y87265D01*
Y87341D01*
X88968D01*
Y87419D01*
X88891D01*
Y87496D01*
X88814D01*
Y87573D01*
Y87650D01*
X88737D01*
Y87727D01*
X88660D01*
Y87804D01*
Y87881D01*
X88583D01*
Y87958D01*
X88506D01*
Y88035D01*
Y88112D01*
X88428D01*
Y88189D01*
X88352D01*
Y88266D01*
Y88343D01*
X88275D01*
Y88420D01*
X88197D01*
Y88497D01*
Y88574D01*
X88120D01*
Y88651D01*
X88043D01*
Y88728D01*
X87966D01*
Y88805D01*
Y88882D01*
X87889D01*
Y88959D01*
X87812D01*
Y89036D01*
Y89113D01*
X87735D01*
Y89190D01*
X87658D01*
Y89267D01*
X87581D01*
Y89344D01*
Y89421D01*
X87504D01*
Y89498D01*
X87427D01*
Y89575D01*
Y89652D01*
X87350D01*
Y89729D01*
X87273D01*
Y89806D01*
Y89884D01*
X87196D01*
Y89960D01*
X87119D01*
Y90038D01*
Y90115D01*
X87042D01*
Y90192D01*
X86965D01*
Y90269D01*
X86888D01*
Y90346D01*
Y90423D01*
X86811D01*
Y90500D01*
X86734D01*
Y90577D01*
Y90654D01*
X86657D01*
Y90731D01*
X86580D01*
Y90808D01*
Y90885D01*
X86503D01*
Y90962D01*
X86426D01*
Y91039D01*
X86349D01*
Y91116D01*
Y91193D01*
X86272D01*
Y91270D01*
X86195D01*
Y91347D01*
Y91424D01*
X86118D01*
Y91501D01*
X86041D01*
Y91578D01*
X85964D01*
Y91655D01*
Y91732D01*
X85887D01*
Y91809D01*
X85809D01*
Y91886D01*
Y91963D01*
X85733D01*
Y92040D01*
X85655D01*
Y92117D01*
Y92194D01*
X85578D01*
Y92271D01*
X85501D01*
Y92348D01*
X85424D01*
Y92425D01*
Y92502D01*
X85347D01*
Y92580D01*
Y92656D01*
X85270D01*
Y92734D01*
X85193D01*
Y92811D01*
X85116D01*
Y92888D01*
X85039D01*
Y92965D01*
Y93042D01*
X84962D01*
Y93119D01*
Y93196D01*
X84885D01*
Y93273D01*
X84808D01*
Y93350D01*
X84731D01*
Y93427D01*
X84654D01*
Y93504D01*
Y93581D01*
X84577D01*
Y93658D01*
Y93735D01*
X84500D01*
Y93812D01*
X84423D01*
Y93889D01*
Y93966D01*
X84269D01*
Y94043D01*
Y94120D01*
X84192D01*
Y94197D01*
Y94274D01*
X84115D01*
Y94351D01*
Y94428D01*
X84038D01*
Y94505D01*
X83961D01*
Y94582D01*
X83884D01*
Y94659D01*
X83807D01*
Y94736D01*
Y94813D01*
X83730D01*
Y94890D01*
Y94967D01*
X83653D01*
Y95044D01*
X83576D01*
Y95122D01*
X83499D01*
Y95199D01*
X83422D01*
Y95275D01*
Y95353D01*
X83345D01*
Y95430D01*
Y95507D01*
X83268D01*
Y95584D01*
X83191D01*
Y95661D01*
Y95738D01*
X83037D01*
Y95815D01*
Y95892D01*
X82959D01*
Y95969D01*
Y96046D01*
X82882D01*
Y96123D01*
Y96200D01*
X82805D01*
Y96277D01*
X82728D01*
Y96354D01*
Y96431D01*
X82574D01*
Y96508D01*
Y96585D01*
X82497D01*
Y96662D01*
Y96739D01*
X82420D01*
Y96816D01*
X82343D01*
Y96893D01*
Y96970D01*
X82189D01*
Y97047D01*
Y97124D01*
X82112D01*
Y97201D01*
Y97278D01*
X82035D01*
Y97355D01*
X81958D01*
Y97432D01*
Y97509D01*
X81804D01*
Y97586D01*
Y97663D01*
X81727D01*
Y97740D01*
Y97817D01*
X81650D01*
Y97895D01*
X81573D01*
Y97971D01*
Y98049D01*
X81496D01*
Y98126D01*
Y98203D01*
X81342D01*
Y98280D01*
Y98357D01*
X81265D01*
Y98434D01*
X81188D01*
Y98511D01*
Y98588D01*
X81111D01*
Y98665D01*
Y98742D01*
X80957D01*
Y98819D01*
Y98896D01*
X80880D01*
Y98973D01*
X80803D01*
Y99050D01*
Y99127D01*
X80726D01*
Y99204D01*
Y99281D01*
X80572D01*
Y99358D01*
Y99435D01*
X80494D01*
Y99512D01*
X80418D01*
Y99589D01*
Y99666D01*
X80340D01*
Y99743D01*
Y99820D01*
X80263D01*
Y99897D01*
Y99974D01*
X80109D01*
Y100051D01*
X80032D01*
Y100128D01*
Y100205D01*
X79955D01*
Y100282D01*
Y100359D01*
X79878D01*
Y100436D01*
Y100514D01*
X79724D01*
Y100591D01*
Y100668D01*
Y100745D01*
X79570D01*
Y100822D01*
Y100899D01*
X79493D01*
Y100976D01*
Y101053D01*
X79339D01*
Y101130D01*
Y101207D01*
X79262D01*
Y101284D01*
X79185D01*
Y101361D01*
Y101438D01*
X79108D01*
Y101515D01*
Y101592D01*
X78954D01*
Y101669D01*
Y101746D01*
X78877D01*
Y101823D01*
X78800D01*
Y101900D01*
Y101977D01*
X78723D01*
Y102054D01*
Y102131D01*
X78646D01*
Y102208D01*
X78569D01*
Y102285D01*
X78492D01*
Y102362D01*
Y102439D01*
X78415D01*
Y102516D01*
X78338D01*
Y102593D01*
Y102670D01*
X78261D01*
Y102747D01*
X78184D01*
Y102824D01*
X78107D01*
Y102901D01*
Y102978D01*
X78030D01*
Y103056D01*
X77952D01*
Y103132D01*
Y103209D01*
X77876D01*
Y103287D01*
X77798D01*
Y103364D01*
X77722D01*
Y103441D01*
Y103518D01*
X77644D01*
Y103595D01*
X77567D01*
Y103672D01*
Y103749D01*
X77490D01*
Y103826D01*
X77413D01*
Y103903D01*
Y103980D01*
X77336D01*
Y104057D01*
X77259D01*
Y104134D01*
Y104211D01*
X77182D01*
Y104288D01*
X77105D01*
Y104365D01*
Y104442D01*
X77028D01*
Y104519D01*
X76951D01*
Y104596D01*
X76874D01*
Y104673D01*
Y104750D01*
X76797D01*
Y104827D01*
X76720D01*
Y104904D01*
Y104981D01*
X76643D01*
Y105058D01*
X76566D01*
Y105135D01*
X76489D01*
Y105212D01*
Y105289D01*
X76412D01*
Y105366D01*
X76335D01*
Y105443D01*
Y105520D01*
X76258D01*
Y105597D01*
X76181D01*
Y105675D01*
Y105752D01*
X76104D01*
Y105828D01*
X76027D01*
Y105905D01*
Y105983D01*
X75950D01*
Y106060D01*
X75873D01*
Y106137D01*
X75796D01*
Y106214D01*
Y106291D01*
X75719D01*
Y106368D01*
X75642D01*
Y106445D01*
Y106522D01*
X75565D01*
Y106599D01*
X75488D01*
Y106676D01*
Y106753D01*
X75411D01*
Y106830D01*
X75333D01*
Y106907D01*
X75257D01*
Y106984D01*
Y107061D01*
X75179D01*
Y107138D01*
X75102D01*
Y107215D01*
Y107292D01*
X75025D01*
Y107369D01*
X74948D01*
Y107446D01*
Y107523D01*
X74871D01*
Y107600D01*
X74794D01*
Y107677D01*
X74717D01*
Y107754D01*
Y107831D01*
X74640D01*
Y107908D01*
X74563D01*
Y107985D01*
Y108062D01*
X74486D01*
Y108139D01*
X74409D01*
Y108216D01*
X74332D01*
Y108293D01*
Y108370D01*
X74255D01*
Y108448D01*
Y108525D01*
X74178D01*
Y108602D01*
X74101D01*
Y108679D01*
X74024D01*
Y108756D01*
X73947D01*
Y108833D01*
Y108910D01*
X73870D01*
Y108987D01*
Y109064D01*
X73793D01*
Y109141D01*
X73716D01*
Y109218D01*
X73639D01*
Y109295D01*
X73562D01*
Y109372D01*
Y109449D01*
X73485D01*
Y109526D01*
Y109603D01*
X73408D01*
Y109680D01*
Y109757D01*
X73331D01*
Y109834D01*
X73254D01*
Y109911D01*
X73177D01*
Y109988D01*
X73100D01*
Y110065D01*
Y110142D01*
X73023D01*
Y110219D01*
Y110296D01*
X72946D01*
Y110373D01*
X72869D01*
Y110450D01*
Y110527D01*
X72715D01*
Y110604D01*
Y110681D01*
X72637D01*
Y110758D01*
Y110835D01*
X72561D01*
Y110912D01*
X72483D01*
Y110989D01*
Y111066D01*
X72329D01*
Y111144D01*
Y111221D01*
X72252D01*
Y111298D01*
X82266D01*
Y111221D01*
D02*
G37*
%LPC*%
G36*
X80803Y108293D02*
X78184D01*
Y108216D01*
Y108139D01*
Y108062D01*
X78261D01*
Y107985D01*
Y107908D01*
X78338D01*
Y107831D01*
X78415D01*
Y107754D01*
Y107677D01*
X78569D01*
Y107600D01*
Y107523D01*
X78646D01*
Y107446D01*
Y107369D01*
X78723D01*
Y107292D01*
Y107215D01*
X78800D01*
Y107138D01*
X78877D01*
Y107061D01*
Y106984D01*
X79031D01*
Y106907D01*
Y106830D01*
X79108D01*
Y106753D01*
Y106676D01*
X79185D01*
Y106599D01*
X79262D01*
Y106522D01*
X79339D01*
Y106445D01*
Y106368D01*
X79416D01*
Y106291D01*
X79493D01*
Y106214D01*
Y106137D01*
X79570D01*
Y106060D01*
X79647D01*
Y105983D01*
X79724D01*
Y105905D01*
Y105828D01*
X79801D01*
Y105752D01*
Y105675D01*
X79878D01*
Y105597D01*
X79955D01*
Y105520D01*
Y105443D01*
X80032D01*
Y105366D01*
X80109D01*
Y105289D01*
X80186D01*
Y105212D01*
Y105135D01*
X80263D01*
Y105058D01*
X80340D01*
Y104981D01*
Y104904D01*
X80418D01*
Y104827D01*
X80494D01*
Y104750D01*
Y104673D01*
X80572D01*
Y104596D01*
X80649D01*
Y104519D01*
Y104442D01*
X80726D01*
Y104365D01*
X80803D01*
Y104288D01*
X80880D01*
Y104211D01*
Y104134D01*
X80957D01*
Y104057D01*
X81034D01*
Y103980D01*
Y103903D01*
X81111D01*
Y103826D01*
Y103749D01*
X81188D01*
Y103672D01*
Y103595D01*
X81342D01*
Y103518D01*
Y103441D01*
X81419D01*
Y103364D01*
X81496D01*
Y103287D01*
Y103209D01*
X81573D01*
Y103132D01*
Y103056D01*
X81727D01*
Y102978D01*
Y102901D01*
X81804D01*
Y102824D01*
Y102747D01*
X81881D01*
Y102670D01*
X81958D01*
Y102593D01*
Y102516D01*
X82112D01*
Y102439D01*
X82035D01*
Y102362D01*
X82189D01*
Y102285D01*
Y102208D01*
X82266D01*
Y102131D01*
Y102054D01*
X82420D01*
Y101977D01*
X85655D01*
Y102054D01*
Y102131D01*
X85578D01*
Y102208D01*
X85501D01*
Y102285D01*
Y102362D01*
X85424D01*
Y102439D01*
Y102516D01*
X85270D01*
Y102593D01*
Y102670D01*
X85193D01*
Y102747D01*
X85116D01*
Y102824D01*
Y102901D01*
X85039D01*
Y102978D01*
X84962D01*
Y103056D01*
Y103132D01*
Y103209D01*
X84808D01*
Y103287D01*
Y103364D01*
X84731D01*
Y103441D01*
X84654D01*
Y103518D01*
Y103595D01*
X84577D01*
Y103672D01*
Y103749D01*
X84423D01*
Y103826D01*
Y103903D01*
X84346D01*
Y103980D01*
Y104057D01*
X84269D01*
Y104134D01*
X84192D01*
Y104211D01*
X84115D01*
Y104288D01*
Y104365D01*
Y104442D01*
X83961D01*
Y104519D01*
Y104596D01*
X83884D01*
Y104673D01*
Y104750D01*
X83730D01*
Y104827D01*
Y104904D01*
X83653D01*
Y104981D01*
X83576D01*
Y105058D01*
Y105135D01*
X83499D01*
Y105212D01*
Y105289D01*
X83422D01*
Y105366D01*
Y105443D01*
X83268D01*
Y105520D01*
Y105597D01*
X83191D01*
Y105675D01*
X83113D01*
Y105752D01*
Y105828D01*
X83037D01*
Y105905D01*
Y105983D01*
X82882D01*
Y106060D01*
Y106137D01*
X82805D01*
Y106214D01*
Y106291D01*
X82728D01*
Y106368D01*
X82651D01*
Y106445D01*
Y106522D01*
X82497D01*
Y106599D01*
Y106676D01*
X82420D01*
Y106753D01*
Y106830D01*
X82343D01*
Y106907D01*
Y106984D01*
X82189D01*
Y107061D01*
Y107138D01*
Y107215D01*
X82035D01*
Y107292D01*
Y107369D01*
X81958D01*
Y107446D01*
X81881D01*
Y107523D01*
Y107600D01*
X81804D01*
Y107677D01*
X81727D01*
Y107754D01*
X81650D01*
Y107831D01*
X81573D01*
Y107908D01*
X81496D01*
Y107985D01*
X81342D01*
Y108062D01*
X81188D01*
Y108139D01*
X81034D01*
Y108216D01*
X80803D01*
Y108293D01*
D02*
G37*
%LPD*%
D10*
X191282Y25589D02*
G03*
X191282Y25492I-24648J-97D01*
G01*
X187593Y204036D02*
G03*
X187458Y195049I166J-4497D01*
G01*
X86249Y327573D02*
G03*
X86249Y337781I10208J5104D01*
G01*
X123937Y135307D02*
G03*
X123937Y135307I-500J0D01*
G01*
X25591Y59055D02*
G03*
X25591Y59055I-7874J0D01*
G01*
X183071D02*
G03*
X183071Y59055I-7874J0D01*
G01*
X25591Y295276D02*
G03*
X25591Y295276I-7874J0D01*
G01*
X183071D02*
G03*
X183071Y295276I-7874J0D01*
G01*
X86249Y327573D02*
Y337781D01*
X123605Y131921D02*
Y129255D01*
X124938Y127922D01*
X126271Y129255D01*
Y131921D01*
X130270Y131254D02*
X129604Y131921D01*
X128271D01*
X127604Y131254D01*
Y128588D01*
X128271Y127922D01*
X129604D01*
X130270Y128588D01*
X134269Y131254D02*
X133602Y131921D01*
X132269D01*
X131603Y131254D01*
Y128588D01*
X132269Y127922D01*
X133602D01*
X134269Y128588D01*
X147422Y92213D02*
X146755Y92879D01*
X145422D01*
X144756Y92213D01*
Y91546D01*
X145422Y90880D01*
X146755D01*
X147422Y90213D01*
Y89547D01*
X146755Y88880D01*
X145422D01*
X144756Y89547D01*
X148755Y88880D02*
Y89547D01*
X149421D01*
Y88880D01*
X148755D01*
X152087D02*
Y91546D01*
X153420Y92879D01*
X154753Y91546D01*
Y88880D01*
Y90880D01*
X152087D01*
X156086Y91546D02*
Y88880D01*
Y90213D01*
X156752Y90880D01*
X157419Y91546D01*
X158085D01*
X160084Y88880D02*
X161417D01*
X160751D01*
Y91546D01*
X160084D01*
X163417Y88880D02*
Y92879D01*
Y90213D02*
X165416Y91546D01*
X163417Y90213D02*
X165416Y88880D01*
X168082Y91546D02*
X169415D01*
X170081Y90880D01*
Y88880D01*
X168082D01*
X167415Y89547D01*
X168082Y90213D01*
X170081D01*
X171414Y91546D02*
Y89547D01*
X172081Y88880D01*
X174080D01*
Y88214D01*
X173413Y87548D01*
X172747D01*
X174080Y88880D02*
Y91546D01*
X176079D02*
X177412D01*
X178079Y90880D01*
Y88880D01*
X176079D01*
X175413Y89547D01*
X176079Y90213D01*
X178079D01*
X152753Y84348D02*
Y80349D01*
Y82349D01*
X155419D01*
Y84348D01*
Y80349D01*
X156752D02*
Y81016D01*
X157419D01*
Y80349D01*
X156752D01*
X160084D02*
Y84348D01*
X162084D01*
X162750Y83681D01*
Y82349D01*
X162084Y81682D01*
X160084D01*
X161417D02*
X162750Y80349D01*
X164083D02*
Y81016D01*
X164750D01*
Y80349D01*
X164083D01*
X167415Y84348D02*
Y83681D01*
X168748Y82349D01*
X170081Y83681D01*
Y84348D01*
X168748Y82349D02*
Y80349D01*
X138113Y177514D02*
X137447Y178181D01*
X136114D01*
X135447Y177514D01*
Y174848D01*
X136114Y174182D01*
X137447D01*
X138113Y174848D01*
Y176181D01*
X136780D01*
X139446Y178181D02*
Y174182D01*
Y175515D01*
X142112Y178181D01*
X140112Y176181D01*
X142112Y174182D01*
X54026Y174243D02*
X55359D01*
X54692D01*
Y170245D01*
X54026D01*
X55359D01*
X60024Y173577D02*
X59358Y174243D01*
X58025D01*
X57358Y173577D01*
Y170911D01*
X58025Y170245D01*
X59358D01*
X60024Y170911D01*
X64023Y173577D02*
X63356Y174243D01*
X62023D01*
X61357Y173577D01*
Y172910D01*
X62023Y172244D01*
X63356D01*
X64023Y171578D01*
Y170911D01*
X63356Y170245D01*
X62023D01*
X61357Y170911D01*
X65356Y170245D02*
Y174243D01*
X67355D01*
X68021Y173577D01*
Y172244D01*
X67355Y171578D01*
X65356D01*
X125605Y178181D02*
Y174182D01*
Y175515D01*
X128271Y178181D01*
X126271Y176181D01*
X128271Y174182D01*
X129604Y176181D02*
X132269D01*
X130936Y177514D02*
Y174848D01*
X140112Y131254D02*
X139446Y131921D01*
X138113D01*
X137447Y131254D01*
Y128588D01*
X138113Y127922D01*
X139446D01*
X140112Y128588D01*
Y129921D01*
X138779D01*
X143352Y25591D02*
X146018D01*
X144685Y26923D02*
Y24258D01*
X92662Y326848D02*
X95328D01*
X93995Y328181D02*
Y325515D01*
X31997Y141786D02*
Y145785D01*
X33996D01*
X34663Y145118D01*
Y143785D01*
X33996Y143119D01*
X31997D01*
X33330D02*
X34663Y141786D01*
X37995D02*
X36662D01*
X35995Y142452D01*
Y143785D01*
X36662Y144452D01*
X37995D01*
X38661Y143785D01*
Y143119D01*
X35995D01*
X39994Y141786D02*
X41993D01*
X42660Y142452D01*
X41993Y143119D01*
X40661D01*
X39994Y143785D01*
X40661Y144452D01*
X42660D01*
X45992Y141786D02*
X44659D01*
X43993Y142452D01*
Y143785D01*
X44659Y144452D01*
X45992D01*
X46659Y143785D01*
Y143119D01*
X43993D01*
X48658Y145118D02*
Y144452D01*
X47991D01*
X49324D01*
X48658D01*
Y142452D01*
X49324Y141786D01*
X41207Y154632D02*
X40541Y155299D01*
X39208D01*
X38541Y154632D01*
Y153966D01*
X39208Y153299D01*
X40541D01*
X41207Y152633D01*
Y151967D01*
X40541Y151300D01*
X39208D01*
X38541Y151967D01*
X45206Y154632D02*
X44540Y155299D01*
X43207D01*
X42540Y154632D01*
Y151967D01*
X43207Y151300D01*
X44540D01*
X45206Y151967D01*
X46539Y155299D02*
Y151300D01*
Y152633D01*
X49205Y155299D01*
X47205Y153299D01*
X49205Y151300D01*
X35325Y161387D02*
Y165385D01*
X36658Y164052D01*
X37991Y165385D01*
Y161387D01*
X39324Y165385D02*
X40657D01*
X39990D01*
Y161387D01*
X39324D01*
X40657D01*
X45322Y164719D02*
X44655Y165385D01*
X43323D01*
X42656Y164719D01*
Y164052D01*
X43323Y163386D01*
X44655D01*
X45322Y162719D01*
Y162053D01*
X44655Y161387D01*
X43323D01*
X42656Y162053D01*
X48654Y165385D02*
X47321D01*
X46655Y164719D01*
Y162053D01*
X47321Y161387D01*
X48654D01*
X49321Y162053D01*
Y164719D01*
X48654Y165385D01*
X75090Y145034D02*
X74424Y145700D01*
X73091D01*
X72424Y145034D01*
Y142368D01*
X73091Y141701D01*
X74424D01*
X75090Y142368D01*
Y143701D01*
X73757D01*
X76423Y141701D02*
Y145700D01*
X79089Y141701D01*
Y145700D01*
X80422D02*
Y141701D01*
X82421D01*
X83087Y142368D01*
Y145034D01*
X82421Y145700D01*
X80422D01*
X73060Y151544D02*
Y155543D01*
X74393Y154210D01*
X75726Y155543D01*
Y151544D01*
X79058Y155543D02*
X77725D01*
X77059Y154876D01*
Y152210D01*
X77725Y151544D01*
X79058D01*
X79724Y152210D01*
Y154876D01*
X79058Y155543D01*
X83723Y154876D02*
X83057Y155543D01*
X81724D01*
X81057Y154876D01*
Y154210D01*
X81724Y153543D01*
X83057D01*
X83723Y152877D01*
Y152210D01*
X83057Y151544D01*
X81724D01*
X81057Y152210D01*
X85056Y155543D02*
X86389D01*
X85723D01*
Y151544D01*
X85056D01*
X86389D01*
X72424Y163386D02*
X75090D01*
X73757Y164719D02*
Y162053D01*
X79089Y165385D02*
X76423D01*
Y163386D01*
X77756Y164052D01*
X78422D01*
X79089Y163386D01*
Y162053D01*
X78422Y161387D01*
X77090D01*
X76423Y162053D01*
X80422Y165385D02*
Y162719D01*
X81755Y161387D01*
X83087Y162719D01*
Y165385D01*
X101952Y135858D02*
Y133192D01*
X103285Y131859D01*
X104618Y133192D01*
Y135858D01*
X108616Y135191D02*
X107950Y135858D01*
X106617D01*
X105951Y135191D01*
Y132525D01*
X106617Y131859D01*
X107950D01*
X108616Y132525D01*
X112615Y135191D02*
X111949Y135858D01*
X110616D01*
X109949Y135191D01*
Y132525D01*
X110616Y131859D01*
X111949D01*
X112615Y132525D01*
X104717Y145118D02*
X104051Y145785D01*
X102718D01*
X102051Y145118D01*
Y142452D01*
X102718Y141786D01*
X104051D01*
X104717Y142452D01*
Y143785D01*
X103384D01*
X106050Y141786D02*
Y145785D01*
X108716Y141786D01*
Y145785D01*
X110049D02*
Y141786D01*
X112048D01*
X112715Y142452D01*
Y145118D01*
X112048Y145785D01*
X110049D01*
X102223Y155225D02*
Y151226D01*
Y152559D01*
X104889Y155225D01*
X102890Y153226D01*
X104889Y151226D01*
X106888Y153892D02*
X108221D01*
X108888Y153226D01*
Y151226D01*
X106888D01*
X106222Y151893D01*
X106888Y152559D01*
X108888D01*
X110221Y149893D02*
Y153892D01*
X112220D01*
X112887Y153226D01*
Y151893D01*
X112220Y151226D01*
X110221D01*
X114219D02*
X115552D01*
X114886D01*
Y153892D01*
X114219D01*
X117552Y153226D02*
X120218D01*
X102223Y166052D02*
Y162053D01*
Y163386D01*
X104889Y166052D01*
X102890Y164052D01*
X104889Y162053D01*
X106888Y164719D02*
X108221D01*
X108888Y164052D01*
Y162053D01*
X106888D01*
X106222Y162719D01*
X106888Y163386D01*
X108888D01*
X110221Y160720D02*
Y164719D01*
X112220D01*
X112887Y164052D01*
Y162719D01*
X112220Y162053D01*
X110221D01*
X114219D02*
X115552D01*
X114886D01*
Y164719D01*
X114219D01*
X117552Y164052D02*
X120218D01*
X118885Y165385D02*
Y162719D01*
X104587Y175546D02*
X103920Y176212D01*
X102587D01*
X101921Y175546D01*
Y172880D01*
X102587Y172213D01*
X103920D01*
X104587Y172880D01*
Y174213D01*
X103254D01*
X105920Y172213D02*
Y176212D01*
X108586Y172213D01*
Y176212D01*
X109918D02*
Y172213D01*
X111918D01*
X112584Y172880D01*
Y175546D01*
X111918Y176212D01*
X109918D01*
X113917D02*
Y172213D01*
Y173546D01*
X116583Y176212D01*
X114584Y174213D01*
X116583Y172213D01*
X49833Y271018D02*
X49166Y271684D01*
X47833D01*
X47167Y271018D01*
Y268352D01*
X47833Y267686D01*
X49166D01*
X49833Y268352D01*
X51166Y267686D02*
X52499D01*
X51832D01*
Y271684D01*
X51166Y271018D01*
X57164Y271684D02*
X54498D01*
Y269685D01*
X55831Y270352D01*
X56497D01*
X57164Y269685D01*
Y268352D01*
X56497Y267686D01*
X55164D01*
X54498Y268352D01*
X143957Y54165D02*
Y50166D01*
X146623D01*
X150621Y53498D02*
X149955Y54165D01*
X148622D01*
X147956Y53498D01*
Y52832D01*
X148622Y52165D01*
X149955D01*
X150621Y51499D01*
Y50832D01*
X149955Y50166D01*
X148622D01*
X147956Y50832D01*
X151954Y50166D02*
X153287D01*
X152621D01*
Y54165D01*
X151954Y53498D01*
X45562Y196881D02*
Y192883D01*
X47562D01*
X48228Y193549D01*
Y194215D01*
X47562Y194882D01*
X45562D01*
X47562D01*
X48228Y195548D01*
Y196215D01*
X47562Y196881D01*
X45562D01*
X49561Y192883D02*
X50894D01*
X50228D01*
Y196881D01*
X49561Y196215D01*
X4224Y342550D02*
Y341884D01*
X5557Y340551D01*
X6890Y341884D01*
Y342550D01*
X5557Y340551D02*
Y338552D01*
X8223D02*
X9556D01*
X8889D01*
Y342550D01*
X8223Y341884D01*
X32101Y223456D02*
Y220124D01*
X32767Y219457D01*
X34100D01*
X34767Y220124D01*
Y223456D01*
X38099Y219457D02*
Y223456D01*
X36099Y221457D01*
X38765D01*
X58676Y280543D02*
Y277210D01*
X59342Y276544D01*
X60675D01*
X61341Y277210D01*
Y280543D01*
X62674Y279876D02*
X63341Y280543D01*
X64674D01*
X65340Y279876D01*
Y279210D01*
X64674Y278543D01*
X64007D01*
X64674D01*
X65340Y277877D01*
Y277210D01*
X64674Y276544D01*
X63341D01*
X62674Y277210D01*
X44578Y11842D02*
Y8510D01*
X45245Y7843D01*
X46578D01*
X47244Y8510D01*
Y11842D01*
X48577Y7843D02*
X49910D01*
X49244D01*
Y11842D01*
X48577Y11175D01*
X150591Y153892D02*
X149924Y154558D01*
X148591D01*
X147925Y153892D01*
Y153226D01*
X148591Y152559D01*
X149924D01*
X150591Y151893D01*
Y151226D01*
X149924Y150560D01*
X148591D01*
X147925Y151226D01*
X151924Y150560D02*
X153256D01*
X152590D01*
Y154558D01*
X151924Y153892D01*
X94411Y191898D02*
Y195897D01*
X96410D01*
X97077Y195230D01*
Y193898D01*
X96410Y193231D01*
X94411D01*
X95744D02*
X97077Y191898D01*
X98410D02*
X99743D01*
X99076D01*
Y195897D01*
X98410Y195230D01*
X101742D02*
X102409Y195897D01*
X103741D01*
X104408Y195230D01*
Y192565D01*
X103741Y191898D01*
X102409D01*
X101742Y192565D01*
Y195230D01*
X96077Y218473D02*
Y222472D01*
X98076D01*
X98743Y221805D01*
Y220472D01*
X98076Y219806D01*
X96077D01*
X97410D02*
X98743Y218473D01*
X100076Y219140D02*
X100742Y218473D01*
X102075D01*
X102742Y219140D01*
Y221805D01*
X102075Y222472D01*
X100742D01*
X100076Y221805D01*
Y221139D01*
X100742Y220472D01*
X102742D01*
X128558Y317882D02*
Y321881D01*
X130557D01*
X131223Y321215D01*
Y319882D01*
X130557Y319215D01*
X128558D01*
X129890D02*
X131223Y317882D01*
X132556Y321215D02*
X133223Y321881D01*
X134556D01*
X135222Y321215D01*
Y320548D01*
X134556Y319882D01*
X135222Y319215D01*
Y318549D01*
X134556Y317882D01*
X133223D01*
X132556Y318549D01*
Y319215D01*
X133223Y319882D01*
X132556Y320548D01*
Y321215D01*
X133223Y319882D02*
X134556D01*
X113794Y317882D02*
Y321881D01*
X115793D01*
X116460Y321215D01*
Y319882D01*
X115793Y319215D01*
X113794D01*
X115127D02*
X116460Y317882D01*
X117792Y321881D02*
X120458D01*
Y321215D01*
X117792Y318549D01*
Y317882D01*
X73439D02*
Y321881D01*
X75439D01*
X76105Y321215D01*
Y319882D01*
X75439Y319215D01*
X73439D01*
X74772D02*
X76105Y317882D01*
X80104Y321881D02*
X78771Y321215D01*
X77438Y319882D01*
Y318549D01*
X78105Y317882D01*
X79438D01*
X80104Y318549D01*
Y319215D01*
X79438Y319882D01*
X77438D01*
X148243Y326741D02*
Y330739D01*
X150242D01*
X150908Y330073D01*
Y328740D01*
X150242Y328074D01*
X148243D01*
X149575D02*
X150908Y326741D01*
X154907Y330739D02*
X152241D01*
Y328740D01*
X153574Y329407D01*
X154241D01*
X154907Y328740D01*
Y327407D01*
X154241Y326741D01*
X152908D01*
X152241Y327407D01*
X109857Y6859D02*
Y10858D01*
X111856D01*
X112522Y10191D01*
Y8858D01*
X111856Y8192D01*
X109857D01*
X111190D02*
X112522Y6859D01*
X115855D02*
Y10858D01*
X113855Y8858D01*
X116521D01*
X165959Y176150D02*
Y180149D01*
X167958D01*
X168625Y179482D01*
Y178150D01*
X167958Y177483D01*
X165959D01*
X167292D02*
X168625Y176150D01*
X169958Y179482D02*
X170624Y180149D01*
X171957D01*
X172624Y179482D01*
Y178816D01*
X171957Y178150D01*
X171291D01*
X171957D01*
X172624Y177483D01*
Y176817D01*
X171957Y176150D01*
X170624D01*
X169958Y176817D01*
X172849Y240127D02*
Y244125D01*
X174848D01*
X175515Y243459D01*
Y242126D01*
X174848Y241459D01*
X172849D01*
X174182D02*
X175515Y240127D01*
X179513D02*
X176848D01*
X179513Y242792D01*
Y243459D01*
X178847Y244125D01*
X177514D01*
X176848Y243459D01*
X153830Y176150D02*
Y180149D01*
X155830D01*
X156496Y179482D01*
Y178150D01*
X155830Y177483D01*
X153830D01*
X155163D02*
X156496Y176150D01*
X157829D02*
X159162D01*
X158495D01*
Y180149D01*
X157829Y179482D01*
X94806Y126015D02*
X93473D01*
X94139D01*
Y122683D01*
X93473Y122016D01*
X92807D01*
X92140Y122683D01*
X98805Y122016D02*
X96139D01*
X98805Y124682D01*
Y125349D01*
X98138Y126015D01*
X96805D01*
X96139Y125349D01*
X54134Y136842D02*
X52801D01*
X53467D01*
Y133510D01*
X52801Y132843D01*
X52135D01*
X51468Y133510D01*
X55467Y132843D02*
X56800D01*
X56133D01*
Y136842D01*
X55467Y136175D01*
X126891Y302196D02*
X128224D01*
X127558D01*
Y298198D01*
X126891D01*
X128224D01*
X132889Y301530D02*
X132223Y302196D01*
X130890D01*
X130224Y301530D01*
Y298864D01*
X130890Y298198D01*
X132223D01*
X132889Y298864D01*
X134222Y302196D02*
X136888D01*
Y301530D01*
X134222Y298864D01*
Y298198D01*
X112128Y302196D02*
X113461D01*
X112794D01*
Y298198D01*
X112128D01*
X113461D01*
X118126Y301530D02*
X117459Y302196D01*
X116126D01*
X115460Y301530D01*
Y298864D01*
X116126Y298198D01*
X117459D01*
X118126Y298864D01*
X122124Y302196D02*
X120791Y301530D01*
X119459Y300197D01*
Y298864D01*
X120125Y298198D01*
X121458D01*
X122124Y298864D01*
Y299530D01*
X121458Y300197D01*
X119459D01*
X71773Y302196D02*
X73106D01*
X72440D01*
Y298198D01*
X71773D01*
X73106D01*
X77771Y301530D02*
X77105Y302196D01*
X75772D01*
X75106Y301530D01*
Y298864D01*
X75772Y298198D01*
X77105D01*
X77771Y298864D01*
X81770Y302196D02*
X79104D01*
Y300197D01*
X80437Y300863D01*
X81104D01*
X81770Y300197D01*
Y298864D01*
X81104Y298198D01*
X79771D01*
X79104Y298864D01*
X149529Y74834D02*
X150862D01*
X150196D01*
Y70835D01*
X149529D01*
X150862D01*
X155527Y74168D02*
X154861Y74834D01*
X153528D01*
X152861Y74168D01*
Y71502D01*
X153528Y70835D01*
X154861D01*
X155527Y71502D01*
X158860Y70835D02*
Y74834D01*
X156860Y72835D01*
X159526D01*
X3860Y84676D02*
X5193D01*
X4526D01*
Y80678D01*
X3860D01*
X5193D01*
X9858Y84010D02*
X9191Y84676D01*
X7859D01*
X7192Y84010D01*
Y81344D01*
X7859Y80678D01*
X9191D01*
X9858Y81344D01*
X11191Y84010D02*
X11857Y84676D01*
X13190D01*
X13857Y84010D01*
Y83344D01*
X13190Y82677D01*
X12524D01*
X13190D01*
X13857Y82011D01*
Y81344D01*
X13190Y80678D01*
X11857D01*
X11191Y81344D01*
X177088Y179165D02*
X178421D01*
X177755D01*
Y175166D01*
X177088D01*
X178421D01*
X183086Y178498D02*
X182420Y179165D01*
X181087D01*
X180420Y178498D01*
Y175832D01*
X181087Y175166D01*
X182420D01*
X183086Y175832D01*
X187085Y175166D02*
X184419D01*
X187085Y177832D01*
Y178498D01*
X186419Y179165D01*
X185086D01*
X184419Y178498D01*
X136416Y192944D02*
X137749D01*
X137083D01*
Y188945D01*
X136416D01*
X137749D01*
X142414Y192278D02*
X141748Y192944D01*
X140415D01*
X139748Y192278D01*
Y189612D01*
X140415Y188945D01*
X141748D01*
X142414Y189612D01*
X143747Y188945D02*
X145080D01*
X144413D01*
Y192944D01*
X143747Y192278D01*
X122047Y75818D02*
X119381D01*
Y73819D01*
X120714D01*
X119381D01*
Y71820D01*
X123380D02*
X124713D01*
X124047D01*
Y75818D01*
X123380Y75152D01*
X87219Y318929D02*
Y314930D01*
X89218D01*
X89885Y315596D01*
Y318262D01*
X89218Y318929D01*
X87219D01*
X93883D02*
X92550Y318262D01*
X91218Y316929D01*
Y315596D01*
X91884Y314930D01*
X93217D01*
X93883Y315596D01*
Y316263D01*
X93217Y316929D01*
X91218D01*
X161038Y225425D02*
Y221426D01*
X163037D01*
X163704Y222092D01*
Y224758D01*
X163037Y225425D01*
X161038D01*
X167702D02*
X165036D01*
Y223425D01*
X166369Y224092D01*
X167036D01*
X167702Y223425D01*
Y222092D01*
X167036Y221426D01*
X165703D01*
X165036Y222092D01*
X94109Y78771D02*
Y74772D01*
X96108D01*
X96775Y75439D01*
Y78105D01*
X96108Y78771D01*
X94109D01*
X100107Y74772D02*
Y78771D01*
X98107Y76772D01*
X100773D01*
X109857Y17747D02*
Y13749D01*
X111856D01*
X112522Y14415D01*
Y17081D01*
X111856Y17747D01*
X109857D01*
X113855Y17081D02*
X114522Y17747D01*
X115855D01*
X116521Y17081D01*
Y16414D01*
X115855Y15748D01*
X115188D01*
X115855D01*
X116521Y15082D01*
Y14415D01*
X115855Y13749D01*
X114522D01*
X113855Y14415D01*
X156117Y192944D02*
Y188945D01*
X158116D01*
X158782Y189612D01*
Y192278D01*
X158116Y192944D01*
X156117D01*
X162781Y188945D02*
X160115D01*
X162781Y191611D01*
Y192278D01*
X162115Y192944D01*
X160782D01*
X160115Y192278D01*
X150877Y121094D02*
Y117095D01*
X152877D01*
X153543Y117762D01*
Y120427D01*
X152877Y121094D01*
X150877D01*
X154876Y117095D02*
X156209D01*
X155543D01*
Y121094D01*
X154876Y120427D01*
X4557Y306451D02*
X3891Y307118D01*
X2558D01*
X1891Y306451D01*
Y303785D01*
X2558Y303119D01*
X3891D01*
X4557Y303785D01*
X5890Y303119D02*
X7223D01*
X6556D01*
Y307118D01*
X5890Y306451D01*
X11222Y303119D02*
Y307118D01*
X9222Y305118D01*
X11888D01*
X52785Y306451D02*
X52119Y307118D01*
X50786D01*
X50120Y306451D01*
Y303785D01*
X50786Y303119D01*
X52119D01*
X52785Y303785D01*
X54118Y303119D02*
X55451D01*
X54785D01*
Y307118D01*
X54118Y306451D01*
X57451D02*
X58117Y307118D01*
X59450D01*
X60116Y306451D01*
Y305785D01*
X59450Y305118D01*
X58784D01*
X59450D01*
X60116Y304452D01*
Y303785D01*
X59450Y303119D01*
X58117D01*
X57451Y303785D01*
X149242Y302514D02*
X148576Y303181D01*
X147243D01*
X146576Y302514D01*
Y299848D01*
X147243Y299182D01*
X148576D01*
X149242Y299848D01*
X150575Y299182D02*
X151908D01*
X151242D01*
Y303181D01*
X150575Y302514D01*
X156573Y299182D02*
X153907D01*
X156573Y301848D01*
Y302514D01*
X155907Y303181D01*
X154574D01*
X153907Y302514D01*
X125302Y281845D02*
X124636Y282511D01*
X123303D01*
X122637Y281845D01*
Y279179D01*
X123303Y278513D01*
X124636D01*
X125302Y279179D01*
X126635Y278513D02*
X127968D01*
X127302D01*
Y282511D01*
X126635Y281845D01*
X129967Y278513D02*
X131300D01*
X130634D01*
Y282511D01*
X129967Y281845D01*
X133494Y272002D02*
X132828Y272669D01*
X131495D01*
X130828Y272002D01*
Y269336D01*
X131495Y268670D01*
X132828D01*
X133494Y269336D01*
X134827Y268670D02*
X136160D01*
X135494D01*
Y272669D01*
X134827Y272002D01*
X138159D02*
X138826Y272669D01*
X140159D01*
X140825Y272002D01*
Y269336D01*
X140159Y268670D01*
X138826D01*
X138159Y269336D01*
Y272002D01*
X44609Y242475D02*
X43943Y243141D01*
X42610D01*
X41943Y242475D01*
Y239809D01*
X42610Y239142D01*
X43943D01*
X44609Y239809D01*
X45942D02*
X46608Y239142D01*
X47941D01*
X48608Y239809D01*
Y242475D01*
X47941Y243141D01*
X46608D01*
X45942Y242475D01*
Y241808D01*
X46608Y241142D01*
X48608D01*
X41656Y130270D02*
X40990Y130936D01*
X39657D01*
X38991Y130270D01*
Y127604D01*
X39657Y126938D01*
X40990D01*
X41656Y127604D01*
X42989Y130270D02*
X43656Y130936D01*
X44989D01*
X45655Y130270D01*
Y129604D01*
X44989Y128937D01*
X45655Y128271D01*
Y127604D01*
X44989Y126938D01*
X43656D01*
X42989Y127604D01*
Y128271D01*
X43656Y128937D01*
X42989Y129604D01*
Y130270D01*
X43656Y128937D02*
X44989D01*
X7208Y119443D02*
X6541Y120110D01*
X5208D01*
X4542Y119443D01*
Y116777D01*
X5208Y116111D01*
X6541D01*
X7208Y116777D01*
X8540Y120110D02*
X11206D01*
Y119443D01*
X8540Y116777D01*
Y116111D01*
X48546Y116490D02*
X47880Y117157D01*
X46547D01*
X45880Y116490D01*
Y113825D01*
X46547Y113158D01*
X47880D01*
X48546Y113825D01*
X52545Y117157D02*
X51212Y116490D01*
X49879Y115157D01*
Y113825D01*
X50546Y113158D01*
X51878D01*
X52545Y113825D01*
Y114491D01*
X51878Y115157D01*
X49879D01*
X27877Y72199D02*
X27210Y72865D01*
X25877D01*
X25211Y72199D01*
Y69533D01*
X25877Y68867D01*
X27210D01*
X27877Y69533D01*
X31876Y72865D02*
X29210D01*
Y70866D01*
X30543Y71533D01*
X31209D01*
X31876Y70866D01*
Y69533D01*
X31209Y68867D01*
X29876D01*
X29210Y69533D01*
X34767Y38734D02*
X34100Y39401D01*
X32767D01*
X32101Y38734D01*
Y36069D01*
X32767Y35402D01*
X34100D01*
X34767Y36069D01*
X38099Y35402D02*
Y39401D01*
X36099Y37402D01*
X38765D01*
X58389Y78105D02*
X57722Y78771D01*
X56389D01*
X55723Y78105D01*
Y75439D01*
X56389Y74772D01*
X57722D01*
X58389Y75439D01*
X59722Y78105D02*
X60388Y78771D01*
X61721D01*
X62387Y78105D01*
Y77438D01*
X61721Y76772D01*
X61054D01*
X61721D01*
X62387Y76105D01*
Y75439D01*
X61721Y74772D01*
X60388D01*
X59722Y75439D01*
X81027Y72199D02*
X80360Y72865D01*
X79027D01*
X78361Y72199D01*
Y69533D01*
X79027Y68867D01*
X80360D01*
X81027Y69533D01*
X85025Y68867D02*
X82359D01*
X85025Y71533D01*
Y72199D01*
X84359Y72865D01*
X83026D01*
X82359Y72199D01*
X84646Y10191D02*
X83979Y10858D01*
X82646D01*
X81980Y10191D01*
Y7525D01*
X82646Y6859D01*
X83979D01*
X84646Y7525D01*
X85979Y6859D02*
X87312D01*
X86645D01*
Y10858D01*
X85979Y10191D01*
X191282Y25589D02*
G03*
X191282Y25492I-24648J-97D01*
G01*
X123937Y135307D02*
G03*
X123937Y135307I-500J0D01*
G01*
X187593Y204036D02*
G03*
X187458Y195049I166J-4497D01*
G01*
D11*
X47343Y74606D02*
G03*
X47343Y74606I-492J0D01*
G01*
X41240Y73032D02*
G03*
X41240Y73032I-492J0D01*
G01*
X13091Y114803D02*
G03*
X13091Y114803I-492J0D01*
G01*
X144095Y195846D02*
G03*
X144095Y195846I-492J0D01*
G01*
X178051Y172539D02*
G03*
X178051Y172539I-492J0D01*
G01*
X14862Y90551D02*
G03*
X14862Y90551I-492J0D01*
G01*
X106077Y262567D02*
G03*
X106077Y262567I-492J0D01*
G01*
D12*
X139173Y198819D02*
G03*
X137205Y196850I0J-1969D01*
G01*
X17126Y95866D02*
G03*
X15354Y97638I-1772J0D01*
G01*
X13681Y321161D02*
X59153D01*
X13681Y340256D02*
X59153D01*
Y321161D02*
Y324803D01*
Y336614D02*
Y340256D01*
X13681Y336614D02*
Y340256D01*
Y321161D02*
Y324803D01*
X94882Y16535D02*
X99213D01*
Y31102D01*
X96260Y34055D02*
X99213Y31102D01*
X94882Y34055D02*
X96260D01*
X81844Y16613D02*
X86175D01*
X81844D02*
Y31180D01*
X84797Y34133D01*
X86175D01*
X48425Y66339D02*
X68898D01*
X48425D02*
Y68701D01*
X68898Y66339D02*
Y67520D01*
X48425Y68701D02*
X49213D01*
Y66339D02*
Y68701D01*
X48360Y73320D02*
X68832D01*
X48360Y70957D02*
Y73320D01*
X68832Y72139D02*
Y73320D01*
X48360Y70957D02*
X49147D01*
Y73320D01*
X18701Y81299D02*
X39173D01*
Y78937D02*
Y81299D01*
X18701Y80118D02*
Y81299D01*
X38386Y78937D02*
X39173D01*
X38386D02*
Y81299D01*
X18766Y74318D02*
X39239D01*
Y76680D01*
X18766Y74318D02*
Y75499D01*
X38451Y76680D02*
X39239D01*
X38451Y74318D02*
Y76680D01*
X4331Y92756D02*
Y113228D01*
X6693D01*
X4331Y92756D02*
X5512D01*
X6693Y112441D02*
Y113228D01*
X4331Y112441D02*
X6693D01*
X11312Y92822D02*
Y113294D01*
X8950D02*
X11312D01*
X10131Y92822D02*
X11312D01*
X8950Y112506D02*
Y113294D01*
Y112506D02*
X11312D01*
X150000Y122835D02*
X188583D01*
X150000Y148819D02*
X188583D01*
Y122835D02*
Y128051D01*
Y143602D02*
Y148819D01*
X150000Y137795D02*
Y148819D01*
Y137795D02*
X150787D01*
Y148819D01*
Y122835D02*
Y133858D01*
X150000D02*
X150787D01*
X150000Y122835D02*
Y133858D01*
X167717D02*
Y137795D01*
Y135827D02*
X170472Y134252D01*
X167717Y135827D02*
X170472Y137795D01*
Y134252D02*
Y137795D01*
X166929Y135827D02*
X167717D01*
X170472D02*
X171653D01*
X187760Y188567D02*
Y210567D01*
X164760Y188567D02*
Y210567D01*
X187760D01*
X164760Y188567D02*
X187760D01*
X122047Y39567D02*
Y40748D01*
Y36024D02*
Y36811D01*
X120079Y39567D02*
X123622D01*
X120079D02*
X122047Y36811D01*
X123622Y39567D01*
X120079Y36811D02*
X124016D01*
Y19094D02*
X135039D01*
X124016D02*
Y19882D01*
X135039D01*
X109055D02*
X120079D01*
Y19094D02*
Y19882D01*
X109055Y19094D02*
X120079D01*
X109055Y57677D02*
X114272D01*
X129823D02*
X135039D01*
X109055Y19094D02*
Y57677D01*
X135039Y19094D02*
Y57677D01*
X103941Y44291D02*
Y73555D01*
X102067D02*
X103941D01*
X98441Y44291D02*
X103941D01*
X90941Y73555D02*
X92815D01*
X98441Y44291D02*
Y45055D01*
X103941D01*
X90941D02*
X96441D01*
Y44291D02*
Y45055D01*
X90941Y44291D02*
Y73555D01*
Y44291D02*
X96441D01*
X95472Y57480D02*
X99409D01*
X97441D02*
X99016Y60236D01*
X95472D02*
X97441Y57480D01*
X95472Y60236D02*
X99016D01*
X97441Y57087D02*
Y57480D01*
Y60236D02*
Y61024D01*
X177756Y221457D02*
Y225394D01*
X175000Y225000D02*
X177756Y223425D01*
X175000Y221457D02*
X177756Y223425D01*
X175000Y221457D02*
Y225000D01*
X177756Y223425D02*
X178543D01*
X173819D02*
X175000D01*
X118898Y69784D02*
X125197D01*
X118898Y64075D02*
X125197D01*
X126575Y216535D02*
X139173D01*
X126575Y196850D02*
Y216535D01*
Y196850D02*
X137992D01*
X139173Y198031D01*
Y216535D01*
X184843Y159449D02*
Y162500D01*
X181693Y159449D02*
X184843D01*
Y168209D02*
Y171260D01*
X181693D02*
X184843D01*
X15354Y110236D02*
X41732D01*
Y95669D02*
Y110236D01*
X17126Y95669D02*
Y95866D01*
X16240Y95669D02*
X41732D01*
X15354Y96555D02*
X16240Y95669D01*
X15354Y96555D02*
Y110236D01*
X153543Y65748D02*
X155512D01*
X160236Y60236D02*
Y63386D01*
X157382Y60236D02*
X160236D01*
X148819D02*
Y63386D01*
Y60236D02*
X151673D01*
X75787Y307283D02*
X77756D01*
X71063Y309646D02*
Y312795D01*
X73917D01*
X82480Y309646D02*
Y312795D01*
X79626D02*
X82480D01*
X116142Y307283D02*
X118110D01*
X111417Y309646D02*
Y312795D01*
X114272D01*
X122835Y309646D02*
Y312795D01*
X119980D02*
X122835D01*
X130905Y307283D02*
X132874D01*
X126181Y309646D02*
Y312795D01*
X129035D01*
X137598Y309646D02*
Y312795D01*
X134744D02*
X137598D01*
X152165Y165354D02*
X160827D01*
X152165Y174409D02*
X153347D01*
X152165Y156299D02*
Y174409D01*
Y156299D02*
X153347D01*
X159646D02*
X160827D01*
Y174409D01*
X159646D02*
X160827D01*
X176181Y229921D02*
Y238583D01*
X185236Y237402D02*
Y238583D01*
X167126D02*
X185236D01*
X167126Y237402D02*
Y238583D01*
Y229921D02*
Y231102D01*
Y229921D02*
X185236D01*
Y231102D01*
X164961Y165354D02*
X173622D01*
X172441Y156299D02*
X173622D01*
Y174409D01*
X172441D02*
X173622D01*
X164961D02*
X166142D01*
X164961Y156299D02*
Y174409D01*
Y156299D02*
X166142D01*
X126969Y4528D02*
Y13189D01*
X136024Y12008D02*
Y13189D01*
X117913D02*
X136024D01*
X117913Y12008D02*
Y13189D01*
Y4528D02*
Y5709D01*
Y4528D02*
X136024D01*
Y5709D01*
X151575Y316535D02*
Y325197D01*
X160630Y324016D02*
Y325197D01*
X142520D02*
X160630D01*
X142520Y324016D02*
Y325197D01*
Y316535D02*
Y317717D01*
Y316535D02*
X160630D01*
Y317717D01*
X72441Y332677D02*
X81102D01*
X79921Y323622D02*
X81102D01*
Y341732D01*
X79921D02*
X81102D01*
X72441D02*
X73622D01*
X72441Y323622D02*
Y341732D01*
Y323622D02*
X73622D01*
X112795Y332677D02*
X121457D01*
X120276Y323622D02*
X121457D01*
Y341732D01*
X120276D02*
X121457D01*
X112795D02*
X113976D01*
X112795Y323622D02*
Y341732D01*
Y323622D02*
X113976D01*
X127559Y332677D02*
X136221D01*
X135039Y323622D02*
X136221D01*
Y341732D01*
X135039D02*
X136221D01*
X127559D02*
X128740D01*
X127559Y323622D02*
Y341732D01*
Y323622D02*
X128740D01*
X99410Y208268D02*
Y216929D01*
X90354Y208268D02*
Y209449D01*
Y208268D02*
X108465D01*
Y209449D01*
Y215748D02*
Y216929D01*
X90354D02*
X108465D01*
X90354Y215748D02*
Y216929D01*
X99410Y197441D02*
Y206102D01*
X90354Y197441D02*
Y198622D01*
Y197441D02*
X108465D01*
Y198622D01*
Y204921D02*
Y206102D01*
X90354D02*
X108465D01*
X90354Y204921D02*
Y206102D01*
X121437Y133307D02*
Y173307D01*
Y133307D02*
X146437D01*
Y173307D01*
X121437D02*
X146437D01*
X121437Y164307D02*
Y173307D01*
Y142307D02*
Y164307D01*
X44313Y13856D02*
Y60456D01*
Y13856D02*
X73313D01*
Y60556D01*
X44413D02*
X73313D01*
X44313Y60456D02*
X44413Y60556D01*
X161417Y225354D02*
Y295354D01*
X31417Y225354D02*
X161417D01*
X31417D02*
Y295354D01*
X161417D01*
X121437Y173307D02*
X146437D01*
Y133307D02*
Y173307D01*
X121437Y133307D02*
X146437D01*
X121437D02*
Y173307D01*
Y133307D02*
Y173307D01*
X164760Y188567D02*
Y210567D01*
Y188567D02*
X187760D01*
X164760Y210567D02*
X187760D01*
Y188567D02*
Y210567D01*
D13*
X96813Y260827D02*
G03*
X96813Y260827I-1181J0D01*
G01*
D14*
X112205Y276083D02*
Y284941D01*
X121555Y276083D02*
Y277067D01*
X102854Y276083D02*
X121555D01*
X102854D02*
Y277067D01*
Y283957D02*
Y284941D01*
X121555D01*
Y283957D02*
Y284941D01*
X47736Y256890D02*
X56595D01*
X47736Y247539D02*
X48720D01*
X47736D02*
Y266240D01*
X48720D01*
X55610D02*
X56595D01*
Y247539D02*
Y266240D01*
X55610Y247539D02*
X56595D01*
X77264Y67421D02*
X78248D01*
X77264Y48720D02*
Y67421D01*
Y48720D02*
X78248D01*
X85138D02*
X86122D01*
Y67421D01*
X85138D02*
X86122D01*
X77264Y58071D02*
X86122D01*
X38878Y40846D02*
X39862D01*
Y59547D01*
X38878D02*
X39862D01*
X31004D02*
X31988D01*
X31004Y40846D02*
Y59547D01*
Y40846D02*
X31988D01*
X31004Y50197D02*
X39862D01*
X44783Y111713D02*
X45768D01*
X44783Y93012D02*
Y111713D01*
Y93012D02*
X45768D01*
X52658D02*
X53642D01*
Y111713D01*
X52658D02*
X53642D01*
X44783Y102362D02*
X53642D01*
X37894Y132382D02*
Y133366D01*
X19193D02*
X37894D01*
X19193Y132382D02*
Y133366D01*
Y124508D02*
Y125492D01*
Y124508D02*
X37894D01*
Y125492D01*
X28543Y124508D02*
Y133366D01*
X49705Y236713D02*
Y237697D01*
Y236713D02*
X68405D01*
Y237697D01*
Y244587D02*
Y245571D01*
X49705D02*
X68405D01*
X49705Y244587D02*
Y245571D01*
X59055Y236713D02*
Y245571D01*
X120079Y266240D02*
Y275098D01*
X129429Y266240D02*
Y267224D01*
X110728Y266240D02*
X129429D01*
X110728D02*
Y267224D01*
Y274114D02*
Y275098D01*
X129429D01*
Y274114D02*
Y275098D01*
X160925Y312500D02*
Y313484D01*
X142224D02*
X160925D01*
X142224Y312500D02*
Y313484D01*
Y304626D02*
Y305610D01*
Y304626D02*
X160925D01*
Y305610D01*
X151575Y304626D02*
Y313484D01*
X55118Y308563D02*
Y317421D01*
X64468Y308563D02*
Y309547D01*
X45768Y308563D02*
X64468D01*
X45768D02*
Y309547D01*
Y316437D02*
Y317421D01*
X64468D01*
Y316437D02*
Y317421D01*
X8366Y308563D02*
Y309547D01*
Y308563D02*
X27067D01*
Y309547D01*
Y316437D02*
Y317421D01*
X8366D02*
X27067D01*
X8366Y316437D02*
Y317421D01*
X17717Y308563D02*
Y317421D01*
X182681Y220776D02*
X183181Y220276D01*
X169181D02*
X183181D01*
X169181D02*
Y221358D01*
X182681Y220776D02*
Y222425D01*
X183181D01*
Y220276D02*
Y222425D01*
X182681Y226075D02*
X183181Y226575D01*
X169181D02*
X183181D01*
X169181Y225492D02*
Y226575D01*
X182681Y224425D02*
Y226075D01*
Y224425D02*
X183181D01*
Y226575D01*
D15*
X137106Y25591D02*
X141043D01*
X139075Y23622D02*
Y27559D01*
X45213Y198709D02*
X84713D01*
Y213709D01*
X45213D02*
X84713D01*
X45213Y198709D02*
Y213709D01*
X71602Y138347D02*
Y169055D01*
X50591Y138347D02*
X71602D01*
X50591D02*
Y169055D01*
X71602D01*
X89961Y128032D02*
Y178819D01*
X100984D01*
Y128032D02*
Y178819D01*
X89961Y128032D02*
X100984D01*
X66401Y260827D02*
X83661Y278087D01*
Y243567D02*
X100921Y260827D01*
X66401D02*
X83661Y243567D01*
Y278087D02*
X100921Y260827D01*
X44713Y198209D02*
X85213D01*
Y214209D01*
X44713D02*
X85213D01*
X44713Y198209D02*
Y214209D01*
X72008Y145630D02*
Y161484D01*
X50197Y169543D02*
X62008D01*
X50197Y137953D02*
Y169543D01*
X72008Y161484D02*
Y169543D01*
X58697D02*
X72102D01*
X58858Y137953D02*
Y138043D01*
X50197Y137953D02*
X72102D01*
X72008D02*
Y145630D01*
X89567Y127638D02*
Y179213D01*
X101378D01*
Y127638D02*
Y179213D01*
X89567Y127638D02*
X101378D01*
X82270Y262219D02*
X85053Y259435D01*
X82270Y259435D02*
X85053Y262219D01*
X54570Y260827D02*
X83661Y289918D01*
Y231735D02*
X112753Y260827D01*
X54570D02*
X83661Y231735D01*
Y289918D02*
X112753Y260827D01*
X139173Y200394D02*
G03*
X139173Y200394I-1969J0D01*
G01*
X105512Y284055D02*
X118898D01*
X105512Y276969D02*
X118898D01*
X105512D02*
Y284055D01*
X118898Y276969D02*
Y284055D01*
X59153Y321161D02*
Y340256D01*
X13681Y321161D02*
Y340256D01*
Y321161D02*
X59153D01*
X13681Y340256D02*
X59153D01*
X55709Y250197D02*
Y263583D01*
X48622Y250197D02*
Y263583D01*
X55709D01*
X48622Y250197D02*
X55709D01*
X96063Y34252D02*
X99213Y31102D01*
X81890Y16929D02*
X99213Y16732D01*
X81890Y31102D02*
X85039Y34252D01*
X96063D01*
X99213Y16732D02*
Y31102D01*
X81890Y16929D02*
Y31102D01*
X78150Y64764D02*
X85236D01*
X78150Y51378D02*
X85236D01*
Y64764D01*
X78150Y51378D02*
Y64764D01*
X52362Y66536D02*
X65807D01*
X52362Y73228D02*
X65807D01*
Y66536D02*
Y73228D01*
X52362Y66536D02*
Y73228D01*
X31890Y43504D02*
X38976D01*
X31890Y56890D02*
X38976D01*
X31890Y43504D02*
Y56890D01*
X38976Y43504D02*
Y56890D01*
X21791Y81102D02*
X35236D01*
X21791Y74410D02*
X35236D01*
X21791D02*
Y81102D01*
X35236Y74410D02*
Y81102D01*
X45669Y109055D02*
X52756D01*
X45669Y95669D02*
X52756D01*
Y109055D01*
X45669Y95669D02*
Y109055D01*
X4528Y95847D02*
Y109291D01*
X11220Y95847D02*
Y109291D01*
X4528Y95847D02*
X11220D01*
X4528Y109291D02*
X11220D01*
X35236Y125394D02*
Y132480D01*
X21850Y125394D02*
Y132480D01*
Y125394D02*
X35236D01*
X21850Y132480D02*
X35236D01*
X52362Y237598D02*
Y244685D01*
X65748Y237598D02*
Y244685D01*
X52362D02*
X65748D01*
X52362Y237598D02*
X65748D01*
X113386Y274213D02*
X126772D01*
X113386Y267126D02*
X126772D01*
X113386D02*
Y274213D01*
X126772Y267126D02*
Y274213D01*
X158268Y305512D02*
Y312598D01*
X144882Y305512D02*
Y312598D01*
Y305512D02*
X158268D01*
X144882Y312598D02*
X158268D01*
X48425Y316535D02*
X61811D01*
X48425Y309449D02*
X61811D01*
X48425D02*
Y316535D01*
X61811Y309449D02*
Y316535D01*
X11024Y309449D02*
Y316535D01*
X24409Y309449D02*
Y316535D01*
X11024D02*
X24409D01*
X11024Y309449D02*
X24409D01*
X183287Y123583D02*
Y148071D01*
X155295Y123583D02*
Y148071D01*
Y123583D02*
X183287D01*
X155295Y148071D02*
X183287D01*
X109803Y24390D02*
Y52382D01*
X134291Y24390D02*
Y52382D01*
X109803Y24390D02*
X134291D01*
X109803Y52382D02*
X134291D01*
X91693Y68110D02*
X103189D01*
X91693Y50000D02*
X103189D01*
Y68110D01*
X91693Y50000D02*
Y68110D01*
X172638Y220768D02*
Y226083D01*
X179724Y220768D02*
Y226083D01*
X172638D02*
X179724D01*
X172638Y220768D02*
X179724D01*
X115945Y63878D02*
Y69980D01*
X128150Y63878D02*
Y69980D01*
X115945D02*
X128150D01*
X115945Y63878D02*
X128150D01*
X125000Y216535D02*
X140748D01*
X125000Y196850D02*
X140748D01*
X125000D02*
Y216535D01*
X140748Y196850D02*
Y216535D01*
X179331Y159449D02*
X184843D01*
X179331Y171260D02*
X184843D01*
Y159449D02*
Y171260D01*
X179331Y159449D02*
Y171260D01*
X15354Y95669D02*
X41732D01*
X15354Y110236D02*
X41732D01*
X15354Y95669D02*
Y110236D01*
X41732Y95669D02*
Y110236D01*
X148622Y60236D02*
Y65748D01*
Y60236D02*
X160433D01*
X148622Y65748D02*
X160433D01*
Y60236D02*
Y65748D01*
X82677Y307283D02*
Y312795D01*
X70866D02*
X82677D01*
X70866Y307283D02*
X82677D01*
X70866D02*
Y312795D01*
X123031Y307283D02*
Y312795D01*
X111221D02*
X123031D01*
X111221Y307283D02*
X123031D01*
X111221D02*
Y312795D01*
X137795Y307283D02*
Y312795D01*
X125984D02*
X137795D01*
X125984Y307283D02*
X137795D01*
X125984D02*
Y312795D01*
X153248Y158957D02*
Y171752D01*
X159744Y158957D02*
Y171752D01*
X153248Y158957D02*
X159744D01*
X153248Y171752D02*
X159744D01*
X169783Y237500D02*
X182579D01*
X169783Y231004D02*
X182579D01*
X169783D02*
Y237500D01*
X182579Y231004D02*
Y237500D01*
X172539Y158957D02*
Y171752D01*
X166043Y158957D02*
Y171752D01*
X172539D01*
X166043Y158957D02*
X172539D01*
X120571Y12106D02*
X133366D01*
X120571Y5610D02*
X133366D01*
X120571D02*
Y12106D01*
X133366Y5610D02*
Y12106D01*
X145177Y324114D02*
X157972D01*
X145177Y317618D02*
X157972D01*
X145177D02*
Y324114D01*
X157972Y317618D02*
Y324114D01*
X80020Y326279D02*
Y339075D01*
X73524Y326279D02*
Y339075D01*
X80020D01*
X73524Y326279D02*
X80020D01*
X120374D02*
Y339075D01*
X113878Y326279D02*
Y339075D01*
X120374D01*
X113878Y326279D02*
X120374D01*
X135138D02*
Y339075D01*
X128642Y326279D02*
Y339075D01*
X135138D01*
X128642Y326279D02*
X135138D01*
X93012Y209350D02*
X105807D01*
X93012Y215846D02*
X105807D01*
Y209350D02*
Y215846D01*
X93012Y209350D02*
Y215846D01*
Y198524D02*
X105807D01*
X93012Y205020D02*
X105807D01*
Y198524D02*
Y205020D01*
X93012Y198524D02*
Y205020D01*
X112205Y278543D02*
Y282480D01*
X110236Y280512D02*
X114173D01*
X34449Y330709D02*
X38386D01*
X36417Y328740D02*
Y332677D01*
X50197Y256890D02*
X54134D01*
X52165Y254921D02*
Y258858D01*
X90551Y23622D02*
Y27559D01*
X88583Y25591D02*
X92520D01*
X81693Y56102D02*
Y60039D01*
X79724Y58071D02*
X83661D01*
X59055Y67913D02*
Y71850D01*
X57087Y69882D02*
X61024D01*
X35433Y48228D02*
Y52165D01*
X33465Y50197D02*
X37402D01*
X28543Y75787D02*
Y79724D01*
X26575Y77756D02*
X30512D01*
X49213Y100394D02*
Y104331D01*
X47244Y102362D02*
X51181D01*
X5906Y102598D02*
X9843D01*
X7874Y100630D02*
Y104567D01*
X26575Y128937D02*
X30512D01*
X28543Y126969D02*
Y130905D01*
X57087Y241142D02*
X61024D01*
X59055Y239173D02*
Y243110D01*
X120079Y268701D02*
Y272638D01*
X118110Y270669D02*
X122047D01*
X149606Y309055D02*
X153543D01*
X151575Y307087D02*
Y311024D01*
X55118D02*
Y314961D01*
X53150Y312992D02*
X57087D01*
X15748D02*
X19685D01*
X17717Y311024D02*
Y314961D01*
X167323Y135827D02*
X171260D01*
X169291Y133858D02*
Y137795D01*
X120079Y38386D02*
X124016D01*
X122047Y36417D02*
Y40354D01*
X97441Y57087D02*
Y61024D01*
X95472Y59055D02*
X99409D01*
X174213Y223425D02*
X178150D01*
X176181Y221457D02*
Y225394D01*
X120079Y66929D02*
X124016D01*
X122047Y64961D02*
Y68898D01*
X132874Y204724D02*
Y208661D01*
X130905Y206693D02*
X134843D01*
X182087Y163386D02*
Y167323D01*
X180118Y165354D02*
X184055D01*
X28543Y100984D02*
Y104921D01*
X26575Y102953D02*
X30512D01*
X154528Y61024D02*
Y64961D01*
X152559Y62992D02*
X156496D01*
X76772Y308071D02*
Y312008D01*
X74803Y310039D02*
X78740D01*
X117126Y308071D02*
Y312008D01*
X115157Y310039D02*
X119095D01*
X131890Y308071D02*
Y312008D01*
X129921Y310039D02*
X133858D01*
X154528Y165354D02*
X158465D01*
X156496Y163386D02*
Y167323D01*
X176181Y232283D02*
Y236221D01*
X174213Y234252D02*
X178150D01*
X167323Y165354D02*
X171260D01*
X169291Y163386D02*
Y167323D01*
X126969Y6890D02*
Y10827D01*
X125000Y8858D02*
X128937D01*
X151575Y318898D02*
Y322835D01*
X149606Y320866D02*
X153543D01*
X74803Y332677D02*
X78740D01*
X76772Y330709D02*
Y334646D01*
X115157Y332677D02*
X119095D01*
X117126Y330709D02*
Y334646D01*
X129921Y332677D02*
X133858D01*
X131890Y330709D02*
Y334646D01*
X99410Y210630D02*
Y214567D01*
X97441Y212598D02*
X101378D01*
X99410Y199803D02*
Y203740D01*
X97441Y201772D02*
X101378D01*
D16*
X48720Y67520D02*
D03*
X48655Y72139D02*
D03*
X38878Y80118D02*
D03*
X38943Y75500D02*
D03*
D17*
X5511Y112933D02*
D03*
X10130Y112998D02*
D03*
D18*
X53959Y69881D02*
D03*
X33640Y77755D02*
D03*
D19*
X7873Y107696D02*
D03*
D20*
X157178Y135827D02*
D03*
D21*
X122047Y26272D02*
D03*
D22*
X97443Y51219D02*
D03*
D23*
X102953Y285039D02*
X121457D01*
X102953Y275984D02*
X121457D01*
X102953D02*
Y285039D01*
X121457Y275984D02*
Y285039D01*
X60138Y320177D02*
Y341240D01*
X12697Y320177D02*
Y341240D01*
Y320177D02*
X60138D01*
X12697Y341240D02*
X60138D01*
X56693Y247638D02*
Y266142D01*
X47638Y247638D02*
Y266142D01*
X56693D01*
X47638Y247638D02*
X56693D01*
X80709Y38583D02*
X100394D01*
X80709Y12598D02*
X100394D01*
Y38583D01*
X80709Y12598D02*
Y38583D01*
X77165Y67323D02*
X86221D01*
X77165Y48819D02*
X86221D01*
Y67323D01*
X77165Y48819D02*
Y67323D01*
X49370Y65551D02*
Y74213D01*
Y65551D02*
X68740D01*
X49370Y74213D02*
X68740D01*
Y65551D02*
Y74213D01*
X30906Y40945D02*
X39961D01*
X30906Y59449D02*
X39961D01*
X30906Y40945D02*
Y59449D01*
X39961Y40945D02*
Y59449D01*
X38228Y73425D02*
Y82087D01*
X18858D02*
X38228D01*
X18858Y73425D02*
X38228D01*
X18858D02*
Y82087D01*
X44685Y111614D02*
X53740D01*
X44685Y93110D02*
X53740D01*
Y111614D01*
X44685Y93110D02*
Y111614D01*
X3543Y112284D02*
X12205D01*
X3543Y92913D02*
Y112284D01*
X12205Y92913D02*
Y112284D01*
X3543Y92913D02*
X12205D01*
X37795Y124409D02*
Y133465D01*
X19291Y124409D02*
Y133465D01*
Y124409D02*
X37795D01*
X19291Y133465D02*
X37795D01*
X49803Y236614D02*
Y245669D01*
X68307Y236614D02*
Y245669D01*
X49803D02*
X68307D01*
X49803Y236614D02*
X68307D01*
X110827Y275197D02*
X129331D01*
X110827Y266142D02*
X129331D01*
X110827D02*
Y275197D01*
X129331Y266142D02*
Y275197D01*
X160827Y304528D02*
Y313583D01*
X142323Y304528D02*
Y313583D01*
Y304528D02*
X160827D01*
X142323Y313583D02*
X160827D01*
X45866Y317520D02*
X64370D01*
X45866Y308465D02*
X64370D01*
X45866D02*
Y317520D01*
X64370Y308465D02*
Y317520D01*
X8465Y308465D02*
Y317520D01*
X26969Y308465D02*
Y317520D01*
X8465D02*
X26969D01*
X8465Y308465D02*
X26969D01*
X187008Y122441D02*
Y149213D01*
X151575Y122441D02*
Y149213D01*
Y122441D02*
X187008D01*
X151575Y149213D02*
X187008D01*
X108661Y20669D02*
Y56102D01*
X135433Y20669D02*
Y56102D01*
X108661Y20669D02*
X135433D01*
X108661Y56102D02*
X135433D01*
X90551Y73055D02*
X104331D01*
X90551Y45055D02*
X104331D01*
Y73055D01*
X90551Y45055D02*
Y73055D01*
X169488Y220079D02*
Y226772D01*
X182874Y220079D02*
Y226772D01*
X169488D02*
X182874D01*
X169488Y220079D02*
X182874D01*
X112008Y62894D02*
Y70965D01*
X132087Y62894D02*
Y70965D01*
X112008D02*
X132087D01*
X112008Y62894D02*
X132087D01*
X118307Y217520D02*
X147441D01*
X118307Y195866D02*
X147441D01*
X118307D02*
Y217520D01*
X147441Y195866D02*
Y217520D01*
X175787Y158465D02*
X188386D01*
X175787Y172244D02*
X188386D01*
Y158465D02*
Y172244D01*
X175787Y158465D02*
Y172244D01*
X14370Y86221D02*
X42717D01*
X14370Y119685D02*
X42717D01*
X14370Y86221D02*
Y119685D01*
X42717Y86221D02*
Y119685D01*
X147638Y69685D02*
X161417D01*
X147638Y56299D02*
X161417D01*
Y69685D01*
X147638Y56299D02*
Y69685D01*
X69882Y303346D02*
X83661D01*
X69882Y316732D02*
X83661D01*
X69882Y303346D02*
Y316732D01*
X83661Y303346D02*
Y316732D01*
X110236Y303346D02*
X124016D01*
X110236Y316732D02*
X124016D01*
X110236Y303346D02*
Y316732D01*
X124016Y303346D02*
Y316732D01*
X125000Y303346D02*
X138779D01*
X125000Y316732D02*
X138779D01*
X125000Y303346D02*
Y316732D01*
X138779Y303346D02*
Y316732D01*
X152165Y156496D02*
Y174213D01*
X160827Y156496D02*
Y174213D01*
X152165Y156496D02*
X160827D01*
X152165Y174213D02*
X160827D01*
X167323Y238583D02*
X185039D01*
X167323Y229921D02*
X185039D01*
X167323D02*
Y238583D01*
X185039Y229921D02*
Y238583D01*
X173622Y156496D02*
Y174213D01*
X164961Y156496D02*
Y174213D01*
X173622D01*
X164961Y156496D02*
X173622D01*
X118110Y13189D02*
X135827D01*
X118110Y4528D02*
X135827D01*
X118110D02*
Y13189D01*
X135827Y4528D02*
Y13189D01*
X142717Y325197D02*
X160433D01*
X142717Y316535D02*
X160433D01*
X142717D02*
Y325197D01*
X160433Y316535D02*
Y325197D01*
X81102Y323819D02*
Y341535D01*
X72441Y323819D02*
Y341535D01*
X81102D01*
X72441Y323819D02*
X81102D01*
X121457D02*
Y341535D01*
X112795Y323819D02*
Y341535D01*
X121457D01*
X112795Y323819D02*
X121457D01*
X136221D02*
Y341535D01*
X127559Y323819D02*
Y341535D01*
X136221D01*
X127559Y323819D02*
X136221D01*
X90551Y208268D02*
X108268D01*
X90551Y216929D02*
X108268D01*
Y208268D02*
Y216929D01*
X90551Y208268D02*
Y216929D01*
Y197441D02*
X108268D01*
X90551Y206102D02*
X108268D01*
Y197441D02*
Y206102D01*
X90551Y197441D02*
Y206102D01*
M02*
