G04*
G04 #@! TF.GenerationSoftware,Altium Limited,Altium Designer,21.3.2 (30)*
G04*
G04 Layer_Physical_Order=1*
G04 Layer_Color=255*
%FSLAX25Y25*%
%MOIN*%
G70*
G04*
G04 #@! TF.SameCoordinates,3F51CCC3-8A4B-4D73-A1D2-239D5F55BC23*
G04*
G04*
G04 #@! TF.FilePolarity,Positive*
G04*
G01*
G75*
%ADD10C,0.01000*%
%ADD12C,0.00787*%
%ADD15C,0.00394*%
%ADD18R,0.03307X0.06692*%
%ADD19R,0.06692X0.03307*%
%ADD20R,0.03765X0.24488*%
%ADD21R,0.24488X0.03765*%
%ADD22R,0.11496X0.02436*%
%ADD23C,0.00197*%
%ADD24R,0.05118X0.07087*%
%ADD25R,0.21654X0.07874*%
%ADD26R,0.07087X0.04331*%
%ADD27R,0.07087X0.05118*%
%ADD28R,0.06299X0.09843*%
%ADD29R,0.07087X0.04842*%
%ADD30R,0.04842X0.07087*%
%ADD31R,0.09646X0.12402*%
%ADD32R,0.12402X0.09646*%
%ADD33R,0.06693X0.09843*%
%ADD34R,0.02461X0.03268*%
%ADD35R,0.04921X0.06496*%
%ADD36O,0.05709X0.02362*%
%ADD37R,0.03827X0.03158*%
%ADD38R,0.05906X0.07874*%
%ADD39R,0.14961X0.07874*%
%ADD40R,0.03150X0.03543*%
%ADD41R,0.06496X0.04724*%
%ADD42R,0.04724X0.06496*%
%ADD43R,0.24803X0.24016*%
%ADD44R,0.05906X0.11024*%
G04:AMPARAMS|DCode=45|XSize=21.65mil|YSize=59.06mil|CornerRadius=0mil|HoleSize=0mil|Usage=FLASHONLY|Rotation=225.000|XOffset=0mil|YOffset=0mil|HoleType=Round|Shape=Rectangle|*
%AMROTATEDRECTD45*
4,1,4,-0.01322,0.02854,0.02854,-0.01322,0.01322,-0.02854,-0.02854,0.01322,-0.01322,0.02854,0.0*
%
%ADD45ROTATEDRECTD45*%

G04:AMPARAMS|DCode=46|XSize=21.65mil|YSize=59.06mil|CornerRadius=0mil|HoleSize=0mil|Usage=FLASHONLY|Rotation=315.000|XOffset=0mil|YOffset=0mil|HoleType=Round|Shape=Rectangle|*
%AMROTATEDRECTD46*
4,1,4,-0.02854,-0.01322,0.01322,0.02854,0.02854,0.01322,-0.01322,-0.02854,-0.02854,-0.01322,0.0*
%
%ADD46ROTATEDRECTD46*%

%ADD82C,0.00800*%
%ADD83C,0.01200*%
%ADD84C,0.03000*%
%ADD85C,0.02000*%
%ADD86C,0.07400*%
%ADD87R,0.07400X0.07400*%
%ADD88C,0.06693*%
%ADD89C,0.05512*%
%ADD90R,0.05512X0.05512*%
%ADD91O,0.03543X0.05906*%
%ADD92R,0.06693X0.06693*%
%ADD93R,0.07400X0.07400*%
%ADD94C,0.10827*%
%ADD95C,0.02000*%
%ADD96C,0.02500*%
%ADD97C,0.04000*%
G36*
X97192Y344026D02*
X92587Y339421D01*
X92167Y338792D01*
X92019Y338051D01*
Y335722D01*
X91759Y335382D01*
X91663Y335346D01*
X91250D01*
X91155Y335382D01*
X90862Y335764D01*
X90304Y336192D01*
X89654Y336461D01*
X88957Y336553D01*
X88259Y336461D01*
X87609Y336192D01*
X87051Y335764D01*
X86623Y335206D01*
X86354Y334556D01*
X86281Y334003D01*
X83718D01*
X80920Y336801D01*
Y341451D01*
X72624D01*
Y334927D01*
X79045D01*
X82232Y331740D01*
X82662Y331453D01*
X83169Y331352D01*
X86281D01*
X86354Y330799D01*
X86623Y330149D01*
X87051Y329591D01*
X87609Y329162D01*
X88259Y328893D01*
X88957Y328801D01*
X89654Y328893D01*
X90304Y329162D01*
X90862Y329591D01*
X91155Y329972D01*
X91250Y330008D01*
X91663D01*
X91759Y329972D01*
X92051Y329591D01*
X92609Y329162D01*
X93259Y328893D01*
X93957Y328801D01*
X94654Y328893D01*
X95304Y329162D01*
X95862Y329591D01*
X96155Y329972D01*
X96250Y330008D01*
X96663D01*
X96759Y329972D01*
X97051Y329591D01*
X97609Y329162D01*
X98259Y328893D01*
X98957Y328801D01*
X99654Y328893D01*
X100304Y329162D01*
X100862Y329591D01*
X101155Y329972D01*
X101250Y330008D01*
X101663D01*
X101759Y329972D01*
X102051Y329591D01*
X102609Y329162D01*
X103259Y328893D01*
X103957Y328801D01*
X104654Y328893D01*
X105304Y329162D01*
X105862Y329591D01*
X106290Y330149D01*
X106560Y330799D01*
X106632Y331352D01*
X125492D01*
X125999Y331453D01*
X126429Y331740D01*
X129616Y334927D01*
X136038D01*
Y341451D01*
X136490Y341567D01*
X139946D01*
X155149Y326363D01*
Y325014D01*
X153824D01*
Y316718D01*
X157609D01*
X160329Y313998D01*
X160122Y313498D01*
X153824D01*
Y304612D01*
X155092D01*
Y295354D01*
X134693D01*
X134502Y295816D01*
X143297Y304612D01*
X149325D01*
Y313498D01*
X147389D01*
Y316718D01*
X149325D01*
Y325014D01*
X142801D01*
Y316718D01*
X144738D01*
Y313498D01*
X142407D01*
Y307471D01*
X138705Y303768D01*
X138205Y303975D01*
Y305602D01*
X136130D01*
Y303331D01*
X137560D01*
X137767Y302831D01*
X129071Y294134D01*
X128193Y294641D01*
X127023Y294954D01*
X125812D01*
X124642Y294641D01*
X123593Y294035D01*
X122736Y293179D01*
X122131Y292130D01*
X121817Y290960D01*
Y289749D01*
X122131Y288579D01*
X122736Y287530D01*
X123593Y286673D01*
X124642Y286068D01*
X125812Y285754D01*
X127023D01*
X128193Y286068D01*
X128798Y286417D01*
X134036D01*
X134642Y286068D01*
X135812Y285754D01*
X137023D01*
X138193Y286068D01*
X138798Y286417D01*
X141817D01*
Y285754D01*
X145092D01*
Y285354D01*
X145193Y284847D01*
X145480Y284417D01*
X152364Y277533D01*
X152131Y277130D01*
X151817Y275960D01*
Y274749D01*
X152131Y273579D01*
X152364Y273175D01*
X132483Y253294D01*
X105894D01*
X105702Y253756D01*
X107414Y255468D01*
X105606Y257275D01*
X107258Y258927D01*
X107661D01*
X108360Y259216D01*
X108894Y259751D01*
X109184Y260449D01*
Y261205D01*
X108894Y261903D01*
X108360Y262438D01*
X107661Y262727D01*
X106905D01*
X106207Y262438D01*
X105673Y261903D01*
X105384Y261205D01*
Y260801D01*
X103732Y259150D01*
X102055Y260827D01*
X107414Y266186D01*
X106949Y266651D01*
X109960Y269661D01*
X110172Y269978D01*
X110328Y270043D01*
X110411Y270126D01*
X110911Y269918D01*
Y266226D01*
X113045D01*
Y263583D01*
X113145Y263075D01*
X113433Y262645D01*
X115226Y260852D01*
Y260449D01*
X115515Y259751D01*
X116050Y259216D01*
X116748Y258927D01*
X117504D01*
X118202Y259216D01*
X118737Y259751D01*
X119026Y260449D01*
Y261205D01*
X118737Y261903D01*
X118202Y262438D01*
X117504Y262727D01*
X117101D01*
X115696Y264132D01*
Y266226D01*
X117829D01*
Y275113D01*
X112742D01*
X109981Y277874D01*
Y278353D01*
X109955Y278481D01*
Y284955D01*
X103037D01*
Y281837D01*
X96665D01*
X96158Y281736D01*
X95728Y281449D01*
X93939Y279661D01*
X91247Y282352D01*
X89020Y284579D01*
X83661Y279220D01*
X78302Y284579D01*
X78243Y284520D01*
X77743Y284727D01*
Y285947D01*
X78193Y286068D01*
X79242Y286673D01*
X80098Y287530D01*
X80704Y288579D01*
X81017Y289749D01*
Y290960D01*
X80704Y292130D01*
X80098Y293179D01*
X79242Y294035D01*
X78193Y294641D01*
X77743Y294761D01*
Y295356D01*
X82242Y299856D01*
X98605D01*
X98757Y299356D01*
X98472Y299166D01*
X95498Y296192D01*
X95211Y295762D01*
X95110Y295254D01*
Y294766D01*
X94642Y294641D01*
X93593Y294035D01*
X92736Y293179D01*
X92131Y292130D01*
X91817Y290960D01*
Y289749D01*
X92131Y288579D01*
X92736Y287530D01*
X93593Y286673D01*
X94642Y286068D01*
X95812Y285754D01*
X97023D01*
X98193Y286068D01*
X99242Y286673D01*
X100098Y287530D01*
X100704Y288579D01*
X101017Y289749D01*
Y290960D01*
X100704Y292130D01*
X100098Y293179D01*
X99242Y294035D01*
X98326Y294564D01*
X98166Y295110D01*
X99958Y296903D01*
X120429D01*
X120936Y297004D01*
X121366Y297291D01*
X127506Y303431D01*
X130624D01*
Y308774D01*
X125675D01*
Y305349D01*
X123941Y303615D01*
X123441Y303822D01*
Y305602D01*
X121366D01*
Y303331D01*
X122950D01*
X123157Y302831D01*
X119880Y299554D01*
X109422D01*
X109271Y300054D01*
X109555Y300244D01*
X112742Y303431D01*
X115861D01*
Y308774D01*
X110911D01*
Y305349D01*
X108069Y302507D01*
X81693D01*
X81186Y302406D01*
X80756Y302118D01*
X75480Y296843D01*
X75193Y296413D01*
X75092Y295905D01*
Y294761D01*
X74642Y294641D01*
X73593Y294035D01*
X72736Y293179D01*
X72131Y292130D01*
X71817Y290960D01*
Y289749D01*
X72131Y288579D01*
X72736Y287530D01*
X73593Y286673D01*
X74642Y286068D01*
X75092Y285947D01*
Y283661D01*
X75193Y283153D01*
X75480Y282723D01*
X75125Y282373D01*
X72445Y285053D01*
Y286164D01*
X72344Y286671D01*
X72057Y287101D01*
X70658Y288500D01*
X70704Y288579D01*
X71017Y289749D01*
Y290960D01*
X70704Y292130D01*
X70098Y293179D01*
X69242Y294035D01*
X68193Y294641D01*
X67743Y294761D01*
Y298742D01*
X72431Y303431D01*
X75506D01*
Y308774D01*
X70557D01*
Y305305D01*
X65480Y300229D01*
X65193Y299799D01*
X65092Y299291D01*
Y294761D01*
X64642Y294641D01*
X63593Y294035D01*
X62736Y293179D01*
X62131Y292130D01*
X61817Y290960D01*
Y289749D01*
X62131Y288579D01*
X62736Y287530D01*
X63593Y286673D01*
X64284Y286274D01*
X64150Y285774D01*
X62872D01*
X60471Y288175D01*
X60704Y288579D01*
X61017Y289749D01*
Y290960D01*
X60704Y292130D01*
X60098Y293179D01*
X59242Y294035D01*
X58193Y294641D01*
X57023Y294954D01*
X55812D01*
X54642Y294641D01*
X53593Y294035D01*
X52736Y293179D01*
X52131Y292130D01*
X51817Y290960D01*
Y289749D01*
X52131Y288579D01*
X52736Y287530D01*
X53593Y286673D01*
X54642Y286068D01*
X55812Y285754D01*
X57023D01*
X58193Y286068D01*
X58596Y286301D01*
X61386Y283512D01*
X61670Y283321D01*
X61518Y282821D01*
X55667D01*
X50413Y288075D01*
X50704Y288579D01*
X51017Y289749D01*
Y290960D01*
X50704Y292130D01*
X50098Y293179D01*
X49242Y294035D01*
X48193Y294641D01*
X47023Y294954D01*
X45812D01*
X44642Y294641D01*
X43593Y294035D01*
X42736Y293179D01*
X42131Y292130D01*
X41817Y290960D01*
Y289749D01*
X42131Y288579D01*
X42736Y287530D01*
X43593Y286673D01*
X44642Y286068D01*
X45812Y285754D01*
X47023D01*
X48193Y286068D01*
X48496Y286243D01*
X53425Y281315D01*
X53233Y280853D01*
X47793D01*
X40471Y288175D01*
X40704Y288579D01*
X41017Y289749D01*
Y290960D01*
X40704Y292130D01*
X40098Y293179D01*
X39242Y294035D01*
X38193Y294641D01*
X37023Y294954D01*
X35812D01*
X34642Y294641D01*
X33593Y294035D01*
X32736Y293179D01*
X32131Y292130D01*
X31817Y290960D01*
Y289749D01*
X32131Y288579D01*
X32364Y288175D01*
X18748Y274559D01*
X18461Y274129D01*
X18360Y273622D01*
Y216100D01*
X15889Y213629D01*
X15427Y213821D01*
Y222238D01*
X6227D01*
Y215201D01*
X2856Y211829D01*
X2712Y211614D01*
X1969D01*
Y344488D01*
X97001D01*
X97192Y344026D01*
D02*
G37*
G36*
X46307Y278590D02*
X46737Y278303D01*
X47244Y278202D01*
X62185D01*
X67055Y273332D01*
X66598Y272875D01*
X65898Y273575D01*
X65468Y273862D01*
X64961Y273963D01*
X47244D01*
X46737Y273862D01*
X46307Y273575D01*
X41386Y268654D01*
X41098Y268224D01*
X40997Y267717D01*
Y262822D01*
X40497Y262687D01*
X40178Y263240D01*
X39303Y264115D01*
X38232Y264734D01*
X37036Y265054D01*
X36917D01*
Y260354D01*
Y255654D01*
X37036D01*
X38232Y255975D01*
X39303Y256593D01*
X40178Y257469D01*
X40497Y258021D01*
X40997Y257887D01*
Y252622D01*
X40497Y252487D01*
X40098Y253179D01*
X39242Y254035D01*
X38193Y254641D01*
X37023Y254954D01*
X35812D01*
X34642Y254641D01*
X33593Y254035D01*
X32736Y253179D01*
X32131Y252130D01*
X31817Y250960D01*
Y249749D01*
X32131Y248579D01*
X32736Y247530D01*
X33593Y246673D01*
X34642Y246068D01*
X35812Y245754D01*
X37023D01*
X38193Y246068D01*
X39242Y246673D01*
X40098Y247530D01*
X40497Y248221D01*
X40997Y248087D01*
Y242621D01*
X40497Y242488D01*
X40098Y243179D01*
X39242Y244035D01*
X38193Y244641D01*
X37023Y244954D01*
X35812D01*
X34642Y244641D01*
X33593Y244035D01*
X32736Y243179D01*
X32131Y242130D01*
X31817Y240960D01*
Y239749D01*
X32131Y238579D01*
X32736Y237530D01*
X33593Y236673D01*
X34642Y236068D01*
X35812Y235754D01*
X37023D01*
X38193Y236068D01*
X39242Y236673D01*
X40098Y237530D01*
X40497Y238221D01*
X40997Y238087D01*
Y236809D01*
X38596Y234408D01*
X38193Y234641D01*
X37023Y234954D01*
X35812D01*
X34642Y234641D01*
X33593Y234035D01*
X32736Y233179D01*
X32131Y232130D01*
X31817Y230960D01*
Y229749D01*
X32131Y228579D01*
X32736Y227530D01*
X33593Y226673D01*
X34642Y226068D01*
X35812Y225754D01*
X37023D01*
X38193Y226068D01*
X39242Y226673D01*
X40098Y227530D01*
X40704Y228579D01*
X41017Y229749D01*
Y230960D01*
X40704Y232130D01*
X40471Y232533D01*
X42504Y234566D01*
X42966Y234375D01*
Y234123D01*
X43067Y233616D01*
X43110Y233552D01*
X42736Y233179D01*
X42131Y232130D01*
X41817Y230960D01*
Y229749D01*
X42131Y228579D01*
X42736Y227530D01*
X43593Y226673D01*
X44642Y226068D01*
X45812Y225754D01*
X47023D01*
X48193Y226068D01*
X49242Y226673D01*
X50098Y227530D01*
X50704Y228579D01*
X51017Y229749D01*
Y230960D01*
X50704Y232130D01*
X50680Y232172D01*
X51080Y232479D01*
X51982Y231576D01*
X51817Y230960D01*
Y229749D01*
X52131Y228579D01*
X52736Y227530D01*
X53593Y226673D01*
X54642Y226068D01*
X54934Y225989D01*
Y167627D01*
X54463Y167500D01*
X54182Y167338D01*
X42945Y178575D01*
X42515Y178862D01*
X42008Y178963D01*
X15234D01*
X15113Y179413D01*
X14508Y180462D01*
X13651Y181319D01*
X12602Y181924D01*
X11432Y182238D01*
X10221D01*
X9051Y181924D01*
X8002Y181319D01*
X7146Y180462D01*
X6540Y179413D01*
X6227Y178243D01*
Y177032D01*
X6540Y175862D01*
X7146Y174813D01*
X8002Y173957D01*
X9051Y173351D01*
X10221Y173038D01*
X11432D01*
X12602Y173351D01*
X13651Y173957D01*
X14508Y174813D01*
X15113Y175862D01*
X15234Y176312D01*
X41459D01*
X52308Y165463D01*
X52145Y165182D01*
X51856Y164102D01*
Y162984D01*
X52145Y161904D01*
X52704Y160936D01*
X53350Y160290D01*
X53146Y159790D01*
X51375D01*
X42905Y168260D01*
X42475Y168547D01*
X41968Y168648D01*
X15318D01*
X15113Y169413D01*
X14508Y170462D01*
X13651Y171319D01*
X12602Y171924D01*
X11432Y172238D01*
X10221D01*
X9051Y171924D01*
X8002Y171319D01*
X7146Y170462D01*
X6540Y169413D01*
X6227Y168243D01*
Y167032D01*
X6540Y165862D01*
X7146Y164813D01*
X8002Y163957D01*
X9051Y163351D01*
X10221Y163038D01*
X11432D01*
X12602Y163351D01*
X13651Y163957D01*
X14508Y164813D01*
X15113Y165862D01*
X15149Y165997D01*
X41419D01*
X49889Y157527D01*
X50319Y157240D01*
X50826Y157139D01*
X52986D01*
X53193Y156639D01*
X52704Y156151D01*
X52145Y155182D01*
X52061Y154869D01*
X46530D01*
X42981Y158418D01*
X42551Y158705D01*
X42044Y158806D01*
X15276D01*
X15113Y159413D01*
X14508Y160462D01*
X13651Y161319D01*
X12602Y161924D01*
X11432Y162238D01*
X10221D01*
X9051Y161924D01*
X8002Y161319D01*
X7146Y160462D01*
X6540Y159413D01*
X6227Y158243D01*
Y157032D01*
X6540Y155862D01*
X7146Y154813D01*
X8002Y153957D01*
X9051Y153351D01*
X10221Y153038D01*
X11432D01*
X12602Y153351D01*
X13651Y153957D01*
X14508Y154813D01*
X15113Y155862D01*
X15192Y156155D01*
X41495D01*
X45044Y152606D01*
X45474Y152319D01*
X45981Y152218D01*
X52061D01*
X52145Y151904D01*
X52704Y150936D01*
X53495Y150145D01*
X54463Y149586D01*
X55543Y149297D01*
X56661D01*
X57741Y149586D01*
X58710Y150145D01*
X59500Y150936D01*
X60059Y151904D01*
X60349Y152984D01*
Y154102D01*
X60059Y155182D01*
X59500Y156151D01*
X59012Y156639D01*
X59219Y157139D01*
X60632D01*
X62308Y155464D01*
X62145Y155182D01*
X61856Y154102D01*
Y152984D01*
X62145Y151904D01*
X62704Y150936D01*
X63495Y150145D01*
X64463Y149586D01*
X65543Y149297D01*
X66661D01*
X67741Y149586D01*
X68710Y150145D01*
X69500Y150936D01*
X70059Y151904D01*
X70349Y152984D01*
Y154102D01*
X70059Y155182D01*
X69500Y156151D01*
X68710Y156941D01*
X67741Y157500D01*
X66661Y157790D01*
X65543D01*
X64463Y157500D01*
X64182Y157338D01*
X62685Y158835D01*
X62877Y159297D01*
X70349D01*
Y161096D01*
X74325D01*
Y120108D01*
X56512Y102296D01*
X37317D01*
X37126Y102758D01*
X41987Y107619D01*
X42186Y107917D01*
X42256Y108268D01*
Y119095D01*
X42186Y119446D01*
X41987Y119743D01*
X39035Y122696D01*
X38737Y122895D01*
X38386Y122965D01*
X30892D01*
X29461Y124396D01*
Y135827D01*
X29391Y136178D01*
X29192Y136476D01*
X28894Y136674D01*
X28543Y136744D01*
X10827D01*
X10476Y136674D01*
X10178Y136476D01*
X7814Y134112D01*
X5466Y136460D01*
Y210115D01*
X8390Y213038D01*
X14644D01*
X14835Y212576D01*
X13605Y211346D01*
X12602Y211924D01*
X11432Y212238D01*
X10221D01*
X9051Y211924D01*
X8002Y211319D01*
X7146Y210462D01*
X6540Y209413D01*
X6227Y208243D01*
Y207032D01*
X6540Y205862D01*
X7146Y204813D01*
X8002Y203957D01*
X9051Y203351D01*
X10221Y203038D01*
X11432D01*
X12602Y203351D01*
X13651Y203957D01*
X14508Y204813D01*
X15113Y205862D01*
X15427Y207032D01*
Y208243D01*
X15179Y209170D01*
X20622Y214614D01*
X20910Y215044D01*
X21011Y215551D01*
Y273073D01*
X34238Y286301D01*
X34642Y286068D01*
X35812Y285754D01*
X37023D01*
X38193Y286068D01*
X38596Y286301D01*
X46307Y278590D01*
D02*
G37*
G36*
X190945Y199736D02*
X163386D01*
X163238Y199707D01*
X163088Y199687D01*
X163063Y199672D01*
X163035Y199667D01*
X162909Y199583D01*
X162779Y199507D01*
X146307Y184973D01*
X96457D01*
X96105Y184903D01*
X95808Y184704D01*
X84981Y173877D01*
X84782Y173580D01*
X84712Y173228D01*
Y148622D01*
X84782Y148271D01*
X84981Y147973D01*
X85279Y147774D01*
X85630Y147704D01*
X92987D01*
X93121Y147204D01*
X92804Y147021D01*
X91994Y146212D01*
X91422Y145221D01*
X91126Y144115D01*
Y144043D01*
X95472D01*
X99819D01*
Y144115D01*
X99523Y145221D01*
X98950Y146212D01*
X98141Y147021D01*
X97824Y147204D01*
X97958Y147704D01*
X146720D01*
Y119095D01*
X146790Y118743D01*
X146989Y118446D01*
X147287Y118247D01*
X147638Y118177D01*
X190945D01*
Y1969D01*
X25591D01*
Y14764D01*
X26234D01*
X26335Y14256D01*
X26622Y13826D01*
X32527Y7921D01*
X32957Y7634D01*
X33465Y7533D01*
X63095D01*
X63195Y7033D01*
X62702Y6829D01*
X62069Y6196D01*
X61748Y5421D01*
X66205D01*
X65884Y6196D01*
X65251Y6829D01*
X64758Y7033D01*
X64858Y7533D01*
X82780D01*
X82880Y7033D01*
X82387Y6829D01*
X81754Y6196D01*
X81433Y5421D01*
X85890D01*
X85569Y6196D01*
X84936Y6829D01*
X84443Y7033D01*
X84543Y7533D01*
X102465D01*
X102565Y7033D01*
X102072Y6829D01*
X101439Y6196D01*
X101118Y5421D01*
X105575D01*
X105254Y6196D01*
X104621Y6829D01*
X104128Y7033D01*
X104228Y7533D01*
X118194D01*
Y4710D01*
X124719D01*
Y13006D01*
X118194D01*
Y10184D01*
X34014D01*
X28885Y15313D01*
Y48664D01*
X29816Y49595D01*
X29863Y49548D01*
X30161Y49349D01*
X30512Y49279D01*
X38452D01*
Y49213D01*
X38522Y48861D01*
X38721Y48564D01*
X38776Y48509D01*
X38584Y48047D01*
X35933D01*
Y44988D01*
X39976D01*
Y46655D01*
X40438Y46847D01*
X44627Y42658D01*
X44924Y42459D01*
X45276Y42390D01*
X59055D01*
X59406Y42459D01*
X59547Y42553D01*
X59688Y42459D01*
X60039Y42390D01*
X77823D01*
Y25591D01*
X77892Y25239D01*
X78091Y24942D01*
X78389Y24743D01*
X78740Y24673D01*
X85923D01*
X86402Y24622D01*
X86402Y24173D01*
Y19201D01*
X90551D01*
X94701D01*
Y24173D01*
X94701Y24622D01*
X95180Y24673D01*
X100014D01*
X107619Y17068D01*
X107917Y16869D01*
X108268Y16799D01*
X133858D01*
X134209Y16869D01*
X134507Y17068D01*
X134706Y17365D01*
X134776Y17717D01*
Y39370D01*
X134706Y39721D01*
X134507Y40019D01*
X134209Y40218D01*
X133858Y40288D01*
X113569D01*
X109185Y44671D01*
Y58071D01*
X109116Y58422D01*
X108917Y58720D01*
X108619Y58919D01*
X108268Y58988D01*
X76168Y58988D01*
X71515Y63641D01*
X71217Y63840D01*
X70866Y63910D01*
X60039D01*
X59973Y63964D01*
Y66461D01*
X63713D01*
Y69882D01*
Y73303D01*
X59973D01*
Y98835D01*
X78502Y117364D01*
X79032Y118158D01*
X79219Y119095D01*
Y164370D01*
Y172215D01*
X94911Y187907D01*
X131702D01*
X132639Y188094D01*
X133433Y188624D01*
X134604Y189796D01*
X135135Y190589D01*
X135321Y191526D01*
Y218025D01*
X142717D01*
X143653Y218212D01*
X144447Y218742D01*
X148148Y222443D01*
X148678Y223237D01*
X148864Y224173D01*
Y226455D01*
X149242Y226673D01*
X150098Y227530D01*
X150704Y228579D01*
X151017Y229749D01*
Y230960D01*
X150704Y232130D01*
X150098Y233179D01*
X149242Y234035D01*
X148864Y234253D01*
Y250719D01*
X151053Y252907D01*
X152518D01*
X152736Y252530D01*
X153593Y251673D01*
X154642Y251068D01*
X155812Y250754D01*
X157023D01*
X158193Y251068D01*
X159242Y251673D01*
X160098Y252530D01*
X160704Y253579D01*
X160839Y254084D01*
X162517D01*
X163259Y254232D01*
X163887Y254651D01*
X165740Y256504D01*
X166160Y257133D01*
X166307Y257874D01*
Y312697D01*
X166160Y313438D01*
X165740Y314067D01*
X160349Y319458D01*
Y325014D01*
X159024D01*
Y327165D01*
X158876Y327907D01*
X158456Y328535D01*
X142965Y344026D01*
X143157Y344488D01*
X190945D01*
Y199736D01*
D02*
G37*
G36*
X80913Y275585D02*
X80698Y275264D01*
X80597Y274757D01*
Y274229D01*
X80082Y273714D01*
X79793Y273016D01*
Y272260D01*
X80082Y271562D01*
X80617Y271027D01*
X81315Y270738D01*
X82071D01*
X82769Y271027D01*
X83304Y271562D01*
X83593Y272260D01*
Y272319D01*
X83744Y272399D01*
X84093Y272472D01*
X84554Y272011D01*
X85252Y271722D01*
X86008D01*
X86706Y272011D01*
X87241Y272546D01*
X87530Y273244D01*
Y273802D01*
X88215Y274487D01*
X90182Y272520D01*
X90112Y272449D01*
X91231Y271330D01*
X94026Y274125D01*
X94733Y273418D01*
X91938Y270623D01*
X93057Y269504D01*
X93128Y269575D01*
X94637Y268066D01*
X94566Y267995D01*
X95685Y266876D01*
X98480Y269671D01*
X99187Y268964D01*
X96392Y266169D01*
X97511Y265050D01*
X97582Y265121D01*
X99738Y262964D01*
X101876Y260827D01*
X99738Y258689D01*
X96934Y255885D01*
X94707Y253658D01*
X92480Y251431D01*
X90253Y249204D01*
X88026Y246977D01*
X85799Y244750D01*
X83661Y242612D01*
X80947Y245327D01*
X78720Y247554D01*
X77140Y249133D01*
X77211Y249204D01*
X76092Y250323D01*
X73297Y247528D01*
X72590Y248235D01*
X75385Y251030D01*
X74266Y252149D01*
X74195Y252079D01*
X72039Y254235D01*
X69924Y256350D01*
X70819Y257245D01*
X71106Y257676D01*
X71207Y258183D01*
Y259465D01*
X71493Y259751D01*
X71782Y260449D01*
Y261205D01*
X71493Y261903D01*
X70958Y262438D01*
X70260Y262727D01*
X69504D01*
X68806Y262438D01*
X68271Y261903D01*
X67982Y261205D01*
Y260449D01*
X68271Y259751D01*
X68556Y259465D01*
Y258732D01*
X68049Y258225D01*
X65447Y260827D01*
X67585Y262964D01*
X69812Y265191D01*
X72039Y267419D01*
X74266Y269646D01*
X76493Y271873D01*
X78720Y274100D01*
X80524Y275904D01*
X80913Y275585D01*
D02*
G37*
G36*
X143970Y251625D02*
Y234253D01*
X143593Y234035D01*
X142736Y233179D01*
X142131Y232130D01*
X141817Y230960D01*
Y229749D01*
X142131Y228579D01*
X142736Y227530D01*
X143593Y226673D01*
X143970Y226455D01*
Y225187D01*
X141703Y222920D01*
X121092D01*
X118864Y225147D01*
Y226455D01*
X119242Y226673D01*
X120098Y227530D01*
X120704Y228579D01*
X121017Y229749D01*
Y230960D01*
X120704Y232130D01*
X120098Y233179D01*
X119242Y234035D01*
X118193Y234641D01*
X117023Y234954D01*
X115812D01*
X114642Y234641D01*
X113593Y234035D01*
X113205Y233647D01*
X112743Y233839D01*
Y235947D01*
X113193Y236068D01*
X114242Y236673D01*
X115098Y237530D01*
X115704Y238579D01*
X116017Y239749D01*
Y240960D01*
X115704Y242130D01*
X115098Y243179D01*
X114242Y244035D01*
X113193Y244641D01*
X112023Y244954D01*
X110812D01*
X109642Y244641D01*
X109238Y244408D01*
X107987Y245659D01*
X108178Y246122D01*
X113915D01*
X124828Y235209D01*
X124679Y234651D01*
X124642Y234641D01*
X123593Y234035D01*
X122736Y233179D01*
X122131Y232130D01*
X121817Y230960D01*
Y229749D01*
X122131Y228579D01*
X122736Y227530D01*
X123593Y226673D01*
X124642Y226068D01*
X125812Y225754D01*
X127023D01*
X128193Y226068D01*
X129242Y226673D01*
X130098Y227530D01*
X130704Y228579D01*
X131017Y229749D01*
Y230960D01*
X130704Y232130D01*
X130098Y233179D01*
X129242Y234035D01*
X128193Y234641D01*
X127743Y234761D01*
Y235494D01*
X127642Y236001D01*
X127355Y236431D01*
X116004Y247781D01*
X116196Y248243D01*
X139333D01*
X139840Y248344D01*
X140270Y248632D01*
X143541Y251903D01*
X143970Y251625D01*
D02*
G37*
G36*
X89020Y237074D02*
X89439Y237493D01*
X93245Y233687D01*
X92736Y233179D01*
X92131Y232130D01*
X91817Y230960D01*
Y229749D01*
X92131Y228579D01*
X92736Y227530D01*
X93593Y226673D01*
X94642Y226068D01*
X95812Y225754D01*
X97023D01*
X98193Y226068D01*
X99242Y226673D01*
X100098Y227530D01*
X100704Y228579D01*
X101017Y229749D01*
Y230960D01*
X100704Y232130D01*
X100098Y233179D01*
X99828Y233449D01*
X100020Y233911D01*
X100829D01*
X102306Y232434D01*
X102131Y232130D01*
X101817Y230960D01*
Y229749D01*
X102131Y228579D01*
X102736Y227530D01*
X103593Y226673D01*
X104642Y226068D01*
X105812Y225754D01*
X107023D01*
X108193Y226068D01*
X109242Y226673D01*
X109630Y227062D01*
X110092Y226870D01*
Y224171D01*
X108703Y222782D01*
X102362D01*
X101855Y222681D01*
X101425Y222394D01*
X98472Y219441D01*
X98185Y219011D01*
X98084Y218504D01*
Y208169D01*
X98185Y207662D01*
X98472Y207232D01*
X101659Y204045D01*
Y197624D01*
X108184D01*
Y204045D01*
X112006Y207867D01*
X118855D01*
X118972Y207693D01*
X119660Y207233D01*
X120473Y207071D01*
X123819D01*
X124631Y207233D01*
X125319Y207693D01*
X125779Y208381D01*
X125941Y209193D01*
X125779Y210005D01*
X125319Y210693D01*
X124631Y211153D01*
X123819Y211315D01*
X120473D01*
X119660Y211153D01*
X118972Y210693D01*
X118855Y210518D01*
X111457D01*
X110950Y210418D01*
X110520Y210130D01*
X108573Y208184D01*
X108184Y208501D01*
Y212018D01*
X108423Y212257D01*
X111827D01*
X112113Y211972D01*
X112811Y211683D01*
X113567D01*
X114265Y211972D01*
X114800Y212506D01*
X114825Y212568D01*
X118894D01*
X119097Y212609D01*
X119660Y212233D01*
X120473Y212071D01*
X123819D01*
X124631Y212233D01*
X125319Y212692D01*
X125779Y213381D01*
X125941Y214193D01*
X125779Y215005D01*
X125319Y215693D01*
X124631Y216153D01*
X123819Y216315D01*
X120473D01*
X119660Y216153D01*
X118972Y215693D01*
X118803Y215441D01*
X118686Y215418D01*
X118389Y215219D01*
X114202D01*
X113567Y215483D01*
X112811D01*
X112113Y215193D01*
X111827Y214908D01*
X108184D01*
Y216746D01*
X101659D01*
Y208501D01*
X101269Y208184D01*
X100735Y208718D01*
Y217955D01*
X102911Y220131D01*
X109252D01*
X109759Y220232D01*
X110189Y220519D01*
X112355Y222685D01*
X112642Y223115D01*
X112743Y223622D01*
Y226870D01*
X113205Y227062D01*
X113593Y226673D01*
X113970Y226455D01*
Y224134D01*
X114157Y223197D01*
X114687Y222404D01*
X118348Y218742D01*
X119142Y218212D01*
X120079Y218025D01*
X130427D01*
Y192801D01*
X124083D01*
Y197124D01*
X124631Y197233D01*
X125319Y197693D01*
X125779Y198381D01*
X125941Y199193D01*
X125779Y200005D01*
X125319Y200693D01*
X124631Y201153D01*
X123819Y201315D01*
X120473D01*
X119660Y201153D01*
X118972Y200693D01*
X118512Y200005D01*
X118351Y199193D01*
X118512Y198381D01*
X118972Y197693D01*
X119660Y197233D01*
X120209Y197124D01*
Y192801D01*
X95835D01*
Y197624D01*
X97160D01*
Y205920D01*
X95835D01*
Y208450D01*
X97160D01*
Y216746D01*
X90635D01*
Y213924D01*
X81258D01*
X72743Y222439D01*
Y226870D01*
X73205Y227061D01*
X73593Y226673D01*
X74642Y226068D01*
X75812Y225754D01*
X77023D01*
X78193Y226068D01*
X79242Y226673D01*
X80098Y227530D01*
X80704Y228579D01*
X81017Y229749D01*
Y230960D01*
X80704Y232130D01*
X80098Y233179D01*
X79242Y234035D01*
X78193Y234641D01*
X77023Y234954D01*
X75812D01*
X75506Y234873D01*
X75144Y235235D01*
Y239525D01*
X75147Y239528D01*
X75557Y239820D01*
X78302Y237074D01*
X80089Y238861D01*
X84141Y234810D01*
X84076Y234314D01*
X83593Y234035D01*
X82736Y233179D01*
X82131Y232130D01*
X81817Y230960D01*
Y229749D01*
X82131Y228579D01*
X82736Y227530D01*
X83593Y226673D01*
X84642Y226068D01*
X85812Y225754D01*
X87023D01*
X88193Y226068D01*
X89242Y226673D01*
X90098Y227530D01*
X90704Y228579D01*
X91017Y229749D01*
Y230960D01*
X90704Y232130D01*
X90098Y233179D01*
X89242Y234035D01*
X88193Y234641D01*
X87349Y234867D01*
X87264Y235293D01*
X86977Y235723D01*
X81964Y240736D01*
X83661Y242433D01*
X89020Y237074D01*
D02*
G37*
G36*
X60095Y226873D02*
Y226546D01*
X60196Y226039D01*
X60196Y226039D01*
X60483Y225608D01*
X60717Y225374D01*
X65119Y220972D01*
X65549Y220685D01*
X66057Y220584D01*
X70849D01*
X79771Y211661D01*
X80201Y211374D01*
X80709Y211273D01*
X90635D01*
Y208450D01*
X91960D01*
Y205920D01*
X90635D01*
Y197624D01*
X91960D01*
Y191878D01*
X75041Y174959D01*
X74511Y174165D01*
X74325Y173228D01*
Y165990D01*
X70349D01*
Y167790D01*
X61856D01*
Y160133D01*
X61356Y159755D01*
X61181Y159790D01*
X59059D01*
X58855Y160290D01*
X59500Y160936D01*
X60059Y161904D01*
X60349Y162984D01*
Y164102D01*
X60059Y165182D01*
X59500Y166151D01*
X58710Y166941D01*
X57741Y167500D01*
X57585Y167542D01*
Y225905D01*
X58193Y226068D01*
X59242Y226673D01*
X59633Y227064D01*
X60095Y226873D01*
D02*
G37*
G36*
X191929Y119095D02*
X147638D01*
Y148622D01*
X85630D01*
Y173228D01*
X96457Y184055D01*
X146653D01*
X163386Y198819D01*
X191929D01*
Y119095D01*
D02*
G37*
G36*
X28543Y124016D02*
X30512Y122047D01*
X38386D01*
X41339Y119095D01*
Y108268D01*
X35433Y102362D01*
X2953D01*
Y127953D01*
X10827Y135827D01*
X28543D01*
Y124016D01*
D02*
G37*
G36*
X59055Y43307D02*
X45276D01*
X39370Y49213D01*
Y50197D01*
X30512D01*
X28543Y52165D01*
Y82677D01*
X31496D01*
X32480Y83661D01*
Y101378D01*
X59055D01*
Y43307D01*
D02*
G37*
G36*
X2602Y101514D02*
X2953Y101445D01*
X4453D01*
Y97941D01*
X7874D01*
X11295D01*
Y101445D01*
X26096D01*
Y95388D01*
X24691D01*
Y85714D01*
X31563D01*
Y84042D01*
X31116Y83595D01*
X28543D01*
X28192Y83525D01*
X27894Y83326D01*
X27696Y83028D01*
X27626Y82677D01*
Y81177D01*
X23886D01*
Y77756D01*
Y74335D01*
X27626D01*
Y52165D01*
X27696Y51814D01*
X27894Y51516D01*
X27941Y51469D01*
X26622Y50150D01*
X26335Y49720D01*
X26234Y49213D01*
Y37402D01*
X1969D01*
Y101382D01*
X1972Y101385D01*
X2468Y101603D01*
X2602Y101514D01*
D02*
G37*
G36*
X75787Y58071D02*
X108268Y58071D01*
Y44291D01*
X113189Y39370D01*
X133858D01*
Y17717D01*
X108268D01*
X100394Y25591D01*
X78740D01*
Y43307D01*
X60039D01*
Y62992D01*
X70866D01*
X75787Y58071D01*
D02*
G37*
%LPC*%
G36*
X15567Y317535D02*
X12508D01*
Y313492D01*
X15567D01*
Y317535D01*
D02*
G37*
G36*
X64386D02*
X61327D01*
Y313492D01*
X64386D01*
Y317535D01*
D02*
G37*
G36*
X60327D02*
X57268D01*
Y313492D01*
X60327D01*
Y317535D01*
D02*
G37*
G36*
X11508D02*
X8449D01*
Y313492D01*
X11508D01*
Y317535D01*
D02*
G37*
G36*
X136038Y330428D02*
X127742D01*
Y323903D01*
X130564D01*
Y316648D01*
X129415D01*
Y311305D01*
X134365D01*
Y316648D01*
X133215D01*
Y323903D01*
X136038D01*
Y330428D01*
D02*
G37*
G36*
X121274D02*
X112978D01*
Y323903D01*
X115800D01*
Y316648D01*
X114651D01*
Y311305D01*
X119601D01*
Y316648D01*
X118451D01*
Y323903D01*
X121274D01*
Y330428D01*
D02*
G37*
G36*
X80920D02*
X72624D01*
Y323903D01*
X75446D01*
Y316648D01*
X74297D01*
Y311305D01*
X79246D01*
Y316648D01*
X78097D01*
Y323903D01*
X80920D01*
Y330428D01*
D02*
G37*
G36*
X103847Y312268D02*
Y310539D01*
X105575D01*
X105254Y311314D01*
X104621Y311947D01*
X103847Y312268D01*
D02*
G37*
G36*
X102847D02*
X102072Y311947D01*
X101439Y311314D01*
X101118Y310539D01*
X102847D01*
Y312268D01*
D02*
G37*
G36*
X96957D02*
Y310539D01*
X98685D01*
X98364Y311314D01*
X97731Y311947D01*
X96957Y312268D01*
D02*
G37*
G36*
X95957D02*
X95182Y311947D01*
X94549Y311314D01*
X94228Y310539D01*
X95957D01*
Y312268D01*
D02*
G37*
G36*
X90067D02*
Y310539D01*
X91795D01*
X91474Y311314D01*
X90841Y311947D01*
X90067Y312268D01*
D02*
G37*
G36*
X89067D02*
X88292Y311947D01*
X87660Y311314D01*
X87339Y310539D01*
X89067D01*
Y312268D01*
D02*
G37*
G36*
X64386Y312492D02*
X61327D01*
Y308449D01*
X64386D01*
Y312492D01*
D02*
G37*
G36*
X60327D02*
X57268D01*
Y308449D01*
X60327D01*
Y312492D01*
D02*
G37*
G36*
X15567D02*
X12508D01*
Y308449D01*
X15567D01*
Y312492D01*
D02*
G37*
G36*
X11508D02*
X8449D01*
Y308449D01*
X11508D01*
Y312492D01*
D02*
G37*
G36*
X105575Y309539D02*
X103847D01*
Y307811D01*
X104621Y308132D01*
X105254Y308765D01*
X105575Y309539D01*
D02*
G37*
G36*
X102847D02*
X101118D01*
X101439Y308765D01*
X102072Y308132D01*
X102847Y307811D01*
Y309539D01*
D02*
G37*
G36*
X98685D02*
X96957D01*
Y307811D01*
X97731Y308132D01*
X98364Y308765D01*
X98685Y309539D01*
D02*
G37*
G36*
X95957D02*
X94228D01*
X94549Y308765D01*
X95182Y308132D01*
X95957Y307811D01*
Y309539D01*
D02*
G37*
G36*
X91795D02*
X90067D01*
Y307811D01*
X90841Y308132D01*
X91474Y308765D01*
X91795Y309539D01*
D02*
G37*
G36*
X89067D02*
X87339D01*
X87660Y308765D01*
X88292Y308132D01*
X89067Y307811D01*
Y309539D01*
D02*
G37*
G36*
X123441Y308874D02*
X121366D01*
Y306602D01*
X123441D01*
Y308874D01*
D02*
G37*
G36*
X83087D02*
X81012D01*
Y306602D01*
X83087D01*
Y308874D01*
D02*
G37*
G36*
X138205D02*
X136130D01*
Y306602D01*
X138205D01*
Y308874D01*
D02*
G37*
G36*
X135130D02*
X133055D01*
Y306602D01*
X135130D01*
Y308874D01*
D02*
G37*
G36*
X80012D02*
X77937D01*
Y306602D01*
X80012D01*
Y308874D01*
D02*
G37*
G36*
X120366D02*
X118291D01*
Y306602D01*
X120366D01*
Y308874D01*
D02*
G37*
G36*
X66845Y335546D02*
X43391D01*
Y325872D01*
X53793D01*
Y320234D01*
X50994Y317435D01*
X45950D01*
Y310423D01*
X44514Y308987D01*
X43913D01*
X43215Y308697D01*
X42681Y308163D01*
X42391Y307465D01*
Y306709D01*
X42681Y306010D01*
X43215Y305476D01*
X43913Y305187D01*
X44669D01*
X45368Y305476D01*
X45902Y306010D01*
X46191Y306709D01*
Y306915D01*
X47825Y308549D01*
X52868D01*
Y315561D01*
X56055Y318748D01*
X56343Y319178D01*
X56444Y319685D01*
Y325872D01*
X66845D01*
Y335546D01*
D02*
G37*
G36*
X29443D02*
X5990D01*
Y325872D01*
X16391D01*
Y319685D01*
X16492Y319178D01*
X16779Y318748D01*
X19966Y315561D01*
Y308549D01*
X25010D01*
X26643Y306915D01*
Y306709D01*
X26933Y306010D01*
X27467Y305476D01*
X28165Y305187D01*
X28921D01*
X29620Y305476D01*
X30154Y306010D01*
X30443Y306709D01*
Y307465D01*
X30154Y308163D01*
X29620Y308697D01*
X28921Y308987D01*
X28321D01*
X26884Y310423D01*
Y317435D01*
X21841D01*
X19042Y320234D01*
Y325872D01*
X29443D01*
Y335546D01*
D02*
G37*
G36*
X135130Y305602D02*
X133055D01*
Y303331D01*
X135130D01*
Y305602D01*
D02*
G37*
G36*
X120366D02*
X118291D01*
Y303331D01*
X120366D01*
Y305602D01*
D02*
G37*
G36*
X83087D02*
X81012D01*
Y303331D01*
X83087D01*
Y305602D01*
D02*
G37*
G36*
X80012D02*
X77937D01*
Y303331D01*
X80012D01*
Y305602D01*
D02*
G37*
G36*
X117036Y295054D02*
X116917D01*
Y290854D01*
X121117D01*
Y290973D01*
X120797Y292168D01*
X120178Y293240D01*
X119303Y294115D01*
X118231Y294734D01*
X117036Y295054D01*
D02*
G37*
G36*
X115917D02*
X115799D01*
X114603Y294734D01*
X113531Y294115D01*
X112656Y293240D01*
X112038Y292168D01*
X111717Y290973D01*
Y290854D01*
X115917D01*
Y295054D01*
D02*
G37*
G36*
X18338Y301589D02*
X17095D01*
X15875Y301346D01*
X14726Y300870D01*
X13692Y300180D01*
X12813Y299300D01*
X12122Y298266D01*
X11646Y297117D01*
X11403Y295897D01*
Y294654D01*
X11646Y293434D01*
X12122Y292285D01*
X12813Y291251D01*
X13692Y290372D01*
X14726Y289681D01*
X15875Y289205D01*
X17095Y288962D01*
X18338D01*
X19558Y289205D01*
X20707Y289681D01*
X21741Y290372D01*
X22621Y291251D01*
X23311Y292285D01*
X23787Y293434D01*
X24030Y294654D01*
Y295897D01*
X23787Y297117D01*
X23311Y298266D01*
X22621Y299300D01*
X21741Y300180D01*
X20707Y300870D01*
X19558Y301346D01*
X18338Y301589D01*
D02*
G37*
G36*
X107023Y294954D02*
X105812D01*
X104642Y294641D01*
X103593Y294035D01*
X102736Y293179D01*
X102131Y292130D01*
X101817Y290960D01*
Y289749D01*
X102131Y288579D01*
X102736Y287530D01*
X103593Y286673D01*
X104642Y286068D01*
X105812Y285754D01*
X107023D01*
X108193Y286068D01*
X109242Y286673D01*
X110098Y287530D01*
X110704Y288579D01*
X111017Y289749D01*
Y290960D01*
X110704Y292130D01*
X110098Y293179D01*
X109242Y294035D01*
X108193Y294641D01*
X107023Y294954D01*
D02*
G37*
G36*
X87023D02*
X85812D01*
X84642Y294641D01*
X83593Y294035D01*
X82736Y293179D01*
X82131Y292130D01*
X81817Y290960D01*
Y289749D01*
X82131Y288579D01*
X82736Y287530D01*
X83593Y286673D01*
X84642Y286068D01*
X85812Y285754D01*
X87023D01*
X88193Y286068D01*
X89242Y286673D01*
X90098Y287530D01*
X90704Y288579D01*
X91017Y289749D01*
Y290960D01*
X90704Y292130D01*
X90098Y293179D01*
X89242Y294035D01*
X88193Y294641D01*
X87023Y294954D01*
D02*
G37*
G36*
X84161Y285693D02*
Y283965D01*
X85890D01*
X85569Y284739D01*
X84936Y285372D01*
X84161Y285693D01*
D02*
G37*
G36*
X83161D02*
X82387Y285372D01*
X81754Y284739D01*
X81433Y283965D01*
X83161D01*
Y285693D01*
D02*
G37*
G36*
X85890Y282965D02*
X84161D01*
Y281236D01*
X84936Y281557D01*
X85569Y282190D01*
X85890Y282965D01*
D02*
G37*
G36*
X83161D02*
X81433D01*
X81754Y282190D01*
X82387Y281557D01*
X83161Y281236D01*
Y282965D01*
D02*
G37*
G36*
X121117Y289854D02*
X111717D01*
Y289736D01*
X112038Y288540D01*
X112656Y287469D01*
X113531Y286593D01*
X114603Y285975D01*
X115092Y285844D01*
Y285055D01*
X114354D01*
Y281012D01*
X117913D01*
X121472D01*
Y285055D01*
X117743D01*
Y285844D01*
X118231Y285975D01*
X119303Y286593D01*
X120178Y287469D01*
X120797Y288540D01*
X121117Y289736D01*
Y289854D01*
D02*
G37*
G36*
X138295Y277819D02*
Y276091D01*
X140024D01*
X139703Y276865D01*
X139070Y277498D01*
X138295Y277819D01*
D02*
G37*
G36*
X137295D02*
X136521Y277498D01*
X135888Y276865D01*
X135567Y276091D01*
X137295D01*
Y277819D01*
D02*
G37*
G36*
X121472Y280012D02*
X118413D01*
Y275969D01*
X121472D01*
Y280012D01*
D02*
G37*
G36*
X117413D02*
X114354D01*
Y275969D01*
X117413D01*
Y280012D01*
D02*
G37*
G36*
X140024Y275091D02*
X138295D01*
Y273362D01*
X139070Y273683D01*
X139703Y274316D01*
X140024Y275091D01*
D02*
G37*
G36*
X137295D02*
X135567D01*
X135888Y274316D01*
X136521Y273683D01*
X137295Y273362D01*
Y275091D01*
D02*
G37*
G36*
X129347Y275213D02*
X126287D01*
Y271169D01*
X129347D01*
Y275213D01*
D02*
G37*
G36*
X125287D02*
X122228D01*
Y271169D01*
X125287D01*
Y275213D01*
D02*
G37*
G36*
X10343Y272898D02*
Y271169D01*
X12071D01*
X11750Y271944D01*
X11117Y272577D01*
X10343Y272898D01*
D02*
G37*
G36*
X9342D02*
X8568Y272577D01*
X7935Y271944D01*
X7614Y271169D01*
X9342D01*
Y272898D01*
D02*
G37*
G36*
X12071Y270169D02*
X10343D01*
Y268441D01*
X11117Y268762D01*
X11750Y269395D01*
X12071Y270169D01*
D02*
G37*
G36*
X9342D02*
X7614D01*
X7935Y269395D01*
X8568Y268762D01*
X9342Y268441D01*
Y270169D01*
D02*
G37*
G36*
X138295Y267976D02*
Y266248D01*
X140024D01*
X139703Y267023D01*
X139070Y267655D01*
X138295Y267976D01*
D02*
G37*
G36*
X137295D02*
X136521Y267655D01*
X135888Y267023D01*
X135567Y266248D01*
X137295D01*
Y267976D01*
D02*
G37*
G36*
X129347Y270169D02*
X126287D01*
Y266126D01*
X129347D01*
Y270169D01*
D02*
G37*
G36*
X125287D02*
X122228D01*
Y266126D01*
X125287D01*
Y270169D01*
D02*
G37*
G36*
X140024Y265248D02*
X138295D01*
Y263520D01*
X139070Y263841D01*
X139703Y264474D01*
X140024Y265248D01*
D02*
G37*
G36*
X137295D02*
X135567D01*
X135888Y264474D01*
X136521Y263841D01*
X137295Y263520D01*
Y265248D01*
D02*
G37*
G36*
X10343Y263055D02*
Y261327D01*
X12071D01*
X11750Y262101D01*
X11117Y262734D01*
X10343Y263055D01*
D02*
G37*
G36*
X9342D02*
X8568Y262734D01*
X7935Y262101D01*
X7614Y261327D01*
X9342D01*
Y263055D01*
D02*
G37*
G36*
X12071Y260327D02*
X10343D01*
Y258598D01*
X11117Y258919D01*
X11750Y259552D01*
X12071Y260327D01*
D02*
G37*
G36*
X9342D02*
X7614D01*
X7935Y259552D01*
X8568Y258919D01*
X9342Y258598D01*
Y260327D01*
D02*
G37*
G36*
X125500Y260102D02*
Y258374D01*
X127228D01*
X126908Y259149D01*
X126275Y259782D01*
X125500Y260102D01*
D02*
G37*
G36*
X124500D02*
X123725Y259782D01*
X123092Y259149D01*
X122772Y258374D01*
X124500D01*
Y260102D01*
D02*
G37*
G36*
X112705D02*
Y258374D01*
X114433D01*
X114112Y259149D01*
X113479Y259782D01*
X112705Y260102D01*
D02*
G37*
G36*
X111705D02*
X110930Y259782D01*
X110297Y259149D01*
X109976Y258374D01*
X111705D01*
Y260102D01*
D02*
G37*
G36*
X127228Y257374D02*
X125500D01*
Y255646D01*
X126275Y255967D01*
X126908Y256599D01*
X127228Y257374D01*
D02*
G37*
G36*
X124500D02*
X122772D01*
X123092Y256599D01*
X123725Y255967D01*
X124500Y255646D01*
Y257374D01*
D02*
G37*
G36*
X114433D02*
X112705D01*
Y255646D01*
X113479Y255967D01*
X114112Y256599D01*
X114433Y257374D01*
D02*
G37*
G36*
X111705D02*
X109976D01*
X110297Y256599D01*
X110930Y255967D01*
X111705Y255646D01*
Y257374D01*
D02*
G37*
G36*
X10343Y253212D02*
Y251484D01*
X12071D01*
X11750Y252259D01*
X11117Y252892D01*
X10343Y253212D01*
D02*
G37*
G36*
X9342D02*
X8568Y252892D01*
X7935Y252259D01*
X7614Y251484D01*
X9342D01*
Y253212D01*
D02*
G37*
G36*
X12071Y250484D02*
X10343D01*
Y248756D01*
X11117Y249077D01*
X11750Y249710D01*
X12071Y250484D01*
D02*
G37*
G36*
X9342D02*
X7614D01*
X7935Y249710D01*
X8568Y249077D01*
X9342Y248756D01*
Y250484D01*
D02*
G37*
G36*
X39870Y275850D02*
Y274122D01*
X41598D01*
X41278Y274897D01*
X40645Y275530D01*
X39870Y275850D01*
D02*
G37*
G36*
X38870D02*
X38096Y275530D01*
X37463Y274897D01*
X37142Y274122D01*
X38870D01*
Y275850D01*
D02*
G37*
G36*
X30028D02*
Y274122D01*
X31756D01*
X31435Y274897D01*
X30802Y275530D01*
X30028Y275850D01*
D02*
G37*
G36*
X29028D02*
X28253Y275530D01*
X27620Y274897D01*
X27299Y274122D01*
X29028D01*
Y275850D01*
D02*
G37*
G36*
X41598Y273122D02*
X39870D01*
Y271394D01*
X40645Y271715D01*
X41278Y272347D01*
X41598Y273122D01*
D02*
G37*
G36*
X38870D02*
X37142D01*
X37463Y272347D01*
X38096Y271715D01*
X38870Y271394D01*
Y273122D01*
D02*
G37*
G36*
X31756D02*
X30028D01*
Y271394D01*
X30802Y271715D01*
X31435Y272347D01*
X31756Y273122D01*
D02*
G37*
G36*
X29028D02*
X27299D01*
X27620Y272347D01*
X28253Y271715D01*
X29028Y271394D01*
Y273122D01*
D02*
G37*
G36*
X35917Y265054D02*
X35799D01*
X34603Y264734D01*
X33531Y264115D01*
X32656Y263240D01*
X32038Y262169D01*
X31717Y260973D01*
Y260854D01*
X35917D01*
Y265054D01*
D02*
G37*
G36*
Y259854D02*
X31717D01*
Y259736D01*
X32038Y258540D01*
X32656Y257469D01*
X33531Y256593D01*
X34603Y255975D01*
X35799Y255654D01*
X35917D01*
Y259854D01*
D02*
G37*
G36*
X30028Y213842D02*
Y212114D01*
X31756D01*
X31435Y212889D01*
X30802Y213522D01*
X30028Y213842D01*
D02*
G37*
G36*
X29028D02*
X28253Y213522D01*
X27620Y212889D01*
X27299Y212114D01*
X29028D01*
Y213842D01*
D02*
G37*
G36*
X31756Y211114D02*
X30028D01*
Y209386D01*
X30802Y209707D01*
X31435Y210340D01*
X31756Y211114D01*
D02*
G37*
G36*
X29028D02*
X27299D01*
X27620Y210340D01*
X28253Y209707D01*
X29028Y209386D01*
Y211114D01*
D02*
G37*
G36*
X53756Y208874D02*
X49713D01*
Y206209D01*
X53756D01*
Y208874D01*
D02*
G37*
G36*
X48713D02*
X44669D01*
Y206209D01*
X48713D01*
Y208874D01*
D02*
G37*
G36*
X53756Y205209D02*
X49713D01*
Y202543D01*
X53756D01*
Y205209D01*
D02*
G37*
G36*
X48713D02*
X44669D01*
Y202543D01*
X48713D01*
Y205209D01*
D02*
G37*
G36*
X30028Y204000D02*
Y202272D01*
X31756D01*
X31435Y203046D01*
X30802Y203679D01*
X30028Y204000D01*
D02*
G37*
G36*
X29028D02*
X28253Y203679D01*
X27620Y203046D01*
X27299Y202272D01*
X29028D01*
Y204000D01*
D02*
G37*
G36*
X31756Y201272D02*
X30028D01*
Y199543D01*
X30802Y199864D01*
X31435Y200497D01*
X31756Y201272D01*
D02*
G37*
G36*
X29028D02*
X27299D01*
X27620Y200497D01*
X28253Y199864D01*
X29028Y199543D01*
Y201272D01*
D02*
G37*
G36*
X11445Y202338D02*
X11327D01*
Y198138D01*
X15527D01*
Y198257D01*
X15206Y199452D01*
X14588Y200524D01*
X13713Y201399D01*
X12641Y202017D01*
X11445Y202338D01*
D02*
G37*
G36*
X10327D02*
X10208D01*
X9013Y202017D01*
X7941Y201399D01*
X7066Y200524D01*
X6447Y199452D01*
X6127Y198257D01*
Y198138D01*
X10327D01*
Y202338D01*
D02*
G37*
G36*
X15527Y197138D02*
X11327D01*
Y192938D01*
X11445D01*
X12641Y193258D01*
X13713Y193877D01*
X14588Y194752D01*
X15206Y195824D01*
X15527Y197019D01*
Y197138D01*
D02*
G37*
G36*
X10327D02*
X6127D01*
Y197019D01*
X6447Y195824D01*
X7066Y194752D01*
X7941Y193877D01*
X9013Y193258D01*
X10208Y192938D01*
X10327D01*
Y197138D01*
D02*
G37*
G36*
X49713Y194157D02*
Y192429D01*
X51441D01*
X51120Y193204D01*
X50487Y193837D01*
X49713Y194157D01*
D02*
G37*
G36*
X48713D02*
X47938Y193837D01*
X47305Y193204D01*
X46984Y192429D01*
X48713D01*
Y194157D01*
D02*
G37*
G36*
X30028D02*
Y192429D01*
X31756D01*
X31435Y193204D01*
X30802Y193837D01*
X30028Y194157D01*
D02*
G37*
G36*
X29028D02*
X28253Y193837D01*
X27620Y193204D01*
X27299Y192429D01*
X29028D01*
Y194157D01*
D02*
G37*
G36*
X51441Y191429D02*
X49713D01*
Y189701D01*
X50487Y190022D01*
X51120Y190655D01*
X51441Y191429D01*
D02*
G37*
G36*
X48713D02*
X46984D01*
X47305Y190655D01*
X47938Y190022D01*
X48713Y189701D01*
Y191429D01*
D02*
G37*
G36*
X31756D02*
X30028D01*
Y189701D01*
X30802Y190022D01*
X31435Y190655D01*
X31756Y191429D01*
D02*
G37*
G36*
X29028D02*
X27299D01*
X27620Y190655D01*
X28253Y190022D01*
X29028Y189701D01*
Y191429D01*
D02*
G37*
G36*
X49713Y185299D02*
Y183571D01*
X51441D01*
X51120Y184345D01*
X50487Y184978D01*
X49713Y185299D01*
D02*
G37*
G36*
X48713D02*
X47938Y184978D01*
X47305Y184345D01*
X46984Y183571D01*
X48713D01*
Y185299D01*
D02*
G37*
G36*
X11432Y192238D02*
X10221D01*
X9051Y191924D01*
X8002Y191319D01*
X7146Y190462D01*
X6540Y189413D01*
X6227Y188243D01*
Y187032D01*
X6540Y185862D01*
X7146Y184813D01*
X8002Y183957D01*
X9051Y183351D01*
X10221Y183038D01*
X11432D01*
X12602Y183351D01*
X13651Y183957D01*
X14508Y184813D01*
X15113Y185862D01*
X15427Y187032D01*
Y188243D01*
X15113Y189413D01*
X14508Y190462D01*
X13651Y191319D01*
X12602Y191924D01*
X11432Y192238D01*
D02*
G37*
G36*
X51441Y182571D02*
X49713D01*
Y180843D01*
X50487Y181163D01*
X51120Y181796D01*
X51441Y182571D01*
D02*
G37*
G36*
X48713D02*
X46984D01*
X47305Y181796D01*
X47938Y181163D01*
X48713Y180843D01*
Y182571D01*
D02*
G37*
G36*
X66675Y147890D02*
X66602D01*
Y144043D01*
X70449D01*
Y144115D01*
X70153Y145221D01*
X69580Y146212D01*
X68771Y147021D01*
X67780Y147594D01*
X66675Y147890D01*
D02*
G37*
G36*
X65602D02*
X65530D01*
X64425Y147594D01*
X63434Y147021D01*
X62624Y146212D01*
X62052Y145221D01*
X61756Y144115D01*
Y144043D01*
X65602D01*
Y147890D01*
D02*
G37*
G36*
X39870Y144945D02*
Y143217D01*
X41598D01*
X41278Y143991D01*
X40645Y144624D01*
X39870Y144945D01*
D02*
G37*
G36*
X38870D02*
X38096Y144624D01*
X37463Y143991D01*
X37142Y143217D01*
X38870D01*
Y144945D01*
D02*
G37*
G36*
X30028D02*
Y143217D01*
X31756D01*
X31435Y143991D01*
X30802Y144624D01*
X30028Y144945D01*
D02*
G37*
G36*
X29028D02*
X28253Y144624D01*
X27620Y143991D01*
X27299Y143217D01*
X29028D01*
Y144945D01*
D02*
G37*
G36*
X11432Y152238D02*
X10221D01*
X9051Y151924D01*
X8002Y151319D01*
X7146Y150462D01*
X6540Y149413D01*
X6227Y148243D01*
Y147032D01*
X6540Y145862D01*
X7146Y144813D01*
X8002Y143957D01*
X9051Y143351D01*
X10221Y143038D01*
X11432D01*
X12602Y143351D01*
X13651Y143957D01*
X14508Y144813D01*
X15113Y145862D01*
X15427Y147032D01*
Y148243D01*
X15113Y149413D01*
X14508Y150462D01*
X13651Y151319D01*
X12602Y151924D01*
X11432Y152238D01*
D02*
G37*
G36*
X41598Y142217D02*
X39870D01*
Y140488D01*
X40645Y140809D01*
X41278Y141442D01*
X41598Y142217D01*
D02*
G37*
G36*
X38870D02*
X37142D01*
X37463Y141442D01*
X38096Y140809D01*
X38870Y140488D01*
Y142217D01*
D02*
G37*
G36*
X31756D02*
X30028D01*
Y140488D01*
X30802Y140809D01*
X31435Y141442D01*
X31756Y142217D01*
D02*
G37*
G36*
X29028D02*
X27299D01*
X27620Y141442D01*
X28253Y140809D01*
X29028Y140488D01*
Y142217D01*
D02*
G37*
G36*
X56661Y147790D02*
X55543D01*
X54463Y147500D01*
X53495Y146941D01*
X52704Y146151D01*
X52145Y145182D01*
X51856Y144102D01*
Y142984D01*
X52145Y141904D01*
X52704Y140936D01*
X53495Y140145D01*
X54463Y139586D01*
X55543Y139297D01*
X56661D01*
X57741Y139586D01*
X58710Y140145D01*
X59500Y140936D01*
X60059Y141904D01*
X60349Y142984D01*
Y144102D01*
X60059Y145182D01*
X59500Y146151D01*
X58710Y146941D01*
X57741Y147500D01*
X56661Y147790D01*
D02*
G37*
G36*
X70449Y143043D02*
X66602D01*
Y139197D01*
X66675D01*
X67780Y139493D01*
X68771Y140065D01*
X69580Y140875D01*
X70153Y141866D01*
X70449Y142971D01*
Y143043D01*
D02*
G37*
G36*
X65602D02*
X61756D01*
Y142971D01*
X62052Y141866D01*
X62624Y140875D01*
X63434Y140065D01*
X64425Y139493D01*
X65530Y139197D01*
X65602D01*
Y143043D01*
D02*
G37*
G36*
X37811Y133480D02*
X34752D01*
Y129437D01*
X37811D01*
Y133480D01*
D02*
G37*
G36*
X33752D02*
X30693D01*
Y129437D01*
X33752D01*
Y133480D01*
D02*
G37*
G36*
X37811Y128437D02*
X34752D01*
Y124394D01*
X37811D01*
Y128437D01*
D02*
G37*
G36*
X33752D02*
X30693D01*
Y124394D01*
X33752D01*
Y128437D01*
D02*
G37*
G36*
X64476Y125260D02*
Y123531D01*
X66205D01*
X65884Y124306D01*
X65251Y124939D01*
X64476Y125260D01*
D02*
G37*
G36*
X63476D02*
X62702Y124939D01*
X62069Y124306D01*
X61748Y123531D01*
X63476D01*
Y125260D01*
D02*
G37*
G36*
X54634D02*
Y123531D01*
X56362D01*
X56041Y124306D01*
X55408Y124939D01*
X54634Y125260D01*
D02*
G37*
G36*
X53634D02*
X52859Y124939D01*
X52226Y124306D01*
X51906Y123531D01*
X53634D01*
Y125260D01*
D02*
G37*
G36*
X66205Y122531D02*
X64476D01*
Y120803D01*
X65251Y121124D01*
X65884Y121757D01*
X66205Y122531D01*
D02*
G37*
G36*
X63476D02*
X61748D01*
X62069Y121757D01*
X62702Y121124D01*
X63476Y120803D01*
Y122531D01*
D02*
G37*
G36*
X56362D02*
X54634D01*
Y120803D01*
X55408Y121124D01*
X56041Y121757D01*
X56362Y122531D01*
D02*
G37*
G36*
X53634D02*
X51906D01*
X52226Y121757D01*
X52859Y121124D01*
X53634Y120803D01*
Y122531D01*
D02*
G37*
G36*
X53756Y111630D02*
X49713D01*
Y108571D01*
X53756D01*
Y111630D01*
D02*
G37*
G36*
X48713D02*
X44669D01*
Y108571D01*
X48713D01*
Y111630D01*
D02*
G37*
G36*
X53756Y107571D02*
X49713D01*
Y104512D01*
X53756D01*
Y107571D01*
D02*
G37*
G36*
X48713D02*
X44669D01*
Y104512D01*
X48713D01*
Y107571D01*
D02*
G37*
G36*
X175697Y336874D02*
Y335146D01*
X177425D01*
X177104Y335920D01*
X176471Y336553D01*
X175697Y336874D01*
D02*
G37*
G36*
X174697D02*
X173922Y336553D01*
X173289Y335920D01*
X172969Y335146D01*
X174697D01*
Y336874D01*
D02*
G37*
G36*
X177425Y334146D02*
X175697D01*
Y332417D01*
X176471Y332738D01*
X177104Y333371D01*
X177425Y334146D01*
D02*
G37*
G36*
X174697D02*
X172969D01*
X173289Y333371D01*
X173922Y332738D01*
X174697Y332417D01*
Y334146D01*
D02*
G37*
G36*
X175697Y327031D02*
Y325303D01*
X177425D01*
X177104Y326078D01*
X176471Y326711D01*
X175697Y327031D01*
D02*
G37*
G36*
X174697D02*
X173922Y326711D01*
X173289Y326078D01*
X172969Y325303D01*
X174697D01*
Y327031D01*
D02*
G37*
G36*
X177425Y324303D02*
X175697D01*
Y322575D01*
X176471Y322896D01*
X177104Y323529D01*
X177425Y324303D01*
D02*
G37*
G36*
X174697D02*
X172969D01*
X173289Y323529D01*
X173922Y322896D01*
X174697Y322575D01*
Y324303D01*
D02*
G37*
G36*
X175697Y317189D02*
Y315461D01*
X177425D01*
X177104Y316235D01*
X176471Y316868D01*
X175697Y317189D01*
D02*
G37*
G36*
X174697D02*
X173922Y316868D01*
X173289Y316235D01*
X172969Y315461D01*
X174697D01*
Y317189D01*
D02*
G37*
G36*
X177425Y314461D02*
X175697D01*
Y312732D01*
X176471Y313053D01*
X177104Y313686D01*
X177425Y314461D01*
D02*
G37*
G36*
X174697D02*
X172969D01*
X173289Y313686D01*
X173922Y313053D01*
X174697Y312732D01*
Y314461D01*
D02*
G37*
G36*
X175819Y301589D02*
X174575D01*
X173355Y301346D01*
X172206Y300870D01*
X171172Y300180D01*
X170293Y299300D01*
X169602Y298266D01*
X169126Y297117D01*
X168884Y295897D01*
Y294654D01*
X169126Y293434D01*
X169602Y292285D01*
X170293Y291251D01*
X171172Y290372D01*
X172206Y289681D01*
X173355Y289205D01*
X174575Y288962D01*
X175819D01*
X177038Y289205D01*
X178187Y289681D01*
X179221Y290372D01*
X180101Y291251D01*
X180792Y292285D01*
X181268Y293434D01*
X181510Y294654D01*
Y295897D01*
X181268Y297117D01*
X180792Y298266D01*
X180101Y299300D01*
X179221Y300180D01*
X178187Y300870D01*
X177038Y301346D01*
X175819Y301589D01*
D02*
G37*
G36*
X175697Y276835D02*
Y275106D01*
X177425D01*
X177104Y275881D01*
X176471Y276514D01*
X175697Y276835D01*
D02*
G37*
G36*
X174697D02*
X173922Y276514D01*
X173289Y275881D01*
X172969Y275106D01*
X174697D01*
Y276835D01*
D02*
G37*
G36*
X177425Y274106D02*
X175697D01*
Y272378D01*
X176471Y272699D01*
X177104Y273332D01*
X177425Y274106D01*
D02*
G37*
G36*
X174697D02*
X172969D01*
X173289Y273332D01*
X173922Y272699D01*
X174697Y272378D01*
Y274106D01*
D02*
G37*
G36*
X175697Y267976D02*
Y266248D01*
X177425D01*
X177104Y267023D01*
X176471Y267655D01*
X175697Y267976D01*
D02*
G37*
G36*
X174697D02*
X173922Y267655D01*
X173289Y267023D01*
X172969Y266248D01*
X174697D01*
Y267976D01*
D02*
G37*
G36*
X177425Y265248D02*
X175697D01*
Y263520D01*
X176471Y263841D01*
X177104Y264474D01*
X177425Y265248D01*
D02*
G37*
G36*
X174697D02*
X172969D01*
X173289Y264474D01*
X173922Y263841D01*
X174697Y263520D01*
Y265248D01*
D02*
G37*
G36*
X175697Y258134D02*
Y256405D01*
X177425D01*
X177104Y257180D01*
X176471Y257813D01*
X175697Y258134D01*
D02*
G37*
G36*
X174697D02*
X173922Y257813D01*
X173289Y257180D01*
X172969Y256405D01*
X174697D01*
Y258134D01*
D02*
G37*
G36*
X177425Y255405D02*
X175697D01*
Y253677D01*
X176471Y253998D01*
X177104Y254631D01*
X177425Y255405D01*
D02*
G37*
G36*
X174697D02*
X172969D01*
X173289Y254631D01*
X173922Y253998D01*
X174697Y253677D01*
Y255405D01*
D02*
G37*
G36*
X157036Y250054D02*
X156917D01*
Y245854D01*
X161117D01*
Y245973D01*
X160797Y247168D01*
X160178Y248240D01*
X159303Y249115D01*
X158231Y249734D01*
X157036Y250054D01*
D02*
G37*
G36*
X155917D02*
X155799D01*
X154603Y249734D01*
X153531Y249115D01*
X152656Y248240D01*
X152038Y247168D01*
X151717Y245973D01*
Y245854D01*
X155917D01*
Y250054D01*
D02*
G37*
G36*
X161117Y244854D02*
X156917D01*
Y240654D01*
X157036D01*
X158231Y240975D01*
X159303Y241593D01*
X160178Y242469D01*
X160797Y243540D01*
X161117Y244736D01*
Y244854D01*
D02*
G37*
G36*
X155917D02*
X151717D01*
Y244736D01*
X152038Y243540D01*
X152656Y242469D01*
X153531Y241593D01*
X154603Y240975D01*
X155799Y240654D01*
X155917D01*
Y244854D01*
D02*
G37*
G36*
X157036Y240054D02*
X156917D01*
Y235854D01*
X161117D01*
Y235973D01*
X160797Y237169D01*
X160178Y238240D01*
X159303Y239115D01*
X158231Y239734D01*
X157036Y240054D01*
D02*
G37*
G36*
X155917D02*
X155799D01*
X154603Y239734D01*
X153531Y239115D01*
X152656Y238240D01*
X152038Y237169D01*
X151717Y235973D01*
Y235854D01*
X155917D01*
Y240054D01*
D02*
G37*
G36*
X173932Y238400D02*
X167407D01*
Y235679D01*
X166614D01*
X166431Y235863D01*
X165732Y236152D01*
X164976D01*
X164278Y235863D01*
X163744Y235328D01*
X163454Y234630D01*
Y233874D01*
X163744Y233176D01*
X164278Y232641D01*
X164976Y232352D01*
X165732D01*
X166431Y232641D01*
X166614Y232824D01*
X167407D01*
Y230104D01*
X173932D01*
Y238400D01*
D02*
G37*
G36*
X161117Y234854D02*
X156917D01*
Y230654D01*
X157036D01*
X158231Y230975D01*
X159303Y231593D01*
X160178Y232469D01*
X160797Y233540D01*
X161117Y234736D01*
Y234854D01*
D02*
G37*
G36*
X155917D02*
X151717D01*
Y234736D01*
X152038Y233540D01*
X152656Y232469D01*
X153531Y231593D01*
X154603Y230975D01*
X155799Y230654D01*
X155917D01*
Y234854D01*
D02*
G37*
G36*
X174031Y226059D02*
X172301D01*
Y223925D01*
X174031D01*
Y226059D01*
D02*
G37*
G36*
X171301D02*
X169571D01*
Y223925D01*
X171301D01*
Y226059D01*
D02*
G37*
G36*
X174031Y222925D02*
X172301D01*
Y220791D01*
X174031D01*
Y222925D01*
D02*
G37*
G36*
X171301D02*
X169571D01*
Y220791D01*
X171301D01*
Y222925D01*
D02*
G37*
G36*
X171760Y218321D02*
Y215067D01*
X175014D01*
X174760Y216017D01*
X174265Y216873D01*
X173566Y217572D01*
X172710Y218067D01*
X171760Y218321D01*
D02*
G37*
G36*
X170760D02*
X169810Y218067D01*
X168954Y217572D01*
X168254Y216873D01*
X167760Y216017D01*
X167505Y215067D01*
X170760D01*
Y218321D01*
D02*
G37*
G36*
X145276Y216417D02*
X144102D01*
Y214693D01*
X147400D01*
X147330Y215044D01*
X146848Y215765D01*
X146127Y216248D01*
X145276Y216417D01*
D02*
G37*
G36*
X143102D02*
X141929D01*
X141078Y216248D01*
X140357Y215765D01*
X139875Y215044D01*
X139805Y214693D01*
X143102D01*
Y216417D01*
D02*
G37*
G36*
X155028Y213842D02*
Y212114D01*
X156756D01*
X156435Y212889D01*
X155802Y213522D01*
X155028Y213842D01*
D02*
G37*
G36*
X154028D02*
X153253Y213522D01*
X152620Y212889D01*
X152299Y212114D01*
X154028D01*
Y213842D01*
D02*
G37*
G36*
X147400Y213693D02*
X144102D01*
Y211969D01*
X145276D01*
X146127Y212138D01*
X146848Y212620D01*
X147330Y213342D01*
X147400Y213693D01*
D02*
G37*
G36*
X143102D02*
X139805D01*
X139875Y213342D01*
X140357Y212620D01*
X141078Y212138D01*
X141929Y211969D01*
X143102D01*
Y213693D01*
D02*
G37*
G36*
X184955Y238400D02*
X178431D01*
Y230104D01*
X180164D01*
Y225959D01*
X178431D01*
Y220891D01*
X179730D01*
Y218223D01*
X177604D01*
Y210911D01*
X184916D01*
Y218223D01*
X182789D01*
Y222323D01*
X182691Y222815D01*
Y223796D01*
X182774Y223879D01*
X183106Y224375D01*
X183222Y224961D01*
Y230104D01*
X184955D01*
Y238400D01*
D02*
G37*
G36*
X170760Y214067D02*
X167505D01*
X167760Y213117D01*
X168254Y212261D01*
X168954Y211561D01*
X169810Y211067D01*
X170760Y210812D01*
Y214067D01*
D02*
G37*
G36*
X175014D02*
X171760D01*
Y210812D01*
X172710Y211067D01*
X173566Y211561D01*
X174265Y212261D01*
X174760Y213117D01*
X175014Y214067D01*
D02*
G37*
G36*
X145276Y211417D02*
X144102D01*
Y209693D01*
X147400D01*
X147330Y210044D01*
X146848Y210765D01*
X146127Y211247D01*
X145276Y211417D01*
D02*
G37*
G36*
X143102D02*
X141929D01*
X141078Y211247D01*
X140357Y210765D01*
X139875Y210044D01*
X139805Y209693D01*
X143102D01*
Y211417D01*
D02*
G37*
G36*
X156756Y211114D02*
X155028D01*
Y209386D01*
X155802Y209707D01*
X156435Y210340D01*
X156756Y211114D01*
D02*
G37*
G36*
X154028D02*
X152299D01*
X152620Y210340D01*
X153253Y209707D01*
X154028Y209386D01*
Y211114D01*
D02*
G37*
G36*
X147400Y208693D02*
X144102D01*
Y206969D01*
X145276D01*
X146127Y207138D01*
X146848Y207620D01*
X147330Y208342D01*
X147400Y208693D01*
D02*
G37*
G36*
X143102D02*
X139805D01*
X139875Y208342D01*
X140357Y207620D01*
X141078Y207138D01*
X141929Y206969D01*
X143102D01*
Y208693D01*
D02*
G37*
G36*
X145276Y206417D02*
X144102D01*
Y204693D01*
X147400D01*
X147330Y205044D01*
X146848Y205765D01*
X146127Y206247D01*
X145276Y206417D01*
D02*
G37*
G36*
X143102D02*
X141929D01*
X141078Y206247D01*
X140357Y205765D01*
X139875Y205044D01*
X139805Y204693D01*
X143102D01*
Y206417D01*
D02*
G37*
G36*
X155028Y204000D02*
Y202272D01*
X156756D01*
X156435Y203046D01*
X155802Y203679D01*
X155028Y204000D01*
D02*
G37*
G36*
X154028D02*
X153253Y203679D01*
X152620Y203046D01*
X152299Y202272D01*
X154028D01*
Y204000D01*
D02*
G37*
G36*
X147400Y203693D02*
X144102D01*
Y201969D01*
X145276D01*
X146127Y202138D01*
X146848Y202620D01*
X147330Y203342D01*
X147400Y203693D01*
D02*
G37*
G36*
X143102D02*
X139805D01*
X139875Y203342D01*
X140357Y202620D01*
X141078Y202138D01*
X141929Y201969D01*
X143102D01*
Y203693D01*
D02*
G37*
G36*
X145276Y201417D02*
X144102D01*
Y199693D01*
X147400D01*
X147330Y200044D01*
X146848Y200765D01*
X146127Y201248D01*
X145276Y201417D01*
D02*
G37*
G36*
X143102D02*
X141929D01*
X141078Y201248D01*
X140357Y200765D01*
X139875Y200044D01*
X139805Y199693D01*
X143102D01*
Y201417D01*
D02*
G37*
G36*
X156756Y201272D02*
X155028D01*
Y199543D01*
X155802Y199864D01*
X156435Y200497D01*
X156756Y201272D01*
D02*
G37*
G36*
X154028D02*
X152299D01*
X152620Y200497D01*
X153253Y199864D01*
X154028Y199543D01*
Y201272D01*
D02*
G37*
G36*
X147400Y198693D02*
X144102D01*
Y196969D01*
X145276D01*
X146127Y197138D01*
X146848Y197620D01*
X147330Y198342D01*
X147400Y198693D01*
D02*
G37*
G36*
X143102D02*
X139805D01*
X139875Y198342D01*
X140357Y197620D01*
X141078Y197138D01*
X141929Y196969D01*
X143102D01*
Y198693D01*
D02*
G37*
G36*
X118610Y144945D02*
Y143217D01*
X120338D01*
X120018Y143991D01*
X119385Y144624D01*
X118610Y144945D01*
D02*
G37*
G36*
X117610D02*
X116836Y144624D01*
X116203Y143991D01*
X115882Y143217D01*
X117610D01*
Y144945D01*
D02*
G37*
G36*
X108768D02*
Y143217D01*
X110496D01*
X110175Y143991D01*
X109542Y144624D01*
X108768Y144945D01*
D02*
G37*
G36*
X107768D02*
X106993Y144624D01*
X106360Y143991D01*
X106040Y143217D01*
X107768D01*
Y144945D01*
D02*
G37*
G36*
X120338Y142217D02*
X118610D01*
Y140488D01*
X119385Y140809D01*
X120018Y141442D01*
X120338Y142217D01*
D02*
G37*
G36*
X117610D02*
X115882D01*
X116203Y141442D01*
X116836Y140809D01*
X117610Y140488D01*
Y142217D01*
D02*
G37*
G36*
X110496D02*
X108768D01*
Y140488D01*
X109542Y140809D01*
X110175Y141442D01*
X110496Y142217D01*
D02*
G37*
G36*
X107768D02*
X106040D01*
X106360Y141442D01*
X106993Y140809D01*
X107768Y140488D01*
Y142217D01*
D02*
G37*
G36*
X99819Y143043D02*
X95972D01*
Y139197D01*
X96045D01*
X97150Y139493D01*
X98141Y140065D01*
X98950Y140875D01*
X99523Y141866D01*
X99819Y142971D01*
Y143043D01*
D02*
G37*
G36*
X94972D02*
X91126D01*
Y142971D01*
X91422Y141866D01*
X91994Y140875D01*
X92804Y140065D01*
X93795Y139493D01*
X94900Y139197D01*
X94972D01*
Y143043D01*
D02*
G37*
G36*
X139437Y142061D02*
Y138807D01*
X142691D01*
X142437Y139757D01*
X141943Y140613D01*
X141243Y141313D01*
X140387Y141807D01*
X139437Y142061D01*
D02*
G37*
G36*
X138437Y142061D02*
X137487Y141807D01*
X136631Y141313D01*
X135932Y140613D01*
X135437Y139757D01*
X135183Y138807D01*
X138437D01*
Y142061D01*
D02*
G37*
G36*
X132593Y141963D02*
X125281D01*
Y138085D01*
X122203Y135006D01*
X99719D01*
Y137790D01*
X91226D01*
Y129297D01*
X99719D01*
Y130112D01*
X123216D01*
X124153Y130298D01*
X124946Y130829D01*
X126431Y132313D01*
X126893Y132122D01*
Y71077D01*
X125478D01*
Y62781D01*
X132199D01*
Y71077D01*
X131787D01*
Y134651D01*
X132593D01*
Y141963D01*
D02*
G37*
G36*
X142691Y137807D02*
X139437D01*
Y134553D01*
X140387Y134807D01*
X141243Y135302D01*
X141943Y136001D01*
X142437Y136857D01*
X142691Y137807D01*
D02*
G37*
G36*
X138437D02*
X135183D01*
X135437Y136857D01*
X135932Y136001D01*
X136631Y135302D01*
X137487Y134807D01*
X138437Y134553D01*
Y137807D01*
D02*
G37*
G36*
X177665Y100654D02*
Y98925D01*
X179394D01*
X179073Y99700D01*
X178440Y100333D01*
X177665Y100654D01*
D02*
G37*
G36*
X176665D02*
X175891Y100333D01*
X175258Y99700D01*
X174937Y98925D01*
X176665D01*
Y100654D01*
D02*
G37*
G36*
X167823D02*
Y98925D01*
X169551D01*
X169230Y99700D01*
X168597Y100333D01*
X167823Y100654D01*
D02*
G37*
G36*
X166823D02*
X166048Y100333D01*
X165415Y99700D01*
X165095Y98925D01*
X166823D01*
Y100654D01*
D02*
G37*
G36*
X157980D02*
Y98925D01*
X159709D01*
X159388Y99700D01*
X158755Y100333D01*
X157980Y100654D01*
D02*
G37*
G36*
X156980D02*
X156206Y100333D01*
X155573Y99700D01*
X155252Y98925D01*
X156980D01*
Y100654D01*
D02*
G37*
G36*
X103847D02*
Y98925D01*
X105575D01*
X105254Y99700D01*
X104621Y100333D01*
X103847Y100654D01*
D02*
G37*
G36*
X102847D02*
X102072Y100333D01*
X101439Y99700D01*
X101118Y98925D01*
X102847D01*
Y100654D01*
D02*
G37*
G36*
X94004D02*
Y98925D01*
X95732D01*
X95411Y99700D01*
X94779Y100333D01*
X94004Y100654D01*
D02*
G37*
G36*
X93004D02*
X92229Y100333D01*
X91597Y99700D01*
X91276Y98925D01*
X93004D01*
Y100654D01*
D02*
G37*
G36*
X84161D02*
Y98925D01*
X85890D01*
X85569Y99700D01*
X84936Y100333D01*
X84161Y100654D01*
D02*
G37*
G36*
X83161D02*
X82387Y100333D01*
X81754Y99700D01*
X81433Y98925D01*
X83161D01*
Y100654D01*
D02*
G37*
G36*
X179394Y97925D02*
X177665D01*
Y96197D01*
X178440Y96518D01*
X179073Y97151D01*
X179394Y97925D01*
D02*
G37*
G36*
X176665D02*
X174937D01*
X175258Y97151D01*
X175891Y96518D01*
X176665Y96197D01*
Y97925D01*
D02*
G37*
G36*
X169551D02*
X167823D01*
Y96197D01*
X168597Y96518D01*
X169230Y97151D01*
X169551Y97925D01*
D02*
G37*
G36*
X166823D02*
X165095D01*
X165415Y97151D01*
X166048Y96518D01*
X166823Y96197D01*
Y97925D01*
D02*
G37*
G36*
X159709D02*
X157980D01*
Y96197D01*
X158755Y96518D01*
X159388Y97151D01*
X159709Y97925D01*
D02*
G37*
G36*
X156980D02*
X155252D01*
X155573Y97151D01*
X156206Y96518D01*
X156980Y96197D01*
Y97925D01*
D02*
G37*
G36*
X105575D02*
X103847D01*
Y96197D01*
X104621Y96518D01*
X105254Y97151D01*
X105575Y97925D01*
D02*
G37*
G36*
X102847D02*
X101118D01*
X101439Y97151D01*
X102072Y96518D01*
X102847Y96197D01*
Y97925D01*
D02*
G37*
G36*
X95732D02*
X94004D01*
Y96197D01*
X94779Y96518D01*
X95411Y97151D01*
X95732Y97925D01*
D02*
G37*
G36*
X93004D02*
X91276D01*
X91597Y97151D01*
X92229Y96518D01*
X93004Y96197D01*
Y97925D01*
D02*
G37*
G36*
X85890D02*
X84161D01*
Y96197D01*
X84936Y96518D01*
X85569Y97151D01*
X85890Y97925D01*
D02*
G37*
G36*
X83161D02*
X81433D01*
X81754Y97151D01*
X82387Y96518D01*
X83161Y96197D01*
Y97925D01*
D02*
G37*
G36*
X68756Y73303D02*
X64713D01*
Y70382D01*
X68756D01*
Y73303D01*
D02*
G37*
G36*
X153362Y69701D02*
X151287D01*
Y67429D01*
X153362D01*
Y69701D01*
D02*
G37*
G36*
X150287D02*
X148213D01*
Y67429D01*
X150287D01*
Y69701D01*
D02*
G37*
G36*
X101787Y72850D02*
X97941D01*
Y67429D01*
X101787D01*
Y72850D01*
D02*
G37*
G36*
X96941D02*
X93094D01*
Y67429D01*
X96941D01*
Y72850D01*
D02*
G37*
G36*
X68756Y69382D02*
X64713D01*
Y66461D01*
X68756D01*
Y69382D01*
D02*
G37*
G36*
X86236Y67339D02*
X82193D01*
Y64280D01*
X86236D01*
Y67339D01*
D02*
G37*
G36*
X81193D02*
X77150D01*
Y64280D01*
X81193D01*
Y67339D01*
D02*
G37*
G36*
X162779Y72766D02*
X162024D01*
X161325Y72477D01*
X160791Y71942D01*
X160597Y71474D01*
X158724Y69601D01*
X155793D01*
Y64258D01*
X160742D01*
Y67582D01*
X162127Y68966D01*
X162779D01*
X163478Y69255D01*
X164012Y69790D01*
X164302Y70488D01*
Y71244D01*
X164012Y71942D01*
X163478Y72477D01*
X162779Y72766D01*
D02*
G37*
G36*
X153362Y66429D02*
X151287D01*
Y64157D01*
X153362D01*
Y66429D01*
D02*
G37*
G36*
X150287D02*
X148213D01*
Y64157D01*
X150287D01*
Y66429D01*
D02*
G37*
G36*
X101787D02*
X97941D01*
Y61008D01*
X101787D01*
Y66429D01*
D02*
G37*
G36*
X96941D02*
X93094D01*
Y61008D01*
X96941D01*
Y66429D01*
D02*
G37*
G36*
X86236Y63279D02*
X82193D01*
Y60220D01*
X86236D01*
Y63279D01*
D02*
G37*
G36*
X81193D02*
X77150D01*
Y60220D01*
X81193D01*
Y63279D01*
D02*
G37*
G36*
X175819Y65368D02*
X174575D01*
X173355Y65126D01*
X172206Y64650D01*
X171172Y63959D01*
X170293Y63080D01*
X169602Y62046D01*
X169126Y60897D01*
X168884Y59677D01*
Y58433D01*
X169126Y57214D01*
X169602Y56065D01*
X170293Y55031D01*
X171172Y54151D01*
X172206Y53460D01*
X173355Y52984D01*
X174575Y52742D01*
X175819D01*
X177038Y52984D01*
X178187Y53460D01*
X179221Y54151D01*
X180101Y55031D01*
X180792Y56065D01*
X181268Y57214D01*
X181510Y58433D01*
Y59677D01*
X181268Y60897D01*
X180792Y62046D01*
X180101Y63080D01*
X179221Y63959D01*
X178187Y64650D01*
X177038Y65126D01*
X175819Y65368D01*
D02*
G37*
G36*
X34933Y48047D02*
X30890D01*
Y44988D01*
X34933D01*
Y48047D01*
D02*
G37*
G36*
X118616Y71077D02*
X111895D01*
Y62781D01*
X112809D01*
Y56004D01*
X112995Y55067D01*
X113526Y54274D01*
X114946Y52853D01*
Y44868D01*
X129148D01*
Y56313D01*
X118407D01*
X117703Y57017D01*
Y62781D01*
X118616D01*
Y71077D01*
D02*
G37*
G36*
X39976Y43988D02*
X35933D01*
Y40929D01*
X39976D01*
Y43988D01*
D02*
G37*
G36*
X34933D02*
X30890D01*
Y40929D01*
X34933D01*
Y43988D01*
D02*
G37*
G36*
X34949Y31756D02*
Y30028D01*
X36677D01*
X36356Y30802D01*
X35723Y31435D01*
X34949Y31756D01*
D02*
G37*
G36*
X33949D02*
X33174Y31435D01*
X32541Y30802D01*
X32221Y30028D01*
X33949D01*
Y31756D01*
D02*
G37*
G36*
X72315Y40764D02*
X59413D01*
Y28256D01*
X72315D01*
Y40764D01*
D02*
G37*
G36*
X58413D02*
X45512D01*
Y28256D01*
X58413D01*
Y40764D01*
D02*
G37*
G36*
X36677Y29028D02*
X34949D01*
Y27299D01*
X35723Y27620D01*
X36356Y28253D01*
X36677Y29028D01*
D02*
G37*
G36*
X33949D02*
X32221D01*
X32541Y28253D01*
X33174Y27620D01*
X33949Y27299D01*
Y29028D01*
D02*
G37*
G36*
X157002Y61727D02*
X152053D01*
Y56384D01*
X153202D01*
Y52559D01*
X153303Y52052D01*
X153590Y51622D01*
X177701Y27511D01*
X177539Y27230D01*
X177250Y26150D01*
Y25032D01*
X177539Y23952D01*
X178098Y22983D01*
X178889Y22193D01*
X179857Y21633D01*
X180937Y21344D01*
X182055D01*
X183135Y21633D01*
X184103Y22193D01*
X184894Y22983D01*
X185453Y23952D01*
X185742Y25032D01*
Y26150D01*
X185453Y27230D01*
X184894Y28198D01*
X184103Y28989D01*
X183135Y29548D01*
X182055Y29837D01*
X180937D01*
X179857Y29548D01*
X179576Y29385D01*
X155853Y53108D01*
Y56384D01*
X157002D01*
Y61727D01*
D02*
G37*
G36*
X34949Y21913D02*
Y20185D01*
X36677D01*
X36356Y20960D01*
X35723Y21592D01*
X34949Y21913D01*
D02*
G37*
G36*
X33949D02*
X33174Y21592D01*
X32541Y20960D01*
X32221Y20185D01*
X33949D01*
Y21913D01*
D02*
G37*
G36*
X36677Y19185D02*
X34949D01*
Y17457D01*
X35723Y17778D01*
X36356Y18410D01*
X36677Y19185D01*
D02*
G37*
G36*
X33949D02*
X32221D01*
X32541Y18410D01*
X33174Y17778D01*
X33949Y17457D01*
Y19185D01*
D02*
G37*
G36*
X177665Y16992D02*
Y15264D01*
X179394D01*
X179073Y16038D01*
X178440Y16671D01*
X177665Y16992D01*
D02*
G37*
G36*
X176665D02*
X175891Y16671D01*
X175258Y16038D01*
X174937Y15264D01*
X176665D01*
Y16992D01*
D02*
G37*
G36*
X162902D02*
Y15264D01*
X164630D01*
X164309Y16038D01*
X163676Y16671D01*
X162902Y16992D01*
D02*
G37*
G36*
X161902D02*
X161127Y16671D01*
X160494Y16038D01*
X160173Y15264D01*
X161902D01*
Y16992D01*
D02*
G37*
G36*
X72315Y27256D02*
X59413D01*
Y14748D01*
X72315D01*
Y27256D01*
D02*
G37*
G36*
X58413D02*
X45512D01*
Y14748D01*
X58413D01*
Y27256D01*
D02*
G37*
G36*
X94701Y18201D02*
X91051D01*
Y12779D01*
X94701D01*
Y18201D01*
D02*
G37*
G36*
X90051D02*
X86402D01*
Y12779D01*
X90051D01*
Y18201D01*
D02*
G37*
G36*
X179394Y14264D02*
X177665D01*
Y12536D01*
X178440Y12856D01*
X179073Y13489D01*
X179394Y14264D01*
D02*
G37*
G36*
X176665D02*
X174937D01*
X175258Y13489D01*
X175891Y12856D01*
X176665Y12536D01*
Y14264D01*
D02*
G37*
G36*
X164630D02*
X162902D01*
Y12536D01*
X163676Y12856D01*
X164309Y13489D01*
X164630Y14264D01*
D02*
G37*
G36*
X161902D02*
X160173D01*
X160494Y13489D01*
X161127Y12856D01*
X161902Y12536D01*
Y14264D01*
D02*
G37*
G36*
X152134Y29837D02*
X151016D01*
X149936Y29548D01*
X148967Y28989D01*
X148177Y28198D01*
X147618Y27230D01*
X147328Y26150D01*
Y25032D01*
X147618Y23952D01*
X148177Y22983D01*
X148967Y22193D01*
X149936Y21633D01*
X150002Y21616D01*
X150102Y21071D01*
X139215Y10184D01*
X135742D01*
Y13006D01*
X129218D01*
Y4710D01*
X135742D01*
Y7533D01*
X139764D01*
X140271Y7634D01*
X140701Y7921D01*
X152512Y19732D01*
X152799Y20162D01*
X152900Y20669D01*
Y21550D01*
X153214Y21633D01*
X154182Y22193D01*
X154973Y22983D01*
X155532Y23952D01*
X155821Y25032D01*
Y26150D01*
X155532Y27230D01*
X154973Y28198D01*
X154182Y28989D01*
X153214Y29548D01*
X152134Y29837D01*
D02*
G37*
G36*
X105575Y4421D02*
X103847D01*
Y2693D01*
X104621Y3014D01*
X105254Y3647D01*
X105575Y4421D01*
D02*
G37*
G36*
X102847D02*
X101118D01*
X101439Y3647D01*
X102072Y3014D01*
X102847Y2693D01*
Y4421D01*
D02*
G37*
G36*
X85890D02*
X84161D01*
Y2693D01*
X84936Y3014D01*
X85569Y3647D01*
X85890Y4421D01*
D02*
G37*
G36*
X83161D02*
X81433D01*
X81754Y3647D01*
X82387Y3014D01*
X83161Y2693D01*
Y4421D01*
D02*
G37*
G36*
X66205D02*
X64476D01*
Y2693D01*
X65251Y3014D01*
X65884Y3647D01*
X66205Y4421D01*
D02*
G37*
G36*
X63476D02*
X61748D01*
X62069Y3647D01*
X62702Y3014D01*
X63476Y2693D01*
Y4421D01*
D02*
G37*
G36*
X84161Y269945D02*
Y268216D01*
X85890D01*
X85569Y268991D01*
X84936Y269624D01*
X84161Y269945D01*
D02*
G37*
G36*
X83161D02*
X82387Y269624D01*
X81754Y268991D01*
X81433Y268216D01*
X83161D01*
Y269945D01*
D02*
G37*
G36*
X85890Y267216D02*
X84161D01*
Y265488D01*
X84936Y265809D01*
X85569Y266442D01*
X85890Y267216D01*
D02*
G37*
G36*
X83161D02*
X81433D01*
X81754Y266442D01*
X82387Y265809D01*
X83161Y265488D01*
Y267216D01*
D02*
G37*
G36*
X91051Y263055D02*
Y261327D01*
X92779D01*
X92459Y262101D01*
X91826Y262734D01*
X91051Y263055D01*
D02*
G37*
G36*
X90051D02*
X89277Y262734D01*
X88644Y262101D01*
X88323Y261327D01*
X90051D01*
Y263055D01*
D02*
G37*
G36*
X77272D02*
Y261327D01*
X79000D01*
X78679Y262101D01*
X78046Y262734D01*
X77272Y263055D01*
D02*
G37*
G36*
X76272D02*
X75497Y262734D01*
X74864Y262101D01*
X74543Y261327D01*
X76272D01*
Y263055D01*
D02*
G37*
G36*
X92779Y260327D02*
X91051D01*
Y258598D01*
X91826Y258919D01*
X92459Y259552D01*
X92779Y260327D01*
D02*
G37*
G36*
X90051D02*
X88323D01*
X88644Y259552D01*
X89277Y258919D01*
X90051Y258598D01*
Y260327D01*
D02*
G37*
G36*
X79000D02*
X77272D01*
Y258598D01*
X78046Y258919D01*
X78679Y259552D01*
X79000Y260327D01*
D02*
G37*
G36*
X76272D02*
X74543D01*
X74864Y259552D01*
X75497Y258919D01*
X76272Y258598D01*
Y260327D01*
D02*
G37*
G36*
X84161Y256165D02*
Y254437D01*
X85890D01*
X85569Y255211D01*
X84936Y255844D01*
X84161Y256165D01*
D02*
G37*
G36*
X83161D02*
X82387Y255844D01*
X81754Y255211D01*
X81433Y254437D01*
X83161D01*
Y256165D01*
D02*
G37*
G36*
X85890Y253437D02*
X84161D01*
Y251709D01*
X84936Y252030D01*
X85569Y252662D01*
X85890Y253437D01*
D02*
G37*
G36*
X83161D02*
X81433D01*
X81754Y252662D01*
X82387Y252030D01*
X83161Y251709D01*
Y253437D01*
D02*
G37*
G36*
X141255Y243438D02*
Y241710D01*
X142984D01*
X142663Y242485D01*
X142030Y243117D01*
X141255Y243438D01*
D02*
G37*
G36*
X140255D02*
X139481Y243117D01*
X138848Y242485D01*
X138527Y241710D01*
X140255D01*
Y243438D01*
D02*
G37*
G36*
X134358Y243370D02*
Y241642D01*
X136086D01*
X135766Y242416D01*
X135133Y243049D01*
X134358Y243370D01*
D02*
G37*
G36*
X133358D02*
X132584Y243049D01*
X131951Y242416D01*
X131630Y241642D01*
X133358D01*
Y243370D01*
D02*
G37*
G36*
X142984Y240710D02*
X141255D01*
Y238982D01*
X142030Y239303D01*
X142663Y239935D01*
X142984Y240710D01*
D02*
G37*
G36*
X140255D02*
X138527D01*
X138848Y239935D01*
X139481Y239303D01*
X140255Y238982D01*
Y240710D01*
D02*
G37*
G36*
X136086Y240642D02*
X134358D01*
Y238913D01*
X135133Y239234D01*
X135766Y239867D01*
X136086Y240642D01*
D02*
G37*
G36*
X133358D02*
X131630D01*
X131951Y239867D01*
X132584Y239234D01*
X133358Y238913D01*
Y240642D01*
D02*
G37*
G36*
X137036Y235054D02*
X136917D01*
Y230854D01*
X141117D01*
Y230973D01*
X140797Y232169D01*
X140178Y233240D01*
X139303Y234115D01*
X138231Y234734D01*
X137036Y235054D01*
D02*
G37*
G36*
X135917D02*
X135799D01*
X134603Y234734D01*
X133531Y234115D01*
X132656Y233240D01*
X132038Y232169D01*
X131717Y230973D01*
Y230854D01*
X135917D01*
Y235054D01*
D02*
G37*
G36*
X141117Y229854D02*
X136917D01*
Y225654D01*
X137036D01*
X138231Y225975D01*
X139303Y226593D01*
X140178Y227468D01*
X140797Y228540D01*
X141117Y229736D01*
Y229854D01*
D02*
G37*
G36*
X135917D02*
X131717D01*
Y229736D01*
X132038Y228540D01*
X132656Y227468D01*
X133531Y226593D01*
X134603Y225975D01*
X135799Y225654D01*
X135917D01*
Y229854D01*
D02*
G37*
G36*
X90067Y223685D02*
Y221957D01*
X91795D01*
X91474Y222731D01*
X90841Y223364D01*
X90067Y223685D01*
D02*
G37*
G36*
X89067D02*
X88292Y223364D01*
X87660Y222731D01*
X87339Y221957D01*
X89067D01*
Y223685D01*
D02*
G37*
G36*
X83177D02*
Y221957D01*
X84905D01*
X84585Y222731D01*
X83952Y223364D01*
X83177Y223685D01*
D02*
G37*
G36*
X82177D02*
X81403Y223364D01*
X80770Y222731D01*
X80449Y221957D01*
X82177D01*
Y223685D01*
D02*
G37*
G36*
X91795Y220957D02*
X90067D01*
Y219228D01*
X90841Y219549D01*
X91474Y220182D01*
X91795Y220957D01*
D02*
G37*
G36*
X89067D02*
X87339D01*
X87660Y220182D01*
X88292Y219549D01*
X89067Y219228D01*
Y220957D01*
D02*
G37*
G36*
X84905D02*
X83177D01*
Y219228D01*
X83952Y219549D01*
X84585Y220182D01*
X84905Y220957D01*
D02*
G37*
G36*
X82177D02*
X80449D01*
X80770Y220182D01*
X81403Y219549D01*
X82177Y219228D01*
Y220957D01*
D02*
G37*
G36*
X123819Y206417D02*
X122646D01*
Y204693D01*
X125943D01*
X125873Y205044D01*
X125391Y205765D01*
X124670Y206247D01*
X123819Y206417D01*
D02*
G37*
G36*
X121646D02*
X120473D01*
X119621Y206247D01*
X118900Y205765D01*
X118418Y205044D01*
X118348Y204693D01*
X121646D01*
Y206417D01*
D02*
G37*
G36*
X125943Y203693D02*
X122646D01*
Y201969D01*
X123819D01*
X124670Y202138D01*
X125391Y202620D01*
X125873Y203342D01*
X125943Y203693D01*
D02*
G37*
G36*
X121646D02*
X118348D01*
X118418Y203342D01*
X118900Y202620D01*
X119621Y202138D01*
X120473Y201969D01*
X121646D01*
Y203693D01*
D02*
G37*
G36*
X113689Y199079D02*
Y197350D01*
X115417D01*
X115096Y198125D01*
X114463Y198758D01*
X113689Y199079D01*
D02*
G37*
G36*
X112689D02*
X111915Y198758D01*
X111282Y198125D01*
X110961Y197350D01*
X112689D01*
Y199079D01*
D02*
G37*
G36*
X115417Y196350D02*
X113689D01*
Y194622D01*
X114463Y194943D01*
X115096Y195576D01*
X115417Y196350D01*
D02*
G37*
G36*
X112689D02*
X110961D01*
X111282Y195576D01*
X111915Y194943D01*
X112689Y194622D01*
Y196350D01*
D02*
G37*
G36*
X85152Y208774D02*
X76265D01*
Y202643D01*
X79383D01*
Y199196D01*
X79098Y198911D01*
X78809Y198213D01*
Y197457D01*
X79098Y196758D01*
X79632Y196224D01*
X80331Y195935D01*
X81087D01*
X81785Y196224D01*
X82319Y196758D01*
X82609Y197457D01*
Y198213D01*
X82319Y198911D01*
X82034Y199196D01*
Y202643D01*
X85152D01*
Y208774D01*
D02*
G37*
G36*
X86130Y195142D02*
Y193413D01*
X87858D01*
X87537Y194188D01*
X86904Y194821D01*
X86130Y195142D01*
D02*
G37*
G36*
X85130D02*
X84355Y194821D01*
X83723Y194188D01*
X83402Y193413D01*
X85130D01*
Y195142D01*
D02*
G37*
G36*
X68413D02*
Y193413D01*
X70142D01*
X69821Y194188D01*
X69188Y194821D01*
X68413Y195142D01*
D02*
G37*
G36*
X67413D02*
X66639Y194821D01*
X66006Y194188D01*
X65685Y193413D01*
X67413D01*
Y195142D01*
D02*
G37*
G36*
X87858Y192413D02*
X86130D01*
Y190685D01*
X86904Y191006D01*
X87537Y191639D01*
X87858Y192413D01*
D02*
G37*
G36*
X85130D02*
X83402D01*
X83723Y191639D01*
X84355Y191006D01*
X85130Y190685D01*
Y192413D01*
D02*
G37*
G36*
X70142D02*
X65685D01*
X66006Y191639D01*
X66639Y191006D01*
X67368Y190704D01*
Y190201D01*
X66639Y189900D01*
X66006Y189267D01*
X65685Y188492D01*
X70142D01*
X69821Y189267D01*
X69188Y189900D01*
X68459Y190201D01*
Y190704D01*
X69188Y191006D01*
X69821Y191639D01*
X70142Y192413D01*
D02*
G37*
G36*
Y187492D02*
X65685D01*
X66006Y186718D01*
X66639Y186085D01*
X67368Y185783D01*
Y185280D01*
X66639Y184978D01*
X66006Y184345D01*
X65685Y183571D01*
X70142D01*
X69821Y184345D01*
X69188Y184978D01*
X68459Y185280D01*
Y185783D01*
X69188Y186085D01*
X69821Y186718D01*
X70142Y187492D01*
D02*
G37*
G36*
Y182571D02*
X68413D01*
Y180843D01*
X69188Y181163D01*
X69821Y181796D01*
X70142Y182571D01*
D02*
G37*
G36*
X67413D02*
X65685D01*
X66006Y181796D01*
X66639Y181163D01*
X67413Y180843D01*
Y182571D01*
D02*
G37*
G36*
X149122Y182346D02*
Y180618D01*
X150850D01*
X150530Y181393D01*
X149897Y182026D01*
X149122Y182346D01*
D02*
G37*
G36*
X148122D02*
X147347Y182026D01*
X146715Y181393D01*
X146394Y180618D01*
X148122D01*
Y182346D01*
D02*
G37*
G36*
X138295D02*
Y180618D01*
X140024D01*
X139703Y181393D01*
X139070Y182026D01*
X138295Y182346D01*
D02*
G37*
G36*
X137295D02*
X136521Y182026D01*
X135888Y181393D01*
X135567Y180618D01*
X137295D01*
Y182346D01*
D02*
G37*
G36*
X118610D02*
Y180618D01*
X120338D01*
X120018Y181393D01*
X119385Y182026D01*
X118610Y182346D01*
D02*
G37*
G36*
X117610D02*
X116836Y182026D01*
X116203Y181393D01*
X115882Y180618D01*
X117610D01*
Y182346D01*
D02*
G37*
G36*
X108768D02*
Y180618D01*
X110496D01*
X110175Y181393D01*
X109542Y182026D01*
X108768Y182346D01*
D02*
G37*
G36*
X107768D02*
X106993Y182026D01*
X106360Y181393D01*
X106040Y180618D01*
X107768D01*
Y182346D01*
D02*
G37*
G36*
X150850Y179618D02*
X149122D01*
Y177890D01*
X149897Y178211D01*
X150530Y178844D01*
X150850Y179618D01*
D02*
G37*
G36*
X148122D02*
X146394D01*
X146715Y178844D01*
X147347Y178211D01*
X148122Y177890D01*
Y179618D01*
D02*
G37*
G36*
X140024D02*
X138295D01*
Y177890D01*
X139070Y178211D01*
X139703Y178844D01*
X140024Y179618D01*
D02*
G37*
G36*
X137295D02*
X135567D01*
X135888Y178844D01*
X136521Y178211D01*
X137295Y177890D01*
Y179618D01*
D02*
G37*
G36*
X120338D02*
X118610D01*
Y177890D01*
X119385Y178211D01*
X120018Y178844D01*
X120338Y179618D01*
D02*
G37*
G36*
X117610D02*
X115882D01*
X116203Y178844D01*
X116836Y178211D01*
X117610Y177890D01*
Y179618D01*
D02*
G37*
G36*
X110496D02*
X108768D01*
Y177890D01*
X109542Y178211D01*
X110175Y178844D01*
X110496Y179618D01*
D02*
G37*
G36*
X107768D02*
X106040D01*
X106360Y178844D01*
X106993Y178211D01*
X107768Y177890D01*
Y179618D01*
D02*
G37*
G36*
X184875Y177531D02*
Y175803D01*
X186604D01*
X186283Y176577D01*
X185650Y177210D01*
X184875Y177531D01*
D02*
G37*
G36*
X183875D02*
X183101Y177210D01*
X182468Y176577D01*
X182147Y175803D01*
X183875D01*
Y177531D01*
D02*
G37*
G36*
X96045Y177890D02*
X95972D01*
Y174043D01*
X99819D01*
Y174116D01*
X99523Y175221D01*
X98950Y176212D01*
X98141Y177021D01*
X97150Y177594D01*
X96045Y177890D01*
D02*
G37*
G36*
X94972D02*
X94900D01*
X93795Y177594D01*
X92804Y177021D01*
X91994Y176212D01*
X91422Y175221D01*
X91126Y174116D01*
Y174043D01*
X94972D01*
Y177890D01*
D02*
G37*
G36*
X186604Y174803D02*
X184875D01*
Y173075D01*
X185650Y173395D01*
X186283Y174028D01*
X186604Y174803D01*
D02*
G37*
G36*
X183875D02*
X182147D01*
X182468Y174028D01*
X183101Y173395D01*
X183875Y173075D01*
Y174803D01*
D02*
G37*
G36*
X99819Y173043D02*
X95972D01*
Y169197D01*
X96045D01*
X97150Y169493D01*
X98141Y170065D01*
X98950Y170875D01*
X99523Y171866D01*
X99819Y172971D01*
Y173043D01*
D02*
G37*
G36*
X94972D02*
X91126D01*
Y172971D01*
X91422Y171866D01*
X91994Y170875D01*
X92804Y170065D01*
X93795Y169493D01*
X94900Y169197D01*
X94972D01*
Y173043D01*
D02*
G37*
G36*
X139437Y172062D02*
Y168807D01*
X142691D01*
X142437Y169757D01*
X141943Y170613D01*
X141243Y171313D01*
X140387Y171807D01*
X139437Y172062D01*
D02*
G37*
G36*
X138437Y172062D02*
X137487Y171807D01*
X136631Y171313D01*
X135932Y170613D01*
X135437Y169757D01*
X135183Y168807D01*
X138437D01*
Y172062D01*
D02*
G37*
G36*
X171741Y188223D02*
X170779D01*
X169849Y187974D01*
X169015Y187492D01*
X168334Y186812D01*
X167853Y185978D01*
X167604Y185048D01*
Y184549D01*
X157184Y174128D01*
X152348D01*
Y167604D01*
X160644D01*
Y170668D01*
X170887Y180911D01*
X171741D01*
X172671Y181160D01*
X173505Y181641D01*
X174185Y182322D01*
X174667Y183156D01*
X174916Y184086D01*
Y185048D01*
X174667Y185978D01*
X174185Y186812D01*
X173505Y187492D01*
X172671Y187974D01*
X171741Y188223D01*
D02*
G37*
G36*
X129418Y171963D02*
X128456D01*
X127526Y171714D01*
X126692Y171232D01*
X126214Y170754D01*
X101235D01*
X100299Y170568D01*
X99505Y170037D01*
X96999Y167531D01*
X96031Y167790D01*
X94913D01*
X93833Y167500D01*
X92865Y166941D01*
X92074Y166151D01*
X91515Y165182D01*
X91226Y164102D01*
Y162984D01*
X91515Y161904D01*
X92074Y160936D01*
X92865Y160145D01*
X93833Y159586D01*
X94913Y159297D01*
X96031D01*
X97111Y159586D01*
X98080Y160145D01*
X98870Y160936D01*
X99430Y161904D01*
X99719Y162984D01*
Y163330D01*
X102249Y165860D01*
X126214D01*
X126692Y165382D01*
X127526Y164900D01*
X128456Y164651D01*
X129132D01*
X135671Y158112D01*
X136465Y157582D01*
X137402Y157396D01*
X152348D01*
Y156580D01*
X154049D01*
Y142928D01*
X151364D01*
Y128726D01*
X162809D01*
Y142928D01*
X158943D01*
Y156580D01*
X160644D01*
Y163105D01*
X152348D01*
Y162290D01*
X138415D01*
X132593Y168112D01*
Y168788D01*
X132344Y169718D01*
X131862Y170552D01*
X131182Y171232D01*
X130348Y171714D01*
X129418Y171963D01*
D02*
G37*
G36*
X181741Y188223D02*
X180779D01*
X179849Y187974D01*
X179015Y187492D01*
X178334Y186812D01*
X177853Y185978D01*
X177604Y185048D01*
Y184086D01*
X177853Y183156D01*
X178275Y182425D01*
X169979Y174128D01*
X165143D01*
Y167604D01*
X169979D01*
X170219Y167364D01*
X171012Y166834D01*
X171949Y166648D01*
X175789D01*
Y166616D01*
X181416D01*
Y171573D01*
X175789D01*
Y171542D01*
X174966D01*
X174775Y172003D01*
X182510Y179738D01*
X183040Y180532D01*
X183226Y181468D01*
Y181481D01*
X183505Y181641D01*
X184185Y182322D01*
X184667Y183156D01*
X184916Y184086D01*
Y185048D01*
X184667Y185978D01*
X184185Y186812D01*
X183505Y187492D01*
X182671Y187974D01*
X181741Y188223D01*
D02*
G37*
G36*
X142691Y167807D02*
X139437D01*
Y164553D01*
X140387Y164807D01*
X141243Y165302D01*
X141943Y166001D01*
X142437Y166857D01*
X142691Y167807D01*
D02*
G37*
G36*
X138437D02*
X135183D01*
X135437Y166857D01*
X135932Y166001D01*
X136631Y165302D01*
X137487Y164807D01*
X138437Y164553D01*
Y167807D01*
D02*
G37*
G36*
X181516Y164193D02*
X179102D01*
Y162114D01*
X181516D01*
Y164193D01*
D02*
G37*
G36*
X178102D02*
X175689D01*
Y162114D01*
X178102D01*
Y164193D01*
D02*
G37*
G36*
X118610Y162661D02*
Y160933D01*
X120338D01*
X120018Y161708D01*
X119385Y162340D01*
X118610Y162661D01*
D02*
G37*
G36*
X117610D02*
X116836Y162340D01*
X116203Y161708D01*
X115882Y160933D01*
X117610D01*
Y162661D01*
D02*
G37*
G36*
X108768D02*
Y160933D01*
X110496D01*
X110175Y161708D01*
X109542Y162340D01*
X108768Y162661D01*
D02*
G37*
G36*
X107768D02*
X106993Y162340D01*
X106360Y161708D01*
X106040Y160933D01*
X107768D01*
Y162661D01*
D02*
G37*
G36*
X173539Y163205D02*
X169791D01*
Y160343D01*
X173539D01*
Y163205D01*
D02*
G37*
G36*
X168791D02*
X165043D01*
Y160343D01*
X168791D01*
Y163205D01*
D02*
G37*
G36*
X181516Y161114D02*
X179102D01*
Y159035D01*
X181516D01*
Y161114D01*
D02*
G37*
G36*
X178102D02*
X175689D01*
Y159035D01*
X178102D01*
Y161114D01*
D02*
G37*
G36*
X120338Y159933D02*
X118610D01*
Y158205D01*
X119385Y158526D01*
X120018Y159159D01*
X120338Y159933D01*
D02*
G37*
G36*
X117610D02*
X115882D01*
X116203Y159159D01*
X116836Y158526D01*
X117610Y158205D01*
Y159933D01*
D02*
G37*
G36*
X110496D02*
X108768D01*
Y158205D01*
X109542Y158526D01*
X110175Y159159D01*
X110496Y159933D01*
D02*
G37*
G36*
X107768D02*
X106040D01*
X106360Y159159D01*
X106993Y158526D01*
X107768Y158205D01*
Y159933D01*
D02*
G37*
G36*
X173539Y159343D02*
X169791D01*
Y156480D01*
X173539D01*
Y159343D01*
D02*
G37*
G36*
X168791D02*
X165043D01*
Y156480D01*
X168791D01*
Y159343D01*
D02*
G37*
G36*
X177665Y157740D02*
Y156012D01*
X179394D01*
X179073Y156786D01*
X178440Y157419D01*
X177665Y157740D01*
D02*
G37*
G36*
X176665D02*
X175891Y157419D01*
X175258Y156786D01*
X174937Y156012D01*
X176665D01*
Y157740D01*
D02*
G37*
G36*
X179394Y155012D02*
X177665D01*
Y153284D01*
X178440Y153604D01*
X179073Y154237D01*
X179394Y155012D01*
D02*
G37*
G36*
X176665D02*
X174937D01*
X175258Y154237D01*
X175891Y153604D01*
X176665Y153284D01*
Y155012D01*
D02*
G37*
G36*
X96031Y157790D02*
X94913D01*
X93833Y157500D01*
X92865Y156941D01*
X92074Y156151D01*
X91515Y155182D01*
X91226Y154102D01*
Y152984D01*
X91515Y151904D01*
X92074Y150936D01*
X92865Y150145D01*
X93833Y149586D01*
X94913Y149297D01*
X96031D01*
X97111Y149586D01*
X98080Y150145D01*
X98870Y150936D01*
X99430Y151904D01*
X99719Y152984D01*
Y154102D01*
X99430Y155182D01*
X98870Y156151D01*
X98080Y156941D01*
X97111Y157500D01*
X96031Y157790D01*
D02*
G37*
G36*
X188384Y167833D02*
X182757D01*
Y162876D01*
X183124D01*
Y155769D01*
X179766Y152410D01*
X179235Y151617D01*
X179049Y150680D01*
Y143766D01*
X178587Y143574D01*
X173176Y148986D01*
Y149004D01*
X172978Y149741D01*
X172596Y150403D01*
X172056Y150943D01*
X171395Y151324D01*
X170657Y151522D01*
X169894D01*
X169156Y151324D01*
X168495Y150943D01*
X167955Y150403D01*
X167573Y149741D01*
X167376Y149004D01*
Y148240D01*
X167573Y147503D01*
X167955Y146841D01*
X168495Y146301D01*
X169156Y145920D01*
X169381Y145860D01*
X175773Y139467D01*
Y128726D01*
X187219D01*
Y142928D01*
X183943D01*
Y149667D01*
X187301Y153025D01*
X187832Y153819D01*
X188018Y154755D01*
Y162876D01*
X188384D01*
Y167833D01*
D02*
G37*
G36*
X169791Y138055D02*
Y136327D01*
X171520D01*
X171199Y137101D01*
X170566Y137734D01*
X169791Y138055D01*
D02*
G37*
G36*
X168791D02*
X168017Y137734D01*
X167384Y137101D01*
X167063Y136327D01*
X168791D01*
Y138055D01*
D02*
G37*
G36*
X171520Y135327D02*
X169791D01*
Y133598D01*
X170566Y133919D01*
X171199Y134552D01*
X171520Y135327D01*
D02*
G37*
G36*
X168791D02*
X167063D01*
X167384Y134552D01*
X168017Y133919D01*
X168791Y133598D01*
Y135327D01*
D02*
G37*
G36*
X26394Y133480D02*
X23585D01*
Y129687D01*
X26394D01*
Y133480D01*
D02*
G37*
G36*
X22085D02*
X19276D01*
Y129687D01*
X22085D01*
Y133480D01*
D02*
G37*
G36*
X26394Y128187D02*
X23585D01*
Y124394D01*
X26394D01*
Y128187D01*
D02*
G37*
G36*
X22085D02*
X19276D01*
Y124394D01*
X22085D01*
Y128187D01*
D02*
G37*
G36*
X37024Y120291D02*
X29293D01*
Y116104D01*
X37024D01*
Y120291D01*
D02*
G37*
G36*
X27793D02*
X20063D01*
Y116104D01*
X27793D01*
Y120291D01*
D02*
G37*
G36*
X37024Y114604D02*
X29293D01*
Y110417D01*
X37024D01*
Y114604D01*
D02*
G37*
G36*
X27793D02*
X20063D01*
Y110417D01*
X27793D01*
Y114604D01*
D02*
G37*
G36*
X11295Y112299D02*
X8624D01*
Y108506D01*
X11295D01*
Y112299D01*
D02*
G37*
G36*
X7124D02*
X4453D01*
Y108506D01*
X7124D01*
Y112299D01*
D02*
G37*
G36*
X11295Y107006D02*
X8624D01*
Y103213D01*
X11295D01*
Y107006D01*
D02*
G37*
G36*
X7124D02*
X4453D01*
Y103213D01*
X7124D01*
Y107006D01*
D02*
G37*
G36*
X53756Y100213D02*
X49963D01*
Y97404D01*
X53756D01*
Y100213D01*
D02*
G37*
G36*
X48463D02*
X44669D01*
Y97404D01*
X48463D01*
Y100213D01*
D02*
G37*
G36*
X53756Y95903D02*
X49963D01*
Y93094D01*
X53756D01*
Y95903D01*
D02*
G37*
G36*
X48463D02*
X44669D01*
Y93094D01*
X48463D01*
Y95903D01*
D02*
G37*
G36*
X41551Y95488D02*
X38348D01*
Y91301D01*
X41551D01*
Y95488D01*
D02*
G37*
G36*
X36848D02*
X33646D01*
Y91301D01*
X36848D01*
Y95488D01*
D02*
G37*
G36*
X41551Y89801D02*
X38348D01*
Y85614D01*
X41551D01*
Y89801D01*
D02*
G37*
G36*
X36848D02*
X33646D01*
Y85614D01*
X36848D01*
Y89801D01*
D02*
G37*
G36*
X38244Y81177D02*
X34451D01*
Y78506D01*
X38244D01*
Y81177D01*
D02*
G37*
G36*
X32951D02*
X29158D01*
Y78506D01*
X32951D01*
Y81177D01*
D02*
G37*
G36*
X38244Y77006D02*
X34451D01*
Y74335D01*
X38244D01*
Y77006D01*
D02*
G37*
G36*
X32951D02*
X29158D01*
Y74335D01*
X32951D01*
Y77006D01*
D02*
G37*
G36*
X58441Y73303D02*
X54648D01*
Y70632D01*
X58441D01*
Y73303D01*
D02*
G37*
G36*
X53148D02*
X49354D01*
Y70632D01*
X53148D01*
Y73303D01*
D02*
G37*
G36*
X58441Y69132D02*
X54648D01*
Y66461D01*
X58441D01*
Y69132D01*
D02*
G37*
G36*
X53148D02*
X49354D01*
Y66461D01*
X53148D01*
Y69132D01*
D02*
G37*
G36*
X39976Y59465D02*
X36183D01*
Y56656D01*
X39976D01*
Y59465D01*
D02*
G37*
G36*
X34683D02*
X30890D01*
Y56656D01*
X34683D01*
Y59465D01*
D02*
G37*
G36*
X53866Y59661D02*
X50663D01*
Y53900D01*
X53866D01*
Y59661D01*
D02*
G37*
G36*
X49163D02*
X45961D01*
Y53900D01*
X49163D01*
Y59661D01*
D02*
G37*
G36*
X39976Y55155D02*
X36183D01*
Y52346D01*
X39976D01*
Y55155D01*
D02*
G37*
G36*
X34683D02*
X30890D01*
Y52346D01*
X34683D01*
Y55155D01*
D02*
G37*
G36*
X53866Y52400D02*
X50663D01*
Y46638D01*
X53866D01*
Y52400D01*
D02*
G37*
G36*
X49163D02*
X45961D01*
Y46638D01*
X49163D01*
Y52400D01*
D02*
G37*
G36*
X11295Y96941D02*
X8374D01*
Y92898D01*
X11295D01*
Y96941D01*
D02*
G37*
G36*
X7374D02*
X4453D01*
Y92898D01*
X7374D01*
Y96941D01*
D02*
G37*
G36*
X23441Y95488D02*
X19988D01*
Y91051D01*
X23441D01*
Y95488D01*
D02*
G37*
G36*
X18988D02*
X15535D01*
Y91051D01*
X18988D01*
Y95488D01*
D02*
G37*
G36*
X23441Y90051D02*
X19988D01*
Y85614D01*
X23441D01*
Y90051D01*
D02*
G37*
G36*
X18988D02*
X15535D01*
Y85614D01*
X18988D01*
Y90051D01*
D02*
G37*
G36*
X22886Y81177D02*
X18843D01*
Y78256D01*
X22886D01*
Y81177D01*
D02*
G37*
G36*
Y77256D02*
X18843D01*
Y74335D01*
X22886D01*
Y77256D01*
D02*
G37*
G36*
X6406Y71126D02*
Y69398D01*
X8134D01*
X7813Y70172D01*
X7180Y70805D01*
X6406Y71126D01*
D02*
G37*
G36*
X5406D02*
X4631Y70805D01*
X3998Y70172D01*
X3677Y69398D01*
X5406D01*
Y71126D01*
D02*
G37*
G36*
X8134Y68398D02*
X6406D01*
Y66669D01*
X7180Y66990D01*
X7813Y67623D01*
X8134Y68398D01*
D02*
G37*
G36*
X5406D02*
X3677D01*
X3998Y67623D01*
X4631Y66990D01*
X5406Y66669D01*
Y68398D01*
D02*
G37*
G36*
X6406Y61283D02*
Y59555D01*
X8134D01*
X7813Y60330D01*
X7180Y60963D01*
X6406Y61283D01*
D02*
G37*
G36*
X5406D02*
X4631Y60963D01*
X3998Y60330D01*
X3677Y59555D01*
X5406D01*
Y61283D01*
D02*
G37*
G36*
X8134Y58555D02*
X6406D01*
Y56827D01*
X7180Y57148D01*
X7813Y57781D01*
X8134Y58555D01*
D02*
G37*
G36*
X5406D02*
X3677D01*
X3998Y57781D01*
X4631Y57148D01*
X5406Y56827D01*
Y58555D01*
D02*
G37*
G36*
X18338Y65368D02*
X17095D01*
X15875Y65126D01*
X14726Y64650D01*
X13692Y63959D01*
X12813Y63080D01*
X12122Y62046D01*
X11646Y60897D01*
X11403Y59677D01*
Y58433D01*
X11646Y57214D01*
X12122Y56065D01*
X12813Y55031D01*
X13692Y54151D01*
X14726Y53460D01*
X15875Y52984D01*
X17095Y52742D01*
X18338D01*
X19558Y52984D01*
X20707Y53460D01*
X21741Y54151D01*
X22621Y55031D01*
X23311Y56065D01*
X23787Y57214D01*
X24030Y58433D01*
Y59677D01*
X23787Y60897D01*
X23311Y62046D01*
X22621Y63080D01*
X21741Y63959D01*
X20707Y64650D01*
X19558Y65126D01*
X18338Y65368D01*
D02*
G37*
G36*
X6406Y51441D02*
Y49713D01*
X8134D01*
X7813Y50487D01*
X7180Y51120D01*
X6406Y51441D01*
D02*
G37*
G36*
X5406D02*
X4631Y51120D01*
X3998Y50487D01*
X3677Y49713D01*
X5406D01*
Y51441D01*
D02*
G37*
G36*
X8134Y48713D02*
X6406D01*
Y46984D01*
X7180Y47305D01*
X7813Y47938D01*
X8134Y48713D01*
D02*
G37*
G36*
X5406D02*
X3677D01*
X3998Y47938D01*
X4631Y47305D01*
X5406Y46984D01*
Y48713D01*
D02*
G37*
G36*
X71866Y59661D02*
X68913D01*
Y54150D01*
X71866D01*
Y59661D01*
D02*
G37*
G36*
X66913D02*
X63961D01*
Y54150D01*
X66913D01*
Y59661D01*
D02*
G37*
G36*
X86236Y55921D02*
X82693D01*
Y53362D01*
X86236D01*
Y55921D01*
D02*
G37*
G36*
X80693D02*
X77150D01*
Y53362D01*
X80693D01*
Y55921D01*
D02*
G37*
G36*
X101787Y57102D02*
X98441D01*
Y52181D01*
X101787D01*
Y57102D01*
D02*
G37*
G36*
X96441D02*
X93094D01*
Y52181D01*
X96441D01*
Y57102D01*
D02*
G37*
G36*
X86236Y51362D02*
X82693D01*
Y48803D01*
X86236D01*
Y51362D01*
D02*
G37*
G36*
X80693D02*
X77150D01*
Y48803D01*
X80693D01*
Y51362D01*
D02*
G37*
G36*
X71866Y52150D02*
X68913D01*
Y46638D01*
X71866D01*
Y52150D01*
D02*
G37*
G36*
X66913D02*
X63961D01*
Y46638D01*
X66913D01*
Y52150D01*
D02*
G37*
G36*
X101787Y50181D02*
X98441D01*
Y45260D01*
X101787D01*
Y50181D01*
D02*
G37*
G36*
X96441D02*
X93094D01*
Y45260D01*
X96441D01*
Y50181D01*
D02*
G37*
G36*
X94701Y38402D02*
X91551D01*
Y33480D01*
X94701D01*
Y38402D01*
D02*
G37*
G36*
X89551D02*
X86402D01*
Y33480D01*
X89551D01*
Y38402D01*
D02*
G37*
G36*
X129248Y32004D02*
X123047D01*
Y27181D01*
X129248D01*
Y32004D01*
D02*
G37*
G36*
X121047D02*
X114847D01*
Y27181D01*
X121047D01*
Y32004D01*
D02*
G37*
G36*
X94701Y31480D02*
X91551D01*
Y26559D01*
X94701D01*
Y31480D01*
D02*
G37*
G36*
X89551D02*
X86402D01*
Y26559D01*
X89551D01*
Y31480D01*
D02*
G37*
G36*
X129248Y25181D02*
X123047D01*
Y20358D01*
X129248D01*
Y25181D01*
D02*
G37*
G36*
X121047D02*
X114847D01*
Y20358D01*
X121047D01*
Y25181D01*
D02*
G37*
%LPD*%
D10*
X161817Y70675D02*
X162210D01*
X162402Y70866D01*
X158268Y66929D02*
Y67126D01*
X161817Y70675D01*
X170669Y234252D02*
X170669Y234252D01*
X165354Y234252D02*
X170669D01*
X191282Y25589D02*
G03*
X191282Y25492I-24648J-97D01*
G01*
X123937Y135307D02*
G03*
X123937Y135307I-500J0D01*
G01*
X187593Y204036D02*
G03*
X187458Y195049I166J-4497D01*
G01*
D12*
X121437Y173307D02*
X146437D01*
Y133307D02*
Y173307D01*
X121437Y133307D02*
X146437D01*
X121437D02*
Y173307D01*
Y133307D02*
Y173307D01*
X164760Y188567D02*
Y210567D01*
Y188567D02*
X187760D01*
X164760Y210567D02*
X187760D01*
Y188567D02*
Y210567D01*
D15*
X44713Y198209D02*
X85213D01*
Y214209D01*
X44713D02*
X85213D01*
X44713Y198209D02*
Y214209D01*
X72008Y145630D02*
Y161484D01*
X50197Y169543D02*
X62008D01*
X50197Y137953D02*
Y169543D01*
X72008Y161484D02*
Y169543D01*
X58697D02*
X72102D01*
X58858Y137953D02*
Y138043D01*
X50197Y137953D02*
X72102D01*
X72008D02*
Y145630D01*
X89567Y127638D02*
Y179213D01*
X101378D01*
Y127638D02*
Y179213D01*
X89567Y127638D02*
X101378D01*
X82270Y262219D02*
X85053Y259435D01*
X82270Y259435D02*
X85053Y262219D01*
X54570Y260827D02*
X83661Y289918D01*
Y231735D02*
X112753Y260827D01*
X54570D02*
X83661Y231735D01*
Y289918D02*
X112753Y260827D01*
X139173Y200394D02*
G03*
X139173Y200394I-1969J0D01*
G01*
X105512Y284055D02*
X118898D01*
X105512Y276969D02*
X118898D01*
X105512D02*
Y284055D01*
X118898Y276969D02*
Y284055D01*
X59153Y321161D02*
Y340256D01*
X13681Y321161D02*
Y340256D01*
Y321161D02*
X59153D01*
X13681Y340256D02*
X59153D01*
X55709Y250197D02*
Y263583D01*
X48622Y250197D02*
Y263583D01*
X55709D01*
X48622Y250197D02*
X55709D01*
X96063Y34252D02*
X99213Y31102D01*
X81890Y16929D02*
X99213Y16732D01*
X81890Y31102D02*
X85039Y34252D01*
X96063D01*
X99213Y16732D02*
Y31102D01*
X81890Y16929D02*
Y31102D01*
X78150Y64764D02*
X85236D01*
X78150Y51378D02*
X85236D01*
Y64764D01*
X78150Y51378D02*
Y64764D01*
X52362Y66536D02*
X65807D01*
X52362Y73228D02*
X65807D01*
Y66536D02*
Y73228D01*
X52362Y66536D02*
Y73228D01*
X31890Y43504D02*
X38976D01*
X31890Y56890D02*
X38976D01*
X31890Y43504D02*
Y56890D01*
X38976Y43504D02*
Y56890D01*
X21791Y81102D02*
X35236D01*
X21791Y74410D02*
X35236D01*
X21791D02*
Y81102D01*
X35236Y74410D02*
Y81102D01*
X45669Y109055D02*
X52756D01*
X45669Y95669D02*
X52756D01*
Y109055D01*
X45669Y95669D02*
Y109055D01*
X4528Y95847D02*
Y109291D01*
X11220Y95847D02*
Y109291D01*
X4528Y95847D02*
X11220D01*
X4528Y109291D02*
X11220D01*
X35236Y125394D02*
Y132480D01*
X21850Y125394D02*
Y132480D01*
Y125394D02*
X35236D01*
X21850Y132480D02*
X35236D01*
X52362Y237598D02*
Y244685D01*
X65748Y237598D02*
Y244685D01*
X52362D02*
X65748D01*
X52362Y237598D02*
X65748D01*
X113386Y274213D02*
X126772D01*
X113386Y267126D02*
X126772D01*
X113386D02*
Y274213D01*
X126772Y267126D02*
Y274213D01*
X158268Y305512D02*
Y312598D01*
X144882Y305512D02*
Y312598D01*
Y305512D02*
X158268D01*
X144882Y312598D02*
X158268D01*
X48425Y316535D02*
X61811D01*
X48425Y309449D02*
X61811D01*
X48425D02*
Y316535D01*
X61811Y309449D02*
Y316535D01*
X11024Y309449D02*
Y316535D01*
X24409Y309449D02*
Y316535D01*
X11024D02*
X24409D01*
X11024Y309449D02*
X24409D01*
X183287Y123583D02*
Y148071D01*
X155295Y123583D02*
Y148071D01*
Y123583D02*
X183287D01*
X155295Y148071D02*
X183287D01*
X109803Y24390D02*
Y52382D01*
X134291Y24390D02*
Y52382D01*
X109803Y24390D02*
X134291D01*
X109803Y52382D02*
X134291D01*
X91693Y68110D02*
X103189D01*
X91693Y50000D02*
X103189D01*
Y68110D01*
X91693Y50000D02*
Y68110D01*
X172638Y220768D02*
Y226083D01*
X179724Y220768D02*
Y226083D01*
X172638D02*
X179724D01*
X172638Y220768D02*
X179724D01*
X115945Y63878D02*
Y69980D01*
X128150Y63878D02*
Y69980D01*
X115945D02*
X128150D01*
X115945Y63878D02*
X128150D01*
X125000Y216535D02*
X140748D01*
X125000Y196850D02*
X140748D01*
X125000D02*
Y216535D01*
X140748Y196850D02*
Y216535D01*
X179331Y159449D02*
X184843D01*
X179331Y171260D02*
X184843D01*
Y159449D02*
Y171260D01*
X179331Y159449D02*
Y171260D01*
X15354Y95669D02*
X41732D01*
X15354Y110236D02*
X41732D01*
X15354Y95669D02*
Y110236D01*
X41732Y95669D02*
Y110236D01*
X148622Y60236D02*
Y65748D01*
Y60236D02*
X160433D01*
X148622Y65748D02*
X160433D01*
Y60236D02*
Y65748D01*
X82677Y307283D02*
Y312795D01*
X70866D02*
X82677D01*
X70866Y307283D02*
X82677D01*
X70866D02*
Y312795D01*
X123031Y307283D02*
Y312795D01*
X111221D02*
X123031D01*
X111221Y307283D02*
X123031D01*
X111221D02*
Y312795D01*
X137795Y307283D02*
Y312795D01*
X125984D02*
X137795D01*
X125984Y307283D02*
X137795D01*
X125984D02*
Y312795D01*
X153248Y158957D02*
Y171752D01*
X159744Y158957D02*
Y171752D01*
X153248Y158957D02*
X159744D01*
X153248Y171752D02*
X159744D01*
X169783Y237500D02*
X182579D01*
X169783Y231004D02*
X182579D01*
X169783D02*
Y237500D01*
X182579Y231004D02*
Y237500D01*
X172539Y158957D02*
Y171752D01*
X166043Y158957D02*
Y171752D01*
X172539D01*
X166043Y158957D02*
X172539D01*
X120571Y12106D02*
X133366D01*
X120571Y5610D02*
X133366D01*
X120571D02*
Y12106D01*
X133366Y5610D02*
Y12106D01*
X145177Y324114D02*
X157972D01*
X145177Y317618D02*
X157972D01*
X145177D02*
Y324114D01*
X157972Y317618D02*
Y324114D01*
X80020Y326279D02*
Y339075D01*
X73524Y326279D02*
Y339075D01*
X80020D01*
X73524Y326279D02*
X80020D01*
X120374D02*
Y339075D01*
X113878Y326279D02*
Y339075D01*
X120374D01*
X113878Y326279D02*
X120374D01*
X135138D02*
Y339075D01*
X128642Y326279D02*
Y339075D01*
X135138D01*
X128642Y326279D02*
X135138D01*
X93012Y209350D02*
X105807D01*
X93012Y215846D02*
X105807D01*
Y209350D02*
Y215846D01*
X93012Y209350D02*
Y215846D01*
Y198524D02*
X105807D01*
X93012Y205020D02*
X105807D01*
Y198524D02*
Y205020D01*
X93012Y198524D02*
Y205020D01*
X112205Y278543D02*
Y282480D01*
X110236Y280512D02*
X114173D01*
X34449Y330709D02*
X38386D01*
X36417Y328740D02*
Y332677D01*
X50197Y256890D02*
X54134D01*
X52165Y254921D02*
Y258858D01*
X90551Y23622D02*
Y27559D01*
X88583Y25591D02*
X92520D01*
X81693Y56102D02*
Y60039D01*
X79724Y58071D02*
X83661D01*
X59055Y67913D02*
Y71850D01*
X57087Y69882D02*
X61024D01*
X35433Y48228D02*
Y52165D01*
X33465Y50197D02*
X37402D01*
X28543Y75787D02*
Y79724D01*
X26575Y77756D02*
X30512D01*
X49213Y100394D02*
Y104331D01*
X47244Y102362D02*
X51181D01*
X5906Y102598D02*
X9843D01*
X7874Y100630D02*
Y104567D01*
X26575Y128937D02*
X30512D01*
X28543Y126969D02*
Y130905D01*
X57087Y241142D02*
X61024D01*
X59055Y239173D02*
Y243110D01*
X120079Y268701D02*
Y272638D01*
X118110Y270669D02*
X122047D01*
X149606Y309055D02*
X153543D01*
X151575Y307087D02*
Y311024D01*
X55118D02*
Y314961D01*
X53150Y312992D02*
X57087D01*
X15748D02*
X19685D01*
X17717Y311024D02*
Y314961D01*
X167323Y135827D02*
X171260D01*
X169291Y133858D02*
Y137795D01*
X120079Y38386D02*
X124016D01*
X122047Y36417D02*
Y40354D01*
X97441Y57087D02*
Y61024D01*
X95472Y59055D02*
X99409D01*
X174213Y223425D02*
X178150D01*
X176181Y221457D02*
Y225394D01*
X120079Y66929D02*
X124016D01*
X122047Y64961D02*
Y68898D01*
X132874Y204724D02*
Y208661D01*
X130905Y206693D02*
X134843D01*
X182087Y163386D02*
Y167323D01*
X180118Y165354D02*
X184055D01*
X28543Y100984D02*
Y104921D01*
X26575Y102953D02*
X30512D01*
X154528Y61024D02*
Y64961D01*
X152559Y62992D02*
X156496D01*
X76772Y308071D02*
Y312008D01*
X74803Y310039D02*
X78740D01*
X117126Y308071D02*
Y312008D01*
X115157Y310039D02*
X119095D01*
X131890Y308071D02*
Y312008D01*
X129921Y310039D02*
X133858D01*
X154528Y165354D02*
X158465D01*
X156496Y163386D02*
Y167323D01*
X176181Y232283D02*
Y236221D01*
X174213Y234252D02*
X178150D01*
X167323Y165354D02*
X171260D01*
X169291Y163386D02*
Y167323D01*
X126969Y6890D02*
Y10827D01*
X125000Y8858D02*
X128937D01*
X151575Y318898D02*
Y322835D01*
X149606Y320866D02*
X153543D01*
X74803Y332677D02*
X78740D01*
X76772Y330709D02*
Y334646D01*
X115157Y332677D02*
X119095D01*
X117126Y330709D02*
Y334646D01*
X129921Y332677D02*
X133858D01*
X131890Y330709D02*
Y334646D01*
X99410Y210630D02*
Y214567D01*
X97441Y212598D02*
X101378D01*
X99410Y199803D02*
Y203740D01*
X97441Y201772D02*
X101378D01*
D18*
X53959Y69881D02*
D03*
X33640Y77755D02*
D03*
D19*
X7873Y107696D02*
D03*
D20*
X157178Y135827D02*
D03*
D21*
X122047Y26272D02*
D03*
D22*
X97443Y51219D02*
D03*
D23*
X102953Y285039D02*
X121457D01*
X102953Y275984D02*
X121457D01*
X102953D02*
Y285039D01*
X121457Y275984D02*
Y285039D01*
X60138Y320177D02*
Y341240D01*
X12697Y320177D02*
Y341240D01*
Y320177D02*
X60138D01*
X12697Y341240D02*
X60138D01*
X56693Y247638D02*
Y266142D01*
X47638Y247638D02*
Y266142D01*
X56693D01*
X47638Y247638D02*
X56693D01*
X80709Y38583D02*
X100394D01*
X80709Y12598D02*
X100394D01*
Y38583D01*
X80709Y12598D02*
Y38583D01*
X77165Y67323D02*
X86221D01*
X77165Y48819D02*
X86221D01*
Y67323D01*
X77165Y48819D02*
Y67323D01*
X49370Y65551D02*
Y74213D01*
Y65551D02*
X68740D01*
X49370Y74213D02*
X68740D01*
Y65551D02*
Y74213D01*
X30906Y40945D02*
X39961D01*
X30906Y59449D02*
X39961D01*
X30906Y40945D02*
Y59449D01*
X39961Y40945D02*
Y59449D01*
X38228Y73425D02*
Y82087D01*
X18858D02*
X38228D01*
X18858Y73425D02*
X38228D01*
X18858D02*
Y82087D01*
X44685Y111614D02*
X53740D01*
X44685Y93110D02*
X53740D01*
Y111614D01*
X44685Y93110D02*
Y111614D01*
X3543Y112284D02*
X12205D01*
X3543Y92913D02*
Y112284D01*
X12205Y92913D02*
Y112284D01*
X3543Y92913D02*
X12205D01*
X37795Y124409D02*
Y133465D01*
X19291Y124409D02*
Y133465D01*
Y124409D02*
X37795D01*
X19291Y133465D02*
X37795D01*
X49803Y236614D02*
Y245669D01*
X68307Y236614D02*
Y245669D01*
X49803D02*
X68307D01*
X49803Y236614D02*
X68307D01*
X110827Y275197D02*
X129331D01*
X110827Y266142D02*
X129331D01*
X110827D02*
Y275197D01*
X129331Y266142D02*
Y275197D01*
X160827Y304528D02*
Y313583D01*
X142323Y304528D02*
Y313583D01*
Y304528D02*
X160827D01*
X142323Y313583D02*
X160827D01*
X45866Y317520D02*
X64370D01*
X45866Y308465D02*
X64370D01*
X45866D02*
Y317520D01*
X64370Y308465D02*
Y317520D01*
X8465Y308465D02*
Y317520D01*
X26969Y308465D02*
Y317520D01*
X8465D02*
X26969D01*
X8465Y308465D02*
X26969D01*
X187008Y122441D02*
Y149213D01*
X151575Y122441D02*
Y149213D01*
Y122441D02*
X187008D01*
X151575Y149213D02*
X187008D01*
X108661Y20669D02*
Y56102D01*
X135433Y20669D02*
Y56102D01*
X108661Y20669D02*
X135433D01*
X108661Y56102D02*
X135433D01*
X90551Y73055D02*
X104331D01*
X90551Y45055D02*
X104331D01*
Y73055D01*
X90551Y45055D02*
Y73055D01*
X169488Y220079D02*
Y226772D01*
X182874Y220079D02*
Y226772D01*
X169488D02*
X182874D01*
X169488Y220079D02*
X182874D01*
X112008Y62894D02*
Y70965D01*
X132087Y62894D02*
Y70965D01*
X112008D02*
X132087D01*
X112008Y62894D02*
X132087D01*
X118307Y217520D02*
X147441D01*
X118307Y195866D02*
X147441D01*
X118307D02*
Y217520D01*
X147441Y195866D02*
Y217520D01*
X175787Y158465D02*
X188386D01*
X175787Y172244D02*
X188386D01*
Y158465D02*
Y172244D01*
X175787Y158465D02*
Y172244D01*
X14370Y86221D02*
X42717D01*
X14370Y119685D02*
X42717D01*
X14370Y86221D02*
Y119685D01*
X42717Y86221D02*
Y119685D01*
X147638Y69685D02*
X161417D01*
X147638Y56299D02*
X161417D01*
Y69685D01*
X147638Y56299D02*
Y69685D01*
X69882Y303346D02*
X83661D01*
X69882Y316732D02*
X83661D01*
X69882Y303346D02*
Y316732D01*
X83661Y303346D02*
Y316732D01*
X110236Y303346D02*
X124016D01*
X110236Y316732D02*
X124016D01*
X110236Y303346D02*
Y316732D01*
X124016Y303346D02*
Y316732D01*
X125000Y303346D02*
X138779D01*
X125000Y316732D02*
X138779D01*
X125000Y303346D02*
Y316732D01*
X138779Y303346D02*
Y316732D01*
X152165Y156496D02*
Y174213D01*
X160827Y156496D02*
Y174213D01*
X152165Y156496D02*
X160827D01*
X152165Y174213D02*
X160827D01*
X167323Y238583D02*
X185039D01*
X167323Y229921D02*
X185039D01*
X167323D02*
Y238583D01*
X185039Y229921D02*
Y238583D01*
X173622Y156496D02*
Y174213D01*
X164961Y156496D02*
Y174213D01*
X173622D01*
X164961Y156496D02*
X173622D01*
X118110Y13189D02*
X135827D01*
X118110Y4528D02*
X135827D01*
X118110D02*
Y13189D01*
X135827Y4528D02*
Y13189D01*
X142717Y325197D02*
X160433D01*
X142717Y316535D02*
X160433D01*
X142717D02*
Y325197D01*
X160433Y316535D02*
Y325197D01*
X81102Y323819D02*
Y341535D01*
X72441Y323819D02*
Y341535D01*
X81102D01*
X72441Y323819D02*
X81102D01*
X121457D02*
Y341535D01*
X112795Y323819D02*
Y341535D01*
X121457D01*
X112795Y323819D02*
X121457D01*
X136221D02*
Y341535D01*
X127559Y323819D02*
Y341535D01*
X136221D01*
X127559Y323819D02*
X136221D01*
X90551Y208268D02*
X108268D01*
X90551Y216929D02*
X108268D01*
Y208268D02*
Y216929D01*
X90551Y208268D02*
Y216929D01*
Y197441D02*
X108268D01*
X90551Y206102D02*
X108268D01*
Y197441D02*
Y206102D01*
X90551Y197441D02*
Y206102D01*
D24*
X106496Y280512D02*
D03*
X117913D02*
D03*
X34252Y128937D02*
D03*
X22835D02*
D03*
X53347Y241142D02*
D03*
X64764D02*
D03*
X114370Y270669D02*
D03*
X125787D02*
D03*
X157283Y309055D02*
D03*
X145866D02*
D03*
X49409Y312992D02*
D03*
X60827D02*
D03*
X12008D02*
D03*
X23425D02*
D03*
D25*
X17717Y330709D02*
D03*
X55118D02*
D03*
D26*
X49213Y205709D02*
D03*
X80709D02*
D03*
D27*
X52165Y262598D02*
D03*
Y251181D02*
D03*
X81693Y63779D02*
D03*
Y52362D02*
D03*
X35433Y44488D02*
D03*
Y55905D02*
D03*
X49213Y108071D02*
D03*
Y96653D02*
D03*
D28*
X90551Y32480D02*
D03*
Y18701D02*
D03*
D29*
X64213Y69882D02*
D03*
X53898D02*
D03*
X23386Y77756D02*
D03*
X33701D02*
D03*
D30*
X7874Y97441D02*
D03*
Y107756D02*
D03*
D31*
X181496Y135827D02*
D03*
X157087D02*
D03*
D32*
X122047Y26181D02*
D03*
Y50591D02*
D03*
D33*
X97441Y66929D02*
D03*
Y51181D02*
D03*
D34*
X171801Y223425D02*
D03*
X180561D02*
D03*
D35*
X115256Y66929D02*
D03*
X128839D02*
D03*
D36*
X122146Y214193D02*
D03*
Y209193D02*
D03*
Y204193D02*
D03*
Y199193D02*
D03*
X143602Y214193D02*
D03*
Y209193D02*
D03*
Y204193D02*
D03*
Y199193D02*
D03*
D37*
X185571Y165354D02*
D03*
X178602Y161614D02*
D03*
Y169095D02*
D03*
D38*
X19488Y90551D02*
D03*
X28543D02*
D03*
X37598D02*
D03*
D39*
X28543Y115354D02*
D03*
D40*
X158268Y66929D02*
D03*
X150787D02*
D03*
X154528Y59055D02*
D03*
X73032Y306102D02*
D03*
X80512D02*
D03*
X76772Y313976D02*
D03*
X113386Y306102D02*
D03*
X120866D02*
D03*
X117126Y313976D02*
D03*
X128150Y306102D02*
D03*
X135630D02*
D03*
X131890Y313976D02*
D03*
D41*
X156496Y159843D02*
D03*
Y170866D02*
D03*
X169291D02*
D03*
Y159843D02*
D03*
X76772Y338189D02*
D03*
Y327165D02*
D03*
X117126Y338189D02*
D03*
Y327165D02*
D03*
X131890Y338189D02*
D03*
Y327165D02*
D03*
D42*
X170669Y234252D02*
D03*
X181693D02*
D03*
X121457Y8858D02*
D03*
X132480D02*
D03*
X146063Y320866D02*
D03*
X157087D02*
D03*
X104921Y212598D02*
D03*
X93898D02*
D03*
X104921Y201772D02*
D03*
X93898D02*
D03*
D43*
X58913Y27756D02*
D03*
D44*
X67913Y53150D02*
D03*
X49913D02*
D03*
D45*
X103288Y256790D02*
D03*
X101061Y254563D02*
D03*
X98834Y252336D02*
D03*
X96606Y250109D02*
D03*
X94379Y247882D02*
D03*
X92152Y245655D02*
D03*
X89925Y243427D02*
D03*
X87698Y241200D02*
D03*
X64035Y264863D02*
D03*
X66262Y267091D02*
D03*
X68489Y269318D02*
D03*
X70716Y271545D02*
D03*
X72944Y273772D02*
D03*
X75171Y275999D02*
D03*
X77398Y278226D02*
D03*
X79625Y280453D02*
D03*
D46*
Y241200D02*
D03*
X77398Y243427D02*
D03*
X75171Y245655D02*
D03*
X72944Y247882D02*
D03*
X70716Y250109D02*
D03*
X68489Y252336D02*
D03*
X66262Y254563D02*
D03*
X64035Y256790D02*
D03*
X87698Y280453D02*
D03*
X89925Y278226D02*
D03*
X92152Y275999D02*
D03*
X94379Y273772D02*
D03*
X96606Y271545D02*
D03*
X98834Y269318D02*
D03*
X101061Y267091D02*
D03*
X103288Y264863D02*
D03*
D82*
X71417Y230401D02*
G03*
X71417Y230307I5000J-47D01*
G01*
X61420Y230525D02*
G03*
X61420Y230184I4997J-170D01*
G01*
X94379Y247882D02*
X94583D01*
X97086Y245379D01*
X106393D01*
X98834Y252336D02*
X101601Y249569D01*
X139333D01*
X155118Y265354D01*
X99268Y247447D02*
X114464D01*
X126417Y235494D01*
X96606Y250109D02*
X96606D01*
X99268Y247447D01*
X126417Y230354D02*
Y235494D01*
X106393Y245379D02*
X111417Y240354D01*
X116417Y282008D02*
Y290354D01*
Y282008D02*
X117913Y280512D01*
X71417Y230401D02*
Y233504D01*
X64764Y240158D02*
X71183Y233738D01*
X71417Y221890D02*
Y230307D01*
X71183Y233738D02*
X71417Y233504D01*
X61186Y233105D02*
X61420Y232871D01*
Y226546D02*
X61655Y226311D01*
X61420Y226546D02*
Y230184D01*
Y230525D02*
Y232871D01*
X61655Y226311D02*
X66057Y221909D01*
X57828Y236463D02*
X61186Y233105D01*
X53150Y262795D02*
X59055D01*
X52165Y251181D02*
Y256890D01*
X114370Y271457D02*
X114529Y271298D01*
X111221Y274606D02*
X114370Y271457D01*
Y271610D01*
Y270669D02*
Y271457D01*
X101061Y254563D02*
X101082D01*
X103676Y251969D02*
X133031D01*
X101082Y254563D02*
X103676Y251969D01*
X133031D02*
X156417Y275354D01*
X52165Y251181D02*
X53347Y250000D01*
Y241142D02*
Y250000D01*
X69882Y258183D02*
Y260827D01*
X66262Y254563D02*
X69882Y258183D01*
X66417Y299291D02*
X71857Y304731D01*
X66417Y290354D02*
Y299291D01*
X71857Y304731D02*
X71857D01*
X73032Y305906D02*
Y306102D01*
X71857Y304731D02*
X73032Y305906D01*
X45981Y153543D02*
X56102D01*
X42044Y157480D02*
X45981Y153543D01*
X10984Y157480D02*
X42044D01*
X50826Y158465D02*
X61181D01*
X11142Y167323D02*
X41968D01*
X50826Y158465D01*
X10827Y157638D02*
X10984Y157480D01*
X10827Y167638D02*
X11142Y167323D01*
X61181Y158465D02*
X66102Y153543D01*
X42008Y177638D02*
X56102Y163543D01*
X10827Y177638D02*
X42008D01*
X56260Y163701D02*
Y230197D01*
X56102Y163543D02*
X56260Y163701D01*
Y230197D02*
X56417Y230354D01*
X10827Y207638D02*
X11772D01*
X19685Y215551D01*
Y273622D02*
X36417Y290354D01*
X19685Y215551D02*
Y273622D01*
X128150Y305906D02*
Y305949D01*
X126975Y304731D02*
X128150Y305906D01*
X126931Y304731D02*
X126975D01*
X99410Y298228D02*
X120429D01*
X126931Y304731D01*
X108618Y301181D02*
X112167Y304731D01*
X81693Y301181D02*
X108618D01*
X113386Y305906D02*
Y305949D01*
X112211Y304731D02*
X113386Y305906D01*
X112167Y304731D02*
X112211D01*
X49213Y268701D02*
X60198D01*
X46260Y239173D02*
Y265748D01*
X49213Y268701D01*
X48217Y270669D02*
X61999D01*
X44291Y234123D02*
Y266744D01*
X48217Y270669D01*
X42323Y236260D02*
Y267717D01*
X47244Y272638D02*
X64961D01*
X42323Y267717D02*
X47244Y272638D01*
X76417Y290354D02*
Y295905D01*
X114370Y263583D02*
X117126Y260827D01*
X114370Y263583D02*
Y270669D01*
X103288Y256790D02*
Y256831D01*
X107283Y260827D01*
X105315Y271499D02*
Y271654D01*
X101061Y267091D02*
Y267245D01*
X105315Y271499D01*
X109022Y270598D02*
Y271424D01*
X103288Y264863D02*
X109022Y270598D01*
Y271424D02*
X109252Y271654D01*
X99668Y274606D02*
X111221D01*
X108655Y277325D02*
X114370Y271610D01*
X63774Y247691D02*
X68418Y252336D01*
X63703Y247691D02*
X63774D01*
X68418Y252336D02*
X68489D01*
X70866Y241142D02*
Y241246D01*
X75171Y245550D02*
Y245655D01*
X70866Y241246D02*
X75171Y245550D01*
X76417Y295905D02*
X81693Y301181D01*
X76417Y283661D02*
Y290354D01*
X86039Y230732D02*
Y234786D01*
Y230732D02*
X86417Y230354D01*
X79625Y241200D02*
X86039Y234786D01*
X23425Y312008D02*
X28346Y307087D01*
X28543D01*
X44291D02*
X44488D01*
X49409Y312008D01*
Y313976D01*
X23425Y312008D02*
Y313976D01*
X87619Y280453D02*
X87698D01*
X81923Y272867D02*
Y274757D01*
X87619Y280453D01*
X81693Y272638D02*
X81923Y272867D01*
X85630Y273622D02*
Y273776D01*
X89925Y278072D01*
Y278226D01*
X96606Y271545D02*
X99668Y274606D01*
X146417Y285354D02*
Y290354D01*
Y285354D02*
X156417Y275354D01*
X29826Y51480D02*
X30023D01*
X27559Y49213D02*
X29826Y51480D01*
X34449Y55905D02*
X35433D01*
X30023Y51480D02*
X34449Y55905D01*
X27559Y14764D02*
Y49213D01*
X33465Y8858D02*
X121457D01*
X27559Y14764D02*
X33465Y8858D01*
X154528Y52559D02*
X181496Y25591D01*
X154528Y52559D02*
Y59055D01*
X132480Y8858D02*
X139764D01*
X151575Y20669D02*
Y25591D01*
X139764Y8858D02*
X151575Y20669D01*
X108655Y277325D02*
Y278353D01*
X106496Y280512D02*
X108655Y278353D01*
X66923Y246315D02*
X70716Y250109D01*
X66923Y243301D02*
Y246315D01*
X64764Y241142D02*
X66923Y243301D01*
X53150Y262598D02*
X57828Y257920D01*
Y236463D02*
Y257920D01*
X52165Y262598D02*
X53150D01*
X60039Y236732D02*
Y252795D01*
Y236732D02*
X66417Y230354D01*
X60039Y252795D02*
X64035Y256790D01*
X66057Y221909D02*
X71398D01*
X80709Y212598D01*
X93898D01*
X64764Y240158D02*
Y241142D01*
X60198Y268701D02*
X64035Y264863D01*
X61999Y270669D02*
X65578Y267091D01*
X64961Y272638D02*
X68281Y269318D01*
X46260Y239173D02*
X55079Y230354D01*
X56417D01*
X44291Y234123D02*
X46417Y231997D01*
Y230354D02*
Y231997D01*
X36417Y230354D02*
X42323Y236260D01*
X155118Y265354D02*
X156417D01*
X68281Y269318D02*
X68489D01*
X65578Y267091D02*
X66262D01*
X47244Y279528D02*
X62734D01*
X70716Y271545D01*
X36417Y290354D02*
X47244Y279528D01*
X80709Y197835D02*
Y205709D01*
X107874Y213583D02*
X113189D01*
X76772Y314961D02*
Y327165D01*
X131890Y314961D02*
Y327165D01*
X117126Y314961D02*
Y327165D01*
X103957Y332677D02*
X125492D01*
X131004Y338189D01*
X131890D01*
X98957Y332677D02*
Y333858D01*
X103287Y338189D01*
X117126D01*
X76772D02*
X77658D01*
X83169Y332677D01*
X88957D01*
X55118Y319685D02*
Y330709D01*
X49409Y313976D02*
X55118Y319685D01*
X17717Y319685D02*
X23425Y313976D01*
X17717Y319685D02*
Y330709D01*
X111457Y209193D02*
X122146D01*
X104921Y202658D02*
X111457Y209193D01*
X104921Y201772D02*
Y202658D01*
X99410Y208169D02*
X104921Y202658D01*
X99410Y218504D02*
X102362Y221457D01*
X99410Y208169D02*
Y218504D01*
X102362Y221457D02*
X109252D01*
X111417Y223622D02*
Y240354D01*
X109252Y221457D02*
X111417Y223622D01*
X113189Y213583D02*
X113500Y213894D01*
X118894D02*
X119193Y214193D01*
X113500Y213894D02*
X118894D01*
X106890Y212598D02*
X107874Y213583D01*
X106260Y230354D02*
X106417D01*
X98116Y235236D02*
X101378D01*
X106260Y230354D01*
X156417Y308189D02*
X157283Y309055D01*
X156417Y285354D02*
Y308189D01*
X145866Y309055D02*
X146063Y309252D01*
X127165Y290354D02*
X145866Y309055D01*
X146063Y309252D02*
Y320866D01*
X126417Y290354D02*
X127165D01*
X96435Y290372D02*
Y295254D01*
X99410Y298228D01*
X96417Y290354D02*
X96435Y290372D01*
X66929Y290354D02*
X71119Y286164D01*
Y284504D02*
Y286164D01*
Y284504D02*
X77398Y278226D01*
X66417Y290354D02*
X66929D01*
X76417Y283661D02*
X79625Y280453D01*
X73819Y240158D02*
X77089Y243427D01*
X77398D01*
X73819Y234686D02*
X76417Y232087D01*
X73819Y234686D02*
Y240158D01*
X76417Y230354D02*
Y232087D01*
X79625Y241200D02*
Y241200D01*
X87698Y241109D02*
X94770Y234037D01*
X87698Y241109D02*
Y241200D01*
X94770Y233787D02*
X96417Y232140D01*
Y230354D02*
Y232140D01*
X94770Y233787D02*
Y234037D01*
X89925Y243427D02*
X98116Y235236D01*
X46417Y290197D02*
X55118Y281496D01*
X46417Y290197D02*
Y290354D01*
X55118Y281496D02*
X65219D01*
X72944Y273772D01*
X56417Y290354D02*
X62323Y284449D01*
X66721D01*
X75171Y275999D01*
X96665Y280512D02*
X106496D01*
X92152Y275999D02*
X96665Y280512D01*
X126417Y230354D02*
X126417Y230354D01*
X96517Y241290D02*
X100482D01*
X101417Y240354D01*
X92152Y245655D02*
X96517Y241290D01*
D83*
X10827Y128937D02*
X22835D01*
X3937Y135827D02*
X10827Y128937D01*
X3937Y210748D02*
X10827Y217638D01*
X3937Y135827D02*
Y210748D01*
X180561Y223022D02*
X181260Y222323D01*
X180561Y223022D02*
Y223425D01*
X181260Y214567D02*
Y222323D01*
X180561Y223425D02*
Y223829D01*
X181693Y224961D02*
Y234252D01*
X180561Y223829D02*
X181693Y224961D01*
D84*
X76772Y164370D02*
Y173228D01*
Y119095D02*
Y164370D01*
X66102Y163543D02*
X75945D01*
X76772Y164370D01*
Y173228D02*
X93898Y190354D01*
X56102Y81693D02*
Y98425D01*
X76772Y119095D01*
X53898Y69882D02*
Y79488D01*
X56102Y81693D01*
X150039Y255354D02*
X156417D01*
X170371Y148329D02*
Y148526D01*
Y148329D02*
X181496Y137205D01*
X170276Y148622D02*
X170371Y148526D01*
X181496Y137205D02*
Y150680D01*
Y135827D02*
Y137205D01*
Y150680D02*
X185571Y154755D01*
Y165354D01*
X170177Y170866D02*
X171949Y169095D01*
X169291Y170866D02*
X170177D01*
X171949Y169095D02*
X178602D01*
X180779Y181468D02*
Y184086D01*
X170177Y170866D02*
X180779Y181468D01*
Y184086D02*
X181260Y184567D01*
X157382Y170866D02*
X171083Y184567D01*
X171260D01*
X156496Y170866D02*
X157382D01*
X95472Y163543D02*
X96472D01*
X101235Y168307D02*
X128937D01*
X96472Y163543D02*
X101235Y168307D01*
X128937D02*
X137402Y159843D01*
X156496D01*
Y136417D02*
Y159843D01*
Y136417D02*
X157087Y135827D01*
X28543Y90551D02*
Y115354D01*
X132874Y191526D02*
Y220472D01*
X122146Y190354D02*
X131702D01*
X132874Y191526D01*
X120079Y220472D02*
X132874D01*
X142717D01*
X146417Y251732D02*
X150039Y255354D01*
X116417Y224134D02*
X120079Y220472D01*
X142717D02*
X146417Y224173D01*
Y230354D01*
Y251732D01*
X116417Y224134D02*
Y230354D01*
X93898Y190354D02*
X122146D01*
X127681Y137024D02*
Y137051D01*
X123216Y132559D02*
X127681Y137024D01*
Y137051D02*
X128937Y138307D01*
X95472Y132559D02*
X123216D01*
X129340Y67430D02*
Y137905D01*
X128937Y138307D02*
X129340Y137905D01*
X128839Y66929D02*
X129340Y67430D01*
X115256Y56004D02*
X120669Y50591D01*
X115256Y56004D02*
Y66929D01*
X120669Y50591D02*
X122047D01*
D85*
X162517Y256021D02*
X164370Y257874D01*
Y312697D01*
X157084Y256021D02*
X162517D01*
X156417Y255354D02*
X157084Y256021D01*
X157087Y319980D02*
X164370Y312697D01*
X122146Y190354D02*
Y199193D01*
X93898Y201772D02*
Y212598D01*
Y190354D02*
Y201772D01*
X93957Y332677D02*
Y338051D01*
X99410Y343504D01*
X140748D01*
X157087Y327165D01*
Y320866D02*
Y327165D01*
Y319980D02*
Y320866D01*
D86*
X10827Y147638D02*
D03*
Y157638D02*
D03*
Y167638D02*
D03*
Y177638D02*
D03*
Y187638D02*
D03*
Y197638D02*
D03*
Y207638D02*
D03*
X136417Y290354D02*
D03*
X126417D02*
D03*
X116417D02*
D03*
X106417D02*
D03*
X96417D02*
D03*
X86417D02*
D03*
X76417D02*
D03*
X66417D02*
D03*
X56417D02*
D03*
X46417D02*
D03*
X36417D02*
D03*
Y230354D02*
D03*
X46417D02*
D03*
X56417D02*
D03*
X66417D02*
D03*
X76417D02*
D03*
X86417D02*
D03*
X96417D02*
D03*
X106417D02*
D03*
X116417D02*
D03*
X126417D02*
D03*
X136417D02*
D03*
X146417D02*
D03*
X156417Y235354D02*
D03*
Y245354D02*
D03*
Y255354D02*
D03*
Y265354D02*
D03*
Y275354D02*
D03*
Y285354D02*
D03*
X36417Y240354D02*
D03*
Y250354D02*
D03*
Y260354D02*
D03*
X101417Y240354D02*
D03*
X111417D02*
D03*
D87*
X10827Y217638D02*
D03*
D88*
X181496Y25591D02*
D03*
X151575D02*
D03*
X56102Y163543D02*
D03*
Y153543D02*
D03*
Y143543D02*
D03*
X66102Y153543D02*
D03*
Y143543D02*
D03*
X95472Y173543D02*
D03*
Y163543D02*
D03*
Y143543D02*
D03*
Y153543D02*
D03*
D89*
X171260Y184567D02*
D03*
X181260D02*
D03*
X171260Y214567D02*
D03*
X138937Y138307D02*
D03*
X128937Y168307D02*
D03*
X138937D02*
D03*
D90*
X181260Y214567D02*
D03*
X128937Y138307D02*
D03*
D91*
X98957Y332677D02*
D03*
X93957D02*
D03*
X88957D02*
D03*
X103957D02*
D03*
D92*
X66102Y163543D02*
D03*
X95472Y133543D02*
D03*
D93*
X146417Y290354D02*
D03*
D94*
X17717Y59055D02*
D03*
X175197D02*
D03*
X175197Y295276D02*
D03*
X17717D02*
D03*
D95*
X52165Y256890D02*
D03*
X59055Y262795D02*
D03*
X69882Y260827D02*
D03*
X117126D02*
D03*
X107283D02*
D03*
X105315Y271654D02*
D03*
X109252D02*
D03*
X63703Y247691D02*
D03*
X70866Y241142D02*
D03*
X28543Y307087D02*
D03*
X44291D02*
D03*
X81693Y272638D02*
D03*
X85630Y273622D02*
D03*
X162402Y70866D02*
D03*
X165354Y234252D02*
D03*
X80709Y197835D02*
D03*
X113189Y213583D02*
D03*
D96*
X184375Y175303D02*
D03*
X89567Y221457D02*
D03*
X82677D02*
D03*
X133858Y241142D02*
D03*
X140755Y241210D02*
D03*
X154528Y201772D02*
D03*
Y211614D02*
D03*
X113189Y196850D02*
D03*
X148622Y180118D02*
D03*
X137795D02*
D03*
X177165Y155512D02*
D03*
X169291Y135827D02*
D03*
X118110Y142717D02*
D03*
X108268D02*
D03*
X118110Y180118D02*
D03*
X108268D02*
D03*
X118110Y160433D02*
D03*
X108268D02*
D03*
X177165Y98425D02*
D03*
X167323D02*
D03*
X157480D02*
D03*
X177165Y14764D02*
D03*
X162402D02*
D03*
X103347Y4921D02*
D03*
X83661D02*
D03*
X63976D02*
D03*
X34449Y19685D02*
D03*
Y29528D02*
D03*
X5906Y49213D02*
D03*
Y59055D02*
D03*
Y68898D02*
D03*
X103347Y98425D02*
D03*
X93504D02*
D03*
X83661D02*
D03*
X63976Y123031D02*
D03*
X54134D02*
D03*
X39370Y142717D02*
D03*
X29528D02*
D03*
X49213Y183071D02*
D03*
Y191929D02*
D03*
X29528D02*
D03*
Y201772D02*
D03*
Y211614D02*
D03*
X9843Y250984D02*
D03*
Y260827D02*
D03*
Y270669D02*
D03*
X29528Y273622D02*
D03*
X39370D02*
D03*
X83661Y283465D02*
D03*
X112205Y257874D02*
D03*
X125000D02*
D03*
X137795Y265748D02*
D03*
Y275590D02*
D03*
X175197Y255906D02*
D03*
Y265748D02*
D03*
Y274606D02*
D03*
Y314961D02*
D03*
Y324803D02*
D03*
Y334646D02*
D03*
X89567Y310039D02*
D03*
X96457D02*
D03*
X103347D02*
D03*
X83661Y253937D02*
D03*
X90551Y260827D02*
D03*
X83661Y267717D02*
D03*
X76772Y260827D02*
D03*
X85630Y192913D02*
D03*
X67913Y183071D02*
D03*
Y187992D02*
D03*
Y192913D02*
D03*
D97*
X170276Y148622D02*
D03*
M02*
