G04*
G04 #@! TF.GenerationSoftware,Altium Limited,Altium Designer,21.3.2 (30)*
G04*
G04 Layer_Physical_Order=2*
G04 Layer_Color=16711680*
%FSLAX25Y25*%
%MOIN*%
G70*
G04*
G04 #@! TF.SameCoordinates,3F51CCC3-8A4B-4D73-A1D2-239D5F55BC23*
G04*
G04*
G04 #@! TF.FilePolarity,Positive*
G04*
G01*
G75*
%ADD10C,0.01000*%
%ADD12C,0.00787*%
%ADD15C,0.00394*%
%ADD18R,0.03307X0.06692*%
%ADD19R,0.06692X0.03307*%
%ADD20R,0.03765X0.24488*%
%ADD21R,0.24488X0.03765*%
%ADD22R,0.11496X0.02436*%
%ADD23C,0.00197*%
%ADD82C,0.00800*%
%ADD84C,0.03000*%
%ADD86C,0.07400*%
%ADD87R,0.07400X0.07400*%
%ADD88C,0.06693*%
%ADD89C,0.05512*%
%ADD90R,0.05512X0.05512*%
%ADD91O,0.03543X0.05906*%
%ADD92R,0.06693X0.06693*%
%ADD93R,0.07400X0.07400*%
%ADD94C,0.10827*%
%ADD95C,0.02000*%
%ADD96C,0.02500*%
%ADD97C,0.04000*%
G36*
X191298Y232525D02*
X191190Y232447D01*
X190798Y232336D01*
X169633Y253502D01*
Y287402D01*
X169532Y287909D01*
X169244Y288339D01*
X156449Y301134D01*
X156019Y301421D01*
X155512Y301522D01*
X56260D01*
X56260Y301522D01*
X55753Y301421D01*
X55323Y301134D01*
X48596Y294408D01*
X48193Y294641D01*
X47023Y294954D01*
X45812D01*
X44642Y294641D01*
X43593Y294035D01*
X42736Y293179D01*
X42131Y292130D01*
X41817Y290960D01*
Y289749D01*
X42131Y288579D01*
X42736Y287530D01*
X43593Y286673D01*
X44642Y286068D01*
X45812Y285754D01*
X47023D01*
X47742Y285947D01*
X55093D01*
X55812Y285754D01*
X57023D01*
X57742Y285947D01*
X65093D01*
X65812Y285754D01*
X67023D01*
X68193Y286068D01*
X69242Y286673D01*
X70098Y287530D01*
X70704Y288579D01*
X71017Y289749D01*
Y290960D01*
X70866Y291524D01*
Y295919D01*
X153979D01*
X164029Y285868D01*
Y235613D01*
X163744Y235328D01*
X163454Y234630D01*
Y233874D01*
X163744Y233176D01*
X164278Y232641D01*
X164976Y232352D01*
X165732D01*
X166431Y232641D01*
X166965Y233176D01*
X167254Y233874D01*
Y234630D01*
X166965Y235328D01*
X166680Y235613D01*
Y252148D01*
X167180Y252300D01*
X167370Y252015D01*
X188635Y230750D01*
Y199736D01*
X163766D01*
X163050Y200452D01*
X162753Y200651D01*
X162402Y200721D01*
X162050Y200651D01*
X161753Y200452D01*
X146274Y184973D01*
X96457D01*
X96105Y184903D01*
X95808Y184704D01*
X84981Y173877D01*
X84782Y173580D01*
X84712Y173228D01*
Y148622D01*
X84782Y148271D01*
X84981Y147973D01*
X85279Y147774D01*
X85630Y147704D01*
X92987D01*
X93121Y147204D01*
X92804Y147021D01*
X91994Y146212D01*
X91422Y145221D01*
X91126Y144115D01*
Y144043D01*
X95472D01*
X99819D01*
Y144115D01*
X99523Y145221D01*
X98950Y146212D01*
X98141Y147021D01*
X97824Y147204D01*
X97958Y147704D01*
X146720D01*
Y119095D01*
X146790Y118743D01*
X146989Y118446D01*
X147287Y118247D01*
X147638Y118177D01*
X188635D01*
Y81258D01*
X179569Y72192D01*
X163763D01*
X163478Y72477D01*
X162779Y72766D01*
X162024D01*
X161325Y72477D01*
X160791Y71942D01*
X160502Y71244D01*
Y70488D01*
X160791Y69790D01*
X161325Y69255D01*
X162024Y68966D01*
X162779D01*
X163478Y69255D01*
X163763Y69541D01*
X180118D01*
X180625Y69642D01*
X181055Y69929D01*
X190798Y79672D01*
X191190Y79561D01*
X191298Y79483D01*
Y2322D01*
X104257D01*
X104157Y2822D01*
X104621Y3014D01*
X105254Y3647D01*
X105575Y4421D01*
X101118D01*
X101439Y3647D01*
X102072Y3014D01*
X102536Y2822D01*
X102436Y2322D01*
X84572D01*
X84472Y2822D01*
X84936Y3014D01*
X85569Y3647D01*
X85890Y4421D01*
X81433D01*
X81754Y3647D01*
X82387Y3014D01*
X82851Y2822D01*
X82751Y2322D01*
X64887D01*
X64787Y2822D01*
X65251Y3014D01*
X65884Y3647D01*
X66205Y4421D01*
X61748D01*
X62069Y3647D01*
X62702Y3014D01*
X63166Y2822D01*
X63066Y2322D01*
X25944D01*
Y37755D01*
X2322D01*
Y344841D01*
X191298D01*
Y232525D01*
D02*
G37*
G36*
X163386Y198819D02*
X188635D01*
Y119095D01*
X147638D01*
Y148622D01*
X85630D01*
Y173228D01*
X96457Y184055D01*
X146653D01*
X162402Y199803D01*
X163386Y198819D01*
D02*
G37*
%LPC*%
G36*
X103957Y336553D02*
X103259Y336461D01*
X102609Y336192D01*
X102051Y335764D01*
X101759Y335382D01*
X101663Y335346D01*
X101250D01*
X101155Y335382D01*
X100862Y335764D01*
X100304Y336192D01*
X99654Y336461D01*
X98957Y336553D01*
X98259Y336461D01*
X97609Y336192D01*
X97051Y335764D01*
X96759Y335382D01*
X96663Y335346D01*
X96250D01*
X96155Y335382D01*
X95862Y335764D01*
X95304Y336192D01*
X94654Y336461D01*
X93957Y336553D01*
X93259Y336461D01*
X92609Y336192D01*
X92051Y335764D01*
X91759Y335382D01*
X91663Y335346D01*
X91250D01*
X91155Y335382D01*
X90862Y335764D01*
X90304Y336192D01*
X89654Y336461D01*
X88957Y336553D01*
X88259Y336461D01*
X87609Y336192D01*
X87051Y335764D01*
X86623Y335206D01*
X86354Y334556D01*
X86262Y333858D01*
Y331496D01*
X86354Y330799D01*
X86623Y330149D01*
X87051Y329591D01*
X87609Y329162D01*
X88259Y328893D01*
X88957Y328801D01*
X89654Y328893D01*
X90304Y329162D01*
X90862Y329591D01*
X91155Y329972D01*
X91250Y330008D01*
X91663D01*
X91759Y329972D01*
X92051Y329591D01*
X92609Y329162D01*
X93259Y328893D01*
X93957Y328801D01*
X94654Y328893D01*
X95304Y329162D01*
X95862Y329591D01*
X96155Y329972D01*
X96250Y330008D01*
X96663D01*
X96759Y329972D01*
X97051Y329591D01*
X97609Y329162D01*
X98259Y328893D01*
X98957Y328801D01*
X99654Y328893D01*
X100304Y329162D01*
X100862Y329591D01*
X101155Y329972D01*
X101250Y330008D01*
X101663D01*
X101759Y329972D01*
X102051Y329591D01*
X102609Y329162D01*
X103259Y328893D01*
X103957Y328801D01*
X104654Y328893D01*
X105304Y329162D01*
X105862Y329591D01*
X106290Y330149D01*
X106560Y330799D01*
X106651Y331496D01*
Y333858D01*
X106560Y334556D01*
X106290Y335206D01*
X105862Y335764D01*
X105304Y336192D01*
X104654Y336461D01*
X103957Y336553D01*
D02*
G37*
G36*
X175697Y336874D02*
Y335146D01*
X177425D01*
X177104Y335920D01*
X176471Y336553D01*
X175697Y336874D01*
D02*
G37*
G36*
X174697D02*
X173922Y336553D01*
X173289Y335920D01*
X172969Y335146D01*
X174697D01*
Y336874D01*
D02*
G37*
G36*
X177425Y334146D02*
X175697D01*
Y332417D01*
X176471Y332738D01*
X177104Y333371D01*
X177425Y334146D01*
D02*
G37*
G36*
X174697D02*
X172969D01*
X173289Y333371D01*
X173922Y332738D01*
X174697Y332417D01*
Y334146D01*
D02*
G37*
G36*
X175697Y327031D02*
Y325303D01*
X177425D01*
X177104Y326078D01*
X176471Y326711D01*
X175697Y327031D01*
D02*
G37*
G36*
X174697D02*
X173922Y326711D01*
X173289Y326078D01*
X172969Y325303D01*
X174697D01*
Y327031D01*
D02*
G37*
G36*
X177425Y324303D02*
X175697D01*
Y322575D01*
X176471Y322896D01*
X177104Y323529D01*
X177425Y324303D01*
D02*
G37*
G36*
X174697D02*
X172969D01*
X173289Y323529D01*
X173922Y322896D01*
X174697Y322575D01*
Y324303D01*
D02*
G37*
G36*
X175697Y317189D02*
Y315461D01*
X177425D01*
X177104Y316235D01*
X176471Y316868D01*
X175697Y317189D01*
D02*
G37*
G36*
X174697D02*
X173922Y316868D01*
X173289Y316235D01*
X172969Y315461D01*
X174697D01*
Y317189D01*
D02*
G37*
G36*
X177425Y314461D02*
X175697D01*
Y312732D01*
X176471Y313053D01*
X177104Y313686D01*
X177425Y314461D01*
D02*
G37*
G36*
X174697D02*
X172969D01*
X173289Y313686D01*
X173922Y313053D01*
X174697Y312732D01*
Y314461D01*
D02*
G37*
G36*
X103847Y312268D02*
Y310539D01*
X105575D01*
X105254Y311314D01*
X104621Y311947D01*
X103847Y312268D01*
D02*
G37*
G36*
X102847D02*
X102072Y311947D01*
X101439Y311314D01*
X101118Y310539D01*
X102847D01*
Y312268D01*
D02*
G37*
G36*
X96957D02*
Y310539D01*
X98685D01*
X98364Y311314D01*
X97731Y311947D01*
X96957Y312268D01*
D02*
G37*
G36*
X95957D02*
X95182Y311947D01*
X94549Y311314D01*
X94228Y310539D01*
X95957D01*
Y312268D01*
D02*
G37*
G36*
X90067D02*
Y310539D01*
X91795D01*
X91474Y311314D01*
X90841Y311947D01*
X90067Y312268D01*
D02*
G37*
G36*
X89067D02*
X88292Y311947D01*
X87660Y311314D01*
X87339Y310539D01*
X89067D01*
Y312268D01*
D02*
G37*
G36*
X105575Y309539D02*
X103847D01*
Y307811D01*
X104621Y308132D01*
X105254Y308765D01*
X105575Y309539D01*
D02*
G37*
G36*
X102847D02*
X101118D01*
X101439Y308765D01*
X102072Y308132D01*
X102847Y307811D01*
Y309539D01*
D02*
G37*
G36*
X98685D02*
X96957D01*
Y307811D01*
X97731Y308132D01*
X98364Y308765D01*
X98685Y309539D01*
D02*
G37*
G36*
X95957D02*
X94228D01*
X94549Y308765D01*
X95182Y308132D01*
X95957Y307811D01*
Y309539D01*
D02*
G37*
G36*
X91795D02*
X90067D01*
Y307811D01*
X90841Y308132D01*
X91474Y308765D01*
X91795Y309539D01*
D02*
G37*
G36*
X89067D02*
X87339D01*
X87660Y308765D01*
X88292Y308132D01*
X89067Y307811D01*
Y309539D01*
D02*
G37*
G36*
X44669Y308987D02*
X43913D01*
X43215Y308697D01*
X42930Y308412D01*
X36417D01*
X35910Y308311D01*
X35480Y308024D01*
X30331Y302874D01*
X29869Y303066D01*
Y305725D01*
X30154Y306010D01*
X30443Y306709D01*
Y307465D01*
X30154Y308163D01*
X29620Y308697D01*
X28921Y308987D01*
X28165D01*
X27467Y308697D01*
X26933Y308163D01*
X26643Y307465D01*
Y306709D01*
X26933Y306010D01*
X27218Y305725D01*
Y284449D01*
X27319Y283942D01*
X27606Y283512D01*
X31543Y279575D01*
X31973Y279287D01*
X32480Y279186D01*
X73270D01*
X79793Y272663D01*
Y272260D01*
X80082Y271562D01*
X80617Y271027D01*
X81315Y270738D01*
X82071D01*
X82769Y271027D01*
X83304Y271562D01*
X83593Y272260D01*
Y272319D01*
X83744Y272399D01*
X84093Y272472D01*
X84554Y272011D01*
X85252Y271722D01*
X86008D01*
X86706Y272011D01*
X87241Y272546D01*
X87530Y273244D01*
Y274000D01*
X87241Y274698D01*
X86706Y275233D01*
X86008Y275522D01*
X85604D01*
X76725Y284402D01*
X76295Y284689D01*
X75787Y284790D01*
X34014D01*
X31837Y286966D01*
Y288087D01*
X32337Y288221D01*
X32736Y287530D01*
X33593Y286673D01*
X34642Y286068D01*
X35812Y285754D01*
X37023D01*
X38193Y286068D01*
X39242Y286673D01*
X40098Y287530D01*
X40704Y288579D01*
X41017Y289749D01*
Y290960D01*
X40704Y292130D01*
X40098Y293179D01*
X39242Y294035D01*
X38193Y294641D01*
X37023Y294954D01*
X35812D01*
X34642Y294641D01*
X33593Y294035D01*
X32736Y293179D01*
X32337Y292488D01*
X31837Y292621D01*
Y300632D01*
X36966Y305761D01*
X42930D01*
X43215Y305476D01*
X43913Y305187D01*
X44669D01*
X45368Y305476D01*
X45902Y306010D01*
X46191Y306709D01*
Y307465D01*
X45902Y308163D01*
X45368Y308697D01*
X44669Y308987D01*
D02*
G37*
G36*
X117036Y295054D02*
X116917D01*
Y290854D01*
X121117D01*
Y290973D01*
X120797Y292168D01*
X120178Y293240D01*
X119303Y294115D01*
X118231Y294734D01*
X117036Y295054D01*
D02*
G37*
G36*
X115917D02*
X115799D01*
X114603Y294734D01*
X113531Y294115D01*
X112656Y293240D01*
X112038Y292168D01*
X111717Y290973D01*
Y290854D01*
X115917D01*
Y295054D01*
D02*
G37*
G36*
X175819Y301589D02*
X174575D01*
X173355Y301346D01*
X172206Y300870D01*
X171172Y300180D01*
X170293Y299300D01*
X169602Y298266D01*
X169126Y297117D01*
X168884Y295897D01*
Y294654D01*
X169126Y293434D01*
X169602Y292285D01*
X170293Y291251D01*
X171172Y290372D01*
X172206Y289681D01*
X173355Y289205D01*
X174575Y288962D01*
X175819D01*
X177038Y289205D01*
X178187Y289681D01*
X179221Y290372D01*
X180101Y291251D01*
X180792Y292285D01*
X181268Y293434D01*
X181510Y294654D01*
Y295897D01*
X181268Y297117D01*
X180792Y298266D01*
X180101Y299300D01*
X179221Y300180D01*
X178187Y300870D01*
X177038Y301346D01*
X175819Y301589D01*
D02*
G37*
G36*
X18338D02*
X17095D01*
X15875Y301346D01*
X14726Y300870D01*
X13692Y300180D01*
X12813Y299300D01*
X12122Y298266D01*
X11646Y297117D01*
X11403Y295897D01*
Y294654D01*
X11646Y293434D01*
X12122Y292285D01*
X12813Y291251D01*
X13692Y290372D01*
X14726Y289681D01*
X15875Y289205D01*
X17095Y288962D01*
X18338D01*
X19558Y289205D01*
X20707Y289681D01*
X21741Y290372D01*
X22621Y291251D01*
X23311Y292285D01*
X23787Y293434D01*
X24030Y294654D01*
Y295897D01*
X23787Y297117D01*
X23311Y298266D01*
X22621Y299300D01*
X21741Y300180D01*
X20707Y300870D01*
X19558Y301346D01*
X18338Y301589D01*
D02*
G37*
G36*
X151017Y294954D02*
X141817D01*
Y285754D01*
X151017D01*
Y294954D01*
D02*
G37*
G36*
X77023D02*
X75812D01*
X74642Y294641D01*
X73593Y294035D01*
X72736Y293179D01*
X72131Y292130D01*
X71817Y290960D01*
Y289749D01*
X72131Y288579D01*
X72736Y287530D01*
X73593Y286673D01*
X74642Y286068D01*
X75812Y285754D01*
X77023D01*
X78193Y286068D01*
X79242Y286673D01*
X80098Y287530D01*
X80704Y288579D01*
X81017Y289749D01*
Y290960D01*
X80704Y292130D01*
X80098Y293179D01*
X79242Y294035D01*
X78193Y294641D01*
X77023Y294954D01*
D02*
G37*
G36*
X121117Y289854D02*
X116917D01*
Y285654D01*
X117036D01*
X118231Y285975D01*
X119303Y286593D01*
X120178Y287469D01*
X120797Y288540D01*
X121117Y289736D01*
Y289854D01*
D02*
G37*
G36*
X115917D02*
X111717D01*
Y289736D01*
X112038Y288540D01*
X112656Y287469D01*
X113531Y286593D01*
X114603Y285975D01*
X115799Y285654D01*
X115917D01*
Y289854D01*
D02*
G37*
G36*
X97023Y294954D02*
X95812D01*
X94642Y294641D01*
X93593Y294035D01*
X92736Y293179D01*
X92131Y292130D01*
X91817Y290960D01*
Y289749D01*
X92131Y288579D01*
X92736Y287530D01*
X93593Y286673D01*
X94642Y286068D01*
X95092Y285947D01*
Y284488D01*
X95124Y284328D01*
X94663Y284082D01*
X90507Y288238D01*
X90704Y288579D01*
X91017Y289749D01*
Y290960D01*
X90704Y292130D01*
X90098Y293179D01*
X89242Y294035D01*
X88193Y294641D01*
X87023Y294954D01*
X85812D01*
X84642Y294641D01*
X83593Y294035D01*
X82736Y293179D01*
X82131Y292130D01*
X81817Y290960D01*
Y289749D01*
X82131Y288579D01*
X82736Y287530D01*
X83593Y286673D01*
X84642Y286068D01*
X85812Y285754D01*
X87023D01*
X88193Y286068D01*
X88659Y286337D01*
X103415Y271581D01*
Y271276D01*
X103704Y270577D01*
X104239Y270043D01*
X104937Y269754D01*
X105693D01*
X106391Y270043D01*
X106926Y270577D01*
X107013Y270788D01*
X107554D01*
X107641Y270577D01*
X108176Y270043D01*
X108874Y269754D01*
X109630D01*
X110328Y270043D01*
X110863Y270577D01*
X111152Y271276D01*
Y272031D01*
X110863Y272730D01*
X110328Y273264D01*
X109630Y273553D01*
X109227D01*
X97743Y285037D01*
Y285947D01*
X98193Y286068D01*
X99242Y286673D01*
X100098Y287530D01*
X100704Y288579D01*
X101017Y289749D01*
Y290960D01*
X100704Y292130D01*
X100098Y293179D01*
X99242Y294035D01*
X98193Y294641D01*
X97023Y294954D01*
D02*
G37*
G36*
X84161Y285693D02*
Y283965D01*
X85890D01*
X85569Y284739D01*
X84936Y285372D01*
X84161Y285693D01*
D02*
G37*
G36*
X83161D02*
X82387Y285372D01*
X81754Y284739D01*
X81433Y283965D01*
X83161D01*
Y285693D01*
D02*
G37*
G36*
X85890Y282965D02*
X84161D01*
Y281236D01*
X84936Y281557D01*
X85569Y282190D01*
X85890Y282965D01*
D02*
G37*
G36*
X83161D02*
X81433D01*
X81754Y282190D01*
X82387Y281557D01*
X83161Y281236D01*
Y282965D01*
D02*
G37*
G36*
X157023Y289954D02*
X155812D01*
X154642Y289641D01*
X153593Y289035D01*
X152736Y288179D01*
X152131Y287130D01*
X151817Y285960D01*
Y284749D01*
X152131Y283579D01*
X152736Y282530D01*
X153593Y281673D01*
X154642Y281068D01*
X155812Y280754D01*
X157023D01*
X158193Y281068D01*
X159242Y281673D01*
X160098Y282530D01*
X160704Y283579D01*
X161017Y284749D01*
Y285960D01*
X160704Y287130D01*
X160098Y288179D01*
X159242Y289035D01*
X158193Y289641D01*
X157023Y289954D01*
D02*
G37*
G36*
X138295Y277819D02*
Y276091D01*
X140024D01*
X139703Y276865D01*
X139070Y277498D01*
X138295Y277819D01*
D02*
G37*
G36*
X137295D02*
X136521Y277498D01*
X135888Y276865D01*
X135567Y276091D01*
X137295D01*
Y277819D01*
D02*
G37*
G36*
X175697Y276835D02*
Y275106D01*
X177425D01*
X177104Y275881D01*
X176471Y276514D01*
X175697Y276835D01*
D02*
G37*
G36*
X174697D02*
X173922Y276514D01*
X173289Y275881D01*
X172969Y275106D01*
X174697D01*
Y276835D01*
D02*
G37*
G36*
X39870Y275850D02*
Y274122D01*
X41598D01*
X41278Y274897D01*
X40645Y275530D01*
X39870Y275850D01*
D02*
G37*
G36*
X38870D02*
X38096Y275530D01*
X37463Y274897D01*
X37142Y274122D01*
X38870D01*
Y275850D01*
D02*
G37*
G36*
X30028D02*
Y274122D01*
X31756D01*
X31435Y274897D01*
X30802Y275530D01*
X30028Y275850D01*
D02*
G37*
G36*
X29028D02*
X28253Y275530D01*
X27620Y274897D01*
X27299Y274122D01*
X29028D01*
Y275850D01*
D02*
G37*
G36*
X140024Y275091D02*
X138295D01*
Y273362D01*
X139070Y273683D01*
X139703Y274316D01*
X140024Y275091D01*
D02*
G37*
G36*
X137295D02*
X135567D01*
X135888Y274316D01*
X136521Y273683D01*
X137295Y273362D01*
Y275091D01*
D02*
G37*
G36*
X177425Y274106D02*
X175697D01*
Y272378D01*
X176471Y272699D01*
X177104Y273332D01*
X177425Y274106D01*
D02*
G37*
G36*
X174697D02*
X172969D01*
X173289Y273332D01*
X173922Y272699D01*
X174697Y272378D01*
Y274106D01*
D02*
G37*
G36*
X41598Y273122D02*
X39870D01*
Y271394D01*
X40645Y271715D01*
X41278Y272347D01*
X41598Y273122D01*
D02*
G37*
G36*
X38870D02*
X37142D01*
X37463Y272347D01*
X38096Y271715D01*
X38870Y271394D01*
Y273122D01*
D02*
G37*
G36*
X31756D02*
X30028D01*
Y271394D01*
X30802Y271715D01*
X31435Y272347D01*
X31756Y273122D01*
D02*
G37*
G36*
X29028D02*
X27299D01*
X27620Y272347D01*
X28253Y271715D01*
X29028Y271394D01*
Y273122D01*
D02*
G37*
G36*
X10343Y272898D02*
Y271169D01*
X12071D01*
X11750Y271944D01*
X11117Y272577D01*
X10343Y272898D01*
D02*
G37*
G36*
X9342D02*
X8568Y272577D01*
X7935Y271944D01*
X7614Y271169D01*
X9342D01*
Y272898D01*
D02*
G37*
G36*
X157023Y279954D02*
X155812D01*
X154642Y279641D01*
X153593Y279035D01*
X152736Y278179D01*
X152131Y277130D01*
X151817Y275960D01*
Y274749D01*
X152131Y273579D01*
X152736Y272530D01*
X153593Y271673D01*
X154642Y271068D01*
X155812Y270754D01*
X157023D01*
X158193Y271068D01*
X159242Y271673D01*
X160098Y272530D01*
X160704Y273579D01*
X161017Y274749D01*
Y275960D01*
X160704Y277130D01*
X160098Y278179D01*
X159242Y279035D01*
X158193Y279641D01*
X157023Y279954D01*
D02*
G37*
G36*
X12071Y270169D02*
X10343D01*
Y268441D01*
X11117Y268762D01*
X11750Y269395D01*
X12071Y270169D01*
D02*
G37*
G36*
X9342D02*
X7614D01*
X7935Y269395D01*
X8568Y268762D01*
X9342Y268441D01*
Y270169D01*
D02*
G37*
G36*
X84161Y269945D02*
Y268216D01*
X85890D01*
X85569Y268991D01*
X84936Y269624D01*
X84161Y269945D01*
D02*
G37*
G36*
X83161D02*
X82387Y269624D01*
X81754Y268991D01*
X81433Y268216D01*
X83161D01*
Y269945D01*
D02*
G37*
G36*
X175697Y267976D02*
Y266248D01*
X177425D01*
X177104Y267023D01*
X176471Y267655D01*
X175697Y267976D01*
D02*
G37*
G36*
X174697D02*
X173922Y267655D01*
X173289Y267023D01*
X172969Y266248D01*
X174697D01*
Y267976D01*
D02*
G37*
G36*
X138295D02*
Y266248D01*
X140024D01*
X139703Y267023D01*
X139070Y267655D01*
X138295Y267976D01*
D02*
G37*
G36*
X137295D02*
X136521Y267655D01*
X135888Y267023D01*
X135567Y266248D01*
X137295D01*
Y267976D01*
D02*
G37*
G36*
X85890Y267216D02*
X84161D01*
Y265488D01*
X84936Y265809D01*
X85569Y266442D01*
X85890Y267216D01*
D02*
G37*
G36*
X83161D02*
X81433D01*
X81754Y266442D01*
X82387Y265809D01*
X83161Y265488D01*
Y267216D01*
D02*
G37*
G36*
X177425Y265248D02*
X175697D01*
Y263520D01*
X176471Y263841D01*
X177104Y264474D01*
X177425Y265248D01*
D02*
G37*
G36*
X174697D02*
X172969D01*
X173289Y264474D01*
X173922Y263841D01*
X174697Y263520D01*
Y265248D01*
D02*
G37*
G36*
X140024D02*
X138295D01*
Y263520D01*
X139070Y263841D01*
X139703Y264474D01*
X140024Y265248D01*
D02*
G37*
G36*
X137295D02*
X135567D01*
X135888Y264474D01*
X136521Y263841D01*
X137295Y263520D01*
Y265248D01*
D02*
G37*
G36*
X91051Y263055D02*
Y261327D01*
X92779D01*
X92459Y262101D01*
X91826Y262734D01*
X91051Y263055D01*
D02*
G37*
G36*
X90051D02*
X89277Y262734D01*
X88644Y262101D01*
X88323Y261327D01*
X90051D01*
Y263055D01*
D02*
G37*
G36*
X77272D02*
Y261327D01*
X79000D01*
X78679Y262101D01*
X78046Y262734D01*
X77272Y263055D01*
D02*
G37*
G36*
X76272D02*
X75497Y262734D01*
X74864Y262101D01*
X74543Y261327D01*
X76272D01*
Y263055D01*
D02*
G37*
G36*
X10343D02*
Y261327D01*
X12071D01*
X11750Y262101D01*
X11117Y262734D01*
X10343Y263055D01*
D02*
G37*
G36*
X9342D02*
X8568Y262734D01*
X7935Y262101D01*
X7614Y261327D01*
X9342D01*
Y263055D01*
D02*
G37*
G36*
X37036Y265054D02*
X36917D01*
Y260854D01*
X41117D01*
Y260973D01*
X40797Y262169D01*
X40178Y263240D01*
X39303Y264115D01*
X38232Y264734D01*
X37036Y265054D01*
D02*
G37*
G36*
X35917D02*
X35799D01*
X34603Y264734D01*
X33531Y264115D01*
X32656Y263240D01*
X32038Y262169D01*
X31717Y260973D01*
Y260854D01*
X35917D01*
Y265054D01*
D02*
G37*
G36*
X137023Y294954D02*
X135812D01*
X134642Y294641D01*
X133593Y294035D01*
X132736Y293179D01*
X132131Y292130D01*
X131817Y290960D01*
Y289749D01*
X132131Y288579D01*
X132736Y287530D01*
X133593Y286673D01*
X134642Y286068D01*
X135092Y285947D01*
Y285354D01*
X135193Y284847D01*
X135480Y284417D01*
X152364Y267533D01*
X152131Y267130D01*
X151817Y265960D01*
Y264749D01*
X152131Y263579D01*
X152736Y262530D01*
X153593Y261673D01*
X154642Y261068D01*
X155812Y260754D01*
X157023D01*
X158193Y261068D01*
X159242Y261673D01*
X160098Y262530D01*
X160704Y263579D01*
X161017Y264749D01*
Y265960D01*
X160704Y267130D01*
X160098Y268179D01*
X159242Y269035D01*
X158193Y269641D01*
X157023Y269954D01*
X155812D01*
X154642Y269641D01*
X154238Y269408D01*
X138117Y285530D01*
X138166Y285882D01*
X138251Y286102D01*
X139242Y286673D01*
X140098Y287530D01*
X140704Y288579D01*
X141017Y289749D01*
Y290960D01*
X140704Y292130D01*
X140098Y293179D01*
X139242Y294035D01*
X138193Y294641D01*
X137023Y294954D01*
D02*
G37*
G36*
X107023D02*
X105812D01*
X104642Y294641D01*
X103593Y294035D01*
X102736Y293179D01*
X102131Y292130D01*
X101817Y290960D01*
Y289749D01*
X102131Y288579D01*
X102736Y287530D01*
X103593Y286673D01*
X104642Y286068D01*
X105812Y285754D01*
X107023D01*
X108193Y286068D01*
X108596Y286301D01*
X111864Y283034D01*
Y267281D01*
X107309Y262727D01*
X106905D01*
X106207Y262438D01*
X105673Y261903D01*
X105384Y261205D01*
Y260449D01*
X105673Y259751D01*
X106207Y259216D01*
X106905Y258927D01*
X107661D01*
X108360Y259216D01*
X108894Y259751D01*
X109184Y260449D01*
Y260852D01*
X114126Y265795D01*
X114414Y266225D01*
X114515Y266732D01*
Y283583D01*
X114414Y284090D01*
X114126Y284520D01*
X110471Y288175D01*
X110704Y288579D01*
X111017Y289749D01*
Y290960D01*
X110704Y292130D01*
X110098Y293179D01*
X109242Y294035D01*
X108193Y294641D01*
X107023Y294954D01*
D02*
G37*
G36*
X59433Y264695D02*
X58677D01*
X57979Y264406D01*
X57444Y263872D01*
X57155Y263173D01*
Y262417D01*
X57444Y261719D01*
X57979Y261185D01*
X58677Y260895D01*
X59081D01*
X60086Y259890D01*
X60516Y259602D01*
X61024Y259501D01*
X68520D01*
X68806Y259216D01*
X69504Y258927D01*
X70260D01*
X70958Y259216D01*
X71493Y259751D01*
X71782Y260449D01*
Y261205D01*
X71493Y261903D01*
X70958Y262438D01*
X70260Y262727D01*
X69504D01*
X68806Y262438D01*
X68520Y262152D01*
X61573D01*
X60955Y262770D01*
Y263173D01*
X60666Y263872D01*
X60131Y264406D01*
X59433Y264695D01*
D02*
G37*
G36*
X92779Y260327D02*
X91051D01*
Y258598D01*
X91826Y258919D01*
X92459Y259552D01*
X92779Y260327D01*
D02*
G37*
G36*
X90051D02*
X88323D01*
X88644Y259552D01*
X89277Y258919D01*
X90051Y258598D01*
Y260327D01*
D02*
G37*
G36*
X79000D02*
X77272D01*
Y258598D01*
X78046Y258919D01*
X78679Y259552D01*
X79000Y260327D01*
D02*
G37*
G36*
X76272D02*
X74543D01*
X74864Y259552D01*
X75497Y258919D01*
X76272Y258598D01*
Y260327D01*
D02*
G37*
G36*
X12071D02*
X10343D01*
Y258598D01*
X11117Y258919D01*
X11750Y259552D01*
X12071Y260327D01*
D02*
G37*
G36*
X9342D02*
X7614D01*
X7935Y259552D01*
X8568Y258919D01*
X9342Y258598D01*
Y260327D01*
D02*
G37*
G36*
X125500Y260102D02*
Y258374D01*
X127228D01*
X126908Y259149D01*
X126275Y259782D01*
X125500Y260102D01*
D02*
G37*
G36*
X124500D02*
X123725Y259782D01*
X123092Y259149D01*
X122772Y258374D01*
X124500D01*
Y260102D01*
D02*
G37*
G36*
X112705D02*
Y258374D01*
X114433D01*
X114112Y259149D01*
X113479Y259782D01*
X112705Y260102D01*
D02*
G37*
G36*
X111705D02*
X110930Y259782D01*
X110297Y259149D01*
X109976Y258374D01*
X111705D01*
Y260102D01*
D02*
G37*
G36*
X52665Y258847D02*
Y257390D01*
X54123D01*
X53861Y258023D01*
X53298Y258585D01*
X52665Y258847D01*
D02*
G37*
G36*
X51665D02*
X51032Y258585D01*
X50470Y258023D01*
X50208Y257390D01*
X51665D01*
Y258847D01*
D02*
G37*
G36*
X175697Y258134D02*
Y256405D01*
X177425D01*
X177104Y257180D01*
X176471Y257813D01*
X175697Y258134D01*
D02*
G37*
G36*
X174697D02*
X173922Y257813D01*
X173289Y257180D01*
X172969Y256405D01*
X174697D01*
Y258134D01*
D02*
G37*
G36*
X41117Y259854D02*
X36917D01*
Y255654D01*
X37036D01*
X38232Y255975D01*
X39303Y256593D01*
X40178Y257469D01*
X40797Y258540D01*
X41117Y259736D01*
Y259854D01*
D02*
G37*
G36*
X35917D02*
X31717D01*
Y259736D01*
X32038Y258540D01*
X32656Y257469D01*
X33531Y256593D01*
X34603Y255975D01*
X35799Y255654D01*
X35917D01*
Y259854D01*
D02*
G37*
G36*
X127228Y257374D02*
X125500D01*
Y255646D01*
X126275Y255967D01*
X126908Y256599D01*
X127228Y257374D01*
D02*
G37*
G36*
X124500D02*
X122772D01*
X123092Y256599D01*
X123725Y255967D01*
X124500Y255646D01*
Y257374D01*
D02*
G37*
G36*
X114433D02*
X112705D01*
Y255646D01*
X113479Y255967D01*
X114112Y256599D01*
X114433Y257374D01*
D02*
G37*
G36*
X111705D02*
X109976D01*
X110297Y256599D01*
X110930Y255967D01*
X111705Y255646D01*
Y257374D01*
D02*
G37*
G36*
X54123Y256390D02*
X52665D01*
Y254932D01*
X53298Y255194D01*
X53861Y255757D01*
X54123Y256390D01*
D02*
G37*
G36*
X51665D02*
X50208D01*
X50470Y255757D01*
X51032Y255194D01*
X51665Y254932D01*
Y256390D01*
D02*
G37*
G36*
X84161Y256165D02*
Y254437D01*
X85890D01*
X85569Y255211D01*
X84936Y255844D01*
X84161Y256165D01*
D02*
G37*
G36*
X83161D02*
X82387Y255844D01*
X81754Y255211D01*
X81433Y254437D01*
X83161D01*
Y256165D01*
D02*
G37*
G36*
X177425Y255405D02*
X175697D01*
Y253677D01*
X176471Y253998D01*
X177104Y254631D01*
X177425Y255405D01*
D02*
G37*
G36*
X174697D02*
X172969D01*
X173289Y254631D01*
X173922Y253998D01*
X174697Y253677D01*
Y255405D01*
D02*
G37*
G36*
X85890Y253437D02*
X84161D01*
Y251709D01*
X84936Y252030D01*
X85569Y252662D01*
X85890Y253437D01*
D02*
G37*
G36*
X83161D02*
X81433D01*
X81754Y252662D01*
X82387Y252030D01*
X83161Y251709D01*
Y253437D01*
D02*
G37*
G36*
X10343Y253212D02*
Y251484D01*
X12071D01*
X11750Y252259D01*
X11117Y252892D01*
X10343Y253212D01*
D02*
G37*
G36*
X9342D02*
X8568Y252892D01*
X7935Y252259D01*
X7614Y251484D01*
X9342D01*
Y253212D01*
D02*
G37*
G36*
X157023Y259954D02*
X155812D01*
X154642Y259641D01*
X153593Y259035D01*
X152736Y258179D01*
X152131Y257130D01*
X151817Y255960D01*
Y254749D01*
X152131Y253579D01*
X152736Y252530D01*
X153593Y251673D01*
X154642Y251068D01*
X155812Y250754D01*
X157023D01*
X158193Y251068D01*
X159242Y251673D01*
X160098Y252530D01*
X160704Y253579D01*
X161017Y254749D01*
Y255960D01*
X160704Y257130D01*
X160098Y258179D01*
X159242Y259035D01*
X158193Y259641D01*
X157023Y259954D01*
D02*
G37*
G36*
X12071Y250484D02*
X10343D01*
Y248756D01*
X11117Y249077D01*
X11750Y249710D01*
X12071Y250484D01*
D02*
G37*
G36*
X9342D02*
X7614D01*
X7935Y249710D01*
X8568Y249077D01*
X9342Y248756D01*
Y250484D01*
D02*
G37*
G36*
X157036Y250054D02*
X156917D01*
Y245854D01*
X161117D01*
Y245973D01*
X160797Y247168D01*
X160178Y248240D01*
X159303Y249115D01*
X158231Y249734D01*
X157036Y250054D01*
D02*
G37*
G36*
X155917D02*
X155799D01*
X154603Y249734D01*
X153531Y249115D01*
X152656Y248240D01*
X152038Y247168D01*
X151717Y245973D01*
Y245854D01*
X155917D01*
Y250054D01*
D02*
G37*
G36*
X37023Y254954D02*
X35812D01*
X34642Y254641D01*
X33593Y254035D01*
X32736Y253179D01*
X32131Y252130D01*
X31817Y250960D01*
Y249749D01*
X32131Y248579D01*
X32736Y247530D01*
X33593Y246673D01*
X34642Y246068D01*
X35812Y245754D01*
X37023D01*
X38193Y246068D01*
X39242Y246673D01*
X39626Y247057D01*
X39929Y246754D01*
X40359Y246467D01*
X40866Y246366D01*
X62341D01*
X62626Y246080D01*
X63325Y245791D01*
X64081D01*
X64779Y246080D01*
X65314Y246615D01*
X65603Y247313D01*
Y248069D01*
X65314Y248767D01*
X64779Y249302D01*
X64081Y249591D01*
X63325D01*
X62626Y249302D01*
X62341Y249017D01*
X41415D01*
X40947Y249485D01*
X41017Y249749D01*
Y250960D01*
X40704Y252130D01*
X40098Y253179D01*
X39242Y254035D01*
X38193Y254641D01*
X37023Y254954D01*
D02*
G37*
G36*
X141255Y243438D02*
Y241710D01*
X142984D01*
X142663Y242485D01*
X142030Y243117D01*
X141255Y243438D01*
D02*
G37*
G36*
X140255D02*
X139481Y243117D01*
X138848Y242485D01*
X138527Y241710D01*
X140255D01*
Y243438D01*
D02*
G37*
G36*
X134358Y243370D02*
Y241642D01*
X136086D01*
X135766Y242416D01*
X135133Y243049D01*
X134358Y243370D01*
D02*
G37*
G36*
X161117Y244854D02*
X156917D01*
Y240654D01*
X157036D01*
X158231Y240975D01*
X159303Y241593D01*
X160178Y242469D01*
X160797Y243540D01*
X161117Y244736D01*
Y244854D01*
D02*
G37*
G36*
X155917D02*
X151717D01*
Y244736D01*
X152038Y243540D01*
X152656Y242469D01*
X153531Y241593D01*
X154603Y240975D01*
X155799Y240654D01*
X155917D01*
Y244854D01*
D02*
G37*
G36*
X37023Y244954D02*
X35812D01*
X34642Y244641D01*
X33593Y244035D01*
X32736Y243179D01*
X32131Y242130D01*
X31817Y240960D01*
Y239749D01*
X32131Y238579D01*
X32736Y237530D01*
X33593Y236673D01*
X34642Y236068D01*
X35812Y235754D01*
X37023D01*
X38193Y236068D01*
X39242Y236673D01*
X40098Y237530D01*
X40704Y238579D01*
X40824Y239029D01*
X69797D01*
X70305Y239130D01*
X70478Y239246D01*
X70488Y239242D01*
X71244D01*
X71942Y239531D01*
X72477Y240066D01*
X72766Y240764D01*
Y241520D01*
X72477Y242218D01*
X71942Y242753D01*
X71244Y243042D01*
X70488D01*
X69790Y242753D01*
X69255Y242218D01*
X69033Y241680D01*
X40824D01*
X40704Y242130D01*
X40098Y243179D01*
X39242Y244035D01*
X38193Y244641D01*
X37023Y244954D01*
D02*
G37*
G36*
X142984Y240710D02*
X141255D01*
Y238982D01*
X142030Y239303D01*
X142663Y239935D01*
X142984Y240710D01*
D02*
G37*
G36*
X140255D02*
X138527D01*
X138848Y239935D01*
X139481Y239303D01*
X140255Y238982D01*
Y240710D01*
D02*
G37*
G36*
X136086Y240642D02*
X134358D01*
Y238913D01*
X135133Y239234D01*
X135766Y239867D01*
X136086Y240642D01*
D02*
G37*
G36*
X127023Y294954D02*
X125812D01*
X124642Y294641D01*
X123593Y294035D01*
X122736Y293179D01*
X122131Y292130D01*
X121817Y290960D01*
Y289749D01*
X122131Y288579D01*
X122736Y287530D01*
X123593Y286673D01*
X124642Y286068D01*
X125812Y285754D01*
X127023D01*
X128193Y286068D01*
X128596Y286301D01*
X129580Y285317D01*
Y243659D01*
X125480Y239559D01*
X125193Y239129D01*
X125092Y238622D01*
Y234761D01*
X124642Y234641D01*
X123593Y234035D01*
X122736Y233179D01*
X122131Y232130D01*
X121817Y230960D01*
Y229749D01*
X122131Y228579D01*
X122736Y227530D01*
X123593Y226673D01*
X124642Y226068D01*
X125092Y225947D01*
Y219486D01*
X104766Y199160D01*
X82070D01*
X81785Y199445D01*
X81087Y199735D01*
X80331D01*
X79632Y199445D01*
X79098Y198911D01*
X78809Y198213D01*
Y197457D01*
X79098Y196758D01*
X79383Y196473D01*
Y147203D01*
X68349Y136168D01*
X65352D01*
X59897Y141623D01*
X60059Y141904D01*
X60349Y142984D01*
Y144102D01*
X60059Y145182D01*
X59500Y146151D01*
X58710Y146941D01*
X57741Y147500D01*
X56661Y147790D01*
X55543D01*
X54463Y147500D01*
X53495Y146941D01*
X52704Y146151D01*
X52145Y145182D01*
X51856Y144102D01*
Y142984D01*
X52145Y141904D01*
X52704Y140936D01*
X53495Y140145D01*
X54463Y139586D01*
X55543Y139297D01*
X56661D01*
X57741Y139586D01*
X58023Y139749D01*
X63866Y133905D01*
X64296Y133618D01*
X64803Y133517D01*
X64803Y133517D01*
X68898D01*
X69405Y133618D01*
X69835Y133905D01*
X81646Y145716D01*
X81933Y146146D01*
X82034Y146653D01*
Y196473D01*
X82070Y196509D01*
X105315D01*
X105822Y196610D01*
X106252Y196897D01*
X127355Y218000D01*
X127642Y218430D01*
X127743Y218937D01*
Y225947D01*
X128193Y226068D01*
X129242Y226673D01*
X130098Y227530D01*
X130704Y228579D01*
X131017Y229749D01*
Y230960D01*
X130704Y232130D01*
X130098Y233179D01*
X129242Y234035D01*
X128193Y234641D01*
X127743Y234761D01*
Y238073D01*
X131108Y241439D01*
X131608Y241231D01*
Y240694D01*
X131951Y239867D01*
X132584Y239234D01*
X133358Y238913D01*
Y241142D01*
Y243370D01*
X132731Y243110D01*
X132333Y243301D01*
X132231Y243403D01*
Y285866D01*
X132130Y286373D01*
X131843Y286803D01*
X130471Y288175D01*
X130704Y288579D01*
X131017Y289749D01*
Y290960D01*
X130704Y292130D01*
X130098Y293179D01*
X129242Y294035D01*
X128193Y294641D01*
X127023Y294954D01*
D02*
G37*
G36*
X157036Y240054D02*
X156917D01*
Y235854D01*
X161117D01*
Y235973D01*
X160797Y237169D01*
X160178Y238240D01*
X159303Y239115D01*
X158231Y239734D01*
X157036Y240054D01*
D02*
G37*
G36*
X155917D02*
X155799D01*
X154603Y239734D01*
X153531Y239115D01*
X152656Y238240D01*
X152038Y237169D01*
X151717Y235973D01*
Y235854D01*
X155917D01*
Y240054D01*
D02*
G37*
G36*
X112023Y244954D02*
X110812D01*
X109642Y244641D01*
X108593Y244035D01*
X107736Y243179D01*
X107131Y242130D01*
X106817Y240960D01*
Y239749D01*
X107131Y238579D01*
X107736Y237530D01*
X108593Y236673D01*
X109642Y236068D01*
X110812Y235754D01*
X112023D01*
X113193Y236068D01*
X114242Y236673D01*
X115098Y237530D01*
X115704Y238579D01*
X116017Y239749D01*
Y240960D01*
X115704Y242130D01*
X115098Y243179D01*
X114242Y244035D01*
X113193Y244641D01*
X112023Y244954D01*
D02*
G37*
G36*
X102023D02*
X100812D01*
X99642Y244641D01*
X98593Y244035D01*
X97736Y243179D01*
X97131Y242130D01*
X96817Y240960D01*
Y239749D01*
X97131Y238579D01*
X97736Y237530D01*
X98593Y236673D01*
X99642Y236068D01*
X100092Y235947D01*
Y233839D01*
X99630Y233647D01*
X99242Y234035D01*
X98193Y234641D01*
X97023Y234954D01*
X95812D01*
X94642Y234641D01*
X93593Y234035D01*
X92736Y233179D01*
X92131Y232130D01*
X91817Y230960D01*
Y229749D01*
X92131Y228579D01*
X92736Y227530D01*
X93593Y226673D01*
X94642Y226068D01*
X95812Y225754D01*
X97023D01*
X98193Y226068D01*
X99242Y226673D01*
X99630Y227062D01*
X100092Y226870D01*
Y225354D01*
X100193Y224847D01*
X100480Y224417D01*
X111289Y213608D01*
Y213205D01*
X111578Y212506D01*
X112113Y211972D01*
X112811Y211683D01*
X113567D01*
X114265Y211972D01*
X114800Y212506D01*
X115089Y213205D01*
Y213961D01*
X114800Y214659D01*
X114265Y215193D01*
X113567Y215483D01*
X113163D01*
X102743Y225903D01*
Y226870D01*
X103205Y227062D01*
X103593Y226673D01*
X104642Y226068D01*
X105812Y225754D01*
X107023D01*
X108193Y226068D01*
X109242Y226673D01*
X110098Y227530D01*
X110704Y228579D01*
X111017Y229749D01*
Y230960D01*
X110704Y232130D01*
X110098Y233179D01*
X109242Y234035D01*
X108193Y234641D01*
X107023Y234954D01*
X105812D01*
X104642Y234641D01*
X103593Y234035D01*
X103205Y233647D01*
X102743Y233839D01*
Y235947D01*
X103193Y236068D01*
X104242Y236673D01*
X105098Y237530D01*
X105704Y238579D01*
X106017Y239749D01*
Y240960D01*
X105704Y242130D01*
X105098Y243179D01*
X104242Y244035D01*
X103193Y244641D01*
X102023Y244954D01*
D02*
G37*
G36*
X137036Y235054D02*
X136917D01*
Y230854D01*
X141117D01*
Y230973D01*
X140797Y232169D01*
X140178Y233240D01*
X139303Y234115D01*
X138231Y234734D01*
X137036Y235054D01*
D02*
G37*
G36*
X135917D02*
X135799D01*
X134603Y234734D01*
X133531Y234115D01*
X132656Y233240D01*
X132038Y232169D01*
X131717Y230973D01*
Y230854D01*
X135917D01*
Y235054D01*
D02*
G37*
G36*
X161117Y234854D02*
X156917D01*
Y230654D01*
X157036D01*
X158231Y230975D01*
X159303Y231593D01*
X160178Y232469D01*
X160797Y233540D01*
X161117Y234736D01*
Y234854D01*
D02*
G37*
G36*
X155917D02*
X151717D01*
Y234736D01*
X152038Y233540D01*
X152656Y232469D01*
X153531Y231593D01*
X154603Y230975D01*
X155799Y230654D01*
X155917D01*
Y234854D01*
D02*
G37*
G36*
X147023Y234954D02*
X145812D01*
X144642Y234641D01*
X143593Y234035D01*
X142736Y233179D01*
X142131Y232130D01*
X141817Y230960D01*
Y229749D01*
X142131Y228579D01*
X142736Y227530D01*
X143593Y226673D01*
X144642Y226068D01*
X145812Y225754D01*
X147023D01*
X148193Y226068D01*
X149242Y226673D01*
X150098Y227530D01*
X150704Y228579D01*
X151017Y229749D01*
Y230960D01*
X150704Y232130D01*
X150098Y233179D01*
X149242Y234035D01*
X148193Y234641D01*
X147023Y234954D01*
D02*
G37*
G36*
X117504Y262727D02*
X116748D01*
X116050Y262438D01*
X115515Y261903D01*
X115226Y261205D01*
Y260449D01*
X115515Y259751D01*
X116050Y259216D01*
X116748Y258927D01*
X116863D01*
Y234954D01*
X115812D01*
X114642Y234641D01*
X113593Y234035D01*
X112736Y233179D01*
X112131Y232130D01*
X111817Y230960D01*
Y229749D01*
X112131Y228579D01*
X112736Y227530D01*
X113593Y226673D01*
X114642Y226068D01*
X115812Y225754D01*
X117023D01*
X118193Y226068D01*
X119242Y226673D01*
X120098Y227530D01*
X120704Y228579D01*
X121017Y229749D01*
Y230960D01*
X120704Y232130D01*
X120098Y233179D01*
X119489Y233788D01*
X119513Y233911D01*
Y259758D01*
X119413Y260265D01*
X119125Y260695D01*
X119026Y260795D01*
Y261205D01*
X118737Y261903D01*
X118202Y262438D01*
X117504Y262727D01*
D02*
G37*
G36*
X87023Y234954D02*
X85812D01*
X84642Y234641D01*
X83593Y234035D01*
X82736Y233179D01*
X82131Y232130D01*
X81817Y230960D01*
Y229749D01*
X82131Y228579D01*
X82736Y227530D01*
X83593Y226673D01*
X84642Y226068D01*
X85812Y225754D01*
X87023D01*
X88193Y226068D01*
X89242Y226673D01*
X90098Y227530D01*
X90704Y228579D01*
X91017Y229749D01*
Y230960D01*
X90704Y232130D01*
X90098Y233179D01*
X89242Y234035D01*
X88193Y234641D01*
X87023Y234954D01*
D02*
G37*
G36*
X77023D02*
X75812D01*
X74642Y234641D01*
X73593Y234035D01*
X72736Y233179D01*
X72131Y232130D01*
X71817Y230960D01*
Y229749D01*
X72131Y228579D01*
X72736Y227530D01*
X73593Y226673D01*
X74642Y226068D01*
X75812Y225754D01*
X77023D01*
X78193Y226068D01*
X79242Y226673D01*
X80098Y227530D01*
X80704Y228579D01*
X81017Y229749D01*
Y230960D01*
X80704Y232130D01*
X80098Y233179D01*
X79242Y234035D01*
X78193Y234641D01*
X77023Y234954D01*
D02*
G37*
G36*
X57023D02*
X55812D01*
X54642Y234641D01*
X53593Y234035D01*
X52736Y233179D01*
X52131Y232130D01*
X51817Y230960D01*
Y229749D01*
X52131Y228579D01*
X52736Y227530D01*
X53593Y226673D01*
X54642Y226068D01*
X55812Y225754D01*
X57023D01*
X58193Y226068D01*
X59242Y226673D01*
X60098Y227530D01*
X60704Y228579D01*
X61017Y229749D01*
Y230960D01*
X60704Y232130D01*
X60098Y233179D01*
X59242Y234035D01*
X58193Y234641D01*
X57023Y234954D01*
D02*
G37*
G36*
X141117Y229854D02*
X136917D01*
Y225654D01*
X137036D01*
X138231Y225975D01*
X139303Y226593D01*
X140178Y227468D01*
X140797Y228540D01*
X141117Y229736D01*
Y229854D01*
D02*
G37*
G36*
X135917D02*
X131717D01*
Y229736D01*
X132038Y228540D01*
X132656Y227468D01*
X133531Y226593D01*
X134603Y225975D01*
X135799Y225654D01*
X135917D01*
Y229854D01*
D02*
G37*
G36*
X90067Y223685D02*
Y221957D01*
X91795D01*
X91474Y222731D01*
X90841Y223364D01*
X90067Y223685D01*
D02*
G37*
G36*
X89067D02*
X88292Y223364D01*
X87660Y222731D01*
X87339Y221957D01*
X89067D01*
Y223685D01*
D02*
G37*
G36*
X83177D02*
Y221957D01*
X84905D01*
X84585Y222731D01*
X83952Y223364D01*
X83177Y223685D01*
D02*
G37*
G36*
X82177D02*
X81403Y223364D01*
X80770Y222731D01*
X80449Y221957D01*
X82177D01*
Y223685D01*
D02*
G37*
G36*
X91795Y220957D02*
X90067D01*
Y219228D01*
X90841Y219549D01*
X91474Y220182D01*
X91795Y220957D01*
D02*
G37*
G36*
X89067D02*
X87339D01*
X87660Y220182D01*
X88292Y219549D01*
X89067Y219228D01*
Y220957D01*
D02*
G37*
G36*
X84905D02*
X83177D01*
Y219228D01*
X83952Y219549D01*
X84585Y220182D01*
X84905Y220957D01*
D02*
G37*
G36*
X82177D02*
X80449D01*
X80770Y220182D01*
X81403Y219549D01*
X82177Y219228D01*
Y220957D01*
D02*
G37*
G36*
X171760Y218321D02*
Y215067D01*
X175014D01*
X174760Y216017D01*
X174265Y216873D01*
X173566Y217572D01*
X172710Y218067D01*
X171760Y218321D01*
D02*
G37*
G36*
X170760D02*
X169810Y218067D01*
X168954Y217572D01*
X168254Y216873D01*
X167760Y216017D01*
X167505Y215067D01*
X170760D01*
Y218321D01*
D02*
G37*
G36*
X15427Y222238D02*
X6227D01*
Y213038D01*
X15427D01*
Y222238D01*
D02*
G37*
G36*
X155028Y213842D02*
Y212114D01*
X156756D01*
X156435Y212889D01*
X155802Y213522D01*
X155028Y213842D01*
D02*
G37*
G36*
X154028D02*
X153253Y213522D01*
X152620Y212889D01*
X152299Y212114D01*
X154028D01*
Y213842D01*
D02*
G37*
G36*
X30028D02*
Y212114D01*
X31756D01*
X31435Y212889D01*
X30802Y213522D01*
X30028Y213842D01*
D02*
G37*
G36*
X29028D02*
X28253Y213522D01*
X27620Y212889D01*
X27299Y212114D01*
X29028D01*
Y213842D01*
D02*
G37*
G36*
X184916Y218223D02*
X177604D01*
Y210911D01*
X184916D01*
Y218223D01*
D02*
G37*
G36*
X170760Y214067D02*
X167505D01*
X167760Y213117D01*
X168254Y212261D01*
X168954Y211561D01*
X169810Y211067D01*
X170760Y210812D01*
Y214067D01*
D02*
G37*
G36*
X175014D02*
X171760D01*
Y210812D01*
X172710Y211067D01*
X173566Y211561D01*
X174265Y212261D01*
X174760Y213117D01*
X175014Y214067D01*
D02*
G37*
G36*
X156756Y211114D02*
X155028D01*
Y209386D01*
X155802Y209707D01*
X156435Y210340D01*
X156756Y211114D01*
D02*
G37*
G36*
X154028D02*
X152299D01*
X152620Y210340D01*
X153253Y209707D01*
X154028Y209386D01*
Y211114D01*
D02*
G37*
G36*
X31756D02*
X30028D01*
Y209386D01*
X30802Y209707D01*
X31435Y210340D01*
X31756Y211114D01*
D02*
G37*
G36*
X29028D02*
X27299D01*
X27620Y210340D01*
X28253Y209707D01*
X29028Y209386D01*
Y211114D01*
D02*
G37*
G36*
X11432Y212238D02*
X10221D01*
X9051Y211924D01*
X8002Y211319D01*
X7146Y210462D01*
X6540Y209413D01*
X6227Y208243D01*
Y207032D01*
X6540Y205862D01*
X7146Y204813D01*
X8002Y203957D01*
X9051Y203351D01*
X10221Y203038D01*
X11432D01*
X12602Y203351D01*
X13651Y203957D01*
X14508Y204813D01*
X15113Y205862D01*
X15427Y207032D01*
Y208243D01*
X15113Y209413D01*
X14508Y210462D01*
X13651Y211319D01*
X12602Y211924D01*
X11432Y212238D01*
D02*
G37*
G36*
X155028Y204000D02*
Y202272D01*
X156756D01*
X156435Y203046D01*
X155802Y203679D01*
X155028Y204000D01*
D02*
G37*
G36*
X154028D02*
X153253Y203679D01*
X152620Y203046D01*
X152299Y202272D01*
X154028D01*
Y204000D01*
D02*
G37*
G36*
X30028D02*
Y202272D01*
X31756D01*
X31435Y203046D01*
X30802Y203679D01*
X30028Y204000D01*
D02*
G37*
G36*
X29028D02*
X28253Y203679D01*
X27620Y203046D01*
X27299Y202272D01*
X29028D01*
Y204000D01*
D02*
G37*
G36*
X156756Y201272D02*
X155028D01*
Y199543D01*
X155802Y199864D01*
X156435Y200497D01*
X156756Y201272D01*
D02*
G37*
G36*
X154028D02*
X152299D01*
X152620Y200497D01*
X153253Y199864D01*
X154028Y199543D01*
Y201272D01*
D02*
G37*
G36*
X31756D02*
X30028D01*
Y199543D01*
X30802Y199864D01*
X31435Y200497D01*
X31756Y201272D01*
D02*
G37*
G36*
X29028D02*
X27299D01*
X27620Y200497D01*
X28253Y199864D01*
X29028Y199543D01*
Y201272D01*
D02*
G37*
G36*
X11445Y202338D02*
X11327D01*
Y198138D01*
X15527D01*
Y198257D01*
X15206Y199452D01*
X14588Y200524D01*
X13713Y201399D01*
X12641Y202017D01*
X11445Y202338D01*
D02*
G37*
G36*
X10327D02*
X10208D01*
X9013Y202017D01*
X7941Y201399D01*
X7066Y200524D01*
X6447Y199452D01*
X6127Y198257D01*
Y198138D01*
X10327D01*
Y202338D01*
D02*
G37*
G36*
X113689Y199079D02*
Y197350D01*
X115417D01*
X115096Y198125D01*
X114463Y198758D01*
X113689Y199079D01*
D02*
G37*
G36*
X112689D02*
X111915Y198758D01*
X111282Y198125D01*
X110961Y197350D01*
X112689D01*
Y199079D01*
D02*
G37*
G36*
X115417Y196350D02*
X113689D01*
Y194622D01*
X114463Y194943D01*
X115096Y195576D01*
X115417Y196350D01*
D02*
G37*
G36*
X112689D02*
X110961D01*
X111282Y195576D01*
X111915Y194943D01*
X112689Y194622D01*
Y196350D01*
D02*
G37*
G36*
X86130Y195142D02*
Y193413D01*
X87858D01*
X87537Y194188D01*
X86904Y194821D01*
X86130Y195142D01*
D02*
G37*
G36*
X85130D02*
X84355Y194821D01*
X83723Y194188D01*
X83402Y193413D01*
X85130D01*
Y195142D01*
D02*
G37*
G36*
X68413D02*
Y193413D01*
X70142D01*
X69821Y194188D01*
X69188Y194821D01*
X68413Y195142D01*
D02*
G37*
G36*
X67413D02*
X66639Y194821D01*
X66006Y194188D01*
X65685Y193413D01*
X67413D01*
Y195142D01*
D02*
G37*
G36*
X15527Y197138D02*
X11327D01*
Y192938D01*
X11445D01*
X12641Y193258D01*
X13713Y193877D01*
X14588Y194752D01*
X15206Y195824D01*
X15527Y197019D01*
Y197138D01*
D02*
G37*
G36*
X10327D02*
X6127D01*
Y197019D01*
X6447Y195824D01*
X7066Y194752D01*
X7941Y193877D01*
X9013Y193258D01*
X10208Y192938D01*
X10327D01*
Y197138D01*
D02*
G37*
G36*
X49713Y194157D02*
Y192429D01*
X51441D01*
X51120Y193204D01*
X50487Y193837D01*
X49713Y194157D01*
D02*
G37*
G36*
X48713D02*
X47938Y193837D01*
X47305Y193204D01*
X46984Y192429D01*
X48713D01*
Y194157D01*
D02*
G37*
G36*
X30028D02*
Y192429D01*
X31756D01*
X31435Y193204D01*
X30802Y193837D01*
X30028Y194157D01*
D02*
G37*
G36*
X29028D02*
X28253Y193837D01*
X27620Y193204D01*
X27299Y192429D01*
X29028D01*
Y194157D01*
D02*
G37*
G36*
X87858Y192413D02*
X86130D01*
Y190685D01*
X86904Y191006D01*
X87537Y191639D01*
X87858Y192413D01*
D02*
G37*
G36*
X85130D02*
X83402D01*
X83723Y191639D01*
X84355Y191006D01*
X85130Y190685D01*
Y192413D01*
D02*
G37*
G36*
X51441Y191429D02*
X49713D01*
Y189701D01*
X50487Y190022D01*
X51120Y190655D01*
X51441Y191429D01*
D02*
G37*
G36*
X48713D02*
X46984D01*
X47305Y190655D01*
X47938Y190022D01*
X48713Y189701D01*
Y191429D01*
D02*
G37*
G36*
X31756D02*
X30028D01*
Y189701D01*
X30802Y190022D01*
X31435Y190655D01*
X31756Y191429D01*
D02*
G37*
G36*
X29028D02*
X27299D01*
X27620Y190655D01*
X28253Y190022D01*
X29028Y189701D01*
Y191429D01*
D02*
G37*
G36*
X70142Y192413D02*
X65685D01*
X66006Y191639D01*
X66639Y191006D01*
X67368Y190704D01*
Y190201D01*
X66639Y189900D01*
X66006Y189267D01*
X65685Y188492D01*
X70142D01*
X69821Y189267D01*
X69188Y189900D01*
X68459Y190201D01*
Y190704D01*
X69188Y191006D01*
X69821Y191639D01*
X70142Y192413D01*
D02*
G37*
G36*
Y187492D02*
X65685D01*
X66006Y186718D01*
X66639Y186085D01*
X67368Y185783D01*
Y185280D01*
X66639Y184978D01*
X66006Y184345D01*
X65685Y183571D01*
X70142D01*
X69821Y184345D01*
X69188Y184978D01*
X68459Y185280D01*
Y185783D01*
X69188Y186085D01*
X69821Y186718D01*
X70142Y187492D01*
D02*
G37*
G36*
X49713Y185299D02*
Y183571D01*
X51441D01*
X51120Y184345D01*
X50487Y184978D01*
X49713Y185299D01*
D02*
G37*
G36*
X48713D02*
X47938Y184978D01*
X47305Y184345D01*
X46984Y183571D01*
X48713D01*
Y185299D01*
D02*
G37*
G36*
X11432Y192238D02*
X10221D01*
X9051Y191924D01*
X8002Y191319D01*
X7146Y190462D01*
X6540Y189413D01*
X6227Y188243D01*
Y187032D01*
X6540Y185862D01*
X7146Y184813D01*
X8002Y183957D01*
X9051Y183351D01*
X10221Y183038D01*
X11432D01*
X12602Y183351D01*
X13651Y183957D01*
X14508Y184813D01*
X15113Y185862D01*
X15427Y187032D01*
Y188243D01*
X15113Y189413D01*
X14508Y190462D01*
X13651Y191319D01*
X12602Y191924D01*
X11432Y192238D01*
D02*
G37*
G36*
X70142Y182571D02*
X68413D01*
Y180843D01*
X69188Y181163D01*
X69821Y181796D01*
X70142Y182571D01*
D02*
G37*
G36*
X67413D02*
X65685D01*
X66006Y181796D01*
X66639Y181163D01*
X67413Y180843D01*
Y182571D01*
D02*
G37*
G36*
X51441D02*
X49713D01*
Y180843D01*
X50487Y181163D01*
X51120Y181796D01*
X51441Y182571D01*
D02*
G37*
G36*
X48713D02*
X46984D01*
X47305Y181796D01*
X47938Y181163D01*
X48713Y180843D01*
Y182571D01*
D02*
G37*
G36*
X11432Y182238D02*
X10221D01*
X9051Y181924D01*
X8002Y181319D01*
X7146Y180462D01*
X6540Y179413D01*
X6227Y178243D01*
Y177032D01*
X6540Y175862D01*
X7146Y174813D01*
X8002Y173957D01*
X9051Y173351D01*
X10221Y173038D01*
X11432D01*
X12602Y173351D01*
X13651Y173957D01*
X14508Y174813D01*
X15113Y175862D01*
X15427Y177032D01*
Y178243D01*
X15113Y179413D01*
X14508Y180462D01*
X13651Y181319D01*
X12602Y181924D01*
X11432Y182238D01*
D02*
G37*
G36*
Y172238D02*
X10221D01*
X9051Y171924D01*
X8002Y171319D01*
X7146Y170462D01*
X6540Y169413D01*
X6227Y168243D01*
Y167032D01*
X6540Y165862D01*
X7146Y164813D01*
X8002Y163957D01*
X9051Y163351D01*
X10221Y163038D01*
X11432D01*
X12602Y163351D01*
X13651Y163957D01*
X14508Y164813D01*
X15113Y165862D01*
X15427Y167032D01*
Y168243D01*
X15113Y169413D01*
X14508Y170462D01*
X13651Y171319D01*
X12602Y171924D01*
X11432Y172238D01*
D02*
G37*
G36*
Y162238D02*
X10221D01*
X9051Y161924D01*
X8002Y161319D01*
X7146Y160462D01*
X6540Y159413D01*
X6227Y158243D01*
Y157032D01*
X6540Y155862D01*
X7146Y154813D01*
X8002Y153957D01*
X9051Y153351D01*
X10221Y153038D01*
X11432D01*
X12602Y153351D01*
X13651Y153957D01*
X14508Y154813D01*
X15113Y155862D01*
X15427Y157032D01*
Y158243D01*
X15113Y159413D01*
X14508Y160462D01*
X13651Y161319D01*
X12602Y161924D01*
X11432Y162238D01*
D02*
G37*
G36*
X67023Y234954D02*
X65812D01*
X64642Y234641D01*
X63593Y234035D01*
X62736Y233179D01*
X62131Y232130D01*
X61817Y230960D01*
Y229749D01*
X62131Y228579D01*
X62736Y227530D01*
X63593Y226673D01*
X64642Y226068D01*
X65812Y225754D01*
X67023D01*
X68193Y226068D01*
X68596Y226301D01*
X73478Y221420D01*
Y154092D01*
X69635Y150250D01*
X69540Y150269D01*
X69376Y150811D01*
X69500Y150936D01*
X70059Y151904D01*
X70349Y152984D01*
Y154102D01*
X70059Y155182D01*
X69500Y156151D01*
X68710Y156941D01*
X67741Y157500D01*
X66661Y157790D01*
X65543D01*
X64463Y157500D01*
X64182Y157338D01*
X62723Y158797D01*
X62930Y159297D01*
X70349D01*
Y167790D01*
X62349D01*
Y215748D01*
X62248Y216255D01*
X61961Y216685D01*
X50471Y228175D01*
X50704Y228579D01*
X51017Y229749D01*
Y230960D01*
X50704Y232130D01*
X50098Y233179D01*
X49242Y234035D01*
X48193Y234641D01*
X47023Y234954D01*
X45812D01*
X44642Y234641D01*
X43593Y234035D01*
X42736Y233179D01*
X42131Y232130D01*
X41817Y230960D01*
Y229749D01*
X42131Y228579D01*
X42736Y227530D01*
X43593Y226673D01*
X44642Y226068D01*
X45812Y225754D01*
X47023D01*
X48193Y226068D01*
X48596Y226301D01*
X59698Y215199D01*
Y166660D01*
X59198Y166453D01*
X58710Y166941D01*
X57741Y167500D01*
X56661Y167790D01*
X55543D01*
X54463Y167500D01*
X53495Y166941D01*
X52704Y166151D01*
X52145Y165182D01*
X51856Y164102D01*
Y162984D01*
X52145Y161904D01*
X52704Y160936D01*
X53495Y160145D01*
X54463Y159586D01*
X55543Y159297D01*
X56661D01*
X57741Y159586D01*
X58710Y160145D01*
X59198Y160634D01*
X59698Y160427D01*
Y158622D01*
X59799Y158115D01*
X60086Y157685D01*
X62308Y155464D01*
X62145Y155182D01*
X61856Y154102D01*
Y152984D01*
X62145Y151904D01*
X62704Y150936D01*
X63193Y150447D01*
X62986Y149948D01*
X61573D01*
X59897Y151623D01*
X60059Y151904D01*
X60349Y152984D01*
Y154102D01*
X60059Y155182D01*
X59500Y156151D01*
X58710Y156941D01*
X57741Y157500D01*
X56661Y157790D01*
X55543D01*
X54463Y157500D01*
X53495Y156941D01*
X52704Y156151D01*
X52145Y155182D01*
X51856Y154102D01*
Y152984D01*
X52145Y151904D01*
X52704Y150936D01*
X53495Y150145D01*
X54463Y149586D01*
X55543Y149297D01*
X56661D01*
X57741Y149586D01*
X58023Y149749D01*
X60086Y147685D01*
X60516Y147397D01*
X61024Y147297D01*
X63002D01*
X63209Y146797D01*
X62624Y146212D01*
X62052Y145221D01*
X61756Y144115D01*
Y144043D01*
X66102D01*
X70449D01*
Y144115D01*
X70153Y145221D01*
X69580Y146212D01*
X68996Y146797D01*
X69203Y147297D01*
X69882D01*
X70389Y147397D01*
X70819Y147685D01*
X75740Y152606D01*
X76028Y153036D01*
X76129Y153543D01*
Y221969D01*
X76028Y222476D01*
X75740Y222906D01*
X70471Y228175D01*
X70704Y228579D01*
X71017Y229749D01*
Y230960D01*
X70704Y232130D01*
X70098Y233179D01*
X69242Y234035D01*
X68193Y234641D01*
X67023Y234954D01*
D02*
G37*
G36*
X37023D02*
X35812D01*
X34642Y234641D01*
X33593Y234035D01*
X32736Y233179D01*
X32131Y232130D01*
X31817Y230960D01*
Y229749D01*
X32131Y228579D01*
X32736Y227530D01*
X33593Y226673D01*
X34642Y226068D01*
X35092Y225947D01*
Y155077D01*
X28978Y148963D01*
X15234D01*
X15113Y149413D01*
X14508Y150462D01*
X13651Y151319D01*
X12602Y151924D01*
X11432Y152238D01*
X10221D01*
X9051Y151924D01*
X8002Y151319D01*
X7146Y150462D01*
X6540Y149413D01*
X6227Y148243D01*
Y147032D01*
X6540Y145862D01*
X7146Y144813D01*
X8002Y143957D01*
X9051Y143351D01*
X10221Y143038D01*
X11432D01*
X12602Y143351D01*
X13651Y143957D01*
X14508Y144813D01*
X15113Y145862D01*
X15234Y146312D01*
X29528D01*
X30035Y146413D01*
X30465Y146701D01*
X37355Y153590D01*
X37642Y154020D01*
X37743Y154528D01*
Y225947D01*
X38193Y226068D01*
X39242Y226673D01*
X40098Y227530D01*
X40704Y228579D01*
X41017Y229749D01*
Y230960D01*
X40704Y232130D01*
X40098Y233179D01*
X39242Y234035D01*
X38193Y234641D01*
X37023Y234954D01*
D02*
G37*
G36*
X118610Y144945D02*
Y143217D01*
X120338D01*
X120018Y143991D01*
X119385Y144624D01*
X118610Y144945D01*
D02*
G37*
G36*
X117610D02*
X116836Y144624D01*
X116203Y143991D01*
X115882Y143217D01*
X117610D01*
Y144945D01*
D02*
G37*
G36*
X108768D02*
Y143217D01*
X110496D01*
X110175Y143991D01*
X109542Y144624D01*
X108768Y144945D01*
D02*
G37*
G36*
X107768D02*
X106993Y144624D01*
X106360Y143991D01*
X106040Y143217D01*
X107768D01*
Y144945D01*
D02*
G37*
G36*
X39870D02*
Y143217D01*
X41598D01*
X41278Y143991D01*
X40645Y144624D01*
X39870Y144945D01*
D02*
G37*
G36*
X38870D02*
X38096Y144624D01*
X37463Y143991D01*
X37142Y143217D01*
X38870D01*
Y144945D01*
D02*
G37*
G36*
X30028D02*
Y143217D01*
X31756D01*
X31435Y143991D01*
X30802Y144624D01*
X30028Y144945D01*
D02*
G37*
G36*
X29028D02*
X28253Y144624D01*
X27620Y143991D01*
X27299Y143217D01*
X29028D01*
Y144945D01*
D02*
G37*
G36*
X120338Y142217D02*
X118610D01*
Y140488D01*
X119385Y140809D01*
X120018Y141442D01*
X120338Y142217D01*
D02*
G37*
G36*
X117610D02*
X115882D01*
X116203Y141442D01*
X116836Y140809D01*
X117610Y140488D01*
Y142217D01*
D02*
G37*
G36*
X110496D02*
X108768D01*
Y140488D01*
X109542Y140809D01*
X110175Y141442D01*
X110496Y142217D01*
D02*
G37*
G36*
X107768D02*
X106040D01*
X106360Y141442D01*
X106993Y140809D01*
X107768Y140488D01*
Y142217D01*
D02*
G37*
G36*
X41598D02*
X39870D01*
Y140488D01*
X40645Y140809D01*
X41278Y141442D01*
X41598Y142217D01*
D02*
G37*
G36*
X38870D02*
X37142D01*
X37463Y141442D01*
X38096Y140809D01*
X38870Y140488D01*
Y142217D01*
D02*
G37*
G36*
X31756D02*
X30028D01*
Y140488D01*
X30802Y140809D01*
X31435Y141442D01*
X31756Y142217D01*
D02*
G37*
G36*
X29028D02*
X27299D01*
X27620Y141442D01*
X28253Y140809D01*
X29028Y140488D01*
Y142217D01*
D02*
G37*
G36*
X99819Y143043D02*
X95972D01*
Y139197D01*
X96045D01*
X97150Y139493D01*
X98141Y140065D01*
X98950Y140875D01*
X99523Y141866D01*
X99819Y142971D01*
Y143043D01*
D02*
G37*
G36*
X94972D02*
X91126D01*
Y142971D01*
X91422Y141866D01*
X91994Y140875D01*
X92804Y140065D01*
X93795Y139493D01*
X94900Y139197D01*
X94972D01*
Y143043D01*
D02*
G37*
G36*
X70449D02*
X66602D01*
Y139197D01*
X66675D01*
X67780Y139493D01*
X68771Y140065D01*
X69580Y140875D01*
X70153Y141866D01*
X70449Y142971D01*
Y143043D01*
D02*
G37*
G36*
X65602D02*
X61756D01*
Y142971D01*
X62052Y141866D01*
X62624Y140875D01*
X63434Y140065D01*
X64425Y139493D01*
X65530Y139197D01*
X65602D01*
Y143043D01*
D02*
G37*
G36*
X139437Y142061D02*
Y138807D01*
X142691D01*
X142437Y139757D01*
X141943Y140613D01*
X141243Y141313D01*
X140387Y141807D01*
X139437Y142061D01*
D02*
G37*
G36*
X138437Y142061D02*
X137487Y141807D01*
X136631Y141313D01*
X135932Y140613D01*
X135437Y139757D01*
X135183Y138807D01*
X138437D01*
Y142061D01*
D02*
G37*
G36*
X132593Y141963D02*
X125281D01*
Y134651D01*
X132593D01*
Y141963D01*
D02*
G37*
G36*
X142691Y137807D02*
X139437D01*
Y134553D01*
X140387Y134807D01*
X141243Y135302D01*
X141943Y136001D01*
X142437Y136857D01*
X142691Y137807D01*
D02*
G37*
G36*
X138437D02*
X135183D01*
X135437Y136857D01*
X135932Y136001D01*
X136631Y135302D01*
X137487Y134807D01*
X138437Y134553D01*
Y137807D01*
D02*
G37*
G36*
X99719Y137790D02*
X91226D01*
Y129297D01*
X99719D01*
Y137790D01*
D02*
G37*
G36*
X64476Y125260D02*
Y123531D01*
X66205D01*
X65884Y124306D01*
X65251Y124939D01*
X64476Y125260D01*
D02*
G37*
G36*
X63476D02*
X62702Y124939D01*
X62069Y124306D01*
X61748Y123531D01*
X63476D01*
Y125260D01*
D02*
G37*
G36*
X54634D02*
Y123531D01*
X56362D01*
X56041Y124306D01*
X55408Y124939D01*
X54634Y125260D01*
D02*
G37*
G36*
X53634D02*
X52859Y124939D01*
X52226Y124306D01*
X51906Y123531D01*
X53634D01*
Y125260D01*
D02*
G37*
G36*
X66205Y122531D02*
X64476D01*
Y120803D01*
X65251Y121124D01*
X65884Y121757D01*
X66205Y122531D01*
D02*
G37*
G36*
X63476D02*
X61748D01*
X62069Y121757D01*
X62702Y121124D01*
X63476Y120803D01*
Y122531D01*
D02*
G37*
G36*
X56362D02*
X54634D01*
Y120803D01*
X55408Y121124D01*
X56041Y121757D01*
X56362Y122531D01*
D02*
G37*
G36*
X53634D02*
X51906D01*
X52226Y121757D01*
X52859Y121124D01*
X53634Y120803D01*
Y122531D01*
D02*
G37*
G36*
X177665Y100654D02*
Y98925D01*
X179394D01*
X179073Y99700D01*
X178440Y100333D01*
X177665Y100654D01*
D02*
G37*
G36*
X176665D02*
X175891Y100333D01*
X175258Y99700D01*
X174937Y98925D01*
X176665D01*
Y100654D01*
D02*
G37*
G36*
X167823D02*
Y98925D01*
X169551D01*
X169230Y99700D01*
X168597Y100333D01*
X167823Y100654D01*
D02*
G37*
G36*
X166823D02*
X166048Y100333D01*
X165415Y99700D01*
X165095Y98925D01*
X166823D01*
Y100654D01*
D02*
G37*
G36*
X157980D02*
Y98925D01*
X159709D01*
X159388Y99700D01*
X158755Y100333D01*
X157980Y100654D01*
D02*
G37*
G36*
X156980D02*
X156206Y100333D01*
X155573Y99700D01*
X155252Y98925D01*
X156980D01*
Y100654D01*
D02*
G37*
G36*
X103847D02*
Y98925D01*
X105575D01*
X105254Y99700D01*
X104621Y100333D01*
X103847Y100654D01*
D02*
G37*
G36*
X102847D02*
X102072Y100333D01*
X101439Y99700D01*
X101118Y98925D01*
X102847D01*
Y100654D01*
D02*
G37*
G36*
X94004D02*
Y98925D01*
X95732D01*
X95411Y99700D01*
X94779Y100333D01*
X94004Y100654D01*
D02*
G37*
G36*
X93004D02*
X92229Y100333D01*
X91597Y99700D01*
X91276Y98925D01*
X93004D01*
Y100654D01*
D02*
G37*
G36*
X84161D02*
Y98925D01*
X85890D01*
X85569Y99700D01*
X84936Y100333D01*
X84161Y100654D01*
D02*
G37*
G36*
X83161D02*
X82387Y100333D01*
X81754Y99700D01*
X81433Y98925D01*
X83161D01*
Y100654D01*
D02*
G37*
G36*
X179394Y97925D02*
X177665D01*
Y96197D01*
X178440Y96518D01*
X179073Y97151D01*
X179394Y97925D01*
D02*
G37*
G36*
X176665D02*
X174937D01*
X175258Y97151D01*
X175891Y96518D01*
X176665Y96197D01*
Y97925D01*
D02*
G37*
G36*
X169551D02*
X167823D01*
Y96197D01*
X168597Y96518D01*
X169230Y97151D01*
X169551Y97925D01*
D02*
G37*
G36*
X166823D02*
X165095D01*
X165415Y97151D01*
X166048Y96518D01*
X166823Y96197D01*
Y97925D01*
D02*
G37*
G36*
X159709D02*
X157980D01*
Y96197D01*
X158755Y96518D01*
X159388Y97151D01*
X159709Y97925D01*
D02*
G37*
G36*
X156980D02*
X155252D01*
X155573Y97151D01*
X156206Y96518D01*
X156980Y96197D01*
Y97925D01*
D02*
G37*
G36*
X105575D02*
X103847D01*
Y96197D01*
X104621Y96518D01*
X105254Y97151D01*
X105575Y97925D01*
D02*
G37*
G36*
X102847D02*
X101118D01*
X101439Y97151D01*
X102072Y96518D01*
X102847Y96197D01*
Y97925D01*
D02*
G37*
G36*
X95732D02*
X94004D01*
Y96197D01*
X94779Y96518D01*
X95411Y97151D01*
X95732Y97925D01*
D02*
G37*
G36*
X93004D02*
X91276D01*
X91597Y97151D01*
X92229Y96518D01*
X93004Y96197D01*
Y97925D01*
D02*
G37*
G36*
X85890D02*
X84161D01*
Y96197D01*
X84936Y96518D01*
X85569Y97151D01*
X85890Y97925D01*
D02*
G37*
G36*
X83161D02*
X81433D01*
X81754Y97151D01*
X82387Y96518D01*
X83161Y96197D01*
Y97925D01*
D02*
G37*
G36*
X6406Y71126D02*
Y69398D01*
X8134D01*
X7813Y70172D01*
X7180Y70805D01*
X6406Y71126D01*
D02*
G37*
G36*
X5406D02*
X4631Y70805D01*
X3998Y70172D01*
X3677Y69398D01*
X5406D01*
Y71126D01*
D02*
G37*
G36*
X8134Y68398D02*
X6406D01*
Y66669D01*
X7180Y66990D01*
X7813Y67623D01*
X8134Y68398D01*
D02*
G37*
G36*
X5406D02*
X3677D01*
X3998Y67623D01*
X4631Y66990D01*
X5406Y66669D01*
Y68398D01*
D02*
G37*
G36*
X6406Y61283D02*
Y59555D01*
X8134D01*
X7813Y60330D01*
X7180Y60963D01*
X6406Y61283D01*
D02*
G37*
G36*
X5406D02*
X4631Y60963D01*
X3998Y60330D01*
X3677Y59555D01*
X5406D01*
Y61283D01*
D02*
G37*
G36*
X8134Y58555D02*
X6406D01*
Y56827D01*
X7180Y57148D01*
X7813Y57781D01*
X8134Y58555D01*
D02*
G37*
G36*
X5406D02*
X3677D01*
X3998Y57781D01*
X4631Y57148D01*
X5406Y56827D01*
Y58555D01*
D02*
G37*
G36*
X175819Y65368D02*
X174575D01*
X173355Y65126D01*
X172206Y64650D01*
X171172Y63959D01*
X170293Y63080D01*
X169602Y62046D01*
X169126Y60897D01*
X168884Y59677D01*
Y58433D01*
X169126Y57214D01*
X169602Y56065D01*
X170293Y55031D01*
X171172Y54151D01*
X172206Y53460D01*
X173355Y52984D01*
X174575Y52742D01*
X175819D01*
X177038Y52984D01*
X178187Y53460D01*
X179221Y54151D01*
X180101Y55031D01*
X180792Y56065D01*
X181268Y57214D01*
X181510Y58433D01*
Y59677D01*
X181268Y60897D01*
X180792Y62046D01*
X180101Y63080D01*
X179221Y63959D01*
X178187Y64650D01*
X177038Y65126D01*
X175819Y65368D01*
D02*
G37*
G36*
X18338D02*
X17095D01*
X15875Y65126D01*
X14726Y64650D01*
X13692Y63959D01*
X12813Y63080D01*
X12122Y62046D01*
X11646Y60897D01*
X11403Y59677D01*
Y58433D01*
X11646Y57214D01*
X12122Y56065D01*
X12813Y55031D01*
X13692Y54151D01*
X14726Y53460D01*
X15875Y52984D01*
X17095Y52742D01*
X18338D01*
X19558Y52984D01*
X20707Y53460D01*
X21741Y54151D01*
X22621Y55031D01*
X23311Y56065D01*
X23787Y57214D01*
X24030Y58433D01*
Y59677D01*
X23787Y60897D01*
X23311Y62046D01*
X22621Y63080D01*
X21741Y63959D01*
X20707Y64650D01*
X19558Y65126D01*
X18338Y65368D01*
D02*
G37*
G36*
X6406Y51441D02*
Y49713D01*
X8134D01*
X7813Y50487D01*
X7180Y51120D01*
X6406Y51441D01*
D02*
G37*
G36*
X5406D02*
X4631Y51120D01*
X3998Y50487D01*
X3677Y49713D01*
X5406D01*
Y51441D01*
D02*
G37*
G36*
X8134Y48713D02*
X6406D01*
Y46984D01*
X7180Y47305D01*
X7813Y47938D01*
X8134Y48713D01*
D02*
G37*
G36*
X5406D02*
X3677D01*
X3998Y47938D01*
X4631Y47305D01*
X5406Y46984D01*
Y48713D01*
D02*
G37*
G36*
X34949Y31756D02*
Y30028D01*
X36677D01*
X36356Y30802D01*
X35723Y31435D01*
X34949Y31756D01*
D02*
G37*
G36*
X33949D02*
X33174Y31435D01*
X32541Y30802D01*
X32221Y30028D01*
X33949D01*
Y31756D01*
D02*
G37*
G36*
X36677Y29028D02*
X34949D01*
Y27299D01*
X35723Y27620D01*
X36356Y28253D01*
X36677Y29028D01*
D02*
G37*
G36*
X33949D02*
X32221D01*
X32541Y28253D01*
X33174Y27620D01*
X33949Y27299D01*
Y29028D01*
D02*
G37*
G36*
X182055Y29837D02*
X180937D01*
X179857Y29548D01*
X178889Y28989D01*
X178098Y28198D01*
X177539Y27230D01*
X177250Y26150D01*
Y25032D01*
X177539Y23952D01*
X178098Y22983D01*
X178889Y22193D01*
X179857Y21633D01*
X180937Y21344D01*
X182055D01*
X183135Y21633D01*
X184103Y22193D01*
X184894Y22983D01*
X185453Y23952D01*
X185742Y25032D01*
Y26150D01*
X185453Y27230D01*
X184894Y28198D01*
X184103Y28989D01*
X183135Y29548D01*
X182055Y29837D01*
D02*
G37*
G36*
X152134D02*
X151016D01*
X149936Y29548D01*
X148967Y28989D01*
X148177Y28198D01*
X147618Y27230D01*
X147328Y26150D01*
Y25032D01*
X147618Y23952D01*
X148177Y22983D01*
X148967Y22193D01*
X149936Y21633D01*
X151016Y21344D01*
X152134D01*
X153214Y21633D01*
X154182Y22193D01*
X154973Y22983D01*
X155532Y23952D01*
X155821Y25032D01*
Y26150D01*
X155532Y27230D01*
X154973Y28198D01*
X154182Y28989D01*
X153214Y29548D01*
X152134Y29837D01*
D02*
G37*
G36*
X34949Y21913D02*
Y20185D01*
X36677D01*
X36356Y20960D01*
X35723Y21592D01*
X34949Y21913D01*
D02*
G37*
G36*
X33949D02*
X33174Y21592D01*
X32541Y20960D01*
X32221Y20185D01*
X33949D01*
Y21913D01*
D02*
G37*
G36*
X36677Y19185D02*
X34949D01*
Y17457D01*
X35723Y17778D01*
X36356Y18410D01*
X36677Y19185D01*
D02*
G37*
G36*
X33949D02*
X32221D01*
X32541Y18410D01*
X33174Y17778D01*
X33949Y17457D01*
Y19185D01*
D02*
G37*
G36*
X177665Y16992D02*
Y15264D01*
X179394D01*
X179073Y16038D01*
X178440Y16671D01*
X177665Y16992D01*
D02*
G37*
G36*
X176665D02*
X175891Y16671D01*
X175258Y16038D01*
X174937Y15264D01*
X176665D01*
Y16992D01*
D02*
G37*
G36*
X162902D02*
Y15264D01*
X164630D01*
X164309Y16038D01*
X163676Y16671D01*
X162902Y16992D01*
D02*
G37*
G36*
X161902D02*
X161127Y16671D01*
X160494Y16038D01*
X160173Y15264D01*
X161902D01*
Y16992D01*
D02*
G37*
G36*
X179394Y14264D02*
X177665D01*
Y12536D01*
X178440Y12856D01*
X179073Y13489D01*
X179394Y14264D01*
D02*
G37*
G36*
X176665D02*
X174937D01*
X175258Y13489D01*
X175891Y12856D01*
X176665Y12536D01*
Y14264D01*
D02*
G37*
G36*
X164630D02*
X162902D01*
Y12536D01*
X163676Y12856D01*
X164309Y13489D01*
X164630Y14264D01*
D02*
G37*
G36*
X161902D02*
X160173D01*
X160494Y13489D01*
X161127Y12856D01*
X161902Y12536D01*
Y14264D01*
D02*
G37*
G36*
X103847Y7149D02*
Y5421D01*
X105575D01*
X105254Y6196D01*
X104621Y6829D01*
X103847Y7149D01*
D02*
G37*
G36*
X102847D02*
X102072Y6829D01*
X101439Y6196D01*
X101118Y5421D01*
X102847D01*
Y7149D01*
D02*
G37*
G36*
X84161D02*
Y5421D01*
X85890D01*
X85569Y6196D01*
X84936Y6829D01*
X84161Y7149D01*
D02*
G37*
G36*
X83161D02*
X82387Y6829D01*
X81754Y6196D01*
X81433Y5421D01*
X83161D01*
Y7149D01*
D02*
G37*
G36*
X64476D02*
Y5421D01*
X66205D01*
X65884Y6196D01*
X65251Y6829D01*
X64476Y7149D01*
D02*
G37*
G36*
X63476D02*
X62702Y6829D01*
X62069Y6196D01*
X61748Y5421D01*
X63476D01*
Y7149D01*
D02*
G37*
G36*
X181741Y188223D02*
X180779D01*
X179849Y187974D01*
X179015Y187492D01*
X178334Y186812D01*
X177853Y185978D01*
X177604Y185048D01*
Y184086D01*
X177853Y183156D01*
X178334Y182322D01*
X179015Y181641D01*
X179849Y181160D01*
X180779Y180911D01*
X181741D01*
X182671Y181160D01*
X183505Y181641D01*
X184185Y182322D01*
X184667Y183156D01*
X184916Y184086D01*
Y185048D01*
X184667Y185978D01*
X184185Y186812D01*
X183505Y187492D01*
X182671Y187974D01*
X181741Y188223D01*
D02*
G37*
G36*
X171741D02*
X170779D01*
X169849Y187974D01*
X169015Y187492D01*
X168334Y186812D01*
X167853Y185978D01*
X167604Y185048D01*
Y184086D01*
X167853Y183156D01*
X168334Y182322D01*
X169015Y181641D01*
X169849Y181160D01*
X170779Y180911D01*
X171741D01*
X172671Y181160D01*
X173505Y181641D01*
X174185Y182322D01*
X174667Y183156D01*
X174916Y184086D01*
Y185048D01*
X174667Y185978D01*
X174185Y186812D01*
X173505Y187492D01*
X172671Y187974D01*
X171741Y188223D01*
D02*
G37*
G36*
X149122Y182346D02*
Y180618D01*
X150850D01*
X150530Y181393D01*
X149897Y182026D01*
X149122Y182346D01*
D02*
G37*
G36*
X148122D02*
X147347Y182026D01*
X146715Y181393D01*
X146394Y180618D01*
X148122D01*
Y182346D01*
D02*
G37*
G36*
X138295D02*
Y180618D01*
X140024D01*
X139703Y181393D01*
X139070Y182026D01*
X138295Y182346D01*
D02*
G37*
G36*
X137295D02*
X136521Y182026D01*
X135888Y181393D01*
X135567Y180618D01*
X137295D01*
Y182346D01*
D02*
G37*
G36*
X118610D02*
Y180618D01*
X120338D01*
X120018Y181393D01*
X119385Y182026D01*
X118610Y182346D01*
D02*
G37*
G36*
X117610D02*
X116836Y182026D01*
X116203Y181393D01*
X115882Y180618D01*
X117610D01*
Y182346D01*
D02*
G37*
G36*
X108768D02*
Y180618D01*
X110496D01*
X110175Y181393D01*
X109542Y182026D01*
X108768Y182346D01*
D02*
G37*
G36*
X107768D02*
X106993Y182026D01*
X106360Y181393D01*
X106040Y180618D01*
X107768D01*
Y182346D01*
D02*
G37*
G36*
X150850Y179618D02*
X149122D01*
Y177890D01*
X149897Y178211D01*
X150530Y178844D01*
X150850Y179618D01*
D02*
G37*
G36*
X148122D02*
X146394D01*
X146715Y178844D01*
X147347Y178211D01*
X148122Y177890D01*
Y179618D01*
D02*
G37*
G36*
X140024D02*
X138295D01*
Y177890D01*
X139070Y178211D01*
X139703Y178844D01*
X140024Y179618D01*
D02*
G37*
G36*
X137295D02*
X135567D01*
X135888Y178844D01*
X136521Y178211D01*
X137295Y177890D01*
Y179618D01*
D02*
G37*
G36*
X120338D02*
X118610D01*
Y177890D01*
X119385Y178211D01*
X120018Y178844D01*
X120338Y179618D01*
D02*
G37*
G36*
X117610D02*
X115882D01*
X116203Y178844D01*
X116836Y178211D01*
X117610Y177890D01*
Y179618D01*
D02*
G37*
G36*
X110496D02*
X108768D01*
Y177890D01*
X109542Y178211D01*
X110175Y178844D01*
X110496Y179618D01*
D02*
G37*
G36*
X107768D02*
X106040D01*
X106360Y178844D01*
X106993Y178211D01*
X107768Y177890D01*
Y179618D01*
D02*
G37*
G36*
X184875Y177531D02*
Y175803D01*
X186604D01*
X186283Y176577D01*
X185650Y177210D01*
X184875Y177531D01*
D02*
G37*
G36*
X183875D02*
X183101Y177210D01*
X182468Y176577D01*
X182147Y175803D01*
X183875D01*
Y177531D01*
D02*
G37*
G36*
X96045Y177890D02*
X95972D01*
Y174043D01*
X99819D01*
Y174116D01*
X99523Y175221D01*
X98950Y176212D01*
X98141Y177021D01*
X97150Y177594D01*
X96045Y177890D01*
D02*
G37*
G36*
X94972D02*
X94900D01*
X93795Y177594D01*
X92804Y177021D01*
X91994Y176212D01*
X91422Y175221D01*
X91126Y174116D01*
Y174043D01*
X94972D01*
Y177890D01*
D02*
G37*
G36*
X186604Y174803D02*
X184875D01*
Y173075D01*
X185650Y173395D01*
X186283Y174028D01*
X186604Y174803D01*
D02*
G37*
G36*
X183875D02*
X182147D01*
X182468Y174028D01*
X183101Y173395D01*
X183875Y173075D01*
Y174803D01*
D02*
G37*
G36*
X99819Y173043D02*
X95972D01*
Y169197D01*
X96045D01*
X97150Y169493D01*
X98141Y170065D01*
X98950Y170875D01*
X99523Y171866D01*
X99819Y172971D01*
Y173043D01*
D02*
G37*
G36*
X94972D02*
X91126D01*
Y172971D01*
X91422Y171866D01*
X91994Y170875D01*
X92804Y170065D01*
X93795Y169493D01*
X94900Y169197D01*
X94972D01*
Y173043D01*
D02*
G37*
G36*
X139437Y172062D02*
Y168807D01*
X142691D01*
X142437Y169757D01*
X141943Y170613D01*
X141243Y171313D01*
X140387Y171807D01*
X139437Y172062D01*
D02*
G37*
G36*
X138437Y172062D02*
X137487Y171807D01*
X136631Y171313D01*
X135932Y170613D01*
X135437Y169757D01*
X135183Y168807D01*
X138437D01*
Y172062D01*
D02*
G37*
G36*
X129418Y171963D02*
X128456D01*
X127526Y171714D01*
X126692Y171232D01*
X126012Y170552D01*
X125530Y169718D01*
X125281Y168788D01*
Y167826D01*
X125530Y166896D01*
X126012Y166062D01*
X126692Y165382D01*
X127526Y164900D01*
X128456Y164651D01*
X129418D01*
X130348Y164900D01*
X131182Y165382D01*
X131862Y166062D01*
X132344Y166896D01*
X132593Y167826D01*
Y168788D01*
X132344Y169718D01*
X131862Y170552D01*
X131182Y171232D01*
X130348Y171714D01*
X129418Y171963D01*
D02*
G37*
G36*
X142691Y167807D02*
X139437D01*
Y164553D01*
X140387Y164807D01*
X141243Y165302D01*
X141943Y166001D01*
X142437Y166857D01*
X142691Y167807D01*
D02*
G37*
G36*
X138437D02*
X135183D01*
X135437Y166857D01*
X135932Y166001D01*
X136631Y165302D01*
X137487Y164807D01*
X138437Y164553D01*
Y167807D01*
D02*
G37*
G36*
X118610Y162661D02*
Y160933D01*
X120338D01*
X120018Y161708D01*
X119385Y162340D01*
X118610Y162661D01*
D02*
G37*
G36*
X117610D02*
X116836Y162340D01*
X116203Y161708D01*
X115882Y160933D01*
X117610D01*
Y162661D01*
D02*
G37*
G36*
X108768D02*
Y160933D01*
X110496D01*
X110175Y161708D01*
X109542Y162340D01*
X108768Y162661D01*
D02*
G37*
G36*
X107768D02*
X106993Y162340D01*
X106360Y161708D01*
X106040Y160933D01*
X107768D01*
Y162661D01*
D02*
G37*
G36*
X96031Y167790D02*
X94913D01*
X93833Y167500D01*
X92865Y166941D01*
X92074Y166151D01*
X91515Y165182D01*
X91226Y164102D01*
Y162984D01*
X91515Y161904D01*
X92074Y160936D01*
X92865Y160145D01*
X93833Y159586D01*
X94913Y159297D01*
X96031D01*
X97111Y159586D01*
X98080Y160145D01*
X98870Y160936D01*
X99430Y161904D01*
X99719Y162984D01*
Y164102D01*
X99430Y165182D01*
X98870Y166151D01*
X98080Y166941D01*
X97111Y167500D01*
X96031Y167790D01*
D02*
G37*
G36*
X120338Y159933D02*
X118610D01*
Y158205D01*
X119385Y158526D01*
X120018Y159159D01*
X120338Y159933D01*
D02*
G37*
G36*
X117610D02*
X115882D01*
X116203Y159159D01*
X116836Y158526D01*
X117610Y158205D01*
Y159933D01*
D02*
G37*
G36*
X110496D02*
X108768D01*
Y158205D01*
X109542Y158526D01*
X110175Y159159D01*
X110496Y159933D01*
D02*
G37*
G36*
X107768D02*
X106040D01*
X106360Y159159D01*
X106993Y158526D01*
X107768Y158205D01*
Y159933D01*
D02*
G37*
G36*
X177665Y157740D02*
Y156012D01*
X179394D01*
X179073Y156786D01*
X178440Y157419D01*
X177665Y157740D01*
D02*
G37*
G36*
X176665D02*
X175891Y157419D01*
X175258Y156786D01*
X174937Y156012D01*
X176665D01*
Y157740D01*
D02*
G37*
G36*
X179394Y155012D02*
X177665D01*
Y153284D01*
X178440Y153604D01*
X179073Y154237D01*
X179394Y155012D01*
D02*
G37*
G36*
X176665D02*
X174937D01*
X175258Y154237D01*
X175891Y153604D01*
X176665Y153284D01*
Y155012D01*
D02*
G37*
G36*
X96031Y157790D02*
X94913D01*
X93833Y157500D01*
X92865Y156941D01*
X92074Y156151D01*
X91515Y155182D01*
X91226Y154102D01*
Y152984D01*
X91515Y151904D01*
X92074Y150936D01*
X92865Y150145D01*
X93833Y149586D01*
X94913Y149297D01*
X96031D01*
X97111Y149586D01*
X98080Y150145D01*
X98870Y150936D01*
X98963Y151096D01*
X164341D01*
X167441Y147996D01*
X167573Y147503D01*
X167955Y146841D01*
X168495Y146301D01*
X169156Y145920D01*
X169894Y145722D01*
X170657D01*
X171395Y145920D01*
X172056Y146301D01*
X172596Y146841D01*
X172978Y147503D01*
X173176Y148240D01*
Y149004D01*
X172978Y149741D01*
X172596Y150403D01*
X172056Y150943D01*
X171395Y151324D01*
X170902Y151457D01*
X167085Y155274D01*
X166291Y155804D01*
X166135Y155835D01*
X165354Y155990D01*
X98963D01*
X98870Y156151D01*
X98080Y156941D01*
X97111Y157500D01*
X96031Y157790D01*
D02*
G37*
G36*
X169791Y138055D02*
Y136327D01*
X171520D01*
X171199Y137101D01*
X170566Y137734D01*
X169791Y138055D01*
D02*
G37*
G36*
X168791D02*
X168017Y137734D01*
X167384Y137101D01*
X167063Y136327D01*
X168791D01*
Y138055D01*
D02*
G37*
G36*
X171520Y135327D02*
X169791D01*
Y133598D01*
X170566Y133919D01*
X171199Y134552D01*
X171520Y135327D01*
D02*
G37*
G36*
X168791D02*
X167063D01*
X167384Y134552D01*
X168017Y133919D01*
X168791Y133598D01*
Y135327D01*
D02*
G37*
%LPD*%
D10*
X191282Y25589D02*
G03*
X191282Y25492I-24648J-97D01*
G01*
X123937Y135307D02*
G03*
X123937Y135307I-500J0D01*
G01*
X187593Y204036D02*
G03*
X187458Y195049I166J-4497D01*
G01*
D12*
X121437Y173307D02*
X146437D01*
Y133307D02*
Y173307D01*
X121437Y133307D02*
X146437D01*
X121437D02*
Y173307D01*
Y133307D02*
Y173307D01*
X164760Y188567D02*
Y210567D01*
Y188567D02*
X187760D01*
X164760Y210567D02*
X187760D01*
Y188567D02*
Y210567D01*
D15*
X44713Y198209D02*
X85213D01*
Y214209D01*
X44713D02*
X85213D01*
X44713Y198209D02*
Y214209D01*
X72008Y145630D02*
Y161484D01*
X50197Y169543D02*
X62008D01*
X50197Y137953D02*
Y169543D01*
X72008Y161484D02*
Y169543D01*
X58697D02*
X72102D01*
X58858Y137953D02*
Y138043D01*
X50197Y137953D02*
X72102D01*
X72008D02*
Y145630D01*
X89567Y127638D02*
Y179213D01*
X101378D01*
Y127638D02*
Y179213D01*
X89567Y127638D02*
X101378D01*
X82270Y262219D02*
X85053Y259435D01*
X82270Y259435D02*
X85053Y262219D01*
X54570Y260827D02*
X83661Y289918D01*
Y231735D02*
X112753Y260827D01*
X54570D02*
X83661Y231735D01*
Y289918D02*
X112753Y260827D01*
X139173Y200394D02*
G03*
X139173Y200394I-1969J0D01*
G01*
X105512Y284055D02*
X118898D01*
X105512Y276969D02*
X118898D01*
X105512D02*
Y284055D01*
X118898Y276969D02*
Y284055D01*
X59153Y321161D02*
Y340256D01*
X13681Y321161D02*
Y340256D01*
Y321161D02*
X59153D01*
X13681Y340256D02*
X59153D01*
X55709Y250197D02*
Y263583D01*
X48622Y250197D02*
Y263583D01*
X55709D01*
X48622Y250197D02*
X55709D01*
X96063Y34252D02*
X99213Y31102D01*
X81890Y16929D02*
X99213Y16732D01*
X81890Y31102D02*
X85039Y34252D01*
X96063D01*
X99213Y16732D02*
Y31102D01*
X81890Y16929D02*
Y31102D01*
X78150Y64764D02*
X85236D01*
X78150Y51378D02*
X85236D01*
Y64764D01*
X78150Y51378D02*
Y64764D01*
X52362Y66536D02*
X65807D01*
X52362Y73228D02*
X65807D01*
Y66536D02*
Y73228D01*
X52362Y66536D02*
Y73228D01*
X31890Y43504D02*
X38976D01*
X31890Y56890D02*
X38976D01*
X31890Y43504D02*
Y56890D01*
X38976Y43504D02*
Y56890D01*
X21791Y81102D02*
X35236D01*
X21791Y74410D02*
X35236D01*
X21791D02*
Y81102D01*
X35236Y74410D02*
Y81102D01*
X45669Y109055D02*
X52756D01*
X45669Y95669D02*
X52756D01*
Y109055D01*
X45669Y95669D02*
Y109055D01*
X4528Y95847D02*
Y109291D01*
X11220Y95847D02*
Y109291D01*
X4528Y95847D02*
X11220D01*
X4528Y109291D02*
X11220D01*
X35236Y125394D02*
Y132480D01*
X21850Y125394D02*
Y132480D01*
Y125394D02*
X35236D01*
X21850Y132480D02*
X35236D01*
X52362Y237598D02*
Y244685D01*
X65748Y237598D02*
Y244685D01*
X52362D02*
X65748D01*
X52362Y237598D02*
X65748D01*
X113386Y274213D02*
X126772D01*
X113386Y267126D02*
X126772D01*
X113386D02*
Y274213D01*
X126772Y267126D02*
Y274213D01*
X158268Y305512D02*
Y312598D01*
X144882Y305512D02*
Y312598D01*
Y305512D02*
X158268D01*
X144882Y312598D02*
X158268D01*
X48425Y316535D02*
X61811D01*
X48425Y309449D02*
X61811D01*
X48425D02*
Y316535D01*
X61811Y309449D02*
Y316535D01*
X11024Y309449D02*
Y316535D01*
X24409Y309449D02*
Y316535D01*
X11024D02*
X24409D01*
X11024Y309449D02*
X24409D01*
X183287Y123583D02*
Y148071D01*
X155295Y123583D02*
Y148071D01*
Y123583D02*
X183287D01*
X155295Y148071D02*
X183287D01*
X109803Y24390D02*
Y52382D01*
X134291Y24390D02*
Y52382D01*
X109803Y24390D02*
X134291D01*
X109803Y52382D02*
X134291D01*
X91693Y68110D02*
X103189D01*
X91693Y50000D02*
X103189D01*
Y68110D01*
X91693Y50000D02*
Y68110D01*
X172638Y220768D02*
Y226083D01*
X179724Y220768D02*
Y226083D01*
X172638D02*
X179724D01*
X172638Y220768D02*
X179724D01*
X115945Y63878D02*
Y69980D01*
X128150Y63878D02*
Y69980D01*
X115945D02*
X128150D01*
X115945Y63878D02*
X128150D01*
X125000Y216535D02*
X140748D01*
X125000Y196850D02*
X140748D01*
X125000D02*
Y216535D01*
X140748Y196850D02*
Y216535D01*
X179331Y159449D02*
X184843D01*
X179331Y171260D02*
X184843D01*
Y159449D02*
Y171260D01*
X179331Y159449D02*
Y171260D01*
X15354Y95669D02*
X41732D01*
X15354Y110236D02*
X41732D01*
X15354Y95669D02*
Y110236D01*
X41732Y95669D02*
Y110236D01*
X148622Y60236D02*
Y65748D01*
Y60236D02*
X160433D01*
X148622Y65748D02*
X160433D01*
Y60236D02*
Y65748D01*
X82677Y307283D02*
Y312795D01*
X70866D02*
X82677D01*
X70866Y307283D02*
X82677D01*
X70866D02*
Y312795D01*
X123031Y307283D02*
Y312795D01*
X111221D02*
X123031D01*
X111221Y307283D02*
X123031D01*
X111221D02*
Y312795D01*
X137795Y307283D02*
Y312795D01*
X125984D02*
X137795D01*
X125984Y307283D02*
X137795D01*
X125984D02*
Y312795D01*
X153248Y158957D02*
Y171752D01*
X159744Y158957D02*
Y171752D01*
X153248Y158957D02*
X159744D01*
X153248Y171752D02*
X159744D01*
X169783Y237500D02*
X182579D01*
X169783Y231004D02*
X182579D01*
X169783D02*
Y237500D01*
X182579Y231004D02*
Y237500D01*
X172539Y158957D02*
Y171752D01*
X166043Y158957D02*
Y171752D01*
X172539D01*
X166043Y158957D02*
X172539D01*
X120571Y12106D02*
X133366D01*
X120571Y5610D02*
X133366D01*
X120571D02*
Y12106D01*
X133366Y5610D02*
Y12106D01*
X145177Y324114D02*
X157972D01*
X145177Y317618D02*
X157972D01*
X145177D02*
Y324114D01*
X157972Y317618D02*
Y324114D01*
X80020Y326279D02*
Y339075D01*
X73524Y326279D02*
Y339075D01*
X80020D01*
X73524Y326279D02*
X80020D01*
X120374D02*
Y339075D01*
X113878Y326279D02*
Y339075D01*
X120374D01*
X113878Y326279D02*
X120374D01*
X135138D02*
Y339075D01*
X128642Y326279D02*
Y339075D01*
X135138D01*
X128642Y326279D02*
X135138D01*
X93012Y209350D02*
X105807D01*
X93012Y215846D02*
X105807D01*
Y209350D02*
Y215846D01*
X93012Y209350D02*
Y215846D01*
Y198524D02*
X105807D01*
X93012Y205020D02*
X105807D01*
Y198524D02*
Y205020D01*
X93012Y198524D02*
Y205020D01*
X112205Y278543D02*
Y282480D01*
X110236Y280512D02*
X114173D01*
X34449Y330709D02*
X38386D01*
X36417Y328740D02*
Y332677D01*
X50197Y256890D02*
X54134D01*
X52165Y254921D02*
Y258858D01*
X90551Y23622D02*
Y27559D01*
X88583Y25591D02*
X92520D01*
X81693Y56102D02*
Y60039D01*
X79724Y58071D02*
X83661D01*
X59055Y67913D02*
Y71850D01*
X57087Y69882D02*
X61024D01*
X35433Y48228D02*
Y52165D01*
X33465Y50197D02*
X37402D01*
X28543Y75787D02*
Y79724D01*
X26575Y77756D02*
X30512D01*
X49213Y100394D02*
Y104331D01*
X47244Y102362D02*
X51181D01*
X5906Y102598D02*
X9843D01*
X7874Y100630D02*
Y104567D01*
X26575Y128937D02*
X30512D01*
X28543Y126969D02*
Y130905D01*
X57087Y241142D02*
X61024D01*
X59055Y239173D02*
Y243110D01*
X120079Y268701D02*
Y272638D01*
X118110Y270669D02*
X122047D01*
X149606Y309055D02*
X153543D01*
X151575Y307087D02*
Y311024D01*
X55118D02*
Y314961D01*
X53150Y312992D02*
X57087D01*
X15748D02*
X19685D01*
X17717Y311024D02*
Y314961D01*
X167323Y135827D02*
X171260D01*
X169291Y133858D02*
Y137795D01*
X120079Y38386D02*
X124016D01*
X122047Y36417D02*
Y40354D01*
X97441Y57087D02*
Y61024D01*
X95472Y59055D02*
X99409D01*
X174213Y223425D02*
X178150D01*
X176181Y221457D02*
Y225394D01*
X120079Y66929D02*
X124016D01*
X122047Y64961D02*
Y68898D01*
X132874Y204724D02*
Y208661D01*
X130905Y206693D02*
X134843D01*
X182087Y163386D02*
Y167323D01*
X180118Y165354D02*
X184055D01*
X28543Y100984D02*
Y104921D01*
X26575Y102953D02*
X30512D01*
X154528Y61024D02*
Y64961D01*
X152559Y62992D02*
X156496D01*
X76772Y308071D02*
Y312008D01*
X74803Y310039D02*
X78740D01*
X117126Y308071D02*
Y312008D01*
X115157Y310039D02*
X119095D01*
X131890Y308071D02*
Y312008D01*
X129921Y310039D02*
X133858D01*
X154528Y165354D02*
X158465D01*
X156496Y163386D02*
Y167323D01*
X176181Y232283D02*
Y236221D01*
X174213Y234252D02*
X178150D01*
X167323Y165354D02*
X171260D01*
X169291Y163386D02*
Y167323D01*
X126969Y6890D02*
Y10827D01*
X125000Y8858D02*
X128937D01*
X151575Y318898D02*
Y322835D01*
X149606Y320866D02*
X153543D01*
X74803Y332677D02*
X78740D01*
X76772Y330709D02*
Y334646D01*
X115157Y332677D02*
X119095D01*
X117126Y330709D02*
Y334646D01*
X129921Y332677D02*
X133858D01*
X131890Y330709D02*
Y334646D01*
X99410Y210630D02*
Y214567D01*
X97441Y212598D02*
X101378D01*
X99410Y199803D02*
Y203740D01*
X97441Y201772D02*
X101378D01*
D18*
X53959Y69881D02*
D03*
X33640Y77755D02*
D03*
D19*
X7873Y107696D02*
D03*
D20*
X157178Y135827D02*
D03*
D21*
X122047Y26272D02*
D03*
D22*
X97443Y51219D02*
D03*
D23*
X102953Y285039D02*
X121457D01*
X102953Y275984D02*
X121457D01*
X102953D02*
Y285039D01*
X121457Y275984D02*
Y285039D01*
X60138Y320177D02*
Y341240D01*
X12697Y320177D02*
Y341240D01*
Y320177D02*
X60138D01*
X12697Y341240D02*
X60138D01*
X56693Y247638D02*
Y266142D01*
X47638Y247638D02*
Y266142D01*
X56693D01*
X47638Y247638D02*
X56693D01*
X80709Y38583D02*
X100394D01*
X80709Y12598D02*
X100394D01*
Y38583D01*
X80709Y12598D02*
Y38583D01*
X77165Y67323D02*
X86221D01*
X77165Y48819D02*
X86221D01*
Y67323D01*
X77165Y48819D02*
Y67323D01*
X49370Y65551D02*
Y74213D01*
Y65551D02*
X68740D01*
X49370Y74213D02*
X68740D01*
Y65551D02*
Y74213D01*
X30906Y40945D02*
X39961D01*
X30906Y59449D02*
X39961D01*
X30906Y40945D02*
Y59449D01*
X39961Y40945D02*
Y59449D01*
X38228Y73425D02*
Y82087D01*
X18858D02*
X38228D01*
X18858Y73425D02*
X38228D01*
X18858D02*
Y82087D01*
X44685Y111614D02*
X53740D01*
X44685Y93110D02*
X53740D01*
Y111614D01*
X44685Y93110D02*
Y111614D01*
X3543Y112284D02*
X12205D01*
X3543Y92913D02*
Y112284D01*
X12205Y92913D02*
Y112284D01*
X3543Y92913D02*
X12205D01*
X37795Y124409D02*
Y133465D01*
X19291Y124409D02*
Y133465D01*
Y124409D02*
X37795D01*
X19291Y133465D02*
X37795D01*
X49803Y236614D02*
Y245669D01*
X68307Y236614D02*
Y245669D01*
X49803D02*
X68307D01*
X49803Y236614D02*
X68307D01*
X110827Y275197D02*
X129331D01*
X110827Y266142D02*
X129331D01*
X110827D02*
Y275197D01*
X129331Y266142D02*
Y275197D01*
X160827Y304528D02*
Y313583D01*
X142323Y304528D02*
Y313583D01*
Y304528D02*
X160827D01*
X142323Y313583D02*
X160827D01*
X45866Y317520D02*
X64370D01*
X45866Y308465D02*
X64370D01*
X45866D02*
Y317520D01*
X64370Y308465D02*
Y317520D01*
X8465Y308465D02*
Y317520D01*
X26969Y308465D02*
Y317520D01*
X8465D02*
X26969D01*
X8465Y308465D02*
X26969D01*
X187008Y122441D02*
Y149213D01*
X151575Y122441D02*
Y149213D01*
Y122441D02*
X187008D01*
X151575Y149213D02*
X187008D01*
X108661Y20669D02*
Y56102D01*
X135433Y20669D02*
Y56102D01*
X108661Y20669D02*
X135433D01*
X108661Y56102D02*
X135433D01*
X90551Y73055D02*
X104331D01*
X90551Y45055D02*
X104331D01*
Y73055D01*
X90551Y45055D02*
Y73055D01*
X169488Y220079D02*
Y226772D01*
X182874Y220079D02*
Y226772D01*
X169488D02*
X182874D01*
X169488Y220079D02*
X182874D01*
X112008Y62894D02*
Y70965D01*
X132087Y62894D02*
Y70965D01*
X112008D02*
X132087D01*
X112008Y62894D02*
X132087D01*
X118307Y217520D02*
X147441D01*
X118307Y195866D02*
X147441D01*
X118307D02*
Y217520D01*
X147441Y195866D02*
Y217520D01*
X175787Y158465D02*
X188386D01*
X175787Y172244D02*
X188386D01*
Y158465D02*
Y172244D01*
X175787Y158465D02*
Y172244D01*
X14370Y86221D02*
X42717D01*
X14370Y119685D02*
X42717D01*
X14370Y86221D02*
Y119685D01*
X42717Y86221D02*
Y119685D01*
X147638Y69685D02*
X161417D01*
X147638Y56299D02*
X161417D01*
Y69685D01*
X147638Y56299D02*
Y69685D01*
X69882Y303346D02*
X83661D01*
X69882Y316732D02*
X83661D01*
X69882Y303346D02*
Y316732D01*
X83661Y303346D02*
Y316732D01*
X110236Y303346D02*
X124016D01*
X110236Y316732D02*
X124016D01*
X110236Y303346D02*
Y316732D01*
X124016Y303346D02*
Y316732D01*
X125000Y303346D02*
X138779D01*
X125000Y316732D02*
X138779D01*
X125000Y303346D02*
Y316732D01*
X138779Y303346D02*
Y316732D01*
X152165Y156496D02*
Y174213D01*
X160827Y156496D02*
Y174213D01*
X152165Y156496D02*
X160827D01*
X152165Y174213D02*
X160827D01*
X167323Y238583D02*
X185039D01*
X167323Y229921D02*
X185039D01*
X167323D02*
Y238583D01*
X185039Y229921D02*
Y238583D01*
X173622Y156496D02*
Y174213D01*
X164961Y156496D02*
Y174213D01*
X173622D01*
X164961Y156496D02*
X173622D01*
X118110Y13189D02*
X135827D01*
X118110Y4528D02*
X135827D01*
X118110D02*
Y13189D01*
X135827Y4528D02*
Y13189D01*
X142717Y325197D02*
X160433D01*
X142717Y316535D02*
X160433D01*
X142717D02*
Y325197D01*
X160433Y316535D02*
Y325197D01*
X81102Y323819D02*
Y341535D01*
X72441Y323819D02*
Y341535D01*
X81102D01*
X72441Y323819D02*
X81102D01*
X121457D02*
Y341535D01*
X112795Y323819D02*
Y341535D01*
X121457D01*
X112795Y323819D02*
X121457D01*
X136221D02*
Y341535D01*
X127559Y323819D02*
Y341535D01*
X136221D01*
X127559Y323819D02*
X136221D01*
X90551Y208268D02*
X108268D01*
X90551Y216929D02*
X108268D01*
Y208268D02*
Y216929D01*
X90551Y208268D02*
Y216929D01*
Y197441D02*
X108268D01*
X90551Y206102D02*
X108268D01*
Y197441D02*
Y206102D01*
X90551Y197441D02*
Y206102D01*
D82*
X61024Y260827D02*
X69882D01*
X59055Y262795D02*
X61024Y260827D01*
X56260Y300197D02*
X155512D01*
X46417Y290354D02*
X56260Y300197D01*
X155512D02*
X168307Y287402D01*
Y252953D02*
X189961Y231299D01*
X168307Y252953D02*
Y287402D01*
X189961Y80709D02*
Y231299D01*
X180118Y70866D02*
X189961Y80709D01*
X162402Y70866D02*
X180118D01*
X56417Y290354D02*
X63307Y297244D01*
X154528D02*
X165354Y286417D01*
X63307Y297244D02*
X154528D01*
X165354Y234252D02*
Y286417D01*
X38203Y250354D02*
X40866Y247691D01*
X63703D01*
X10827Y147638D02*
X29528D01*
X36417Y154528D02*
Y230354D01*
X29528Y147638D02*
X36417Y154528D01*
X80709Y197835D02*
X105315D01*
X126417Y218937D02*
Y230354D01*
X105315Y197835D02*
X126417Y218937D01*
Y238622D02*
X130905Y243110D01*
X126417Y290354D02*
X130905Y285866D01*
Y243110D02*
Y285866D01*
X116417Y230354D02*
Y232140D01*
X118188Y233911D01*
Y259758D01*
X117126Y260820D02*
X118188Y259758D01*
X117126Y260820D02*
Y260827D01*
X107283D02*
X113189Y266732D01*
Y283583D01*
X106417Y290354D02*
X113189Y283583D01*
X86516Y290354D02*
X105217Y271654D01*
X96417Y284488D02*
X109252Y271654D01*
X105217D02*
X105315D01*
X96417Y284488D02*
Y290354D01*
X86417D02*
X86516D01*
X36417Y250354D02*
X38203D01*
X70585Y241142D02*
X70866D01*
X69797Y240354D02*
X70585Y241142D01*
X36417Y240354D02*
X69797D01*
X28543Y284449D02*
Y307087D01*
Y284449D02*
X32480Y280512D01*
X30512Y301181D02*
X36417Y307087D01*
X44291D01*
X30512Y286417D02*
Y301181D01*
X73819Y280512D02*
X81693Y272638D01*
X32480Y280512D02*
X73819D01*
X75787Y283465D02*
X85630Y273622D01*
X33465Y283465D02*
X75787D01*
X136417Y285354D02*
Y290354D01*
Y285354D02*
X156417Y265354D01*
X126417Y230354D02*
Y238622D01*
X61024Y158622D02*
Y215748D01*
X46417Y230354D02*
X61024Y215748D01*
Y158622D02*
X66102Y153543D01*
X74803D02*
Y221969D01*
X66417Y230354D02*
X74803Y221969D01*
X69882Y148622D02*
X74803Y153543D01*
X61024Y148622D02*
X69882D01*
X56102Y153543D02*
X61024Y148622D01*
X80709Y146653D02*
Y197835D01*
X64803Y134843D02*
X68898D01*
X56102Y143543D02*
X64803Y134843D01*
X68898D02*
X80709Y146653D01*
X101417Y225354D02*
X113189Y213583D01*
X101417Y225354D02*
Y240354D01*
X30512Y286417D02*
X33465Y283465D01*
D84*
X165354Y153543D02*
X170276Y148622D01*
X95472Y153543D02*
X165354D01*
D86*
X10827Y147638D02*
D03*
Y157638D02*
D03*
Y167638D02*
D03*
Y177638D02*
D03*
Y187638D02*
D03*
Y197638D02*
D03*
Y207638D02*
D03*
X136417Y290354D02*
D03*
X126417D02*
D03*
X116417D02*
D03*
X106417D02*
D03*
X96417D02*
D03*
X86417D02*
D03*
X76417D02*
D03*
X66417D02*
D03*
X56417D02*
D03*
X46417D02*
D03*
X36417D02*
D03*
Y230354D02*
D03*
X46417D02*
D03*
X56417D02*
D03*
X66417D02*
D03*
X76417D02*
D03*
X86417D02*
D03*
X96417D02*
D03*
X106417D02*
D03*
X116417D02*
D03*
X126417D02*
D03*
X136417D02*
D03*
X146417D02*
D03*
X156417Y235354D02*
D03*
Y245354D02*
D03*
Y255354D02*
D03*
Y265354D02*
D03*
Y275354D02*
D03*
Y285354D02*
D03*
X36417Y240354D02*
D03*
Y250354D02*
D03*
Y260354D02*
D03*
X101417Y240354D02*
D03*
X111417D02*
D03*
D87*
X10827Y217638D02*
D03*
D88*
X181496Y25591D02*
D03*
X151575D02*
D03*
X56102Y163543D02*
D03*
Y153543D02*
D03*
Y143543D02*
D03*
X66102Y153543D02*
D03*
Y143543D02*
D03*
X95472Y173543D02*
D03*
Y163543D02*
D03*
Y143543D02*
D03*
Y153543D02*
D03*
D89*
X171260Y184567D02*
D03*
X181260D02*
D03*
X171260Y214567D02*
D03*
X138937Y138307D02*
D03*
X128937Y168307D02*
D03*
X138937D02*
D03*
D90*
X181260Y214567D02*
D03*
X128937Y138307D02*
D03*
D91*
X98957Y332677D02*
D03*
X93957D02*
D03*
X88957D02*
D03*
X103957D02*
D03*
D92*
X66102Y163543D02*
D03*
X95472Y133543D02*
D03*
D93*
X146417Y290354D02*
D03*
D94*
X17717Y59055D02*
D03*
X175197D02*
D03*
X175197Y295276D02*
D03*
X17717D02*
D03*
D95*
X52165Y256890D02*
D03*
X59055Y262795D02*
D03*
X69882Y260827D02*
D03*
X117126D02*
D03*
X107283D02*
D03*
X105315Y271654D02*
D03*
X109252D02*
D03*
X63703Y247691D02*
D03*
X70866Y241142D02*
D03*
X28543Y307087D02*
D03*
X44291D02*
D03*
X81693Y272638D02*
D03*
X85630Y273622D02*
D03*
X162402Y70866D02*
D03*
X165354Y234252D02*
D03*
X80709Y197835D02*
D03*
X113189Y213583D02*
D03*
D96*
X184375Y175303D02*
D03*
X89567Y221457D02*
D03*
X82677D02*
D03*
X133858Y241142D02*
D03*
X140755Y241210D02*
D03*
X154528Y201772D02*
D03*
Y211614D02*
D03*
X113189Y196850D02*
D03*
X148622Y180118D02*
D03*
X137795D02*
D03*
X177165Y155512D02*
D03*
X169291Y135827D02*
D03*
X118110Y142717D02*
D03*
X108268D02*
D03*
X118110Y180118D02*
D03*
X108268D02*
D03*
X118110Y160433D02*
D03*
X108268D02*
D03*
X177165Y98425D02*
D03*
X167323D02*
D03*
X157480D02*
D03*
X177165Y14764D02*
D03*
X162402D02*
D03*
X103347Y4921D02*
D03*
X83661D02*
D03*
X63976D02*
D03*
X34449Y19685D02*
D03*
Y29528D02*
D03*
X5906Y49213D02*
D03*
Y59055D02*
D03*
Y68898D02*
D03*
X103347Y98425D02*
D03*
X93504D02*
D03*
X83661D02*
D03*
X63976Y123031D02*
D03*
X54134D02*
D03*
X39370Y142717D02*
D03*
X29528D02*
D03*
X49213Y183071D02*
D03*
Y191929D02*
D03*
X29528D02*
D03*
Y201772D02*
D03*
Y211614D02*
D03*
X9843Y250984D02*
D03*
Y260827D02*
D03*
Y270669D02*
D03*
X29528Y273622D02*
D03*
X39370D02*
D03*
X83661Y283465D02*
D03*
X112205Y257874D02*
D03*
X125000D02*
D03*
X137795Y265748D02*
D03*
Y275590D02*
D03*
X175197Y255906D02*
D03*
Y265748D02*
D03*
Y274606D02*
D03*
Y314961D02*
D03*
Y324803D02*
D03*
Y334646D02*
D03*
X89567Y310039D02*
D03*
X96457D02*
D03*
X103347D02*
D03*
X83661Y253937D02*
D03*
X90551Y260827D02*
D03*
X83661Y267717D02*
D03*
X76772Y260827D02*
D03*
X85630Y192913D02*
D03*
X67913Y183071D02*
D03*
Y187992D02*
D03*
Y192913D02*
D03*
D97*
X170276Y148622D02*
D03*
M02*
