M48
;Layer_Color=9474304
;FILE_FORMAT=2:5
INCH,LZ
;TYPE=PLATED
T1F00S00C0.01000
T2F00S00C0.02953
T3F00S00C0.03150
T4F00S00C0.03937
T5F00S00C0.04000
T6F00S00C0.10827
%
T01
X0034449Y0019685
Y0029528
X0005906Y0049213
X0063976Y0004921
X0083661
X0103347
X0162402Y0014764
X0177165
X0162402Y0070866
X0167323Y0098425
X0177165
X015748
X0169291Y0135827
X0170276Y0148622
X0177165Y0155512
X0184375Y0175303
X0148622Y0180118
X0137795
X011811
X0108268
Y0160433
X011811
Y0142717
X0108268
X0103347Y0098425
X0093504
X0083661
X0063976Y0123031
X0067913Y0183071
Y0187992
Y0192913
X008563
X0080709Y0197835
X0113189Y019685
X0154528Y0201772
Y0211614
X0049213Y0191929
Y0183071
X0029528Y0191929
Y0201772
Y0211614
Y0142717
X003937
X0054134Y0123031
X0005906Y0068898
Y0059055
X0009843Y0250984
Y0260827
Y0270669
X0029528Y0273622
X003937
X0052165Y025689
X0044291Y0307087
X0028543
X0089567Y0310039
X0096457
X0103347
X0105315Y0271654
X0109252
X0107283Y0260827
X0112205Y0257874
X0117126Y0260827
X0125Y0257874
X0137795Y0265748
Y027559
X0140755Y024121
X0133858Y0241142
X0165354Y0234252
X0175197Y0255906
Y0265748
Y0274606
Y0314961
Y0324803
Y0334646
X0083661Y0283465
X008563Y0273622
X0081693Y0272638
X0083661Y0267717
Y0253937
X0090551Y0260827
X0076772
X0069882
X0059055Y0262795
X0063703Y0247691
X0070866Y0241142
X0082677Y0221457
X0089567
X0113189Y0213583
T02
X0088957Y0332677
X0093957
X0098957
X0103957
T03
X0128937Y0138307
X0138937
Y0168307
X0128937
X017126Y0184567
X018126
Y0214567
X017126
T04
X0151575Y0025591
X0181496
X0095472Y0133543
Y0143543
Y0153543
Y0163543
Y0173543
X0066102Y0163543
X0056102
Y0153543
Y0143543
X0066102
Y0153543
T05
X0010827Y0147638
Y0157638
Y0167638
Y0177638
Y0187638
Y0197638
Y0207638
Y0217638
X0036417Y0230354
X0046417
X0036417Y0240354
Y0250354
Y0260354
Y0290354
X0046417
X0056417
X0066417
X0076417
X0086417
X0096417
X0106417
X0116417
X0126417
X0136417
X0146417
X0156417Y0285354
Y0275354
Y0265354
Y0255354
Y0245354
Y0235354
X0146417Y0230354
X0136417
X0126417
X0116417
X0106417
X0096417
X0086417
X0076417
X0066417
X0056417
X0101417Y0240354
X0111417
T06
X0175197Y0059055
X0017717
Y0295276
X0175197
M30
