G04*
G04 #@! TF.GenerationSoftware,Altium Limited,Altium Designer,21.3.2 (30)*
G04*
G04 Layer_Color=2752767*
%FSLAX25Y25*%
%MOIN*%
G70*
G04*
G04 #@! TF.SameCoordinates,2132C70D-00E6-48B3-8683-B54ED86332B3*
G04*
G04*
G04 #@! TF.FilePolarity,Positive*
G04*
G01*
G75*
%ADD36C,0.01000*%
%ADD38C,0.00394*%
%ADD39C,0.00787*%
%ADD40C,0.07874*%
%ADD41C,0.01968*%
%ADD42R,0.03307X0.06692*%
%ADD43R,0.06692X0.03307*%
%ADD44R,0.03765X0.24488*%
%ADD45R,0.24488X0.03765*%
%ADD46R,0.11496X0.02436*%
%ADD47R,0.24488X0.03765*%
%ADD48C,0.00197*%
%ADD102C,0.00200*%
%ADD103C,0.00267*%
D36*
X191282Y25589D02*
G03*
X191282Y25492I-24648J-97D01*
G01*
X123937Y135307D02*
G03*
X123937Y135307I-500J0D01*
G01*
X392069Y25589D02*
G03*
X392070Y25492I-24648J-97D01*
G01*
X324724Y135307D02*
G03*
X324724Y135307I-500J0D01*
G01*
X224911Y35425D02*
G03*
X224421Y35915I-490J0D01*
G01*
X24128Y35437D02*
G03*
X23984Y35783I-490J0D01*
G01*
D02*
G03*
X23618Y35935I-366J-366D01*
G01*
X500Y345956D02*
Y346000D01*
Y345956D02*
X393202D01*
Y500D02*
Y345956D01*
X224911Y500D02*
X393202D01*
X224911D02*
Y35425D01*
X199505Y35915D02*
X224421D01*
X199505Y500D02*
Y35915D01*
X199500Y500D02*
X199505D01*
X24128D02*
X199500D01*
X24128D02*
Y35437D01*
X499Y35935D02*
X23618D01*
X499D02*
Y36000D01*
X500D01*
Y346000D01*
X187593Y204036D02*
G03*
X187458Y195049I166J-4497D01*
G01*
X388381Y204036D02*
G03*
X388245Y195049I166J-4497D01*
G01*
D38*
X44713Y198209D02*
X85213D01*
Y214209D01*
X44713D02*
X85213D01*
X44713Y198209D02*
Y214209D01*
X72008Y145630D02*
Y161484D01*
X50197Y169543D02*
X62008D01*
X50197Y137953D02*
Y169543D01*
X72008Y161484D02*
Y169543D01*
X58697D02*
X72102D01*
X58858Y137953D02*
Y138043D01*
X50197Y137953D02*
X72102D01*
X72008D02*
Y145630D01*
X89567Y127638D02*
Y179213D01*
X101378D01*
Y127638D02*
Y179213D01*
X89567Y127638D02*
X101378D01*
X82270Y262219D02*
X85053Y259435D01*
X82270Y259435D02*
X85053Y262219D01*
X54570Y260827D02*
X83661Y289918D01*
Y231735D02*
X112753Y260827D01*
X54570D02*
X83661Y231735D01*
Y289918D02*
X112753Y260827D01*
X245500Y198209D02*
X286000D01*
Y214209D01*
X245500D02*
X286000D01*
X245500Y198209D02*
Y214209D01*
X272795Y145630D02*
Y161484D01*
X250984Y169543D02*
X262795D01*
X250984Y137953D02*
Y169543D01*
X272795Y161484D02*
Y169543D01*
X259484D02*
X272890D01*
X259646Y137953D02*
Y138043D01*
X250984Y137953D02*
X272890D01*
X272795D02*
Y145630D01*
X290354Y127638D02*
Y179213D01*
X302165D01*
Y127638D02*
Y179213D01*
X290354Y127638D02*
X302165D01*
X283057Y262219D02*
X285841Y259435D01*
X283057Y259435D02*
X285841Y262219D01*
X255357Y260827D02*
X284449Y289918D01*
Y231735D02*
X313540Y260827D01*
X255357D02*
X284449Y231735D01*
Y289918D02*
X313540Y260827D01*
X139173Y200394D02*
G03*
X139173Y200394I-1969J0D01*
G01*
X105512Y284055D02*
X118898D01*
X105512Y276969D02*
X118898D01*
X105512D02*
Y284055D01*
X118898Y276969D02*
Y284055D01*
X59153Y321161D02*
Y340256D01*
X13681Y321161D02*
Y340256D01*
Y321161D02*
X59153D01*
X13681Y340256D02*
X59153D01*
X55709Y250197D02*
Y263583D01*
X48622Y250197D02*
Y263583D01*
X55709D01*
X48622Y250197D02*
X55709D01*
X96063Y34252D02*
X99213Y31102D01*
X81890Y16929D02*
X99213Y16732D01*
X81890Y31102D02*
X85039Y34252D01*
X96063D01*
X99213Y16732D02*
Y31102D01*
X81890Y16929D02*
Y31102D01*
X78150Y64764D02*
X85236D01*
X78150Y51378D02*
X85236D01*
Y64764D01*
X78150Y51378D02*
Y64764D01*
X52362Y66536D02*
X65807D01*
X52362Y73228D02*
X65807D01*
Y66536D02*
Y73228D01*
X52362Y66536D02*
Y73228D01*
X31890Y43504D02*
X38976D01*
X31890Y56890D02*
X38976D01*
X31890Y43504D02*
Y56890D01*
X38976Y43504D02*
Y56890D01*
X21791Y81102D02*
X35236D01*
X21791Y74410D02*
X35236D01*
X21791D02*
Y81102D01*
X35236Y74410D02*
Y81102D01*
X45669Y109055D02*
X52756D01*
X45669Y95669D02*
X52756D01*
Y109055D01*
X45669Y95669D02*
Y109055D01*
X4528Y95847D02*
Y109291D01*
X11220Y95847D02*
Y109291D01*
X4528Y95847D02*
X11220D01*
X4528Y109291D02*
X11220D01*
X35236Y125394D02*
Y132480D01*
X21850Y125394D02*
Y132480D01*
Y125394D02*
X35236D01*
X21850Y132480D02*
X35236D01*
X52362Y237598D02*
Y244685D01*
X65748Y237598D02*
Y244685D01*
X52362D02*
X65748D01*
X52362Y237598D02*
X65748D01*
X113386Y274213D02*
X126772D01*
X113386Y267126D02*
X126772D01*
X113386D02*
Y274213D01*
X126772Y267126D02*
Y274213D01*
X158268Y305512D02*
Y312598D01*
X144882Y305512D02*
Y312598D01*
Y305512D02*
X158268D01*
X144882Y312598D02*
X158268D01*
X48425Y316535D02*
X61811D01*
X48425Y309449D02*
X61811D01*
X48425D02*
Y316535D01*
X61811Y309449D02*
Y316535D01*
X11024Y309449D02*
Y316535D01*
X24409Y309449D02*
Y316535D01*
X11024D02*
X24409D01*
X11024Y309449D02*
X24409D01*
X183287Y123583D02*
Y148071D01*
X155295Y123583D02*
Y148071D01*
Y123583D02*
X183287D01*
X155295Y148071D02*
X183287D01*
X109803Y24390D02*
Y52382D01*
X134291Y24390D02*
Y52382D01*
X109803Y24390D02*
X134291D01*
X109803Y52382D02*
X134291D01*
X91693Y68110D02*
X103189D01*
X91693Y50000D02*
X103189D01*
Y68110D01*
X91693Y50000D02*
Y68110D01*
X172638Y220768D02*
Y226083D01*
X179724Y220768D02*
Y226083D01*
X172638D02*
X179724D01*
X172638Y220768D02*
X179724D01*
X115945Y63878D02*
Y69980D01*
X128150Y63878D02*
Y69980D01*
X115945D02*
X128150D01*
X115945Y63878D02*
X128150D01*
X125000Y216535D02*
X140748D01*
X125000Y196850D02*
X140748D01*
X125000D02*
Y216535D01*
X140748Y196850D02*
Y216535D01*
X179331Y159449D02*
X184843D01*
X179331Y171260D02*
X184843D01*
Y159449D02*
Y171260D01*
X179331Y159449D02*
Y171260D01*
X15354Y95669D02*
X41732D01*
X15354Y110236D02*
X41732D01*
X15354Y95669D02*
Y110236D01*
X41732Y95669D02*
Y110236D01*
X148622Y60236D02*
Y65748D01*
Y60236D02*
X160433D01*
X148622Y65748D02*
X160433D01*
Y60236D02*
Y65748D01*
X82677Y307283D02*
Y312795D01*
X70866D02*
X82677D01*
X70866Y307283D02*
X82677D01*
X70866D02*
Y312795D01*
X123031Y307283D02*
Y312795D01*
X111221D02*
X123031D01*
X111221Y307283D02*
X123031D01*
X111221D02*
Y312795D01*
X137795Y307283D02*
Y312795D01*
X125984D02*
X137795D01*
X125984Y307283D02*
X137795D01*
X125984D02*
Y312795D01*
X153248Y158957D02*
Y171752D01*
X159744Y158957D02*
Y171752D01*
X153248Y158957D02*
X159744D01*
X153248Y171752D02*
X159744D01*
X169783Y237500D02*
X182579D01*
X169783Y231004D02*
X182579D01*
X169783D02*
Y237500D01*
X182579Y231004D02*
Y237500D01*
X172539Y158957D02*
Y171752D01*
X166043Y158957D02*
Y171752D01*
X172539D01*
X166043Y158957D02*
X172539D01*
X120571Y12106D02*
X133366D01*
X120571Y5610D02*
X133366D01*
X120571D02*
Y12106D01*
X133366Y5610D02*
Y12106D01*
X145177Y324114D02*
X157972D01*
X145177Y317618D02*
X157972D01*
X145177D02*
Y324114D01*
X157972Y317618D02*
Y324114D01*
X80020Y326279D02*
Y339075D01*
X73524Y326279D02*
Y339075D01*
X80020D01*
X73524Y326279D02*
X80020D01*
X120374D02*
Y339075D01*
X113878Y326279D02*
Y339075D01*
X120374D01*
X113878Y326279D02*
X120374D01*
X135138D02*
Y339075D01*
X128642Y326279D02*
Y339075D01*
X135138D01*
X128642Y326279D02*
X135138D01*
X93012Y209350D02*
X105807D01*
X93012Y215846D02*
X105807D01*
Y209350D02*
Y215846D01*
X93012Y209350D02*
Y215846D01*
Y198524D02*
X105807D01*
X93012Y205020D02*
X105807D01*
Y198524D02*
Y205020D01*
X93012Y198524D02*
Y205020D01*
X339961Y200394D02*
G03*
X339961Y200394I-1969J0D01*
G01*
X306299Y284055D02*
X319685D01*
X306299Y276969D02*
X319685D01*
X306299D02*
Y284055D01*
X319685Y276969D02*
Y284055D01*
X259941Y321161D02*
Y340256D01*
X214469Y321161D02*
Y340256D01*
Y321161D02*
X259941D01*
X214469Y340256D02*
X259941D01*
X256496Y250197D02*
Y263583D01*
X249410Y250197D02*
Y263583D01*
X256496D01*
X249410Y250197D02*
X256496D01*
X296850Y34252D02*
X300000Y31102D01*
X282677Y16929D02*
X300000Y16732D01*
X282677Y31102D02*
X285827Y34252D01*
X296850D01*
X300000Y16732D02*
Y31102D01*
X282677Y16929D02*
Y31102D01*
X278937Y64764D02*
X286024D01*
X278937Y51378D02*
X286024D01*
Y64764D01*
X278937Y51378D02*
Y64764D01*
X253150Y66536D02*
X266594D01*
X253150Y73228D02*
X266594D01*
Y66536D02*
Y73228D01*
X253150Y66536D02*
Y73228D01*
X232677Y43504D02*
X239764D01*
X232677Y56890D02*
X239764D01*
X232677Y43504D02*
Y56890D01*
X239764Y43504D02*
Y56890D01*
X222579Y81102D02*
X236024D01*
X222579Y74410D02*
X236024D01*
X222579D02*
Y81102D01*
X236024Y74410D02*
Y81102D01*
X246457Y109055D02*
X253543D01*
X246457Y95669D02*
X253543D01*
Y109055D01*
X246457Y95669D02*
Y109055D01*
X205315Y95847D02*
Y109291D01*
X212007Y95847D02*
Y109291D01*
X205315Y95847D02*
X212007D01*
X205315Y109291D02*
X212007D01*
X236024Y125394D02*
Y132480D01*
X222638Y125394D02*
Y132480D01*
Y125394D02*
X236024D01*
X222638Y132480D02*
X236024D01*
X253150Y237598D02*
Y244685D01*
X266535Y237598D02*
Y244685D01*
X253150D02*
X266535D01*
X253150Y237598D02*
X266535D01*
X314173Y274213D02*
X327559D01*
X314173Y267126D02*
X327559D01*
X314173D02*
Y274213D01*
X327559Y267126D02*
Y274213D01*
X359055Y305512D02*
Y312598D01*
X345669Y305512D02*
Y312598D01*
Y305512D02*
X359055D01*
X345669Y312598D02*
X359055D01*
X249213Y316535D02*
X262598D01*
X249213Y309449D02*
X262598D01*
X249213D02*
Y316535D01*
X262598Y309449D02*
Y316535D01*
X211811Y309449D02*
Y316535D01*
X225197Y309449D02*
Y316535D01*
X211811D02*
X225197D01*
X211811Y309449D02*
X225197D01*
X384075Y123583D02*
Y148071D01*
X356083Y123583D02*
Y148071D01*
Y123583D02*
X384075D01*
X356083Y148071D02*
X384075D01*
X310591Y24390D02*
Y52382D01*
X335079Y24390D02*
Y52382D01*
X310591Y24390D02*
X335079D01*
X310591Y52382D02*
X335079D01*
X292480Y68110D02*
X303976D01*
X292480Y50000D02*
X303976D01*
Y68110D01*
X292480Y50000D02*
Y68110D01*
X373425Y220768D02*
Y226083D01*
X380512Y220768D02*
Y226083D01*
X373425D02*
X380512D01*
X373425Y220768D02*
X380512D01*
X316732Y63878D02*
Y69980D01*
X328937Y63878D02*
Y69980D01*
X316732D02*
X328937D01*
X316732Y63878D02*
X328937D01*
X325787Y216535D02*
X341535D01*
X325787Y196850D02*
X341535D01*
X325787D02*
Y216535D01*
X341535Y196850D02*
Y216535D01*
X380118Y159449D02*
X385630D01*
X380118Y171260D02*
X385630D01*
Y159449D02*
Y171260D01*
X380118Y159449D02*
Y171260D01*
X216142Y95669D02*
X242520D01*
X216142Y110236D02*
X242520D01*
X216142Y95669D02*
Y110236D01*
X242520Y95669D02*
Y110236D01*
X349410Y60236D02*
Y65748D01*
Y60236D02*
X361221D01*
X349410Y65748D02*
X361221D01*
Y60236D02*
Y65748D01*
X283465Y307283D02*
Y312795D01*
X271654D02*
X283465D01*
X271654Y307283D02*
X283465D01*
X271654D02*
Y312795D01*
X323819Y307283D02*
Y312795D01*
X312008D02*
X323819D01*
X312008Y307283D02*
X323819D01*
X312008D02*
Y312795D01*
X338583Y307283D02*
Y312795D01*
X326772D02*
X338583D01*
X326772Y307283D02*
X338583D01*
X326772D02*
Y312795D01*
X354035Y158957D02*
Y171752D01*
X360531Y158957D02*
Y171752D01*
X354035Y158957D02*
X360531D01*
X354035Y171752D02*
X360531D01*
X370571Y237500D02*
X383366D01*
X370571Y231004D02*
X383366D01*
X370571D02*
Y237500D01*
X383366Y231004D02*
Y237500D01*
X373327Y158957D02*
Y171752D01*
X366831Y158957D02*
Y171752D01*
X373327D01*
X366831Y158957D02*
X373327D01*
X321358Y12106D02*
X334154D01*
X321358Y5610D02*
X334154D01*
X321358D02*
Y12106D01*
X334154Y5610D02*
Y12106D01*
X345965Y324114D02*
X358760D01*
X345965Y317618D02*
X358760D01*
X345965D02*
Y324114D01*
X358760Y317618D02*
Y324114D01*
X280807Y326279D02*
Y339075D01*
X274311Y326279D02*
Y339075D01*
X280807D01*
X274311Y326279D02*
X280807D01*
X321161D02*
Y339075D01*
X314665Y326279D02*
Y339075D01*
X321161D01*
X314665Y326279D02*
X321161D01*
X335925D02*
Y339075D01*
X329429Y326279D02*
Y339075D01*
X335925D01*
X329429Y326279D02*
X335925D01*
X293799Y209350D02*
X306594D01*
X293799Y215846D02*
X306594D01*
Y209350D02*
Y215846D01*
X293799Y209350D02*
Y215846D01*
Y198524D02*
X306594D01*
X293799Y205020D02*
X306594D01*
Y198524D02*
Y205020D01*
X293799Y198524D02*
Y205020D01*
X112205Y278543D02*
Y282480D01*
X110236Y280512D02*
X114173D01*
X34449Y330709D02*
X38386D01*
X36417Y328740D02*
Y332677D01*
X50197Y256890D02*
X54134D01*
X52165Y254921D02*
Y258858D01*
X90551Y23622D02*
Y27559D01*
X88583Y25591D02*
X92520D01*
X81693Y56102D02*
Y60039D01*
X79724Y58071D02*
X83661D01*
X59055Y67913D02*
Y71850D01*
X57087Y69882D02*
X61024D01*
X35433Y48228D02*
Y52165D01*
X33465Y50197D02*
X37402D01*
X28543Y75787D02*
Y79724D01*
X26575Y77756D02*
X30512D01*
X49213Y100394D02*
Y104331D01*
X47244Y102362D02*
X51181D01*
X5906Y102598D02*
X9843D01*
X7874Y100630D02*
Y104567D01*
X26575Y128937D02*
X30512D01*
X28543Y126969D02*
Y130905D01*
X57087Y241142D02*
X61024D01*
X59055Y239173D02*
Y243110D01*
X120079Y268701D02*
Y272638D01*
X118110Y270669D02*
X122047D01*
X149606Y309055D02*
X153543D01*
X151575Y307087D02*
Y311024D01*
X55118D02*
Y314961D01*
X53150Y312992D02*
X57087D01*
X15748D02*
X19685D01*
X17717Y311024D02*
Y314961D01*
X167323Y135827D02*
X171260D01*
X169291Y133858D02*
Y137795D01*
X120079Y38386D02*
X124016D01*
X122047Y36417D02*
Y40354D01*
X97441Y57087D02*
Y61024D01*
X95472Y59055D02*
X99409D01*
X174213Y223425D02*
X178150D01*
X176181Y221457D02*
Y225394D01*
X120079Y66929D02*
X124016D01*
X122047Y64961D02*
Y68898D01*
X132874Y204724D02*
Y208661D01*
X130905Y206693D02*
X134843D01*
X182087Y163386D02*
Y167323D01*
X180118Y165354D02*
X184055D01*
X28543Y100984D02*
Y104921D01*
X26575Y102953D02*
X30512D01*
X154528Y61024D02*
Y64961D01*
X152559Y62992D02*
X156496D01*
X76772Y308071D02*
Y312008D01*
X74803Y310039D02*
X78740D01*
X117126Y308071D02*
Y312008D01*
X115157Y310039D02*
X119095D01*
X131890Y308071D02*
Y312008D01*
X129921Y310039D02*
X133858D01*
X154528Y165354D02*
X158465D01*
X156496Y163386D02*
Y167323D01*
X176181Y232283D02*
Y236221D01*
X174213Y234252D02*
X178150D01*
X167323Y165354D02*
X171260D01*
X169291Y163386D02*
Y167323D01*
X126969Y6890D02*
Y10827D01*
X125000Y8858D02*
X128937D01*
X151575Y318898D02*
Y322835D01*
X149606Y320866D02*
X153543D01*
X74803Y332677D02*
X78740D01*
X76772Y330709D02*
Y334646D01*
X115157Y332677D02*
X119095D01*
X117126Y330709D02*
Y334646D01*
X129921Y332677D02*
X133858D01*
X131890Y330709D02*
Y334646D01*
X99410Y210630D02*
Y214567D01*
X97441Y212598D02*
X101378D01*
X99410Y199803D02*
Y203740D01*
X97441Y201772D02*
X101378D01*
X312992Y278543D02*
Y282480D01*
X311024Y280512D02*
X314961D01*
X235236Y330709D02*
X239173D01*
X237205Y328740D02*
Y332677D01*
X250984Y256890D02*
X254921D01*
X252953Y254921D02*
Y258858D01*
X291339Y23622D02*
Y27559D01*
X289370Y25591D02*
X293307D01*
X282480Y56102D02*
Y60039D01*
X280512Y58071D02*
X284449D01*
X259842Y67913D02*
Y71850D01*
X257874Y69882D02*
X261811D01*
X236221Y48228D02*
Y52165D01*
X234252Y50197D02*
X238189D01*
X229331Y75787D02*
Y79724D01*
X227362Y77756D02*
X231299D01*
X250000Y100394D02*
Y104331D01*
X248031Y102362D02*
X251969D01*
X206693Y102598D02*
X210630D01*
X208661Y100630D02*
Y104567D01*
X227362Y128937D02*
X231299D01*
X229331Y126969D02*
Y130905D01*
X257874Y241142D02*
X261811D01*
X259842Y239173D02*
Y243110D01*
X320866Y268701D02*
Y272638D01*
X318898Y270669D02*
X322835D01*
X350394Y309055D02*
X354331D01*
X352362Y307087D02*
Y311024D01*
X255906D02*
Y314961D01*
X253937Y312992D02*
X257874D01*
X216535D02*
X220473D01*
X218504Y311024D02*
Y314961D01*
X368110Y135827D02*
X372047D01*
X370079Y133858D02*
Y137795D01*
X320866Y38386D02*
X324803D01*
X322835Y36417D02*
Y40354D01*
X298228Y57087D02*
Y61024D01*
X296260Y59055D02*
X300197D01*
X375000Y223425D02*
X378937D01*
X376969Y221457D02*
Y225394D01*
X320866Y66929D02*
X324803D01*
X322835Y64961D02*
Y68898D01*
X333661Y204724D02*
Y208661D01*
X331693Y206693D02*
X335630D01*
X382874Y163386D02*
Y167323D01*
X380906Y165354D02*
X384842D01*
X229331Y100984D02*
Y104921D01*
X227362Y102953D02*
X231299D01*
X355315Y61024D02*
Y64961D01*
X353346Y62992D02*
X357283D01*
X277559Y308071D02*
Y312008D01*
X275590Y310039D02*
X279528D01*
X317913Y308071D02*
Y312008D01*
X315945Y310039D02*
X319882D01*
X332677Y308071D02*
Y312008D01*
X330709Y310039D02*
X334646D01*
X355315Y165354D02*
X359252D01*
X357283Y163386D02*
Y167323D01*
X376969Y232283D02*
Y236221D01*
X375000Y234252D02*
X378937D01*
X368110Y165354D02*
X372047D01*
X370079Y163386D02*
Y167323D01*
X327756Y6890D02*
Y10827D01*
X325787Y8858D02*
X329724D01*
X352362Y318898D02*
Y322835D01*
X350394Y320866D02*
X354331D01*
X275591Y332677D02*
X279528D01*
X277559Y330709D02*
Y334646D01*
X315945Y332677D02*
X319882D01*
X317913Y330709D02*
Y334646D01*
X330709Y332677D02*
X334646D01*
X332677Y330709D02*
Y334646D01*
X300197Y210630D02*
Y214567D01*
X298228Y212598D02*
X302165D01*
X300197Y199803D02*
Y203740D01*
X298228Y201772D02*
X302165D01*
D39*
X121437Y173307D02*
X146437D01*
Y133307D02*
Y173307D01*
X121437Y133307D02*
X146437D01*
X121437D02*
Y173307D01*
Y133307D02*
Y173307D01*
X322224D02*
X347224D01*
Y133307D02*
Y173307D01*
X322224Y133307D02*
X347224D01*
X322224D02*
Y173307D01*
Y133307D02*
Y173307D01*
X164760Y188567D02*
Y210567D01*
Y188567D02*
X187760D01*
X164760Y210567D02*
X187760D01*
Y188567D02*
Y210567D01*
X365547Y188567D02*
Y210567D01*
Y188567D02*
X388547D01*
X365547Y210567D02*
X388547D01*
Y188567D02*
Y210567D01*
D40*
X196850Y0D02*
Y39370D01*
X196883Y65927D02*
Y172424D01*
X196850Y198819D02*
Y295472D01*
Y198819D02*
Y295472D01*
X196845Y320500D02*
Y348500D01*
D41*
X199803Y46244D02*
Y47244D01*
Y50181D02*
Y51181D01*
Y54118D02*
Y55118D01*
Y58055D02*
Y59055D01*
X193898Y58055D02*
Y59055D01*
Y54118D02*
Y55118D01*
Y50181D02*
Y51181D01*
Y46244D02*
Y47244D01*
X199836Y179207D02*
Y180207D01*
Y183144D02*
Y184144D01*
Y187081D02*
Y188081D01*
Y191018D02*
Y192018D01*
X193931Y191018D02*
Y192018D01*
Y187081D02*
Y188081D01*
Y183144D02*
Y184144D01*
Y179207D02*
Y180207D01*
X199803Y313280D02*
Y314280D01*
Y309343D02*
Y310343D01*
Y305405D02*
Y306405D01*
Y301468D02*
Y302468D01*
X193898Y301468D02*
Y302468D01*
Y305405D02*
Y306405D01*
Y309343D02*
Y310343D01*
Y313280D02*
Y314280D01*
D42*
X53959Y69881D02*
D03*
X33640Y77755D02*
D03*
X254746Y69881D02*
D03*
X234427Y77755D02*
D03*
D43*
X7873Y107696D02*
D03*
X208661D02*
D03*
D44*
X157178Y135827D02*
D03*
X357965D02*
D03*
D45*
X122047Y26272D02*
D03*
D46*
X97443Y51219D02*
D03*
X298231D02*
D03*
D47*
X322835Y26272D02*
D03*
D48*
X102953Y285039D02*
X121457D01*
X102953Y275984D02*
X121457D01*
X102953D02*
Y285039D01*
X121457Y275984D02*
Y285039D01*
X60138Y320177D02*
Y341240D01*
X12697Y320177D02*
Y341240D01*
Y320177D02*
X60138D01*
X12697Y341240D02*
X60138D01*
X56693Y247638D02*
Y266142D01*
X47638Y247638D02*
Y266142D01*
X56693D01*
X47638Y247638D02*
X56693D01*
X80709Y38583D02*
X100394D01*
X80709Y12598D02*
X100394D01*
Y38583D01*
X80709Y12598D02*
Y38583D01*
X77165Y67323D02*
X86221D01*
X77165Y48819D02*
X86221D01*
Y67323D01*
X77165Y48819D02*
Y67323D01*
X49370Y65551D02*
Y74213D01*
Y65551D02*
X68740D01*
X49370Y74213D02*
X68740D01*
Y65551D02*
Y74213D01*
X30906Y40945D02*
X39961D01*
X30906Y59449D02*
X39961D01*
X30906Y40945D02*
Y59449D01*
X39961Y40945D02*
Y59449D01*
X38228Y73425D02*
Y82087D01*
X18858D02*
X38228D01*
X18858Y73425D02*
X38228D01*
X18858D02*
Y82087D01*
X44685Y111614D02*
X53740D01*
X44685Y93110D02*
X53740D01*
Y111614D01*
X44685Y93110D02*
Y111614D01*
X3543Y112284D02*
X12205D01*
X3543Y92913D02*
Y112284D01*
X12205Y92913D02*
Y112284D01*
X3543Y92913D02*
X12205D01*
X37795Y124409D02*
Y133465D01*
X19291Y124409D02*
Y133465D01*
Y124409D02*
X37795D01*
X19291Y133465D02*
X37795D01*
X49803Y236614D02*
Y245669D01*
X68307Y236614D02*
Y245669D01*
X49803D02*
X68307D01*
X49803Y236614D02*
X68307D01*
X110827Y275197D02*
X129331D01*
X110827Y266142D02*
X129331D01*
X110827D02*
Y275197D01*
X129331Y266142D02*
Y275197D01*
X160827Y304528D02*
Y313583D01*
X142323Y304528D02*
Y313583D01*
Y304528D02*
X160827D01*
X142323Y313583D02*
X160827D01*
X45866Y317520D02*
X64370D01*
X45866Y308465D02*
X64370D01*
X45866D02*
Y317520D01*
X64370Y308465D02*
Y317520D01*
X8465Y308465D02*
Y317520D01*
X26969Y308465D02*
Y317520D01*
X8465D02*
X26969D01*
X8465Y308465D02*
X26969D01*
X187008Y122441D02*
Y149213D01*
X151575Y122441D02*
Y149213D01*
Y122441D02*
X187008D01*
X151575Y149213D02*
X187008D01*
X108661Y20669D02*
Y56102D01*
X135433Y20669D02*
Y56102D01*
X108661Y20669D02*
X135433D01*
X108661Y56102D02*
X135433D01*
X90551Y73055D02*
X104331D01*
X90551Y45055D02*
X104331D01*
Y73055D01*
X90551Y45055D02*
Y73055D01*
X169488Y220079D02*
Y226772D01*
X182874Y220079D02*
Y226772D01*
X169488D02*
X182874D01*
X169488Y220079D02*
X182874D01*
X112008Y62894D02*
Y70965D01*
X132087Y62894D02*
Y70965D01*
X112008D02*
X132087D01*
X112008Y62894D02*
X132087D01*
X118307Y217520D02*
X147441D01*
X118307Y195866D02*
X147441D01*
X118307D02*
Y217520D01*
X147441Y195866D02*
Y217520D01*
X175787Y158465D02*
X188386D01*
X175787Y172244D02*
X188386D01*
Y158465D02*
Y172244D01*
X175787Y158465D02*
Y172244D01*
X14370Y86221D02*
X42717D01*
X14370Y119685D02*
X42717D01*
X14370Y86221D02*
Y119685D01*
X42717Y86221D02*
Y119685D01*
X147638Y69685D02*
X161417D01*
X147638Y56299D02*
X161417D01*
Y69685D01*
X147638Y56299D02*
Y69685D01*
X69882Y303346D02*
X83661D01*
X69882Y316732D02*
X83661D01*
X69882Y303346D02*
Y316732D01*
X83661Y303346D02*
Y316732D01*
X110236Y303346D02*
X124016D01*
X110236Y316732D02*
X124016D01*
X110236Y303346D02*
Y316732D01*
X124016Y303346D02*
Y316732D01*
X125000Y303346D02*
X138779D01*
X125000Y316732D02*
X138779D01*
X125000Y303346D02*
Y316732D01*
X138779Y303346D02*
Y316732D01*
X152165Y156496D02*
Y174213D01*
X160827Y156496D02*
Y174213D01*
X152165Y156496D02*
X160827D01*
X152165Y174213D02*
X160827D01*
X167323Y238583D02*
X185039D01*
X167323Y229921D02*
X185039D01*
X167323D02*
Y238583D01*
X185039Y229921D02*
Y238583D01*
X173622Y156496D02*
Y174213D01*
X164961Y156496D02*
Y174213D01*
X173622D01*
X164961Y156496D02*
X173622D01*
X118110Y13189D02*
X135827D01*
X118110Y4528D02*
X135827D01*
X118110D02*
Y13189D01*
X135827Y4528D02*
Y13189D01*
X142717Y325197D02*
X160433D01*
X142717Y316535D02*
X160433D01*
X142717D02*
Y325197D01*
X160433Y316535D02*
Y325197D01*
X81102Y323819D02*
Y341535D01*
X72441Y323819D02*
Y341535D01*
X81102D01*
X72441Y323819D02*
X81102D01*
X121457D02*
Y341535D01*
X112795Y323819D02*
Y341535D01*
X121457D01*
X112795Y323819D02*
X121457D01*
X136221D02*
Y341535D01*
X127559Y323819D02*
Y341535D01*
X136221D01*
X127559Y323819D02*
X136221D01*
X90551Y208268D02*
X108268D01*
X90551Y216929D02*
X108268D01*
Y208268D02*
Y216929D01*
X90551Y208268D02*
Y216929D01*
Y197441D02*
X108268D01*
X90551Y206102D02*
X108268D01*
Y197441D02*
Y206102D01*
X90551Y197441D02*
Y206102D01*
X303740Y285039D02*
X322244D01*
X303740Y275984D02*
X322244D01*
X303740D02*
Y285039D01*
X322244Y275984D02*
Y285039D01*
X260925Y320177D02*
Y341240D01*
X213484Y320177D02*
Y341240D01*
Y320177D02*
X260925D01*
X213484Y341240D02*
X260925D01*
X257480Y247638D02*
Y266142D01*
X248425Y247638D02*
Y266142D01*
X257480D01*
X248425Y247638D02*
X257480D01*
X281496Y38583D02*
X301181D01*
X281496Y12598D02*
X301181D01*
Y38583D01*
X281496Y12598D02*
Y38583D01*
X277953Y67323D02*
X287008D01*
X277953Y48819D02*
X287008D01*
Y67323D01*
X277953Y48819D02*
Y67323D01*
X250157Y65551D02*
Y74213D01*
Y65551D02*
X269528D01*
X250157Y74213D02*
X269528D01*
Y65551D02*
Y74213D01*
X231693Y40945D02*
X240748D01*
X231693Y59449D02*
X240748D01*
X231693Y40945D02*
Y59449D01*
X240748Y40945D02*
Y59449D01*
X239016Y73425D02*
Y82087D01*
X219646D02*
X239016D01*
X219646Y73425D02*
X239016D01*
X219646D02*
Y82087D01*
X245472Y111614D02*
X254528D01*
X245472Y93110D02*
X254528D01*
Y111614D01*
X245472Y93110D02*
Y111614D01*
X204331Y112284D02*
X212992D01*
X204331Y92913D02*
Y112284D01*
X212992Y92913D02*
Y112284D01*
X204331Y92913D02*
X212992D01*
X238583Y124409D02*
Y133465D01*
X220079Y124409D02*
Y133465D01*
Y124409D02*
X238583D01*
X220079Y133465D02*
X238583D01*
X250591Y236614D02*
Y245669D01*
X269094Y236614D02*
Y245669D01*
X250591D02*
X269094D01*
X250591Y236614D02*
X269094D01*
X311614Y275197D02*
X330118D01*
X311614Y266142D02*
X330118D01*
X311614D02*
Y275197D01*
X330118Y266142D02*
Y275197D01*
X361614Y304528D02*
Y313583D01*
X343110Y304528D02*
Y313583D01*
Y304528D02*
X361614D01*
X343110Y313583D02*
X361614D01*
X246654Y317520D02*
X265158D01*
X246654Y308465D02*
X265158D01*
X246654D02*
Y317520D01*
X265158Y308465D02*
Y317520D01*
X209252Y308465D02*
Y317520D01*
X227756Y308465D02*
Y317520D01*
X209252D02*
X227756D01*
X209252Y308465D02*
X227756D01*
X387795Y122441D02*
Y149213D01*
X352362Y122441D02*
Y149213D01*
Y122441D02*
X387795D01*
X352362Y149213D02*
X387795D01*
X309449Y20669D02*
Y56102D01*
X336221Y20669D02*
Y56102D01*
X309449Y20669D02*
X336221D01*
X309449Y56102D02*
X336221D01*
X291339Y73055D02*
X305118D01*
X291339Y45055D02*
X305118D01*
Y73055D01*
X291339Y45055D02*
Y73055D01*
X370276Y220079D02*
Y226772D01*
X383661Y220079D02*
Y226772D01*
X370276D02*
X383661D01*
X370276Y220079D02*
X383661D01*
X312795Y62894D02*
Y70965D01*
X332874Y62894D02*
Y70965D01*
X312795D02*
X332874D01*
X312795Y62894D02*
X332874D01*
X319094Y217520D02*
X348228D01*
X319094Y195866D02*
X348228D01*
X319094D02*
Y217520D01*
X348228Y195866D02*
Y217520D01*
X376575Y158465D02*
X389173D01*
X376575Y172244D02*
X389173D01*
Y158465D02*
Y172244D01*
X376575Y158465D02*
Y172244D01*
X215158Y86221D02*
X243504D01*
X215158Y119685D02*
X243504D01*
X215158Y86221D02*
Y119685D01*
X243504Y86221D02*
Y119685D01*
X348425Y69685D02*
X362205D01*
X348425Y56299D02*
X362205D01*
Y69685D01*
X348425Y56299D02*
Y69685D01*
X270669Y303346D02*
X284449D01*
X270669Y316732D02*
X284449D01*
X270669Y303346D02*
Y316732D01*
X284449Y303346D02*
Y316732D01*
X311024Y303346D02*
X324803D01*
X311024Y316732D02*
X324803D01*
X311024Y303346D02*
Y316732D01*
X324803Y303346D02*
Y316732D01*
X325787Y303346D02*
X339567D01*
X325787Y316732D02*
X339567D01*
X325787Y303346D02*
Y316732D01*
X339567Y303346D02*
Y316732D01*
X352953Y156496D02*
Y174213D01*
X361614Y156496D02*
Y174213D01*
X352953Y156496D02*
X361614D01*
X352953Y174213D02*
X361614D01*
X368110Y238583D02*
X385827D01*
X368110Y229921D02*
X385827D01*
X368110D02*
Y238583D01*
X385827Y229921D02*
Y238583D01*
X374410Y156496D02*
Y174213D01*
X365748Y156496D02*
Y174213D01*
X374410D01*
X365748Y156496D02*
X374410D01*
X318898Y13189D02*
X336614D01*
X318898Y4528D02*
X336614D01*
X318898D02*
Y13189D01*
X336614Y4528D02*
Y13189D01*
X343504Y325197D02*
X361221D01*
X343504Y316535D02*
X361221D01*
X343504D02*
Y325197D01*
X361221Y316535D02*
Y325197D01*
X281890Y323819D02*
Y341535D01*
X273228Y323819D02*
Y341535D01*
X281890D01*
X273228Y323819D02*
X281890D01*
X322244D02*
Y341535D01*
X313583Y323819D02*
Y341535D01*
X322244D01*
X313583Y323819D02*
X322244D01*
X337008D02*
Y341535D01*
X328346Y323819D02*
Y341535D01*
X337008D01*
X328346Y323819D02*
X337008D01*
X291339Y208268D02*
X309055D01*
X291339Y216929D02*
X309055D01*
Y208268D02*
Y216929D01*
X291339Y208268D02*
Y216929D01*
Y197441D02*
X309055D01*
X291339Y206102D02*
X309055D01*
Y197441D02*
Y206102D01*
X291339Y197441D02*
Y206102D01*
D102*
X10027Y146838D02*
Y148438D01*
X11627D01*
Y146838D01*
X10027D01*
Y156838D02*
Y158438D01*
X11627D01*
Y156838D01*
X10027D01*
Y166838D02*
Y168438D01*
X11627D01*
Y166838D01*
X10027D01*
Y176838D02*
Y178438D01*
X11627D01*
Y176838D01*
X10027D01*
Y186838D02*
Y188438D01*
X11627D01*
Y186838D01*
X10027D01*
Y196838D02*
Y198438D01*
X11627D01*
Y196838D01*
X10027D01*
Y206838D02*
Y208438D01*
X11627D01*
Y206838D01*
X10027D01*
Y216838D02*
Y218438D01*
X11627D01*
Y216838D01*
X10027D01*
X171260Y183767D02*
X170460Y185367D01*
X172060D01*
X171260Y183767D01*
X181260D02*
X180460Y185367D01*
X182060D01*
X181260Y183767D01*
X171260Y213767D02*
X170460Y215367D01*
X172060D01*
X171260Y213767D01*
X181260D02*
X180460Y215367D01*
X182060D01*
X181260Y213767D01*
X98957Y331877D02*
X99357Y332277D01*
X99757D01*
X99357Y332677D01*
X99757Y333077D01*
X99357D01*
X98957Y333477D01*
X98557Y333077D01*
X98157D01*
X98557Y332677D01*
X98157Y332277D01*
X98557D01*
X98957Y331877D01*
X93957D02*
X94357Y332277D01*
X94757D01*
X94357Y332677D01*
X94757Y333077D01*
X94357D01*
X93957Y333477D01*
X93557Y333077D01*
X93157D01*
X93557Y332677D01*
X93157Y332277D01*
X93557D01*
X93957Y331877D01*
X88957D02*
X89357Y332277D01*
X89757D01*
X89357Y332677D01*
X89757Y333077D01*
X89357D01*
X88957Y333477D01*
X88557Y333077D01*
X88157D01*
X88557Y332677D01*
X88157Y332277D01*
X88557D01*
X88957Y331877D01*
X103957D02*
X104357Y332277D01*
X104757D01*
X104357Y332677D01*
X104757Y333077D01*
X104357D01*
X103957Y333477D01*
X103557Y333077D01*
X103157D01*
X103557Y332677D01*
X103157Y332277D01*
X103557D01*
X103957Y331877D01*
X128937Y137507D02*
X128137Y139107D01*
X129737D01*
X128937Y137507D01*
X138937D02*
X138137Y139107D01*
X139737D01*
X138937Y137507D01*
X128937Y167507D02*
X128137Y169107D01*
X129737D01*
X128937Y167507D01*
X138937D02*
X138137Y169107D01*
X139737D01*
X138937Y167507D01*
X145617Y289554D02*
Y291154D01*
X147217D01*
Y289554D01*
X145617D01*
X135617D02*
Y291154D01*
X137217D01*
Y289554D01*
X135617D01*
X125617D02*
Y291154D01*
X127217D01*
Y289554D01*
X125617D01*
X115617D02*
Y291154D01*
X117217D01*
Y289554D01*
X115617D01*
X105617D02*
Y291154D01*
X107217D01*
Y289554D01*
X105617D01*
X95617D02*
Y291154D01*
X97217D01*
Y289554D01*
X95617D01*
X85617D02*
Y291154D01*
X87217D01*
Y289554D01*
X85617D01*
X75617D02*
Y291154D01*
X77217D01*
Y289554D01*
X75617D01*
X65617D02*
Y291154D01*
X67217D01*
Y289554D01*
X65617D01*
X55617D02*
Y291154D01*
X57217D01*
Y289554D01*
X55617D01*
X45617D02*
Y291154D01*
X47217D01*
Y289554D01*
X45617D01*
X35617D02*
Y291154D01*
X37217D01*
Y289554D01*
X35617D01*
Y229554D02*
Y231154D01*
X37217D01*
Y229554D01*
X35617D01*
X45617D02*
Y231154D01*
X47217D01*
Y229554D01*
X45617D01*
X55617D02*
Y231154D01*
X57217D01*
Y229554D01*
X55617D01*
X65617D02*
Y231154D01*
X67217D01*
Y229554D01*
X65617D01*
X75617D02*
Y231154D01*
X77217D01*
Y229554D01*
X75617D01*
X85617D02*
Y231154D01*
X87217D01*
Y229554D01*
X85617D01*
X95617D02*
Y231154D01*
X97217D01*
Y229554D01*
X95617D01*
X105617D02*
Y231154D01*
X107217D01*
Y229554D01*
X105617D01*
X115617D02*
Y231154D01*
X117217D01*
Y229554D01*
X115617D01*
X125617D02*
Y231154D01*
X127217D01*
Y229554D01*
X125617D01*
X135617D02*
Y231154D01*
X137217D01*
Y229554D01*
X135617D01*
X145617D02*
Y231154D01*
X147217D01*
Y229554D01*
X145617D01*
X155617Y234554D02*
Y236154D01*
X157217D01*
Y234554D01*
X155617D01*
Y244554D02*
Y246154D01*
X157217D01*
Y244554D01*
X155617D01*
Y254554D02*
Y256154D01*
X157217D01*
Y254554D01*
X155617D01*
Y264554D02*
Y266154D01*
X157217D01*
Y264554D01*
X155617D01*
Y274554D02*
Y276154D01*
X157217D01*
Y274554D01*
X155617D01*
Y284554D02*
Y286154D01*
X157217D01*
Y284554D01*
X155617D01*
X35617Y239554D02*
Y241154D01*
X37217D01*
Y239554D01*
X35617D01*
Y249554D02*
Y251154D01*
X37217D01*
Y249554D01*
X35617D01*
Y259554D02*
Y261154D01*
X37217D01*
Y259554D01*
X35617D01*
X100617Y239554D02*
Y241154D01*
X102217D01*
Y239554D01*
X100617D01*
X110617D02*
Y241154D01*
X112217D01*
Y239554D01*
X110617D01*
X16917Y58255D02*
X17316Y59055D01*
X16917Y59855D01*
X17717Y59455D01*
X18517Y59855D01*
X18116Y59055D01*
X18517Y58255D01*
X17717Y58655D01*
X16917Y58255D01*
X51765Y256490D02*
Y256090D01*
X52565D01*
Y256490D01*
X52965D01*
Y257290D01*
X52565D01*
Y257690D01*
X51765D01*
Y257290D01*
X51365D01*
Y256490D01*
X51765D01*
X58655Y262395D02*
Y261995D01*
X59455D01*
Y262395D01*
X59855D01*
Y263195D01*
X59455D01*
Y263595D01*
X58655D01*
Y263195D01*
X58255D01*
Y262395D01*
X58655D01*
X69482Y260427D02*
Y260027D01*
X70282D01*
Y260427D01*
X70682D01*
Y261227D01*
X70282D01*
Y261627D01*
X69482D01*
Y261227D01*
X69082D01*
Y260427D01*
X69482D01*
X183975Y174903D02*
Y174503D01*
X184775D01*
Y174903D01*
X185175D01*
Y175703D01*
X184775D01*
Y176103D01*
X183975D01*
Y175703D01*
X183575D01*
Y174903D01*
X183975D01*
X89167Y221057D02*
Y220657D01*
X89967D01*
Y221057D01*
X90367D01*
Y221857D01*
X89967D01*
Y222257D01*
X89167D01*
Y221857D01*
X88767D01*
Y221057D01*
X89167D01*
X82277D02*
Y220657D01*
X83077D01*
Y221057D01*
X83477D01*
Y221857D01*
X83077D01*
Y222257D01*
X82277D01*
Y221857D01*
X81877D01*
Y221057D01*
X82277D01*
X133458Y240742D02*
Y240342D01*
X134258D01*
Y240742D01*
X134658D01*
Y241542D01*
X134258D01*
Y241942D01*
X133458D01*
Y241542D01*
X133058D01*
Y240742D01*
X133458D01*
X140355Y240810D02*
Y240410D01*
X141155D01*
Y240810D01*
X141555D01*
Y241610D01*
X141155D01*
Y242010D01*
X140355D01*
Y241610D01*
X139955D01*
Y240810D01*
X140355D01*
X154128Y201372D02*
Y200972D01*
X154928D01*
Y201372D01*
X155328D01*
Y202172D01*
X154928D01*
Y202572D01*
X154128D01*
Y202172D01*
X153728D01*
Y201372D01*
X154128D01*
Y211214D02*
Y210814D01*
X154928D01*
Y211214D01*
X155328D01*
Y212014D01*
X154928D01*
Y212414D01*
X154128D01*
Y212014D01*
X153728D01*
Y211214D01*
X154128D01*
X112789Y196450D02*
Y196050D01*
X113589D01*
Y196450D01*
X113989D01*
Y197250D01*
X113589D01*
Y197650D01*
X112789D01*
Y197250D01*
X112389D01*
Y196450D01*
X112789D01*
X148222Y179718D02*
Y179318D01*
X149022D01*
Y179718D01*
X149422D01*
Y180518D01*
X149022D01*
Y180918D01*
X148222D01*
Y180518D01*
X147822D01*
Y179718D01*
X148222D01*
X137395D02*
Y179318D01*
X138195D01*
Y179718D01*
X138595D01*
Y180518D01*
X138195D01*
Y180918D01*
X137395D01*
Y180518D01*
X136995D01*
Y179718D01*
X137395D01*
X176765Y155112D02*
Y154712D01*
X177565D01*
Y155112D01*
X177965D01*
Y155912D01*
X177565D01*
Y156312D01*
X176765D01*
Y155912D01*
X176365D01*
Y155112D01*
X176765D01*
X168891Y135427D02*
Y135027D01*
X169691D01*
Y135427D01*
X170091D01*
Y136227D01*
X169691D01*
Y136627D01*
X168891D01*
Y136227D01*
X168491D01*
Y135427D01*
X168891D01*
X117710Y142316D02*
Y141917D01*
X118510D01*
Y142316D01*
X118910D01*
Y143116D01*
X118510D01*
Y143517D01*
X117710D01*
Y143116D01*
X117310D01*
Y142316D01*
X117710D01*
X107868D02*
Y141917D01*
X108668D01*
Y142316D01*
X109068D01*
Y143116D01*
X108668D01*
Y143517D01*
X107868D01*
Y143116D01*
X107468D01*
Y142316D01*
X107868D01*
X117710Y179718D02*
Y179318D01*
X118510D01*
Y179718D01*
X118910D01*
Y180518D01*
X118510D01*
Y180918D01*
X117710D01*
Y180518D01*
X117310D01*
Y179718D01*
X117710D01*
X107868D02*
Y179318D01*
X108668D01*
Y179718D01*
X109068D01*
Y180518D01*
X108668D01*
Y180918D01*
X107868D01*
Y180518D01*
X107468D01*
Y179718D01*
X107868D01*
X117710Y160033D02*
Y159633D01*
X118510D01*
Y160033D01*
X118910D01*
Y160833D01*
X118510D01*
Y161233D01*
X117710D01*
Y160833D01*
X117310D01*
Y160033D01*
X117710D01*
X107868D02*
Y159633D01*
X108668D01*
Y160033D01*
X109068D01*
Y160833D01*
X108668D01*
Y161233D01*
X107868D01*
Y160833D01*
X107468D01*
Y160033D01*
X107868D01*
X176765Y98025D02*
Y97625D01*
X177565D01*
Y98025D01*
X177965D01*
Y98825D01*
X177565D01*
Y99225D01*
X176765D01*
Y98825D01*
X176365D01*
Y98025D01*
X176765D01*
X166923D02*
Y97625D01*
X167723D01*
Y98025D01*
X168123D01*
Y98825D01*
X167723D01*
Y99225D01*
X166923D01*
Y98825D01*
X166523D01*
Y98025D01*
X166923D01*
X157080D02*
Y97625D01*
X157880D01*
Y98025D01*
X158280D01*
Y98825D01*
X157880D01*
Y99225D01*
X157080D01*
Y98825D01*
X156680D01*
Y98025D01*
X157080D01*
X176765Y14364D02*
Y13964D01*
X177565D01*
Y14364D01*
X177965D01*
Y15164D01*
X177565D01*
Y15564D01*
X176765D01*
Y15164D01*
X176365D01*
Y14364D01*
X176765D01*
X162002D02*
Y13964D01*
X162802D01*
Y14364D01*
X163202D01*
Y15164D01*
X162802D01*
Y15564D01*
X162002D01*
Y15164D01*
X161602D01*
Y14364D01*
X162002D01*
X102946Y4521D02*
Y4121D01*
X103746D01*
Y4521D01*
X104147D01*
Y5321D01*
X103746D01*
Y5721D01*
X102946D01*
Y5321D01*
X102547D01*
Y4521D01*
X102946D01*
X83261D02*
Y4121D01*
X84061D01*
Y4521D01*
X84461D01*
Y5321D01*
X84061D01*
Y5721D01*
X83261D01*
Y5321D01*
X82861D01*
Y4521D01*
X83261D01*
X63576D02*
Y4121D01*
X64376D01*
Y4521D01*
X64776D01*
Y5321D01*
X64376D01*
Y5721D01*
X63576D01*
Y5321D01*
X63176D01*
Y4521D01*
X63576D01*
X34049Y19285D02*
Y18885D01*
X34849D01*
Y19285D01*
X35249D01*
Y20085D01*
X34849D01*
Y20485D01*
X34049D01*
Y20085D01*
X33649D01*
Y19285D01*
X34049D01*
Y29128D02*
Y28728D01*
X34849D01*
Y29128D01*
X35249D01*
Y29928D01*
X34849D01*
Y30328D01*
X34049D01*
Y29928D01*
X33649D01*
Y29128D01*
X34049D01*
X5505Y48813D02*
Y48413D01*
X6306D01*
Y48813D01*
X6706D01*
Y49613D01*
X6306D01*
Y50013D01*
X5505D01*
Y49613D01*
X5105D01*
Y48813D01*
X5505D01*
Y58655D02*
Y58255D01*
X6306D01*
Y58655D01*
X6706D01*
Y59455D01*
X6306D01*
Y59855D01*
X5505D01*
Y59455D01*
X5105D01*
Y58655D01*
X5505D01*
Y68498D02*
Y68098D01*
X6306D01*
Y68498D01*
X6706D01*
Y69298D01*
X6306D01*
Y69698D01*
X5505D01*
Y69298D01*
X5105D01*
Y68498D01*
X5505D01*
X102946Y98025D02*
Y97625D01*
X103746D01*
Y98025D01*
X104147D01*
Y98825D01*
X103746D01*
Y99225D01*
X102946D01*
Y98825D01*
X102547D01*
Y98025D01*
X102946D01*
X93104D02*
Y97625D01*
X93904D01*
Y98025D01*
X94304D01*
Y98825D01*
X93904D01*
Y99225D01*
X93104D01*
Y98825D01*
X92704D01*
Y98025D01*
X93104D01*
X83261D02*
Y97625D01*
X84061D01*
Y98025D01*
X84461D01*
Y98825D01*
X84061D01*
Y99225D01*
X83261D01*
Y98825D01*
X82861D01*
Y98025D01*
X83261D01*
X63576Y122632D02*
Y122231D01*
X64376D01*
Y122632D01*
X64776D01*
Y123432D01*
X64376D01*
Y123831D01*
X63576D01*
Y123432D01*
X63176D01*
Y122632D01*
X63576D01*
X53734D02*
Y122231D01*
X54534D01*
Y122632D01*
X54934D01*
Y123432D01*
X54534D01*
Y123831D01*
X53734D01*
Y123432D01*
X53334D01*
Y122632D01*
X53734D01*
X38970Y142316D02*
Y141917D01*
X39770D01*
Y142316D01*
X40170D01*
Y143116D01*
X39770D01*
Y143517D01*
X38970D01*
Y143116D01*
X38570D01*
Y142316D01*
X38970D01*
X29128D02*
Y141917D01*
X29928D01*
Y142316D01*
X30328D01*
Y143116D01*
X29928D01*
Y143517D01*
X29128D01*
Y143116D01*
X28728D01*
Y142316D01*
X29128D01*
X48813Y182671D02*
Y182271D01*
X49613D01*
Y182671D01*
X50013D01*
Y183471D01*
X49613D01*
Y183871D01*
X48813D01*
Y183471D01*
X48413D01*
Y182671D01*
X48813D01*
Y191529D02*
Y191129D01*
X49613D01*
Y191529D01*
X50013D01*
Y192329D01*
X49613D01*
Y192729D01*
X48813D01*
Y192329D01*
X48413D01*
Y191529D01*
X48813D01*
X29128D02*
Y191129D01*
X29928D01*
Y191529D01*
X30328D01*
Y192329D01*
X29928D01*
Y192729D01*
X29128D01*
Y192329D01*
X28728D01*
Y191529D01*
X29128D01*
Y201372D02*
Y200972D01*
X29928D01*
Y201372D01*
X30328D01*
Y202172D01*
X29928D01*
Y202572D01*
X29128D01*
Y202172D01*
X28728D01*
Y201372D01*
X29128D01*
Y211214D02*
Y210814D01*
X29928D01*
Y211214D01*
X30328D01*
Y212014D01*
X29928D01*
Y212414D01*
X29128D01*
Y212014D01*
X28728D01*
Y211214D01*
X29128D01*
X9443Y250584D02*
Y250184D01*
X10243D01*
Y250584D01*
X10643D01*
Y251384D01*
X10243D01*
Y251784D01*
X9443D01*
Y251384D01*
X9042D01*
Y250584D01*
X9443D01*
Y260427D02*
Y260027D01*
X10243D01*
Y260427D01*
X10643D01*
Y261227D01*
X10243D01*
Y261627D01*
X9443D01*
Y261227D01*
X9042D01*
Y260427D01*
X9443D01*
Y270269D02*
Y269869D01*
X10243D01*
Y270269D01*
X10643D01*
Y271069D01*
X10243D01*
Y271469D01*
X9443D01*
Y271069D01*
X9042D01*
Y270269D01*
X9443D01*
X29128Y273222D02*
Y272822D01*
X29928D01*
Y273222D01*
X30328D01*
Y274022D01*
X29928D01*
Y274422D01*
X29128D01*
Y274022D01*
X28728D01*
Y273222D01*
X29128D01*
X38970D02*
Y272822D01*
X39770D01*
Y273222D01*
X40170D01*
Y274022D01*
X39770D01*
Y274422D01*
X38970D01*
Y274022D01*
X38570D01*
Y273222D01*
X38970D01*
X83261Y283065D02*
Y282665D01*
X84061D01*
Y283065D01*
X84461D01*
Y283865D01*
X84061D01*
Y284265D01*
X83261D01*
Y283865D01*
X82861D01*
Y283065D01*
X83261D01*
X111805Y257474D02*
Y257074D01*
X112605D01*
Y257474D01*
X113005D01*
Y258274D01*
X112605D01*
Y258674D01*
X111805D01*
Y258274D01*
X111405D01*
Y257474D01*
X111805D01*
X124600D02*
Y257074D01*
X125400D01*
Y257474D01*
X125800D01*
Y258274D01*
X125400D01*
Y258674D01*
X124600D01*
Y258274D01*
X124200D01*
Y257474D01*
X124600D01*
X137395Y265348D02*
Y264948D01*
X138195D01*
Y265348D01*
X138595D01*
Y266148D01*
X138195D01*
Y266548D01*
X137395D01*
Y266148D01*
X136995D01*
Y265348D01*
X137395D01*
Y275190D02*
Y274791D01*
X138195D01*
Y275190D01*
X138595D01*
Y275991D01*
X138195D01*
Y276391D01*
X137395D01*
Y275991D01*
X136995D01*
Y275190D01*
X137395D01*
X174797Y255505D02*
Y255105D01*
X175597D01*
Y255505D01*
X175997D01*
Y256306D01*
X175597D01*
Y256705D01*
X174797D01*
Y256306D01*
X174397D01*
Y255505D01*
X174797D01*
Y265348D02*
Y264948D01*
X175597D01*
Y265348D01*
X175997D01*
Y266148D01*
X175597D01*
Y266548D01*
X174797D01*
Y266148D01*
X174397D01*
Y265348D01*
X174797D01*
Y274206D02*
Y273806D01*
X175597D01*
Y274206D01*
X175997D01*
Y275006D01*
X175597D01*
Y275406D01*
X174797D01*
Y275006D01*
X174397D01*
Y274206D01*
X174797D01*
Y314561D02*
Y314161D01*
X175597D01*
Y314561D01*
X175997D01*
Y315361D01*
X175597D01*
Y315761D01*
X174797D01*
Y315361D01*
X174397D01*
Y314561D01*
X174797D01*
Y324403D02*
Y324003D01*
X175597D01*
Y324403D01*
X175997D01*
Y325203D01*
X175597D01*
Y325603D01*
X174797D01*
Y325203D01*
X174397D01*
Y324403D01*
X174797D01*
Y334246D02*
Y333846D01*
X175597D01*
Y334246D01*
X175997D01*
Y335046D01*
X175597D01*
Y335446D01*
X174797D01*
Y335046D01*
X174397D01*
Y334246D01*
X174797D01*
X89167Y309639D02*
Y309239D01*
X89967D01*
Y309639D01*
X90367D01*
Y310439D01*
X89967D01*
Y310839D01*
X89167D01*
Y310439D01*
X88767D01*
Y309639D01*
X89167D01*
X96057D02*
Y309239D01*
X96857D01*
Y309639D01*
X97257D01*
Y310439D01*
X96857D01*
Y310839D01*
X96057D01*
Y310439D01*
X95657D01*
Y309639D01*
X96057D01*
X102946D02*
Y309239D01*
X103746D01*
Y309639D01*
X104147D01*
Y310439D01*
X103746D01*
Y310839D01*
X102946D01*
Y310439D01*
X102547D01*
Y309639D01*
X102946D01*
X83261Y253537D02*
Y253137D01*
X84061D01*
Y253537D01*
X84461D01*
Y254337D01*
X84061D01*
Y254737D01*
X83261D01*
Y254337D01*
X82861D01*
Y253537D01*
X83261D01*
X90151Y260427D02*
Y260027D01*
X90951D01*
Y260427D01*
X91351D01*
Y261227D01*
X90951D01*
Y261627D01*
X90151D01*
Y261227D01*
X89751D01*
Y260427D01*
X90151D01*
X83261Y267317D02*
Y266916D01*
X84061D01*
Y267317D01*
X84461D01*
Y268116D01*
X84061D01*
Y268516D01*
X83261D01*
Y268116D01*
X82861D01*
Y267317D01*
X83261D01*
X76372Y260427D02*
Y260027D01*
X77172D01*
Y260427D01*
X77572D01*
Y261227D01*
X77172D01*
Y261627D01*
X76372D01*
Y261227D01*
X75972D01*
Y260427D01*
X76372D01*
X85230Y192513D02*
Y192113D01*
X86030D01*
Y192513D01*
X86430D01*
Y193313D01*
X86030D01*
Y193713D01*
X85230D01*
Y193313D01*
X84830D01*
Y192513D01*
X85230D01*
X67513Y182671D02*
Y182271D01*
X68313D01*
Y182671D01*
X68713D01*
Y183471D01*
X68313D01*
Y183871D01*
X67513D01*
Y183471D01*
X67113D01*
Y182671D01*
X67513D01*
Y187592D02*
Y187192D01*
X68313D01*
Y187592D01*
X68713D01*
Y188392D01*
X68313D01*
Y188792D01*
X67513D01*
Y188392D01*
X67113D01*
Y187592D01*
X67513D01*
Y192513D02*
Y192113D01*
X68313D01*
Y192513D01*
X68713D01*
Y193313D01*
X68313D01*
Y193713D01*
X67513D01*
Y193313D01*
X67113D01*
Y192513D01*
X67513D01*
X116726Y260427D02*
Y260027D01*
X117526D01*
Y260427D01*
X117926D01*
Y261227D01*
X117526D01*
Y261627D01*
X116726D01*
Y261227D01*
X116326D01*
Y260427D01*
X116726D01*
X106884D02*
Y260027D01*
X107684D01*
Y260427D01*
X108083D01*
Y261227D01*
X107684D01*
Y261627D01*
X106884D01*
Y261227D01*
X106483D01*
Y260427D01*
X106884D01*
X104915Y271253D02*
Y270853D01*
X105715D01*
Y271253D01*
X106115D01*
Y272054D01*
X105715D01*
Y272453D01*
X104915D01*
Y272054D01*
X104515D01*
Y271253D01*
X104915D01*
X108852D02*
Y270853D01*
X109652D01*
Y271253D01*
X110052D01*
Y272054D01*
X109652D01*
Y272453D01*
X108852D01*
Y272054D01*
X108452D01*
Y271253D01*
X108852D01*
X63303Y247291D02*
Y246891D01*
X64103D01*
Y247291D01*
X64503D01*
Y248091D01*
X64103D01*
Y248491D01*
X63303D01*
Y248091D01*
X62903D01*
Y247291D01*
X63303D01*
X70466Y240742D02*
Y240342D01*
X71266D01*
Y240742D01*
X71666D01*
Y241542D01*
X71266D01*
Y241942D01*
X70466D01*
Y241542D01*
X70066D01*
Y240742D01*
X70466D01*
X28143Y306687D02*
Y306287D01*
X28943D01*
Y306687D01*
X29343D01*
Y307487D01*
X28943D01*
Y307887D01*
X28143D01*
Y307487D01*
X27743D01*
Y306687D01*
X28143D01*
X43891D02*
Y306287D01*
X44691D01*
Y306687D01*
X45091D01*
Y307487D01*
X44691D01*
Y307887D01*
X43891D01*
Y307487D01*
X43491D01*
Y306687D01*
X43891D01*
X81293Y272238D02*
Y271838D01*
X82093D01*
Y272238D01*
X82493D01*
Y273038D01*
X82093D01*
Y273438D01*
X81293D01*
Y273038D01*
X80893D01*
Y272238D01*
X81293D01*
X85230Y273222D02*
Y272822D01*
X86030D01*
Y273222D01*
X86430D01*
Y274022D01*
X86030D01*
Y274422D01*
X85230D01*
Y274022D01*
X84830D01*
Y273222D01*
X85230D01*
X162002Y70466D02*
Y70066D01*
X162802D01*
Y70466D01*
X163202D01*
Y71266D01*
X162802D01*
Y71666D01*
X162002D01*
Y71266D01*
X161602D01*
Y70466D01*
X162002D01*
X164954Y233852D02*
Y233452D01*
X165754D01*
Y233852D01*
X166154D01*
Y234652D01*
X165754D01*
Y235052D01*
X164954D01*
Y234652D01*
X164554D01*
Y233852D01*
X164954D01*
X169876Y148222D02*
Y147822D01*
X170676D01*
Y148222D01*
X171076D01*
Y149022D01*
X170676D01*
Y149422D01*
X169876D01*
Y149022D01*
X169476D01*
Y148222D01*
X169876D01*
X80309Y197435D02*
Y197035D01*
X81109D01*
Y197435D01*
X81509D01*
Y198235D01*
X81109D01*
Y198635D01*
X80309D01*
Y198235D01*
X79909D01*
Y197435D01*
X80309D01*
X112789Y213183D02*
Y212783D01*
X113589D01*
Y213183D01*
X113989D01*
Y213983D01*
X113589D01*
Y214383D01*
X112789D01*
Y213983D01*
X112389D01*
Y213183D01*
X112789D01*
X174397Y58255D02*
X174797Y59055D01*
X174397Y59855D01*
X175197Y59455D01*
X175997Y59855D01*
X175597Y59055D01*
X175997Y58255D01*
X175197Y58655D01*
X174397Y58255D01*
X174397Y294476D02*
X174797Y295276D01*
X174397Y296076D01*
X175197Y295676D01*
X175997Y296076D01*
X175597Y295276D01*
X175997Y294476D01*
X175197Y294876D01*
X174397Y294476D01*
X16917D02*
X17316Y295276D01*
X16917Y296076D01*
X17717Y295676D01*
X18517Y296076D01*
X18116Y295276D01*
X18517Y294476D01*
X17717Y294876D01*
X16917Y294476D01*
X210814Y146838D02*
Y148438D01*
X212414D01*
Y146838D01*
X210814D01*
Y156838D02*
Y158438D01*
X212414D01*
Y156838D01*
X210814D01*
Y166838D02*
Y168438D01*
X212414D01*
Y166838D01*
X210814D01*
Y176838D02*
Y178438D01*
X212414D01*
Y176838D01*
X210814D01*
Y186838D02*
Y188438D01*
X212414D01*
Y186838D01*
X210814D01*
Y196838D02*
Y198438D01*
X212414D01*
Y196838D01*
X210814D01*
Y206838D02*
Y208438D01*
X212414D01*
Y206838D01*
X210814D01*
Y216838D02*
Y218438D01*
X212414D01*
Y216838D01*
X210814D01*
X372047Y183767D02*
X371247Y185367D01*
X372847D01*
X372047Y183767D01*
X382047D02*
X381247Y185367D01*
X382847D01*
X382047Y183767D01*
X372047Y213767D02*
X371247Y215367D01*
X372847D01*
X372047Y213767D01*
X382047D02*
X381247Y215367D01*
X382847D01*
X382047Y213767D01*
X299744Y331877D02*
X300144Y332277D01*
X300544D01*
X300144Y332677D01*
X300544Y333077D01*
X300144D01*
X299744Y333477D01*
X299344Y333077D01*
X298944D01*
X299344Y332677D01*
X298944Y332277D01*
X299344D01*
X299744Y331877D01*
X294744D02*
X295144Y332277D01*
X295544D01*
X295144Y332677D01*
X295544Y333077D01*
X295144D01*
X294744Y333477D01*
X294344Y333077D01*
X293944D01*
X294344Y332677D01*
X293944Y332277D01*
X294344D01*
X294744Y331877D01*
X289744D02*
X290144Y332277D01*
X290544D01*
X290144Y332677D01*
X290544Y333077D01*
X290144D01*
X289744Y333477D01*
X289344Y333077D01*
X288944D01*
X289344Y332677D01*
X288944Y332277D01*
X289344D01*
X289744Y331877D01*
X304744D02*
X305144Y332277D01*
X305544D01*
X305144Y332677D01*
X305544Y333077D01*
X305144D01*
X304744Y333477D01*
X304344Y333077D01*
X303944D01*
X304344Y332677D01*
X303944Y332277D01*
X304344D01*
X304744Y331877D01*
X329724Y137507D02*
X328924Y139107D01*
X330524D01*
X329724Y137507D01*
X339724D02*
X338924Y139107D01*
X340524D01*
X339724Y137507D01*
X329724Y167507D02*
X328924Y169107D01*
X330524D01*
X329724Y167507D01*
X339724D02*
X338924Y169107D01*
X340524D01*
X339724Y167507D01*
X346405Y289554D02*
Y291154D01*
X348005D01*
Y289554D01*
X346405D01*
X336405D02*
Y291154D01*
X338005D01*
Y289554D01*
X336405D01*
X326405D02*
Y291154D01*
X328005D01*
Y289554D01*
X326405D01*
X316405D02*
Y291154D01*
X318005D01*
Y289554D01*
X316405D01*
X306405D02*
Y291154D01*
X308005D01*
Y289554D01*
X306405D01*
X296405D02*
Y291154D01*
X298005D01*
Y289554D01*
X296405D01*
X286405D02*
Y291154D01*
X288005D01*
Y289554D01*
X286405D01*
X276405D02*
Y291154D01*
X278005D01*
Y289554D01*
X276405D01*
X266405D02*
Y291154D01*
X268005D01*
Y289554D01*
X266405D01*
X256405D02*
Y291154D01*
X258005D01*
Y289554D01*
X256405D01*
X246405D02*
Y291154D01*
X248005D01*
Y289554D01*
X246405D01*
X236405D02*
Y291154D01*
X238005D01*
Y289554D01*
X236405D01*
Y229554D02*
Y231154D01*
X238005D01*
Y229554D01*
X236405D01*
X246405D02*
Y231154D01*
X248005D01*
Y229554D01*
X246405D01*
X256405D02*
Y231154D01*
X258005D01*
Y229554D01*
X256405D01*
X266405D02*
Y231154D01*
X268005D01*
Y229554D01*
X266405D01*
X276405D02*
Y231154D01*
X278005D01*
Y229554D01*
X276405D01*
X286405D02*
Y231154D01*
X288005D01*
Y229554D01*
X286405D01*
X296405D02*
Y231154D01*
X298005D01*
Y229554D01*
X296405D01*
X306405D02*
Y231154D01*
X308005D01*
Y229554D01*
X306405D01*
X316405D02*
Y231154D01*
X318005D01*
Y229554D01*
X316405D01*
X326405D02*
Y231154D01*
X328005D01*
Y229554D01*
X326405D01*
X336405D02*
Y231154D01*
X338005D01*
Y229554D01*
X336405D01*
X346405D02*
Y231154D01*
X348005D01*
Y229554D01*
X346405D01*
X356405Y234554D02*
Y236154D01*
X358005D01*
Y234554D01*
X356405D01*
Y244554D02*
Y246154D01*
X358005D01*
Y244554D01*
X356405D01*
Y254554D02*
Y256154D01*
X358005D01*
Y254554D01*
X356405D01*
Y264554D02*
Y266154D01*
X358005D01*
Y264554D01*
X356405D01*
Y274554D02*
Y276154D01*
X358005D01*
Y274554D01*
X356405D01*
Y284554D02*
Y286154D01*
X358005D01*
Y284554D01*
X356405D01*
X236405Y239554D02*
Y241154D01*
X238005D01*
Y239554D01*
X236405D01*
Y249554D02*
Y251154D01*
X238005D01*
Y249554D01*
X236405D01*
Y259554D02*
Y261154D01*
X238005D01*
Y259554D01*
X236405D01*
X301405Y239554D02*
Y241154D01*
X303005D01*
Y239554D01*
X301405D01*
X311405D02*
Y241154D01*
X313005D01*
Y239554D01*
X311405D01*
X217704Y58255D02*
X218104Y59055D01*
X217704Y59855D01*
X218504Y59455D01*
X219304Y59855D01*
X218904Y59055D01*
X219304Y58255D01*
X218504Y58655D01*
X217704Y58255D01*
X252553Y256490D02*
Y256090D01*
X253353D01*
Y256490D01*
X253753D01*
Y257290D01*
X253353D01*
Y257690D01*
X252553D01*
Y257290D01*
X252153D01*
Y256490D01*
X252553D01*
X259442Y262395D02*
Y261995D01*
X260243D01*
Y262395D01*
X260643D01*
Y263195D01*
X260243D01*
Y263595D01*
X259442D01*
Y263195D01*
X259043D01*
Y262395D01*
X259442D01*
X270269Y260427D02*
Y260027D01*
X271069D01*
Y260427D01*
X271469D01*
Y261227D01*
X271069D01*
Y261627D01*
X270269D01*
Y261227D01*
X269869D01*
Y260427D01*
X270269D01*
X384763Y174903D02*
Y174503D01*
X385563D01*
Y174903D01*
X385963D01*
Y175703D01*
X385563D01*
Y176103D01*
X384763D01*
Y175703D01*
X384363D01*
Y174903D01*
X384763D01*
X289954Y221057D02*
Y220657D01*
X290754D01*
Y221057D01*
X291154D01*
Y221857D01*
X290754D01*
Y222257D01*
X289954D01*
Y221857D01*
X289554D01*
Y221057D01*
X289954D01*
X283065D02*
Y220657D01*
X283865D01*
Y221057D01*
X284265D01*
Y221857D01*
X283865D01*
Y222257D01*
X283065D01*
Y221857D01*
X282665D01*
Y221057D01*
X283065D01*
X334246Y240742D02*
Y240342D01*
X335046D01*
Y240742D01*
X335446D01*
Y241542D01*
X335046D01*
Y241942D01*
X334246D01*
Y241542D01*
X333846D01*
Y240742D01*
X334246D01*
X341143Y240810D02*
Y240410D01*
X341943D01*
Y240810D01*
X342343D01*
Y241610D01*
X341943D01*
Y242010D01*
X341143D01*
Y241610D01*
X340743D01*
Y240810D01*
X341143D01*
X354915Y201372D02*
Y200972D01*
X355715D01*
Y201372D01*
X356115D01*
Y202172D01*
X355715D01*
Y202572D01*
X354915D01*
Y202172D01*
X354515D01*
Y201372D01*
X354915D01*
Y211214D02*
Y210814D01*
X355715D01*
Y211214D01*
X356115D01*
Y212014D01*
X355715D01*
Y212414D01*
X354915D01*
Y212014D01*
X354515D01*
Y211214D01*
X354915D01*
X313576Y196450D02*
Y196050D01*
X314376D01*
Y196450D01*
X314776D01*
Y197250D01*
X314376D01*
Y197650D01*
X313576D01*
Y197250D01*
X313176D01*
Y196450D01*
X313576D01*
X349009Y179718D02*
Y179318D01*
X349810D01*
Y179718D01*
X350209D01*
Y180518D01*
X349810D01*
Y180918D01*
X349009D01*
Y180518D01*
X348609D01*
Y179718D01*
X349009D01*
X338183D02*
Y179318D01*
X338983D01*
Y179718D01*
X339383D01*
Y180518D01*
X338983D01*
Y180918D01*
X338183D01*
Y180518D01*
X337783D01*
Y179718D01*
X338183D01*
X377553Y155112D02*
Y154712D01*
X378353D01*
Y155112D01*
X378753D01*
Y155912D01*
X378353D01*
Y156312D01*
X377553D01*
Y155912D01*
X377153D01*
Y155112D01*
X377553D01*
X369679Y135427D02*
Y135027D01*
X370479D01*
Y135427D01*
X370879D01*
Y136227D01*
X370479D01*
Y136627D01*
X369679D01*
Y136227D01*
X369279D01*
Y135427D01*
X369679D01*
X318498Y142316D02*
Y141917D01*
X319298D01*
Y142316D01*
X319698D01*
Y143116D01*
X319298D01*
Y143517D01*
X318498D01*
Y143116D01*
X318098D01*
Y142316D01*
X318498D01*
X308655D02*
Y141917D01*
X309455D01*
Y142316D01*
X309855D01*
Y143116D01*
X309455D01*
Y143517D01*
X308655D01*
Y143116D01*
X308255D01*
Y142316D01*
X308655D01*
X318498Y179718D02*
Y179318D01*
X319298D01*
Y179718D01*
X319698D01*
Y180518D01*
X319298D01*
Y180918D01*
X318498D01*
Y180518D01*
X318098D01*
Y179718D01*
X318498D01*
X308655D02*
Y179318D01*
X309455D01*
Y179718D01*
X309855D01*
Y180518D01*
X309455D01*
Y180918D01*
X308655D01*
Y180518D01*
X308255D01*
Y179718D01*
X308655D01*
X318498Y160033D02*
Y159633D01*
X319298D01*
Y160033D01*
X319698D01*
Y160833D01*
X319298D01*
Y161233D01*
X318498D01*
Y160833D01*
X318098D01*
Y160033D01*
X318498D01*
X308655D02*
Y159633D01*
X309455D01*
Y160033D01*
X309855D01*
Y160833D01*
X309455D01*
Y161233D01*
X308655D01*
Y160833D01*
X308255D01*
Y160033D01*
X308655D01*
X377553Y98025D02*
Y97625D01*
X378353D01*
Y98025D01*
X378753D01*
Y98825D01*
X378353D01*
Y99225D01*
X377553D01*
Y98825D01*
X377153D01*
Y98025D01*
X377553D01*
X367710D02*
Y97625D01*
X368510D01*
Y98025D01*
X368910D01*
Y98825D01*
X368510D01*
Y99225D01*
X367710D01*
Y98825D01*
X367310D01*
Y98025D01*
X367710D01*
X357868D02*
Y97625D01*
X358668D01*
Y98025D01*
X359068D01*
Y98825D01*
X358668D01*
Y99225D01*
X357868D01*
Y98825D01*
X357468D01*
Y98025D01*
X357868D01*
X377553Y14364D02*
Y13964D01*
X378353D01*
Y14364D01*
X378753D01*
Y15164D01*
X378353D01*
Y15564D01*
X377553D01*
Y15164D01*
X377153D01*
Y14364D01*
X377553D01*
X362789D02*
Y13964D01*
X363589D01*
Y14364D01*
X363989D01*
Y15164D01*
X363589D01*
Y15564D01*
X362789D01*
Y15164D01*
X362389D01*
Y14364D01*
X362789D01*
X303734Y4521D02*
Y4121D01*
X304534D01*
Y4521D01*
X304934D01*
Y5321D01*
X304534D01*
Y5721D01*
X303734D01*
Y5321D01*
X303334D01*
Y4521D01*
X303734D01*
X284049D02*
Y4121D01*
X284849D01*
Y4521D01*
X285249D01*
Y5321D01*
X284849D01*
Y5721D01*
X284049D01*
Y5321D01*
X283649D01*
Y4521D01*
X284049D01*
X264364D02*
Y4121D01*
X265164D01*
Y4521D01*
X265564D01*
Y5321D01*
X265164D01*
Y5721D01*
X264364D01*
Y5321D01*
X263964D01*
Y4521D01*
X264364D01*
X234836Y19285D02*
Y18885D01*
X235636D01*
Y19285D01*
X236036D01*
Y20085D01*
X235636D01*
Y20485D01*
X234836D01*
Y20085D01*
X234436D01*
Y19285D01*
X234836D01*
Y29128D02*
Y28728D01*
X235636D01*
Y29128D01*
X236036D01*
Y29928D01*
X235636D01*
Y30328D01*
X234836D01*
Y29928D01*
X234436D01*
Y29128D01*
X234836D01*
X206293Y48813D02*
Y48413D01*
X207093D01*
Y48813D01*
X207493D01*
Y49613D01*
X207093D01*
Y50013D01*
X206293D01*
Y49613D01*
X205893D01*
Y48813D01*
X206293D01*
Y58655D02*
Y58255D01*
X207093D01*
Y58655D01*
X207493D01*
Y59455D01*
X207093D01*
Y59855D01*
X206293D01*
Y59455D01*
X205893D01*
Y58655D01*
X206293D01*
Y68498D02*
Y68098D01*
X207093D01*
Y68498D01*
X207493D01*
Y69298D01*
X207093D01*
Y69698D01*
X206293D01*
Y69298D01*
X205893D01*
Y68498D01*
X206293D01*
X303734Y98025D02*
Y97625D01*
X304534D01*
Y98025D01*
X304934D01*
Y98825D01*
X304534D01*
Y99225D01*
X303734D01*
Y98825D01*
X303334D01*
Y98025D01*
X303734D01*
X293891D02*
Y97625D01*
X294691D01*
Y98025D01*
X295091D01*
Y98825D01*
X294691D01*
Y99225D01*
X293891D01*
Y98825D01*
X293491D01*
Y98025D01*
X293891D01*
X284049D02*
Y97625D01*
X284849D01*
Y98025D01*
X285249D01*
Y98825D01*
X284849D01*
Y99225D01*
X284049D01*
Y98825D01*
X283649D01*
Y98025D01*
X284049D01*
X264364Y122632D02*
Y122231D01*
X265164D01*
Y122632D01*
X265564D01*
Y123432D01*
X265164D01*
Y123831D01*
X264364D01*
Y123432D01*
X263964D01*
Y122632D01*
X264364D01*
X254521D02*
Y122231D01*
X255321D01*
Y122632D01*
X255721D01*
Y123432D01*
X255321D01*
Y123831D01*
X254521D01*
Y123432D01*
X254121D01*
Y122632D01*
X254521D01*
X239757Y142316D02*
Y141917D01*
X240558D01*
Y142316D01*
X240957D01*
Y143116D01*
X240558D01*
Y143517D01*
X239757D01*
Y143116D01*
X239357D01*
Y142316D01*
X239757D01*
X229915D02*
Y141917D01*
X230715D01*
Y142316D01*
X231115D01*
Y143116D01*
X230715D01*
Y143517D01*
X229915D01*
Y143116D01*
X229515D01*
Y142316D01*
X229915D01*
X249600Y182671D02*
Y182271D01*
X250400D01*
Y182671D01*
X250800D01*
Y183471D01*
X250400D01*
Y183871D01*
X249600D01*
Y183471D01*
X249200D01*
Y182671D01*
X249600D01*
Y191529D02*
Y191129D01*
X250400D01*
Y191529D01*
X250800D01*
Y192329D01*
X250400D01*
Y192729D01*
X249600D01*
Y192329D01*
X249200D01*
Y191529D01*
X249600D01*
X229915D02*
Y191129D01*
X230715D01*
Y191529D01*
X231115D01*
Y192329D01*
X230715D01*
Y192729D01*
X229915D01*
Y192329D01*
X229515D01*
Y191529D01*
X229915D01*
Y201372D02*
Y200972D01*
X230715D01*
Y201372D01*
X231115D01*
Y202172D01*
X230715D01*
Y202572D01*
X229915D01*
Y202172D01*
X229515D01*
Y201372D01*
X229915D01*
Y211214D02*
Y210814D01*
X230715D01*
Y211214D01*
X231115D01*
Y212014D01*
X230715D01*
Y212414D01*
X229915D01*
Y212014D01*
X229515D01*
Y211214D01*
X229915D01*
X210230Y250584D02*
Y250184D01*
X211030D01*
Y250584D01*
X211430D01*
Y251384D01*
X211030D01*
Y251784D01*
X210230D01*
Y251384D01*
X209830D01*
Y250584D01*
X210230D01*
Y260427D02*
Y260027D01*
X211030D01*
Y260427D01*
X211430D01*
Y261227D01*
X211030D01*
Y261627D01*
X210230D01*
Y261227D01*
X209830D01*
Y260427D01*
X210230D01*
Y270269D02*
Y269869D01*
X211030D01*
Y270269D01*
X211430D01*
Y271069D01*
X211030D01*
Y271469D01*
X210230D01*
Y271069D01*
X209830D01*
Y270269D01*
X210230D01*
X229915Y273222D02*
Y272822D01*
X230715D01*
Y273222D01*
X231115D01*
Y274022D01*
X230715D01*
Y274422D01*
X229915D01*
Y274022D01*
X229515D01*
Y273222D01*
X229915D01*
X239757D02*
Y272822D01*
X240558D01*
Y273222D01*
X240957D01*
Y274022D01*
X240558D01*
Y274422D01*
X239757D01*
Y274022D01*
X239357D01*
Y273222D01*
X239757D01*
X284049Y283065D02*
Y282665D01*
X284849D01*
Y283065D01*
X285249D01*
Y283865D01*
X284849D01*
Y284265D01*
X284049D01*
Y283865D01*
X283649D01*
Y283065D01*
X284049D01*
X312592Y257474D02*
Y257074D01*
X313392D01*
Y257474D01*
X313792D01*
Y258274D01*
X313392D01*
Y258674D01*
X312592D01*
Y258274D01*
X312192D01*
Y257474D01*
X312592D01*
X325387D02*
Y257074D01*
X326187D01*
Y257474D01*
X326587D01*
Y258274D01*
X326187D01*
Y258674D01*
X325387D01*
Y258274D01*
X324987D01*
Y257474D01*
X325387D01*
X338183Y265348D02*
Y264948D01*
X338983D01*
Y265348D01*
X339383D01*
Y266148D01*
X338983D01*
Y266548D01*
X338183D01*
Y266148D01*
X337783D01*
Y265348D01*
X338183D01*
Y275190D02*
Y274791D01*
X338983D01*
Y275190D01*
X339383D01*
Y275991D01*
X338983D01*
Y276391D01*
X338183D01*
Y275991D01*
X337783D01*
Y275190D01*
X338183D01*
X375584Y255505D02*
Y255105D01*
X376384D01*
Y255505D01*
X376784D01*
Y256306D01*
X376384D01*
Y256705D01*
X375584D01*
Y256306D01*
X375184D01*
Y255505D01*
X375584D01*
Y265348D02*
Y264948D01*
X376384D01*
Y265348D01*
X376784D01*
Y266148D01*
X376384D01*
Y266548D01*
X375584D01*
Y266148D01*
X375184D01*
Y265348D01*
X375584D01*
Y274206D02*
Y273806D01*
X376384D01*
Y274206D01*
X376784D01*
Y275006D01*
X376384D01*
Y275406D01*
X375584D01*
Y275006D01*
X375184D01*
Y274206D01*
X375584D01*
Y314561D02*
Y314161D01*
X376384D01*
Y314561D01*
X376784D01*
Y315361D01*
X376384D01*
Y315761D01*
X375584D01*
Y315361D01*
X375184D01*
Y314561D01*
X375584D01*
Y324403D02*
Y324003D01*
X376384D01*
Y324403D01*
X376784D01*
Y325203D01*
X376384D01*
Y325603D01*
X375584D01*
Y325203D01*
X375184D01*
Y324403D01*
X375584D01*
Y334246D02*
Y333846D01*
X376384D01*
Y334246D01*
X376784D01*
Y335046D01*
X376384D01*
Y335446D01*
X375584D01*
Y335046D01*
X375184D01*
Y334246D01*
X375584D01*
X289954Y309639D02*
Y309239D01*
X290754D01*
Y309639D01*
X291154D01*
Y310439D01*
X290754D01*
Y310839D01*
X289954D01*
Y310439D01*
X289554D01*
Y309639D01*
X289954D01*
X296844D02*
Y309239D01*
X297644D01*
Y309639D01*
X298044D01*
Y310439D01*
X297644D01*
Y310839D01*
X296844D01*
Y310439D01*
X296444D01*
Y309639D01*
X296844D01*
X303734D02*
Y309239D01*
X304534D01*
Y309639D01*
X304934D01*
Y310439D01*
X304534D01*
Y310839D01*
X303734D01*
Y310439D01*
X303334D01*
Y309639D01*
X303734D01*
X284049Y253537D02*
Y253137D01*
X284849D01*
Y253537D01*
X285249D01*
Y254337D01*
X284849D01*
Y254737D01*
X284049D01*
Y254337D01*
X283649D01*
Y253537D01*
X284049D01*
X290939Y260427D02*
Y260027D01*
X291739D01*
Y260427D01*
X292139D01*
Y261227D01*
X291739D01*
Y261627D01*
X290939D01*
Y261227D01*
X290539D01*
Y260427D01*
X290939D01*
X284049Y267317D02*
Y266916D01*
X284849D01*
Y267317D01*
X285249D01*
Y268116D01*
X284849D01*
Y268516D01*
X284049D01*
Y268116D01*
X283649D01*
Y267317D01*
X284049D01*
X277159Y260427D02*
Y260027D01*
X277959D01*
Y260427D01*
X278359D01*
Y261227D01*
X277959D01*
Y261627D01*
X277159D01*
Y261227D01*
X276759D01*
Y260427D01*
X277159D01*
X286017Y192513D02*
Y192113D01*
X286817D01*
Y192513D01*
X287217D01*
Y193313D01*
X286817D01*
Y193713D01*
X286017D01*
Y193313D01*
X285617D01*
Y192513D01*
X286017D01*
X268301Y182671D02*
Y182271D01*
X269101D01*
Y182671D01*
X269501D01*
Y183471D01*
X269101D01*
Y183871D01*
X268301D01*
Y183471D01*
X267901D01*
Y182671D01*
X268301D01*
Y187592D02*
Y187192D01*
X269101D01*
Y187592D01*
X269501D01*
Y188392D01*
X269101D01*
Y188792D01*
X268301D01*
Y188392D01*
X267901D01*
Y187592D01*
X268301D01*
Y192513D02*
Y192113D01*
X269101D01*
Y192513D01*
X269501D01*
Y193313D01*
X269101D01*
Y193713D01*
X268301D01*
Y193313D01*
X267901D01*
Y192513D01*
X268301D01*
X317513Y260427D02*
Y260027D01*
X318313D01*
Y260427D01*
X318713D01*
Y261227D01*
X318313D01*
Y261627D01*
X317513D01*
Y261227D01*
X317113D01*
Y260427D01*
X317513D01*
X307671D02*
Y260027D01*
X308471D01*
Y260427D01*
X308871D01*
Y261227D01*
X308471D01*
Y261627D01*
X307671D01*
Y261227D01*
X307271D01*
Y260427D01*
X307671D01*
X305702Y271253D02*
Y270853D01*
X306502D01*
Y271253D01*
X306902D01*
Y272054D01*
X306502D01*
Y272453D01*
X305702D01*
Y272054D01*
X305302D01*
Y271253D01*
X305702D01*
X309639D02*
Y270853D01*
X310439D01*
Y271253D01*
X310839D01*
Y272054D01*
X310439D01*
Y272453D01*
X309639D01*
Y272054D01*
X309239D01*
Y271253D01*
X309639D01*
X264090Y247291D02*
Y246891D01*
X264890D01*
Y247291D01*
X265290D01*
Y248091D01*
X264890D01*
Y248491D01*
X264090D01*
Y248091D01*
X263690D01*
Y247291D01*
X264090D01*
X271253Y240742D02*
Y240342D01*
X272054D01*
Y240742D01*
X272453D01*
Y241542D01*
X272054D01*
Y241942D01*
X271253D01*
Y241542D01*
X270853D01*
Y240742D01*
X271253D01*
X228931Y306687D02*
Y306287D01*
X229731D01*
Y306687D01*
X230131D01*
Y307487D01*
X229731D01*
Y307887D01*
X228931D01*
Y307487D01*
X228531D01*
Y306687D01*
X228931D01*
X244679D02*
Y306287D01*
X245479D01*
Y306687D01*
X245879D01*
Y307487D01*
X245479D01*
Y307887D01*
X244679D01*
Y307487D01*
X244279D01*
Y306687D01*
X244679D01*
X282080Y272238D02*
Y271838D01*
X282880D01*
Y272238D01*
X283280D01*
Y273038D01*
X282880D01*
Y273438D01*
X282080D01*
Y273038D01*
X281680D01*
Y272238D01*
X282080D01*
X286017Y273222D02*
Y272822D01*
X286817D01*
Y273222D01*
X287217D01*
Y274022D01*
X286817D01*
Y274422D01*
X286017D01*
Y274022D01*
X285617D01*
Y273222D01*
X286017D01*
X362789Y70466D02*
Y70066D01*
X363589D01*
Y70466D01*
X363989D01*
Y71266D01*
X363589D01*
Y71666D01*
X362789D01*
Y71266D01*
X362389D01*
Y70466D01*
X362789D01*
X365742Y233852D02*
Y233452D01*
X366542D01*
Y233852D01*
X366942D01*
Y234652D01*
X366542D01*
Y235052D01*
X365742D01*
Y234652D01*
X365342D01*
Y233852D01*
X365742D01*
X370663Y148222D02*
Y147822D01*
X371463D01*
Y148222D01*
X371863D01*
Y149022D01*
X371463D01*
Y149422D01*
X370663D01*
Y149022D01*
X370263D01*
Y148222D01*
X370663D01*
X281096Y197435D02*
Y197035D01*
X281896D01*
Y197435D01*
X282296D01*
Y198235D01*
X281896D01*
Y198635D01*
X281096D01*
Y198235D01*
X280696D01*
Y197435D01*
X281096D01*
X313576Y213183D02*
Y212783D01*
X314376D01*
Y213183D01*
X314776D01*
Y213983D01*
X314376D01*
Y214383D01*
X313576D01*
Y213983D01*
X313176D01*
Y213183D01*
X313576D01*
X375184Y58255D02*
X375584Y59055D01*
X375184Y59855D01*
X375984Y59455D01*
X376784Y59855D01*
X376384Y59055D01*
X376784Y58255D01*
X375984Y58655D01*
X375184Y58255D01*
X375184Y294476D02*
X375584Y295276D01*
X375184Y296076D01*
X375984Y295676D01*
X376784Y296076D01*
X376384Y295276D01*
X376784Y294476D01*
X375984Y294876D01*
X375184Y294476D01*
X217704D02*
X218104Y295276D01*
X217704Y296076D01*
X218504Y295676D01*
X219304Y296076D01*
X218904Y295276D01*
X219304Y294476D01*
X218504Y294876D01*
X217704Y294476D01*
D103*
X182296Y25591D02*
G03*
X182296Y25591I-800J0D01*
G01*
X152375D02*
G03*
X152375Y25591I-800J0D01*
G01*
X56902Y163543D02*
G03*
X56902Y163543I-800J0D01*
G01*
Y153543D02*
G03*
X56902Y153543I-800J0D01*
G01*
Y143543D02*
G03*
X56902Y143543I-800J0D01*
G01*
X66902Y163543D02*
G03*
X66902Y163543I-800J0D01*
G01*
Y153543D02*
G03*
X66902Y153543I-800J0D01*
G01*
Y143543D02*
G03*
X66902Y143543I-800J0D01*
G01*
X96272Y173543D02*
G03*
X96272Y173543I-800J0D01*
G01*
Y163543D02*
G03*
X96272Y163543I-800J0D01*
G01*
Y133543D02*
G03*
X96272Y133543I-800J0D01*
G01*
Y143543D02*
G03*
X96272Y143543I-800J0D01*
G01*
Y153543D02*
G03*
X96272Y153543I-800J0D01*
G01*
X383084Y25591D02*
G03*
X383084Y25591I-800J0D01*
G01*
X353162D02*
G03*
X353162Y25591I-800J0D01*
G01*
X257690Y163543D02*
G03*
X257690Y163543I-800J0D01*
G01*
Y153543D02*
G03*
X257690Y153543I-800J0D01*
G01*
Y143543D02*
G03*
X257690Y143543I-800J0D01*
G01*
X267690Y163543D02*
G03*
X267690Y163543I-800J0D01*
G01*
Y153543D02*
G03*
X267690Y153543I-800J0D01*
G01*
Y143543D02*
G03*
X267690Y143543I-800J0D01*
G01*
X297060Y173543D02*
G03*
X297060Y173543I-800J0D01*
G01*
Y163543D02*
G03*
X297060Y163543I-800J0D01*
G01*
Y133543D02*
G03*
X297060Y133543I-800J0D01*
G01*
Y143543D02*
G03*
X297060Y143543I-800J0D01*
G01*
Y153543D02*
G03*
X297060Y153543I-800J0D01*
G01*
M02*
