M48
;Layer_Color=9474304
;FILE_FORMAT=2:5
INCH,LZ
;TYPE=PLATED
T1F00S00C0.01000
T2F00S00C0.02953
T3F00S00C0.03150
T4F00S00C0.03937
T5F00S00C0.04000
T6F00S00C0.10827
%
T01
X0034449Y0019685
Y0029528
X0005906Y0049213
X0063976Y0004921
X0083661
X0103347
X0162402Y0014764
X0177165
X0206693Y0049213
X0235236Y0029528
Y0019685
X0264764Y0004921
X0284449
X0304134
X0363189Y0014764
X0377953
Y0098425
X036811
X0370079Y0135827
X0371063Y0148622
X0377953Y0155512
X0385163Y0175303
X034941Y0180118
X0338583
X0318898
X0309055
Y0160433
X0318898
Y0142717
X0309055
X0304134Y0098425
X0294291
X0284449
X0264764Y0123031
X0254921
X0240158Y0142717
X0230315
Y0191929
Y0201772
X025Y0191929
Y0183071
X0268701
Y0187992
Y0192913
X0286417
X0281496Y0197835
X0313976Y019685
X0355315Y0201772
X0358268Y0098425
X0363189Y0070866
X0206693Y0068898
Y0059055
X0162402Y0070866
X0167323Y0098425
X0177165
X015748
X0169291Y0135827
X0170276Y0148622
X0177165Y0155512
X0184375Y0175303
X0148622Y0180118
X0137795
X011811
X0108268
Y0160433
X011811
Y0142717
X0108268
X0103347Y0098425
X0093504
X0083661
X0063976Y0123031
X0054134
X0067913Y0183071
Y0187992
Y0192913
X008563
X0080709Y0197835
X0113189Y019685
X0154528Y0201772
X0049213Y0191929
Y0183071
X0029528Y0191929
Y0201772
Y0142717
X003937
X0005906Y0068898
Y0059055
X0029528Y0211614
X0009843Y0250984
Y0260827
Y0270669
X0029528Y0273622
X003937
X0052165Y025689
X0044291Y0307087
X0028543
X0089567Y0310039
X0096457
X0103347
X0105315Y0271654
X0109252
X0107283Y0260827
X0112205Y0257874
X0117126Y0260827
X0125Y0257874
X0137795Y0265748
Y027559
X0140755Y024121
X0133858Y0241142
X0165354Y0234252
X0175197Y0255906
Y0265748
Y0274606
Y0314961
Y0324803
Y0334646
X0083661Y0283465
X008563Y0273622
X0081693Y0272638
X0083661Y0267717
Y0253937
X0090551Y0260827
X0076772
X0069882
X0059055Y0262795
X0063703Y0247691
X0070866Y0241142
X0082677Y0221457
X0089567
X0113189Y0213583
X0154528Y0211614
X0230315
X021063Y0250984
Y0260827
Y0270669
X0230315Y0273622
X0240158
X0252953Y025689
X0259842Y0262795
X0270669Y0260827
X0277559
X0284449Y0253937
X0291339Y0260827
X0284449Y0267717
X028248Y0272638
X0286417Y0273622
X0284449Y0283465
X0290354Y0310039
X0297244
X0304134
X0306102Y0271654
X0310039
X0308071Y0260827
X0312992Y0257874
X0317913Y0260827
X0325787Y0257874
X0338583Y0265748
Y027559
X0341543Y024121
X0334646Y0241142
X0313976Y0213583
X0290354Y0221457
X0283465
X0271654Y0241142
X026449Y0247691
X0245079Y0307087
X0229331
X0355315Y0211614
X0366142Y0234252
X0375984Y0255906
Y0265748
Y0274606
Y0314961
Y0324803
Y0334646
T02
X0088957Y0332677
X0093957
X0098957
X0103957
X0289744
X0294744
X0299744
X0304744
T03
X0372047Y0184567
X0382047
X0339724Y0168307
X0329724
Y0138307
X0339724
X0138937
X0128937
Y0168307
X0138937
X017126Y0184567
X018126
Y0214567
X017126
X0372047
X0382047
T04
X0151575Y0025591
X0181496
X0352362
X0382283
X029626Y0133543
Y0143543
Y0153543
Y0163543
Y0173543
X026689Y0163543
X025689
Y0153543
Y0143543
X026689
Y0153543
X0095472
Y0163543
Y0173543
Y0143543
Y0133543
X0066102Y0143543
X0056102
Y0153543
Y0163543
X0066102
Y0153543
T05
X0211614Y0147638
Y0157638
Y0167638
Y0177638
Y0187638
Y0197638
Y0207638
X0010827
Y0197638
Y0187638
Y0177638
Y0167638
Y0157638
Y0147638
Y0217638
X0036417Y0230354
X0046417
X0036417Y0240354
Y0250354
Y0260354
Y0290354
X0046417
X0056417
X0066417
X0076417
X0086417
X0096417
X0106417
X0116417
X0126417
X0136417
X0146417
X0156417Y0285354
Y0275354
Y0265354
Y0255354
Y0245354
Y0235354
X0146417Y0230354
X0136417
X0126417
X0116417
X0106417
X0096417
X0086417
X0076417
X0066417
X0056417
X0101417Y0240354
X0111417
X0211614Y0217638
X0237205Y0230354
X0247205
X0257205
X0267205
X0277205
X0287205
X0297205
X0307205
X0317205
X0327205
X0337205
X0347205
X0357205Y0235354
Y0245354
Y0255354
Y0265354
Y0275354
Y0285354
X0347205Y0290354
X0337205
X0327205
X0317205
X0307205
X0297205
X0287205
X0277205
X0267205
X0257205
X0247205
X0237205
Y0260354
Y0250354
Y0240354
X0302205
X0312205
T06
X0375984Y0059055
X0218504
X0175197
X0017717
Y0295276
X0175197
X0218504
X0375984
M30
