M48
;Layer_Color=9474304
;FILE_FORMAT=2:5
INCH,LZ
;TYPE=PLATED
T1F00S00C0.01000
T2F00S00C0.02953
T3F00S00C0.03150
T4F00S00C0.03937
T5F00S00C0.04000
T6F00S00C0.10827
;TYPE=NON_PLATED
%
T01
X0034449Y0043307
X0063976Y0028543
X0083661
X0103347
X0162402Y0038386
X0177165
X0235236Y0043307
X0264764Y0028543
X0284449
X0304134
X0363189Y0038386
X0377953
Y0122047
X036811
X0370079Y0159449
X0371063Y0172244
X0377953Y0179134
X0385163Y0198925
X034941Y020374
X0338583
X0318898
X0309055
Y0184055
X0318898
Y0166339
X0309055
X0304134Y0122047
X0294291
X0284449
X0264764Y0146653
X0254921
X0240158Y0166339
X0230315
X025Y0206693
X0268701
X0358268Y0122047
X0363189Y0094488
X0235236Y005315
X0206693Y0072835
Y0082677
Y009252
X0162402Y0094488
X0167323Y0122047
X0177165
X015748
X0169291Y0159449
X0170276Y0172244
X0177165Y0179134
X0184375Y0198925
X0148622Y020374
X0137795
X011811
X0108268
Y0184055
X011811
Y0166339
X0108268
X0103347Y0122047
X0093504
X0083661
X0063976Y0146653
X0054134
X0067913Y0206693
X0049213
X003937Y0166339
X0029528
X0005906Y009252
Y0082677
Y0072835
X0034449Y005315
X0029528Y0215551
Y0225394
Y0235236
X0049213Y0215551
X003937Y0297244
X0029528
X0009843Y0294291
Y0284449
Y0274606
X0028543Y0330709
X0044291
X0089567Y0333661
X0096457
X0103347
X0105315Y0295276
X0109252
X0107283Y0284449
X0112205Y0281496
X0117126Y0284449
X0125Y0281496
X0137795Y028937
Y0299213
X0140755Y0264832
X0133858Y0264764
X0165354Y0257874
X0175197Y0279528
Y028937
Y0298228
Y0338583
Y0348425
Y0358268
X0083661Y0307087
X008563Y0297244
X0081693Y029626
X0083661Y0291339
Y0277559
X0090551Y0284449
X0076772
X0069882
X0059055Y0286417
X0052165Y0280512
X0063703Y0271313
X0070866Y0264764
X0082677Y0245079
X0089567
X0113189Y0237205
Y0220472
X008563Y0216535
X0080709Y0221457
X0067913Y0216535
Y0211614
X0154528Y0225394
Y0235236
X0230315
Y0225394
Y0215551
X025
X0268701Y0216535
Y0211614
X0286417Y0216535
X0281496Y0221457
X0283465Y0245079
X0290354
X0313976Y0237205
Y0220472
X0355315Y0225394
Y0235236
X0341543Y0264832
X0334646Y0264764
X0325787Y0281496
X0317913Y0284449
X0312992Y0281496
X0308071Y0284449
X0306102Y0295276
X0310039
X0286417Y0297244
X028248Y029626
X0284449Y0291339
Y0277559
X0291339Y0284449
X0277559
X0270669
X0259842Y0286417
X0252953Y0280512
X026449Y0271313
X0271654Y0264764
X0284449Y0307087
X0290354Y0333661
X0297244
X0304134
X0245079Y0330709
X0229331
X0230315Y0297244
X0240158
X021063Y0294291
Y0284449
Y0274606
X0338583Y028937
Y0299213
X0375984Y0298228
Y028937
Y0279528
X0366142Y0257874
X0375984Y0338583
Y0348425
Y0358268
T02
X0088957Y0356299
X0093957
X0098957
X0103957
X0289744
X0294744
X0299744
X0304744
T03
X0329724Y0161929
X0339724
Y0191929
X0329724
X0138937
X0128937
Y0161929
X0138937
X017126Y0208189
X018126
Y0238189
X017126
X0372047
X0382047
Y0208189
X0372047
T04
X0151575Y0049213
X0181496
X0352362
X0382283
X029626Y0157165
Y0167165
Y0177165
Y0187165
Y0197165
X026689Y0187165
X025689
Y0177165
Y0167165
X026689
Y0177165
X0095472
Y0187165
Y0197165
Y0167165
Y0157165
X0066102Y0167165
X0056102
Y0177165
Y0187165
X0066102
Y0177165
T05
X0211614Y017126
Y018126
Y019126
Y020126
X0010827
Y019126
Y018126
Y017126
Y021126
Y022126
Y023126
Y024126
X0036417Y0253976
X0046417
X0036417Y0263976
Y0273976
Y0283976
Y0313976
X0046417
X0056417
X0066417
X0076417
X0086417
X0096417
X0106417
X0116417
X0126417
X0136417
X0146417
X0156417Y0308976
Y0298976
Y0288976
Y0278976
Y0268976
Y0258976
X0146417Y0253976
X0136417
X0126417
X0116417
X0106417
X0096417
X0086417
X0076417
X0066417
X0056417
X0101417Y0263976
X0111417
X0211614Y024126
Y023126
Y022126
Y021126
X0237205Y0253976
X0247205
X0257205
X0267205
X0277205
X0287205
X0297205
X0307205
X0317205
X0327205
X0337205
X0347205
X0357205Y0258976
Y0268976
Y0278976
Y0288976
Y0298976
Y0308976
X0347205Y0313976
X0337205
X0327205
X0317205
X0307205
X0297205
X0287205
X0277205
X0267205
X0257205
X0247205
X0237205
Y0283976
Y0273976
Y0263976
X0302205
X0312205
T06
X0375984Y0082677
X0218504
X0175197
X0017717
Y0318898
X0175197
X0218504
X0375984
M30
