G04*
G04 #@! TF.GenerationSoftware,Altium Limited,Altium Designer,21.3.2 (30)*
G04*
G04 Layer_Color=32768*
%FSLAX25Y25*%
%MOIN*%
G70*
G04*
G04 #@! TF.SameCoordinates,6AF4B204-6769-45D0-A42D-1EC1730201C4*
G04*
G04*
G04 #@! TF.FilePolarity,Positive*
G04*
G01*
G75*
%ADD36C,0.01000*%
%ADD38C,0.00787*%
%ADD57C,0.00394*%
%ADD106C,0.00197*%
D36*
X187593Y227658D02*
G03*
X187458Y218671I166J-4497D01*
G01*
X388381Y227658D02*
G03*
X388245Y218671I166J-4497D01*
G01*
D38*
X164760Y212189D02*
Y234189D01*
Y212189D02*
X187760D01*
X164760Y234189D02*
X187760D01*
Y212189D02*
Y234189D01*
X365547Y212189D02*
Y234189D01*
Y212189D02*
X388547D01*
X365547Y234189D02*
X388547D01*
Y212189D02*
Y234189D01*
X0Y0D02*
Y393701D01*
X393701D01*
Y0D02*
Y393701D01*
X0Y0D02*
X393701D01*
D57*
X112205Y302165D02*
Y306102D01*
X110236Y304134D02*
X114173D01*
X34449Y354331D02*
X38386D01*
X36417Y352362D02*
Y356299D01*
X50197Y280512D02*
X54134D01*
X52165Y278543D02*
Y282480D01*
X90551Y47244D02*
Y51181D01*
X88583Y49213D02*
X92520D01*
X81693Y79724D02*
Y83661D01*
X79724Y81693D02*
X83661D01*
X59055Y91535D02*
Y95472D01*
X57087Y93504D02*
X61024D01*
X35433Y71850D02*
Y75787D01*
X33465Y73819D02*
X37402D01*
X28543Y99410D02*
Y103347D01*
X26575Y101378D02*
X30512D01*
X49213Y124016D02*
Y127953D01*
X47244Y125984D02*
X51181D01*
X5906Y126221D02*
X9843D01*
X7874Y124252D02*
Y128189D01*
X26575Y152559D02*
X30512D01*
X28543Y150591D02*
Y154528D01*
X57087Y264764D02*
X61024D01*
X59055Y262795D02*
Y266732D01*
X120079Y292323D02*
Y296260D01*
X118110Y294291D02*
X122047D01*
X149606Y332677D02*
X153543D01*
X151575Y330709D02*
Y334646D01*
X55118D02*
Y338583D01*
X53150Y336614D02*
X57087D01*
X15748D02*
X19685D01*
X17717Y334646D02*
Y338583D01*
X167323Y159449D02*
X171260D01*
X169291Y157480D02*
Y161417D01*
X120079Y62008D02*
X124016D01*
X122047Y60039D02*
Y63976D01*
X97441Y80709D02*
Y84646D01*
X95472Y82677D02*
X99409D01*
X174213Y247047D02*
X178150D01*
X176181Y245079D02*
Y249016D01*
X120079Y90551D02*
X124016D01*
X122047Y88583D02*
Y92520D01*
X132874Y228346D02*
Y232283D01*
X130905Y230315D02*
X134843D01*
X182087Y187008D02*
Y190945D01*
X180118Y188976D02*
X184055D01*
X28543Y124606D02*
Y128543D01*
X26575Y126575D02*
X30512D01*
X154528Y84646D02*
Y88583D01*
X152559Y86614D02*
X156496D01*
X76772Y331693D02*
Y335630D01*
X74803Y333661D02*
X78740D01*
X117126Y331693D02*
Y335630D01*
X115157Y333661D02*
X119095D01*
X131890Y331693D02*
Y335630D01*
X129921Y333661D02*
X133858D01*
X154528Y188976D02*
X158465D01*
X156496Y187008D02*
Y190945D01*
X176181Y255906D02*
Y259842D01*
X174213Y257874D02*
X178150D01*
X167323Y188976D02*
X171260D01*
X169291Y187008D02*
Y190945D01*
X126969Y30512D02*
Y34449D01*
X125000Y32480D02*
X128937D01*
X151575Y342520D02*
Y346457D01*
X149606Y344488D02*
X153543D01*
X74803Y356299D02*
X78740D01*
X76772Y354331D02*
Y358268D01*
X115157Y356299D02*
X119095D01*
X117126Y354331D02*
Y358268D01*
X129921Y356299D02*
X133858D01*
X131890Y354331D02*
Y358268D01*
X99410Y234252D02*
Y238189D01*
X97441Y236221D02*
X101378D01*
X99410Y223425D02*
Y227362D01*
X97441Y225394D02*
X101378D01*
X312992Y302165D02*
Y306102D01*
X311024Y304134D02*
X314961D01*
X235236Y354331D02*
X239173D01*
X237205Y352362D02*
Y356299D01*
X250984Y280512D02*
X254921D01*
X252953Y278543D02*
Y282480D01*
X291339Y47244D02*
Y51181D01*
X289370Y49213D02*
X293307D01*
X282480Y79724D02*
Y83661D01*
X280512Y81693D02*
X284449D01*
X259842Y91535D02*
Y95472D01*
X257874Y93504D02*
X261811D01*
X236221Y71850D02*
Y75787D01*
X234252Y73819D02*
X238189D01*
X229331Y99410D02*
Y103347D01*
X227362Y101378D02*
X231299D01*
X250000Y124016D02*
Y127953D01*
X248031Y125984D02*
X251969D01*
X206693Y126221D02*
X210630D01*
X208661Y124252D02*
Y128189D01*
X227362Y152559D02*
X231299D01*
X229331Y150591D02*
Y154528D01*
X257874Y264764D02*
X261811D01*
X259842Y262795D02*
Y266732D01*
X320866Y292323D02*
Y296260D01*
X318898Y294291D02*
X322835D01*
X350394Y332677D02*
X354331D01*
X352362Y330709D02*
Y334646D01*
X255906D02*
Y338583D01*
X253937Y336614D02*
X257874D01*
X216535D02*
X220473D01*
X218504Y334646D02*
Y338583D01*
X368110Y159449D02*
X372047D01*
X370079Y157480D02*
Y161417D01*
X320866Y62008D02*
X324803D01*
X322835Y60039D02*
Y63976D01*
X298228Y80709D02*
Y84646D01*
X296260Y82677D02*
X300197D01*
X375000Y247047D02*
X378937D01*
X376969Y245079D02*
Y249016D01*
X320866Y90551D02*
X324803D01*
X322835Y88583D02*
Y92520D01*
X333661Y228346D02*
Y232283D01*
X331693Y230315D02*
X335630D01*
X382874Y187008D02*
Y190945D01*
X380906Y188976D02*
X384842D01*
X229331Y124606D02*
Y128543D01*
X227362Y126575D02*
X231299D01*
X355315Y84646D02*
Y88583D01*
X353346Y86614D02*
X357283D01*
X277559Y331693D02*
Y335630D01*
X275590Y333661D02*
X279528D01*
X317913Y331693D02*
Y335630D01*
X315945Y333661D02*
X319882D01*
X332677Y331693D02*
Y335630D01*
X330709Y333661D02*
X334646D01*
X355315Y188976D02*
X359252D01*
X357283Y187008D02*
Y190945D01*
X376969Y255906D02*
Y259842D01*
X375000Y257874D02*
X378937D01*
X368110Y188976D02*
X372047D01*
X370079Y187008D02*
Y190945D01*
X327756Y30512D02*
Y34449D01*
X325787Y32480D02*
X329724D01*
X352362Y342520D02*
Y346457D01*
X350394Y344488D02*
X354331D01*
X275591Y356299D02*
X279528D01*
X277559Y354331D02*
Y358268D01*
X315945Y356299D02*
X319882D01*
X317913Y354331D02*
Y358268D01*
X330709Y356299D02*
X334646D01*
X332677Y354331D02*
Y358268D01*
X300197Y234252D02*
Y238189D01*
X298228Y236221D02*
X302165D01*
X300197Y223425D02*
Y227362D01*
X298228Y225394D02*
X302165D01*
D106*
X102953Y308661D02*
X121457D01*
X102953Y299606D02*
X121457D01*
X102953D02*
Y308661D01*
X121457Y299606D02*
Y308661D01*
X60138Y343799D02*
Y364862D01*
X12697Y343799D02*
Y364862D01*
Y343799D02*
X60138D01*
X12697Y364862D02*
X60138D01*
X56693Y271260D02*
Y289764D01*
X47638Y271260D02*
Y289764D01*
X56693D01*
X47638Y271260D02*
X56693D01*
X80709Y62205D02*
X100394D01*
X80709Y36220D02*
X100394D01*
Y62205D01*
X80709Y36220D02*
Y62205D01*
X77165Y90945D02*
X86221D01*
X77165Y72441D02*
X86221D01*
Y90945D01*
X77165Y72441D02*
Y90945D01*
X49370Y89173D02*
Y97835D01*
Y89173D02*
X68740D01*
X49370Y97835D02*
X68740D01*
Y89173D02*
Y97835D01*
X30906Y64567D02*
X39961D01*
X30906Y83071D02*
X39961D01*
X30906Y64567D02*
Y83071D01*
X39961Y64567D02*
Y83071D01*
X38228Y97047D02*
Y105709D01*
X18858D02*
X38228D01*
X18858Y97047D02*
X38228D01*
X18858D02*
Y105709D01*
X44685Y135236D02*
X53740D01*
X44685Y116732D02*
X53740D01*
Y135236D01*
X44685Y116732D02*
Y135236D01*
X3543Y135906D02*
X12205D01*
X3543Y116535D02*
Y135906D01*
X12205Y116535D02*
Y135906D01*
X3543Y116535D02*
X12205D01*
X37795Y148031D02*
Y157087D01*
X19291Y148031D02*
Y157087D01*
Y148031D02*
X37795D01*
X19291Y157087D02*
X37795D01*
X49803Y260236D02*
Y269291D01*
X68307Y260236D02*
Y269291D01*
X49803D02*
X68307D01*
X49803Y260236D02*
X68307D01*
X110827Y298819D02*
X129331D01*
X110827Y289764D02*
X129331D01*
X110827D02*
Y298819D01*
X129331Y289764D02*
Y298819D01*
X160827Y328150D02*
Y337205D01*
X142323Y328150D02*
Y337205D01*
Y328150D02*
X160827D01*
X142323Y337205D02*
X160827D01*
X45866Y341142D02*
X64370D01*
X45866Y332087D02*
X64370D01*
X45866D02*
Y341142D01*
X64370Y332087D02*
Y341142D01*
X8465Y332087D02*
Y341142D01*
X26969Y332087D02*
Y341142D01*
X8465D02*
X26969D01*
X8465Y332087D02*
X26969D01*
X187008Y146063D02*
Y172835D01*
X151575Y146063D02*
Y172835D01*
Y146063D02*
X187008D01*
X151575Y172835D02*
X187008D01*
X108661Y44291D02*
Y79724D01*
X135433Y44291D02*
Y79724D01*
X108661Y44291D02*
X135433D01*
X108661Y79724D02*
X135433D01*
X90551Y96677D02*
X104331D01*
X90551Y68677D02*
X104331D01*
Y96677D01*
X90551Y68677D02*
Y96677D01*
X169488Y243701D02*
Y250394D01*
X182874Y243701D02*
Y250394D01*
X169488D02*
X182874D01*
X169488Y243701D02*
X182874D01*
X112008Y86516D02*
Y94587D01*
X132087Y86516D02*
Y94587D01*
X112008D02*
X132087D01*
X112008Y86516D02*
X132087D01*
X118307Y241142D02*
X147441D01*
X118307Y219488D02*
X147441D01*
X118307D02*
Y241142D01*
X147441Y219488D02*
Y241142D01*
X175787Y182087D02*
X188386D01*
X175787Y195866D02*
X188386D01*
Y182087D02*
Y195866D01*
X175787Y182087D02*
Y195866D01*
X14370Y109843D02*
X42717D01*
X14370Y143307D02*
X42717D01*
X14370Y109843D02*
Y143307D01*
X42717Y109843D02*
Y143307D01*
X147638Y93307D02*
X161417D01*
X147638Y79921D02*
X161417D01*
Y93307D01*
X147638Y79921D02*
Y93307D01*
X69882Y326969D02*
X83661D01*
X69882Y340354D02*
X83661D01*
X69882Y326969D02*
Y340354D01*
X83661Y326969D02*
Y340354D01*
X110236Y326969D02*
X124016D01*
X110236Y340354D02*
X124016D01*
X110236Y326969D02*
Y340354D01*
X124016Y326969D02*
Y340354D01*
X125000Y326969D02*
X138779D01*
X125000Y340354D02*
X138779D01*
X125000Y326969D02*
Y340354D01*
X138779Y326969D02*
Y340354D01*
X152165Y180118D02*
Y197835D01*
X160827Y180118D02*
Y197835D01*
X152165Y180118D02*
X160827D01*
X152165Y197835D02*
X160827D01*
X167323Y262205D02*
X185039D01*
X167323Y253543D02*
X185039D01*
X167323D02*
Y262205D01*
X185039Y253543D02*
Y262205D01*
X173622Y180118D02*
Y197835D01*
X164961Y180118D02*
Y197835D01*
X173622D01*
X164961Y180118D02*
X173622D01*
X118110Y36811D02*
X135827D01*
X118110Y28150D02*
X135827D01*
X118110D02*
Y36811D01*
X135827Y28150D02*
Y36811D01*
X142717Y348819D02*
X160433D01*
X142717Y340158D02*
X160433D01*
X142717D02*
Y348819D01*
X160433Y340158D02*
Y348819D01*
X81102Y347441D02*
Y365158D01*
X72441Y347441D02*
Y365158D01*
X81102D01*
X72441Y347441D02*
X81102D01*
X121457D02*
Y365158D01*
X112795Y347441D02*
Y365158D01*
X121457D01*
X112795Y347441D02*
X121457D01*
X136221D02*
Y365158D01*
X127559Y347441D02*
Y365158D01*
X136221D01*
X127559Y347441D02*
X136221D01*
X90551Y231890D02*
X108268D01*
X90551Y240551D02*
X108268D01*
Y231890D02*
Y240551D01*
X90551Y231890D02*
Y240551D01*
Y221063D02*
X108268D01*
X90551Y229724D02*
X108268D01*
Y221063D02*
Y229724D01*
X90551Y221063D02*
Y229724D01*
X303740Y308661D02*
X322244D01*
X303740Y299606D02*
X322244D01*
X303740D02*
Y308661D01*
X322244Y299606D02*
Y308661D01*
X260925Y343799D02*
Y364862D01*
X213484Y343799D02*
Y364862D01*
Y343799D02*
X260925D01*
X213484Y364862D02*
X260925D01*
X257480Y271260D02*
Y289764D01*
X248425Y271260D02*
Y289764D01*
X257480D01*
X248425Y271260D02*
X257480D01*
X281496Y62205D02*
X301181D01*
X281496Y36220D02*
X301181D01*
Y62205D01*
X281496Y36220D02*
Y62205D01*
X277953Y90945D02*
X287008D01*
X277953Y72441D02*
X287008D01*
Y90945D01*
X277953Y72441D02*
Y90945D01*
X250157Y89173D02*
Y97835D01*
Y89173D02*
X269528D01*
X250157Y97835D02*
X269528D01*
Y89173D02*
Y97835D01*
X231693Y64567D02*
X240748D01*
X231693Y83071D02*
X240748D01*
X231693Y64567D02*
Y83071D01*
X240748Y64567D02*
Y83071D01*
X239016Y97047D02*
Y105709D01*
X219646D02*
X239016D01*
X219646Y97047D02*
X239016D01*
X219646D02*
Y105709D01*
X245472Y135236D02*
X254528D01*
X245472Y116732D02*
X254528D01*
Y135236D01*
X245472Y116732D02*
Y135236D01*
X204331Y135906D02*
X212992D01*
X204331Y116535D02*
Y135906D01*
X212992Y116535D02*
Y135906D01*
X204331Y116535D02*
X212992D01*
X238583Y148031D02*
Y157087D01*
X220079Y148031D02*
Y157087D01*
Y148031D02*
X238583D01*
X220079Y157087D02*
X238583D01*
X250591Y260236D02*
Y269291D01*
X269094Y260236D02*
Y269291D01*
X250591D02*
X269094D01*
X250591Y260236D02*
X269094D01*
X311614Y298819D02*
X330118D01*
X311614Y289764D02*
X330118D01*
X311614D02*
Y298819D01*
X330118Y289764D02*
Y298819D01*
X361614Y328150D02*
Y337205D01*
X343110Y328150D02*
Y337205D01*
Y328150D02*
X361614D01*
X343110Y337205D02*
X361614D01*
X246654Y341142D02*
X265158D01*
X246654Y332087D02*
X265158D01*
X246654D02*
Y341142D01*
X265158Y332087D02*
Y341142D01*
X209252Y332087D02*
Y341142D01*
X227756Y332087D02*
Y341142D01*
X209252D02*
X227756D01*
X209252Y332087D02*
X227756D01*
X387795Y146063D02*
Y172835D01*
X352362Y146063D02*
Y172835D01*
Y146063D02*
X387795D01*
X352362Y172835D02*
X387795D01*
X309449Y44291D02*
Y79724D01*
X336221Y44291D02*
Y79724D01*
X309449Y44291D02*
X336221D01*
X309449Y79724D02*
X336221D01*
X291339Y96677D02*
X305118D01*
X291339Y68677D02*
X305118D01*
Y96677D01*
X291339Y68677D02*
Y96677D01*
X370276Y243701D02*
Y250394D01*
X383661Y243701D02*
Y250394D01*
X370276D02*
X383661D01*
X370276Y243701D02*
X383661D01*
X312795Y86516D02*
Y94587D01*
X332874Y86516D02*
Y94587D01*
X312795D02*
X332874D01*
X312795Y86516D02*
X332874D01*
X319094Y241142D02*
X348228D01*
X319094Y219488D02*
X348228D01*
X319094D02*
Y241142D01*
X348228Y219488D02*
Y241142D01*
X376575Y182087D02*
X389173D01*
X376575Y195866D02*
X389173D01*
Y182087D02*
Y195866D01*
X376575Y182087D02*
Y195866D01*
X215158Y109843D02*
X243504D01*
X215158Y143307D02*
X243504D01*
X215158Y109843D02*
Y143307D01*
X243504Y109843D02*
Y143307D01*
X348425Y93307D02*
X362205D01*
X348425Y79921D02*
X362205D01*
Y93307D01*
X348425Y79921D02*
Y93307D01*
X270669Y326969D02*
X284449D01*
X270669Y340354D02*
X284449D01*
X270669Y326969D02*
Y340354D01*
X284449Y326969D02*
Y340354D01*
X311024Y326969D02*
X324803D01*
X311024Y340354D02*
X324803D01*
X311024Y326969D02*
Y340354D01*
X324803Y326969D02*
Y340354D01*
X325787Y326969D02*
X339567D01*
X325787Y340354D02*
X339567D01*
X325787Y326969D02*
Y340354D01*
X339567Y326969D02*
Y340354D01*
X352953Y180118D02*
Y197835D01*
X361614Y180118D02*
Y197835D01*
X352953Y180118D02*
X361614D01*
X352953Y197835D02*
X361614D01*
X368110Y262205D02*
X385827D01*
X368110Y253543D02*
X385827D01*
X368110D02*
Y262205D01*
X385827Y253543D02*
Y262205D01*
X374410Y180118D02*
Y197835D01*
X365748Y180118D02*
Y197835D01*
X374410D01*
X365748Y180118D02*
X374410D01*
X318898Y36811D02*
X336614D01*
X318898Y28150D02*
X336614D01*
X318898D02*
Y36811D01*
X336614Y28150D02*
Y36811D01*
X343504Y348819D02*
X361221D01*
X343504Y340158D02*
X361221D01*
X343504D02*
Y348819D01*
X361221Y340158D02*
Y348819D01*
X281890Y347441D02*
Y365158D01*
X273228Y347441D02*
Y365158D01*
X281890D01*
X273228Y347441D02*
X281890D01*
X322244D02*
Y365158D01*
X313583Y347441D02*
Y365158D01*
X322244D01*
X313583Y347441D02*
X322244D01*
X337008D02*
Y365158D01*
X328346Y347441D02*
Y365158D01*
X337008D01*
X328346Y347441D02*
X337008D01*
X291339Y231890D02*
X309055D01*
X291339Y240551D02*
X309055D01*
Y231890D02*
Y240551D01*
X291339Y231890D02*
Y240551D01*
Y221063D02*
X309055D01*
X291339Y229724D02*
X309055D01*
Y221063D02*
Y229724D01*
X291339Y221063D02*
Y229724D01*
M02*
