G04*
G04 #@! TF.GenerationSoftware,Altium Limited,Altium Designer,21.3.2 (30)*
G04*
G04 Layer_Color=16711935*
%FSLAX25Y25*%
%MOIN*%
G70*
G04*
G04 #@! TF.SameCoordinates,6AF4B204-6769-45D0-A42D-1EC1730201C4*
G04*
G04*
G04 #@! TF.FilePolarity,Negative*
G04*
G01*
G75*
%ADD38C,0.00787*%
%ADD84C,0.10642*%
%ADD85R,0.07887X0.07887*%
%ADD86C,0.07887*%
%ADD87C,0.08200*%
%ADD88R,0.08200X0.08200*%
%ADD89C,0.07493*%
%ADD90C,0.06312*%
%ADD91R,0.06312X0.06312*%
%ADD92O,0.04343X0.06706*%
%ADD93R,0.07493X0.07493*%
%ADD94R,0.08200X0.08200*%
%ADD95C,0.11627*%
%ADD96C,0.02800*%
%ADD97C,0.03300*%
%ADD98C,0.04800*%
D38*
X0Y0D02*
Y393701D01*
X393701D01*
Y0D02*
Y393701D01*
X0Y0D02*
X393701D01*
D84*
X308000Y17500D02*
D03*
X97000D02*
D03*
X295500Y376000D02*
D03*
X97500D02*
D03*
D85*
X12313Y41253D02*
D03*
X208575Y41227D02*
D03*
D86*
X196863Y214578D02*
D03*
D87*
X10827Y171260D02*
D03*
Y181260D02*
D03*
Y191260D02*
D03*
Y201260D02*
D03*
Y211260D02*
D03*
Y221260D02*
D03*
Y231260D02*
D03*
X136417Y313976D02*
D03*
X126417D02*
D03*
X116417D02*
D03*
X106417D02*
D03*
X96417D02*
D03*
X86417D02*
D03*
X76417D02*
D03*
X66417D02*
D03*
X56417D02*
D03*
X46417D02*
D03*
X36417D02*
D03*
Y253976D02*
D03*
X46417D02*
D03*
X56417D02*
D03*
X66417D02*
D03*
X76417D02*
D03*
X86417D02*
D03*
X96417D02*
D03*
X106417D02*
D03*
X116417D02*
D03*
X126417D02*
D03*
X136417D02*
D03*
X146417D02*
D03*
X156417Y258976D02*
D03*
Y268976D02*
D03*
Y278976D02*
D03*
Y288976D02*
D03*
Y298976D02*
D03*
Y308976D02*
D03*
X36417Y263976D02*
D03*
Y273976D02*
D03*
Y283976D02*
D03*
X101417Y263976D02*
D03*
X111417D02*
D03*
X211614Y171260D02*
D03*
Y181260D02*
D03*
Y191260D02*
D03*
Y201260D02*
D03*
Y211260D02*
D03*
Y221260D02*
D03*
Y231260D02*
D03*
X337205Y313976D02*
D03*
X327205D02*
D03*
X317205D02*
D03*
X307205D02*
D03*
X297205D02*
D03*
X287205D02*
D03*
X277205D02*
D03*
X267205D02*
D03*
X257205D02*
D03*
X247205D02*
D03*
X237205D02*
D03*
Y253976D02*
D03*
X247205D02*
D03*
X257205D02*
D03*
X267205D02*
D03*
X277205D02*
D03*
X287205D02*
D03*
X297205D02*
D03*
X307205D02*
D03*
X317205D02*
D03*
X327205D02*
D03*
X337205D02*
D03*
X347205D02*
D03*
X357205Y258976D02*
D03*
Y268976D02*
D03*
Y278976D02*
D03*
Y288976D02*
D03*
Y298976D02*
D03*
Y308976D02*
D03*
X237205Y263976D02*
D03*
Y273976D02*
D03*
Y283976D02*
D03*
X302205Y263976D02*
D03*
X312205D02*
D03*
D88*
X10827Y241260D02*
D03*
X211614D02*
D03*
D89*
X181496Y49213D02*
D03*
X151575D02*
D03*
X56102Y187165D02*
D03*
Y177165D02*
D03*
Y167165D02*
D03*
X66102Y177165D02*
D03*
Y167165D02*
D03*
X95472Y197165D02*
D03*
Y187165D02*
D03*
Y167165D02*
D03*
Y177165D02*
D03*
X382283Y49213D02*
D03*
X352362D02*
D03*
X256890Y187165D02*
D03*
Y177165D02*
D03*
Y167165D02*
D03*
X266890Y177165D02*
D03*
Y167165D02*
D03*
X296260Y197165D02*
D03*
Y187165D02*
D03*
Y167165D02*
D03*
Y177165D02*
D03*
D90*
X171260Y208189D02*
D03*
X181260D02*
D03*
X171260Y238189D02*
D03*
X138937Y161929D02*
D03*
X128937Y191929D02*
D03*
X138937D02*
D03*
X372047Y208189D02*
D03*
X382047D02*
D03*
X372047Y238189D02*
D03*
X339724Y161929D02*
D03*
X329724Y191929D02*
D03*
X339724D02*
D03*
D91*
X181260Y238189D02*
D03*
X128937Y161929D02*
D03*
X382047Y238189D02*
D03*
X329724Y161929D02*
D03*
D92*
X98957Y356299D02*
D03*
X93957D02*
D03*
X88957D02*
D03*
X103957D02*
D03*
X299744D02*
D03*
X294744D02*
D03*
X289744D02*
D03*
X304744D02*
D03*
D93*
X66102Y187165D02*
D03*
X95472Y157165D02*
D03*
X266890Y187165D02*
D03*
X296260Y157165D02*
D03*
D94*
X146417Y313976D02*
D03*
X347205D02*
D03*
D95*
X17717Y82677D02*
D03*
X175197D02*
D03*
X175197Y318898D02*
D03*
X17717D02*
D03*
X218504Y82677D02*
D03*
X375984D02*
D03*
X375984Y318898D02*
D03*
X218504D02*
D03*
D96*
X52165Y280512D02*
D03*
X59055Y286417D02*
D03*
X69882Y284449D02*
D03*
X117126D02*
D03*
X107283D02*
D03*
X105315Y295276D02*
D03*
X109252D02*
D03*
X63703Y271313D02*
D03*
X70866Y264764D02*
D03*
X28543Y330709D02*
D03*
X44291D02*
D03*
X81693Y296260D02*
D03*
X85630Y297244D02*
D03*
X162402Y94488D02*
D03*
X165354Y257874D02*
D03*
X80709Y221457D02*
D03*
X113189Y237205D02*
D03*
X252953Y280512D02*
D03*
X259842Y286417D02*
D03*
X270669Y284449D02*
D03*
X317913D02*
D03*
X308071D02*
D03*
X306102Y295276D02*
D03*
X310039D02*
D03*
X264490Y271313D02*
D03*
X271654Y264764D02*
D03*
X229331Y330709D02*
D03*
X245079D02*
D03*
X282480Y296260D02*
D03*
X286417Y297244D02*
D03*
X363189Y94488D02*
D03*
X366142Y257874D02*
D03*
X281496Y221457D02*
D03*
X313976Y237205D02*
D03*
D97*
X184375Y198925D02*
D03*
X89567Y245079D02*
D03*
X82677D02*
D03*
X133858Y264764D02*
D03*
X140755Y264832D02*
D03*
X154528Y225394D02*
D03*
Y235236D02*
D03*
X113189Y220472D02*
D03*
X148622Y203740D02*
D03*
X137795D02*
D03*
X177165Y179134D02*
D03*
X169291Y159449D02*
D03*
X118110Y166339D02*
D03*
X108268D02*
D03*
X118110Y203740D02*
D03*
X108268D02*
D03*
X118110Y184055D02*
D03*
X108268D02*
D03*
X177165Y122047D02*
D03*
X167323D02*
D03*
X157480D02*
D03*
X177165Y38386D02*
D03*
X162402D02*
D03*
X103347Y28543D02*
D03*
X83661D02*
D03*
X63976D02*
D03*
X34449Y43307D02*
D03*
Y53150D02*
D03*
X5906Y72835D02*
D03*
Y82677D02*
D03*
Y92520D02*
D03*
X103347Y122047D02*
D03*
X93504D02*
D03*
X83661D02*
D03*
X63976Y146653D02*
D03*
X54134D02*
D03*
X39370Y166339D02*
D03*
X29528D02*
D03*
X49213Y206693D02*
D03*
Y215551D02*
D03*
X29528D02*
D03*
Y225394D02*
D03*
Y235236D02*
D03*
X9843Y274606D02*
D03*
Y284449D02*
D03*
Y294291D02*
D03*
X29528Y297244D02*
D03*
X39370D02*
D03*
X83661Y307087D02*
D03*
X112205Y281496D02*
D03*
X125000D02*
D03*
X137795Y289370D02*
D03*
Y299213D02*
D03*
X175197Y279528D02*
D03*
Y289370D02*
D03*
Y298228D02*
D03*
Y338583D02*
D03*
Y348425D02*
D03*
Y358268D02*
D03*
X89567Y333661D02*
D03*
X96457D02*
D03*
X103347D02*
D03*
X83661Y277559D02*
D03*
X90551Y284449D02*
D03*
X83661Y291339D02*
D03*
X76772Y284449D02*
D03*
X85630Y216535D02*
D03*
X67913Y206693D02*
D03*
Y211614D02*
D03*
Y216535D02*
D03*
X385163Y198925D02*
D03*
X290354Y245079D02*
D03*
X283465D02*
D03*
X334646Y264764D02*
D03*
X341543Y264832D02*
D03*
X355315Y225394D02*
D03*
Y235236D02*
D03*
X313976Y220472D02*
D03*
X349410Y203740D02*
D03*
X338583D02*
D03*
X377953Y179134D02*
D03*
X370079Y159449D02*
D03*
X318898Y166339D02*
D03*
X309055D02*
D03*
X318898Y203740D02*
D03*
X309055D02*
D03*
X318898Y184055D02*
D03*
X309055D02*
D03*
X377953Y122047D02*
D03*
X368110D02*
D03*
X358268D02*
D03*
X377953Y38386D02*
D03*
X363189D02*
D03*
X304134Y28543D02*
D03*
X284449D02*
D03*
X264764D02*
D03*
X235236Y43307D02*
D03*
Y53150D02*
D03*
X206693Y72835D02*
D03*
Y82677D02*
D03*
Y92520D02*
D03*
X304134Y122047D02*
D03*
X294291D02*
D03*
X284449D02*
D03*
X264764Y146653D02*
D03*
X254921D02*
D03*
X240158Y166339D02*
D03*
X230315D02*
D03*
X250000Y206693D02*
D03*
Y215551D02*
D03*
X230315D02*
D03*
Y225394D02*
D03*
Y235236D02*
D03*
X210630Y274606D02*
D03*
Y284449D02*
D03*
Y294291D02*
D03*
X230315Y297244D02*
D03*
X240158D02*
D03*
X284449Y307087D02*
D03*
X312992Y281496D02*
D03*
X325787D02*
D03*
X338583Y289370D02*
D03*
Y299213D02*
D03*
X375984Y279528D02*
D03*
Y289370D02*
D03*
Y298228D02*
D03*
Y338583D02*
D03*
Y348425D02*
D03*
Y358268D02*
D03*
X290354Y333661D02*
D03*
X297244D02*
D03*
X304134D02*
D03*
X284449Y277559D02*
D03*
X291339Y284449D02*
D03*
X284449Y291339D02*
D03*
X277559Y284449D02*
D03*
X286417Y216535D02*
D03*
X268701Y206693D02*
D03*
Y211614D02*
D03*
Y216535D02*
D03*
D98*
X170276Y172244D02*
D03*
X371063D02*
D03*
M02*
