G04*
G04 #@! TF.GenerationSoftware,Altium Limited,Altium Designer,21.3.2 (30)*
G04*
G04 Layer_Color=128*
%FSLAX25Y25*%
%MOIN*%
G70*
G04*
G04 #@! TF.SameCoordinates,6AF4B204-6769-45D0-A42D-1EC1730201C4*
G04*
G04*
G04 #@! TF.FilePolarity,Positive*
G04*
G01*
G75*
%ADD36C,0.01000*%
%ADD38C,0.00787*%
%ADD107C,0.00200*%
%ADD108C,0.01500*%
%ADD111C,0.00100*%
D36*
X591071Y417040D02*
Y414629D01*
X592276D01*
X592678Y415031D01*
Y415433D01*
X592276Y415834D01*
X591071D01*
X592276D01*
X592678Y416236D01*
Y416638D01*
X592276Y417040D01*
X591071D01*
X593884Y414629D02*
X594687D01*
X595089Y415031D01*
Y415834D01*
X594687Y416236D01*
X593884D01*
X593482Y415834D01*
Y415031D01*
X593884Y414629D01*
X596294Y416236D02*
X597098D01*
X597500Y415834D01*
Y414629D01*
X596294D01*
X595892Y415031D01*
X596294Y415433D01*
X597500D01*
X598303Y416236D02*
Y414629D01*
Y415433D01*
X598705Y415834D01*
X599107Y416236D01*
X599509D01*
X602321Y417040D02*
Y414629D01*
X601116D01*
X600714Y415031D01*
Y415834D01*
X601116Y416236D01*
X602321D01*
X605536Y417040D02*
Y414629D01*
X607143D01*
X608348Y416236D02*
X609152D01*
X609553Y415834D01*
Y414629D01*
X608348D01*
X607946Y415031D01*
X608348Y415433D01*
X609553D01*
X610357Y416236D02*
Y415031D01*
X610759Y414629D01*
X611964D01*
Y414227D01*
X611562Y413825D01*
X611161D01*
X611964Y414629D02*
Y416236D01*
X613973Y414629D02*
X613170D01*
X612768Y415031D01*
Y415834D01*
X613170Y416236D01*
X613973D01*
X614375Y415834D01*
Y415433D01*
X612768D01*
X615178Y416236D02*
Y414629D01*
Y415433D01*
X615580Y415834D01*
X615982Y416236D01*
X616384D01*
X621607Y416638D02*
X621205Y417040D01*
X620402D01*
X620000Y416638D01*
Y416236D01*
X620402Y415834D01*
X621205D01*
X621607Y415433D01*
Y415031D01*
X621205Y414629D01*
X620402D01*
X620000Y415031D01*
X622813Y416638D02*
Y416236D01*
X622411D01*
X623214D01*
X622813D01*
Y415031D01*
X623214Y414629D01*
X624822Y416236D02*
X625625D01*
X626027Y415834D01*
Y414629D01*
X624822D01*
X624420Y415031D01*
X624822Y415433D01*
X626027D01*
X628438Y416236D02*
X627232D01*
X626830Y415834D01*
Y415031D01*
X627232Y414629D01*
X628438D01*
X629241D02*
Y417040D01*
Y415433D02*
X630447Y416236D01*
X629241Y415433D02*
X630447Y414629D01*
X568176Y404983D02*
Y407394D01*
X566971Y406188D01*
X568578D01*
X568176Y390513D02*
Y392924D01*
X566971Y391719D01*
X568578D01*
X569382Y390513D02*
Y390915D01*
X569783D01*
Y390513D01*
X569382D01*
X571390Y392523D02*
X571792Y392924D01*
X572596D01*
X572998Y392523D01*
Y392121D01*
X572596Y391719D01*
X572194D01*
X572596D01*
X572998Y391317D01*
Y390915D01*
X572596Y390513D01*
X571792D01*
X571390Y390915D01*
X568176Y376044D02*
Y378455D01*
X566971Y377250D01*
X568578D01*
Y416638D02*
X568176Y417040D01*
X567373D01*
X566971Y416638D01*
Y415031D01*
X567373Y414629D01*
X568176D01*
X568578Y415031D01*
X569783Y414629D02*
X570587D01*
X570989Y415031D01*
Y415834D01*
X570587Y416236D01*
X569783D01*
X569382Y415834D01*
Y415031D01*
X569783Y414629D01*
X571792D02*
Y416236D01*
X572998D01*
X573399Y415834D01*
Y414629D01*
X574203D02*
X575408D01*
X575810Y415031D01*
X575408Y415433D01*
X574605D01*
X574203Y415834D01*
X574605Y416236D01*
X575810D01*
X577016Y416638D02*
Y416236D01*
X576614D01*
X577417D01*
X577016D01*
Y415031D01*
X577417Y414629D01*
X579025Y416236D02*
X579828D01*
X580230Y415834D01*
Y414629D01*
X579025D01*
X578623Y415031D01*
X579025Y415433D01*
X580230D01*
X581034Y414629D02*
Y416236D01*
X582239D01*
X582641Y415834D01*
Y414629D01*
X583846Y416638D02*
Y416236D01*
X583444D01*
X584248D01*
X583846D01*
Y415031D01*
X584248Y414629D01*
X539656Y404983D02*
X540460D01*
X540058D01*
Y407394D01*
X539656Y406992D01*
X541665Y404983D02*
Y405385D01*
X542067D01*
Y404983D01*
X541665D01*
X543674Y406992D02*
X544076Y407394D01*
X544879D01*
X545281Y406992D01*
Y405385D01*
X544879Y404983D01*
X544076D01*
X543674Y405385D01*
Y406992D01*
X546085D02*
X546487Y407394D01*
X547290D01*
X547692Y406992D01*
Y405385D01*
X547290Y404983D01*
X546487D01*
X546085Y405385D01*
Y406992D01*
X548496Y404983D02*
Y406590D01*
X548897D01*
X549299Y406188D01*
Y404983D01*
Y406188D01*
X549701Y406590D01*
X550103Y406188D01*
Y404983D01*
X550906D02*
X551710D01*
X551308D01*
Y406590D01*
X550906D01*
X552915Y404983D02*
X553719D01*
X553317D01*
Y407394D01*
X552915D01*
X539656Y402169D02*
X540058Y402570D01*
X540862D01*
X541263Y402169D01*
Y400562D01*
X540862Y400160D01*
X540058D01*
X539656Y400562D01*
Y402169D01*
X542067Y400160D02*
Y400562D01*
X542469D01*
Y400160D01*
X542067D01*
X544076Y402570D02*
X545683D01*
Y402169D01*
X544076Y400562D01*
Y400160D01*
X546487Y400562D02*
X546888Y400160D01*
X547692D01*
X548094Y400562D01*
Y402169D01*
X547692Y402570D01*
X546888D01*
X546487Y402169D01*
Y401767D01*
X546888Y401365D01*
X548094D01*
X548897Y400160D02*
Y401767D01*
X549299D01*
X549701Y401365D01*
Y400160D01*
Y401365D01*
X550103Y401767D01*
X550505Y401365D01*
Y400160D01*
X551308D02*
X552112D01*
X551710D01*
Y401767D01*
X551308D01*
X553317Y400160D02*
X554121D01*
X553719D01*
Y402570D01*
X553317D01*
X539656Y395337D02*
X540460D01*
X540058D01*
Y397747D01*
X539656Y397346D01*
X541665Y395337D02*
Y395738D01*
X542067D01*
Y395337D01*
X541665D01*
X543674Y397346D02*
X544076Y397747D01*
X544879D01*
X545281Y397346D01*
Y396944D01*
X544879Y396542D01*
X544478D01*
X544879D01*
X545281Y396140D01*
Y395738D01*
X544879Y395337D01*
X544076D01*
X543674Y395738D01*
X546085Y397346D02*
X546487Y397747D01*
X547290D01*
X547692Y397346D01*
Y396944D01*
X547290Y396542D01*
X547692Y396140D01*
Y395738D01*
X547290Y395337D01*
X546487D01*
X546085Y395738D01*
Y396140D01*
X546487Y396542D01*
X546085Y396944D01*
Y397346D01*
X546487Y396542D02*
X547290D01*
X548496Y395337D02*
Y396944D01*
X548897D01*
X549299Y396542D01*
Y395337D01*
Y396542D01*
X549701Y396944D01*
X550103Y396542D01*
Y395337D01*
X550906D02*
X551710D01*
X551308D01*
Y396944D01*
X550906D01*
X552915Y395337D02*
X553719D01*
X553317D01*
Y397747D01*
X552915D01*
X541263Y392924D02*
X539656D01*
Y391719D01*
X540460Y392121D01*
X540862D01*
X541263Y391719D01*
Y390915D01*
X540862Y390513D01*
X540058D01*
X539656Y390915D01*
X542067D02*
X542469Y390513D01*
X543272D01*
X543674Y390915D01*
Y392523D01*
X543272Y392924D01*
X542469D01*
X542067Y392523D01*
Y392121D01*
X542469Y391719D01*
X543674D01*
X544478Y390513D02*
Y390915D01*
X544879D01*
Y390513D01*
X544478D01*
X546487Y392523D02*
X546888Y392924D01*
X547692D01*
X548094Y392523D01*
Y390915D01*
X547692Y390513D01*
X546888D01*
X546487Y390915D01*
Y392523D01*
X548897D02*
X549299Y392924D01*
X550103D01*
X550505Y392523D01*
Y390915D01*
X550103Y390513D01*
X549299D01*
X548897Y390915D01*
Y392523D01*
X551308Y390513D02*
Y392121D01*
X551710D01*
X552112Y391719D01*
Y390513D01*
Y391719D01*
X552514Y392121D01*
X552915Y391719D01*
Y390513D01*
X553719D02*
X554523D01*
X554121D01*
Y392121D01*
X553719D01*
X555728Y390513D02*
X556531D01*
X556130D01*
Y392924D01*
X555728D01*
X539656Y385690D02*
X540460D01*
X540058D01*
Y388101D01*
X539656Y387699D01*
X541665Y385690D02*
Y386092D01*
X542067D01*
Y385690D01*
X541665D01*
X543674Y387699D02*
X544076Y388101D01*
X544879D01*
X545281Y387699D01*
Y387298D01*
X544879Y386896D01*
X544478D01*
X544879D01*
X545281Y386494D01*
Y386092D01*
X544879Y385690D01*
X544076D01*
X543674Y386092D01*
X546085Y387699D02*
X546487Y388101D01*
X547290D01*
X547692Y387699D01*
Y387298D01*
X547290Y386896D01*
X547692Y386494D01*
Y386092D01*
X547290Y385690D01*
X546487D01*
X546085Y386092D01*
Y386494D01*
X546487Y386896D01*
X546085Y387298D01*
Y387699D01*
X546487Y386896D02*
X547290D01*
X548496Y385690D02*
Y387298D01*
X548897D01*
X549299Y386896D01*
Y385690D01*
Y386896D01*
X549701Y387298D01*
X550103Y386896D01*
Y385690D01*
X550906D02*
X551710D01*
X551308D01*
Y387298D01*
X550906D01*
X552915Y385690D02*
X553719D01*
X553317D01*
Y388101D01*
X552915D01*
X539656Y382876D02*
X540058Y383278D01*
X540862D01*
X541263Y382876D01*
Y381269D01*
X540862Y380867D01*
X540058D01*
X539656Y381269D01*
Y382876D01*
X542067Y380867D02*
Y381269D01*
X542469D01*
Y380867D01*
X542067D01*
X544076Y383278D02*
X545683D01*
Y382876D01*
X544076Y381269D01*
Y380867D01*
X546487Y381269D02*
X546888Y380867D01*
X547692D01*
X548094Y381269D01*
Y382876D01*
X547692Y383278D01*
X546888D01*
X546487Y382876D01*
Y382474D01*
X546888Y382073D01*
X548094D01*
X548897Y380867D02*
Y382474D01*
X549299D01*
X549701Y382073D01*
Y380867D01*
Y382073D01*
X550103Y382474D01*
X550505Y382073D01*
Y380867D01*
X551308D02*
X552112D01*
X551710D01*
Y382474D01*
X551308D01*
X553317Y380867D02*
X554121D01*
X553719D01*
Y383278D01*
X553317D01*
X539656Y376044D02*
X540460D01*
X540058D01*
Y378455D01*
X539656Y378053D01*
X541665Y376044D02*
Y376446D01*
X542067D01*
Y376044D01*
X541665D01*
X543674Y378053D02*
X544076Y378455D01*
X544879D01*
X545281Y378053D01*
Y376446D01*
X544879Y376044D01*
X544076D01*
X543674Y376446D01*
Y378053D01*
X546085D02*
X546487Y378455D01*
X547290D01*
X547692Y378053D01*
Y376446D01*
X547290Y376044D01*
X546487D01*
X546085Y376446D01*
Y378053D01*
X548496Y376044D02*
Y377652D01*
X548897D01*
X549299Y377250D01*
Y376044D01*
Y377250D01*
X549701Y377652D01*
X550103Y377250D01*
Y376044D01*
X550906D02*
X551710D01*
X551308D01*
Y377652D01*
X550906D01*
X552915Y376044D02*
X553719D01*
X553317D01*
Y378455D01*
X552915D01*
X539656Y417040D02*
X541263D01*
X540460D01*
Y414629D01*
X542067Y417040D02*
Y414629D01*
Y415834D01*
X542469Y416236D01*
X543272D01*
X543674Y415834D01*
Y414629D01*
X544478D02*
X545281D01*
X544879D01*
Y416236D01*
X544478D01*
X548094D02*
X546888D01*
X546487Y415834D01*
Y415031D01*
X546888Y414629D01*
X548094D01*
X548897D02*
Y417040D01*
Y415433D02*
X550103Y416236D01*
X548897Y415433D02*
X550103Y414629D01*
X551308D02*
Y416236D01*
X552514D01*
X552915Y415834D01*
Y414629D01*
X554924D02*
X554121D01*
X553719Y415031D01*
Y415834D01*
X554121Y416236D01*
X554924D01*
X555326Y415834D01*
Y415433D01*
X553719D01*
X556130Y414629D02*
X557335D01*
X557737Y415031D01*
X557335Y415433D01*
X556531D01*
X556130Y415834D01*
X556531Y416236D01*
X557737D01*
X558540Y414629D02*
X559746D01*
X560148Y415031D01*
X559746Y415433D01*
X558942D01*
X558540Y415834D01*
X558942Y416236D01*
X560148D01*
X515958Y406992D02*
X515556Y407394D01*
X514752D01*
X514351Y406992D01*
Y406590D01*
X514752Y406188D01*
X515556D01*
X515958Y405786D01*
Y405385D01*
X515556Y404983D01*
X514752D01*
X514351Y405385D01*
X516761Y404983D02*
Y407394D01*
X517565Y406590D01*
X518368Y407394D01*
Y404983D01*
X519172Y406188D02*
X520779D01*
X521583Y406992D02*
X521985Y407394D01*
X522788D01*
X523190Y406992D01*
Y405385D01*
X522788Y404983D01*
X521985D01*
X521583Y405385D01*
Y406992D01*
X523994D02*
X524395Y407394D01*
X525199D01*
X525601Y406992D01*
Y405385D01*
X525199Y404983D01*
X524395D01*
X523994Y405385D01*
Y406992D01*
X526404Y404983D02*
X527208D01*
X526806D01*
Y407394D01*
X526404Y406992D01*
X514351Y400160D02*
Y402570D01*
X515556D01*
X515958Y402169D01*
Y401365D01*
X515556Y400963D01*
X514351D01*
X516761Y402570D02*
Y400160D01*
X517967D01*
X518368Y400562D01*
Y400963D01*
Y401365D01*
X517967Y401767D01*
X516761D01*
X520779Y402169D02*
X520377Y402570D01*
X519574D01*
X519172Y402169D01*
Y401767D01*
X519574Y401365D01*
X520377D01*
X520779Y400963D01*
Y400562D01*
X520377Y400160D01*
X519574D01*
X519172Y400562D01*
X521583Y400160D02*
Y401767D01*
X522788D01*
X523190Y401365D01*
Y400160D01*
X515958Y397346D02*
X515556Y397747D01*
X514752D01*
X514351Y397346D01*
Y395738D01*
X514752Y395337D01*
X515556D01*
X515958Y395738D01*
X518368Y397747D02*
X516761D01*
Y396542D01*
X517565D01*
X516761D01*
Y395337D01*
X519172Y396542D02*
X520779D01*
X521583Y397346D02*
X521985Y397747D01*
X522788D01*
X523190Y397346D01*
Y395738D01*
X522788Y395337D01*
X521985D01*
X521583Y395738D01*
Y397346D01*
X523994D02*
X524395Y397747D01*
X525199D01*
X525601Y397346D01*
Y395738D01*
X525199Y395337D01*
X524395D01*
X523994Y395738D01*
Y397346D01*
X527610Y395337D02*
Y397747D01*
X526404Y396542D01*
X528012D01*
X515958Y392523D02*
X515556Y392924D01*
X514752D01*
X514351Y392523D01*
Y390915D01*
X514752Y390513D01*
X515556D01*
X515958Y390915D01*
X517163Y390513D02*
X517967D01*
X518368Y390915D01*
Y391719D01*
X517967Y392121D01*
X517163D01*
X516761Y391719D01*
Y390915D01*
X517163Y390513D01*
X519172Y392121D02*
Y390513D01*
Y391317D01*
X519574Y391719D01*
X519976Y392121D01*
X520377D01*
X522788Y390513D02*
X521985D01*
X521583Y390915D01*
Y391719D01*
X521985Y392121D01*
X522788D01*
X523190Y391719D01*
Y391317D01*
X521583D01*
X523994Y391719D02*
X525601D01*
X526404Y392523D02*
X526806Y392924D01*
X527610D01*
X528012Y392523D01*
Y390915D01*
X527610Y390513D01*
X526806D01*
X526404Y390915D01*
Y392523D01*
X530021Y390513D02*
Y392924D01*
X528815Y391719D01*
X530422D01*
X531226Y392523D02*
X531628Y392924D01*
X532431D01*
X532833Y392523D01*
Y392121D01*
X532431Y391719D01*
X532029D01*
X532431D01*
X532833Y391317D01*
Y390915D01*
X532431Y390513D01*
X531628D01*
X531226Y390915D01*
X515958Y387699D02*
X515556Y388101D01*
X514752D01*
X514351Y387699D01*
Y386092D01*
X514752Y385690D01*
X515556D01*
X515958Y386092D01*
X518368Y388101D02*
X516761D01*
Y386896D01*
X517565D01*
X516761D01*
Y385690D01*
X519172Y386896D02*
X520779D01*
X521583Y387699D02*
X521985Y388101D01*
X522788D01*
X523190Y387699D01*
Y386092D01*
X522788Y385690D01*
X521985D01*
X521583Y386092D01*
Y387699D01*
X523994D02*
X524395Y388101D01*
X525199D01*
X525601Y387699D01*
Y386092D01*
X525199Y385690D01*
X524395D01*
X523994Y386092D01*
Y387699D01*
X527610Y385690D02*
Y388101D01*
X526404Y386896D01*
X528012D01*
X514351Y380867D02*
Y383278D01*
X515556D01*
X515958Y382876D01*
Y382073D01*
X515556Y381671D01*
X514351D01*
X516761Y383278D02*
Y380867D01*
X517967D01*
X518368Y381269D01*
Y381671D01*
Y382073D01*
X517967Y382474D01*
X516761D01*
X520779Y382876D02*
X520377Y383278D01*
X519574D01*
X519172Y382876D01*
Y382474D01*
X519574Y382073D01*
X520377D01*
X520779Y381671D01*
Y381269D01*
X520377Y380867D01*
X519574D01*
X519172Y381269D01*
X521583Y380867D02*
Y382474D01*
X522788D01*
X523190Y382073D01*
Y380867D01*
X515958Y378053D02*
X515556Y378455D01*
X514752D01*
X514351Y378053D01*
Y377652D01*
X514752Y377250D01*
X515556D01*
X515958Y376848D01*
Y376446D01*
X515556Y376044D01*
X514752D01*
X514351Y376446D01*
X516761Y376044D02*
Y378455D01*
X517565Y377652D01*
X518368Y378455D01*
Y376044D01*
X519172Y377250D02*
X520779D01*
X521583Y378053D02*
X521985Y378455D01*
X522788D01*
X523190Y378053D01*
Y376446D01*
X522788Y376044D01*
X521985D01*
X521583Y376446D01*
Y378053D01*
X523994D02*
X524395Y378455D01*
X525199D01*
X525601Y378053D01*
Y376446D01*
X525199Y376044D01*
X524395D01*
X523994Y376446D01*
Y378053D01*
X526404Y376044D02*
X527208D01*
X526806D01*
Y378455D01*
X526404Y378053D01*
X514351Y414629D02*
Y417040D01*
X515154Y416236D01*
X515958Y417040D01*
Y414629D01*
X517163Y416236D02*
X517967D01*
X518368Y415834D01*
Y414629D01*
X517163D01*
X516761Y415031D01*
X517163Y415433D01*
X518368D01*
X519574Y416638D02*
Y416236D01*
X519172D01*
X519976D01*
X519574D01*
Y415031D01*
X519976Y414629D01*
X522387D02*
X521583D01*
X521181Y415031D01*
Y415834D01*
X521583Y416236D01*
X522387D01*
X522788Y415834D01*
Y415433D01*
X521181D01*
X523592Y416236D02*
Y414629D01*
Y415433D01*
X523994Y415834D01*
X524396Y416236D01*
X524797D01*
X526003Y414629D02*
X526806D01*
X526404D01*
Y416236D01*
X526003D01*
X528413D02*
X529217D01*
X529619Y415834D01*
Y414629D01*
X528413D01*
X528012Y415031D01*
X528413Y415433D01*
X529619D01*
X530422Y414629D02*
X531226D01*
X530824D01*
Y417040D01*
X530422D01*
X459714Y412217D02*
X461321D01*
X460518D01*
Y409806D01*
X462527D02*
X463330D01*
X463732Y410208D01*
Y411011D01*
X463330Y411413D01*
X462527D01*
X462125Y411011D01*
Y410208D01*
X462527Y409806D01*
X464536Y409002D02*
Y411413D01*
X465741D01*
X466143Y411011D01*
Y410208D01*
X465741Y409806D01*
X464536D01*
X470563Y412217D02*
X469759D01*
X469357Y411815D01*
Y410208D01*
X469759Y409806D01*
X470563D01*
X470964Y410208D01*
Y411815D01*
X470563Y412217D01*
X471768Y411413D02*
X472572Y409806D01*
X473375Y411413D01*
X475384Y409806D02*
X474580D01*
X474179Y410208D01*
Y411011D01*
X474580Y411413D01*
X475384D01*
X475786Y411011D01*
Y410609D01*
X474179D01*
X476589Y411413D02*
Y409806D01*
Y410609D01*
X476991Y411011D01*
X477393Y411413D01*
X477795D01*
X479000Y409806D02*
X479804D01*
X479402D01*
Y412217D01*
X479000D01*
X481411Y411413D02*
X482214D01*
X482616Y411011D01*
Y409806D01*
X481411D01*
X481009Y410208D01*
X481411Y410609D01*
X482616D01*
X483420Y411413D02*
Y410208D01*
X483822Y409806D01*
X485027D01*
Y409404D01*
X484625Y409002D01*
X484224D01*
X485027Y409806D02*
Y411413D01*
X459714Y407394D02*
X461321D01*
X460518D01*
Y404983D01*
X462527D02*
X463330D01*
X463732Y405385D01*
Y406188D01*
X463330Y406590D01*
X462527D01*
X462125Y406188D01*
Y405385D01*
X462527Y404983D01*
X464536Y404179D02*
Y406590D01*
X465741D01*
X466143Y406188D01*
Y405385D01*
X465741Y404983D01*
X464536D01*
X470964Y406992D02*
X470563Y407394D01*
X469759D01*
X469357Y406992D01*
Y406590D01*
X469759Y406188D01*
X470563D01*
X470964Y405786D01*
Y405385D01*
X470563Y404983D01*
X469759D01*
X469357Y405385D01*
X472170Y404983D02*
X472973D01*
X473375Y405385D01*
Y406188D01*
X472973Y406590D01*
X472170D01*
X471768Y406188D01*
Y405385D01*
X472170Y404983D01*
X474179D02*
X474982D01*
X474580D01*
Y407394D01*
X474179D01*
X477795D02*
Y404983D01*
X476589D01*
X476188Y405385D01*
Y406188D01*
X476589Y406590D01*
X477795D01*
X479804Y404983D02*
X479000D01*
X478598Y405385D01*
Y406188D01*
X479000Y406590D01*
X479804D01*
X480206Y406188D01*
Y405786D01*
X478598D01*
X481009Y406590D02*
Y404983D01*
Y405786D01*
X481411Y406188D01*
X481813Y406590D01*
X482214D01*
X459714Y402570D02*
X461321D01*
X460518D01*
Y400160D01*
X462527D02*
X463330D01*
X463732Y400562D01*
Y401365D01*
X463330Y401767D01*
X462527D01*
X462125Y401365D01*
Y400562D01*
X462527Y400160D01*
X464536Y399356D02*
Y401767D01*
X465741D01*
X466143Y401365D01*
Y400562D01*
X465741Y400160D01*
X464536D01*
X470964Y402169D02*
X470563Y402570D01*
X469759D01*
X469357Y402169D01*
Y401767D01*
X469759Y401365D01*
X470563D01*
X470964Y400963D01*
Y400562D01*
X470563Y400160D01*
X469759D01*
X469357Y400562D01*
X471768Y401767D02*
Y400562D01*
X472170Y400160D01*
X473375D01*
Y401767D01*
X474179D02*
Y400160D01*
Y400963D01*
X474580Y401365D01*
X474982Y401767D01*
X475384D01*
X476991Y400160D02*
Y402169D01*
Y401365D01*
X476589D01*
X477393D01*
X476991D01*
Y402169D01*
X477393Y402570D01*
X479000Y401767D02*
X479804D01*
X480206Y401365D01*
Y400160D01*
X479000D01*
X478598Y400562D01*
X479000Y400963D01*
X480206D01*
X482616Y401767D02*
X481411D01*
X481009Y401365D01*
Y400562D01*
X481411Y400160D01*
X482616D01*
X484625D02*
X483822D01*
X483420Y400562D01*
Y401365D01*
X483822Y401767D01*
X484625D01*
X485027Y401365D01*
Y400963D01*
X483420D01*
X489849Y402570D02*
X488241D01*
Y401365D01*
X489045D01*
X488241D01*
Y400160D01*
X490652D02*
X491456D01*
X491054D01*
Y401767D01*
X490652D01*
X492661Y400160D02*
Y401767D01*
X493867D01*
X494268Y401365D01*
Y400160D01*
X495072D02*
X495876D01*
X495474D01*
Y401767D01*
X495072D01*
X497081Y400160D02*
X498286D01*
X498688Y400562D01*
X498286Y400963D01*
X497483D01*
X497081Y401365D01*
X497483Y401767D01*
X498688D01*
X499492Y402570D02*
Y400160D01*
Y401365D01*
X499894Y401767D01*
X500697D01*
X501099Y401365D01*
Y400160D01*
X459714Y397747D02*
X461321D01*
X460518D01*
Y395337D01*
X462527D02*
X463330D01*
X463732Y395738D01*
Y396542D01*
X463330Y396944D01*
X462527D01*
X462125Y396542D01*
Y395738D01*
X462527Y395337D01*
X464536Y394533D02*
Y396944D01*
X465741D01*
X466143Y396542D01*
Y395738D01*
X465741Y395337D01*
X464536D01*
X469357Y397747D02*
Y395337D01*
X470964D01*
X472170Y396944D02*
X472973D01*
X473375Y396542D01*
Y395337D01*
X472170D01*
X471768Y395738D01*
X472170Y396140D01*
X473375D01*
X474179Y396944D02*
Y395738D01*
X474580Y395337D01*
X475786D01*
Y394935D01*
X475384Y394533D01*
X474982D01*
X475786Y395337D02*
Y396944D01*
X477795Y395337D02*
X476991D01*
X476589Y395738D01*
Y396542D01*
X476991Y396944D01*
X477795D01*
X478197Y396542D01*
Y396140D01*
X476589D01*
X479000Y396944D02*
Y395337D01*
Y396140D01*
X479402Y396542D01*
X479804Y396944D01*
X480206D01*
X459714Y392924D02*
Y390513D01*
X460920D01*
X461321Y390915D01*
Y392523D01*
X460920Y392924D01*
X459714D01*
X462125Y390513D02*
X462928D01*
X462527D01*
Y392121D01*
X462125D01*
X465339Y390513D02*
X464536D01*
X464134Y390915D01*
Y391719D01*
X464536Y392121D01*
X465339D01*
X465741Y391719D01*
Y391317D01*
X464134D01*
X466545Y390513D02*
X467348D01*
X466946D01*
Y392924D01*
X466545D01*
X469759Y390513D02*
X468955D01*
X468554Y390915D01*
Y391719D01*
X468955Y392121D01*
X469759D01*
X470161Y391719D01*
Y391317D01*
X468554D01*
X472572Y392121D02*
X471366D01*
X470964Y391719D01*
Y390915D01*
X471366Y390513D01*
X472572D01*
X473777Y392523D02*
Y392121D01*
X473375D01*
X474179D01*
X473777D01*
Y390915D01*
X474179Y390513D01*
X475384Y392121D02*
Y390513D01*
Y391317D01*
X475786Y391719D01*
X476188Y392121D01*
X476589D01*
X477795Y390513D02*
X478598D01*
X478197D01*
Y392121D01*
X477795D01*
X481411D02*
X480206D01*
X479804Y391719D01*
Y390915D01*
X480206Y390513D01*
X481411D01*
X484625D02*
X485429D01*
X485027D01*
Y392924D01*
X484625Y392523D01*
X459714Y388101D02*
Y385690D01*
X460920D01*
X461321Y386092D01*
Y386494D01*
X460920Y386896D01*
X459714D01*
X460920D01*
X461321Y387298D01*
Y387699D01*
X460920Y388101D01*
X459714D01*
X462527Y385690D02*
X463330D01*
X463732Y386092D01*
Y386896D01*
X463330Y387298D01*
X462527D01*
X462125Y386896D01*
Y386092D01*
X462527Y385690D01*
X464937Y387699D02*
Y387298D01*
X464536D01*
X465339D01*
X464937D01*
Y386092D01*
X465339Y385690D01*
X466946Y387699D02*
Y387298D01*
X466545D01*
X467348D01*
X466946D01*
Y386092D01*
X467348Y385690D01*
X468955D02*
X469759D01*
X470161Y386092D01*
Y386896D01*
X469759Y387298D01*
X468955D01*
X468554Y386896D01*
Y386092D01*
X468955Y385690D01*
X470964D02*
Y387298D01*
X471366D01*
X471768Y386896D01*
Y385690D01*
Y386896D01*
X472170Y387298D01*
X472572Y386896D01*
Y385690D01*
X475786Y388101D02*
Y385690D01*
X477393D01*
X478598Y387298D02*
X479402D01*
X479804Y386896D01*
Y385690D01*
X478598D01*
X478197Y386092D01*
X478598Y386494D01*
X479804D01*
X480607Y387298D02*
Y386092D01*
X481009Y385690D01*
X482214D01*
Y385289D01*
X481813Y384887D01*
X481411D01*
X482214Y385690D02*
Y387298D01*
X484224Y385690D02*
X483420D01*
X483018Y386092D01*
Y386896D01*
X483420Y387298D01*
X484224D01*
X484625Y386896D01*
Y386494D01*
X483018D01*
X485429Y387298D02*
Y385690D01*
Y386494D01*
X485831Y386896D01*
X486233Y387298D01*
X486634D01*
X459714Y383278D02*
Y380867D01*
X460920D01*
X461321Y381269D01*
Y381671D01*
X460920Y382073D01*
X459714D01*
X460920D01*
X461321Y382474D01*
Y382876D01*
X460920Y383278D01*
X459714D01*
X462527Y380867D02*
X463330D01*
X463732Y381269D01*
Y382073D01*
X463330Y382474D01*
X462527D01*
X462125Y382073D01*
Y381269D01*
X462527Y380867D01*
X464937Y382876D02*
Y382474D01*
X464536D01*
X465339D01*
X464937D01*
Y381269D01*
X465339Y380867D01*
X466946Y382876D02*
Y382474D01*
X466545D01*
X467348D01*
X466946D01*
Y381269D01*
X467348Y380867D01*
X468955D02*
X469759D01*
X470161Y381269D01*
Y382073D01*
X469759Y382474D01*
X468955D01*
X468554Y382073D01*
Y381269D01*
X468955Y380867D01*
X470964D02*
Y382474D01*
X471366D01*
X471768Y382073D01*
Y380867D01*
Y382073D01*
X472170Y382474D01*
X472572Y382073D01*
Y380867D01*
X477393Y382876D02*
X476991Y383278D01*
X476188D01*
X475786Y382876D01*
Y382474D01*
X476188Y382073D01*
X476991D01*
X477393Y381671D01*
Y381269D01*
X476991Y380867D01*
X476188D01*
X475786Y381269D01*
X478197Y382474D02*
Y381269D01*
X478598Y380867D01*
X479804D01*
Y382474D01*
X480607D02*
Y380867D01*
Y381671D01*
X481009Y382073D01*
X481411Y382474D01*
X481813D01*
X483420Y380867D02*
Y382876D01*
Y382073D01*
X483018D01*
X483822D01*
X483420D01*
Y382876D01*
X483822Y383278D01*
X485429Y382474D02*
X486233D01*
X486634Y382073D01*
Y380867D01*
X485429D01*
X485027Y381269D01*
X485429Y381671D01*
X486634D01*
X489045Y382474D02*
X487840D01*
X487438Y382073D01*
Y381269D01*
X487840Y380867D01*
X489045D01*
X491054D02*
X490250D01*
X489849Y381269D01*
Y382073D01*
X490250Y382474D01*
X491054D01*
X491456Y382073D01*
Y381671D01*
X489849D01*
X496277Y383278D02*
X494670D01*
Y382073D01*
X495474D01*
X494670D01*
Y380867D01*
X497081D02*
X497885D01*
X497483D01*
Y382474D01*
X497081D01*
X499090Y380867D02*
Y382474D01*
X500295D01*
X500697Y382073D01*
Y380867D01*
X501501D02*
X502304D01*
X501902D01*
Y382474D01*
X501501D01*
X503510Y380867D02*
X504715D01*
X505117Y381269D01*
X504715Y381671D01*
X503911D01*
X503510Y382073D01*
X503911Y382474D01*
X505117D01*
X505920Y383278D02*
Y380867D01*
Y382073D01*
X506322Y382474D01*
X507126D01*
X507527Y382073D01*
Y380867D01*
X459714Y378455D02*
Y376044D01*
X460920D01*
X461321Y376446D01*
Y376848D01*
X460920Y377250D01*
X459714D01*
X460920D01*
X461321Y377652D01*
Y378053D01*
X460920Y378455D01*
X459714D01*
X462527Y376044D02*
X463330D01*
X463732Y376446D01*
Y377250D01*
X463330Y377652D01*
X462527D01*
X462125Y377250D01*
Y376446D01*
X462527Y376044D01*
X464937Y378053D02*
Y377652D01*
X464536D01*
X465339D01*
X464937D01*
Y376446D01*
X465339Y376044D01*
X466946Y378053D02*
Y377652D01*
X466545D01*
X467348D01*
X466946D01*
Y376446D01*
X467348Y376044D01*
X468955D02*
X469759D01*
X470161Y376446D01*
Y377250D01*
X469759Y377652D01*
X468955D01*
X468554Y377250D01*
Y376446D01*
X468955Y376044D01*
X470964D02*
Y377652D01*
X471366D01*
X471768Y377250D01*
Y376044D01*
Y377250D01*
X472170Y377652D01*
X472572Y377250D01*
Y376044D01*
X477393Y378053D02*
X476991Y378455D01*
X476188D01*
X475786Y378053D01*
Y377652D01*
X476188Y377250D01*
X476991D01*
X477393Y376848D01*
Y376446D01*
X476991Y376044D01*
X476188D01*
X475786Y376446D01*
X478598Y376044D02*
X479402D01*
X479804Y376446D01*
Y377250D01*
X479402Y377652D01*
X478598D01*
X478197Y377250D01*
Y376446D01*
X478598Y376044D01*
X480607D02*
X481411D01*
X481009D01*
Y378455D01*
X480607D01*
X484224D02*
Y376044D01*
X483018D01*
X482616Y376446D01*
Y377250D01*
X483018Y377652D01*
X484224D01*
X486233Y376044D02*
X485429D01*
X485027Y376446D01*
Y377250D01*
X485429Y377652D01*
X486233D01*
X486634Y377250D01*
Y376848D01*
X485027D01*
X487438Y377652D02*
Y376044D01*
Y376848D01*
X487840Y377250D01*
X488241Y377652D01*
X488643D01*
X459714Y373632D02*
Y371221D01*
X460920D01*
X461321Y371623D01*
Y372025D01*
X460920Y372427D01*
X459714D01*
X460920D01*
X461321Y372828D01*
Y373230D01*
X460920Y373632D01*
X459714D01*
X462527Y371221D02*
X463330D01*
X463732Y371623D01*
Y372427D01*
X463330Y372828D01*
X462527D01*
X462125Y372427D01*
Y371623D01*
X462527Y371221D01*
X464937Y373230D02*
Y372828D01*
X464536D01*
X465339D01*
X464937D01*
Y371623D01*
X465339Y371221D01*
X466946Y373230D02*
Y372828D01*
X466545D01*
X467348D01*
X466946D01*
Y371623D01*
X467348Y371221D01*
X468955D02*
X469759D01*
X470161Y371623D01*
Y372427D01*
X469759Y372828D01*
X468955D01*
X468554Y372427D01*
Y371623D01*
X468955Y371221D01*
X470964D02*
Y372828D01*
X471366D01*
X471768Y372427D01*
Y371221D01*
Y372427D01*
X472170Y372828D01*
X472572Y372427D01*
Y371221D01*
X476991Y373632D02*
X476188D01*
X475786Y373230D01*
Y371623D01*
X476188Y371221D01*
X476991D01*
X477393Y371623D01*
Y373230D01*
X476991Y373632D01*
X478197Y372828D02*
X479000Y371221D01*
X479804Y372828D01*
X481813Y371221D02*
X481009D01*
X480607Y371623D01*
Y372427D01*
X481009Y372828D01*
X481813D01*
X482214Y372427D01*
Y372025D01*
X480607D01*
X483018Y372828D02*
Y371221D01*
Y372025D01*
X483420Y372427D01*
X483822Y372828D01*
X484224D01*
X485429Y371221D02*
X486233D01*
X485831D01*
Y373632D01*
X485429D01*
X487840Y372828D02*
X488643D01*
X489045Y372427D01*
Y371221D01*
X487840D01*
X487438Y371623D01*
X487840Y372025D01*
X489045D01*
X489849Y372828D02*
Y371623D01*
X490250Y371221D01*
X491456D01*
Y370819D01*
X491054Y370418D01*
X490652D01*
X491456Y371221D02*
Y372828D01*
X459714Y414629D02*
Y417040D01*
X461321Y414629D01*
Y417040D01*
X462527Y416236D02*
X463330D01*
X463732Y415834D01*
Y414629D01*
X462527D01*
X462125Y415031D01*
X462527Y415433D01*
X463732D01*
X464536Y414629D02*
Y416236D01*
X464937D01*
X465339Y415834D01*
Y414629D01*
Y415834D01*
X465741Y416236D01*
X466143Y415834D01*
Y414629D01*
X468152D02*
X467348D01*
X466946Y415031D01*
Y415834D01*
X467348Y416236D01*
X468152D01*
X468554Y415834D01*
Y415433D01*
X466946D01*
X442043Y395337D02*
X442846D01*
X442444D01*
Y397747D01*
X442043Y397346D01*
X443650Y385690D02*
X442043D01*
X443650Y387298D01*
Y387699D01*
X443248Y388101D01*
X442444D01*
X442043Y387699D01*
Y417040D02*
Y414629D01*
X443650D01*
X444855Y416236D02*
X445659D01*
X446061Y415834D01*
Y414629D01*
X444855D01*
X444453Y415031D01*
X444855Y415433D01*
X446061D01*
X446864Y416236D02*
Y415031D01*
X447266Y414629D01*
X448471D01*
Y414227D01*
X448069Y413825D01*
X447668D01*
X448471Y414629D02*
Y416236D01*
X450480Y414629D02*
X449677D01*
X449275Y415031D01*
Y415834D01*
X449677Y416236D01*
X450480D01*
X450882Y415834D01*
Y415433D01*
X449275D01*
X451686Y416236D02*
Y414629D01*
Y415433D01*
X452087Y415834D01*
X452489Y416236D01*
X452891D01*
X791858Y417040D02*
Y414629D01*
X793064D01*
X793466Y415031D01*
Y415433D01*
X793064Y415834D01*
X791858D01*
X793064D01*
X793466Y416236D01*
Y416638D01*
X793064Y417040D01*
X791858D01*
X794671Y414629D02*
X795474D01*
X795876Y415031D01*
Y415834D01*
X795474Y416236D01*
X794671D01*
X794269Y415834D01*
Y415031D01*
X794671Y414629D01*
X797082Y416236D02*
X797885D01*
X798287Y415834D01*
Y414629D01*
X797082D01*
X796680Y415031D01*
X797082Y415433D01*
X798287D01*
X799091Y416236D02*
Y414629D01*
Y415433D01*
X799492Y415834D01*
X799894Y416236D01*
X800296D01*
X803109Y417040D02*
Y414629D01*
X801903D01*
X801501Y415031D01*
Y415834D01*
X801903Y416236D01*
X803109D01*
X806323Y417040D02*
Y414629D01*
X807930D01*
X809136Y416236D02*
X809939D01*
X810341Y415834D01*
Y414629D01*
X809136D01*
X808734Y415031D01*
X809136Y415433D01*
X810341D01*
X811144Y416236D02*
Y415031D01*
X811546Y414629D01*
X812752D01*
Y414227D01*
X812350Y413825D01*
X811948D01*
X812752Y414629D02*
Y416236D01*
X814761Y414629D02*
X813957D01*
X813555Y415031D01*
Y415834D01*
X813957Y416236D01*
X814761D01*
X815162Y415834D01*
Y415433D01*
X813555D01*
X815966Y416236D02*
Y414629D01*
Y415433D01*
X816368Y415834D01*
X816770Y416236D01*
X817171D01*
X822395Y416638D02*
X821993Y417040D01*
X821189D01*
X820788Y416638D01*
Y416236D01*
X821189Y415834D01*
X821993D01*
X822395Y415433D01*
Y415031D01*
X821993Y414629D01*
X821189D01*
X820788Y415031D01*
X823600Y416638D02*
Y416236D01*
X823198D01*
X824002D01*
X823600D01*
Y415031D01*
X824002Y414629D01*
X825609Y416236D02*
X826413D01*
X826814Y415834D01*
Y414629D01*
X825609D01*
X825207Y415031D01*
X825609Y415433D01*
X826814D01*
X829225Y416236D02*
X828020D01*
X827618Y415834D01*
Y415031D01*
X828020Y414629D01*
X829225D01*
X830029D02*
Y417040D01*
Y415433D02*
X831234Y416236D01*
X830029Y415433D02*
X831234Y414629D01*
X768963Y404983D02*
Y407394D01*
X767758Y406188D01*
X769365D01*
X768963Y390513D02*
Y392924D01*
X767758Y391719D01*
X769365D01*
X770169Y390513D02*
Y390915D01*
X770571D01*
Y390513D01*
X770169D01*
X772178Y392523D02*
X772580Y392924D01*
X773383D01*
X773785Y392523D01*
Y392121D01*
X773383Y391719D01*
X772982D01*
X773383D01*
X773785Y391317D01*
Y390915D01*
X773383Y390513D01*
X772580D01*
X772178Y390915D01*
X768963Y376044D02*
Y378455D01*
X767758Y377250D01*
X769365D01*
Y416638D02*
X768963Y417040D01*
X768160D01*
X767758Y416638D01*
Y415031D01*
X768160Y414629D01*
X768963D01*
X769365Y415031D01*
X770571Y414629D02*
X771374D01*
X771776Y415031D01*
Y415834D01*
X771374Y416236D01*
X770571D01*
X770169Y415834D01*
Y415031D01*
X770571Y414629D01*
X772580D02*
Y416236D01*
X773785D01*
X774187Y415834D01*
Y414629D01*
X774990D02*
X776196D01*
X776598Y415031D01*
X776196Y415433D01*
X775392D01*
X774990Y415834D01*
X775392Y416236D01*
X776598D01*
X777803Y416638D02*
Y416236D01*
X777401D01*
X778205D01*
X777803D01*
Y415031D01*
X778205Y414629D01*
X779812Y416236D02*
X780616D01*
X781017Y415834D01*
Y414629D01*
X779812D01*
X779410Y415031D01*
X779812Y415433D01*
X781017D01*
X781821Y414629D02*
Y416236D01*
X783026D01*
X783428Y415834D01*
Y414629D01*
X784633Y416638D02*
Y416236D01*
X784232D01*
X785035D01*
X784633D01*
Y415031D01*
X785035Y414629D01*
X740444Y404983D02*
X741247D01*
X740845D01*
Y407394D01*
X740444Y406992D01*
X742453Y404983D02*
Y405385D01*
X742854D01*
Y404983D01*
X742453D01*
X744461Y406992D02*
X744863Y407394D01*
X745667D01*
X746069Y406992D01*
Y405385D01*
X745667Y404983D01*
X744863D01*
X744461Y405385D01*
Y406992D01*
X746872D02*
X747274Y407394D01*
X748078D01*
X748480Y406992D01*
Y405385D01*
X748078Y404983D01*
X747274D01*
X746872Y405385D01*
Y406992D01*
X749283Y404983D02*
Y406590D01*
X749685D01*
X750087Y406188D01*
Y404983D01*
Y406188D01*
X750488Y406590D01*
X750890Y406188D01*
Y404983D01*
X751694D02*
X752497D01*
X752096D01*
Y406590D01*
X751694D01*
X753703Y404983D02*
X754506D01*
X754105D01*
Y407394D01*
X753703D01*
X740444Y402169D02*
X740845Y402570D01*
X741649D01*
X742051Y402169D01*
Y400562D01*
X741649Y400160D01*
X740845D01*
X740444Y400562D01*
Y402169D01*
X742854Y400160D02*
Y400562D01*
X743256D01*
Y400160D01*
X742854D01*
X744863Y402570D02*
X746470D01*
Y402169D01*
X744863Y400562D01*
Y400160D01*
X747274Y400562D02*
X747676Y400160D01*
X748480D01*
X748881Y400562D01*
Y402169D01*
X748480Y402570D01*
X747676D01*
X747274Y402169D01*
Y401767D01*
X747676Y401365D01*
X748881D01*
X749685Y400160D02*
Y401767D01*
X750087D01*
X750488Y401365D01*
Y400160D01*
Y401365D01*
X750890Y401767D01*
X751292Y401365D01*
Y400160D01*
X752096D02*
X752899D01*
X752497D01*
Y401767D01*
X752096D01*
X754105Y400160D02*
X754908D01*
X754506D01*
Y402570D01*
X754105D01*
X740444Y395337D02*
X741247D01*
X740845D01*
Y397747D01*
X740444Y397346D01*
X742453Y395337D02*
Y395738D01*
X742854D01*
Y395337D01*
X742453D01*
X744461Y397346D02*
X744863Y397747D01*
X745667D01*
X746069Y397346D01*
Y396944D01*
X745667Y396542D01*
X745265D01*
X745667D01*
X746069Y396140D01*
Y395738D01*
X745667Y395337D01*
X744863D01*
X744461Y395738D01*
X746872Y397346D02*
X747274Y397747D01*
X748078D01*
X748480Y397346D01*
Y396944D01*
X748078Y396542D01*
X748480Y396140D01*
Y395738D01*
X748078Y395337D01*
X747274D01*
X746872Y395738D01*
Y396140D01*
X747274Y396542D01*
X746872Y396944D01*
Y397346D01*
X747274Y396542D02*
X748078D01*
X749283Y395337D02*
Y396944D01*
X749685D01*
X750087Y396542D01*
Y395337D01*
Y396542D01*
X750488Y396944D01*
X750890Y396542D01*
Y395337D01*
X751694D02*
X752497D01*
X752096D01*
Y396944D01*
X751694D01*
X753703Y395337D02*
X754506D01*
X754105D01*
Y397747D01*
X753703D01*
X742051Y392924D02*
X740444D01*
Y391719D01*
X741247Y392121D01*
X741649D01*
X742051Y391719D01*
Y390915D01*
X741649Y390513D01*
X740845D01*
X740444Y390915D01*
X742854D02*
X743256Y390513D01*
X744060D01*
X744461Y390915D01*
Y392523D01*
X744060Y392924D01*
X743256D01*
X742854Y392523D01*
Y392121D01*
X743256Y391719D01*
X744461D01*
X745265Y390513D02*
Y390915D01*
X745667D01*
Y390513D01*
X745265D01*
X747274Y392523D02*
X747676Y392924D01*
X748480D01*
X748881Y392523D01*
Y390915D01*
X748480Y390513D01*
X747676D01*
X747274Y390915D01*
Y392523D01*
X749685D02*
X750087Y392924D01*
X750890D01*
X751292Y392523D01*
Y390915D01*
X750890Y390513D01*
X750087D01*
X749685Y390915D01*
Y392523D01*
X752096Y390513D02*
Y392121D01*
X752497D01*
X752899Y391719D01*
Y390513D01*
Y391719D01*
X753301Y392121D01*
X753703Y391719D01*
Y390513D01*
X754506D02*
X755310D01*
X754908D01*
Y392121D01*
X754506D01*
X756515Y390513D02*
X757319D01*
X756917D01*
Y392924D01*
X756515D01*
X740444Y385690D02*
X741247D01*
X740845D01*
Y388101D01*
X740444Y387699D01*
X742453Y385690D02*
Y386092D01*
X742854D01*
Y385690D01*
X742453D01*
X744461Y387699D02*
X744863Y388101D01*
X745667D01*
X746069Y387699D01*
Y387298D01*
X745667Y386896D01*
X745265D01*
X745667D01*
X746069Y386494D01*
Y386092D01*
X745667Y385690D01*
X744863D01*
X744461Y386092D01*
X746872Y387699D02*
X747274Y388101D01*
X748078D01*
X748480Y387699D01*
Y387298D01*
X748078Y386896D01*
X748480Y386494D01*
Y386092D01*
X748078Y385690D01*
X747274D01*
X746872Y386092D01*
Y386494D01*
X747274Y386896D01*
X746872Y387298D01*
Y387699D01*
X747274Y386896D02*
X748078D01*
X749283Y385690D02*
Y387298D01*
X749685D01*
X750087Y386896D01*
Y385690D01*
Y386896D01*
X750488Y387298D01*
X750890Y386896D01*
Y385690D01*
X751694D02*
X752497D01*
X752096D01*
Y387298D01*
X751694D01*
X753703Y385690D02*
X754506D01*
X754105D01*
Y388101D01*
X753703D01*
X740444Y382876D02*
X740845Y383278D01*
X741649D01*
X742051Y382876D01*
Y381269D01*
X741649Y380867D01*
X740845D01*
X740444Y381269D01*
Y382876D01*
X742854Y380867D02*
Y381269D01*
X743256D01*
Y380867D01*
X742854D01*
X744863Y383278D02*
X746470D01*
Y382876D01*
X744863Y381269D01*
Y380867D01*
X747274Y381269D02*
X747676Y380867D01*
X748480D01*
X748881Y381269D01*
Y382876D01*
X748480Y383278D01*
X747676D01*
X747274Y382876D01*
Y382474D01*
X747676Y382073D01*
X748881D01*
X749685Y380867D02*
Y382474D01*
X750087D01*
X750488Y382073D01*
Y380867D01*
Y382073D01*
X750890Y382474D01*
X751292Y382073D01*
Y380867D01*
X752096D02*
X752899D01*
X752497D01*
Y382474D01*
X752096D01*
X754105Y380867D02*
X754908D01*
X754506D01*
Y383278D01*
X754105D01*
X740444Y376044D02*
X741247D01*
X740845D01*
Y378455D01*
X740444Y378053D01*
X742453Y376044D02*
Y376446D01*
X742854D01*
Y376044D01*
X742453D01*
X744461Y378053D02*
X744863Y378455D01*
X745667D01*
X746069Y378053D01*
Y376446D01*
X745667Y376044D01*
X744863D01*
X744461Y376446D01*
Y378053D01*
X746872D02*
X747274Y378455D01*
X748078D01*
X748480Y378053D01*
Y376446D01*
X748078Y376044D01*
X747274D01*
X746872Y376446D01*
Y378053D01*
X749283Y376044D02*
Y377652D01*
X749685D01*
X750087Y377250D01*
Y376044D01*
Y377250D01*
X750488Y377652D01*
X750890Y377250D01*
Y376044D01*
X751694D02*
X752497D01*
X752096D01*
Y377652D01*
X751694D01*
X753703Y376044D02*
X754506D01*
X754105D01*
Y378455D01*
X753703D01*
X740444Y417040D02*
X742051D01*
X741247D01*
Y414629D01*
X742854Y417040D02*
Y414629D01*
Y415834D01*
X743256Y416236D01*
X744060D01*
X744461Y415834D01*
Y414629D01*
X745265D02*
X746069D01*
X745667D01*
Y416236D01*
X745265D01*
X748881D02*
X747676D01*
X747274Y415834D01*
Y415031D01*
X747676Y414629D01*
X748881D01*
X749685D02*
Y417040D01*
Y415433D02*
X750890Y416236D01*
X749685Y415433D02*
X750890Y414629D01*
X752096D02*
Y416236D01*
X753301D01*
X753703Y415834D01*
Y414629D01*
X755712D02*
X754908D01*
X754506Y415031D01*
Y415834D01*
X754908Y416236D01*
X755712D01*
X756113Y415834D01*
Y415433D01*
X754506D01*
X756917Y414629D02*
X758122D01*
X758524Y415031D01*
X758122Y415433D01*
X757319D01*
X756917Y415834D01*
X757319Y416236D01*
X758524D01*
X759328Y414629D02*
X760533D01*
X760935Y415031D01*
X760533Y415433D01*
X759730D01*
X759328Y415834D01*
X759730Y416236D01*
X760935D01*
X716745Y406992D02*
X716343Y407394D01*
X715540D01*
X715138Y406992D01*
Y406590D01*
X715540Y406188D01*
X716343D01*
X716745Y405786D01*
Y405385D01*
X716343Y404983D01*
X715540D01*
X715138Y405385D01*
X717549Y404983D02*
Y407394D01*
X718352Y406590D01*
X719156Y407394D01*
Y404983D01*
X719960Y406188D02*
X721567D01*
X722370Y406992D02*
X722772Y407394D01*
X723576D01*
X723978Y406992D01*
Y405385D01*
X723576Y404983D01*
X722772D01*
X722370Y405385D01*
Y406992D01*
X724781D02*
X725183Y407394D01*
X725986D01*
X726388Y406992D01*
Y405385D01*
X725986Y404983D01*
X725183D01*
X724781Y405385D01*
Y406992D01*
X727192Y404983D02*
X727995D01*
X727594D01*
Y407394D01*
X727192Y406992D01*
X715138Y400160D02*
Y402570D01*
X716343D01*
X716745Y402169D01*
Y401365D01*
X716343Y400963D01*
X715138D01*
X717549Y402570D02*
Y400160D01*
X718754D01*
X719156Y400562D01*
Y400963D01*
Y401365D01*
X718754Y401767D01*
X717549D01*
X721567Y402169D02*
X721165Y402570D01*
X720361D01*
X719960Y402169D01*
Y401767D01*
X720361Y401365D01*
X721165D01*
X721567Y400963D01*
Y400562D01*
X721165Y400160D01*
X720361D01*
X719960Y400562D01*
X722370Y400160D02*
Y401767D01*
X723576D01*
X723978Y401365D01*
Y400160D01*
X716745Y397346D02*
X716343Y397747D01*
X715540D01*
X715138Y397346D01*
Y395738D01*
X715540Y395337D01*
X716343D01*
X716745Y395738D01*
X719156Y397747D02*
X717549D01*
Y396542D01*
X718352D01*
X717549D01*
Y395337D01*
X719960Y396542D02*
X721567D01*
X722370Y397346D02*
X722772Y397747D01*
X723576D01*
X723978Y397346D01*
Y395738D01*
X723576Y395337D01*
X722772D01*
X722370Y395738D01*
Y397346D01*
X724781D02*
X725183Y397747D01*
X725986D01*
X726388Y397346D01*
Y395738D01*
X725986Y395337D01*
X725183D01*
X724781Y395738D01*
Y397346D01*
X728397Y395337D02*
Y397747D01*
X727192Y396542D01*
X728799D01*
X716745Y392523D02*
X716343Y392924D01*
X715540D01*
X715138Y392523D01*
Y390915D01*
X715540Y390513D01*
X716343D01*
X716745Y390915D01*
X717951Y390513D02*
X718754D01*
X719156Y390915D01*
Y391719D01*
X718754Y392121D01*
X717951D01*
X717549Y391719D01*
Y390915D01*
X717951Y390513D01*
X719960Y392121D02*
Y390513D01*
Y391317D01*
X720361Y391719D01*
X720763Y392121D01*
X721165D01*
X723576Y390513D02*
X722772D01*
X722370Y390915D01*
Y391719D01*
X722772Y392121D01*
X723576D01*
X723978Y391719D01*
Y391317D01*
X722370D01*
X724781Y391719D02*
X726388D01*
X727192Y392523D02*
X727594Y392924D01*
X728397D01*
X728799Y392523D01*
Y390915D01*
X728397Y390513D01*
X727594D01*
X727192Y390915D01*
Y392523D01*
X730808Y390513D02*
Y392924D01*
X729603Y391719D01*
X731210D01*
X732013Y392523D02*
X732415Y392924D01*
X733219D01*
X733621Y392523D01*
Y392121D01*
X733219Y391719D01*
X732817D01*
X733219D01*
X733621Y391317D01*
Y390915D01*
X733219Y390513D01*
X732415D01*
X732013Y390915D01*
X716745Y387699D02*
X716343Y388101D01*
X715540D01*
X715138Y387699D01*
Y386092D01*
X715540Y385690D01*
X716343D01*
X716745Y386092D01*
X719156Y388101D02*
X717549D01*
Y386896D01*
X718352D01*
X717549D01*
Y385690D01*
X719960Y386896D02*
X721567D01*
X722370Y387699D02*
X722772Y388101D01*
X723576D01*
X723978Y387699D01*
Y386092D01*
X723576Y385690D01*
X722772D01*
X722370Y386092D01*
Y387699D01*
X724781D02*
X725183Y388101D01*
X725986D01*
X726388Y387699D01*
Y386092D01*
X725986Y385690D01*
X725183D01*
X724781Y386092D01*
Y387699D01*
X728397Y385690D02*
Y388101D01*
X727192Y386896D01*
X728799D01*
X715138Y380867D02*
Y383278D01*
X716343D01*
X716745Y382876D01*
Y382073D01*
X716343Y381671D01*
X715138D01*
X717549Y383278D02*
Y380867D01*
X718754D01*
X719156Y381269D01*
Y381671D01*
Y382073D01*
X718754Y382474D01*
X717549D01*
X721567Y382876D02*
X721165Y383278D01*
X720361D01*
X719960Y382876D01*
Y382474D01*
X720361Y382073D01*
X721165D01*
X721567Y381671D01*
Y381269D01*
X721165Y380867D01*
X720361D01*
X719960Y381269D01*
X722370Y380867D02*
Y382474D01*
X723576D01*
X723978Y382073D01*
Y380867D01*
X716745Y378053D02*
X716343Y378455D01*
X715540D01*
X715138Y378053D01*
Y377652D01*
X715540Y377250D01*
X716343D01*
X716745Y376848D01*
Y376446D01*
X716343Y376044D01*
X715540D01*
X715138Y376446D01*
X717549Y376044D02*
Y378455D01*
X718352Y377652D01*
X719156Y378455D01*
Y376044D01*
X719960Y377250D02*
X721567D01*
X722370Y378053D02*
X722772Y378455D01*
X723576D01*
X723978Y378053D01*
Y376446D01*
X723576Y376044D01*
X722772D01*
X722370Y376446D01*
Y378053D01*
X724781D02*
X725183Y378455D01*
X725986D01*
X726388Y378053D01*
Y376446D01*
X725986Y376044D01*
X725183D01*
X724781Y376446D01*
Y378053D01*
X727192Y376044D02*
X727995D01*
X727594D01*
Y378455D01*
X727192Y378053D01*
X715138Y414629D02*
Y417040D01*
X715942Y416236D01*
X716745Y417040D01*
Y414629D01*
X717951Y416236D02*
X718754D01*
X719156Y415834D01*
Y414629D01*
X717951D01*
X717549Y415031D01*
X717951Y415433D01*
X719156D01*
X720361Y416638D02*
Y416236D01*
X719960D01*
X720763D01*
X720361D01*
Y415031D01*
X720763Y414629D01*
X723174D02*
X722370D01*
X721969Y415031D01*
Y415834D01*
X722370Y416236D01*
X723174D01*
X723576Y415834D01*
Y415433D01*
X721969D01*
X724379Y416236D02*
Y414629D01*
Y415433D01*
X724781Y415834D01*
X725183Y416236D01*
X725585D01*
X726790Y414629D02*
X727594D01*
X727192D01*
Y416236D01*
X726790D01*
X729201D02*
X730004D01*
X730406Y415834D01*
Y414629D01*
X729201D01*
X728799Y415031D01*
X729201Y415433D01*
X730406D01*
X731210Y414629D02*
X732013D01*
X731612D01*
Y417040D01*
X731210D01*
X660501Y412217D02*
X662109D01*
X661305D01*
Y409806D01*
X663314D02*
X664118D01*
X664520Y410208D01*
Y411011D01*
X664118Y411413D01*
X663314D01*
X662912Y411011D01*
Y410208D01*
X663314Y409806D01*
X665323Y409002D02*
Y411413D01*
X666528D01*
X666930Y411011D01*
Y410208D01*
X666528Y409806D01*
X665323D01*
X671350Y412217D02*
X670546D01*
X670145Y411815D01*
Y410208D01*
X670546Y409806D01*
X671350D01*
X671752Y410208D01*
Y411815D01*
X671350Y412217D01*
X672555Y411413D02*
X673359Y409806D01*
X674162Y411413D01*
X676171Y409806D02*
X675368D01*
X674966Y410208D01*
Y411011D01*
X675368Y411413D01*
X676171D01*
X676573Y411011D01*
Y410609D01*
X674966D01*
X677377Y411413D02*
Y409806D01*
Y410609D01*
X677779Y411011D01*
X678180Y411413D01*
X678582D01*
X679788Y409806D02*
X680591D01*
X680189D01*
Y412217D01*
X679788D01*
X682198Y411413D02*
X683002D01*
X683404Y411011D01*
Y409806D01*
X682198D01*
X681797Y410208D01*
X682198Y410609D01*
X683404D01*
X684207Y411413D02*
Y410208D01*
X684609Y409806D01*
X685815D01*
Y409404D01*
X685413Y409002D01*
X685011D01*
X685815Y409806D02*
Y411413D01*
X660501Y407394D02*
X662109D01*
X661305D01*
Y404983D01*
X663314D02*
X664118D01*
X664520Y405385D01*
Y406188D01*
X664118Y406590D01*
X663314D01*
X662912Y406188D01*
Y405385D01*
X663314Y404983D01*
X665323Y404179D02*
Y406590D01*
X666528D01*
X666930Y406188D01*
Y405385D01*
X666528Y404983D01*
X665323D01*
X671752Y406992D02*
X671350Y407394D01*
X670546D01*
X670145Y406992D01*
Y406590D01*
X670546Y406188D01*
X671350D01*
X671752Y405786D01*
Y405385D01*
X671350Y404983D01*
X670546D01*
X670145Y405385D01*
X672957Y404983D02*
X673761D01*
X674162Y405385D01*
Y406188D01*
X673761Y406590D01*
X672957D01*
X672555Y406188D01*
Y405385D01*
X672957Y404983D01*
X674966D02*
X675770D01*
X675368D01*
Y407394D01*
X674966D01*
X678582D02*
Y404983D01*
X677377D01*
X676975Y405385D01*
Y406188D01*
X677377Y406590D01*
X678582D01*
X680591Y404983D02*
X679788D01*
X679386Y405385D01*
Y406188D01*
X679788Y406590D01*
X680591D01*
X680993Y406188D01*
Y405786D01*
X679386D01*
X681797Y406590D02*
Y404983D01*
Y405786D01*
X682198Y406188D01*
X682600Y406590D01*
X683002D01*
X660501Y402570D02*
X662109D01*
X661305D01*
Y400160D01*
X663314D02*
X664118D01*
X664520Y400562D01*
Y401365D01*
X664118Y401767D01*
X663314D01*
X662912Y401365D01*
Y400562D01*
X663314Y400160D01*
X665323Y399356D02*
Y401767D01*
X666528D01*
X666930Y401365D01*
Y400562D01*
X666528Y400160D01*
X665323D01*
X671752Y402169D02*
X671350Y402570D01*
X670546D01*
X670145Y402169D01*
Y401767D01*
X670546Y401365D01*
X671350D01*
X671752Y400963D01*
Y400562D01*
X671350Y400160D01*
X670546D01*
X670145Y400562D01*
X672555Y401767D02*
Y400562D01*
X672957Y400160D01*
X674162D01*
Y401767D01*
X674966D02*
Y400160D01*
Y400963D01*
X675368Y401365D01*
X675770Y401767D01*
X676171D01*
X677779Y400160D02*
Y402169D01*
Y401365D01*
X677377D01*
X678180D01*
X677779D01*
Y402169D01*
X678180Y402570D01*
X679788Y401767D02*
X680591D01*
X680993Y401365D01*
Y400160D01*
X679788D01*
X679386Y400562D01*
X679788Y400963D01*
X680993D01*
X683404Y401767D02*
X682198D01*
X681797Y401365D01*
Y400562D01*
X682198Y400160D01*
X683404D01*
X685413D02*
X684609D01*
X684207Y400562D01*
Y401365D01*
X684609Y401767D01*
X685413D01*
X685815Y401365D01*
Y400963D01*
X684207D01*
X690636Y402570D02*
X689029D01*
Y401365D01*
X689832D01*
X689029D01*
Y400160D01*
X691440D02*
X692243D01*
X691841D01*
Y401767D01*
X691440D01*
X693449Y400160D02*
Y401767D01*
X694654D01*
X695056Y401365D01*
Y400160D01*
X695859D02*
X696663D01*
X696261D01*
Y401767D01*
X695859D01*
X697868Y400160D02*
X699074D01*
X699475Y400562D01*
X699074Y400963D01*
X698270D01*
X697868Y401365D01*
X698270Y401767D01*
X699475D01*
X700279Y402570D02*
Y400160D01*
Y401365D01*
X700681Y401767D01*
X701484D01*
X701886Y401365D01*
Y400160D01*
X660501Y397747D02*
X662109D01*
X661305D01*
Y395337D01*
X663314D02*
X664118D01*
X664520Y395738D01*
Y396542D01*
X664118Y396944D01*
X663314D01*
X662912Y396542D01*
Y395738D01*
X663314Y395337D01*
X665323Y394533D02*
Y396944D01*
X666528D01*
X666930Y396542D01*
Y395738D01*
X666528Y395337D01*
X665323D01*
X670145Y397747D02*
Y395337D01*
X671752D01*
X672957Y396944D02*
X673761D01*
X674162Y396542D01*
Y395337D01*
X672957D01*
X672555Y395738D01*
X672957Y396140D01*
X674162D01*
X674966Y396944D02*
Y395738D01*
X675368Y395337D01*
X676573D01*
Y394935D01*
X676171Y394533D01*
X675770D01*
X676573Y395337D02*
Y396944D01*
X678582Y395337D02*
X677779D01*
X677377Y395738D01*
Y396542D01*
X677779Y396944D01*
X678582D01*
X678984Y396542D01*
Y396140D01*
X677377D01*
X679788Y396944D02*
Y395337D01*
Y396140D01*
X680189Y396542D01*
X680591Y396944D01*
X680993D01*
X660501Y392924D02*
Y390513D01*
X661707D01*
X662109Y390915D01*
Y392523D01*
X661707Y392924D01*
X660501D01*
X662912Y390513D02*
X663716D01*
X663314D01*
Y392121D01*
X662912D01*
X666127Y390513D02*
X665323D01*
X664921Y390915D01*
Y391719D01*
X665323Y392121D01*
X666127D01*
X666528Y391719D01*
Y391317D01*
X664921D01*
X667332Y390513D02*
X668136D01*
X667734D01*
Y392924D01*
X667332D01*
X670546Y390513D02*
X669743D01*
X669341Y390915D01*
Y391719D01*
X669743Y392121D01*
X670546D01*
X670948Y391719D01*
Y391317D01*
X669341D01*
X673359Y392121D02*
X672154D01*
X671752Y391719D01*
Y390915D01*
X672154Y390513D01*
X673359D01*
X674564Y392523D02*
Y392121D01*
X674162D01*
X674966D01*
X674564D01*
Y390915D01*
X674966Y390513D01*
X676171Y392121D02*
Y390513D01*
Y391317D01*
X676573Y391719D01*
X676975Y392121D01*
X677377D01*
X678582Y390513D02*
X679386D01*
X678984D01*
Y392121D01*
X678582D01*
X682198D02*
X680993D01*
X680591Y391719D01*
Y390915D01*
X680993Y390513D01*
X682198D01*
X685413D02*
X686216D01*
X685815D01*
Y392924D01*
X685413Y392523D01*
X660501Y388101D02*
Y385690D01*
X661707D01*
X662109Y386092D01*
Y386494D01*
X661707Y386896D01*
X660501D01*
X661707D01*
X662109Y387298D01*
Y387699D01*
X661707Y388101D01*
X660501D01*
X663314Y385690D02*
X664118D01*
X664520Y386092D01*
Y386896D01*
X664118Y387298D01*
X663314D01*
X662912Y386896D01*
Y386092D01*
X663314Y385690D01*
X665725Y387699D02*
Y387298D01*
X665323D01*
X666127D01*
X665725D01*
Y386092D01*
X666127Y385690D01*
X667734Y387699D02*
Y387298D01*
X667332D01*
X668136D01*
X667734D01*
Y386092D01*
X668136Y385690D01*
X669743D02*
X670546D01*
X670948Y386092D01*
Y386896D01*
X670546Y387298D01*
X669743D01*
X669341Y386896D01*
Y386092D01*
X669743Y385690D01*
X671752D02*
Y387298D01*
X672154D01*
X672555Y386896D01*
Y385690D01*
Y386896D01*
X672957Y387298D01*
X673359Y386896D01*
Y385690D01*
X676573Y388101D02*
Y385690D01*
X678180D01*
X679386Y387298D02*
X680189D01*
X680591Y386896D01*
Y385690D01*
X679386D01*
X678984Y386092D01*
X679386Y386494D01*
X680591D01*
X681395Y387298D02*
Y386092D01*
X681797Y385690D01*
X683002D01*
Y385289D01*
X682600Y384887D01*
X682198D01*
X683002Y385690D02*
Y387298D01*
X685011Y385690D02*
X684207D01*
X683806Y386092D01*
Y386896D01*
X684207Y387298D01*
X685011D01*
X685413Y386896D01*
Y386494D01*
X683806D01*
X686216Y387298D02*
Y385690D01*
Y386494D01*
X686618Y386896D01*
X687020Y387298D01*
X687422D01*
X660501Y383278D02*
Y380867D01*
X661707D01*
X662109Y381269D01*
Y381671D01*
X661707Y382073D01*
X660501D01*
X661707D01*
X662109Y382474D01*
Y382876D01*
X661707Y383278D01*
X660501D01*
X663314Y380867D02*
X664118D01*
X664520Y381269D01*
Y382073D01*
X664118Y382474D01*
X663314D01*
X662912Y382073D01*
Y381269D01*
X663314Y380867D01*
X665725Y382876D02*
Y382474D01*
X665323D01*
X666127D01*
X665725D01*
Y381269D01*
X666127Y380867D01*
X667734Y382876D02*
Y382474D01*
X667332D01*
X668136D01*
X667734D01*
Y381269D01*
X668136Y380867D01*
X669743D02*
X670546D01*
X670948Y381269D01*
Y382073D01*
X670546Y382474D01*
X669743D01*
X669341Y382073D01*
Y381269D01*
X669743Y380867D01*
X671752D02*
Y382474D01*
X672154D01*
X672555Y382073D01*
Y380867D01*
Y382073D01*
X672957Y382474D01*
X673359Y382073D01*
Y380867D01*
X678180Y382876D02*
X677779Y383278D01*
X676975D01*
X676573Y382876D01*
Y382474D01*
X676975Y382073D01*
X677779D01*
X678180Y381671D01*
Y381269D01*
X677779Y380867D01*
X676975D01*
X676573Y381269D01*
X678984Y382474D02*
Y381269D01*
X679386Y380867D01*
X680591D01*
Y382474D01*
X681395D02*
Y380867D01*
Y381671D01*
X681797Y382073D01*
X682198Y382474D01*
X682600D01*
X684207Y380867D02*
Y382876D01*
Y382073D01*
X683806D01*
X684609D01*
X684207D01*
Y382876D01*
X684609Y383278D01*
X686216Y382474D02*
X687020D01*
X687422Y382073D01*
Y380867D01*
X686216D01*
X685815Y381269D01*
X686216Y381671D01*
X687422D01*
X689832Y382474D02*
X688627D01*
X688225Y382073D01*
Y381269D01*
X688627Y380867D01*
X689832D01*
X691841D02*
X691038D01*
X690636Y381269D01*
Y382073D01*
X691038Y382474D01*
X691841D01*
X692243Y382073D01*
Y381671D01*
X690636D01*
X697065Y383278D02*
X695458D01*
Y382073D01*
X696261D01*
X695458D01*
Y380867D01*
X697868D02*
X698672D01*
X698270D01*
Y382474D01*
X697868D01*
X699877Y380867D02*
Y382474D01*
X701083D01*
X701484Y382073D01*
Y380867D01*
X702288D02*
X703092D01*
X702690D01*
Y382474D01*
X702288D01*
X704297Y380867D02*
X705502D01*
X705904Y381269D01*
X705502Y381671D01*
X704699D01*
X704297Y382073D01*
X704699Y382474D01*
X705904D01*
X706708Y383278D02*
Y380867D01*
Y382073D01*
X707110Y382474D01*
X707913D01*
X708315Y382073D01*
Y380867D01*
X660501Y378455D02*
Y376044D01*
X661707D01*
X662109Y376446D01*
Y376848D01*
X661707Y377250D01*
X660501D01*
X661707D01*
X662109Y377652D01*
Y378053D01*
X661707Y378455D01*
X660501D01*
X663314Y376044D02*
X664118D01*
X664520Y376446D01*
Y377250D01*
X664118Y377652D01*
X663314D01*
X662912Y377250D01*
Y376446D01*
X663314Y376044D01*
X665725Y378053D02*
Y377652D01*
X665323D01*
X666127D01*
X665725D01*
Y376446D01*
X666127Y376044D01*
X667734Y378053D02*
Y377652D01*
X667332D01*
X668136D01*
X667734D01*
Y376446D01*
X668136Y376044D01*
X669743D02*
X670546D01*
X670948Y376446D01*
Y377250D01*
X670546Y377652D01*
X669743D01*
X669341Y377250D01*
Y376446D01*
X669743Y376044D01*
X671752D02*
Y377652D01*
X672154D01*
X672555Y377250D01*
Y376044D01*
Y377250D01*
X672957Y377652D01*
X673359Y377250D01*
Y376044D01*
X678180Y378053D02*
X677779Y378455D01*
X676975D01*
X676573Y378053D01*
Y377652D01*
X676975Y377250D01*
X677779D01*
X678180Y376848D01*
Y376446D01*
X677779Y376044D01*
X676975D01*
X676573Y376446D01*
X679386Y376044D02*
X680189D01*
X680591Y376446D01*
Y377250D01*
X680189Y377652D01*
X679386D01*
X678984Y377250D01*
Y376446D01*
X679386Y376044D01*
X681395D02*
X682198D01*
X681797D01*
Y378455D01*
X681395D01*
X685011D02*
Y376044D01*
X683806D01*
X683404Y376446D01*
Y377250D01*
X683806Y377652D01*
X685011D01*
X687020Y376044D02*
X686216D01*
X685815Y376446D01*
Y377250D01*
X686216Y377652D01*
X687020D01*
X687422Y377250D01*
Y376848D01*
X685815D01*
X688225Y377652D02*
Y376044D01*
Y376848D01*
X688627Y377250D01*
X689029Y377652D01*
X689431D01*
X660501Y373632D02*
Y371221D01*
X661707D01*
X662109Y371623D01*
Y372025D01*
X661707Y372427D01*
X660501D01*
X661707D01*
X662109Y372828D01*
Y373230D01*
X661707Y373632D01*
X660501D01*
X663314Y371221D02*
X664118D01*
X664520Y371623D01*
Y372427D01*
X664118Y372828D01*
X663314D01*
X662912Y372427D01*
Y371623D01*
X663314Y371221D01*
X665725Y373230D02*
Y372828D01*
X665323D01*
X666127D01*
X665725D01*
Y371623D01*
X666127Y371221D01*
X667734Y373230D02*
Y372828D01*
X667332D01*
X668136D01*
X667734D01*
Y371623D01*
X668136Y371221D01*
X669743D02*
X670546D01*
X670948Y371623D01*
Y372427D01*
X670546Y372828D01*
X669743D01*
X669341Y372427D01*
Y371623D01*
X669743Y371221D01*
X671752D02*
Y372828D01*
X672154D01*
X672555Y372427D01*
Y371221D01*
Y372427D01*
X672957Y372828D01*
X673359Y372427D01*
Y371221D01*
X677779Y373632D02*
X676975D01*
X676573Y373230D01*
Y371623D01*
X676975Y371221D01*
X677779D01*
X678180Y371623D01*
Y373230D01*
X677779Y373632D01*
X678984Y372828D02*
X679788Y371221D01*
X680591Y372828D01*
X682600Y371221D02*
X681797D01*
X681395Y371623D01*
Y372427D01*
X681797Y372828D01*
X682600D01*
X683002Y372427D01*
Y372025D01*
X681395D01*
X683806Y372828D02*
Y371221D01*
Y372025D01*
X684207Y372427D01*
X684609Y372828D01*
X685011D01*
X686216Y371221D02*
X687020D01*
X686618D01*
Y373632D01*
X686216D01*
X688627Y372828D02*
X689431D01*
X689832Y372427D01*
Y371221D01*
X688627D01*
X688225Y371623D01*
X688627Y372025D01*
X689832D01*
X690636Y372828D02*
Y371623D01*
X691038Y371221D01*
X692243D01*
Y370819D01*
X691841Y370418D01*
X691440D01*
X692243Y371221D02*
Y372828D01*
X660501Y414629D02*
Y417040D01*
X662109Y414629D01*
Y417040D01*
X663314Y416236D02*
X664118D01*
X664520Y415834D01*
Y414629D01*
X663314D01*
X662912Y415031D01*
X663314Y415433D01*
X664520D01*
X665323Y414629D02*
Y416236D01*
X665725D01*
X666127Y415834D01*
Y414629D01*
Y415834D01*
X666528Y416236D01*
X666930Y415834D01*
Y414629D01*
X668939D02*
X668136D01*
X667734Y415031D01*
Y415834D01*
X668136Y416236D01*
X668939D01*
X669341Y415834D01*
Y415433D01*
X667734D01*
X642830Y395337D02*
X643634D01*
X643232D01*
Y397747D01*
X642830Y397346D01*
X644437Y385690D02*
X642830D01*
X644437Y387298D01*
Y387699D01*
X644035Y388101D01*
X643232D01*
X642830Y387699D01*
Y417040D02*
Y414629D01*
X644437D01*
X645643Y416236D02*
X646446D01*
X646848Y415834D01*
Y414629D01*
X645643D01*
X645241Y415031D01*
X645643Y415433D01*
X646848D01*
X647652Y416236D02*
Y415031D01*
X648053Y414629D01*
X649259D01*
Y414227D01*
X648857Y413825D01*
X648455D01*
X649259Y414629D02*
Y416236D01*
X651268Y414629D02*
X650464D01*
X650062Y415031D01*
Y415834D01*
X650464Y416236D01*
X651268D01*
X651670Y415834D01*
Y415433D01*
X650062D01*
X652473Y416236D02*
Y414629D01*
Y415433D01*
X652875Y415834D01*
X653277Y416236D01*
X653678D01*
D38*
X0Y0D02*
Y393701D01*
X393701D01*
Y0D02*
Y393701D01*
X0Y0D02*
X393701D01*
D107*
X302095Y17500D02*
X313906D01*
X308000Y11594D02*
Y23405D01*
X91094Y17500D02*
X102905D01*
X97000Y11594D02*
Y23405D01*
X1093Y41253D02*
X23534D01*
X12313Y30033D02*
Y52474D01*
X192827Y41227D02*
X224323D01*
X208575Y25479D02*
Y56975D01*
X192926Y214578D02*
X200800D01*
X196863Y210641D02*
Y218515D01*
X289595Y376000D02*
X301406D01*
X295500Y370094D02*
Y381906D01*
X91594Y376000D02*
X103405D01*
X97500Y370094D02*
Y381906D01*
X8827Y171260D02*
X12827D01*
X10827Y169260D02*
Y173260D01*
X8827Y181260D02*
X12827D01*
X10827Y179260D02*
Y183260D01*
X8827Y191260D02*
X12827D01*
X10827Y189260D02*
Y193260D01*
X8827Y201260D02*
X12827D01*
X10827Y199260D02*
Y203260D01*
X8827Y211260D02*
X12827D01*
X10827Y209260D02*
Y213260D01*
X8827Y221260D02*
X12827D01*
X10827Y219260D02*
Y223260D01*
X8827Y231260D02*
X12827D01*
X10827Y229260D02*
Y233260D01*
X8827Y241260D02*
X12827D01*
X10827Y239260D02*
Y243260D01*
X179528Y49213D02*
X183465D01*
X181496Y47244D02*
Y51181D01*
X149606Y49213D02*
X153543D01*
X151575Y47244D02*
Y51181D01*
X169685Y208189D02*
X172835D01*
X171260Y206614D02*
Y209764D01*
X179685Y208189D02*
X182835D01*
X181260Y206614D02*
Y209764D01*
X169685Y238189D02*
X172835D01*
X171260Y236614D02*
Y239764D01*
X179685Y238189D02*
X182835D01*
X181260Y236614D02*
Y239764D01*
X97480Y356299D02*
X100433D01*
X98957Y354823D02*
Y357776D01*
X92480Y356299D02*
X95433D01*
X93957Y354823D02*
Y357776D01*
X87480Y356299D02*
X90433D01*
X88957Y354823D02*
Y357776D01*
X102480Y356299D02*
X105433D01*
X103957Y354823D02*
Y357776D01*
X54134Y187165D02*
X58071D01*
X56102Y185197D02*
Y189134D01*
X54134Y177165D02*
X58071D01*
X56102Y175197D02*
Y179134D01*
X54134Y167165D02*
X58071D01*
X56102Y165197D02*
Y169134D01*
X64134Y187165D02*
X68071D01*
X66102Y185197D02*
Y189134D01*
X64134Y177165D02*
X68071D01*
X66102Y175197D02*
Y179134D01*
X64134Y167165D02*
X68071D01*
X66102Y165197D02*
Y169134D01*
X93504Y197165D02*
X97441D01*
X95472Y195197D02*
Y199134D01*
X93504Y187165D02*
X97441D01*
X95472Y185197D02*
Y189134D01*
X93504Y157165D02*
X97441D01*
X95472Y155197D02*
Y159134D01*
X93504Y167165D02*
X97441D01*
X95472Y165197D02*
Y169134D01*
X93504Y177165D02*
X97441D01*
X95472Y175197D02*
Y179134D01*
X127362Y161929D02*
X130512D01*
X128937Y160354D02*
Y163504D01*
X137362Y161929D02*
X140512D01*
X138937Y160354D02*
Y163504D01*
X127362Y191929D02*
X130512D01*
X128937Y190354D02*
Y193504D01*
X137362Y191929D02*
X140512D01*
X138937Y190354D02*
Y193504D01*
X144417Y313976D02*
X148417D01*
X146417Y311976D02*
Y315976D01*
X134417Y313976D02*
X138417D01*
X136417Y311976D02*
Y315976D01*
X124417Y313976D02*
X128417D01*
X126417Y311976D02*
Y315976D01*
X114417Y313976D02*
X118417D01*
X116417Y311976D02*
Y315976D01*
X104417Y313976D02*
X108417D01*
X106417Y311976D02*
Y315976D01*
X94417Y313976D02*
X98417D01*
X96417Y311976D02*
Y315976D01*
X84417Y313976D02*
X88417D01*
X86417Y311976D02*
Y315976D01*
X74417Y313976D02*
X78417D01*
X76417Y311976D02*
Y315976D01*
X64417Y313976D02*
X68417D01*
X66417Y311976D02*
Y315976D01*
X54417Y313976D02*
X58417D01*
X56417Y311976D02*
Y315976D01*
X44417Y313976D02*
X48417D01*
X46417Y311976D02*
Y315976D01*
X34417Y313976D02*
X38417D01*
X36417Y311976D02*
Y315976D01*
X34417Y253976D02*
X38417D01*
X36417Y251976D02*
Y255976D01*
X44417Y253976D02*
X48417D01*
X46417Y251976D02*
Y255976D01*
X54417Y253976D02*
X58417D01*
X56417Y251976D02*
Y255976D01*
X64417Y253976D02*
X68417D01*
X66417Y251976D02*
Y255976D01*
X74417Y253976D02*
X78417D01*
X76417Y251976D02*
Y255976D01*
X84417Y253976D02*
X88417D01*
X86417Y251976D02*
Y255976D01*
X94417Y253976D02*
X98417D01*
X96417Y251976D02*
Y255976D01*
X104417Y253976D02*
X108417D01*
X106417Y251976D02*
Y255976D01*
X114417Y253976D02*
X118417D01*
X116417Y251976D02*
Y255976D01*
X124417Y253976D02*
X128417D01*
X126417Y251976D02*
Y255976D01*
X134417Y253976D02*
X138417D01*
X136417Y251976D02*
Y255976D01*
X144417Y253976D02*
X148417D01*
X146417Y251976D02*
Y255976D01*
X154417Y258976D02*
X158417D01*
X156417Y256976D02*
Y260976D01*
X154417Y268976D02*
X158417D01*
X156417Y266976D02*
Y270976D01*
X154417Y278976D02*
X158417D01*
X156417Y276976D02*
Y280976D01*
X154417Y288976D02*
X158417D01*
X156417Y286976D02*
Y290976D01*
X154417Y298976D02*
X158417D01*
X156417Y296976D02*
Y300976D01*
X154417Y308976D02*
X158417D01*
X156417Y306976D02*
Y310976D01*
X34417Y263976D02*
X38417D01*
X36417Y261976D02*
Y265976D01*
X34417Y273976D02*
X38417D01*
X36417Y271976D02*
Y275976D01*
X34417Y283976D02*
X38417D01*
X36417Y281976D02*
Y285976D01*
X99417Y263976D02*
X103417D01*
X101417Y261976D02*
Y265976D01*
X109417Y263976D02*
X113417D01*
X111417Y261976D02*
Y265976D01*
X12303Y82677D02*
X23130D01*
X17717Y77264D02*
Y88090D01*
X51665Y280512D02*
X52665D01*
X52165Y280012D02*
Y281012D01*
X58555Y286417D02*
X59555D01*
X59055Y285917D02*
Y286917D01*
X69382Y284449D02*
X70382D01*
X69882Y283949D02*
Y284949D01*
X183875Y198925D02*
X184875D01*
X184375Y198425D02*
Y199425D01*
X89067Y245079D02*
X90067D01*
X89567Y244579D02*
Y245579D01*
X82177Y245079D02*
X83177D01*
X82677Y244579D02*
Y245579D01*
X133358Y264764D02*
X134358D01*
X133858Y264264D02*
Y265264D01*
X140255Y264832D02*
X141255D01*
X140755Y264332D02*
Y265332D01*
X154028Y225394D02*
X155028D01*
X154528Y224894D02*
Y225894D01*
X154028Y235236D02*
X155028D01*
X154528Y234736D02*
Y235736D01*
X112689Y220472D02*
X113689D01*
X113189Y219972D02*
Y220972D01*
X148122Y203740D02*
X149122D01*
X148622Y203240D02*
Y204240D01*
X137295Y203740D02*
X138295D01*
X137795Y203240D02*
Y204240D01*
X176665Y179134D02*
X177665D01*
X177165Y178634D02*
Y179634D01*
X168791Y159449D02*
X169791D01*
X169291Y158949D02*
Y159949D01*
X117610Y166339D02*
X118610D01*
X118110Y165839D02*
Y166839D01*
X107768Y166339D02*
X108768D01*
X108268Y165839D02*
Y166839D01*
X117610Y203740D02*
X118610D01*
X118110Y203240D02*
Y204240D01*
X107768Y203740D02*
X108768D01*
X108268Y203240D02*
Y204240D01*
X117610Y184055D02*
X118610D01*
X118110Y183555D02*
Y184555D01*
X107768Y184055D02*
X108768D01*
X108268Y183555D02*
Y184555D01*
X176665Y122047D02*
X177665D01*
X177165Y121547D02*
Y122547D01*
X166823Y122047D02*
X167823D01*
X167323Y121547D02*
Y122547D01*
X156980Y122047D02*
X157980D01*
X157480Y121547D02*
Y122547D01*
X176665Y38386D02*
X177665D01*
X177165Y37886D02*
Y38886D01*
X161902Y38386D02*
X162902D01*
X162402Y37886D02*
Y38886D01*
X102847Y28543D02*
X103847D01*
X103347Y28043D02*
Y29043D01*
X83161Y28543D02*
X84161D01*
X83661Y28043D02*
Y29043D01*
X63476Y28543D02*
X64476D01*
X63976Y28043D02*
Y29043D01*
X33949Y43307D02*
X34949D01*
X34449Y42807D02*
Y43807D01*
X33949Y53150D02*
X34949D01*
X34449Y52650D02*
Y53650D01*
X5406Y72835D02*
X6406D01*
X5906Y72335D02*
Y73335D01*
X5406Y82677D02*
X6406D01*
X5906Y82177D02*
Y83177D01*
X5406Y92520D02*
X6406D01*
X5906Y92020D02*
Y93020D01*
X102847Y122047D02*
X103847D01*
X103347Y121547D02*
Y122547D01*
X93004Y122047D02*
X94004D01*
X93504Y121547D02*
Y122547D01*
X83161Y122047D02*
X84161D01*
X83661Y121547D02*
Y122547D01*
X63476Y146653D02*
X64476D01*
X63976Y146153D02*
Y147153D01*
X53634Y146653D02*
X54634D01*
X54134Y146153D02*
Y147153D01*
X38870Y166339D02*
X39870D01*
X39370Y165839D02*
Y166839D01*
X29028Y166339D02*
X30028D01*
X29528Y165839D02*
Y166839D01*
X48713Y206693D02*
X49713D01*
X49213Y206193D02*
Y207193D01*
X48713Y215551D02*
X49713D01*
X49213Y215051D02*
Y216051D01*
X29028Y215551D02*
X30028D01*
X29528Y215051D02*
Y216051D01*
X29028Y225394D02*
X30028D01*
X29528Y224894D02*
Y225894D01*
X29028Y235236D02*
X30028D01*
X29528Y234736D02*
Y235736D01*
X9342Y274606D02*
X10343D01*
X9843Y274106D02*
Y275106D01*
X9342Y284449D02*
X10343D01*
X9843Y283949D02*
Y284949D01*
X9342Y294291D02*
X10343D01*
X9843Y293791D02*
Y294791D01*
X29028Y297244D02*
X30028D01*
X29528Y296744D02*
Y297744D01*
X38870Y297244D02*
X39870D01*
X39370Y296744D02*
Y297744D01*
X83161Y307087D02*
X84161D01*
X83661Y306587D02*
Y307587D01*
X111705Y281496D02*
X112705D01*
X112205Y280996D02*
Y281996D01*
X124500Y281496D02*
X125500D01*
X125000Y280996D02*
Y281996D01*
X137295Y289370D02*
X138295D01*
X137795Y288870D02*
Y289870D01*
X137295Y299213D02*
X138295D01*
X137795Y298713D02*
Y299713D01*
X174697Y279528D02*
X175697D01*
X175197Y279028D02*
Y280028D01*
X174697Y289370D02*
X175697D01*
X175197Y288870D02*
Y289870D01*
X174697Y298228D02*
X175697D01*
X175197Y297728D02*
Y298728D01*
X174697Y338583D02*
X175697D01*
X175197Y338083D02*
Y339083D01*
X174697Y348425D02*
X175697D01*
X175197Y347925D02*
Y348925D01*
X174697Y358268D02*
X175697D01*
X175197Y357768D02*
Y358768D01*
X89067Y333661D02*
X90067D01*
X89567Y333161D02*
Y334161D01*
X95957Y333661D02*
X96957D01*
X96457Y333161D02*
Y334161D01*
X102847Y333661D02*
X103847D01*
X103347Y333161D02*
Y334161D01*
X83161Y277559D02*
X84161D01*
X83661Y277059D02*
Y278059D01*
X90051Y284449D02*
X91051D01*
X90551Y283949D02*
Y284949D01*
X83161Y291339D02*
X84161D01*
X83661Y290839D02*
Y291839D01*
X76272Y284449D02*
X77272D01*
X76772Y283949D02*
Y284949D01*
X85130Y216535D02*
X86130D01*
X85630Y216035D02*
Y217035D01*
X67413Y206693D02*
X68413D01*
X67913Y206193D02*
Y207193D01*
X67413Y211614D02*
X68413D01*
X67913Y211114D02*
Y212114D01*
X67413Y216535D02*
X68413D01*
X67913Y216035D02*
Y217035D01*
X116626Y284449D02*
X117626D01*
X117126Y283949D02*
Y284949D01*
X106783Y284449D02*
X107783D01*
X107283Y283949D02*
Y284949D01*
X104815Y295276D02*
X105815D01*
X105315Y294776D02*
Y295776D01*
X108752Y295276D02*
X109752D01*
X109252Y294776D02*
Y295776D01*
X63203Y271313D02*
X64203D01*
X63703Y270813D02*
Y271813D01*
X70366Y264764D02*
X71366D01*
X70866Y264264D02*
Y265264D01*
X28043Y330709D02*
X29043D01*
X28543Y330209D02*
Y331209D01*
X43791Y330709D02*
X44791D01*
X44291Y330209D02*
Y331209D01*
X81193Y296260D02*
X82193D01*
X81693Y295760D02*
Y296760D01*
X85130Y297244D02*
X86130D01*
X85630Y296744D02*
Y297744D01*
X161902Y94488D02*
X162902D01*
X162402Y93988D02*
Y94988D01*
X164854Y257874D02*
X165854D01*
X165354Y257374D02*
Y258374D01*
X169776Y172244D02*
X170776D01*
X170276Y171744D02*
Y172744D01*
X80209Y221457D02*
X81209D01*
X80709Y220957D02*
Y221957D01*
X112689Y237205D02*
X113689D01*
X113189Y236705D02*
Y237705D01*
X169783Y82677D02*
X180610D01*
X175197Y77264D02*
Y88090D01*
X169783Y318898D02*
X180610D01*
X175197Y313484D02*
Y324311D01*
X12303Y318898D02*
X23130D01*
X17717Y313484D02*
Y324311D01*
X209614Y171260D02*
X213614D01*
X211614Y169260D02*
Y173260D01*
X209614Y181260D02*
X213614D01*
X211614Y179260D02*
Y183260D01*
X209614Y191260D02*
X213614D01*
X211614Y189260D02*
Y193260D01*
X209614Y201260D02*
X213614D01*
X211614Y199260D02*
Y203260D01*
X209614Y211260D02*
X213614D01*
X211614Y209260D02*
Y213260D01*
X209614Y221260D02*
X213614D01*
X211614Y219260D02*
Y223260D01*
X209614Y231260D02*
X213614D01*
X211614Y229260D02*
Y233260D01*
X209614Y241260D02*
X213614D01*
X211614Y239260D02*
Y243260D01*
X380315Y49213D02*
X384252D01*
X382283Y47244D02*
Y51181D01*
X350394Y49213D02*
X354331D01*
X352362Y47244D02*
Y51181D01*
X370472Y208189D02*
X373622D01*
X372047Y206614D02*
Y209764D01*
X380472Y208189D02*
X383622D01*
X382047Y206614D02*
Y209764D01*
X370472Y238189D02*
X373622D01*
X372047Y236614D02*
Y239764D01*
X380472Y238189D02*
X383622D01*
X382047Y236614D02*
Y239764D01*
X298268Y356299D02*
X301220D01*
X299744Y354823D02*
Y357776D01*
X293268Y356299D02*
X296220D01*
X294744Y354823D02*
Y357776D01*
X288268Y356299D02*
X291220D01*
X289744Y354823D02*
Y357776D01*
X303268Y356299D02*
X306221D01*
X304744Y354823D02*
Y357776D01*
X254921Y187165D02*
X258858D01*
X256890Y185197D02*
Y189134D01*
X254921Y177165D02*
X258858D01*
X256890Y175197D02*
Y179134D01*
X254921Y167165D02*
X258858D01*
X256890Y165197D02*
Y169134D01*
X264921Y187165D02*
X268858D01*
X266890Y185197D02*
Y189134D01*
X264921Y177165D02*
X268858D01*
X266890Y175197D02*
Y179134D01*
X264921Y167165D02*
X268858D01*
X266890Y165197D02*
Y169134D01*
X294291Y197165D02*
X298228D01*
X296260Y195197D02*
Y199134D01*
X294291Y187165D02*
X298228D01*
X296260Y185197D02*
Y189134D01*
X294291Y157165D02*
X298228D01*
X296260Y155197D02*
Y159134D01*
X294291Y167165D02*
X298228D01*
X296260Y165197D02*
Y169134D01*
X294291Y177165D02*
X298228D01*
X296260Y175197D02*
Y179134D01*
X328150Y161929D02*
X331299D01*
X329724Y160354D02*
Y163504D01*
X338150Y161929D02*
X341299D01*
X339724Y160354D02*
Y163504D01*
X328150Y191929D02*
X331299D01*
X329724Y190354D02*
Y193504D01*
X338150Y191929D02*
X341299D01*
X339724Y190354D02*
Y193504D01*
X345205Y313976D02*
X349205D01*
X347205Y311976D02*
Y315976D01*
X335205Y313976D02*
X339205D01*
X337205Y311976D02*
Y315976D01*
X325205Y313976D02*
X329205D01*
X327205Y311976D02*
Y315976D01*
X315205Y313976D02*
X319205D01*
X317205Y311976D02*
Y315976D01*
X305205Y313976D02*
X309205D01*
X307205Y311976D02*
Y315976D01*
X295205Y313976D02*
X299205D01*
X297205Y311976D02*
Y315976D01*
X285205Y313976D02*
X289205D01*
X287205Y311976D02*
Y315976D01*
X275205Y313976D02*
X279205D01*
X277205Y311976D02*
Y315976D01*
X265205Y313976D02*
X269205D01*
X267205Y311976D02*
Y315976D01*
X255205Y313976D02*
X259205D01*
X257205Y311976D02*
Y315976D01*
X245205Y313976D02*
X249205D01*
X247205Y311976D02*
Y315976D01*
X235205Y313976D02*
X239205D01*
X237205Y311976D02*
Y315976D01*
X235205Y253976D02*
X239205D01*
X237205Y251976D02*
Y255976D01*
X245205Y253976D02*
X249205D01*
X247205Y251976D02*
Y255976D01*
X255205Y253976D02*
X259205D01*
X257205Y251976D02*
Y255976D01*
X265205Y253976D02*
X269205D01*
X267205Y251976D02*
Y255976D01*
X275205Y253976D02*
X279205D01*
X277205Y251976D02*
Y255976D01*
X285205Y253976D02*
X289205D01*
X287205Y251976D02*
Y255976D01*
X295205Y253976D02*
X299205D01*
X297205Y251976D02*
Y255976D01*
X305205Y253976D02*
X309205D01*
X307205Y251976D02*
Y255976D01*
X315205Y253976D02*
X319205D01*
X317205Y251976D02*
Y255976D01*
X325205Y253976D02*
X329205D01*
X327205Y251976D02*
Y255976D01*
X335205Y253976D02*
X339205D01*
X337205Y251976D02*
Y255976D01*
X345205Y253976D02*
X349205D01*
X347205Y251976D02*
Y255976D01*
X355205Y258976D02*
X359205D01*
X357205Y256976D02*
Y260976D01*
X355205Y268976D02*
X359205D01*
X357205Y266976D02*
Y270976D01*
X355205Y278976D02*
X359205D01*
X357205Y276976D02*
Y280976D01*
X355205Y288976D02*
X359205D01*
X357205Y286976D02*
Y290976D01*
X355205Y298976D02*
X359205D01*
X357205Y296976D02*
Y300976D01*
X355205Y308976D02*
X359205D01*
X357205Y306976D02*
Y310976D01*
X235205Y263976D02*
X239205D01*
X237205Y261976D02*
Y265976D01*
X235205Y273976D02*
X239205D01*
X237205Y271976D02*
Y275976D01*
X235205Y283976D02*
X239205D01*
X237205Y281976D02*
Y285976D01*
X300205Y263976D02*
X304205D01*
X302205Y261976D02*
Y265976D01*
X310205Y263976D02*
X314205D01*
X312205Y261976D02*
Y265976D01*
X213091Y82677D02*
X223917D01*
X218504Y77264D02*
Y88090D01*
X252453Y280512D02*
X253453D01*
X252953Y280012D02*
Y281012D01*
X259343Y286417D02*
X260343D01*
X259842Y285917D02*
Y286917D01*
X270169Y284449D02*
X271169D01*
X270669Y283949D02*
Y284949D01*
X384663Y198925D02*
X385663D01*
X385163Y198425D02*
Y199425D01*
X289854Y245079D02*
X290854D01*
X290354Y244579D02*
Y245579D01*
X282965Y245079D02*
X283965D01*
X283465Y244579D02*
Y245579D01*
X334146Y264764D02*
X335146D01*
X334646Y264264D02*
Y265264D01*
X341043Y264832D02*
X342043D01*
X341543Y264332D02*
Y265332D01*
X354815Y225394D02*
X355815D01*
X355315Y224894D02*
Y225894D01*
X354815Y235236D02*
X355815D01*
X355315Y234736D02*
Y235736D01*
X313476Y220472D02*
X314476D01*
X313976Y219972D02*
Y220972D01*
X348909Y203740D02*
X349909D01*
X349410Y203240D02*
Y204240D01*
X338083Y203740D02*
X339083D01*
X338583Y203240D02*
Y204240D01*
X377453Y179134D02*
X378453D01*
X377953Y178634D02*
Y179634D01*
X369579Y159449D02*
X370579D01*
X370079Y158949D02*
Y159949D01*
X318398Y166339D02*
X319398D01*
X318898Y165839D02*
Y166839D01*
X308555Y166339D02*
X309555D01*
X309055Y165839D02*
Y166839D01*
X318398Y203740D02*
X319398D01*
X318898Y203240D02*
Y204240D01*
X308555Y203740D02*
X309555D01*
X309055Y203240D02*
Y204240D01*
X318398Y184055D02*
X319398D01*
X318898Y183555D02*
Y184555D01*
X308555Y184055D02*
X309555D01*
X309055Y183555D02*
Y184555D01*
X377453Y122047D02*
X378453D01*
X377953Y121547D02*
Y122547D01*
X367610Y122047D02*
X368610D01*
X368110Y121547D02*
Y122547D01*
X357768Y122047D02*
X358768D01*
X358268Y121547D02*
Y122547D01*
X377453Y38386D02*
X378453D01*
X377953Y37886D02*
Y38886D01*
X362689Y38386D02*
X363689D01*
X363189Y37886D02*
Y38886D01*
X303634Y28543D02*
X304634D01*
X304134Y28043D02*
Y29043D01*
X283949Y28543D02*
X284949D01*
X284449Y28043D02*
Y29043D01*
X264264Y28543D02*
X265264D01*
X264764Y28043D02*
Y29043D01*
X234736Y43307D02*
X235736D01*
X235236Y42807D02*
Y43807D01*
X234736Y53150D02*
X235736D01*
X235236Y52650D02*
Y53650D01*
X206193Y72835D02*
X207193D01*
X206693Y72335D02*
Y73335D01*
X206193Y82677D02*
X207193D01*
X206693Y82177D02*
Y83177D01*
X206193Y92520D02*
X207193D01*
X206693Y92020D02*
Y93020D01*
X303634Y122047D02*
X304634D01*
X304134Y121547D02*
Y122547D01*
X293791Y122047D02*
X294791D01*
X294291Y121547D02*
Y122547D01*
X283949Y122047D02*
X284949D01*
X284449Y121547D02*
Y122547D01*
X264264Y146653D02*
X265264D01*
X264764Y146153D02*
Y147153D01*
X254421Y146653D02*
X255421D01*
X254921Y146153D02*
Y147153D01*
X239657Y166339D02*
X240657D01*
X240158Y165839D02*
Y166839D01*
X229815Y166339D02*
X230815D01*
X230315Y165839D02*
Y166839D01*
X249500Y206693D02*
X250500D01*
X250000Y206193D02*
Y207193D01*
X249500Y215551D02*
X250500D01*
X250000Y215051D02*
Y216051D01*
X229815Y215551D02*
X230815D01*
X230315Y215051D02*
Y216051D01*
X229815Y225394D02*
X230815D01*
X230315Y224894D02*
Y225894D01*
X229815Y235236D02*
X230815D01*
X230315Y234736D02*
Y235736D01*
X210130Y274606D02*
X211130D01*
X210630Y274106D02*
Y275106D01*
X210130Y284449D02*
X211130D01*
X210630Y283949D02*
Y284949D01*
X210130Y294291D02*
X211130D01*
X210630Y293791D02*
Y294791D01*
X229815Y297244D02*
X230815D01*
X230315Y296744D02*
Y297744D01*
X239657Y297244D02*
X240657D01*
X240158Y296744D02*
Y297744D01*
X283949Y307087D02*
X284949D01*
X284449Y306587D02*
Y307587D01*
X312492Y281496D02*
X313492D01*
X312992Y280996D02*
Y281996D01*
X325287Y281496D02*
X326287D01*
X325787Y280996D02*
Y281996D01*
X338083Y289370D02*
X339083D01*
X338583Y288870D02*
Y289870D01*
X338083Y299213D02*
X339083D01*
X338583Y298713D02*
Y299713D01*
X375484Y279528D02*
X376484D01*
X375984Y279028D02*
Y280028D01*
X375484Y289370D02*
X376484D01*
X375984Y288870D02*
Y289870D01*
X375484Y298228D02*
X376484D01*
X375984Y297728D02*
Y298728D01*
X375484Y338583D02*
X376484D01*
X375984Y338083D02*
Y339083D01*
X375484Y348425D02*
X376484D01*
X375984Y347925D02*
Y348925D01*
X375484Y358268D02*
X376484D01*
X375984Y357768D02*
Y358768D01*
X289854Y333661D02*
X290854D01*
X290354Y333161D02*
Y334161D01*
X296744Y333661D02*
X297744D01*
X297244Y333161D02*
Y334161D01*
X303634Y333661D02*
X304634D01*
X304134Y333161D02*
Y334161D01*
X283949Y277559D02*
X284949D01*
X284449Y277059D02*
Y278059D01*
X290839Y284449D02*
X291839D01*
X291339Y283949D02*
Y284949D01*
X283949Y291339D02*
X284949D01*
X284449Y290839D02*
Y291839D01*
X277059Y284449D02*
X278059D01*
X277559Y283949D02*
Y284949D01*
X285917Y216535D02*
X286917D01*
X286417Y216035D02*
Y217035D01*
X268201Y206693D02*
X269201D01*
X268701Y206193D02*
Y207193D01*
X268201Y211614D02*
X269201D01*
X268701Y211114D02*
Y212114D01*
X268201Y216535D02*
X269201D01*
X268701Y216035D02*
Y217035D01*
X317413Y284449D02*
X318413D01*
X317913Y283949D02*
Y284949D01*
X307571Y284449D02*
X308571D01*
X308071Y283949D02*
Y284949D01*
X305602Y295276D02*
X306602D01*
X306102Y294776D02*
Y295776D01*
X309539Y295276D02*
X310539D01*
X310039Y294776D02*
Y295776D01*
X263990Y271313D02*
X264990D01*
X264490Y270813D02*
Y271813D01*
X271153Y264764D02*
X272153D01*
X271654Y264264D02*
Y265264D01*
X228831Y330709D02*
X229831D01*
X229331Y330209D02*
Y331209D01*
X244579Y330709D02*
X245579D01*
X245079Y330209D02*
Y331209D01*
X281980Y296260D02*
X282980D01*
X282480Y295760D02*
Y296760D01*
X285917Y297244D02*
X286917D01*
X286417Y296744D02*
Y297744D01*
X362689Y94488D02*
X363689D01*
X363189Y93988D02*
Y94988D01*
X365642Y257874D02*
X366642D01*
X366142Y257374D02*
Y258374D01*
X370563Y172244D02*
X371563D01*
X371063Y171744D02*
Y172744D01*
X280996Y221457D02*
X281996D01*
X281496Y220957D02*
Y221957D01*
X313476Y237205D02*
X314476D01*
X313976Y236705D02*
Y237705D01*
X370571Y82677D02*
X381398D01*
X375984Y77264D02*
Y88090D01*
X370571Y318898D02*
X381398D01*
X375984Y313484D02*
Y324311D01*
X213091Y318898D02*
X223917D01*
X218504Y313484D02*
Y324311D01*
D108*
X438631Y54056D02*
X462536D01*
Y18198D02*
Y54056D01*
Y18198D02*
X633858D01*
Y368810D01*
X438631D02*
X633858D01*
X438631Y54056D02*
Y368810D01*
X633858Y370015D02*
Y418246D01*
X587659Y408600D02*
X633858D01*
X587659Y403777D02*
X633858D01*
X587659Y398954D02*
X633858D01*
X587659Y394131D02*
X633858D01*
X587659Y389308D02*
X633858D01*
X587659Y384485D02*
X633858D01*
X587659Y379662D02*
X633858D01*
X587659Y374838D02*
X633858D01*
X587659Y370015D02*
X633858D01*
X587659D02*
Y418246D01*
X563559Y408600D02*
X587659D01*
X563559Y403777D02*
X587659D01*
X563559Y398954D02*
X587659D01*
X563559Y394131D02*
X587659D01*
X563559Y389308D02*
X587659D01*
X563559Y384485D02*
X587659D01*
X563559Y379662D02*
X587659D01*
X563559Y374838D02*
X587659D01*
X563559Y370015D02*
X587659D01*
X563559D02*
Y418246D01*
X536245Y408600D02*
X563559D01*
X536245Y403777D02*
X563559D01*
X536245Y398954D02*
X563559D01*
X536245Y394131D02*
X563559D01*
X536245Y389308D02*
X563559D01*
X536245Y384485D02*
X563559D01*
X536245Y379662D02*
X563559D01*
X536245Y374838D02*
X563559D01*
X536245Y370015D02*
X563559D01*
X536245D02*
Y418246D01*
X510939Y408600D02*
X536245D01*
X510939Y403777D02*
X536245D01*
X510939Y398954D02*
X536245D01*
X510939Y394131D02*
X536245D01*
X510939Y389308D02*
X536245D01*
X510939Y384485D02*
X536245D01*
X510939Y379662D02*
X536245D01*
X510939Y374838D02*
X536245D01*
X510939Y370015D02*
X536245D01*
X510939D02*
Y418246D01*
X456303Y408600D02*
X510939D01*
X456303Y403777D02*
X510939D01*
X456303Y398954D02*
X510939D01*
X456303Y394131D02*
X510939D01*
X456303Y389308D02*
X510939D01*
X456303Y384485D02*
X510939D01*
X456303Y379662D02*
X510939D01*
X456303Y374838D02*
X510939D01*
X456303Y370015D02*
X510939D01*
X456303D02*
Y418246D01*
X438631Y408600D02*
X456303D01*
X438631Y403777D02*
X456303D01*
X438631Y398954D02*
X456303D01*
X438631Y394131D02*
X456303D01*
X438631Y389308D02*
X456303D01*
X438631Y384485D02*
X456303D01*
X438631Y379662D02*
X456303D01*
X438631Y374838D02*
X456303D01*
X438631Y370015D02*
X456303D01*
X438631D02*
Y418246D01*
X633858D01*
X438631Y413423D02*
X633858D01*
X639418Y54056D02*
X663324D01*
Y18198D02*
Y54056D01*
Y18198D02*
X834646D01*
Y368810D01*
X639418D02*
X834646D01*
X639418Y54056D02*
Y368810D01*
X834646Y370015D02*
Y418246D01*
X788447Y408600D02*
X834646D01*
X788447Y403777D02*
X834646D01*
X788447Y398954D02*
X834646D01*
X788447Y394131D02*
X834646D01*
X788447Y389308D02*
X834646D01*
X788447Y384485D02*
X834646D01*
X788447Y379662D02*
X834646D01*
X788447Y374838D02*
X834646D01*
X788447Y370015D02*
X834646D01*
X788447D02*
Y418246D01*
X764347Y408600D02*
X788447D01*
X764347Y403777D02*
X788447D01*
X764347Y398954D02*
X788447D01*
X764347Y394131D02*
X788447D01*
X764347Y389308D02*
X788447D01*
X764347Y384485D02*
X788447D01*
X764347Y379662D02*
X788447D01*
X764347Y374838D02*
X788447D01*
X764347Y370015D02*
X788447D01*
X764347D02*
Y418246D01*
X737032Y408600D02*
X764347D01*
X737032Y403777D02*
X764347D01*
X737032Y398954D02*
X764347D01*
X737032Y394131D02*
X764347D01*
X737032Y389308D02*
X764347D01*
X737032Y384485D02*
X764347D01*
X737032Y379662D02*
X764347D01*
X737032Y374838D02*
X764347D01*
X737032Y370015D02*
X764347D01*
X737032D02*
Y418246D01*
X711727Y408600D02*
X737032D01*
X711727Y403777D02*
X737032D01*
X711727Y398954D02*
X737032D01*
X711727Y394131D02*
X737032D01*
X711727Y389308D02*
X737032D01*
X711727Y384485D02*
X737032D01*
X711727Y379662D02*
X737032D01*
X711727Y374838D02*
X737032D01*
X711727Y370015D02*
X737032D01*
X711727D02*
Y418246D01*
X657090Y408600D02*
X711727D01*
X657090Y403777D02*
X711727D01*
X657090Y398954D02*
X711727D01*
X657090Y394131D02*
X711727D01*
X657090Y389308D02*
X711727D01*
X657090Y384485D02*
X711727D01*
X657090Y379662D02*
X711727D01*
X657090Y374838D02*
X711727D01*
X657090Y370015D02*
X711727D01*
X657090D02*
Y418246D01*
X639419Y408600D02*
X657090D01*
X639419Y403777D02*
X657090D01*
X639419Y398954D02*
X657090D01*
X639419Y394131D02*
X657090D01*
X639419Y389308D02*
X657090D01*
X639419Y384485D02*
X657090D01*
X639419Y379662D02*
X657090D01*
X639419Y374838D02*
X657090D01*
X639419Y370015D02*
X657090D01*
X639419D02*
Y418246D01*
X834646D01*
X639419Y413423D02*
X834646D01*
D111*
X438631Y367978D02*
X439516Y368864D01*
X438631Y365567D02*
X441928Y368864D01*
X438631Y363155D02*
X444340Y368864D01*
X438631Y360744D02*
X446751Y368864D01*
X438631Y358332D02*
X449163Y368864D01*
X438631Y355921D02*
X451574Y368864D01*
X438631Y353509D02*
X453986Y368864D01*
X438631Y351098D02*
X456397Y368864D01*
X438631Y348686D02*
X458809Y368864D01*
X438631Y346275D02*
X461220Y368864D01*
X438631Y343863D02*
X463632Y368864D01*
X438631Y341452D02*
X466043Y368864D01*
X438631Y339040D02*
X468455Y368864D01*
X438631Y336628D02*
X470866Y368864D01*
X438631Y334217D02*
X473278Y368864D01*
X438631Y331805D02*
X475690Y368864D01*
X438631Y329394D02*
X478101Y368864D01*
X438631Y326982D02*
X480513Y368864D01*
X438631Y324571D02*
X482924Y368864D01*
X438631Y322159D02*
X485336Y368864D01*
X438631Y319748D02*
X487747Y368864D01*
X438631Y317336D02*
X490159Y368864D01*
X438631Y314925D02*
X492570Y368864D01*
X438631Y312513D02*
X494982Y368864D01*
X438631Y310102D02*
X497393Y368864D01*
X438631Y307690D02*
X499805Y368864D01*
X438631Y305278D02*
X502216Y368864D01*
X438631Y302867D02*
X504628Y368864D01*
X438631Y300455D02*
X507040Y368864D01*
X438631Y298044D02*
X509451Y368864D01*
X438631Y295632D02*
X511863Y368864D01*
X438631Y293221D02*
X514274Y368864D01*
X438631Y290809D02*
X516686Y368864D01*
X438631Y288398D02*
X519097Y368864D01*
X438631Y285986D02*
X521509Y368864D01*
X438631Y283575D02*
X523920Y368864D01*
X438631Y281163D02*
X526332Y368864D01*
X438631Y278751D02*
X528743Y368864D01*
X438631Y276340D02*
X531155Y368864D01*
X438631Y273928D02*
X533567Y368864D01*
X438631Y271517D02*
X535978Y368864D01*
X438631Y269105D02*
X538390Y368864D01*
X438631Y266694D02*
X540801Y368864D01*
X438631Y264282D02*
X543213Y368864D01*
X438631Y261871D02*
X545624Y368864D01*
X438631Y259459D02*
X548036Y368864D01*
X438631Y257048D02*
X550447Y368864D01*
X438631Y254636D02*
X552859Y368864D01*
X438631Y252224D02*
X555270Y368864D01*
X438631Y249813D02*
X557682Y368864D01*
X438631Y247401D02*
X560093Y368864D01*
X438631Y244990D02*
X562505Y368864D01*
X438631Y242578D02*
X564917Y368864D01*
X438631Y240167D02*
X567328Y368864D01*
X438631Y237755D02*
X569740Y368864D01*
X438631Y235344D02*
X572151Y368864D01*
X438631Y232932D02*
X574563Y368864D01*
X438631Y230521D02*
X576974Y368864D01*
X438631Y228109D02*
X579386Y368864D01*
X438631Y225698D02*
X581797Y368864D01*
X438631Y223286D02*
X584209Y368864D01*
X438631Y220875D02*
X586620Y368864D01*
X438631Y218463D02*
X589032Y368864D01*
X438631Y216051D02*
X591443Y368864D01*
X438631Y213640D02*
X593855Y368864D01*
X438631Y211228D02*
X596267Y368864D01*
X438631Y208817D02*
X598678Y368864D01*
X438631Y206405D02*
X601090Y368864D01*
X438631Y203994D02*
X603501Y368864D01*
X438631Y201582D02*
X605913Y368864D01*
X438631Y199171D02*
X608324Y368864D01*
X438631Y196759D02*
X610736Y368864D01*
X438631Y194348D02*
X613147Y368864D01*
X438631Y191936D02*
X615559Y368864D01*
X438631Y189524D02*
X617970Y368864D01*
X438631Y187113D02*
X620382Y368864D01*
X438631Y184701D02*
X622793Y368864D01*
X438631Y182290D02*
X625205Y368864D01*
X438631Y179878D02*
X627617Y368864D01*
X438631Y177467D02*
X630028Y368864D01*
X438631Y175055D02*
X632440Y368864D01*
X438631Y172644D02*
X633858Y367871D01*
X438631Y170232D02*
X633858Y365459D01*
X438631Y167821D02*
X633858Y363048D01*
X438631Y165409D02*
X633858Y360636D01*
X438631Y162997D02*
X633858Y358225D01*
X438631Y160586D02*
X633858Y355813D01*
X438631Y158174D02*
X633858Y353402D01*
X438631Y155763D02*
X633858Y350990D01*
X438631Y153351D02*
X633858Y348579D01*
X438631Y150940D02*
X633858Y346167D01*
X438631Y148528D02*
X633858Y343756D01*
X438631Y146117D02*
X633858Y341344D01*
X438631Y143705D02*
X633858Y338932D01*
X438631Y141294D02*
X633858Y336521D01*
X438631Y138882D02*
X633858Y334109D01*
X438631Y136471D02*
X633858Y331698D01*
X438631Y134059D02*
X633858Y329286D01*
X438631Y131648D02*
X633858Y326875D01*
X438631Y129236D02*
X633858Y324463D01*
X438631Y126824D02*
X633858Y322052D01*
X438631Y124413D02*
X633858Y319640D01*
X438631Y122001D02*
X633858Y317229D01*
X438631Y119590D02*
X633858Y314817D01*
X438631Y117178D02*
X633858Y312405D01*
X438631Y114767D02*
X633858Y309994D01*
X438631Y112355D02*
X633858Y307582D01*
X438631Y109944D02*
X633858Y305171D01*
X438631Y107532D02*
X633858Y302759D01*
X438631Y105121D02*
X633858Y300348D01*
X438631Y102709D02*
X633858Y297936D01*
X438631Y100297D02*
X633858Y295525D01*
X438631Y97886D02*
X633858Y293113D01*
X438631Y95474D02*
X633858Y290702D01*
X438631Y93063D02*
X633858Y288290D01*
X438631Y90651D02*
X633858Y285879D01*
X438631Y88240D02*
X633858Y283467D01*
X438631Y85828D02*
X633858Y281055D01*
X438631Y83417D02*
X633858Y278644D01*
X438631Y81005D02*
X633858Y276232D01*
X438631Y78594D02*
X633858Y273821D01*
X438631Y76182D02*
X633858Y271409D01*
X438631Y73770D02*
X633858Y268998D01*
X438631Y71359D02*
X633858Y266586D01*
X438631Y68947D02*
X633858Y264175D01*
X438631Y66536D02*
X633858Y261763D01*
X438631Y64124D02*
X633858Y259352D01*
X438631Y61713D02*
X633858Y256940D01*
X438631Y59301D02*
X633858Y254528D01*
X438631Y56890D02*
X633858Y252117D01*
X438631Y54478D02*
X633858Y249706D01*
X440544Y53979D02*
X633858Y247294D01*
X442955Y53979D02*
X633858Y244882D01*
X445367Y53979D02*
X633858Y242471D01*
X447778Y53979D02*
X633858Y240059D01*
X450190Y53979D02*
X633858Y237648D01*
X452601Y53979D02*
X633858Y235236D01*
X455013Y53979D02*
X633858Y232825D01*
X457424Y53979D02*
X633858Y230413D01*
X459836Y53979D02*
X633858Y228002D01*
X462247Y53979D02*
X633858Y225590D01*
X462536Y51857D02*
X633858Y223179D01*
X462536Y49445D02*
X633858Y220767D01*
X462536Y47034D02*
X633858Y218355D01*
X462536Y44622D02*
X633858Y215944D01*
X462536Y42211D02*
X633858Y213532D01*
X462536Y39799D02*
X633858Y211121D01*
X462536Y37387D02*
X633858Y208709D01*
X462536Y34976D02*
X633858Y206298D01*
X462536Y32564D02*
X633858Y203886D01*
X462536Y30153D02*
X633858Y201475D01*
X462536Y27741D02*
X633858Y199063D01*
X462536Y25330D02*
X633858Y196652D01*
X462536Y22918D02*
X633858Y194240D01*
X462536Y20507D02*
X633858Y191829D01*
X462585Y18144D02*
X633858Y189417D01*
X464996Y18144D02*
X633858Y187005D01*
X467408Y18144D02*
X633858Y184594D01*
X469819Y18144D02*
X633858Y182182D01*
X472231Y18144D02*
X633858Y179771D01*
X474643Y18144D02*
X633858Y177359D01*
X477054Y18144D02*
X633858Y174948D01*
X479466Y18144D02*
X633858Y172536D01*
X481877Y18144D02*
X633858Y170125D01*
X484289Y18144D02*
X633858Y167713D01*
X486700Y18144D02*
X633858Y165302D01*
X489112Y18144D02*
X633858Y162890D01*
X491523Y18144D02*
X633858Y160478D01*
X493935Y18144D02*
X633858Y158067D01*
X496346Y18144D02*
X633858Y155655D01*
X498758Y18144D02*
X633858Y153244D01*
X501169Y18144D02*
X633858Y150832D01*
X503581Y18144D02*
X633858Y148421D01*
X505993Y18144D02*
X633858Y146009D01*
X508404Y18144D02*
X633858Y143598D01*
X510816Y18144D02*
X633858Y141186D01*
X513227Y18144D02*
X633858Y138775D01*
X515639Y18144D02*
X633858Y136363D01*
X518050Y18144D02*
X633858Y133951D01*
X520462Y18144D02*
X633858Y131540D01*
X522873Y18144D02*
X633858Y129129D01*
X525285Y18144D02*
X633858Y126717D01*
X527696Y18144D02*
X633858Y124305D01*
X530108Y18144D02*
X633858Y121894D01*
X532519Y18144D02*
X633858Y119482D01*
X534931Y18144D02*
X633858Y117071D01*
X537343Y18144D02*
X633858Y114659D01*
X539754Y18144D02*
X633858Y112248D01*
X542166Y18144D02*
X633858Y109836D01*
X544577Y18144D02*
X633858Y107425D01*
X546989Y18144D02*
X633858Y105013D01*
X549400Y18144D02*
X633858Y102602D01*
X551812Y18144D02*
X633858Y100190D01*
X554223Y18144D02*
X633858Y97778D01*
X556635Y18144D02*
X633858Y95367D01*
X559046Y18144D02*
X633858Y92955D01*
X561458Y18144D02*
X633858Y90544D01*
X563869Y18144D02*
X633858Y88132D01*
X566281Y18144D02*
X633858Y85721D01*
X568693Y18144D02*
X633858Y83309D01*
X571104Y18144D02*
X633858Y80898D01*
X573516Y18144D02*
X633858Y78486D01*
X575927Y18144D02*
X633858Y76075D01*
X578339Y18144D02*
X633858Y73663D01*
X580750Y18144D02*
X633858Y71251D01*
X583162Y18144D02*
X633858Y68840D01*
X585573Y18144D02*
X633858Y66428D01*
X587985Y18144D02*
X633858Y64017D01*
X590396Y18144D02*
X633858Y61605D01*
X592808Y18144D02*
X633858Y59194D01*
X595220Y18144D02*
X633858Y56782D01*
X597631Y18144D02*
X633858Y54371D01*
X600043Y18144D02*
X633858Y51959D01*
X602454Y18144D02*
X633858Y49548D01*
X604866Y18144D02*
X633858Y47136D01*
X607277Y18144D02*
X633858Y44725D01*
X609689Y18144D02*
X633858Y42313D01*
X612100Y18144D02*
X633858Y39902D01*
X614512Y18144D02*
X633858Y37490D01*
X616923Y18144D02*
X633858Y35078D01*
X619335Y18144D02*
X633858Y32667D01*
X621746Y18144D02*
X633858Y30255D01*
X624158Y18144D02*
X633858Y27844D01*
X626570Y18144D02*
X633858Y25432D01*
X628981Y18144D02*
X633858Y23021D01*
X631393Y18144D02*
X633858Y20609D01*
X587659Y413044D02*
X588039Y413423D01*
X587659Y410632D02*
X590450Y413423D01*
X588039Y408600D02*
X592862Y413423D01*
X590450Y408600D02*
X595274Y413423D01*
X592862Y408600D02*
X597685Y413423D01*
X595274Y408600D02*
X600097Y413423D01*
X597685Y408600D02*
X602508Y413423D01*
X600097Y408600D02*
X604920Y413423D01*
X602508Y408600D02*
X607331Y413423D01*
X604920Y408600D02*
X609743Y413423D01*
X607331Y408600D02*
X612154Y413423D01*
X609743Y408600D02*
X614566Y413423D01*
X612154Y408600D02*
X616977Y413423D01*
X614566Y408600D02*
X619389Y413423D01*
X616977Y408600D02*
X621801Y413423D01*
X619389Y408600D02*
X624212Y413423D01*
X621801Y408600D02*
X626624Y413423D01*
X624212Y408600D02*
X629035Y413423D01*
X626624Y408600D02*
X631447Y413423D01*
X629035Y408600D02*
X633858Y413423D01*
X631447Y408600D02*
X633858Y411012D01*
X587659Y408220D02*
X588039Y408600D01*
X587659Y405809D02*
X590450Y408600D01*
X588039Y403777D02*
X592862Y408600D01*
X590450Y403777D02*
X595274Y408600D01*
X592862Y403777D02*
X597685Y408600D01*
X595274Y403777D02*
X600097Y408600D01*
X597685Y403777D02*
X602508Y408600D01*
X600097Y403777D02*
X604920Y408600D01*
X602508Y403777D02*
X607331Y408600D01*
X604920Y403777D02*
X609743Y408600D01*
X607331Y403777D02*
X612154Y408600D01*
X609743Y403777D02*
X614566Y408600D01*
X612154Y403777D02*
X616977Y408600D01*
X614566Y403777D02*
X619389Y408600D01*
X616977Y403777D02*
X621801Y408600D01*
X619389Y403777D02*
X624212Y408600D01*
X621801Y403777D02*
X626624Y408600D01*
X624212Y403777D02*
X629035Y408600D01*
X626624Y403777D02*
X631447Y408600D01*
X629035Y403777D02*
X633858Y408600D01*
X631447Y403777D02*
X633858Y406188D01*
X587659Y403397D02*
X588039Y403777D01*
X587659Y400986D02*
X590450Y403777D01*
X588039Y398954D02*
X592862Y403777D01*
X590450Y398954D02*
X595274Y403777D01*
X592862Y398954D02*
X597685Y403777D01*
X595274Y398954D02*
X600097Y403777D01*
X597685Y398954D02*
X602508Y403777D01*
X600097Y398954D02*
X604920Y403777D01*
X602508Y398954D02*
X607331Y403777D01*
X604920Y398954D02*
X609743Y403777D01*
X607331Y398954D02*
X612154Y403777D01*
X609743Y398954D02*
X614566Y403777D01*
X612154Y398954D02*
X616977Y403777D01*
X614566Y398954D02*
X619389Y403777D01*
X616977Y398954D02*
X621801Y403777D01*
X619389Y398954D02*
X624212Y403777D01*
X621801Y398954D02*
X626624Y403777D01*
X624212Y398954D02*
X629035Y403777D01*
X626624Y398954D02*
X631447Y403777D01*
X629035Y398954D02*
X633858Y403777D01*
X631447Y398954D02*
X633858Y401366D01*
X587659Y398574D02*
X588039Y398954D01*
X587659Y396163D02*
X590450Y398954D01*
X588039Y394131D02*
X592862Y398954D01*
X590450Y394131D02*
X595274Y398954D01*
X592862Y394131D02*
X597685Y398954D01*
X595274Y394131D02*
X600097Y398954D01*
X597685Y394131D02*
X602508Y398954D01*
X600097Y394131D02*
X604920Y398954D01*
X602508Y394131D02*
X607331Y398954D01*
X604920Y394131D02*
X609743Y398954D01*
X607331Y394131D02*
X612154Y398954D01*
X609743Y394131D02*
X614566Y398954D01*
X612154Y394131D02*
X616977Y398954D01*
X614566Y394131D02*
X619389Y398954D01*
X616977Y394131D02*
X621801Y398954D01*
X619389Y394131D02*
X624212Y398954D01*
X621801Y394131D02*
X626624Y398954D01*
X624212Y394131D02*
X629035Y398954D01*
X626624Y394131D02*
X631447Y398954D01*
X629035Y394131D02*
X633858Y398954D01*
X631447Y394131D02*
X633858Y396542D01*
X587659Y393751D02*
X588039Y394131D01*
X587659Y391340D02*
X590450Y394131D01*
X588039Y389308D02*
X592862Y394131D01*
X590450Y389308D02*
X595274Y394131D01*
X592862Y389308D02*
X597685Y394131D01*
X595274Y389308D02*
X600097Y394131D01*
X597685Y389308D02*
X602508Y394131D01*
X600097Y389308D02*
X604920Y394131D01*
X602508Y389308D02*
X607331Y394131D01*
X604920Y389308D02*
X609743Y394131D01*
X607331Y389308D02*
X612154Y394131D01*
X609743Y389308D02*
X614566Y394131D01*
X612154Y389308D02*
X616977Y394131D01*
X614566Y389308D02*
X619389Y394131D01*
X616977Y389308D02*
X621801Y394131D01*
X619389Y389308D02*
X624212Y394131D01*
X621801Y389308D02*
X626624Y394131D01*
X624212Y389308D02*
X629035Y394131D01*
X626624Y389308D02*
X631447Y394131D01*
X629035Y389308D02*
X633858Y394131D01*
X631447Y389308D02*
X633858Y391719D01*
X587659Y388928D02*
X588039Y389308D01*
X587659Y386517D02*
X590450Y389308D01*
X588039Y384485D02*
X592862Y389308D01*
X590450Y384485D02*
X595274Y389308D01*
X592862Y384485D02*
X597685Y389308D01*
X595274Y384485D02*
X600097Y389308D01*
X597685Y384485D02*
X602508Y389308D01*
X600097Y384485D02*
X604920Y389308D01*
X602508Y384485D02*
X607331Y389308D01*
X604920Y384485D02*
X609743Y389308D01*
X607331Y384485D02*
X612154Y389308D01*
X609743Y384485D02*
X614566Y389308D01*
X612154Y384485D02*
X616977Y389308D01*
X614566Y384485D02*
X619389Y389308D01*
X616977Y384485D02*
X621801Y389308D01*
X619389Y384485D02*
X624212Y389308D01*
X621801Y384485D02*
X626624Y389308D01*
X624212Y384485D02*
X629035Y389308D01*
X626624Y384485D02*
X631447Y389308D01*
X629035Y384485D02*
X633858Y389308D01*
X631447Y384485D02*
X633858Y386896D01*
X587659Y384105D02*
X588039Y384485D01*
X587659Y381694D02*
X590450Y384485D01*
X588039Y379662D02*
X592862Y384485D01*
X590450Y379662D02*
X595274Y384485D01*
X592862Y379662D02*
X597685Y384485D01*
X595274Y379662D02*
X600097Y384485D01*
X597685Y379662D02*
X602508Y384485D01*
X600097Y379662D02*
X604920Y384485D01*
X602508Y379662D02*
X607331Y384485D01*
X604920Y379662D02*
X609743Y384485D01*
X607331Y379662D02*
X612154Y384485D01*
X609743Y379662D02*
X614566Y384485D01*
X612154Y379662D02*
X616977Y384485D01*
X614566Y379662D02*
X619389Y384485D01*
X616977Y379662D02*
X621801Y384485D01*
X619389Y379662D02*
X624212Y384485D01*
X621801Y379662D02*
X626624Y384485D01*
X624212Y379662D02*
X629035Y384485D01*
X626624Y379662D02*
X631447Y384485D01*
X629035Y379662D02*
X633858Y384485D01*
X631447Y379662D02*
X633858Y382073D01*
X587659Y379282D02*
X588039Y379662D01*
X587659Y376870D02*
X590450Y379662D01*
X588039Y374838D02*
X592862Y379662D01*
X590450Y374838D02*
X595274Y379662D01*
X592862Y374838D02*
X597685Y379662D01*
X595274Y374838D02*
X600097Y379662D01*
X597685Y374838D02*
X602508Y379662D01*
X600097Y374838D02*
X604920Y379662D01*
X602508Y374838D02*
X607331Y379662D01*
X604920Y374838D02*
X609743Y379662D01*
X607331Y374838D02*
X612154Y379662D01*
X609743Y374838D02*
X614566Y379662D01*
X612154Y374838D02*
X616977Y379662D01*
X614566Y374838D02*
X619389Y379662D01*
X616977Y374838D02*
X621801Y379662D01*
X619389Y374838D02*
X624212Y379662D01*
X621801Y374838D02*
X626624Y379662D01*
X624212Y374838D02*
X629035Y379662D01*
X626624Y374838D02*
X631447Y379662D01*
X629035Y374838D02*
X633858Y379662D01*
X631447Y374838D02*
X633858Y377250D01*
X587659Y374459D02*
X588039Y374838D01*
X587659Y372047D02*
X590450Y374838D01*
X588039Y370015D02*
X592862Y374838D01*
X590450Y370015D02*
X595274Y374838D01*
X592862Y370015D02*
X597685Y374838D01*
X595274Y370015D02*
X600097Y374838D01*
X597685Y370015D02*
X602508Y374838D01*
X600097Y370015D02*
X604920Y374838D01*
X602508Y370015D02*
X607331Y374838D01*
X604920Y370015D02*
X609743Y374838D01*
X607331Y370015D02*
X612154Y374838D01*
X609743Y370015D02*
X614566Y374838D01*
X612154Y370015D02*
X616977Y374838D01*
X614566Y370015D02*
X619389Y374838D01*
X616977Y370015D02*
X621801Y374838D01*
X619389Y370015D02*
X624212Y374838D01*
X621801Y370015D02*
X626624Y374838D01*
X624212Y370015D02*
X629035Y374838D01*
X626624Y370015D02*
X631447Y374838D01*
X629035Y370015D02*
X633858Y374838D01*
X631447Y370015D02*
X633858Y372427D01*
X639418Y367978D02*
X640304Y368864D01*
X639418Y365567D02*
X642715Y368864D01*
X639418Y363155D02*
X645127Y368864D01*
X639418Y360744D02*
X647539Y368864D01*
X639418Y358332D02*
X649950Y368864D01*
X639418Y355921D02*
X652362Y368864D01*
X639418Y353509D02*
X654773Y368864D01*
X639418Y351098D02*
X657185Y368864D01*
X639418Y348686D02*
X659596Y368864D01*
X639418Y346275D02*
X662008Y368864D01*
X639418Y343863D02*
X664419Y368864D01*
X639418Y341452D02*
X666831Y368864D01*
X639418Y339040D02*
X669242Y368864D01*
X639418Y336628D02*
X671654Y368864D01*
X639418Y334217D02*
X674065Y368864D01*
X639418Y331805D02*
X676477Y368864D01*
X639418Y329394D02*
X678889Y368864D01*
X639418Y326982D02*
X681300Y368864D01*
X639418Y324571D02*
X683712Y368864D01*
X639418Y322159D02*
X686123Y368864D01*
X639418Y319748D02*
X688535Y368864D01*
X639418Y317336D02*
X690946Y368864D01*
X639418Y314925D02*
X693358Y368864D01*
X639418Y312513D02*
X695769Y368864D01*
X639418Y310102D02*
X698181Y368864D01*
X639418Y307690D02*
X700592Y368864D01*
X639418Y305278D02*
X703004Y368864D01*
X639418Y302867D02*
X705415Y368864D01*
X639418Y300455D02*
X707827Y368864D01*
X639418Y298044D02*
X710239Y368864D01*
X639418Y295632D02*
X712650Y368864D01*
X639418Y293221D02*
X715062Y368864D01*
X639418Y290809D02*
X717473Y368864D01*
X639418Y288398D02*
X719885Y368864D01*
X639418Y285986D02*
X722296Y368864D01*
X639418Y283575D02*
X724708Y368864D01*
X639418Y281163D02*
X727119Y368864D01*
X639418Y278751D02*
X729531Y368864D01*
X639418Y276340D02*
X731942Y368864D01*
X639418Y273928D02*
X734354Y368864D01*
X639418Y271517D02*
X736765Y368864D01*
X639418Y269105D02*
X739177Y368864D01*
X639418Y266694D02*
X741588Y368864D01*
X639418Y264282D02*
X744000Y368864D01*
X639418Y261871D02*
X746412Y368864D01*
X639418Y259459D02*
X748823Y368864D01*
X639418Y257048D02*
X751235Y368864D01*
X639418Y254636D02*
X753646Y368864D01*
X639418Y252224D02*
X756058Y368864D01*
X639418Y249813D02*
X758469Y368864D01*
X639418Y247401D02*
X760881Y368864D01*
X639418Y244990D02*
X763292Y368864D01*
X639418Y242578D02*
X765704Y368864D01*
X639418Y240167D02*
X768116Y368864D01*
X639418Y237755D02*
X770527Y368864D01*
X639418Y235344D02*
X772939Y368864D01*
X639418Y232932D02*
X775350Y368864D01*
X639418Y230521D02*
X777762Y368864D01*
X639418Y228109D02*
X780173Y368864D01*
X639418Y225698D02*
X782585Y368864D01*
X639418Y223286D02*
X784996Y368864D01*
X639418Y220875D02*
X787408Y368864D01*
X639418Y218463D02*
X789819Y368864D01*
X639418Y216051D02*
X792231Y368864D01*
X639418Y213640D02*
X794642Y368864D01*
X639418Y211228D02*
X797054Y368864D01*
X639418Y208817D02*
X799466Y368864D01*
X639418Y206405D02*
X801877Y368864D01*
X639418Y203994D02*
X804289Y368864D01*
X639418Y201582D02*
X806700Y368864D01*
X639418Y199171D02*
X809112Y368864D01*
X639418Y196759D02*
X811523Y368864D01*
X639418Y194348D02*
X813935Y368864D01*
X639418Y191936D02*
X816346Y368864D01*
X639418Y189524D02*
X818758Y368864D01*
X639418Y187113D02*
X821169Y368864D01*
X639418Y184701D02*
X823581Y368864D01*
X639418Y182290D02*
X825992Y368864D01*
X639418Y179878D02*
X828404Y368864D01*
X639418Y177467D02*
X830816Y368864D01*
X639418Y175055D02*
X833227Y368864D01*
X639418Y172644D02*
X834646Y367871D01*
X639418Y170232D02*
X834646Y365459D01*
X639418Y167821D02*
X834646Y363048D01*
X639418Y165409D02*
X834646Y360636D01*
X639418Y162997D02*
X834646Y358225D01*
X639418Y160586D02*
X834646Y355813D01*
X639418Y158174D02*
X834646Y353402D01*
X639418Y155763D02*
X834646Y350990D01*
X639418Y153351D02*
X834646Y348579D01*
X639418Y150940D02*
X834646Y346167D01*
X639418Y148528D02*
X834646Y343756D01*
X639418Y146117D02*
X834646Y341344D01*
X639418Y143705D02*
X834646Y338932D01*
X639418Y141294D02*
X834646Y336521D01*
X639418Y138882D02*
X834646Y334109D01*
X639418Y136471D02*
X834646Y331698D01*
X639418Y134059D02*
X834646Y329286D01*
X639418Y131648D02*
X834646Y326875D01*
X639418Y129236D02*
X834646Y324463D01*
X639418Y126824D02*
X834646Y322052D01*
X639418Y124413D02*
X834646Y319640D01*
X639418Y122001D02*
X834646Y317229D01*
X639418Y119590D02*
X834646Y314817D01*
X639418Y117178D02*
X834646Y312405D01*
X639418Y114767D02*
X834646Y309994D01*
X639418Y112355D02*
X834646Y307582D01*
X639418Y109944D02*
X834646Y305171D01*
X639418Y107532D02*
X834646Y302759D01*
X639418Y105121D02*
X834646Y300348D01*
X639418Y102709D02*
X834646Y297936D01*
X639418Y100297D02*
X834646Y295525D01*
X639418Y97886D02*
X834646Y293113D01*
X639418Y95474D02*
X834646Y290702D01*
X639418Y93063D02*
X834646Y288290D01*
X639418Y90651D02*
X834646Y285879D01*
X639418Y88240D02*
X834646Y283467D01*
X639418Y85828D02*
X834646Y281055D01*
X639418Y83417D02*
X834646Y278644D01*
X639418Y81005D02*
X834646Y276232D01*
X639418Y78594D02*
X834646Y273821D01*
X639418Y76182D02*
X834646Y271409D01*
X639418Y73770D02*
X834646Y268998D01*
X639418Y71359D02*
X834646Y266586D01*
X639418Y68947D02*
X834646Y264175D01*
X639418Y66536D02*
X834646Y261763D01*
X639418Y64124D02*
X834646Y259352D01*
X639418Y61713D02*
X834646Y256940D01*
X639418Y59301D02*
X834646Y254528D01*
X639418Y56890D02*
X834646Y252117D01*
X639418Y54478D02*
X834646Y249706D01*
X641331Y53979D02*
X834646Y247294D01*
X643742Y53979D02*
X834646Y244882D01*
X646154Y53979D02*
X834646Y242471D01*
X648565Y53979D02*
X834646Y240059D01*
X650977Y53979D02*
X834646Y237648D01*
X653389Y53979D02*
X834646Y235236D01*
X655800Y53979D02*
X834646Y232825D01*
X658212Y53979D02*
X834646Y230413D01*
X660623Y53979D02*
X834646Y228002D01*
X663035Y53979D02*
X834646Y225590D01*
X663324Y51857D02*
X834646Y223179D01*
X663324Y49445D02*
X834646Y220767D01*
X663324Y47034D02*
X834646Y218355D01*
X663324Y44622D02*
X834646Y215944D01*
X663324Y42211D02*
X834646Y213532D01*
X663324Y39799D02*
X834646Y211121D01*
X663324Y37387D02*
X834646Y208709D01*
X663324Y34976D02*
X834646Y206298D01*
X663324Y32564D02*
X834646Y203886D01*
X663324Y30153D02*
X834646Y201475D01*
X663324Y27741D02*
X834646Y199063D01*
X663324Y25330D02*
X834646Y196652D01*
X663324Y22918D02*
X834646Y194240D01*
X663324Y20507D02*
X834646Y191829D01*
X663372Y18144D02*
X834646Y189417D01*
X665784Y18144D02*
X834646Y187005D01*
X668195Y18144D02*
X834646Y184594D01*
X670607Y18144D02*
X834646Y182182D01*
X673018Y18144D02*
X834646Y179771D01*
X675430Y18144D02*
X834646Y177359D01*
X677842Y18144D02*
X834646Y174948D01*
X680253Y18144D02*
X834646Y172536D01*
X682664Y18144D02*
X834646Y170125D01*
X685076Y18144D02*
X834646Y167713D01*
X687488Y18144D02*
X834646Y165302D01*
X689899Y18144D02*
X834646Y162890D01*
X692311Y18144D02*
X834646Y160478D01*
X694722Y18144D02*
X834646Y158067D01*
X697134Y18144D02*
X834646Y155655D01*
X699545Y18144D02*
X834646Y153244D01*
X701957Y18144D02*
X834646Y150832D01*
X704368Y18144D02*
X834646Y148421D01*
X706780Y18144D02*
X834646Y146009D01*
X709192Y18144D02*
X834646Y143598D01*
X711603Y18144D02*
X834646Y141186D01*
X714015Y18144D02*
X834646Y138775D01*
X716426Y18144D02*
X834646Y136363D01*
X718838Y18144D02*
X834646Y133951D01*
X721249Y18144D02*
X834646Y131540D01*
X723661Y18144D02*
X834646Y129129D01*
X726072Y18144D02*
X834646Y126717D01*
X728484Y18144D02*
X834646Y124305D01*
X730895Y18144D02*
X834646Y121894D01*
X733307Y18144D02*
X834646Y119482D01*
X735718Y18144D02*
X834646Y117071D01*
X738130Y18144D02*
X834646Y114659D01*
X740542Y18144D02*
X834646Y112248D01*
X742953Y18144D02*
X834646Y109836D01*
X745365Y18144D02*
X834646Y107425D01*
X747776Y18144D02*
X834646Y105013D01*
X750188Y18144D02*
X834646Y102602D01*
X752599Y18144D02*
X834646Y100190D01*
X755011Y18144D02*
X834646Y97778D01*
X757422Y18144D02*
X834646Y95367D01*
X759834Y18144D02*
X834646Y92955D01*
X762245Y18144D02*
X834646Y90544D01*
X764657Y18144D02*
X834646Y88132D01*
X767068Y18144D02*
X834646Y85721D01*
X769480Y18144D02*
X834646Y83309D01*
X771891Y18144D02*
X834646Y80898D01*
X774303Y18144D02*
X834646Y78486D01*
X776715Y18144D02*
X834646Y76075D01*
X779126Y18144D02*
X834646Y73663D01*
X781538Y18144D02*
X834646Y71251D01*
X783949Y18144D02*
X834646Y68840D01*
X786361Y18144D02*
X834646Y66428D01*
X788772Y18144D02*
X834646Y64017D01*
X791184Y18144D02*
X834646Y61605D01*
X793595Y18144D02*
X834646Y59194D01*
X796007Y18144D02*
X834646Y56782D01*
X798419Y18144D02*
X834646Y54371D01*
X800830Y18144D02*
X834646Y51959D01*
X803242Y18144D02*
X834646Y49548D01*
X805653Y18144D02*
X834646Y47136D01*
X808065Y18144D02*
X834646Y44725D01*
X810476Y18144D02*
X834646Y42313D01*
X812888Y18144D02*
X834646Y39902D01*
X815299Y18144D02*
X834646Y37490D01*
X817711Y18144D02*
X834646Y35078D01*
X820122Y18144D02*
X834646Y32667D01*
X822534Y18144D02*
X834646Y30255D01*
X824945Y18144D02*
X834646Y27844D01*
X827357Y18144D02*
X834646Y25432D01*
X829768Y18144D02*
X834646Y23021D01*
X832180Y18144D02*
X834646Y20609D01*
X788447Y413044D02*
X788826Y413423D01*
X788447Y410632D02*
X791238Y413423D01*
X788826Y408600D02*
X793649Y413423D01*
X791238Y408600D02*
X796061Y413423D01*
X793649Y408600D02*
X798472Y413423D01*
X796061Y408600D02*
X800884Y413423D01*
X798472Y408600D02*
X803296Y413423D01*
X800884Y408600D02*
X805707Y413423D01*
X803296Y408600D02*
X808119Y413423D01*
X805707Y408600D02*
X810530Y413423D01*
X808119Y408600D02*
X812942Y413423D01*
X810530Y408600D02*
X815353Y413423D01*
X812942Y408600D02*
X817765Y413423D01*
X815353Y408600D02*
X820176Y413423D01*
X817765Y408600D02*
X822588Y413423D01*
X820176Y408600D02*
X825000Y413423D01*
X822588Y408600D02*
X827411Y413423D01*
X825000Y408600D02*
X829823Y413423D01*
X827411Y408600D02*
X832234Y413423D01*
X829823Y408600D02*
X834646Y413423D01*
X832234Y408600D02*
X834646Y411012D01*
X788447Y408220D02*
X788826Y408600D01*
X788447Y405809D02*
X791238Y408600D01*
X788826Y403777D02*
X793649Y408600D01*
X791238Y403777D02*
X796061Y408600D01*
X793649Y403777D02*
X798472Y408600D01*
X796061Y403777D02*
X800884Y408600D01*
X798472Y403777D02*
X803296Y408600D01*
X800884Y403777D02*
X805707Y408600D01*
X803296Y403777D02*
X808119Y408600D01*
X805707Y403777D02*
X810530Y408600D01*
X808119Y403777D02*
X812942Y408600D01*
X810530Y403777D02*
X815353Y408600D01*
X812942Y403777D02*
X817765Y408600D01*
X815353Y403777D02*
X820176Y408600D01*
X817765Y403777D02*
X822588Y408600D01*
X820176Y403777D02*
X825000Y408600D01*
X822588Y403777D02*
X827411Y408600D01*
X825000Y403777D02*
X829823Y408600D01*
X827411Y403777D02*
X832234Y408600D01*
X829823Y403777D02*
X834646Y408600D01*
X832234Y403777D02*
X834646Y406188D01*
X788447Y403397D02*
X788826Y403777D01*
X788447Y400986D02*
X791238Y403777D01*
X788826Y398954D02*
X793649Y403777D01*
X791238Y398954D02*
X796061Y403777D01*
X793649Y398954D02*
X798472Y403777D01*
X796061Y398954D02*
X800884Y403777D01*
X798472Y398954D02*
X803296Y403777D01*
X800884Y398954D02*
X805707Y403777D01*
X803296Y398954D02*
X808119Y403777D01*
X805707Y398954D02*
X810530Y403777D01*
X808119Y398954D02*
X812942Y403777D01*
X810530Y398954D02*
X815353Y403777D01*
X812942Y398954D02*
X817765Y403777D01*
X815353Y398954D02*
X820176Y403777D01*
X817765Y398954D02*
X822588Y403777D01*
X820176Y398954D02*
X825000Y403777D01*
X822588Y398954D02*
X827411Y403777D01*
X825000Y398954D02*
X829823Y403777D01*
X827411Y398954D02*
X832234Y403777D01*
X829823Y398954D02*
X834646Y403777D01*
X832234Y398954D02*
X834646Y401366D01*
X788447Y398574D02*
X788826Y398954D01*
X788447Y396163D02*
X791238Y398954D01*
X788826Y394131D02*
X793649Y398954D01*
X791238Y394131D02*
X796061Y398954D01*
X793649Y394131D02*
X798472Y398954D01*
X796061Y394131D02*
X800884Y398954D01*
X798472Y394131D02*
X803296Y398954D01*
X800884Y394131D02*
X805707Y398954D01*
X803296Y394131D02*
X808119Y398954D01*
X805707Y394131D02*
X810530Y398954D01*
X808119Y394131D02*
X812942Y398954D01*
X810530Y394131D02*
X815353Y398954D01*
X812942Y394131D02*
X817765Y398954D01*
X815353Y394131D02*
X820176Y398954D01*
X817765Y394131D02*
X822588Y398954D01*
X820176Y394131D02*
X825000Y398954D01*
X822588Y394131D02*
X827411Y398954D01*
X825000Y394131D02*
X829823Y398954D01*
X827411Y394131D02*
X832234Y398954D01*
X829823Y394131D02*
X834646Y398954D01*
X832234Y394131D02*
X834646Y396542D01*
X788447Y393751D02*
X788826Y394131D01*
X788447Y391340D02*
X791238Y394131D01*
X788826Y389308D02*
X793649Y394131D01*
X791238Y389308D02*
X796061Y394131D01*
X793649Y389308D02*
X798472Y394131D01*
X796061Y389308D02*
X800884Y394131D01*
X798472Y389308D02*
X803296Y394131D01*
X800884Y389308D02*
X805707Y394131D01*
X803296Y389308D02*
X808119Y394131D01*
X805707Y389308D02*
X810530Y394131D01*
X808119Y389308D02*
X812942Y394131D01*
X810530Y389308D02*
X815353Y394131D01*
X812942Y389308D02*
X817765Y394131D01*
X815353Y389308D02*
X820176Y394131D01*
X817765Y389308D02*
X822588Y394131D01*
X820176Y389308D02*
X825000Y394131D01*
X822588Y389308D02*
X827411Y394131D01*
X825000Y389308D02*
X829823Y394131D01*
X827411Y389308D02*
X832234Y394131D01*
X829823Y389308D02*
X834646Y394131D01*
X832234Y389308D02*
X834646Y391719D01*
X788447Y388928D02*
X788826Y389308D01*
X788447Y386517D02*
X791238Y389308D01*
X788826Y384485D02*
X793649Y389308D01*
X791238Y384485D02*
X796061Y389308D01*
X793649Y384485D02*
X798472Y389308D01*
X796061Y384485D02*
X800884Y389308D01*
X798472Y384485D02*
X803296Y389308D01*
X800884Y384485D02*
X805707Y389308D01*
X803296Y384485D02*
X808119Y389308D01*
X805707Y384485D02*
X810530Y389308D01*
X808119Y384485D02*
X812942Y389308D01*
X810530Y384485D02*
X815353Y389308D01*
X812942Y384485D02*
X817765Y389308D01*
X815353Y384485D02*
X820176Y389308D01*
X817765Y384485D02*
X822588Y389308D01*
X820176Y384485D02*
X825000Y389308D01*
X822588Y384485D02*
X827411Y389308D01*
X825000Y384485D02*
X829823Y389308D01*
X827411Y384485D02*
X832234Y389308D01*
X829823Y384485D02*
X834646Y389308D01*
X832234Y384485D02*
X834646Y386896D01*
X788447Y384105D02*
X788826Y384485D01*
X788447Y381694D02*
X791238Y384485D01*
X788826Y379662D02*
X793649Y384485D01*
X791238Y379662D02*
X796061Y384485D01*
X793649Y379662D02*
X798472Y384485D01*
X796061Y379662D02*
X800884Y384485D01*
X798472Y379662D02*
X803296Y384485D01*
X800884Y379662D02*
X805707Y384485D01*
X803296Y379662D02*
X808119Y384485D01*
X805707Y379662D02*
X810530Y384485D01*
X808119Y379662D02*
X812942Y384485D01*
X810530Y379662D02*
X815353Y384485D01*
X812942Y379662D02*
X817765Y384485D01*
X815353Y379662D02*
X820176Y384485D01*
X817765Y379662D02*
X822588Y384485D01*
X820176Y379662D02*
X825000Y384485D01*
X822588Y379662D02*
X827411Y384485D01*
X825000Y379662D02*
X829823Y384485D01*
X827411Y379662D02*
X832234Y384485D01*
X829823Y379662D02*
X834646Y384485D01*
X832234Y379662D02*
X834646Y382073D01*
X788447Y379282D02*
X788826Y379662D01*
X788447Y376870D02*
X791238Y379662D01*
X788826Y374838D02*
X793649Y379662D01*
X791238Y374838D02*
X796061Y379662D01*
X793649Y374838D02*
X798472Y379662D01*
X796061Y374838D02*
X800884Y379662D01*
X798472Y374838D02*
X803296Y379662D01*
X800884Y374838D02*
X805707Y379662D01*
X803296Y374838D02*
X808119Y379662D01*
X805707Y374838D02*
X810530Y379662D01*
X808119Y374838D02*
X812942Y379662D01*
X810530Y374838D02*
X815353Y379662D01*
X812942Y374838D02*
X817765Y379662D01*
X815353Y374838D02*
X820176Y379662D01*
X817765Y374838D02*
X822588Y379662D01*
X820176Y374838D02*
X825000Y379662D01*
X822588Y374838D02*
X827411Y379662D01*
X825000Y374838D02*
X829823Y379662D01*
X827411Y374838D02*
X832234Y379662D01*
X829823Y374838D02*
X834646Y379662D01*
X832234Y374838D02*
X834646Y377250D01*
X788447Y374459D02*
X788826Y374838D01*
X788447Y372047D02*
X791238Y374838D01*
X788826Y370015D02*
X793649Y374838D01*
X791238Y370015D02*
X796061Y374838D01*
X793649Y370015D02*
X798472Y374838D01*
X796061Y370015D02*
X800884Y374838D01*
X798472Y370015D02*
X803296Y374838D01*
X800884Y370015D02*
X805707Y374838D01*
X803296Y370015D02*
X808119Y374838D01*
X805707Y370015D02*
X810530Y374838D01*
X808119Y370015D02*
X812942Y374838D01*
X810530Y370015D02*
X815353Y374838D01*
X812942Y370015D02*
X817765Y374838D01*
X815353Y370015D02*
X820176Y374838D01*
X817765Y370015D02*
X822588Y374838D01*
X820176Y370015D02*
X825000Y374838D01*
X822588Y370015D02*
X827411Y374838D01*
X825000Y370015D02*
X829823Y374838D01*
X827411Y370015D02*
X832234Y374838D01*
X829823Y370015D02*
X834646Y374838D01*
X832234Y370015D02*
X834646Y372427D01*
M02*
