G04*
G04 #@! TF.GenerationSoftware,Altium Limited,Altium Designer,21.3.2 (30)*
G04*
G04 Layer_Color=16711935*
%FSLAX25Y25*%
%MOIN*%
G70*
G04*
G04 #@! TF.SameCoordinates,6AF4B204-6769-45D0-A42D-1EC1730201C4*
G04*
G04*
G04 #@! TF.FilePolarity,Positive*
G04*
G01*
G75*
%ADD38C,0.00787*%
%ADD57C,0.00394*%
%ADD100R,0.03307X0.06692*%
%ADD101R,0.06692X0.03307*%
%ADD102R,0.03765X0.24488*%
%ADD103R,0.24488X0.03765*%
%ADD104R,0.11496X0.02436*%
%ADD105R,0.24488X0.03765*%
D38*
X0Y0D02*
Y393701D01*
X393701D01*
Y0D02*
Y393701D01*
X0Y0D02*
X393701D01*
D57*
X139173Y224016D02*
G03*
X139173Y224016I-1969J0D01*
G01*
X105512Y307677D02*
X118898D01*
X105512Y300590D02*
X118898D01*
X105512D02*
Y307677D01*
X118898Y300590D02*
Y307677D01*
X59153Y344783D02*
Y363878D01*
X13681Y344783D02*
Y363878D01*
Y344783D02*
X59153D01*
X13681Y363878D02*
X59153D01*
X55709Y273819D02*
Y287205D01*
X48622Y273819D02*
Y287205D01*
X55709D01*
X48622Y273819D02*
X55709D01*
X96063Y57874D02*
X99213Y54724D01*
X81890Y40551D02*
X99213Y40354D01*
X81890Y54724D02*
X85039Y57874D01*
X96063D01*
X99213Y40354D02*
Y54724D01*
X81890Y40551D02*
Y54724D01*
X78150Y88386D02*
X85236D01*
X78150Y75000D02*
X85236D01*
Y88386D01*
X78150Y75000D02*
Y88386D01*
X52362Y90158D02*
X65807D01*
X52362Y96850D02*
X65807D01*
Y90158D02*
Y96850D01*
X52362Y90158D02*
Y96850D01*
X31890Y67126D02*
X38976D01*
X31890Y80512D02*
X38976D01*
X31890Y67126D02*
Y80512D01*
X38976Y67126D02*
Y80512D01*
X21791Y104724D02*
X35236D01*
X21791Y98032D02*
X35236D01*
X21791D02*
Y104724D01*
X35236Y98032D02*
Y104724D01*
X45669Y132677D02*
X52756D01*
X45669Y119291D02*
X52756D01*
Y132677D01*
X45669Y119291D02*
Y132677D01*
X4528Y119469D02*
Y132913D01*
X11220Y119469D02*
Y132913D01*
X4528Y119469D02*
X11220D01*
X4528Y132913D02*
X11220D01*
X35236Y149016D02*
Y156102D01*
X21850Y149016D02*
Y156102D01*
Y149016D02*
X35236D01*
X21850Y156102D02*
X35236D01*
X52362Y261221D02*
Y268307D01*
X65748Y261221D02*
Y268307D01*
X52362D02*
X65748D01*
X52362Y261221D02*
X65748D01*
X113386Y297835D02*
X126772D01*
X113386Y290748D02*
X126772D01*
X113386D02*
Y297835D01*
X126772Y290748D02*
Y297835D01*
X158268Y329134D02*
Y336221D01*
X144882Y329134D02*
Y336221D01*
Y329134D02*
X158268D01*
X144882Y336221D02*
X158268D01*
X48425Y340158D02*
X61811D01*
X48425Y333071D02*
X61811D01*
X48425D02*
Y340158D01*
X61811Y333071D02*
Y340158D01*
X11024Y333071D02*
Y340158D01*
X24409Y333071D02*
Y340158D01*
X11024D02*
X24409D01*
X11024Y333071D02*
X24409D01*
X183287Y147205D02*
Y171693D01*
X155295Y147205D02*
Y171693D01*
Y147205D02*
X183287D01*
X155295Y171693D02*
X183287D01*
X109803Y48012D02*
Y76004D01*
X134291Y48012D02*
Y76004D01*
X109803Y48012D02*
X134291D01*
X109803Y76004D02*
X134291D01*
X91693Y91732D02*
X103189D01*
X91693Y73622D02*
X103189D01*
Y91732D01*
X91693Y73622D02*
Y91732D01*
X172638Y244390D02*
Y249705D01*
X179724Y244390D02*
Y249705D01*
X172638D02*
X179724D01*
X172638Y244390D02*
X179724D01*
X115945Y87500D02*
Y93602D01*
X128150Y87500D02*
Y93602D01*
X115945D02*
X128150D01*
X115945Y87500D02*
X128150D01*
X125000Y240158D02*
X140748D01*
X125000Y220472D02*
X140748D01*
X125000D02*
Y240158D01*
X140748Y220472D02*
Y240158D01*
X179331Y183071D02*
X184843D01*
X179331Y194882D02*
X184843D01*
Y183071D02*
Y194882D01*
X179331Y183071D02*
Y194882D01*
X15354Y119291D02*
X41732D01*
X15354Y133858D02*
X41732D01*
X15354Y119291D02*
Y133858D01*
X41732Y119291D02*
Y133858D01*
X148622Y83858D02*
Y89370D01*
Y83858D02*
X160433D01*
X148622Y89370D02*
X160433D01*
Y83858D02*
Y89370D01*
X82677Y330906D02*
Y336417D01*
X70866D02*
X82677D01*
X70866Y330906D02*
X82677D01*
X70866D02*
Y336417D01*
X123031Y330906D02*
Y336417D01*
X111221D02*
X123031D01*
X111221Y330906D02*
X123031D01*
X111221D02*
Y336417D01*
X137795Y330906D02*
Y336417D01*
X125984D02*
X137795D01*
X125984Y330906D02*
X137795D01*
X125984D02*
Y336417D01*
X153248Y182579D02*
Y195374D01*
X159744Y182579D02*
Y195374D01*
X153248Y182579D02*
X159744D01*
X153248Y195374D02*
X159744D01*
X169783Y261122D02*
X182579D01*
X169783Y254626D02*
X182579D01*
X169783D02*
Y261122D01*
X182579Y254626D02*
Y261122D01*
X172539Y182579D02*
Y195374D01*
X166043Y182579D02*
Y195374D01*
X172539D01*
X166043Y182579D02*
X172539D01*
X120571Y35728D02*
X133366D01*
X120571Y29232D02*
X133366D01*
X120571D02*
Y35728D01*
X133366Y29232D02*
Y35728D01*
X145177Y347736D02*
X157972D01*
X145177Y341240D02*
X157972D01*
X145177D02*
Y347736D01*
X157972Y341240D02*
Y347736D01*
X80020Y349902D02*
Y362697D01*
X73524Y349902D02*
Y362697D01*
X80020D01*
X73524Y349902D02*
X80020D01*
X120374D02*
Y362697D01*
X113878Y349902D02*
Y362697D01*
X120374D01*
X113878Y349902D02*
X120374D01*
X135138D02*
Y362697D01*
X128642Y349902D02*
Y362697D01*
X135138D01*
X128642Y349902D02*
X135138D01*
X93012Y232972D02*
X105807D01*
X93012Y239469D02*
X105807D01*
Y232972D02*
Y239469D01*
X93012Y232972D02*
Y239469D01*
Y222146D02*
X105807D01*
X93012Y228642D02*
X105807D01*
Y222146D02*
Y228642D01*
X93012Y222146D02*
Y228642D01*
X339961Y224016D02*
G03*
X339961Y224016I-1969J0D01*
G01*
X306299Y307677D02*
X319685D01*
X306299Y300590D02*
X319685D01*
X306299D02*
Y307677D01*
X319685Y300590D02*
Y307677D01*
X259941Y344783D02*
Y363878D01*
X214469Y344783D02*
Y363878D01*
Y344783D02*
X259941D01*
X214469Y363878D02*
X259941D01*
X256496Y273819D02*
Y287205D01*
X249410Y273819D02*
Y287205D01*
X256496D01*
X249410Y273819D02*
X256496D01*
X296850Y57874D02*
X300000Y54724D01*
X282677Y40551D02*
X300000Y40354D01*
X282677Y54724D02*
X285827Y57874D01*
X296850D01*
X300000Y40354D02*
Y54724D01*
X282677Y40551D02*
Y54724D01*
X278937Y88386D02*
X286024D01*
X278937Y75000D02*
X286024D01*
Y88386D01*
X278937Y75000D02*
Y88386D01*
X253150Y90158D02*
X266594D01*
X253150Y96850D02*
X266594D01*
Y90158D02*
Y96850D01*
X253150Y90158D02*
Y96850D01*
X232677Y67126D02*
X239764D01*
X232677Y80512D02*
X239764D01*
X232677Y67126D02*
Y80512D01*
X239764Y67126D02*
Y80512D01*
X222579Y104724D02*
X236024D01*
X222579Y98032D02*
X236024D01*
X222579D02*
Y104724D01*
X236024Y98032D02*
Y104724D01*
X246457Y132677D02*
X253543D01*
X246457Y119291D02*
X253543D01*
Y132677D01*
X246457Y119291D02*
Y132677D01*
X205315Y119469D02*
Y132913D01*
X212007Y119469D02*
Y132913D01*
X205315Y119469D02*
X212007D01*
X205315Y132913D02*
X212007D01*
X236024Y149016D02*
Y156102D01*
X222638Y149016D02*
Y156102D01*
Y149016D02*
X236024D01*
X222638Y156102D02*
X236024D01*
X253150Y261221D02*
Y268307D01*
X266535Y261221D02*
Y268307D01*
X253150D02*
X266535D01*
X253150Y261221D02*
X266535D01*
X314173Y297835D02*
X327559D01*
X314173Y290748D02*
X327559D01*
X314173D02*
Y297835D01*
X327559Y290748D02*
Y297835D01*
X359055Y329134D02*
Y336221D01*
X345669Y329134D02*
Y336221D01*
Y329134D02*
X359055D01*
X345669Y336221D02*
X359055D01*
X249213Y340158D02*
X262598D01*
X249213Y333071D02*
X262598D01*
X249213D02*
Y340158D01*
X262598Y333071D02*
Y340158D01*
X211811Y333071D02*
Y340158D01*
X225197Y333071D02*
Y340158D01*
X211811D02*
X225197D01*
X211811Y333071D02*
X225197D01*
X384075Y147205D02*
Y171693D01*
X356083Y147205D02*
Y171693D01*
Y147205D02*
X384075D01*
X356083Y171693D02*
X384075D01*
X310591Y48012D02*
Y76004D01*
X335079Y48012D02*
Y76004D01*
X310591Y48012D02*
X335079D01*
X310591Y76004D02*
X335079D01*
X292480Y91732D02*
X303976D01*
X292480Y73622D02*
X303976D01*
Y91732D01*
X292480Y73622D02*
Y91732D01*
X373425Y244390D02*
Y249705D01*
X380512Y244390D02*
Y249705D01*
X373425D02*
X380512D01*
X373425Y244390D02*
X380512D01*
X316732Y87500D02*
Y93602D01*
X328937Y87500D02*
Y93602D01*
X316732D02*
X328937D01*
X316732Y87500D02*
X328937D01*
X325787Y240158D02*
X341535D01*
X325787Y220472D02*
X341535D01*
X325787D02*
Y240158D01*
X341535Y220472D02*
Y240158D01*
X380118Y183071D02*
X385630D01*
X380118Y194882D02*
X385630D01*
Y183071D02*
Y194882D01*
X380118Y183071D02*
Y194882D01*
X216142Y119291D02*
X242520D01*
X216142Y133858D02*
X242520D01*
X216142Y119291D02*
Y133858D01*
X242520Y119291D02*
Y133858D01*
X349410Y83858D02*
Y89370D01*
Y83858D02*
X361221D01*
X349410Y89370D02*
X361221D01*
Y83858D02*
Y89370D01*
X283465Y330906D02*
Y336417D01*
X271654D02*
X283465D01*
X271654Y330906D02*
X283465D01*
X271654D02*
Y336417D01*
X323819Y330906D02*
Y336417D01*
X312008D02*
X323819D01*
X312008Y330906D02*
X323819D01*
X312008D02*
Y336417D01*
X338583Y330906D02*
Y336417D01*
X326772D02*
X338583D01*
X326772Y330906D02*
X338583D01*
X326772D02*
Y336417D01*
X354035Y182579D02*
Y195374D01*
X360531Y182579D02*
Y195374D01*
X354035Y182579D02*
X360531D01*
X354035Y195374D02*
X360531D01*
X370571Y261122D02*
X383366D01*
X370571Y254626D02*
X383366D01*
X370571D02*
Y261122D01*
X383366Y254626D02*
Y261122D01*
X373327Y182579D02*
Y195374D01*
X366831Y182579D02*
Y195374D01*
X373327D01*
X366831Y182579D02*
X373327D01*
X321358Y35728D02*
X334154D01*
X321358Y29232D02*
X334154D01*
X321358D02*
Y35728D01*
X334154Y29232D02*
Y35728D01*
X345965Y347736D02*
X358760D01*
X345965Y341240D02*
X358760D01*
X345965D02*
Y347736D01*
X358760Y341240D02*
Y347736D01*
X280807Y349902D02*
Y362697D01*
X274311Y349902D02*
Y362697D01*
X280807D01*
X274311Y349902D02*
X280807D01*
X321161D02*
Y362697D01*
X314665Y349902D02*
Y362697D01*
X321161D01*
X314665Y349902D02*
X321161D01*
X335925D02*
Y362697D01*
X329429Y349902D02*
Y362697D01*
X335925D01*
X329429Y349902D02*
X335925D01*
X293799Y232972D02*
X306594D01*
X293799Y239469D02*
X306594D01*
Y232972D02*
Y239469D01*
X293799Y232972D02*
Y239469D01*
Y222146D02*
X306594D01*
X293799Y228642D02*
X306594D01*
Y222146D02*
Y228642D01*
X293799Y222146D02*
Y228642D01*
D100*
X53959Y93503D02*
D03*
X33640Y101377D02*
D03*
X254746Y93503D02*
D03*
X234427Y101377D02*
D03*
D101*
X7873Y131318D02*
D03*
X208661D02*
D03*
D102*
X157178Y159449D02*
D03*
X357965D02*
D03*
D103*
X122047Y49894D02*
D03*
D104*
X97443Y74841D02*
D03*
X298231D02*
D03*
D105*
X322835Y49894D02*
D03*
M02*
